G04 #@! TF.GenerationSoftware,KiCad,Pcbnew,5.1.2*
G04 #@! TF.CreationDate,2019-05-07T22:25:54+02:00*
G04 #@! TF.ProjectId,SX1257_pmod,53583132-3537-45f7-906d-6f642e6b6963,rev?*
G04 #@! TF.SameCoordinates,Original*
G04 #@! TF.FileFunction,Paste,Top*
G04 #@! TF.FilePolarity,Positive*
%FSLAX46Y46*%
G04 Gerber Fmt 4.6, Leading zero omitted, Abs format (unit mm)*
G04 Created by KiCad (PCBNEW 5.1.2) date 2019-05-07 22:25:54*
%MOMM*%
%LPD*%
G04 APERTURE LIST*
%ADD10R,0.580000X0.730000*%
%ADD11C,0.100000*%
%ADD12C,0.875000*%
%ADD13R,1.524000X4.800000*%
%ADD14C,0.250000*%
%ADD15C,0.318785*%
%ADD16C,0.349614*%
%ADD17C,0.806226*%
%ADD18R,1.500000X0.450000*%
G04 APERTURE END LIST*
D10*
X131175000Y-49800000D03*
X131175000Y-48800000D03*
X130425000Y-49800000D03*
X130425000Y-48800000D03*
D11*
G36*
X125177691Y-31288053D02*
G01*
X125198926Y-31291203D01*
X125219750Y-31296419D01*
X125239962Y-31303651D01*
X125259368Y-31312830D01*
X125277781Y-31323866D01*
X125295024Y-31336654D01*
X125310930Y-31351070D01*
X125325346Y-31366976D01*
X125338134Y-31384219D01*
X125349170Y-31402632D01*
X125358349Y-31422038D01*
X125365581Y-31442250D01*
X125370797Y-31463074D01*
X125373947Y-31484309D01*
X125375000Y-31505750D01*
X125375000Y-31943250D01*
X125373947Y-31964691D01*
X125370797Y-31985926D01*
X125365581Y-32006750D01*
X125358349Y-32026962D01*
X125349170Y-32046368D01*
X125338134Y-32064781D01*
X125325346Y-32082024D01*
X125310930Y-32097930D01*
X125295024Y-32112346D01*
X125277781Y-32125134D01*
X125259368Y-32136170D01*
X125239962Y-32145349D01*
X125219750Y-32152581D01*
X125198926Y-32157797D01*
X125177691Y-32160947D01*
X125156250Y-32162000D01*
X124643750Y-32162000D01*
X124622309Y-32160947D01*
X124601074Y-32157797D01*
X124580250Y-32152581D01*
X124560038Y-32145349D01*
X124540632Y-32136170D01*
X124522219Y-32125134D01*
X124504976Y-32112346D01*
X124489070Y-32097930D01*
X124474654Y-32082024D01*
X124461866Y-32064781D01*
X124450830Y-32046368D01*
X124441651Y-32026962D01*
X124434419Y-32006750D01*
X124429203Y-31985926D01*
X124426053Y-31964691D01*
X124425000Y-31943250D01*
X124425000Y-31505750D01*
X124426053Y-31484309D01*
X124429203Y-31463074D01*
X124434419Y-31442250D01*
X124441651Y-31422038D01*
X124450830Y-31402632D01*
X124461866Y-31384219D01*
X124474654Y-31366976D01*
X124489070Y-31351070D01*
X124504976Y-31336654D01*
X124522219Y-31323866D01*
X124540632Y-31312830D01*
X124560038Y-31303651D01*
X124580250Y-31296419D01*
X124601074Y-31291203D01*
X124622309Y-31288053D01*
X124643750Y-31287000D01*
X125156250Y-31287000D01*
X125177691Y-31288053D01*
X125177691Y-31288053D01*
G37*
D12*
X124900000Y-31724500D03*
D11*
G36*
X125177691Y-32863053D02*
G01*
X125198926Y-32866203D01*
X125219750Y-32871419D01*
X125239962Y-32878651D01*
X125259368Y-32887830D01*
X125277781Y-32898866D01*
X125295024Y-32911654D01*
X125310930Y-32926070D01*
X125325346Y-32941976D01*
X125338134Y-32959219D01*
X125349170Y-32977632D01*
X125358349Y-32997038D01*
X125365581Y-33017250D01*
X125370797Y-33038074D01*
X125373947Y-33059309D01*
X125375000Y-33080750D01*
X125375000Y-33518250D01*
X125373947Y-33539691D01*
X125370797Y-33560926D01*
X125365581Y-33581750D01*
X125358349Y-33601962D01*
X125349170Y-33621368D01*
X125338134Y-33639781D01*
X125325346Y-33657024D01*
X125310930Y-33672930D01*
X125295024Y-33687346D01*
X125277781Y-33700134D01*
X125259368Y-33711170D01*
X125239962Y-33720349D01*
X125219750Y-33727581D01*
X125198926Y-33732797D01*
X125177691Y-33735947D01*
X125156250Y-33737000D01*
X124643750Y-33737000D01*
X124622309Y-33735947D01*
X124601074Y-33732797D01*
X124580250Y-33727581D01*
X124560038Y-33720349D01*
X124540632Y-33711170D01*
X124522219Y-33700134D01*
X124504976Y-33687346D01*
X124489070Y-33672930D01*
X124474654Y-33657024D01*
X124461866Y-33639781D01*
X124450830Y-33621368D01*
X124441651Y-33601962D01*
X124434419Y-33581750D01*
X124429203Y-33560926D01*
X124426053Y-33539691D01*
X124425000Y-33518250D01*
X124425000Y-33080750D01*
X124426053Y-33059309D01*
X124429203Y-33038074D01*
X124434419Y-33017250D01*
X124441651Y-32997038D01*
X124450830Y-32977632D01*
X124461866Y-32959219D01*
X124474654Y-32941976D01*
X124489070Y-32926070D01*
X124504976Y-32911654D01*
X124522219Y-32898866D01*
X124540632Y-32887830D01*
X124560038Y-32878651D01*
X124580250Y-32871419D01*
X124601074Y-32866203D01*
X124622309Y-32863053D01*
X124643750Y-32862000D01*
X125156250Y-32862000D01*
X125177691Y-32863053D01*
X125177691Y-32863053D01*
G37*
D12*
X124900000Y-33299500D03*
D11*
G36*
X131341691Y-34310553D02*
G01*
X131362926Y-34313703D01*
X131383750Y-34318919D01*
X131403962Y-34326151D01*
X131423368Y-34335330D01*
X131441781Y-34346366D01*
X131459024Y-34359154D01*
X131474930Y-34373570D01*
X131489346Y-34389476D01*
X131502134Y-34406719D01*
X131513170Y-34425132D01*
X131522349Y-34444538D01*
X131529581Y-34464750D01*
X131534797Y-34485574D01*
X131537947Y-34506809D01*
X131539000Y-34528250D01*
X131539000Y-34965750D01*
X131537947Y-34987191D01*
X131534797Y-35008426D01*
X131529581Y-35029250D01*
X131522349Y-35049462D01*
X131513170Y-35068868D01*
X131502134Y-35087281D01*
X131489346Y-35104524D01*
X131474930Y-35120430D01*
X131459024Y-35134846D01*
X131441781Y-35147634D01*
X131423368Y-35158670D01*
X131403962Y-35167849D01*
X131383750Y-35175081D01*
X131362926Y-35180297D01*
X131341691Y-35183447D01*
X131320250Y-35184500D01*
X130807750Y-35184500D01*
X130786309Y-35183447D01*
X130765074Y-35180297D01*
X130744250Y-35175081D01*
X130724038Y-35167849D01*
X130704632Y-35158670D01*
X130686219Y-35147634D01*
X130668976Y-35134846D01*
X130653070Y-35120430D01*
X130638654Y-35104524D01*
X130625866Y-35087281D01*
X130614830Y-35068868D01*
X130605651Y-35049462D01*
X130598419Y-35029250D01*
X130593203Y-35008426D01*
X130590053Y-34987191D01*
X130589000Y-34965750D01*
X130589000Y-34528250D01*
X130590053Y-34506809D01*
X130593203Y-34485574D01*
X130598419Y-34464750D01*
X130605651Y-34444538D01*
X130614830Y-34425132D01*
X130625866Y-34406719D01*
X130638654Y-34389476D01*
X130653070Y-34373570D01*
X130668976Y-34359154D01*
X130686219Y-34346366D01*
X130704632Y-34335330D01*
X130724038Y-34326151D01*
X130744250Y-34318919D01*
X130765074Y-34313703D01*
X130786309Y-34310553D01*
X130807750Y-34309500D01*
X131320250Y-34309500D01*
X131341691Y-34310553D01*
X131341691Y-34310553D01*
G37*
D12*
X131064000Y-34747000D03*
D11*
G36*
X131341691Y-35885553D02*
G01*
X131362926Y-35888703D01*
X131383750Y-35893919D01*
X131403962Y-35901151D01*
X131423368Y-35910330D01*
X131441781Y-35921366D01*
X131459024Y-35934154D01*
X131474930Y-35948570D01*
X131489346Y-35964476D01*
X131502134Y-35981719D01*
X131513170Y-36000132D01*
X131522349Y-36019538D01*
X131529581Y-36039750D01*
X131534797Y-36060574D01*
X131537947Y-36081809D01*
X131539000Y-36103250D01*
X131539000Y-36540750D01*
X131537947Y-36562191D01*
X131534797Y-36583426D01*
X131529581Y-36604250D01*
X131522349Y-36624462D01*
X131513170Y-36643868D01*
X131502134Y-36662281D01*
X131489346Y-36679524D01*
X131474930Y-36695430D01*
X131459024Y-36709846D01*
X131441781Y-36722634D01*
X131423368Y-36733670D01*
X131403962Y-36742849D01*
X131383750Y-36750081D01*
X131362926Y-36755297D01*
X131341691Y-36758447D01*
X131320250Y-36759500D01*
X130807750Y-36759500D01*
X130786309Y-36758447D01*
X130765074Y-36755297D01*
X130744250Y-36750081D01*
X130724038Y-36742849D01*
X130704632Y-36733670D01*
X130686219Y-36722634D01*
X130668976Y-36709846D01*
X130653070Y-36695430D01*
X130638654Y-36679524D01*
X130625866Y-36662281D01*
X130614830Y-36643868D01*
X130605651Y-36624462D01*
X130598419Y-36604250D01*
X130593203Y-36583426D01*
X130590053Y-36562191D01*
X130589000Y-36540750D01*
X130589000Y-36103250D01*
X130590053Y-36081809D01*
X130593203Y-36060574D01*
X130598419Y-36039750D01*
X130605651Y-36019538D01*
X130614830Y-36000132D01*
X130625866Y-35981719D01*
X130638654Y-35964476D01*
X130653070Y-35948570D01*
X130668976Y-35934154D01*
X130686219Y-35921366D01*
X130704632Y-35910330D01*
X130724038Y-35901151D01*
X130744250Y-35893919D01*
X130765074Y-35888703D01*
X130786309Y-35885553D01*
X130807750Y-35884500D01*
X131320250Y-35884500D01*
X131341691Y-35885553D01*
X131341691Y-35885553D01*
G37*
D12*
X131064000Y-36322000D03*
D13*
X133096000Y-65613000D03*
X128016000Y-65613000D03*
X130556000Y-65613000D03*
X118364000Y-65613000D03*
X115824000Y-65613000D03*
X120904000Y-65613000D03*
D11*
G36*
X131327691Y-53876053D02*
G01*
X131348926Y-53879203D01*
X131369750Y-53884419D01*
X131389962Y-53891651D01*
X131409368Y-53900830D01*
X131427781Y-53911866D01*
X131445024Y-53924654D01*
X131460930Y-53939070D01*
X131475346Y-53954976D01*
X131488134Y-53972219D01*
X131499170Y-53990632D01*
X131508349Y-54010038D01*
X131515581Y-54030250D01*
X131520797Y-54051074D01*
X131523947Y-54072309D01*
X131525000Y-54093750D01*
X131525000Y-54606250D01*
X131523947Y-54627691D01*
X131520797Y-54648926D01*
X131515581Y-54669750D01*
X131508349Y-54689962D01*
X131499170Y-54709368D01*
X131488134Y-54727781D01*
X131475346Y-54745024D01*
X131460930Y-54760930D01*
X131445024Y-54775346D01*
X131427781Y-54788134D01*
X131409368Y-54799170D01*
X131389962Y-54808349D01*
X131369750Y-54815581D01*
X131348926Y-54820797D01*
X131327691Y-54823947D01*
X131306250Y-54825000D01*
X130868750Y-54825000D01*
X130847309Y-54823947D01*
X130826074Y-54820797D01*
X130805250Y-54815581D01*
X130785038Y-54808349D01*
X130765632Y-54799170D01*
X130747219Y-54788134D01*
X130729976Y-54775346D01*
X130714070Y-54760930D01*
X130699654Y-54745024D01*
X130686866Y-54727781D01*
X130675830Y-54709368D01*
X130666651Y-54689962D01*
X130659419Y-54669750D01*
X130654203Y-54648926D01*
X130651053Y-54627691D01*
X130650000Y-54606250D01*
X130650000Y-54093750D01*
X130651053Y-54072309D01*
X130654203Y-54051074D01*
X130659419Y-54030250D01*
X130666651Y-54010038D01*
X130675830Y-53990632D01*
X130686866Y-53972219D01*
X130699654Y-53954976D01*
X130714070Y-53939070D01*
X130729976Y-53924654D01*
X130747219Y-53911866D01*
X130765632Y-53900830D01*
X130785038Y-53891651D01*
X130805250Y-53884419D01*
X130826074Y-53879203D01*
X130847309Y-53876053D01*
X130868750Y-53875000D01*
X131306250Y-53875000D01*
X131327691Y-53876053D01*
X131327691Y-53876053D01*
G37*
D12*
X131087500Y-54350000D03*
D11*
G36*
X129752691Y-53876053D02*
G01*
X129773926Y-53879203D01*
X129794750Y-53884419D01*
X129814962Y-53891651D01*
X129834368Y-53900830D01*
X129852781Y-53911866D01*
X129870024Y-53924654D01*
X129885930Y-53939070D01*
X129900346Y-53954976D01*
X129913134Y-53972219D01*
X129924170Y-53990632D01*
X129933349Y-54010038D01*
X129940581Y-54030250D01*
X129945797Y-54051074D01*
X129948947Y-54072309D01*
X129950000Y-54093750D01*
X129950000Y-54606250D01*
X129948947Y-54627691D01*
X129945797Y-54648926D01*
X129940581Y-54669750D01*
X129933349Y-54689962D01*
X129924170Y-54709368D01*
X129913134Y-54727781D01*
X129900346Y-54745024D01*
X129885930Y-54760930D01*
X129870024Y-54775346D01*
X129852781Y-54788134D01*
X129834368Y-54799170D01*
X129814962Y-54808349D01*
X129794750Y-54815581D01*
X129773926Y-54820797D01*
X129752691Y-54823947D01*
X129731250Y-54825000D01*
X129293750Y-54825000D01*
X129272309Y-54823947D01*
X129251074Y-54820797D01*
X129230250Y-54815581D01*
X129210038Y-54808349D01*
X129190632Y-54799170D01*
X129172219Y-54788134D01*
X129154976Y-54775346D01*
X129139070Y-54760930D01*
X129124654Y-54745024D01*
X129111866Y-54727781D01*
X129100830Y-54709368D01*
X129091651Y-54689962D01*
X129084419Y-54669750D01*
X129079203Y-54648926D01*
X129076053Y-54627691D01*
X129075000Y-54606250D01*
X129075000Y-54093750D01*
X129076053Y-54072309D01*
X129079203Y-54051074D01*
X129084419Y-54030250D01*
X129091651Y-54010038D01*
X129100830Y-53990632D01*
X129111866Y-53972219D01*
X129124654Y-53954976D01*
X129139070Y-53939070D01*
X129154976Y-53924654D01*
X129172219Y-53911866D01*
X129190632Y-53900830D01*
X129210038Y-53891651D01*
X129230250Y-53884419D01*
X129251074Y-53879203D01*
X129272309Y-53876053D01*
X129293750Y-53875000D01*
X129731250Y-53875000D01*
X129752691Y-53876053D01*
X129752691Y-53876053D01*
G37*
D12*
X129512500Y-54350000D03*
D11*
G36*
X119010691Y-56803053D02*
G01*
X119031926Y-56806203D01*
X119052750Y-56811419D01*
X119072962Y-56818651D01*
X119092368Y-56827830D01*
X119110781Y-56838866D01*
X119128024Y-56851654D01*
X119143930Y-56866070D01*
X119158346Y-56881976D01*
X119171134Y-56899219D01*
X119182170Y-56917632D01*
X119191349Y-56937038D01*
X119198581Y-56957250D01*
X119203797Y-56978074D01*
X119206947Y-56999309D01*
X119208000Y-57020750D01*
X119208000Y-57533250D01*
X119206947Y-57554691D01*
X119203797Y-57575926D01*
X119198581Y-57596750D01*
X119191349Y-57616962D01*
X119182170Y-57636368D01*
X119171134Y-57654781D01*
X119158346Y-57672024D01*
X119143930Y-57687930D01*
X119128024Y-57702346D01*
X119110781Y-57715134D01*
X119092368Y-57726170D01*
X119072962Y-57735349D01*
X119052750Y-57742581D01*
X119031926Y-57747797D01*
X119010691Y-57750947D01*
X118989250Y-57752000D01*
X118551750Y-57752000D01*
X118530309Y-57750947D01*
X118509074Y-57747797D01*
X118488250Y-57742581D01*
X118468038Y-57735349D01*
X118448632Y-57726170D01*
X118430219Y-57715134D01*
X118412976Y-57702346D01*
X118397070Y-57687930D01*
X118382654Y-57672024D01*
X118369866Y-57654781D01*
X118358830Y-57636368D01*
X118349651Y-57616962D01*
X118342419Y-57596750D01*
X118337203Y-57575926D01*
X118334053Y-57554691D01*
X118333000Y-57533250D01*
X118333000Y-57020750D01*
X118334053Y-56999309D01*
X118337203Y-56978074D01*
X118342419Y-56957250D01*
X118349651Y-56937038D01*
X118358830Y-56917632D01*
X118369866Y-56899219D01*
X118382654Y-56881976D01*
X118397070Y-56866070D01*
X118412976Y-56851654D01*
X118430219Y-56838866D01*
X118448632Y-56827830D01*
X118468038Y-56818651D01*
X118488250Y-56811419D01*
X118509074Y-56806203D01*
X118530309Y-56803053D01*
X118551750Y-56802000D01*
X118989250Y-56802000D01*
X119010691Y-56803053D01*
X119010691Y-56803053D01*
G37*
D12*
X118770500Y-57277000D03*
D11*
G36*
X117435691Y-56803053D02*
G01*
X117456926Y-56806203D01*
X117477750Y-56811419D01*
X117497962Y-56818651D01*
X117517368Y-56827830D01*
X117535781Y-56838866D01*
X117553024Y-56851654D01*
X117568930Y-56866070D01*
X117583346Y-56881976D01*
X117596134Y-56899219D01*
X117607170Y-56917632D01*
X117616349Y-56937038D01*
X117623581Y-56957250D01*
X117628797Y-56978074D01*
X117631947Y-56999309D01*
X117633000Y-57020750D01*
X117633000Y-57533250D01*
X117631947Y-57554691D01*
X117628797Y-57575926D01*
X117623581Y-57596750D01*
X117616349Y-57616962D01*
X117607170Y-57636368D01*
X117596134Y-57654781D01*
X117583346Y-57672024D01*
X117568930Y-57687930D01*
X117553024Y-57702346D01*
X117535781Y-57715134D01*
X117517368Y-57726170D01*
X117497962Y-57735349D01*
X117477750Y-57742581D01*
X117456926Y-57747797D01*
X117435691Y-57750947D01*
X117414250Y-57752000D01*
X116976750Y-57752000D01*
X116955309Y-57750947D01*
X116934074Y-57747797D01*
X116913250Y-57742581D01*
X116893038Y-57735349D01*
X116873632Y-57726170D01*
X116855219Y-57715134D01*
X116837976Y-57702346D01*
X116822070Y-57687930D01*
X116807654Y-57672024D01*
X116794866Y-57654781D01*
X116783830Y-57636368D01*
X116774651Y-57616962D01*
X116767419Y-57596750D01*
X116762203Y-57575926D01*
X116759053Y-57554691D01*
X116758000Y-57533250D01*
X116758000Y-57020750D01*
X116759053Y-56999309D01*
X116762203Y-56978074D01*
X116767419Y-56957250D01*
X116774651Y-56937038D01*
X116783830Y-56917632D01*
X116794866Y-56899219D01*
X116807654Y-56881976D01*
X116822070Y-56866070D01*
X116837976Y-56851654D01*
X116855219Y-56838866D01*
X116873632Y-56827830D01*
X116893038Y-56818651D01*
X116913250Y-56811419D01*
X116934074Y-56806203D01*
X116955309Y-56803053D01*
X116976750Y-56802000D01*
X117414250Y-56802000D01*
X117435691Y-56803053D01*
X117435691Y-56803053D01*
G37*
D12*
X117195500Y-57277000D03*
D11*
G36*
X125202691Y-58451053D02*
G01*
X125223926Y-58454203D01*
X125244750Y-58459419D01*
X125264962Y-58466651D01*
X125284368Y-58475830D01*
X125302781Y-58486866D01*
X125320024Y-58499654D01*
X125335930Y-58514070D01*
X125350346Y-58529976D01*
X125363134Y-58547219D01*
X125374170Y-58565632D01*
X125383349Y-58585038D01*
X125390581Y-58605250D01*
X125395797Y-58626074D01*
X125398947Y-58647309D01*
X125400000Y-58668750D01*
X125400000Y-59181250D01*
X125398947Y-59202691D01*
X125395797Y-59223926D01*
X125390581Y-59244750D01*
X125383349Y-59264962D01*
X125374170Y-59284368D01*
X125363134Y-59302781D01*
X125350346Y-59320024D01*
X125335930Y-59335930D01*
X125320024Y-59350346D01*
X125302781Y-59363134D01*
X125284368Y-59374170D01*
X125264962Y-59383349D01*
X125244750Y-59390581D01*
X125223926Y-59395797D01*
X125202691Y-59398947D01*
X125181250Y-59400000D01*
X124743750Y-59400000D01*
X124722309Y-59398947D01*
X124701074Y-59395797D01*
X124680250Y-59390581D01*
X124660038Y-59383349D01*
X124640632Y-59374170D01*
X124622219Y-59363134D01*
X124604976Y-59350346D01*
X124589070Y-59335930D01*
X124574654Y-59320024D01*
X124561866Y-59302781D01*
X124550830Y-59284368D01*
X124541651Y-59264962D01*
X124534419Y-59244750D01*
X124529203Y-59223926D01*
X124526053Y-59202691D01*
X124525000Y-59181250D01*
X124525000Y-58668750D01*
X124526053Y-58647309D01*
X124529203Y-58626074D01*
X124534419Y-58605250D01*
X124541651Y-58585038D01*
X124550830Y-58565632D01*
X124561866Y-58547219D01*
X124574654Y-58529976D01*
X124589070Y-58514070D01*
X124604976Y-58499654D01*
X124622219Y-58486866D01*
X124640632Y-58475830D01*
X124660038Y-58466651D01*
X124680250Y-58459419D01*
X124701074Y-58454203D01*
X124722309Y-58451053D01*
X124743750Y-58450000D01*
X125181250Y-58450000D01*
X125202691Y-58451053D01*
X125202691Y-58451053D01*
G37*
D12*
X124962500Y-58925000D03*
D11*
G36*
X126777691Y-58451053D02*
G01*
X126798926Y-58454203D01*
X126819750Y-58459419D01*
X126839962Y-58466651D01*
X126859368Y-58475830D01*
X126877781Y-58486866D01*
X126895024Y-58499654D01*
X126910930Y-58514070D01*
X126925346Y-58529976D01*
X126938134Y-58547219D01*
X126949170Y-58565632D01*
X126958349Y-58585038D01*
X126965581Y-58605250D01*
X126970797Y-58626074D01*
X126973947Y-58647309D01*
X126975000Y-58668750D01*
X126975000Y-59181250D01*
X126973947Y-59202691D01*
X126970797Y-59223926D01*
X126965581Y-59244750D01*
X126958349Y-59264962D01*
X126949170Y-59284368D01*
X126938134Y-59302781D01*
X126925346Y-59320024D01*
X126910930Y-59335930D01*
X126895024Y-59350346D01*
X126877781Y-59363134D01*
X126859368Y-59374170D01*
X126839962Y-59383349D01*
X126819750Y-59390581D01*
X126798926Y-59395797D01*
X126777691Y-59398947D01*
X126756250Y-59400000D01*
X126318750Y-59400000D01*
X126297309Y-59398947D01*
X126276074Y-59395797D01*
X126255250Y-59390581D01*
X126235038Y-59383349D01*
X126215632Y-59374170D01*
X126197219Y-59363134D01*
X126179976Y-59350346D01*
X126164070Y-59335930D01*
X126149654Y-59320024D01*
X126136866Y-59302781D01*
X126125830Y-59284368D01*
X126116651Y-59264962D01*
X126109419Y-59244750D01*
X126104203Y-59223926D01*
X126101053Y-59202691D01*
X126100000Y-59181250D01*
X126100000Y-58668750D01*
X126101053Y-58647309D01*
X126104203Y-58626074D01*
X126109419Y-58605250D01*
X126116651Y-58585038D01*
X126125830Y-58565632D01*
X126136866Y-58547219D01*
X126149654Y-58529976D01*
X126164070Y-58514070D01*
X126179976Y-58499654D01*
X126197219Y-58486866D01*
X126215632Y-58475830D01*
X126235038Y-58466651D01*
X126255250Y-58459419D01*
X126276074Y-58454203D01*
X126297309Y-58451053D01*
X126318750Y-58450000D01*
X126756250Y-58450000D01*
X126777691Y-58451053D01*
X126777691Y-58451053D01*
G37*
D12*
X126537500Y-58925000D03*
D11*
G36*
X125233691Y-56903053D02*
G01*
X125254926Y-56906203D01*
X125275750Y-56911419D01*
X125295962Y-56918651D01*
X125315368Y-56927830D01*
X125333781Y-56938866D01*
X125351024Y-56951654D01*
X125366930Y-56966070D01*
X125381346Y-56981976D01*
X125394134Y-56999219D01*
X125405170Y-57017632D01*
X125414349Y-57037038D01*
X125421581Y-57057250D01*
X125426797Y-57078074D01*
X125429947Y-57099309D01*
X125431000Y-57120750D01*
X125431000Y-57633250D01*
X125429947Y-57654691D01*
X125426797Y-57675926D01*
X125421581Y-57696750D01*
X125414349Y-57716962D01*
X125405170Y-57736368D01*
X125394134Y-57754781D01*
X125381346Y-57772024D01*
X125366930Y-57787930D01*
X125351024Y-57802346D01*
X125333781Y-57815134D01*
X125315368Y-57826170D01*
X125295962Y-57835349D01*
X125275750Y-57842581D01*
X125254926Y-57847797D01*
X125233691Y-57850947D01*
X125212250Y-57852000D01*
X124774750Y-57852000D01*
X124753309Y-57850947D01*
X124732074Y-57847797D01*
X124711250Y-57842581D01*
X124691038Y-57835349D01*
X124671632Y-57826170D01*
X124653219Y-57815134D01*
X124635976Y-57802346D01*
X124620070Y-57787930D01*
X124605654Y-57772024D01*
X124592866Y-57754781D01*
X124581830Y-57736368D01*
X124572651Y-57716962D01*
X124565419Y-57696750D01*
X124560203Y-57675926D01*
X124557053Y-57654691D01*
X124556000Y-57633250D01*
X124556000Y-57120750D01*
X124557053Y-57099309D01*
X124560203Y-57078074D01*
X124565419Y-57057250D01*
X124572651Y-57037038D01*
X124581830Y-57017632D01*
X124592866Y-56999219D01*
X124605654Y-56981976D01*
X124620070Y-56966070D01*
X124635976Y-56951654D01*
X124653219Y-56938866D01*
X124671632Y-56927830D01*
X124691038Y-56918651D01*
X124711250Y-56911419D01*
X124732074Y-56906203D01*
X124753309Y-56903053D01*
X124774750Y-56902000D01*
X125212250Y-56902000D01*
X125233691Y-56903053D01*
X125233691Y-56903053D01*
G37*
D12*
X124993500Y-57377000D03*
D11*
G36*
X123658691Y-56903053D02*
G01*
X123679926Y-56906203D01*
X123700750Y-56911419D01*
X123720962Y-56918651D01*
X123740368Y-56927830D01*
X123758781Y-56938866D01*
X123776024Y-56951654D01*
X123791930Y-56966070D01*
X123806346Y-56981976D01*
X123819134Y-56999219D01*
X123830170Y-57017632D01*
X123839349Y-57037038D01*
X123846581Y-57057250D01*
X123851797Y-57078074D01*
X123854947Y-57099309D01*
X123856000Y-57120750D01*
X123856000Y-57633250D01*
X123854947Y-57654691D01*
X123851797Y-57675926D01*
X123846581Y-57696750D01*
X123839349Y-57716962D01*
X123830170Y-57736368D01*
X123819134Y-57754781D01*
X123806346Y-57772024D01*
X123791930Y-57787930D01*
X123776024Y-57802346D01*
X123758781Y-57815134D01*
X123740368Y-57826170D01*
X123720962Y-57835349D01*
X123700750Y-57842581D01*
X123679926Y-57847797D01*
X123658691Y-57850947D01*
X123637250Y-57852000D01*
X123199750Y-57852000D01*
X123178309Y-57850947D01*
X123157074Y-57847797D01*
X123136250Y-57842581D01*
X123116038Y-57835349D01*
X123096632Y-57826170D01*
X123078219Y-57815134D01*
X123060976Y-57802346D01*
X123045070Y-57787930D01*
X123030654Y-57772024D01*
X123017866Y-57754781D01*
X123006830Y-57736368D01*
X122997651Y-57716962D01*
X122990419Y-57696750D01*
X122985203Y-57675926D01*
X122982053Y-57654691D01*
X122981000Y-57633250D01*
X122981000Y-57120750D01*
X122982053Y-57099309D01*
X122985203Y-57078074D01*
X122990419Y-57057250D01*
X122997651Y-57037038D01*
X123006830Y-57017632D01*
X123017866Y-56999219D01*
X123030654Y-56981976D01*
X123045070Y-56966070D01*
X123060976Y-56951654D01*
X123078219Y-56938866D01*
X123096632Y-56927830D01*
X123116038Y-56918651D01*
X123136250Y-56911419D01*
X123157074Y-56906203D01*
X123178309Y-56903053D01*
X123199750Y-56902000D01*
X123637250Y-56902000D01*
X123658691Y-56903053D01*
X123658691Y-56903053D01*
G37*
D12*
X123418500Y-57377000D03*
D11*
G36*
X120534691Y-59851053D02*
G01*
X120555926Y-59854203D01*
X120576750Y-59859419D01*
X120596962Y-59866651D01*
X120616368Y-59875830D01*
X120634781Y-59886866D01*
X120652024Y-59899654D01*
X120667930Y-59914070D01*
X120682346Y-59929976D01*
X120695134Y-59947219D01*
X120706170Y-59965632D01*
X120715349Y-59985038D01*
X120722581Y-60005250D01*
X120727797Y-60026074D01*
X120730947Y-60047309D01*
X120732000Y-60068750D01*
X120732000Y-60581250D01*
X120730947Y-60602691D01*
X120727797Y-60623926D01*
X120722581Y-60644750D01*
X120715349Y-60664962D01*
X120706170Y-60684368D01*
X120695134Y-60702781D01*
X120682346Y-60720024D01*
X120667930Y-60735930D01*
X120652024Y-60750346D01*
X120634781Y-60763134D01*
X120616368Y-60774170D01*
X120596962Y-60783349D01*
X120576750Y-60790581D01*
X120555926Y-60795797D01*
X120534691Y-60798947D01*
X120513250Y-60800000D01*
X120075750Y-60800000D01*
X120054309Y-60798947D01*
X120033074Y-60795797D01*
X120012250Y-60790581D01*
X119992038Y-60783349D01*
X119972632Y-60774170D01*
X119954219Y-60763134D01*
X119936976Y-60750346D01*
X119921070Y-60735930D01*
X119906654Y-60720024D01*
X119893866Y-60702781D01*
X119882830Y-60684368D01*
X119873651Y-60664962D01*
X119866419Y-60644750D01*
X119861203Y-60623926D01*
X119858053Y-60602691D01*
X119857000Y-60581250D01*
X119857000Y-60068750D01*
X119858053Y-60047309D01*
X119861203Y-60026074D01*
X119866419Y-60005250D01*
X119873651Y-59985038D01*
X119882830Y-59965632D01*
X119893866Y-59947219D01*
X119906654Y-59929976D01*
X119921070Y-59914070D01*
X119936976Y-59899654D01*
X119954219Y-59886866D01*
X119972632Y-59875830D01*
X119992038Y-59866651D01*
X120012250Y-59859419D01*
X120033074Y-59854203D01*
X120054309Y-59851053D01*
X120075750Y-59850000D01*
X120513250Y-59850000D01*
X120534691Y-59851053D01*
X120534691Y-59851053D01*
G37*
D12*
X120294500Y-60325000D03*
D11*
G36*
X118959691Y-59851053D02*
G01*
X118980926Y-59854203D01*
X119001750Y-59859419D01*
X119021962Y-59866651D01*
X119041368Y-59875830D01*
X119059781Y-59886866D01*
X119077024Y-59899654D01*
X119092930Y-59914070D01*
X119107346Y-59929976D01*
X119120134Y-59947219D01*
X119131170Y-59965632D01*
X119140349Y-59985038D01*
X119147581Y-60005250D01*
X119152797Y-60026074D01*
X119155947Y-60047309D01*
X119157000Y-60068750D01*
X119157000Y-60581250D01*
X119155947Y-60602691D01*
X119152797Y-60623926D01*
X119147581Y-60644750D01*
X119140349Y-60664962D01*
X119131170Y-60684368D01*
X119120134Y-60702781D01*
X119107346Y-60720024D01*
X119092930Y-60735930D01*
X119077024Y-60750346D01*
X119059781Y-60763134D01*
X119041368Y-60774170D01*
X119021962Y-60783349D01*
X119001750Y-60790581D01*
X118980926Y-60795797D01*
X118959691Y-60798947D01*
X118938250Y-60800000D01*
X118500750Y-60800000D01*
X118479309Y-60798947D01*
X118458074Y-60795797D01*
X118437250Y-60790581D01*
X118417038Y-60783349D01*
X118397632Y-60774170D01*
X118379219Y-60763134D01*
X118361976Y-60750346D01*
X118346070Y-60735930D01*
X118331654Y-60720024D01*
X118318866Y-60702781D01*
X118307830Y-60684368D01*
X118298651Y-60664962D01*
X118291419Y-60644750D01*
X118286203Y-60623926D01*
X118283053Y-60602691D01*
X118282000Y-60581250D01*
X118282000Y-60068750D01*
X118283053Y-60047309D01*
X118286203Y-60026074D01*
X118291419Y-60005250D01*
X118298651Y-59985038D01*
X118307830Y-59965632D01*
X118318866Y-59947219D01*
X118331654Y-59929976D01*
X118346070Y-59914070D01*
X118361976Y-59899654D01*
X118379219Y-59886866D01*
X118397632Y-59875830D01*
X118417038Y-59866651D01*
X118437250Y-59859419D01*
X118458074Y-59854203D01*
X118479309Y-59851053D01*
X118500750Y-59850000D01*
X118938250Y-59850000D01*
X118959691Y-59851053D01*
X118959691Y-59851053D01*
G37*
D12*
X118719500Y-60325000D03*
D11*
G36*
X129754691Y-56903053D02*
G01*
X129775926Y-56906203D01*
X129796750Y-56911419D01*
X129816962Y-56918651D01*
X129836368Y-56927830D01*
X129854781Y-56938866D01*
X129872024Y-56951654D01*
X129887930Y-56966070D01*
X129902346Y-56981976D01*
X129915134Y-56999219D01*
X129926170Y-57017632D01*
X129935349Y-57037038D01*
X129942581Y-57057250D01*
X129947797Y-57078074D01*
X129950947Y-57099309D01*
X129952000Y-57120750D01*
X129952000Y-57633250D01*
X129950947Y-57654691D01*
X129947797Y-57675926D01*
X129942581Y-57696750D01*
X129935349Y-57716962D01*
X129926170Y-57736368D01*
X129915134Y-57754781D01*
X129902346Y-57772024D01*
X129887930Y-57787930D01*
X129872024Y-57802346D01*
X129854781Y-57815134D01*
X129836368Y-57826170D01*
X129816962Y-57835349D01*
X129796750Y-57842581D01*
X129775926Y-57847797D01*
X129754691Y-57850947D01*
X129733250Y-57852000D01*
X129295750Y-57852000D01*
X129274309Y-57850947D01*
X129253074Y-57847797D01*
X129232250Y-57842581D01*
X129212038Y-57835349D01*
X129192632Y-57826170D01*
X129174219Y-57815134D01*
X129156976Y-57802346D01*
X129141070Y-57787930D01*
X129126654Y-57772024D01*
X129113866Y-57754781D01*
X129102830Y-57736368D01*
X129093651Y-57716962D01*
X129086419Y-57696750D01*
X129081203Y-57675926D01*
X129078053Y-57654691D01*
X129077000Y-57633250D01*
X129077000Y-57120750D01*
X129078053Y-57099309D01*
X129081203Y-57078074D01*
X129086419Y-57057250D01*
X129093651Y-57037038D01*
X129102830Y-57017632D01*
X129113866Y-56999219D01*
X129126654Y-56981976D01*
X129141070Y-56966070D01*
X129156976Y-56951654D01*
X129174219Y-56938866D01*
X129192632Y-56927830D01*
X129212038Y-56918651D01*
X129232250Y-56911419D01*
X129253074Y-56906203D01*
X129274309Y-56903053D01*
X129295750Y-56902000D01*
X129733250Y-56902000D01*
X129754691Y-56903053D01*
X129754691Y-56903053D01*
G37*
D12*
X129514500Y-57377000D03*
D11*
G36*
X131329691Y-56903053D02*
G01*
X131350926Y-56906203D01*
X131371750Y-56911419D01*
X131391962Y-56918651D01*
X131411368Y-56927830D01*
X131429781Y-56938866D01*
X131447024Y-56951654D01*
X131462930Y-56966070D01*
X131477346Y-56981976D01*
X131490134Y-56999219D01*
X131501170Y-57017632D01*
X131510349Y-57037038D01*
X131517581Y-57057250D01*
X131522797Y-57078074D01*
X131525947Y-57099309D01*
X131527000Y-57120750D01*
X131527000Y-57633250D01*
X131525947Y-57654691D01*
X131522797Y-57675926D01*
X131517581Y-57696750D01*
X131510349Y-57716962D01*
X131501170Y-57736368D01*
X131490134Y-57754781D01*
X131477346Y-57772024D01*
X131462930Y-57787930D01*
X131447024Y-57802346D01*
X131429781Y-57815134D01*
X131411368Y-57826170D01*
X131391962Y-57835349D01*
X131371750Y-57842581D01*
X131350926Y-57847797D01*
X131329691Y-57850947D01*
X131308250Y-57852000D01*
X130870750Y-57852000D01*
X130849309Y-57850947D01*
X130828074Y-57847797D01*
X130807250Y-57842581D01*
X130787038Y-57835349D01*
X130767632Y-57826170D01*
X130749219Y-57815134D01*
X130731976Y-57802346D01*
X130716070Y-57787930D01*
X130701654Y-57772024D01*
X130688866Y-57754781D01*
X130677830Y-57736368D01*
X130668651Y-57716962D01*
X130661419Y-57696750D01*
X130656203Y-57675926D01*
X130653053Y-57654691D01*
X130652000Y-57633250D01*
X130652000Y-57120750D01*
X130653053Y-57099309D01*
X130656203Y-57078074D01*
X130661419Y-57057250D01*
X130668651Y-57037038D01*
X130677830Y-57017632D01*
X130688866Y-56999219D01*
X130701654Y-56981976D01*
X130716070Y-56966070D01*
X130731976Y-56951654D01*
X130749219Y-56938866D01*
X130767632Y-56927830D01*
X130787038Y-56918651D01*
X130807250Y-56911419D01*
X130828074Y-56906203D01*
X130849309Y-56903053D01*
X130870750Y-56902000D01*
X131308250Y-56902000D01*
X131329691Y-56903053D01*
X131329691Y-56903053D01*
G37*
D12*
X131089500Y-57377000D03*
D11*
G36*
X120890191Y-44738053D02*
G01*
X120911426Y-44741203D01*
X120932250Y-44746419D01*
X120952462Y-44753651D01*
X120971868Y-44762830D01*
X120990281Y-44773866D01*
X121007524Y-44786654D01*
X121023430Y-44801070D01*
X121037846Y-44816976D01*
X121050634Y-44834219D01*
X121061670Y-44852632D01*
X121070849Y-44872038D01*
X121078081Y-44892250D01*
X121083297Y-44913074D01*
X121086447Y-44934309D01*
X121087500Y-44955750D01*
X121087500Y-45468250D01*
X121086447Y-45489691D01*
X121083297Y-45510926D01*
X121078081Y-45531750D01*
X121070849Y-45551962D01*
X121061670Y-45571368D01*
X121050634Y-45589781D01*
X121037846Y-45607024D01*
X121023430Y-45622930D01*
X121007524Y-45637346D01*
X120990281Y-45650134D01*
X120971868Y-45661170D01*
X120952462Y-45670349D01*
X120932250Y-45677581D01*
X120911426Y-45682797D01*
X120890191Y-45685947D01*
X120868750Y-45687000D01*
X120431250Y-45687000D01*
X120409809Y-45685947D01*
X120388574Y-45682797D01*
X120367750Y-45677581D01*
X120347538Y-45670349D01*
X120328132Y-45661170D01*
X120309719Y-45650134D01*
X120292476Y-45637346D01*
X120276570Y-45622930D01*
X120262154Y-45607024D01*
X120249366Y-45589781D01*
X120238330Y-45571368D01*
X120229151Y-45551962D01*
X120221919Y-45531750D01*
X120216703Y-45510926D01*
X120213553Y-45489691D01*
X120212500Y-45468250D01*
X120212500Y-44955750D01*
X120213553Y-44934309D01*
X120216703Y-44913074D01*
X120221919Y-44892250D01*
X120229151Y-44872038D01*
X120238330Y-44852632D01*
X120249366Y-44834219D01*
X120262154Y-44816976D01*
X120276570Y-44801070D01*
X120292476Y-44786654D01*
X120309719Y-44773866D01*
X120328132Y-44762830D01*
X120347538Y-44753651D01*
X120367750Y-44746419D01*
X120388574Y-44741203D01*
X120409809Y-44738053D01*
X120431250Y-44737000D01*
X120868750Y-44737000D01*
X120890191Y-44738053D01*
X120890191Y-44738053D01*
G37*
D12*
X120650000Y-45212000D03*
D11*
G36*
X122465191Y-44738053D02*
G01*
X122486426Y-44741203D01*
X122507250Y-44746419D01*
X122527462Y-44753651D01*
X122546868Y-44762830D01*
X122565281Y-44773866D01*
X122582524Y-44786654D01*
X122598430Y-44801070D01*
X122612846Y-44816976D01*
X122625634Y-44834219D01*
X122636670Y-44852632D01*
X122645849Y-44872038D01*
X122653081Y-44892250D01*
X122658297Y-44913074D01*
X122661447Y-44934309D01*
X122662500Y-44955750D01*
X122662500Y-45468250D01*
X122661447Y-45489691D01*
X122658297Y-45510926D01*
X122653081Y-45531750D01*
X122645849Y-45551962D01*
X122636670Y-45571368D01*
X122625634Y-45589781D01*
X122612846Y-45607024D01*
X122598430Y-45622930D01*
X122582524Y-45637346D01*
X122565281Y-45650134D01*
X122546868Y-45661170D01*
X122527462Y-45670349D01*
X122507250Y-45677581D01*
X122486426Y-45682797D01*
X122465191Y-45685947D01*
X122443750Y-45687000D01*
X122006250Y-45687000D01*
X121984809Y-45685947D01*
X121963574Y-45682797D01*
X121942750Y-45677581D01*
X121922538Y-45670349D01*
X121903132Y-45661170D01*
X121884719Y-45650134D01*
X121867476Y-45637346D01*
X121851570Y-45622930D01*
X121837154Y-45607024D01*
X121824366Y-45589781D01*
X121813330Y-45571368D01*
X121804151Y-45551962D01*
X121796919Y-45531750D01*
X121791703Y-45510926D01*
X121788553Y-45489691D01*
X121787500Y-45468250D01*
X121787500Y-44955750D01*
X121788553Y-44934309D01*
X121791703Y-44913074D01*
X121796919Y-44892250D01*
X121804151Y-44872038D01*
X121813330Y-44852632D01*
X121824366Y-44834219D01*
X121837154Y-44816976D01*
X121851570Y-44801070D01*
X121867476Y-44786654D01*
X121884719Y-44773866D01*
X121903132Y-44762830D01*
X121922538Y-44753651D01*
X121942750Y-44746419D01*
X121963574Y-44741203D01*
X121984809Y-44738053D01*
X122006250Y-44737000D01*
X122443750Y-44737000D01*
X122465191Y-44738053D01*
X122465191Y-44738053D01*
G37*
D12*
X122225000Y-45212000D03*
D11*
G36*
X115974691Y-59888553D02*
G01*
X115995926Y-59891703D01*
X116016750Y-59896919D01*
X116036962Y-59904151D01*
X116056368Y-59913330D01*
X116074781Y-59924366D01*
X116092024Y-59937154D01*
X116107930Y-59951570D01*
X116122346Y-59967476D01*
X116135134Y-59984719D01*
X116146170Y-60003132D01*
X116155349Y-60022538D01*
X116162581Y-60042750D01*
X116167797Y-60063574D01*
X116170947Y-60084809D01*
X116172000Y-60106250D01*
X116172000Y-60543750D01*
X116170947Y-60565191D01*
X116167797Y-60586426D01*
X116162581Y-60607250D01*
X116155349Y-60627462D01*
X116146170Y-60646868D01*
X116135134Y-60665281D01*
X116122346Y-60682524D01*
X116107930Y-60698430D01*
X116092024Y-60712846D01*
X116074781Y-60725634D01*
X116056368Y-60736670D01*
X116036962Y-60745849D01*
X116016750Y-60753081D01*
X115995926Y-60758297D01*
X115974691Y-60761447D01*
X115953250Y-60762500D01*
X115440750Y-60762500D01*
X115419309Y-60761447D01*
X115398074Y-60758297D01*
X115377250Y-60753081D01*
X115357038Y-60745849D01*
X115337632Y-60736670D01*
X115319219Y-60725634D01*
X115301976Y-60712846D01*
X115286070Y-60698430D01*
X115271654Y-60682524D01*
X115258866Y-60665281D01*
X115247830Y-60646868D01*
X115238651Y-60627462D01*
X115231419Y-60607250D01*
X115226203Y-60586426D01*
X115223053Y-60565191D01*
X115222000Y-60543750D01*
X115222000Y-60106250D01*
X115223053Y-60084809D01*
X115226203Y-60063574D01*
X115231419Y-60042750D01*
X115238651Y-60022538D01*
X115247830Y-60003132D01*
X115258866Y-59984719D01*
X115271654Y-59967476D01*
X115286070Y-59951570D01*
X115301976Y-59937154D01*
X115319219Y-59924366D01*
X115337632Y-59913330D01*
X115357038Y-59904151D01*
X115377250Y-59896919D01*
X115398074Y-59891703D01*
X115419309Y-59888553D01*
X115440750Y-59887500D01*
X115953250Y-59887500D01*
X115974691Y-59888553D01*
X115974691Y-59888553D01*
G37*
D12*
X115697000Y-60325000D03*
D11*
G36*
X115974691Y-58313553D02*
G01*
X115995926Y-58316703D01*
X116016750Y-58321919D01*
X116036962Y-58329151D01*
X116056368Y-58338330D01*
X116074781Y-58349366D01*
X116092024Y-58362154D01*
X116107930Y-58376570D01*
X116122346Y-58392476D01*
X116135134Y-58409719D01*
X116146170Y-58428132D01*
X116155349Y-58447538D01*
X116162581Y-58467750D01*
X116167797Y-58488574D01*
X116170947Y-58509809D01*
X116172000Y-58531250D01*
X116172000Y-58968750D01*
X116170947Y-58990191D01*
X116167797Y-59011426D01*
X116162581Y-59032250D01*
X116155349Y-59052462D01*
X116146170Y-59071868D01*
X116135134Y-59090281D01*
X116122346Y-59107524D01*
X116107930Y-59123430D01*
X116092024Y-59137846D01*
X116074781Y-59150634D01*
X116056368Y-59161670D01*
X116036962Y-59170849D01*
X116016750Y-59178081D01*
X115995926Y-59183297D01*
X115974691Y-59186447D01*
X115953250Y-59187500D01*
X115440750Y-59187500D01*
X115419309Y-59186447D01*
X115398074Y-59183297D01*
X115377250Y-59178081D01*
X115357038Y-59170849D01*
X115337632Y-59161670D01*
X115319219Y-59150634D01*
X115301976Y-59137846D01*
X115286070Y-59123430D01*
X115271654Y-59107524D01*
X115258866Y-59090281D01*
X115247830Y-59071868D01*
X115238651Y-59052462D01*
X115231419Y-59032250D01*
X115226203Y-59011426D01*
X115223053Y-58990191D01*
X115222000Y-58968750D01*
X115222000Y-58531250D01*
X115223053Y-58509809D01*
X115226203Y-58488574D01*
X115231419Y-58467750D01*
X115238651Y-58447538D01*
X115247830Y-58428132D01*
X115258866Y-58409719D01*
X115271654Y-58392476D01*
X115286070Y-58376570D01*
X115301976Y-58362154D01*
X115319219Y-58349366D01*
X115337632Y-58338330D01*
X115357038Y-58329151D01*
X115377250Y-58321919D01*
X115398074Y-58316703D01*
X115419309Y-58313553D01*
X115440750Y-58312500D01*
X115953250Y-58312500D01*
X115974691Y-58313553D01*
X115974691Y-58313553D01*
G37*
D12*
X115697000Y-58750000D03*
D11*
G36*
X126777691Y-31288053D02*
G01*
X126798926Y-31291203D01*
X126819750Y-31296419D01*
X126839962Y-31303651D01*
X126859368Y-31312830D01*
X126877781Y-31323866D01*
X126895024Y-31336654D01*
X126910930Y-31351070D01*
X126925346Y-31366976D01*
X126938134Y-31384219D01*
X126949170Y-31402632D01*
X126958349Y-31422038D01*
X126965581Y-31442250D01*
X126970797Y-31463074D01*
X126973947Y-31484309D01*
X126975000Y-31505750D01*
X126975000Y-31943250D01*
X126973947Y-31964691D01*
X126970797Y-31985926D01*
X126965581Y-32006750D01*
X126958349Y-32026962D01*
X126949170Y-32046368D01*
X126938134Y-32064781D01*
X126925346Y-32082024D01*
X126910930Y-32097930D01*
X126895024Y-32112346D01*
X126877781Y-32125134D01*
X126859368Y-32136170D01*
X126839962Y-32145349D01*
X126819750Y-32152581D01*
X126798926Y-32157797D01*
X126777691Y-32160947D01*
X126756250Y-32162000D01*
X126243750Y-32162000D01*
X126222309Y-32160947D01*
X126201074Y-32157797D01*
X126180250Y-32152581D01*
X126160038Y-32145349D01*
X126140632Y-32136170D01*
X126122219Y-32125134D01*
X126104976Y-32112346D01*
X126089070Y-32097930D01*
X126074654Y-32082024D01*
X126061866Y-32064781D01*
X126050830Y-32046368D01*
X126041651Y-32026962D01*
X126034419Y-32006750D01*
X126029203Y-31985926D01*
X126026053Y-31964691D01*
X126025000Y-31943250D01*
X126025000Y-31505750D01*
X126026053Y-31484309D01*
X126029203Y-31463074D01*
X126034419Y-31442250D01*
X126041651Y-31422038D01*
X126050830Y-31402632D01*
X126061866Y-31384219D01*
X126074654Y-31366976D01*
X126089070Y-31351070D01*
X126104976Y-31336654D01*
X126122219Y-31323866D01*
X126140632Y-31312830D01*
X126160038Y-31303651D01*
X126180250Y-31296419D01*
X126201074Y-31291203D01*
X126222309Y-31288053D01*
X126243750Y-31287000D01*
X126756250Y-31287000D01*
X126777691Y-31288053D01*
X126777691Y-31288053D01*
G37*
D12*
X126500000Y-31724500D03*
D11*
G36*
X126777691Y-32863053D02*
G01*
X126798926Y-32866203D01*
X126819750Y-32871419D01*
X126839962Y-32878651D01*
X126859368Y-32887830D01*
X126877781Y-32898866D01*
X126895024Y-32911654D01*
X126910930Y-32926070D01*
X126925346Y-32941976D01*
X126938134Y-32959219D01*
X126949170Y-32977632D01*
X126958349Y-32997038D01*
X126965581Y-33017250D01*
X126970797Y-33038074D01*
X126973947Y-33059309D01*
X126975000Y-33080750D01*
X126975000Y-33518250D01*
X126973947Y-33539691D01*
X126970797Y-33560926D01*
X126965581Y-33581750D01*
X126958349Y-33601962D01*
X126949170Y-33621368D01*
X126938134Y-33639781D01*
X126925346Y-33657024D01*
X126910930Y-33672930D01*
X126895024Y-33687346D01*
X126877781Y-33700134D01*
X126859368Y-33711170D01*
X126839962Y-33720349D01*
X126819750Y-33727581D01*
X126798926Y-33732797D01*
X126777691Y-33735947D01*
X126756250Y-33737000D01*
X126243750Y-33737000D01*
X126222309Y-33735947D01*
X126201074Y-33732797D01*
X126180250Y-33727581D01*
X126160038Y-33720349D01*
X126140632Y-33711170D01*
X126122219Y-33700134D01*
X126104976Y-33687346D01*
X126089070Y-33672930D01*
X126074654Y-33657024D01*
X126061866Y-33639781D01*
X126050830Y-33621368D01*
X126041651Y-33601962D01*
X126034419Y-33581750D01*
X126029203Y-33560926D01*
X126026053Y-33539691D01*
X126025000Y-33518250D01*
X126025000Y-33080750D01*
X126026053Y-33059309D01*
X126029203Y-33038074D01*
X126034419Y-33017250D01*
X126041651Y-32997038D01*
X126050830Y-32977632D01*
X126061866Y-32959219D01*
X126074654Y-32941976D01*
X126089070Y-32926070D01*
X126104976Y-32911654D01*
X126122219Y-32898866D01*
X126140632Y-32887830D01*
X126160038Y-32878651D01*
X126180250Y-32871419D01*
X126201074Y-32866203D01*
X126222309Y-32863053D01*
X126243750Y-32862000D01*
X126756250Y-32862000D01*
X126777691Y-32863053D01*
X126777691Y-32863053D01*
G37*
D12*
X126500000Y-33299500D03*
D11*
G36*
X129752691Y-55376053D02*
G01*
X129773926Y-55379203D01*
X129794750Y-55384419D01*
X129814962Y-55391651D01*
X129834368Y-55400830D01*
X129852781Y-55411866D01*
X129870024Y-55424654D01*
X129885930Y-55439070D01*
X129900346Y-55454976D01*
X129913134Y-55472219D01*
X129924170Y-55490632D01*
X129933349Y-55510038D01*
X129940581Y-55530250D01*
X129945797Y-55551074D01*
X129948947Y-55572309D01*
X129950000Y-55593750D01*
X129950000Y-56106250D01*
X129948947Y-56127691D01*
X129945797Y-56148926D01*
X129940581Y-56169750D01*
X129933349Y-56189962D01*
X129924170Y-56209368D01*
X129913134Y-56227781D01*
X129900346Y-56245024D01*
X129885930Y-56260930D01*
X129870024Y-56275346D01*
X129852781Y-56288134D01*
X129834368Y-56299170D01*
X129814962Y-56308349D01*
X129794750Y-56315581D01*
X129773926Y-56320797D01*
X129752691Y-56323947D01*
X129731250Y-56325000D01*
X129293750Y-56325000D01*
X129272309Y-56323947D01*
X129251074Y-56320797D01*
X129230250Y-56315581D01*
X129210038Y-56308349D01*
X129190632Y-56299170D01*
X129172219Y-56288134D01*
X129154976Y-56275346D01*
X129139070Y-56260930D01*
X129124654Y-56245024D01*
X129111866Y-56227781D01*
X129100830Y-56209368D01*
X129091651Y-56189962D01*
X129084419Y-56169750D01*
X129079203Y-56148926D01*
X129076053Y-56127691D01*
X129075000Y-56106250D01*
X129075000Y-55593750D01*
X129076053Y-55572309D01*
X129079203Y-55551074D01*
X129084419Y-55530250D01*
X129091651Y-55510038D01*
X129100830Y-55490632D01*
X129111866Y-55472219D01*
X129124654Y-55454976D01*
X129139070Y-55439070D01*
X129154976Y-55424654D01*
X129172219Y-55411866D01*
X129190632Y-55400830D01*
X129210038Y-55391651D01*
X129230250Y-55384419D01*
X129251074Y-55379203D01*
X129272309Y-55376053D01*
X129293750Y-55375000D01*
X129731250Y-55375000D01*
X129752691Y-55376053D01*
X129752691Y-55376053D01*
G37*
D12*
X129512500Y-55850000D03*
D11*
G36*
X131327691Y-55376053D02*
G01*
X131348926Y-55379203D01*
X131369750Y-55384419D01*
X131389962Y-55391651D01*
X131409368Y-55400830D01*
X131427781Y-55411866D01*
X131445024Y-55424654D01*
X131460930Y-55439070D01*
X131475346Y-55454976D01*
X131488134Y-55472219D01*
X131499170Y-55490632D01*
X131508349Y-55510038D01*
X131515581Y-55530250D01*
X131520797Y-55551074D01*
X131523947Y-55572309D01*
X131525000Y-55593750D01*
X131525000Y-56106250D01*
X131523947Y-56127691D01*
X131520797Y-56148926D01*
X131515581Y-56169750D01*
X131508349Y-56189962D01*
X131499170Y-56209368D01*
X131488134Y-56227781D01*
X131475346Y-56245024D01*
X131460930Y-56260930D01*
X131445024Y-56275346D01*
X131427781Y-56288134D01*
X131409368Y-56299170D01*
X131389962Y-56308349D01*
X131369750Y-56315581D01*
X131348926Y-56320797D01*
X131327691Y-56323947D01*
X131306250Y-56325000D01*
X130868750Y-56325000D01*
X130847309Y-56323947D01*
X130826074Y-56320797D01*
X130805250Y-56315581D01*
X130785038Y-56308349D01*
X130765632Y-56299170D01*
X130747219Y-56288134D01*
X130729976Y-56275346D01*
X130714070Y-56260930D01*
X130699654Y-56245024D01*
X130686866Y-56227781D01*
X130675830Y-56209368D01*
X130666651Y-56189962D01*
X130659419Y-56169750D01*
X130654203Y-56148926D01*
X130651053Y-56127691D01*
X130650000Y-56106250D01*
X130650000Y-55593750D01*
X130651053Y-55572309D01*
X130654203Y-55551074D01*
X130659419Y-55530250D01*
X130666651Y-55510038D01*
X130675830Y-55490632D01*
X130686866Y-55472219D01*
X130699654Y-55454976D01*
X130714070Y-55439070D01*
X130729976Y-55424654D01*
X130747219Y-55411866D01*
X130765632Y-55400830D01*
X130785038Y-55391651D01*
X130805250Y-55384419D01*
X130826074Y-55379203D01*
X130847309Y-55376053D01*
X130868750Y-55375000D01*
X131306250Y-55375000D01*
X131327691Y-55376053D01*
X131327691Y-55376053D01*
G37*
D12*
X131087500Y-55850000D03*
D11*
G36*
X120890191Y-46262053D02*
G01*
X120911426Y-46265203D01*
X120932250Y-46270419D01*
X120952462Y-46277651D01*
X120971868Y-46286830D01*
X120990281Y-46297866D01*
X121007524Y-46310654D01*
X121023430Y-46325070D01*
X121037846Y-46340976D01*
X121050634Y-46358219D01*
X121061670Y-46376632D01*
X121070849Y-46396038D01*
X121078081Y-46416250D01*
X121083297Y-46437074D01*
X121086447Y-46458309D01*
X121087500Y-46479750D01*
X121087500Y-46992250D01*
X121086447Y-47013691D01*
X121083297Y-47034926D01*
X121078081Y-47055750D01*
X121070849Y-47075962D01*
X121061670Y-47095368D01*
X121050634Y-47113781D01*
X121037846Y-47131024D01*
X121023430Y-47146930D01*
X121007524Y-47161346D01*
X120990281Y-47174134D01*
X120971868Y-47185170D01*
X120952462Y-47194349D01*
X120932250Y-47201581D01*
X120911426Y-47206797D01*
X120890191Y-47209947D01*
X120868750Y-47211000D01*
X120431250Y-47211000D01*
X120409809Y-47209947D01*
X120388574Y-47206797D01*
X120367750Y-47201581D01*
X120347538Y-47194349D01*
X120328132Y-47185170D01*
X120309719Y-47174134D01*
X120292476Y-47161346D01*
X120276570Y-47146930D01*
X120262154Y-47131024D01*
X120249366Y-47113781D01*
X120238330Y-47095368D01*
X120229151Y-47075962D01*
X120221919Y-47055750D01*
X120216703Y-47034926D01*
X120213553Y-47013691D01*
X120212500Y-46992250D01*
X120212500Y-46479750D01*
X120213553Y-46458309D01*
X120216703Y-46437074D01*
X120221919Y-46416250D01*
X120229151Y-46396038D01*
X120238330Y-46376632D01*
X120249366Y-46358219D01*
X120262154Y-46340976D01*
X120276570Y-46325070D01*
X120292476Y-46310654D01*
X120309719Y-46297866D01*
X120328132Y-46286830D01*
X120347538Y-46277651D01*
X120367750Y-46270419D01*
X120388574Y-46265203D01*
X120409809Y-46262053D01*
X120431250Y-46261000D01*
X120868750Y-46261000D01*
X120890191Y-46262053D01*
X120890191Y-46262053D01*
G37*
D12*
X120650000Y-46736000D03*
D11*
G36*
X122465191Y-46262053D02*
G01*
X122486426Y-46265203D01*
X122507250Y-46270419D01*
X122527462Y-46277651D01*
X122546868Y-46286830D01*
X122565281Y-46297866D01*
X122582524Y-46310654D01*
X122598430Y-46325070D01*
X122612846Y-46340976D01*
X122625634Y-46358219D01*
X122636670Y-46376632D01*
X122645849Y-46396038D01*
X122653081Y-46416250D01*
X122658297Y-46437074D01*
X122661447Y-46458309D01*
X122662500Y-46479750D01*
X122662500Y-46992250D01*
X122661447Y-47013691D01*
X122658297Y-47034926D01*
X122653081Y-47055750D01*
X122645849Y-47075962D01*
X122636670Y-47095368D01*
X122625634Y-47113781D01*
X122612846Y-47131024D01*
X122598430Y-47146930D01*
X122582524Y-47161346D01*
X122565281Y-47174134D01*
X122546868Y-47185170D01*
X122527462Y-47194349D01*
X122507250Y-47201581D01*
X122486426Y-47206797D01*
X122465191Y-47209947D01*
X122443750Y-47211000D01*
X122006250Y-47211000D01*
X121984809Y-47209947D01*
X121963574Y-47206797D01*
X121942750Y-47201581D01*
X121922538Y-47194349D01*
X121903132Y-47185170D01*
X121884719Y-47174134D01*
X121867476Y-47161346D01*
X121851570Y-47146930D01*
X121837154Y-47131024D01*
X121824366Y-47113781D01*
X121813330Y-47095368D01*
X121804151Y-47075962D01*
X121796919Y-47055750D01*
X121791703Y-47034926D01*
X121788553Y-47013691D01*
X121787500Y-46992250D01*
X121787500Y-46479750D01*
X121788553Y-46458309D01*
X121791703Y-46437074D01*
X121796919Y-46416250D01*
X121804151Y-46396038D01*
X121813330Y-46376632D01*
X121824366Y-46358219D01*
X121837154Y-46340976D01*
X121851570Y-46325070D01*
X121867476Y-46310654D01*
X121884719Y-46297866D01*
X121903132Y-46286830D01*
X121922538Y-46277651D01*
X121942750Y-46270419D01*
X121963574Y-46265203D01*
X121984809Y-46262053D01*
X122006250Y-46261000D01*
X122443750Y-46261000D01*
X122465191Y-46262053D01*
X122465191Y-46262053D01*
G37*
D12*
X122225000Y-46736000D03*
D11*
G36*
X120527691Y-53776053D02*
G01*
X120548926Y-53779203D01*
X120569750Y-53784419D01*
X120589962Y-53791651D01*
X120609368Y-53800830D01*
X120627781Y-53811866D01*
X120645024Y-53824654D01*
X120660930Y-53839070D01*
X120675346Y-53854976D01*
X120688134Y-53872219D01*
X120699170Y-53890632D01*
X120708349Y-53910038D01*
X120715581Y-53930250D01*
X120720797Y-53951074D01*
X120723947Y-53972309D01*
X120725000Y-53993750D01*
X120725000Y-54431250D01*
X120723947Y-54452691D01*
X120720797Y-54473926D01*
X120715581Y-54494750D01*
X120708349Y-54514962D01*
X120699170Y-54534368D01*
X120688134Y-54552781D01*
X120675346Y-54570024D01*
X120660930Y-54585930D01*
X120645024Y-54600346D01*
X120627781Y-54613134D01*
X120609368Y-54624170D01*
X120589962Y-54633349D01*
X120569750Y-54640581D01*
X120548926Y-54645797D01*
X120527691Y-54648947D01*
X120506250Y-54650000D01*
X119993750Y-54650000D01*
X119972309Y-54648947D01*
X119951074Y-54645797D01*
X119930250Y-54640581D01*
X119910038Y-54633349D01*
X119890632Y-54624170D01*
X119872219Y-54613134D01*
X119854976Y-54600346D01*
X119839070Y-54585930D01*
X119824654Y-54570024D01*
X119811866Y-54552781D01*
X119800830Y-54534368D01*
X119791651Y-54514962D01*
X119784419Y-54494750D01*
X119779203Y-54473926D01*
X119776053Y-54452691D01*
X119775000Y-54431250D01*
X119775000Y-53993750D01*
X119776053Y-53972309D01*
X119779203Y-53951074D01*
X119784419Y-53930250D01*
X119791651Y-53910038D01*
X119800830Y-53890632D01*
X119811866Y-53872219D01*
X119824654Y-53854976D01*
X119839070Y-53839070D01*
X119854976Y-53824654D01*
X119872219Y-53811866D01*
X119890632Y-53800830D01*
X119910038Y-53791651D01*
X119930250Y-53784419D01*
X119951074Y-53779203D01*
X119972309Y-53776053D01*
X119993750Y-53775000D01*
X120506250Y-53775000D01*
X120527691Y-53776053D01*
X120527691Y-53776053D01*
G37*
D12*
X120250000Y-54212500D03*
D11*
G36*
X120527691Y-55351053D02*
G01*
X120548926Y-55354203D01*
X120569750Y-55359419D01*
X120589962Y-55366651D01*
X120609368Y-55375830D01*
X120627781Y-55386866D01*
X120645024Y-55399654D01*
X120660930Y-55414070D01*
X120675346Y-55429976D01*
X120688134Y-55447219D01*
X120699170Y-55465632D01*
X120708349Y-55485038D01*
X120715581Y-55505250D01*
X120720797Y-55526074D01*
X120723947Y-55547309D01*
X120725000Y-55568750D01*
X120725000Y-56006250D01*
X120723947Y-56027691D01*
X120720797Y-56048926D01*
X120715581Y-56069750D01*
X120708349Y-56089962D01*
X120699170Y-56109368D01*
X120688134Y-56127781D01*
X120675346Y-56145024D01*
X120660930Y-56160930D01*
X120645024Y-56175346D01*
X120627781Y-56188134D01*
X120609368Y-56199170D01*
X120589962Y-56208349D01*
X120569750Y-56215581D01*
X120548926Y-56220797D01*
X120527691Y-56223947D01*
X120506250Y-56225000D01*
X119993750Y-56225000D01*
X119972309Y-56223947D01*
X119951074Y-56220797D01*
X119930250Y-56215581D01*
X119910038Y-56208349D01*
X119890632Y-56199170D01*
X119872219Y-56188134D01*
X119854976Y-56175346D01*
X119839070Y-56160930D01*
X119824654Y-56145024D01*
X119811866Y-56127781D01*
X119800830Y-56109368D01*
X119791651Y-56089962D01*
X119784419Y-56069750D01*
X119779203Y-56048926D01*
X119776053Y-56027691D01*
X119775000Y-56006250D01*
X119775000Y-55568750D01*
X119776053Y-55547309D01*
X119779203Y-55526074D01*
X119784419Y-55505250D01*
X119791651Y-55485038D01*
X119800830Y-55465632D01*
X119811866Y-55447219D01*
X119824654Y-55429976D01*
X119839070Y-55414070D01*
X119854976Y-55399654D01*
X119872219Y-55386866D01*
X119890632Y-55375830D01*
X119910038Y-55366651D01*
X119930250Y-55359419D01*
X119951074Y-55354203D01*
X119972309Y-55351053D01*
X119993750Y-55350000D01*
X120506250Y-55350000D01*
X120527691Y-55351053D01*
X120527691Y-55351053D01*
G37*
D12*
X120250000Y-55787500D03*
D11*
G36*
X131341691Y-32863053D02*
G01*
X131362926Y-32866203D01*
X131383750Y-32871419D01*
X131403962Y-32878651D01*
X131423368Y-32887830D01*
X131441781Y-32898866D01*
X131459024Y-32911654D01*
X131474930Y-32926070D01*
X131489346Y-32941976D01*
X131502134Y-32959219D01*
X131513170Y-32977632D01*
X131522349Y-32997038D01*
X131529581Y-33017250D01*
X131534797Y-33038074D01*
X131537947Y-33059309D01*
X131539000Y-33080750D01*
X131539000Y-33518250D01*
X131537947Y-33539691D01*
X131534797Y-33560926D01*
X131529581Y-33581750D01*
X131522349Y-33601962D01*
X131513170Y-33621368D01*
X131502134Y-33639781D01*
X131489346Y-33657024D01*
X131474930Y-33672930D01*
X131459024Y-33687346D01*
X131441781Y-33700134D01*
X131423368Y-33711170D01*
X131403962Y-33720349D01*
X131383750Y-33727581D01*
X131362926Y-33732797D01*
X131341691Y-33735947D01*
X131320250Y-33737000D01*
X130807750Y-33737000D01*
X130786309Y-33735947D01*
X130765074Y-33732797D01*
X130744250Y-33727581D01*
X130724038Y-33720349D01*
X130704632Y-33711170D01*
X130686219Y-33700134D01*
X130668976Y-33687346D01*
X130653070Y-33672930D01*
X130638654Y-33657024D01*
X130625866Y-33639781D01*
X130614830Y-33621368D01*
X130605651Y-33601962D01*
X130598419Y-33581750D01*
X130593203Y-33560926D01*
X130590053Y-33539691D01*
X130589000Y-33518250D01*
X130589000Y-33080750D01*
X130590053Y-33059309D01*
X130593203Y-33038074D01*
X130598419Y-33017250D01*
X130605651Y-32997038D01*
X130614830Y-32977632D01*
X130625866Y-32959219D01*
X130638654Y-32941976D01*
X130653070Y-32926070D01*
X130668976Y-32911654D01*
X130686219Y-32898866D01*
X130704632Y-32887830D01*
X130724038Y-32878651D01*
X130744250Y-32871419D01*
X130765074Y-32866203D01*
X130786309Y-32863053D01*
X130807750Y-32862000D01*
X131320250Y-32862000D01*
X131341691Y-32863053D01*
X131341691Y-32863053D01*
G37*
D12*
X131064000Y-33299500D03*
D11*
G36*
X131341691Y-31288053D02*
G01*
X131362926Y-31291203D01*
X131383750Y-31296419D01*
X131403962Y-31303651D01*
X131423368Y-31312830D01*
X131441781Y-31323866D01*
X131459024Y-31336654D01*
X131474930Y-31351070D01*
X131489346Y-31366976D01*
X131502134Y-31384219D01*
X131513170Y-31402632D01*
X131522349Y-31422038D01*
X131529581Y-31442250D01*
X131534797Y-31463074D01*
X131537947Y-31484309D01*
X131539000Y-31505750D01*
X131539000Y-31943250D01*
X131537947Y-31964691D01*
X131534797Y-31985926D01*
X131529581Y-32006750D01*
X131522349Y-32026962D01*
X131513170Y-32046368D01*
X131502134Y-32064781D01*
X131489346Y-32082024D01*
X131474930Y-32097930D01*
X131459024Y-32112346D01*
X131441781Y-32125134D01*
X131423368Y-32136170D01*
X131403962Y-32145349D01*
X131383750Y-32152581D01*
X131362926Y-32157797D01*
X131341691Y-32160947D01*
X131320250Y-32162000D01*
X130807750Y-32162000D01*
X130786309Y-32160947D01*
X130765074Y-32157797D01*
X130744250Y-32152581D01*
X130724038Y-32145349D01*
X130704632Y-32136170D01*
X130686219Y-32125134D01*
X130668976Y-32112346D01*
X130653070Y-32097930D01*
X130638654Y-32082024D01*
X130625866Y-32064781D01*
X130614830Y-32046368D01*
X130605651Y-32026962D01*
X130598419Y-32006750D01*
X130593203Y-31985926D01*
X130590053Y-31964691D01*
X130589000Y-31943250D01*
X130589000Y-31505750D01*
X130590053Y-31484309D01*
X130593203Y-31463074D01*
X130598419Y-31442250D01*
X130605651Y-31422038D01*
X130614830Y-31402632D01*
X130625866Y-31384219D01*
X130638654Y-31366976D01*
X130653070Y-31351070D01*
X130668976Y-31336654D01*
X130686219Y-31323866D01*
X130704632Y-31312830D01*
X130724038Y-31303651D01*
X130744250Y-31296419D01*
X130765074Y-31291203D01*
X130786309Y-31288053D01*
X130807750Y-31287000D01*
X131320250Y-31287000D01*
X131341691Y-31288053D01*
X131341691Y-31288053D01*
G37*
D12*
X131064000Y-31724500D03*
D11*
G36*
X129817691Y-32863053D02*
G01*
X129838926Y-32866203D01*
X129859750Y-32871419D01*
X129879962Y-32878651D01*
X129899368Y-32887830D01*
X129917781Y-32898866D01*
X129935024Y-32911654D01*
X129950930Y-32926070D01*
X129965346Y-32941976D01*
X129978134Y-32959219D01*
X129989170Y-32977632D01*
X129998349Y-32997038D01*
X130005581Y-33017250D01*
X130010797Y-33038074D01*
X130013947Y-33059309D01*
X130015000Y-33080750D01*
X130015000Y-33518250D01*
X130013947Y-33539691D01*
X130010797Y-33560926D01*
X130005581Y-33581750D01*
X129998349Y-33601962D01*
X129989170Y-33621368D01*
X129978134Y-33639781D01*
X129965346Y-33657024D01*
X129950930Y-33672930D01*
X129935024Y-33687346D01*
X129917781Y-33700134D01*
X129899368Y-33711170D01*
X129879962Y-33720349D01*
X129859750Y-33727581D01*
X129838926Y-33732797D01*
X129817691Y-33735947D01*
X129796250Y-33737000D01*
X129283750Y-33737000D01*
X129262309Y-33735947D01*
X129241074Y-33732797D01*
X129220250Y-33727581D01*
X129200038Y-33720349D01*
X129180632Y-33711170D01*
X129162219Y-33700134D01*
X129144976Y-33687346D01*
X129129070Y-33672930D01*
X129114654Y-33657024D01*
X129101866Y-33639781D01*
X129090830Y-33621368D01*
X129081651Y-33601962D01*
X129074419Y-33581750D01*
X129069203Y-33560926D01*
X129066053Y-33539691D01*
X129065000Y-33518250D01*
X129065000Y-33080750D01*
X129066053Y-33059309D01*
X129069203Y-33038074D01*
X129074419Y-33017250D01*
X129081651Y-32997038D01*
X129090830Y-32977632D01*
X129101866Y-32959219D01*
X129114654Y-32941976D01*
X129129070Y-32926070D01*
X129144976Y-32911654D01*
X129162219Y-32898866D01*
X129180632Y-32887830D01*
X129200038Y-32878651D01*
X129220250Y-32871419D01*
X129241074Y-32866203D01*
X129262309Y-32863053D01*
X129283750Y-32862000D01*
X129796250Y-32862000D01*
X129817691Y-32863053D01*
X129817691Y-32863053D01*
G37*
D12*
X129540000Y-33299500D03*
D11*
G36*
X129817691Y-31288053D02*
G01*
X129838926Y-31291203D01*
X129859750Y-31296419D01*
X129879962Y-31303651D01*
X129899368Y-31312830D01*
X129917781Y-31323866D01*
X129935024Y-31336654D01*
X129950930Y-31351070D01*
X129965346Y-31366976D01*
X129978134Y-31384219D01*
X129989170Y-31402632D01*
X129998349Y-31422038D01*
X130005581Y-31442250D01*
X130010797Y-31463074D01*
X130013947Y-31484309D01*
X130015000Y-31505750D01*
X130015000Y-31943250D01*
X130013947Y-31964691D01*
X130010797Y-31985926D01*
X130005581Y-32006750D01*
X129998349Y-32026962D01*
X129989170Y-32046368D01*
X129978134Y-32064781D01*
X129965346Y-32082024D01*
X129950930Y-32097930D01*
X129935024Y-32112346D01*
X129917781Y-32125134D01*
X129899368Y-32136170D01*
X129879962Y-32145349D01*
X129859750Y-32152581D01*
X129838926Y-32157797D01*
X129817691Y-32160947D01*
X129796250Y-32162000D01*
X129283750Y-32162000D01*
X129262309Y-32160947D01*
X129241074Y-32157797D01*
X129220250Y-32152581D01*
X129200038Y-32145349D01*
X129180632Y-32136170D01*
X129162219Y-32125134D01*
X129144976Y-32112346D01*
X129129070Y-32097930D01*
X129114654Y-32082024D01*
X129101866Y-32064781D01*
X129090830Y-32046368D01*
X129081651Y-32026962D01*
X129074419Y-32006750D01*
X129069203Y-31985926D01*
X129066053Y-31964691D01*
X129065000Y-31943250D01*
X129065000Y-31505750D01*
X129066053Y-31484309D01*
X129069203Y-31463074D01*
X129074419Y-31442250D01*
X129081651Y-31422038D01*
X129090830Y-31402632D01*
X129101866Y-31384219D01*
X129114654Y-31366976D01*
X129129070Y-31351070D01*
X129144976Y-31336654D01*
X129162219Y-31323866D01*
X129180632Y-31312830D01*
X129200038Y-31303651D01*
X129220250Y-31296419D01*
X129241074Y-31291203D01*
X129262309Y-31288053D01*
X129283750Y-31287000D01*
X129796250Y-31287000D01*
X129817691Y-31288053D01*
X129817691Y-31288053D01*
G37*
D12*
X129540000Y-31724500D03*
D11*
G36*
X128293691Y-31288053D02*
G01*
X128314926Y-31291203D01*
X128335750Y-31296419D01*
X128355962Y-31303651D01*
X128375368Y-31312830D01*
X128393781Y-31323866D01*
X128411024Y-31336654D01*
X128426930Y-31351070D01*
X128441346Y-31366976D01*
X128454134Y-31384219D01*
X128465170Y-31402632D01*
X128474349Y-31422038D01*
X128481581Y-31442250D01*
X128486797Y-31463074D01*
X128489947Y-31484309D01*
X128491000Y-31505750D01*
X128491000Y-31943250D01*
X128489947Y-31964691D01*
X128486797Y-31985926D01*
X128481581Y-32006750D01*
X128474349Y-32026962D01*
X128465170Y-32046368D01*
X128454134Y-32064781D01*
X128441346Y-32082024D01*
X128426930Y-32097930D01*
X128411024Y-32112346D01*
X128393781Y-32125134D01*
X128375368Y-32136170D01*
X128355962Y-32145349D01*
X128335750Y-32152581D01*
X128314926Y-32157797D01*
X128293691Y-32160947D01*
X128272250Y-32162000D01*
X127759750Y-32162000D01*
X127738309Y-32160947D01*
X127717074Y-32157797D01*
X127696250Y-32152581D01*
X127676038Y-32145349D01*
X127656632Y-32136170D01*
X127638219Y-32125134D01*
X127620976Y-32112346D01*
X127605070Y-32097930D01*
X127590654Y-32082024D01*
X127577866Y-32064781D01*
X127566830Y-32046368D01*
X127557651Y-32026962D01*
X127550419Y-32006750D01*
X127545203Y-31985926D01*
X127542053Y-31964691D01*
X127541000Y-31943250D01*
X127541000Y-31505750D01*
X127542053Y-31484309D01*
X127545203Y-31463074D01*
X127550419Y-31442250D01*
X127557651Y-31422038D01*
X127566830Y-31402632D01*
X127577866Y-31384219D01*
X127590654Y-31366976D01*
X127605070Y-31351070D01*
X127620976Y-31336654D01*
X127638219Y-31323866D01*
X127656632Y-31312830D01*
X127676038Y-31303651D01*
X127696250Y-31296419D01*
X127717074Y-31291203D01*
X127738309Y-31288053D01*
X127759750Y-31287000D01*
X128272250Y-31287000D01*
X128293691Y-31288053D01*
X128293691Y-31288053D01*
G37*
D12*
X128016000Y-31724500D03*
D11*
G36*
X128293691Y-32863053D02*
G01*
X128314926Y-32866203D01*
X128335750Y-32871419D01*
X128355962Y-32878651D01*
X128375368Y-32887830D01*
X128393781Y-32898866D01*
X128411024Y-32911654D01*
X128426930Y-32926070D01*
X128441346Y-32941976D01*
X128454134Y-32959219D01*
X128465170Y-32977632D01*
X128474349Y-32997038D01*
X128481581Y-33017250D01*
X128486797Y-33038074D01*
X128489947Y-33059309D01*
X128491000Y-33080750D01*
X128491000Y-33518250D01*
X128489947Y-33539691D01*
X128486797Y-33560926D01*
X128481581Y-33581750D01*
X128474349Y-33601962D01*
X128465170Y-33621368D01*
X128454134Y-33639781D01*
X128441346Y-33657024D01*
X128426930Y-33672930D01*
X128411024Y-33687346D01*
X128393781Y-33700134D01*
X128375368Y-33711170D01*
X128355962Y-33720349D01*
X128335750Y-33727581D01*
X128314926Y-33732797D01*
X128293691Y-33735947D01*
X128272250Y-33737000D01*
X127759750Y-33737000D01*
X127738309Y-33735947D01*
X127717074Y-33732797D01*
X127696250Y-33727581D01*
X127676038Y-33720349D01*
X127656632Y-33711170D01*
X127638219Y-33700134D01*
X127620976Y-33687346D01*
X127605070Y-33672930D01*
X127590654Y-33657024D01*
X127577866Y-33639781D01*
X127566830Y-33621368D01*
X127557651Y-33601962D01*
X127550419Y-33581750D01*
X127545203Y-33560926D01*
X127542053Y-33539691D01*
X127541000Y-33518250D01*
X127541000Y-33080750D01*
X127542053Y-33059309D01*
X127545203Y-33038074D01*
X127550419Y-33017250D01*
X127557651Y-32997038D01*
X127566830Y-32977632D01*
X127577866Y-32959219D01*
X127590654Y-32941976D01*
X127605070Y-32926070D01*
X127620976Y-32911654D01*
X127638219Y-32898866D01*
X127656632Y-32887830D01*
X127676038Y-32878651D01*
X127696250Y-32871419D01*
X127717074Y-32866203D01*
X127738309Y-32863053D01*
X127759750Y-32862000D01*
X128272250Y-32862000D01*
X128293691Y-32863053D01*
X128293691Y-32863053D01*
G37*
D12*
X128016000Y-33299500D03*
D11*
G36*
X119911691Y-32863053D02*
G01*
X119932926Y-32866203D01*
X119953750Y-32871419D01*
X119973962Y-32878651D01*
X119993368Y-32887830D01*
X120011781Y-32898866D01*
X120029024Y-32911654D01*
X120044930Y-32926070D01*
X120059346Y-32941976D01*
X120072134Y-32959219D01*
X120083170Y-32977632D01*
X120092349Y-32997038D01*
X120099581Y-33017250D01*
X120104797Y-33038074D01*
X120107947Y-33059309D01*
X120109000Y-33080750D01*
X120109000Y-33518250D01*
X120107947Y-33539691D01*
X120104797Y-33560926D01*
X120099581Y-33581750D01*
X120092349Y-33601962D01*
X120083170Y-33621368D01*
X120072134Y-33639781D01*
X120059346Y-33657024D01*
X120044930Y-33672930D01*
X120029024Y-33687346D01*
X120011781Y-33700134D01*
X119993368Y-33711170D01*
X119973962Y-33720349D01*
X119953750Y-33727581D01*
X119932926Y-33732797D01*
X119911691Y-33735947D01*
X119890250Y-33737000D01*
X119377750Y-33737000D01*
X119356309Y-33735947D01*
X119335074Y-33732797D01*
X119314250Y-33727581D01*
X119294038Y-33720349D01*
X119274632Y-33711170D01*
X119256219Y-33700134D01*
X119238976Y-33687346D01*
X119223070Y-33672930D01*
X119208654Y-33657024D01*
X119195866Y-33639781D01*
X119184830Y-33621368D01*
X119175651Y-33601962D01*
X119168419Y-33581750D01*
X119163203Y-33560926D01*
X119160053Y-33539691D01*
X119159000Y-33518250D01*
X119159000Y-33080750D01*
X119160053Y-33059309D01*
X119163203Y-33038074D01*
X119168419Y-33017250D01*
X119175651Y-32997038D01*
X119184830Y-32977632D01*
X119195866Y-32959219D01*
X119208654Y-32941976D01*
X119223070Y-32926070D01*
X119238976Y-32911654D01*
X119256219Y-32898866D01*
X119274632Y-32887830D01*
X119294038Y-32878651D01*
X119314250Y-32871419D01*
X119335074Y-32866203D01*
X119356309Y-32863053D01*
X119377750Y-32862000D01*
X119890250Y-32862000D01*
X119911691Y-32863053D01*
X119911691Y-32863053D01*
G37*
D12*
X119634000Y-33299500D03*
D11*
G36*
X119911691Y-31288053D02*
G01*
X119932926Y-31291203D01*
X119953750Y-31296419D01*
X119973962Y-31303651D01*
X119993368Y-31312830D01*
X120011781Y-31323866D01*
X120029024Y-31336654D01*
X120044930Y-31351070D01*
X120059346Y-31366976D01*
X120072134Y-31384219D01*
X120083170Y-31402632D01*
X120092349Y-31422038D01*
X120099581Y-31442250D01*
X120104797Y-31463074D01*
X120107947Y-31484309D01*
X120109000Y-31505750D01*
X120109000Y-31943250D01*
X120107947Y-31964691D01*
X120104797Y-31985926D01*
X120099581Y-32006750D01*
X120092349Y-32026962D01*
X120083170Y-32046368D01*
X120072134Y-32064781D01*
X120059346Y-32082024D01*
X120044930Y-32097930D01*
X120029024Y-32112346D01*
X120011781Y-32125134D01*
X119993368Y-32136170D01*
X119973962Y-32145349D01*
X119953750Y-32152581D01*
X119932926Y-32157797D01*
X119911691Y-32160947D01*
X119890250Y-32162000D01*
X119377750Y-32162000D01*
X119356309Y-32160947D01*
X119335074Y-32157797D01*
X119314250Y-32152581D01*
X119294038Y-32145349D01*
X119274632Y-32136170D01*
X119256219Y-32125134D01*
X119238976Y-32112346D01*
X119223070Y-32097930D01*
X119208654Y-32082024D01*
X119195866Y-32064781D01*
X119184830Y-32046368D01*
X119175651Y-32026962D01*
X119168419Y-32006750D01*
X119163203Y-31985926D01*
X119160053Y-31964691D01*
X119159000Y-31943250D01*
X119159000Y-31505750D01*
X119160053Y-31484309D01*
X119163203Y-31463074D01*
X119168419Y-31442250D01*
X119175651Y-31422038D01*
X119184830Y-31402632D01*
X119195866Y-31384219D01*
X119208654Y-31366976D01*
X119223070Y-31351070D01*
X119238976Y-31336654D01*
X119256219Y-31323866D01*
X119274632Y-31312830D01*
X119294038Y-31303651D01*
X119314250Y-31296419D01*
X119335074Y-31291203D01*
X119356309Y-31288053D01*
X119377750Y-31287000D01*
X119890250Y-31287000D01*
X119911691Y-31288053D01*
X119911691Y-31288053D01*
G37*
D12*
X119634000Y-31724500D03*
D11*
G36*
X130352691Y-51226053D02*
G01*
X130373926Y-51229203D01*
X130394750Y-51234419D01*
X130414962Y-51241651D01*
X130434368Y-51250830D01*
X130452781Y-51261866D01*
X130470024Y-51274654D01*
X130485930Y-51289070D01*
X130500346Y-51304976D01*
X130513134Y-51322219D01*
X130524170Y-51340632D01*
X130533349Y-51360038D01*
X130540581Y-51380250D01*
X130545797Y-51401074D01*
X130548947Y-51422309D01*
X130550000Y-51443750D01*
X130550000Y-51956250D01*
X130548947Y-51977691D01*
X130545797Y-51998926D01*
X130540581Y-52019750D01*
X130533349Y-52039962D01*
X130524170Y-52059368D01*
X130513134Y-52077781D01*
X130500346Y-52095024D01*
X130485930Y-52110930D01*
X130470024Y-52125346D01*
X130452781Y-52138134D01*
X130434368Y-52149170D01*
X130414962Y-52158349D01*
X130394750Y-52165581D01*
X130373926Y-52170797D01*
X130352691Y-52173947D01*
X130331250Y-52175000D01*
X129893750Y-52175000D01*
X129872309Y-52173947D01*
X129851074Y-52170797D01*
X129830250Y-52165581D01*
X129810038Y-52158349D01*
X129790632Y-52149170D01*
X129772219Y-52138134D01*
X129754976Y-52125346D01*
X129739070Y-52110930D01*
X129724654Y-52095024D01*
X129711866Y-52077781D01*
X129700830Y-52059368D01*
X129691651Y-52039962D01*
X129684419Y-52019750D01*
X129679203Y-51998926D01*
X129676053Y-51977691D01*
X129675000Y-51956250D01*
X129675000Y-51443750D01*
X129676053Y-51422309D01*
X129679203Y-51401074D01*
X129684419Y-51380250D01*
X129691651Y-51360038D01*
X129700830Y-51340632D01*
X129711866Y-51322219D01*
X129724654Y-51304976D01*
X129739070Y-51289070D01*
X129754976Y-51274654D01*
X129772219Y-51261866D01*
X129790632Y-51250830D01*
X129810038Y-51241651D01*
X129830250Y-51234419D01*
X129851074Y-51229203D01*
X129872309Y-51226053D01*
X129893750Y-51225000D01*
X130331250Y-51225000D01*
X130352691Y-51226053D01*
X130352691Y-51226053D01*
G37*
D12*
X130112500Y-51700000D03*
D11*
G36*
X131927691Y-51226053D02*
G01*
X131948926Y-51229203D01*
X131969750Y-51234419D01*
X131989962Y-51241651D01*
X132009368Y-51250830D01*
X132027781Y-51261866D01*
X132045024Y-51274654D01*
X132060930Y-51289070D01*
X132075346Y-51304976D01*
X132088134Y-51322219D01*
X132099170Y-51340632D01*
X132108349Y-51360038D01*
X132115581Y-51380250D01*
X132120797Y-51401074D01*
X132123947Y-51422309D01*
X132125000Y-51443750D01*
X132125000Y-51956250D01*
X132123947Y-51977691D01*
X132120797Y-51998926D01*
X132115581Y-52019750D01*
X132108349Y-52039962D01*
X132099170Y-52059368D01*
X132088134Y-52077781D01*
X132075346Y-52095024D01*
X132060930Y-52110930D01*
X132045024Y-52125346D01*
X132027781Y-52138134D01*
X132009368Y-52149170D01*
X131989962Y-52158349D01*
X131969750Y-52165581D01*
X131948926Y-52170797D01*
X131927691Y-52173947D01*
X131906250Y-52175000D01*
X131468750Y-52175000D01*
X131447309Y-52173947D01*
X131426074Y-52170797D01*
X131405250Y-52165581D01*
X131385038Y-52158349D01*
X131365632Y-52149170D01*
X131347219Y-52138134D01*
X131329976Y-52125346D01*
X131314070Y-52110930D01*
X131299654Y-52095024D01*
X131286866Y-52077781D01*
X131275830Y-52059368D01*
X131266651Y-52039962D01*
X131259419Y-52019750D01*
X131254203Y-51998926D01*
X131251053Y-51977691D01*
X131250000Y-51956250D01*
X131250000Y-51443750D01*
X131251053Y-51422309D01*
X131254203Y-51401074D01*
X131259419Y-51380250D01*
X131266651Y-51360038D01*
X131275830Y-51340632D01*
X131286866Y-51322219D01*
X131299654Y-51304976D01*
X131314070Y-51289070D01*
X131329976Y-51274654D01*
X131347219Y-51261866D01*
X131365632Y-51250830D01*
X131385038Y-51241651D01*
X131405250Y-51234419D01*
X131426074Y-51229203D01*
X131447309Y-51226053D01*
X131468750Y-51225000D01*
X131906250Y-51225000D01*
X131927691Y-51226053D01*
X131927691Y-51226053D01*
G37*
D12*
X131687500Y-51700000D03*
D11*
G36*
X130352691Y-46826053D02*
G01*
X130373926Y-46829203D01*
X130394750Y-46834419D01*
X130414962Y-46841651D01*
X130434368Y-46850830D01*
X130452781Y-46861866D01*
X130470024Y-46874654D01*
X130485930Y-46889070D01*
X130500346Y-46904976D01*
X130513134Y-46922219D01*
X130524170Y-46940632D01*
X130533349Y-46960038D01*
X130540581Y-46980250D01*
X130545797Y-47001074D01*
X130548947Y-47022309D01*
X130550000Y-47043750D01*
X130550000Y-47556250D01*
X130548947Y-47577691D01*
X130545797Y-47598926D01*
X130540581Y-47619750D01*
X130533349Y-47639962D01*
X130524170Y-47659368D01*
X130513134Y-47677781D01*
X130500346Y-47695024D01*
X130485930Y-47710930D01*
X130470024Y-47725346D01*
X130452781Y-47738134D01*
X130434368Y-47749170D01*
X130414962Y-47758349D01*
X130394750Y-47765581D01*
X130373926Y-47770797D01*
X130352691Y-47773947D01*
X130331250Y-47775000D01*
X129893750Y-47775000D01*
X129872309Y-47773947D01*
X129851074Y-47770797D01*
X129830250Y-47765581D01*
X129810038Y-47758349D01*
X129790632Y-47749170D01*
X129772219Y-47738134D01*
X129754976Y-47725346D01*
X129739070Y-47710930D01*
X129724654Y-47695024D01*
X129711866Y-47677781D01*
X129700830Y-47659368D01*
X129691651Y-47639962D01*
X129684419Y-47619750D01*
X129679203Y-47598926D01*
X129676053Y-47577691D01*
X129675000Y-47556250D01*
X129675000Y-47043750D01*
X129676053Y-47022309D01*
X129679203Y-47001074D01*
X129684419Y-46980250D01*
X129691651Y-46960038D01*
X129700830Y-46940632D01*
X129711866Y-46922219D01*
X129724654Y-46904976D01*
X129739070Y-46889070D01*
X129754976Y-46874654D01*
X129772219Y-46861866D01*
X129790632Y-46850830D01*
X129810038Y-46841651D01*
X129830250Y-46834419D01*
X129851074Y-46829203D01*
X129872309Y-46826053D01*
X129893750Y-46825000D01*
X130331250Y-46825000D01*
X130352691Y-46826053D01*
X130352691Y-46826053D01*
G37*
D12*
X130112500Y-47300000D03*
D11*
G36*
X131927691Y-46826053D02*
G01*
X131948926Y-46829203D01*
X131969750Y-46834419D01*
X131989962Y-46841651D01*
X132009368Y-46850830D01*
X132027781Y-46861866D01*
X132045024Y-46874654D01*
X132060930Y-46889070D01*
X132075346Y-46904976D01*
X132088134Y-46922219D01*
X132099170Y-46940632D01*
X132108349Y-46960038D01*
X132115581Y-46980250D01*
X132120797Y-47001074D01*
X132123947Y-47022309D01*
X132125000Y-47043750D01*
X132125000Y-47556250D01*
X132123947Y-47577691D01*
X132120797Y-47598926D01*
X132115581Y-47619750D01*
X132108349Y-47639962D01*
X132099170Y-47659368D01*
X132088134Y-47677781D01*
X132075346Y-47695024D01*
X132060930Y-47710930D01*
X132045024Y-47725346D01*
X132027781Y-47738134D01*
X132009368Y-47749170D01*
X131989962Y-47758349D01*
X131969750Y-47765581D01*
X131948926Y-47770797D01*
X131927691Y-47773947D01*
X131906250Y-47775000D01*
X131468750Y-47775000D01*
X131447309Y-47773947D01*
X131426074Y-47770797D01*
X131405250Y-47765581D01*
X131385038Y-47758349D01*
X131365632Y-47749170D01*
X131347219Y-47738134D01*
X131329976Y-47725346D01*
X131314070Y-47710930D01*
X131299654Y-47695024D01*
X131286866Y-47677781D01*
X131275830Y-47659368D01*
X131266651Y-47639962D01*
X131259419Y-47619750D01*
X131254203Y-47598926D01*
X131251053Y-47577691D01*
X131250000Y-47556250D01*
X131250000Y-47043750D01*
X131251053Y-47022309D01*
X131254203Y-47001074D01*
X131259419Y-46980250D01*
X131266651Y-46960038D01*
X131275830Y-46940632D01*
X131286866Y-46922219D01*
X131299654Y-46904976D01*
X131314070Y-46889070D01*
X131329976Y-46874654D01*
X131347219Y-46861866D01*
X131365632Y-46850830D01*
X131385038Y-46841651D01*
X131405250Y-46834419D01*
X131426074Y-46829203D01*
X131447309Y-46826053D01*
X131468750Y-46825000D01*
X131906250Y-46825000D01*
X131927691Y-46826053D01*
X131927691Y-46826053D01*
G37*
D12*
X131687500Y-47300000D03*
D11*
G36*
X121435691Y-31288053D02*
G01*
X121456926Y-31291203D01*
X121477750Y-31296419D01*
X121497962Y-31303651D01*
X121517368Y-31312830D01*
X121535781Y-31323866D01*
X121553024Y-31336654D01*
X121568930Y-31351070D01*
X121583346Y-31366976D01*
X121596134Y-31384219D01*
X121607170Y-31402632D01*
X121616349Y-31422038D01*
X121623581Y-31442250D01*
X121628797Y-31463074D01*
X121631947Y-31484309D01*
X121633000Y-31505750D01*
X121633000Y-31943250D01*
X121631947Y-31964691D01*
X121628797Y-31985926D01*
X121623581Y-32006750D01*
X121616349Y-32026962D01*
X121607170Y-32046368D01*
X121596134Y-32064781D01*
X121583346Y-32082024D01*
X121568930Y-32097930D01*
X121553024Y-32112346D01*
X121535781Y-32125134D01*
X121517368Y-32136170D01*
X121497962Y-32145349D01*
X121477750Y-32152581D01*
X121456926Y-32157797D01*
X121435691Y-32160947D01*
X121414250Y-32162000D01*
X120901750Y-32162000D01*
X120880309Y-32160947D01*
X120859074Y-32157797D01*
X120838250Y-32152581D01*
X120818038Y-32145349D01*
X120798632Y-32136170D01*
X120780219Y-32125134D01*
X120762976Y-32112346D01*
X120747070Y-32097930D01*
X120732654Y-32082024D01*
X120719866Y-32064781D01*
X120708830Y-32046368D01*
X120699651Y-32026962D01*
X120692419Y-32006750D01*
X120687203Y-31985926D01*
X120684053Y-31964691D01*
X120683000Y-31943250D01*
X120683000Y-31505750D01*
X120684053Y-31484309D01*
X120687203Y-31463074D01*
X120692419Y-31442250D01*
X120699651Y-31422038D01*
X120708830Y-31402632D01*
X120719866Y-31384219D01*
X120732654Y-31366976D01*
X120747070Y-31351070D01*
X120762976Y-31336654D01*
X120780219Y-31323866D01*
X120798632Y-31312830D01*
X120818038Y-31303651D01*
X120838250Y-31296419D01*
X120859074Y-31291203D01*
X120880309Y-31288053D01*
X120901750Y-31287000D01*
X121414250Y-31287000D01*
X121435691Y-31288053D01*
X121435691Y-31288053D01*
G37*
D12*
X121158000Y-31724500D03*
D11*
G36*
X121435691Y-32863053D02*
G01*
X121456926Y-32866203D01*
X121477750Y-32871419D01*
X121497962Y-32878651D01*
X121517368Y-32887830D01*
X121535781Y-32898866D01*
X121553024Y-32911654D01*
X121568930Y-32926070D01*
X121583346Y-32941976D01*
X121596134Y-32959219D01*
X121607170Y-32977632D01*
X121616349Y-32997038D01*
X121623581Y-33017250D01*
X121628797Y-33038074D01*
X121631947Y-33059309D01*
X121633000Y-33080750D01*
X121633000Y-33518250D01*
X121631947Y-33539691D01*
X121628797Y-33560926D01*
X121623581Y-33581750D01*
X121616349Y-33601962D01*
X121607170Y-33621368D01*
X121596134Y-33639781D01*
X121583346Y-33657024D01*
X121568930Y-33672930D01*
X121553024Y-33687346D01*
X121535781Y-33700134D01*
X121517368Y-33711170D01*
X121497962Y-33720349D01*
X121477750Y-33727581D01*
X121456926Y-33732797D01*
X121435691Y-33735947D01*
X121414250Y-33737000D01*
X120901750Y-33737000D01*
X120880309Y-33735947D01*
X120859074Y-33732797D01*
X120838250Y-33727581D01*
X120818038Y-33720349D01*
X120798632Y-33711170D01*
X120780219Y-33700134D01*
X120762976Y-33687346D01*
X120747070Y-33672930D01*
X120732654Y-33657024D01*
X120719866Y-33639781D01*
X120708830Y-33621368D01*
X120699651Y-33601962D01*
X120692419Y-33581750D01*
X120687203Y-33560926D01*
X120684053Y-33539691D01*
X120683000Y-33518250D01*
X120683000Y-33080750D01*
X120684053Y-33059309D01*
X120687203Y-33038074D01*
X120692419Y-33017250D01*
X120699651Y-32997038D01*
X120708830Y-32977632D01*
X120719866Y-32959219D01*
X120732654Y-32941976D01*
X120747070Y-32926070D01*
X120762976Y-32911654D01*
X120780219Y-32898866D01*
X120798632Y-32887830D01*
X120818038Y-32878651D01*
X120838250Y-32871419D01*
X120859074Y-32866203D01*
X120880309Y-32863053D01*
X120901750Y-32862000D01*
X121414250Y-32862000D01*
X121435691Y-32863053D01*
X121435691Y-32863053D01*
G37*
D12*
X121158000Y-33299500D03*
D11*
G36*
X129817691Y-60014053D02*
G01*
X129838926Y-60017203D01*
X129859750Y-60022419D01*
X129879962Y-60029651D01*
X129899368Y-60038830D01*
X129917781Y-60049866D01*
X129935024Y-60062654D01*
X129950930Y-60077070D01*
X129965346Y-60092976D01*
X129978134Y-60110219D01*
X129989170Y-60128632D01*
X129998349Y-60148038D01*
X130005581Y-60168250D01*
X130010797Y-60189074D01*
X130013947Y-60210309D01*
X130015000Y-60231750D01*
X130015000Y-60669250D01*
X130013947Y-60690691D01*
X130010797Y-60711926D01*
X130005581Y-60732750D01*
X129998349Y-60752962D01*
X129989170Y-60772368D01*
X129978134Y-60790781D01*
X129965346Y-60808024D01*
X129950930Y-60823930D01*
X129935024Y-60838346D01*
X129917781Y-60851134D01*
X129899368Y-60862170D01*
X129879962Y-60871349D01*
X129859750Y-60878581D01*
X129838926Y-60883797D01*
X129817691Y-60886947D01*
X129796250Y-60888000D01*
X129283750Y-60888000D01*
X129262309Y-60886947D01*
X129241074Y-60883797D01*
X129220250Y-60878581D01*
X129200038Y-60871349D01*
X129180632Y-60862170D01*
X129162219Y-60851134D01*
X129144976Y-60838346D01*
X129129070Y-60823930D01*
X129114654Y-60808024D01*
X129101866Y-60790781D01*
X129090830Y-60772368D01*
X129081651Y-60752962D01*
X129074419Y-60732750D01*
X129069203Y-60711926D01*
X129066053Y-60690691D01*
X129065000Y-60669250D01*
X129065000Y-60231750D01*
X129066053Y-60210309D01*
X129069203Y-60189074D01*
X129074419Y-60168250D01*
X129081651Y-60148038D01*
X129090830Y-60128632D01*
X129101866Y-60110219D01*
X129114654Y-60092976D01*
X129129070Y-60077070D01*
X129144976Y-60062654D01*
X129162219Y-60049866D01*
X129180632Y-60038830D01*
X129200038Y-60029651D01*
X129220250Y-60022419D01*
X129241074Y-60017203D01*
X129262309Y-60014053D01*
X129283750Y-60013000D01*
X129796250Y-60013000D01*
X129817691Y-60014053D01*
X129817691Y-60014053D01*
G37*
D12*
X129540000Y-60450500D03*
D11*
G36*
X129817691Y-58439053D02*
G01*
X129838926Y-58442203D01*
X129859750Y-58447419D01*
X129879962Y-58454651D01*
X129899368Y-58463830D01*
X129917781Y-58474866D01*
X129935024Y-58487654D01*
X129950930Y-58502070D01*
X129965346Y-58517976D01*
X129978134Y-58535219D01*
X129989170Y-58553632D01*
X129998349Y-58573038D01*
X130005581Y-58593250D01*
X130010797Y-58614074D01*
X130013947Y-58635309D01*
X130015000Y-58656750D01*
X130015000Y-59094250D01*
X130013947Y-59115691D01*
X130010797Y-59136926D01*
X130005581Y-59157750D01*
X129998349Y-59177962D01*
X129989170Y-59197368D01*
X129978134Y-59215781D01*
X129965346Y-59233024D01*
X129950930Y-59248930D01*
X129935024Y-59263346D01*
X129917781Y-59276134D01*
X129899368Y-59287170D01*
X129879962Y-59296349D01*
X129859750Y-59303581D01*
X129838926Y-59308797D01*
X129817691Y-59311947D01*
X129796250Y-59313000D01*
X129283750Y-59313000D01*
X129262309Y-59311947D01*
X129241074Y-59308797D01*
X129220250Y-59303581D01*
X129200038Y-59296349D01*
X129180632Y-59287170D01*
X129162219Y-59276134D01*
X129144976Y-59263346D01*
X129129070Y-59248930D01*
X129114654Y-59233024D01*
X129101866Y-59215781D01*
X129090830Y-59197368D01*
X129081651Y-59177962D01*
X129074419Y-59157750D01*
X129069203Y-59136926D01*
X129066053Y-59115691D01*
X129065000Y-59094250D01*
X129065000Y-58656750D01*
X129066053Y-58635309D01*
X129069203Y-58614074D01*
X129074419Y-58593250D01*
X129081651Y-58573038D01*
X129090830Y-58553632D01*
X129101866Y-58535219D01*
X129114654Y-58517976D01*
X129129070Y-58502070D01*
X129144976Y-58487654D01*
X129162219Y-58474866D01*
X129180632Y-58463830D01*
X129200038Y-58454651D01*
X129220250Y-58447419D01*
X129241074Y-58442203D01*
X129262309Y-58439053D01*
X129283750Y-58438000D01*
X129796250Y-58438000D01*
X129817691Y-58439053D01*
X129817691Y-58439053D01*
G37*
D12*
X129540000Y-58875500D03*
D11*
G36*
X128307191Y-56903053D02*
G01*
X128328426Y-56906203D01*
X128349250Y-56911419D01*
X128369462Y-56918651D01*
X128388868Y-56927830D01*
X128407281Y-56938866D01*
X128424524Y-56951654D01*
X128440430Y-56966070D01*
X128454846Y-56981976D01*
X128467634Y-56999219D01*
X128478670Y-57017632D01*
X128487849Y-57037038D01*
X128495081Y-57057250D01*
X128500297Y-57078074D01*
X128503447Y-57099309D01*
X128504500Y-57120750D01*
X128504500Y-57633250D01*
X128503447Y-57654691D01*
X128500297Y-57675926D01*
X128495081Y-57696750D01*
X128487849Y-57716962D01*
X128478670Y-57736368D01*
X128467634Y-57754781D01*
X128454846Y-57772024D01*
X128440430Y-57787930D01*
X128424524Y-57802346D01*
X128407281Y-57815134D01*
X128388868Y-57826170D01*
X128369462Y-57835349D01*
X128349250Y-57842581D01*
X128328426Y-57847797D01*
X128307191Y-57850947D01*
X128285750Y-57852000D01*
X127848250Y-57852000D01*
X127826809Y-57850947D01*
X127805574Y-57847797D01*
X127784750Y-57842581D01*
X127764538Y-57835349D01*
X127745132Y-57826170D01*
X127726719Y-57815134D01*
X127709476Y-57802346D01*
X127693570Y-57787930D01*
X127679154Y-57772024D01*
X127666366Y-57754781D01*
X127655330Y-57736368D01*
X127646151Y-57716962D01*
X127638919Y-57696750D01*
X127633703Y-57675926D01*
X127630553Y-57654691D01*
X127629500Y-57633250D01*
X127629500Y-57120750D01*
X127630553Y-57099309D01*
X127633703Y-57078074D01*
X127638919Y-57057250D01*
X127646151Y-57037038D01*
X127655330Y-57017632D01*
X127666366Y-56999219D01*
X127679154Y-56981976D01*
X127693570Y-56966070D01*
X127709476Y-56951654D01*
X127726719Y-56938866D01*
X127745132Y-56927830D01*
X127764538Y-56918651D01*
X127784750Y-56911419D01*
X127805574Y-56906203D01*
X127826809Y-56903053D01*
X127848250Y-56902000D01*
X128285750Y-56902000D01*
X128307191Y-56903053D01*
X128307191Y-56903053D01*
G37*
D12*
X128067000Y-57377000D03*
D11*
G36*
X126732191Y-56903053D02*
G01*
X126753426Y-56906203D01*
X126774250Y-56911419D01*
X126794462Y-56918651D01*
X126813868Y-56927830D01*
X126832281Y-56938866D01*
X126849524Y-56951654D01*
X126865430Y-56966070D01*
X126879846Y-56981976D01*
X126892634Y-56999219D01*
X126903670Y-57017632D01*
X126912849Y-57037038D01*
X126920081Y-57057250D01*
X126925297Y-57078074D01*
X126928447Y-57099309D01*
X126929500Y-57120750D01*
X126929500Y-57633250D01*
X126928447Y-57654691D01*
X126925297Y-57675926D01*
X126920081Y-57696750D01*
X126912849Y-57716962D01*
X126903670Y-57736368D01*
X126892634Y-57754781D01*
X126879846Y-57772024D01*
X126865430Y-57787930D01*
X126849524Y-57802346D01*
X126832281Y-57815134D01*
X126813868Y-57826170D01*
X126794462Y-57835349D01*
X126774250Y-57842581D01*
X126753426Y-57847797D01*
X126732191Y-57850947D01*
X126710750Y-57852000D01*
X126273250Y-57852000D01*
X126251809Y-57850947D01*
X126230574Y-57847797D01*
X126209750Y-57842581D01*
X126189538Y-57835349D01*
X126170132Y-57826170D01*
X126151719Y-57815134D01*
X126134476Y-57802346D01*
X126118570Y-57787930D01*
X126104154Y-57772024D01*
X126091366Y-57754781D01*
X126080330Y-57736368D01*
X126071151Y-57716962D01*
X126063919Y-57696750D01*
X126058703Y-57675926D01*
X126055553Y-57654691D01*
X126054500Y-57633250D01*
X126054500Y-57120750D01*
X126055553Y-57099309D01*
X126058703Y-57078074D01*
X126063919Y-57057250D01*
X126071151Y-57037038D01*
X126080330Y-57017632D01*
X126091366Y-56999219D01*
X126104154Y-56981976D01*
X126118570Y-56966070D01*
X126134476Y-56951654D01*
X126151719Y-56938866D01*
X126170132Y-56927830D01*
X126189538Y-56918651D01*
X126209750Y-56911419D01*
X126230574Y-56906203D01*
X126251809Y-56903053D01*
X126273250Y-56902000D01*
X126710750Y-56902000D01*
X126732191Y-56903053D01*
X126732191Y-56903053D01*
G37*
D12*
X126492000Y-57377000D03*
D11*
G36*
X118387691Y-32863053D02*
G01*
X118408926Y-32866203D01*
X118429750Y-32871419D01*
X118449962Y-32878651D01*
X118469368Y-32887830D01*
X118487781Y-32898866D01*
X118505024Y-32911654D01*
X118520930Y-32926070D01*
X118535346Y-32941976D01*
X118548134Y-32959219D01*
X118559170Y-32977632D01*
X118568349Y-32997038D01*
X118575581Y-33017250D01*
X118580797Y-33038074D01*
X118583947Y-33059309D01*
X118585000Y-33080750D01*
X118585000Y-33518250D01*
X118583947Y-33539691D01*
X118580797Y-33560926D01*
X118575581Y-33581750D01*
X118568349Y-33601962D01*
X118559170Y-33621368D01*
X118548134Y-33639781D01*
X118535346Y-33657024D01*
X118520930Y-33672930D01*
X118505024Y-33687346D01*
X118487781Y-33700134D01*
X118469368Y-33711170D01*
X118449962Y-33720349D01*
X118429750Y-33727581D01*
X118408926Y-33732797D01*
X118387691Y-33735947D01*
X118366250Y-33737000D01*
X117853750Y-33737000D01*
X117832309Y-33735947D01*
X117811074Y-33732797D01*
X117790250Y-33727581D01*
X117770038Y-33720349D01*
X117750632Y-33711170D01*
X117732219Y-33700134D01*
X117714976Y-33687346D01*
X117699070Y-33672930D01*
X117684654Y-33657024D01*
X117671866Y-33639781D01*
X117660830Y-33621368D01*
X117651651Y-33601962D01*
X117644419Y-33581750D01*
X117639203Y-33560926D01*
X117636053Y-33539691D01*
X117635000Y-33518250D01*
X117635000Y-33080750D01*
X117636053Y-33059309D01*
X117639203Y-33038074D01*
X117644419Y-33017250D01*
X117651651Y-32997038D01*
X117660830Y-32977632D01*
X117671866Y-32959219D01*
X117684654Y-32941976D01*
X117699070Y-32926070D01*
X117714976Y-32911654D01*
X117732219Y-32898866D01*
X117750632Y-32887830D01*
X117770038Y-32878651D01*
X117790250Y-32871419D01*
X117811074Y-32866203D01*
X117832309Y-32863053D01*
X117853750Y-32862000D01*
X118366250Y-32862000D01*
X118387691Y-32863053D01*
X118387691Y-32863053D01*
G37*
D12*
X118110000Y-33299500D03*
D11*
G36*
X118387691Y-31288053D02*
G01*
X118408926Y-31291203D01*
X118429750Y-31296419D01*
X118449962Y-31303651D01*
X118469368Y-31312830D01*
X118487781Y-31323866D01*
X118505024Y-31336654D01*
X118520930Y-31351070D01*
X118535346Y-31366976D01*
X118548134Y-31384219D01*
X118559170Y-31402632D01*
X118568349Y-31422038D01*
X118575581Y-31442250D01*
X118580797Y-31463074D01*
X118583947Y-31484309D01*
X118585000Y-31505750D01*
X118585000Y-31943250D01*
X118583947Y-31964691D01*
X118580797Y-31985926D01*
X118575581Y-32006750D01*
X118568349Y-32026962D01*
X118559170Y-32046368D01*
X118548134Y-32064781D01*
X118535346Y-32082024D01*
X118520930Y-32097930D01*
X118505024Y-32112346D01*
X118487781Y-32125134D01*
X118469368Y-32136170D01*
X118449962Y-32145349D01*
X118429750Y-32152581D01*
X118408926Y-32157797D01*
X118387691Y-32160947D01*
X118366250Y-32162000D01*
X117853750Y-32162000D01*
X117832309Y-32160947D01*
X117811074Y-32157797D01*
X117790250Y-32152581D01*
X117770038Y-32145349D01*
X117750632Y-32136170D01*
X117732219Y-32125134D01*
X117714976Y-32112346D01*
X117699070Y-32097930D01*
X117684654Y-32082024D01*
X117671866Y-32064781D01*
X117660830Y-32046368D01*
X117651651Y-32026962D01*
X117644419Y-32006750D01*
X117639203Y-31985926D01*
X117636053Y-31964691D01*
X117635000Y-31943250D01*
X117635000Y-31505750D01*
X117636053Y-31484309D01*
X117639203Y-31463074D01*
X117644419Y-31442250D01*
X117651651Y-31422038D01*
X117660830Y-31402632D01*
X117671866Y-31384219D01*
X117684654Y-31366976D01*
X117699070Y-31351070D01*
X117714976Y-31336654D01*
X117732219Y-31323866D01*
X117750632Y-31312830D01*
X117770038Y-31303651D01*
X117790250Y-31296419D01*
X117811074Y-31291203D01*
X117832309Y-31288053D01*
X117853750Y-31287000D01*
X118366250Y-31287000D01*
X118387691Y-31288053D01*
X118387691Y-31288053D01*
G37*
D12*
X118110000Y-31724500D03*
D11*
G36*
X120546691Y-58390053D02*
G01*
X120567926Y-58393203D01*
X120588750Y-58398419D01*
X120608962Y-58405651D01*
X120628368Y-58414830D01*
X120646781Y-58425866D01*
X120664024Y-58438654D01*
X120679930Y-58453070D01*
X120694346Y-58468976D01*
X120707134Y-58486219D01*
X120718170Y-58504632D01*
X120727349Y-58524038D01*
X120734581Y-58544250D01*
X120739797Y-58565074D01*
X120742947Y-58586309D01*
X120744000Y-58607750D01*
X120744000Y-59045250D01*
X120742947Y-59066691D01*
X120739797Y-59087926D01*
X120734581Y-59108750D01*
X120727349Y-59128962D01*
X120718170Y-59148368D01*
X120707134Y-59166781D01*
X120694346Y-59184024D01*
X120679930Y-59199930D01*
X120664024Y-59214346D01*
X120646781Y-59227134D01*
X120628368Y-59238170D01*
X120608962Y-59247349D01*
X120588750Y-59254581D01*
X120567926Y-59259797D01*
X120546691Y-59262947D01*
X120525250Y-59264000D01*
X120012750Y-59264000D01*
X119991309Y-59262947D01*
X119970074Y-59259797D01*
X119949250Y-59254581D01*
X119929038Y-59247349D01*
X119909632Y-59238170D01*
X119891219Y-59227134D01*
X119873976Y-59214346D01*
X119858070Y-59199930D01*
X119843654Y-59184024D01*
X119830866Y-59166781D01*
X119819830Y-59148368D01*
X119810651Y-59128962D01*
X119803419Y-59108750D01*
X119798203Y-59087926D01*
X119795053Y-59066691D01*
X119794000Y-59045250D01*
X119794000Y-58607750D01*
X119795053Y-58586309D01*
X119798203Y-58565074D01*
X119803419Y-58544250D01*
X119810651Y-58524038D01*
X119819830Y-58504632D01*
X119830866Y-58486219D01*
X119843654Y-58468976D01*
X119858070Y-58453070D01*
X119873976Y-58438654D01*
X119891219Y-58425866D01*
X119909632Y-58414830D01*
X119929038Y-58405651D01*
X119949250Y-58398419D01*
X119970074Y-58393203D01*
X119991309Y-58390053D01*
X120012750Y-58389000D01*
X120525250Y-58389000D01*
X120546691Y-58390053D01*
X120546691Y-58390053D01*
G37*
D12*
X120269000Y-58826500D03*
D11*
G36*
X120546691Y-56815053D02*
G01*
X120567926Y-56818203D01*
X120588750Y-56823419D01*
X120608962Y-56830651D01*
X120628368Y-56839830D01*
X120646781Y-56850866D01*
X120664024Y-56863654D01*
X120679930Y-56878070D01*
X120694346Y-56893976D01*
X120707134Y-56911219D01*
X120718170Y-56929632D01*
X120727349Y-56949038D01*
X120734581Y-56969250D01*
X120739797Y-56990074D01*
X120742947Y-57011309D01*
X120744000Y-57032750D01*
X120744000Y-57470250D01*
X120742947Y-57491691D01*
X120739797Y-57512926D01*
X120734581Y-57533750D01*
X120727349Y-57553962D01*
X120718170Y-57573368D01*
X120707134Y-57591781D01*
X120694346Y-57609024D01*
X120679930Y-57624930D01*
X120664024Y-57639346D01*
X120646781Y-57652134D01*
X120628368Y-57663170D01*
X120608962Y-57672349D01*
X120588750Y-57679581D01*
X120567926Y-57684797D01*
X120546691Y-57687947D01*
X120525250Y-57689000D01*
X120012750Y-57689000D01*
X119991309Y-57687947D01*
X119970074Y-57684797D01*
X119949250Y-57679581D01*
X119929038Y-57672349D01*
X119909632Y-57663170D01*
X119891219Y-57652134D01*
X119873976Y-57639346D01*
X119858070Y-57624930D01*
X119843654Y-57609024D01*
X119830866Y-57591781D01*
X119819830Y-57573368D01*
X119810651Y-57553962D01*
X119803419Y-57533750D01*
X119798203Y-57512926D01*
X119795053Y-57491691D01*
X119794000Y-57470250D01*
X119794000Y-57032750D01*
X119795053Y-57011309D01*
X119798203Y-56990074D01*
X119803419Y-56969250D01*
X119810651Y-56949038D01*
X119819830Y-56929632D01*
X119830866Y-56911219D01*
X119843654Y-56893976D01*
X119858070Y-56878070D01*
X119873976Y-56863654D01*
X119891219Y-56850866D01*
X119909632Y-56839830D01*
X119929038Y-56830651D01*
X119949250Y-56823419D01*
X119970074Y-56818203D01*
X119991309Y-56815053D01*
X120012750Y-56814000D01*
X120525250Y-56814000D01*
X120546691Y-56815053D01*
X120546691Y-56815053D01*
G37*
D12*
X120269000Y-57251500D03*
D11*
G36*
X117498691Y-59914053D02*
G01*
X117519926Y-59917203D01*
X117540750Y-59922419D01*
X117560962Y-59929651D01*
X117580368Y-59938830D01*
X117598781Y-59949866D01*
X117616024Y-59962654D01*
X117631930Y-59977070D01*
X117646346Y-59992976D01*
X117659134Y-60010219D01*
X117670170Y-60028632D01*
X117679349Y-60048038D01*
X117686581Y-60068250D01*
X117691797Y-60089074D01*
X117694947Y-60110309D01*
X117696000Y-60131750D01*
X117696000Y-60569250D01*
X117694947Y-60590691D01*
X117691797Y-60611926D01*
X117686581Y-60632750D01*
X117679349Y-60652962D01*
X117670170Y-60672368D01*
X117659134Y-60690781D01*
X117646346Y-60708024D01*
X117631930Y-60723930D01*
X117616024Y-60738346D01*
X117598781Y-60751134D01*
X117580368Y-60762170D01*
X117560962Y-60771349D01*
X117540750Y-60778581D01*
X117519926Y-60783797D01*
X117498691Y-60786947D01*
X117477250Y-60788000D01*
X116964750Y-60788000D01*
X116943309Y-60786947D01*
X116922074Y-60783797D01*
X116901250Y-60778581D01*
X116881038Y-60771349D01*
X116861632Y-60762170D01*
X116843219Y-60751134D01*
X116825976Y-60738346D01*
X116810070Y-60723930D01*
X116795654Y-60708024D01*
X116782866Y-60690781D01*
X116771830Y-60672368D01*
X116762651Y-60652962D01*
X116755419Y-60632750D01*
X116750203Y-60611926D01*
X116747053Y-60590691D01*
X116746000Y-60569250D01*
X116746000Y-60131750D01*
X116747053Y-60110309D01*
X116750203Y-60089074D01*
X116755419Y-60068250D01*
X116762651Y-60048038D01*
X116771830Y-60028632D01*
X116782866Y-60010219D01*
X116795654Y-59992976D01*
X116810070Y-59977070D01*
X116825976Y-59962654D01*
X116843219Y-59949866D01*
X116861632Y-59938830D01*
X116881038Y-59929651D01*
X116901250Y-59922419D01*
X116922074Y-59917203D01*
X116943309Y-59914053D01*
X116964750Y-59913000D01*
X117477250Y-59913000D01*
X117498691Y-59914053D01*
X117498691Y-59914053D01*
G37*
D12*
X117221000Y-60350500D03*
D11*
G36*
X117498691Y-58339053D02*
G01*
X117519926Y-58342203D01*
X117540750Y-58347419D01*
X117560962Y-58354651D01*
X117580368Y-58363830D01*
X117598781Y-58374866D01*
X117616024Y-58387654D01*
X117631930Y-58402070D01*
X117646346Y-58417976D01*
X117659134Y-58435219D01*
X117670170Y-58453632D01*
X117679349Y-58473038D01*
X117686581Y-58493250D01*
X117691797Y-58514074D01*
X117694947Y-58535309D01*
X117696000Y-58556750D01*
X117696000Y-58994250D01*
X117694947Y-59015691D01*
X117691797Y-59036926D01*
X117686581Y-59057750D01*
X117679349Y-59077962D01*
X117670170Y-59097368D01*
X117659134Y-59115781D01*
X117646346Y-59133024D01*
X117631930Y-59148930D01*
X117616024Y-59163346D01*
X117598781Y-59176134D01*
X117580368Y-59187170D01*
X117560962Y-59196349D01*
X117540750Y-59203581D01*
X117519926Y-59208797D01*
X117498691Y-59211947D01*
X117477250Y-59213000D01*
X116964750Y-59213000D01*
X116943309Y-59211947D01*
X116922074Y-59208797D01*
X116901250Y-59203581D01*
X116881038Y-59196349D01*
X116861632Y-59187170D01*
X116843219Y-59176134D01*
X116825976Y-59163346D01*
X116810070Y-59148930D01*
X116795654Y-59133024D01*
X116782866Y-59115781D01*
X116771830Y-59097368D01*
X116762651Y-59077962D01*
X116755419Y-59057750D01*
X116750203Y-59036926D01*
X116747053Y-59015691D01*
X116746000Y-58994250D01*
X116746000Y-58556750D01*
X116747053Y-58535309D01*
X116750203Y-58514074D01*
X116755419Y-58493250D01*
X116762651Y-58473038D01*
X116771830Y-58453632D01*
X116782866Y-58435219D01*
X116795654Y-58417976D01*
X116810070Y-58402070D01*
X116825976Y-58387654D01*
X116843219Y-58374866D01*
X116861632Y-58363830D01*
X116881038Y-58354651D01*
X116901250Y-58347419D01*
X116922074Y-58342203D01*
X116943309Y-58339053D01*
X116964750Y-58338000D01*
X117477250Y-58338000D01*
X117498691Y-58339053D01*
X117498691Y-58339053D01*
G37*
D12*
X117221000Y-58775500D03*
D11*
G36*
X117486691Y-47913053D02*
G01*
X117507926Y-47916203D01*
X117528750Y-47921419D01*
X117548962Y-47928651D01*
X117568368Y-47937830D01*
X117586781Y-47948866D01*
X117604024Y-47961654D01*
X117619930Y-47976070D01*
X117634346Y-47991976D01*
X117647134Y-48009219D01*
X117658170Y-48027632D01*
X117667349Y-48047038D01*
X117674581Y-48067250D01*
X117679797Y-48088074D01*
X117682947Y-48109309D01*
X117684000Y-48130750D01*
X117684000Y-48643250D01*
X117682947Y-48664691D01*
X117679797Y-48685926D01*
X117674581Y-48706750D01*
X117667349Y-48726962D01*
X117658170Y-48746368D01*
X117647134Y-48764781D01*
X117634346Y-48782024D01*
X117619930Y-48797930D01*
X117604024Y-48812346D01*
X117586781Y-48825134D01*
X117568368Y-48836170D01*
X117548962Y-48845349D01*
X117528750Y-48852581D01*
X117507926Y-48857797D01*
X117486691Y-48860947D01*
X117465250Y-48862000D01*
X117027750Y-48862000D01*
X117006309Y-48860947D01*
X116985074Y-48857797D01*
X116964250Y-48852581D01*
X116944038Y-48845349D01*
X116924632Y-48836170D01*
X116906219Y-48825134D01*
X116888976Y-48812346D01*
X116873070Y-48797930D01*
X116858654Y-48782024D01*
X116845866Y-48764781D01*
X116834830Y-48746368D01*
X116825651Y-48726962D01*
X116818419Y-48706750D01*
X116813203Y-48685926D01*
X116810053Y-48664691D01*
X116809000Y-48643250D01*
X116809000Y-48130750D01*
X116810053Y-48109309D01*
X116813203Y-48088074D01*
X116818419Y-48067250D01*
X116825651Y-48047038D01*
X116834830Y-48027632D01*
X116845866Y-48009219D01*
X116858654Y-47991976D01*
X116873070Y-47976070D01*
X116888976Y-47961654D01*
X116906219Y-47948866D01*
X116924632Y-47937830D01*
X116944038Y-47928651D01*
X116964250Y-47921419D01*
X116985074Y-47916203D01*
X117006309Y-47913053D01*
X117027750Y-47912000D01*
X117465250Y-47912000D01*
X117486691Y-47913053D01*
X117486691Y-47913053D01*
G37*
D12*
X117246500Y-48387000D03*
D11*
G36*
X115911691Y-47913053D02*
G01*
X115932926Y-47916203D01*
X115953750Y-47921419D01*
X115973962Y-47928651D01*
X115993368Y-47937830D01*
X116011781Y-47948866D01*
X116029024Y-47961654D01*
X116044930Y-47976070D01*
X116059346Y-47991976D01*
X116072134Y-48009219D01*
X116083170Y-48027632D01*
X116092349Y-48047038D01*
X116099581Y-48067250D01*
X116104797Y-48088074D01*
X116107947Y-48109309D01*
X116109000Y-48130750D01*
X116109000Y-48643250D01*
X116107947Y-48664691D01*
X116104797Y-48685926D01*
X116099581Y-48706750D01*
X116092349Y-48726962D01*
X116083170Y-48746368D01*
X116072134Y-48764781D01*
X116059346Y-48782024D01*
X116044930Y-48797930D01*
X116029024Y-48812346D01*
X116011781Y-48825134D01*
X115993368Y-48836170D01*
X115973962Y-48845349D01*
X115953750Y-48852581D01*
X115932926Y-48857797D01*
X115911691Y-48860947D01*
X115890250Y-48862000D01*
X115452750Y-48862000D01*
X115431309Y-48860947D01*
X115410074Y-48857797D01*
X115389250Y-48852581D01*
X115369038Y-48845349D01*
X115349632Y-48836170D01*
X115331219Y-48825134D01*
X115313976Y-48812346D01*
X115298070Y-48797930D01*
X115283654Y-48782024D01*
X115270866Y-48764781D01*
X115259830Y-48746368D01*
X115250651Y-48726962D01*
X115243419Y-48706750D01*
X115238203Y-48685926D01*
X115235053Y-48664691D01*
X115234000Y-48643250D01*
X115234000Y-48130750D01*
X115235053Y-48109309D01*
X115238203Y-48088074D01*
X115243419Y-48067250D01*
X115250651Y-48047038D01*
X115259830Y-48027632D01*
X115270866Y-48009219D01*
X115283654Y-47991976D01*
X115298070Y-47976070D01*
X115313976Y-47961654D01*
X115331219Y-47948866D01*
X115349632Y-47937830D01*
X115369038Y-47928651D01*
X115389250Y-47921419D01*
X115410074Y-47916203D01*
X115431309Y-47913053D01*
X115452750Y-47912000D01*
X115890250Y-47912000D01*
X115911691Y-47913053D01*
X115911691Y-47913053D01*
G37*
D12*
X115671500Y-48387000D03*
D11*
G36*
X115911691Y-43722053D02*
G01*
X115932926Y-43725203D01*
X115953750Y-43730419D01*
X115973962Y-43737651D01*
X115993368Y-43746830D01*
X116011781Y-43757866D01*
X116029024Y-43770654D01*
X116044930Y-43785070D01*
X116059346Y-43800976D01*
X116072134Y-43818219D01*
X116083170Y-43836632D01*
X116092349Y-43856038D01*
X116099581Y-43876250D01*
X116104797Y-43897074D01*
X116107947Y-43918309D01*
X116109000Y-43939750D01*
X116109000Y-44452250D01*
X116107947Y-44473691D01*
X116104797Y-44494926D01*
X116099581Y-44515750D01*
X116092349Y-44535962D01*
X116083170Y-44555368D01*
X116072134Y-44573781D01*
X116059346Y-44591024D01*
X116044930Y-44606930D01*
X116029024Y-44621346D01*
X116011781Y-44634134D01*
X115993368Y-44645170D01*
X115973962Y-44654349D01*
X115953750Y-44661581D01*
X115932926Y-44666797D01*
X115911691Y-44669947D01*
X115890250Y-44671000D01*
X115452750Y-44671000D01*
X115431309Y-44669947D01*
X115410074Y-44666797D01*
X115389250Y-44661581D01*
X115369038Y-44654349D01*
X115349632Y-44645170D01*
X115331219Y-44634134D01*
X115313976Y-44621346D01*
X115298070Y-44606930D01*
X115283654Y-44591024D01*
X115270866Y-44573781D01*
X115259830Y-44555368D01*
X115250651Y-44535962D01*
X115243419Y-44515750D01*
X115238203Y-44494926D01*
X115235053Y-44473691D01*
X115234000Y-44452250D01*
X115234000Y-43939750D01*
X115235053Y-43918309D01*
X115238203Y-43897074D01*
X115243419Y-43876250D01*
X115250651Y-43856038D01*
X115259830Y-43836632D01*
X115270866Y-43818219D01*
X115283654Y-43800976D01*
X115298070Y-43785070D01*
X115313976Y-43770654D01*
X115331219Y-43757866D01*
X115349632Y-43746830D01*
X115369038Y-43737651D01*
X115389250Y-43730419D01*
X115410074Y-43725203D01*
X115431309Y-43722053D01*
X115452750Y-43721000D01*
X115890250Y-43721000D01*
X115911691Y-43722053D01*
X115911691Y-43722053D01*
G37*
D12*
X115671500Y-44196000D03*
D11*
G36*
X117486691Y-43722053D02*
G01*
X117507926Y-43725203D01*
X117528750Y-43730419D01*
X117548962Y-43737651D01*
X117568368Y-43746830D01*
X117586781Y-43757866D01*
X117604024Y-43770654D01*
X117619930Y-43785070D01*
X117634346Y-43800976D01*
X117647134Y-43818219D01*
X117658170Y-43836632D01*
X117667349Y-43856038D01*
X117674581Y-43876250D01*
X117679797Y-43897074D01*
X117682947Y-43918309D01*
X117684000Y-43939750D01*
X117684000Y-44452250D01*
X117682947Y-44473691D01*
X117679797Y-44494926D01*
X117674581Y-44515750D01*
X117667349Y-44535962D01*
X117658170Y-44555368D01*
X117647134Y-44573781D01*
X117634346Y-44591024D01*
X117619930Y-44606930D01*
X117604024Y-44621346D01*
X117586781Y-44634134D01*
X117568368Y-44645170D01*
X117548962Y-44654349D01*
X117528750Y-44661581D01*
X117507926Y-44666797D01*
X117486691Y-44669947D01*
X117465250Y-44671000D01*
X117027750Y-44671000D01*
X117006309Y-44669947D01*
X116985074Y-44666797D01*
X116964250Y-44661581D01*
X116944038Y-44654349D01*
X116924632Y-44645170D01*
X116906219Y-44634134D01*
X116888976Y-44621346D01*
X116873070Y-44606930D01*
X116858654Y-44591024D01*
X116845866Y-44573781D01*
X116834830Y-44555368D01*
X116825651Y-44535962D01*
X116818419Y-44515750D01*
X116813203Y-44494926D01*
X116810053Y-44473691D01*
X116809000Y-44452250D01*
X116809000Y-43939750D01*
X116810053Y-43918309D01*
X116813203Y-43897074D01*
X116818419Y-43876250D01*
X116825651Y-43856038D01*
X116834830Y-43836632D01*
X116845866Y-43818219D01*
X116858654Y-43800976D01*
X116873070Y-43785070D01*
X116888976Y-43770654D01*
X116906219Y-43757866D01*
X116924632Y-43746830D01*
X116944038Y-43737651D01*
X116964250Y-43730419D01*
X116985074Y-43725203D01*
X117006309Y-43722053D01*
X117027750Y-43721000D01*
X117465250Y-43721000D01*
X117486691Y-43722053D01*
X117486691Y-43722053D01*
G37*
D12*
X117246500Y-44196000D03*
D11*
G36*
X126278626Y-53435301D02*
G01*
X126284693Y-53436201D01*
X126290643Y-53437691D01*
X126296418Y-53439758D01*
X126301962Y-53442380D01*
X126307223Y-53445533D01*
X126312150Y-53449187D01*
X126316694Y-53453306D01*
X126320813Y-53457850D01*
X126324467Y-53462777D01*
X126327620Y-53468038D01*
X126330242Y-53473582D01*
X126332309Y-53479357D01*
X126333799Y-53485307D01*
X126334699Y-53491374D01*
X126335000Y-53497500D01*
X126335000Y-54247500D01*
X126334699Y-54253626D01*
X126333799Y-54259693D01*
X126332309Y-54265643D01*
X126330242Y-54271418D01*
X126327620Y-54276962D01*
X126324467Y-54282223D01*
X126320813Y-54287150D01*
X126316694Y-54291694D01*
X126312150Y-54295813D01*
X126307223Y-54299467D01*
X126301962Y-54302620D01*
X126296418Y-54305242D01*
X126290643Y-54307309D01*
X126284693Y-54308799D01*
X126278626Y-54309699D01*
X126272500Y-54310000D01*
X126147500Y-54310000D01*
X126141374Y-54309699D01*
X126135307Y-54308799D01*
X126129357Y-54307309D01*
X126123582Y-54305242D01*
X126118038Y-54302620D01*
X126112777Y-54299467D01*
X126107850Y-54295813D01*
X126103306Y-54291694D01*
X126099187Y-54287150D01*
X126095533Y-54282223D01*
X126092380Y-54276962D01*
X126089758Y-54271418D01*
X126087691Y-54265643D01*
X126086201Y-54259693D01*
X126085301Y-54253626D01*
X126085000Y-54247500D01*
X126085000Y-53497500D01*
X126085301Y-53491374D01*
X126086201Y-53485307D01*
X126087691Y-53479357D01*
X126089758Y-53473582D01*
X126092380Y-53468038D01*
X126095533Y-53462777D01*
X126099187Y-53457850D01*
X126103306Y-53453306D01*
X126107850Y-53449187D01*
X126112777Y-53445533D01*
X126118038Y-53442380D01*
X126123582Y-53439758D01*
X126129357Y-53437691D01*
X126135307Y-53436201D01*
X126141374Y-53435301D01*
X126147500Y-53435000D01*
X126272500Y-53435000D01*
X126278626Y-53435301D01*
X126278626Y-53435301D01*
G37*
D14*
X126210000Y-53872500D03*
D11*
G36*
X125778626Y-53435301D02*
G01*
X125784693Y-53436201D01*
X125790643Y-53437691D01*
X125796418Y-53439758D01*
X125801962Y-53442380D01*
X125807223Y-53445533D01*
X125812150Y-53449187D01*
X125816694Y-53453306D01*
X125820813Y-53457850D01*
X125824467Y-53462777D01*
X125827620Y-53468038D01*
X125830242Y-53473582D01*
X125832309Y-53479357D01*
X125833799Y-53485307D01*
X125834699Y-53491374D01*
X125835000Y-53497500D01*
X125835000Y-54247500D01*
X125834699Y-54253626D01*
X125833799Y-54259693D01*
X125832309Y-54265643D01*
X125830242Y-54271418D01*
X125827620Y-54276962D01*
X125824467Y-54282223D01*
X125820813Y-54287150D01*
X125816694Y-54291694D01*
X125812150Y-54295813D01*
X125807223Y-54299467D01*
X125801962Y-54302620D01*
X125796418Y-54305242D01*
X125790643Y-54307309D01*
X125784693Y-54308799D01*
X125778626Y-54309699D01*
X125772500Y-54310000D01*
X125647500Y-54310000D01*
X125641374Y-54309699D01*
X125635307Y-54308799D01*
X125629357Y-54307309D01*
X125623582Y-54305242D01*
X125618038Y-54302620D01*
X125612777Y-54299467D01*
X125607850Y-54295813D01*
X125603306Y-54291694D01*
X125599187Y-54287150D01*
X125595533Y-54282223D01*
X125592380Y-54276962D01*
X125589758Y-54271418D01*
X125587691Y-54265643D01*
X125586201Y-54259693D01*
X125585301Y-54253626D01*
X125585000Y-54247500D01*
X125585000Y-53497500D01*
X125585301Y-53491374D01*
X125586201Y-53485307D01*
X125587691Y-53479357D01*
X125589758Y-53473582D01*
X125592380Y-53468038D01*
X125595533Y-53462777D01*
X125599187Y-53457850D01*
X125603306Y-53453306D01*
X125607850Y-53449187D01*
X125612777Y-53445533D01*
X125618038Y-53442380D01*
X125623582Y-53439758D01*
X125629357Y-53437691D01*
X125635307Y-53436201D01*
X125641374Y-53435301D01*
X125647500Y-53435000D01*
X125772500Y-53435000D01*
X125778626Y-53435301D01*
X125778626Y-53435301D01*
G37*
D14*
X125710000Y-53872500D03*
D11*
G36*
X125278626Y-53435301D02*
G01*
X125284693Y-53436201D01*
X125290643Y-53437691D01*
X125296418Y-53439758D01*
X125301962Y-53442380D01*
X125307223Y-53445533D01*
X125312150Y-53449187D01*
X125316694Y-53453306D01*
X125320813Y-53457850D01*
X125324467Y-53462777D01*
X125327620Y-53468038D01*
X125330242Y-53473582D01*
X125332309Y-53479357D01*
X125333799Y-53485307D01*
X125334699Y-53491374D01*
X125335000Y-53497500D01*
X125335000Y-54247500D01*
X125334699Y-54253626D01*
X125333799Y-54259693D01*
X125332309Y-54265643D01*
X125330242Y-54271418D01*
X125327620Y-54276962D01*
X125324467Y-54282223D01*
X125320813Y-54287150D01*
X125316694Y-54291694D01*
X125312150Y-54295813D01*
X125307223Y-54299467D01*
X125301962Y-54302620D01*
X125296418Y-54305242D01*
X125290643Y-54307309D01*
X125284693Y-54308799D01*
X125278626Y-54309699D01*
X125272500Y-54310000D01*
X125147500Y-54310000D01*
X125141374Y-54309699D01*
X125135307Y-54308799D01*
X125129357Y-54307309D01*
X125123582Y-54305242D01*
X125118038Y-54302620D01*
X125112777Y-54299467D01*
X125107850Y-54295813D01*
X125103306Y-54291694D01*
X125099187Y-54287150D01*
X125095533Y-54282223D01*
X125092380Y-54276962D01*
X125089758Y-54271418D01*
X125087691Y-54265643D01*
X125086201Y-54259693D01*
X125085301Y-54253626D01*
X125085000Y-54247500D01*
X125085000Y-53497500D01*
X125085301Y-53491374D01*
X125086201Y-53485307D01*
X125087691Y-53479357D01*
X125089758Y-53473582D01*
X125092380Y-53468038D01*
X125095533Y-53462777D01*
X125099187Y-53457850D01*
X125103306Y-53453306D01*
X125107850Y-53449187D01*
X125112777Y-53445533D01*
X125118038Y-53442380D01*
X125123582Y-53439758D01*
X125129357Y-53437691D01*
X125135307Y-53436201D01*
X125141374Y-53435301D01*
X125147500Y-53435000D01*
X125272500Y-53435000D01*
X125278626Y-53435301D01*
X125278626Y-53435301D01*
G37*
D14*
X125210000Y-53872500D03*
D11*
G36*
X124778626Y-53435301D02*
G01*
X124784693Y-53436201D01*
X124790643Y-53437691D01*
X124796418Y-53439758D01*
X124801962Y-53442380D01*
X124807223Y-53445533D01*
X124812150Y-53449187D01*
X124816694Y-53453306D01*
X124820813Y-53457850D01*
X124824467Y-53462777D01*
X124827620Y-53468038D01*
X124830242Y-53473582D01*
X124832309Y-53479357D01*
X124833799Y-53485307D01*
X124834699Y-53491374D01*
X124835000Y-53497500D01*
X124835000Y-54247500D01*
X124834699Y-54253626D01*
X124833799Y-54259693D01*
X124832309Y-54265643D01*
X124830242Y-54271418D01*
X124827620Y-54276962D01*
X124824467Y-54282223D01*
X124820813Y-54287150D01*
X124816694Y-54291694D01*
X124812150Y-54295813D01*
X124807223Y-54299467D01*
X124801962Y-54302620D01*
X124796418Y-54305242D01*
X124790643Y-54307309D01*
X124784693Y-54308799D01*
X124778626Y-54309699D01*
X124772500Y-54310000D01*
X124647500Y-54310000D01*
X124641374Y-54309699D01*
X124635307Y-54308799D01*
X124629357Y-54307309D01*
X124623582Y-54305242D01*
X124618038Y-54302620D01*
X124612777Y-54299467D01*
X124607850Y-54295813D01*
X124603306Y-54291694D01*
X124599187Y-54287150D01*
X124595533Y-54282223D01*
X124592380Y-54276962D01*
X124589758Y-54271418D01*
X124587691Y-54265643D01*
X124586201Y-54259693D01*
X124585301Y-54253626D01*
X124585000Y-54247500D01*
X124585000Y-53497500D01*
X124585301Y-53491374D01*
X124586201Y-53485307D01*
X124587691Y-53479357D01*
X124589758Y-53473582D01*
X124592380Y-53468038D01*
X124595533Y-53462777D01*
X124599187Y-53457850D01*
X124603306Y-53453306D01*
X124607850Y-53449187D01*
X124612777Y-53445533D01*
X124618038Y-53442380D01*
X124623582Y-53439758D01*
X124629357Y-53437691D01*
X124635307Y-53436201D01*
X124641374Y-53435301D01*
X124647500Y-53435000D01*
X124772500Y-53435000D01*
X124778626Y-53435301D01*
X124778626Y-53435301D01*
G37*
D14*
X124710000Y-53872500D03*
D11*
G36*
X124278626Y-53435301D02*
G01*
X124284693Y-53436201D01*
X124290643Y-53437691D01*
X124296418Y-53439758D01*
X124301962Y-53442380D01*
X124307223Y-53445533D01*
X124312150Y-53449187D01*
X124316694Y-53453306D01*
X124320813Y-53457850D01*
X124324467Y-53462777D01*
X124327620Y-53468038D01*
X124330242Y-53473582D01*
X124332309Y-53479357D01*
X124333799Y-53485307D01*
X124334699Y-53491374D01*
X124335000Y-53497500D01*
X124335000Y-54247500D01*
X124334699Y-54253626D01*
X124333799Y-54259693D01*
X124332309Y-54265643D01*
X124330242Y-54271418D01*
X124327620Y-54276962D01*
X124324467Y-54282223D01*
X124320813Y-54287150D01*
X124316694Y-54291694D01*
X124312150Y-54295813D01*
X124307223Y-54299467D01*
X124301962Y-54302620D01*
X124296418Y-54305242D01*
X124290643Y-54307309D01*
X124284693Y-54308799D01*
X124278626Y-54309699D01*
X124272500Y-54310000D01*
X124147500Y-54310000D01*
X124141374Y-54309699D01*
X124135307Y-54308799D01*
X124129357Y-54307309D01*
X124123582Y-54305242D01*
X124118038Y-54302620D01*
X124112777Y-54299467D01*
X124107850Y-54295813D01*
X124103306Y-54291694D01*
X124099187Y-54287150D01*
X124095533Y-54282223D01*
X124092380Y-54276962D01*
X124089758Y-54271418D01*
X124087691Y-54265643D01*
X124086201Y-54259693D01*
X124085301Y-54253626D01*
X124085000Y-54247500D01*
X124085000Y-53497500D01*
X124085301Y-53491374D01*
X124086201Y-53485307D01*
X124087691Y-53479357D01*
X124089758Y-53473582D01*
X124092380Y-53468038D01*
X124095533Y-53462777D01*
X124099187Y-53457850D01*
X124103306Y-53453306D01*
X124107850Y-53449187D01*
X124112777Y-53445533D01*
X124118038Y-53442380D01*
X124123582Y-53439758D01*
X124129357Y-53437691D01*
X124135307Y-53436201D01*
X124141374Y-53435301D01*
X124147500Y-53435000D01*
X124272500Y-53435000D01*
X124278626Y-53435301D01*
X124278626Y-53435301D01*
G37*
D14*
X124210000Y-53872500D03*
D11*
G36*
X123778626Y-53435301D02*
G01*
X123784693Y-53436201D01*
X123790643Y-53437691D01*
X123796418Y-53439758D01*
X123801962Y-53442380D01*
X123807223Y-53445533D01*
X123812150Y-53449187D01*
X123816694Y-53453306D01*
X123820813Y-53457850D01*
X123824467Y-53462777D01*
X123827620Y-53468038D01*
X123830242Y-53473582D01*
X123832309Y-53479357D01*
X123833799Y-53485307D01*
X123834699Y-53491374D01*
X123835000Y-53497500D01*
X123835000Y-54247500D01*
X123834699Y-54253626D01*
X123833799Y-54259693D01*
X123832309Y-54265643D01*
X123830242Y-54271418D01*
X123827620Y-54276962D01*
X123824467Y-54282223D01*
X123820813Y-54287150D01*
X123816694Y-54291694D01*
X123812150Y-54295813D01*
X123807223Y-54299467D01*
X123801962Y-54302620D01*
X123796418Y-54305242D01*
X123790643Y-54307309D01*
X123784693Y-54308799D01*
X123778626Y-54309699D01*
X123772500Y-54310000D01*
X123647500Y-54310000D01*
X123641374Y-54309699D01*
X123635307Y-54308799D01*
X123629357Y-54307309D01*
X123623582Y-54305242D01*
X123618038Y-54302620D01*
X123612777Y-54299467D01*
X123607850Y-54295813D01*
X123603306Y-54291694D01*
X123599187Y-54287150D01*
X123595533Y-54282223D01*
X123592380Y-54276962D01*
X123589758Y-54271418D01*
X123587691Y-54265643D01*
X123586201Y-54259693D01*
X123585301Y-54253626D01*
X123585000Y-54247500D01*
X123585000Y-53497500D01*
X123585301Y-53491374D01*
X123586201Y-53485307D01*
X123587691Y-53479357D01*
X123589758Y-53473582D01*
X123592380Y-53468038D01*
X123595533Y-53462777D01*
X123599187Y-53457850D01*
X123603306Y-53453306D01*
X123607850Y-53449187D01*
X123612777Y-53445533D01*
X123618038Y-53442380D01*
X123623582Y-53439758D01*
X123629357Y-53437691D01*
X123635307Y-53436201D01*
X123641374Y-53435301D01*
X123647500Y-53435000D01*
X123772500Y-53435000D01*
X123778626Y-53435301D01*
X123778626Y-53435301D01*
G37*
D14*
X123710000Y-53872500D03*
D11*
G36*
X123278626Y-53435301D02*
G01*
X123284693Y-53436201D01*
X123290643Y-53437691D01*
X123296418Y-53439758D01*
X123301962Y-53442380D01*
X123307223Y-53445533D01*
X123312150Y-53449187D01*
X123316694Y-53453306D01*
X123320813Y-53457850D01*
X123324467Y-53462777D01*
X123327620Y-53468038D01*
X123330242Y-53473582D01*
X123332309Y-53479357D01*
X123333799Y-53485307D01*
X123334699Y-53491374D01*
X123335000Y-53497500D01*
X123335000Y-54247500D01*
X123334699Y-54253626D01*
X123333799Y-54259693D01*
X123332309Y-54265643D01*
X123330242Y-54271418D01*
X123327620Y-54276962D01*
X123324467Y-54282223D01*
X123320813Y-54287150D01*
X123316694Y-54291694D01*
X123312150Y-54295813D01*
X123307223Y-54299467D01*
X123301962Y-54302620D01*
X123296418Y-54305242D01*
X123290643Y-54307309D01*
X123284693Y-54308799D01*
X123278626Y-54309699D01*
X123272500Y-54310000D01*
X123147500Y-54310000D01*
X123141374Y-54309699D01*
X123135307Y-54308799D01*
X123129357Y-54307309D01*
X123123582Y-54305242D01*
X123118038Y-54302620D01*
X123112777Y-54299467D01*
X123107850Y-54295813D01*
X123103306Y-54291694D01*
X123099187Y-54287150D01*
X123095533Y-54282223D01*
X123092380Y-54276962D01*
X123089758Y-54271418D01*
X123087691Y-54265643D01*
X123086201Y-54259693D01*
X123085301Y-54253626D01*
X123085000Y-54247500D01*
X123085000Y-53497500D01*
X123085301Y-53491374D01*
X123086201Y-53485307D01*
X123087691Y-53479357D01*
X123089758Y-53473582D01*
X123092380Y-53468038D01*
X123095533Y-53462777D01*
X123099187Y-53457850D01*
X123103306Y-53453306D01*
X123107850Y-53449187D01*
X123112777Y-53445533D01*
X123118038Y-53442380D01*
X123123582Y-53439758D01*
X123129357Y-53437691D01*
X123135307Y-53436201D01*
X123141374Y-53435301D01*
X123147500Y-53435000D01*
X123272500Y-53435000D01*
X123278626Y-53435301D01*
X123278626Y-53435301D01*
G37*
D14*
X123210000Y-53872500D03*
D11*
G36*
X122778626Y-53435301D02*
G01*
X122784693Y-53436201D01*
X122790643Y-53437691D01*
X122796418Y-53439758D01*
X122801962Y-53442380D01*
X122807223Y-53445533D01*
X122812150Y-53449187D01*
X122816694Y-53453306D01*
X122820813Y-53457850D01*
X122824467Y-53462777D01*
X122827620Y-53468038D01*
X122830242Y-53473582D01*
X122832309Y-53479357D01*
X122833799Y-53485307D01*
X122834699Y-53491374D01*
X122835000Y-53497500D01*
X122835000Y-54247500D01*
X122834699Y-54253626D01*
X122833799Y-54259693D01*
X122832309Y-54265643D01*
X122830242Y-54271418D01*
X122827620Y-54276962D01*
X122824467Y-54282223D01*
X122820813Y-54287150D01*
X122816694Y-54291694D01*
X122812150Y-54295813D01*
X122807223Y-54299467D01*
X122801962Y-54302620D01*
X122796418Y-54305242D01*
X122790643Y-54307309D01*
X122784693Y-54308799D01*
X122778626Y-54309699D01*
X122772500Y-54310000D01*
X122647500Y-54310000D01*
X122641374Y-54309699D01*
X122635307Y-54308799D01*
X122629357Y-54307309D01*
X122623582Y-54305242D01*
X122618038Y-54302620D01*
X122612777Y-54299467D01*
X122607850Y-54295813D01*
X122603306Y-54291694D01*
X122599187Y-54287150D01*
X122595533Y-54282223D01*
X122592380Y-54276962D01*
X122589758Y-54271418D01*
X122587691Y-54265643D01*
X122586201Y-54259693D01*
X122585301Y-54253626D01*
X122585000Y-54247500D01*
X122585000Y-53497500D01*
X122585301Y-53491374D01*
X122586201Y-53485307D01*
X122587691Y-53479357D01*
X122589758Y-53473582D01*
X122592380Y-53468038D01*
X122595533Y-53462777D01*
X122599187Y-53457850D01*
X122603306Y-53453306D01*
X122607850Y-53449187D01*
X122612777Y-53445533D01*
X122618038Y-53442380D01*
X122623582Y-53439758D01*
X122629357Y-53437691D01*
X122635307Y-53436201D01*
X122641374Y-53435301D01*
X122647500Y-53435000D01*
X122772500Y-53435000D01*
X122778626Y-53435301D01*
X122778626Y-53435301D01*
G37*
D14*
X122710000Y-53872500D03*
D11*
G36*
X122403626Y-53060301D02*
G01*
X122409693Y-53061201D01*
X122415643Y-53062691D01*
X122421418Y-53064758D01*
X122426962Y-53067380D01*
X122432223Y-53070533D01*
X122437150Y-53074187D01*
X122441694Y-53078306D01*
X122445813Y-53082850D01*
X122449467Y-53087777D01*
X122452620Y-53093038D01*
X122455242Y-53098582D01*
X122457309Y-53104357D01*
X122458799Y-53110307D01*
X122459699Y-53116374D01*
X122460000Y-53122500D01*
X122460000Y-53247500D01*
X122459699Y-53253626D01*
X122458799Y-53259693D01*
X122457309Y-53265643D01*
X122455242Y-53271418D01*
X122452620Y-53276962D01*
X122449467Y-53282223D01*
X122445813Y-53287150D01*
X122441694Y-53291694D01*
X122437150Y-53295813D01*
X122432223Y-53299467D01*
X122426962Y-53302620D01*
X122421418Y-53305242D01*
X122415643Y-53307309D01*
X122409693Y-53308799D01*
X122403626Y-53309699D01*
X122397500Y-53310000D01*
X121647500Y-53310000D01*
X121641374Y-53309699D01*
X121635307Y-53308799D01*
X121629357Y-53307309D01*
X121623582Y-53305242D01*
X121618038Y-53302620D01*
X121612777Y-53299467D01*
X121607850Y-53295813D01*
X121603306Y-53291694D01*
X121599187Y-53287150D01*
X121595533Y-53282223D01*
X121592380Y-53276962D01*
X121589758Y-53271418D01*
X121587691Y-53265643D01*
X121586201Y-53259693D01*
X121585301Y-53253626D01*
X121585000Y-53247500D01*
X121585000Y-53122500D01*
X121585301Y-53116374D01*
X121586201Y-53110307D01*
X121587691Y-53104357D01*
X121589758Y-53098582D01*
X121592380Y-53093038D01*
X121595533Y-53087777D01*
X121599187Y-53082850D01*
X121603306Y-53078306D01*
X121607850Y-53074187D01*
X121612777Y-53070533D01*
X121618038Y-53067380D01*
X121623582Y-53064758D01*
X121629357Y-53062691D01*
X121635307Y-53061201D01*
X121641374Y-53060301D01*
X121647500Y-53060000D01*
X122397500Y-53060000D01*
X122403626Y-53060301D01*
X122403626Y-53060301D01*
G37*
D14*
X122022500Y-53185000D03*
D11*
G36*
X122403626Y-52560301D02*
G01*
X122409693Y-52561201D01*
X122415643Y-52562691D01*
X122421418Y-52564758D01*
X122426962Y-52567380D01*
X122432223Y-52570533D01*
X122437150Y-52574187D01*
X122441694Y-52578306D01*
X122445813Y-52582850D01*
X122449467Y-52587777D01*
X122452620Y-52593038D01*
X122455242Y-52598582D01*
X122457309Y-52604357D01*
X122458799Y-52610307D01*
X122459699Y-52616374D01*
X122460000Y-52622500D01*
X122460000Y-52747500D01*
X122459699Y-52753626D01*
X122458799Y-52759693D01*
X122457309Y-52765643D01*
X122455242Y-52771418D01*
X122452620Y-52776962D01*
X122449467Y-52782223D01*
X122445813Y-52787150D01*
X122441694Y-52791694D01*
X122437150Y-52795813D01*
X122432223Y-52799467D01*
X122426962Y-52802620D01*
X122421418Y-52805242D01*
X122415643Y-52807309D01*
X122409693Y-52808799D01*
X122403626Y-52809699D01*
X122397500Y-52810000D01*
X121647500Y-52810000D01*
X121641374Y-52809699D01*
X121635307Y-52808799D01*
X121629357Y-52807309D01*
X121623582Y-52805242D01*
X121618038Y-52802620D01*
X121612777Y-52799467D01*
X121607850Y-52795813D01*
X121603306Y-52791694D01*
X121599187Y-52787150D01*
X121595533Y-52782223D01*
X121592380Y-52776962D01*
X121589758Y-52771418D01*
X121587691Y-52765643D01*
X121586201Y-52759693D01*
X121585301Y-52753626D01*
X121585000Y-52747500D01*
X121585000Y-52622500D01*
X121585301Y-52616374D01*
X121586201Y-52610307D01*
X121587691Y-52604357D01*
X121589758Y-52598582D01*
X121592380Y-52593038D01*
X121595533Y-52587777D01*
X121599187Y-52582850D01*
X121603306Y-52578306D01*
X121607850Y-52574187D01*
X121612777Y-52570533D01*
X121618038Y-52567380D01*
X121623582Y-52564758D01*
X121629357Y-52562691D01*
X121635307Y-52561201D01*
X121641374Y-52560301D01*
X121647500Y-52560000D01*
X122397500Y-52560000D01*
X122403626Y-52560301D01*
X122403626Y-52560301D01*
G37*
D14*
X122022500Y-52685000D03*
D11*
G36*
X122403626Y-52060301D02*
G01*
X122409693Y-52061201D01*
X122415643Y-52062691D01*
X122421418Y-52064758D01*
X122426962Y-52067380D01*
X122432223Y-52070533D01*
X122437150Y-52074187D01*
X122441694Y-52078306D01*
X122445813Y-52082850D01*
X122449467Y-52087777D01*
X122452620Y-52093038D01*
X122455242Y-52098582D01*
X122457309Y-52104357D01*
X122458799Y-52110307D01*
X122459699Y-52116374D01*
X122460000Y-52122500D01*
X122460000Y-52247500D01*
X122459699Y-52253626D01*
X122458799Y-52259693D01*
X122457309Y-52265643D01*
X122455242Y-52271418D01*
X122452620Y-52276962D01*
X122449467Y-52282223D01*
X122445813Y-52287150D01*
X122441694Y-52291694D01*
X122437150Y-52295813D01*
X122432223Y-52299467D01*
X122426962Y-52302620D01*
X122421418Y-52305242D01*
X122415643Y-52307309D01*
X122409693Y-52308799D01*
X122403626Y-52309699D01*
X122397500Y-52310000D01*
X121647500Y-52310000D01*
X121641374Y-52309699D01*
X121635307Y-52308799D01*
X121629357Y-52307309D01*
X121623582Y-52305242D01*
X121618038Y-52302620D01*
X121612777Y-52299467D01*
X121607850Y-52295813D01*
X121603306Y-52291694D01*
X121599187Y-52287150D01*
X121595533Y-52282223D01*
X121592380Y-52276962D01*
X121589758Y-52271418D01*
X121587691Y-52265643D01*
X121586201Y-52259693D01*
X121585301Y-52253626D01*
X121585000Y-52247500D01*
X121585000Y-52122500D01*
X121585301Y-52116374D01*
X121586201Y-52110307D01*
X121587691Y-52104357D01*
X121589758Y-52098582D01*
X121592380Y-52093038D01*
X121595533Y-52087777D01*
X121599187Y-52082850D01*
X121603306Y-52078306D01*
X121607850Y-52074187D01*
X121612777Y-52070533D01*
X121618038Y-52067380D01*
X121623582Y-52064758D01*
X121629357Y-52062691D01*
X121635307Y-52061201D01*
X121641374Y-52060301D01*
X121647500Y-52060000D01*
X122397500Y-52060000D01*
X122403626Y-52060301D01*
X122403626Y-52060301D01*
G37*
D14*
X122022500Y-52185000D03*
D11*
G36*
X122403626Y-51560301D02*
G01*
X122409693Y-51561201D01*
X122415643Y-51562691D01*
X122421418Y-51564758D01*
X122426962Y-51567380D01*
X122432223Y-51570533D01*
X122437150Y-51574187D01*
X122441694Y-51578306D01*
X122445813Y-51582850D01*
X122449467Y-51587777D01*
X122452620Y-51593038D01*
X122455242Y-51598582D01*
X122457309Y-51604357D01*
X122458799Y-51610307D01*
X122459699Y-51616374D01*
X122460000Y-51622500D01*
X122460000Y-51747500D01*
X122459699Y-51753626D01*
X122458799Y-51759693D01*
X122457309Y-51765643D01*
X122455242Y-51771418D01*
X122452620Y-51776962D01*
X122449467Y-51782223D01*
X122445813Y-51787150D01*
X122441694Y-51791694D01*
X122437150Y-51795813D01*
X122432223Y-51799467D01*
X122426962Y-51802620D01*
X122421418Y-51805242D01*
X122415643Y-51807309D01*
X122409693Y-51808799D01*
X122403626Y-51809699D01*
X122397500Y-51810000D01*
X121647500Y-51810000D01*
X121641374Y-51809699D01*
X121635307Y-51808799D01*
X121629357Y-51807309D01*
X121623582Y-51805242D01*
X121618038Y-51802620D01*
X121612777Y-51799467D01*
X121607850Y-51795813D01*
X121603306Y-51791694D01*
X121599187Y-51787150D01*
X121595533Y-51782223D01*
X121592380Y-51776962D01*
X121589758Y-51771418D01*
X121587691Y-51765643D01*
X121586201Y-51759693D01*
X121585301Y-51753626D01*
X121585000Y-51747500D01*
X121585000Y-51622500D01*
X121585301Y-51616374D01*
X121586201Y-51610307D01*
X121587691Y-51604357D01*
X121589758Y-51598582D01*
X121592380Y-51593038D01*
X121595533Y-51587777D01*
X121599187Y-51582850D01*
X121603306Y-51578306D01*
X121607850Y-51574187D01*
X121612777Y-51570533D01*
X121618038Y-51567380D01*
X121623582Y-51564758D01*
X121629357Y-51562691D01*
X121635307Y-51561201D01*
X121641374Y-51560301D01*
X121647500Y-51560000D01*
X122397500Y-51560000D01*
X122403626Y-51560301D01*
X122403626Y-51560301D01*
G37*
D14*
X122022500Y-51685000D03*
D11*
G36*
X122403626Y-51060301D02*
G01*
X122409693Y-51061201D01*
X122415643Y-51062691D01*
X122421418Y-51064758D01*
X122426962Y-51067380D01*
X122432223Y-51070533D01*
X122437150Y-51074187D01*
X122441694Y-51078306D01*
X122445813Y-51082850D01*
X122449467Y-51087777D01*
X122452620Y-51093038D01*
X122455242Y-51098582D01*
X122457309Y-51104357D01*
X122458799Y-51110307D01*
X122459699Y-51116374D01*
X122460000Y-51122500D01*
X122460000Y-51247500D01*
X122459699Y-51253626D01*
X122458799Y-51259693D01*
X122457309Y-51265643D01*
X122455242Y-51271418D01*
X122452620Y-51276962D01*
X122449467Y-51282223D01*
X122445813Y-51287150D01*
X122441694Y-51291694D01*
X122437150Y-51295813D01*
X122432223Y-51299467D01*
X122426962Y-51302620D01*
X122421418Y-51305242D01*
X122415643Y-51307309D01*
X122409693Y-51308799D01*
X122403626Y-51309699D01*
X122397500Y-51310000D01*
X121647500Y-51310000D01*
X121641374Y-51309699D01*
X121635307Y-51308799D01*
X121629357Y-51307309D01*
X121623582Y-51305242D01*
X121618038Y-51302620D01*
X121612777Y-51299467D01*
X121607850Y-51295813D01*
X121603306Y-51291694D01*
X121599187Y-51287150D01*
X121595533Y-51282223D01*
X121592380Y-51276962D01*
X121589758Y-51271418D01*
X121587691Y-51265643D01*
X121586201Y-51259693D01*
X121585301Y-51253626D01*
X121585000Y-51247500D01*
X121585000Y-51122500D01*
X121585301Y-51116374D01*
X121586201Y-51110307D01*
X121587691Y-51104357D01*
X121589758Y-51098582D01*
X121592380Y-51093038D01*
X121595533Y-51087777D01*
X121599187Y-51082850D01*
X121603306Y-51078306D01*
X121607850Y-51074187D01*
X121612777Y-51070533D01*
X121618038Y-51067380D01*
X121623582Y-51064758D01*
X121629357Y-51062691D01*
X121635307Y-51061201D01*
X121641374Y-51060301D01*
X121647500Y-51060000D01*
X122397500Y-51060000D01*
X122403626Y-51060301D01*
X122403626Y-51060301D01*
G37*
D14*
X122022500Y-51185000D03*
D11*
G36*
X122403626Y-50560301D02*
G01*
X122409693Y-50561201D01*
X122415643Y-50562691D01*
X122421418Y-50564758D01*
X122426962Y-50567380D01*
X122432223Y-50570533D01*
X122437150Y-50574187D01*
X122441694Y-50578306D01*
X122445813Y-50582850D01*
X122449467Y-50587777D01*
X122452620Y-50593038D01*
X122455242Y-50598582D01*
X122457309Y-50604357D01*
X122458799Y-50610307D01*
X122459699Y-50616374D01*
X122460000Y-50622500D01*
X122460000Y-50747500D01*
X122459699Y-50753626D01*
X122458799Y-50759693D01*
X122457309Y-50765643D01*
X122455242Y-50771418D01*
X122452620Y-50776962D01*
X122449467Y-50782223D01*
X122445813Y-50787150D01*
X122441694Y-50791694D01*
X122437150Y-50795813D01*
X122432223Y-50799467D01*
X122426962Y-50802620D01*
X122421418Y-50805242D01*
X122415643Y-50807309D01*
X122409693Y-50808799D01*
X122403626Y-50809699D01*
X122397500Y-50810000D01*
X121647500Y-50810000D01*
X121641374Y-50809699D01*
X121635307Y-50808799D01*
X121629357Y-50807309D01*
X121623582Y-50805242D01*
X121618038Y-50802620D01*
X121612777Y-50799467D01*
X121607850Y-50795813D01*
X121603306Y-50791694D01*
X121599187Y-50787150D01*
X121595533Y-50782223D01*
X121592380Y-50776962D01*
X121589758Y-50771418D01*
X121587691Y-50765643D01*
X121586201Y-50759693D01*
X121585301Y-50753626D01*
X121585000Y-50747500D01*
X121585000Y-50622500D01*
X121585301Y-50616374D01*
X121586201Y-50610307D01*
X121587691Y-50604357D01*
X121589758Y-50598582D01*
X121592380Y-50593038D01*
X121595533Y-50587777D01*
X121599187Y-50582850D01*
X121603306Y-50578306D01*
X121607850Y-50574187D01*
X121612777Y-50570533D01*
X121618038Y-50567380D01*
X121623582Y-50564758D01*
X121629357Y-50562691D01*
X121635307Y-50561201D01*
X121641374Y-50560301D01*
X121647500Y-50560000D01*
X122397500Y-50560000D01*
X122403626Y-50560301D01*
X122403626Y-50560301D01*
G37*
D14*
X122022500Y-50685000D03*
D11*
G36*
X122403626Y-50060301D02*
G01*
X122409693Y-50061201D01*
X122415643Y-50062691D01*
X122421418Y-50064758D01*
X122426962Y-50067380D01*
X122432223Y-50070533D01*
X122437150Y-50074187D01*
X122441694Y-50078306D01*
X122445813Y-50082850D01*
X122449467Y-50087777D01*
X122452620Y-50093038D01*
X122455242Y-50098582D01*
X122457309Y-50104357D01*
X122458799Y-50110307D01*
X122459699Y-50116374D01*
X122460000Y-50122500D01*
X122460000Y-50247500D01*
X122459699Y-50253626D01*
X122458799Y-50259693D01*
X122457309Y-50265643D01*
X122455242Y-50271418D01*
X122452620Y-50276962D01*
X122449467Y-50282223D01*
X122445813Y-50287150D01*
X122441694Y-50291694D01*
X122437150Y-50295813D01*
X122432223Y-50299467D01*
X122426962Y-50302620D01*
X122421418Y-50305242D01*
X122415643Y-50307309D01*
X122409693Y-50308799D01*
X122403626Y-50309699D01*
X122397500Y-50310000D01*
X121647500Y-50310000D01*
X121641374Y-50309699D01*
X121635307Y-50308799D01*
X121629357Y-50307309D01*
X121623582Y-50305242D01*
X121618038Y-50302620D01*
X121612777Y-50299467D01*
X121607850Y-50295813D01*
X121603306Y-50291694D01*
X121599187Y-50287150D01*
X121595533Y-50282223D01*
X121592380Y-50276962D01*
X121589758Y-50271418D01*
X121587691Y-50265643D01*
X121586201Y-50259693D01*
X121585301Y-50253626D01*
X121585000Y-50247500D01*
X121585000Y-50122500D01*
X121585301Y-50116374D01*
X121586201Y-50110307D01*
X121587691Y-50104357D01*
X121589758Y-50098582D01*
X121592380Y-50093038D01*
X121595533Y-50087777D01*
X121599187Y-50082850D01*
X121603306Y-50078306D01*
X121607850Y-50074187D01*
X121612777Y-50070533D01*
X121618038Y-50067380D01*
X121623582Y-50064758D01*
X121629357Y-50062691D01*
X121635307Y-50061201D01*
X121641374Y-50060301D01*
X121647500Y-50060000D01*
X122397500Y-50060000D01*
X122403626Y-50060301D01*
X122403626Y-50060301D01*
G37*
D14*
X122022500Y-50185000D03*
D11*
G36*
X122403626Y-49560301D02*
G01*
X122409693Y-49561201D01*
X122415643Y-49562691D01*
X122421418Y-49564758D01*
X122426962Y-49567380D01*
X122432223Y-49570533D01*
X122437150Y-49574187D01*
X122441694Y-49578306D01*
X122445813Y-49582850D01*
X122449467Y-49587777D01*
X122452620Y-49593038D01*
X122455242Y-49598582D01*
X122457309Y-49604357D01*
X122458799Y-49610307D01*
X122459699Y-49616374D01*
X122460000Y-49622500D01*
X122460000Y-49747500D01*
X122459699Y-49753626D01*
X122458799Y-49759693D01*
X122457309Y-49765643D01*
X122455242Y-49771418D01*
X122452620Y-49776962D01*
X122449467Y-49782223D01*
X122445813Y-49787150D01*
X122441694Y-49791694D01*
X122437150Y-49795813D01*
X122432223Y-49799467D01*
X122426962Y-49802620D01*
X122421418Y-49805242D01*
X122415643Y-49807309D01*
X122409693Y-49808799D01*
X122403626Y-49809699D01*
X122397500Y-49810000D01*
X121647500Y-49810000D01*
X121641374Y-49809699D01*
X121635307Y-49808799D01*
X121629357Y-49807309D01*
X121623582Y-49805242D01*
X121618038Y-49802620D01*
X121612777Y-49799467D01*
X121607850Y-49795813D01*
X121603306Y-49791694D01*
X121599187Y-49787150D01*
X121595533Y-49782223D01*
X121592380Y-49776962D01*
X121589758Y-49771418D01*
X121587691Y-49765643D01*
X121586201Y-49759693D01*
X121585301Y-49753626D01*
X121585000Y-49747500D01*
X121585000Y-49622500D01*
X121585301Y-49616374D01*
X121586201Y-49610307D01*
X121587691Y-49604357D01*
X121589758Y-49598582D01*
X121592380Y-49593038D01*
X121595533Y-49587777D01*
X121599187Y-49582850D01*
X121603306Y-49578306D01*
X121607850Y-49574187D01*
X121612777Y-49570533D01*
X121618038Y-49567380D01*
X121623582Y-49564758D01*
X121629357Y-49562691D01*
X121635307Y-49561201D01*
X121641374Y-49560301D01*
X121647500Y-49560000D01*
X122397500Y-49560000D01*
X122403626Y-49560301D01*
X122403626Y-49560301D01*
G37*
D14*
X122022500Y-49685000D03*
D11*
G36*
X122778626Y-48560301D02*
G01*
X122784693Y-48561201D01*
X122790643Y-48562691D01*
X122796418Y-48564758D01*
X122801962Y-48567380D01*
X122807223Y-48570533D01*
X122812150Y-48574187D01*
X122816694Y-48578306D01*
X122820813Y-48582850D01*
X122824467Y-48587777D01*
X122827620Y-48593038D01*
X122830242Y-48598582D01*
X122832309Y-48604357D01*
X122833799Y-48610307D01*
X122834699Y-48616374D01*
X122835000Y-48622500D01*
X122835000Y-49372500D01*
X122834699Y-49378626D01*
X122833799Y-49384693D01*
X122832309Y-49390643D01*
X122830242Y-49396418D01*
X122827620Y-49401962D01*
X122824467Y-49407223D01*
X122820813Y-49412150D01*
X122816694Y-49416694D01*
X122812150Y-49420813D01*
X122807223Y-49424467D01*
X122801962Y-49427620D01*
X122796418Y-49430242D01*
X122790643Y-49432309D01*
X122784693Y-49433799D01*
X122778626Y-49434699D01*
X122772500Y-49435000D01*
X122647500Y-49435000D01*
X122641374Y-49434699D01*
X122635307Y-49433799D01*
X122629357Y-49432309D01*
X122623582Y-49430242D01*
X122618038Y-49427620D01*
X122612777Y-49424467D01*
X122607850Y-49420813D01*
X122603306Y-49416694D01*
X122599187Y-49412150D01*
X122595533Y-49407223D01*
X122592380Y-49401962D01*
X122589758Y-49396418D01*
X122587691Y-49390643D01*
X122586201Y-49384693D01*
X122585301Y-49378626D01*
X122585000Y-49372500D01*
X122585000Y-48622500D01*
X122585301Y-48616374D01*
X122586201Y-48610307D01*
X122587691Y-48604357D01*
X122589758Y-48598582D01*
X122592380Y-48593038D01*
X122595533Y-48587777D01*
X122599187Y-48582850D01*
X122603306Y-48578306D01*
X122607850Y-48574187D01*
X122612777Y-48570533D01*
X122618038Y-48567380D01*
X122623582Y-48564758D01*
X122629357Y-48562691D01*
X122635307Y-48561201D01*
X122641374Y-48560301D01*
X122647500Y-48560000D01*
X122772500Y-48560000D01*
X122778626Y-48560301D01*
X122778626Y-48560301D01*
G37*
D14*
X122710000Y-48997500D03*
D11*
G36*
X123278626Y-48560301D02*
G01*
X123284693Y-48561201D01*
X123290643Y-48562691D01*
X123296418Y-48564758D01*
X123301962Y-48567380D01*
X123307223Y-48570533D01*
X123312150Y-48574187D01*
X123316694Y-48578306D01*
X123320813Y-48582850D01*
X123324467Y-48587777D01*
X123327620Y-48593038D01*
X123330242Y-48598582D01*
X123332309Y-48604357D01*
X123333799Y-48610307D01*
X123334699Y-48616374D01*
X123335000Y-48622500D01*
X123335000Y-49372500D01*
X123334699Y-49378626D01*
X123333799Y-49384693D01*
X123332309Y-49390643D01*
X123330242Y-49396418D01*
X123327620Y-49401962D01*
X123324467Y-49407223D01*
X123320813Y-49412150D01*
X123316694Y-49416694D01*
X123312150Y-49420813D01*
X123307223Y-49424467D01*
X123301962Y-49427620D01*
X123296418Y-49430242D01*
X123290643Y-49432309D01*
X123284693Y-49433799D01*
X123278626Y-49434699D01*
X123272500Y-49435000D01*
X123147500Y-49435000D01*
X123141374Y-49434699D01*
X123135307Y-49433799D01*
X123129357Y-49432309D01*
X123123582Y-49430242D01*
X123118038Y-49427620D01*
X123112777Y-49424467D01*
X123107850Y-49420813D01*
X123103306Y-49416694D01*
X123099187Y-49412150D01*
X123095533Y-49407223D01*
X123092380Y-49401962D01*
X123089758Y-49396418D01*
X123087691Y-49390643D01*
X123086201Y-49384693D01*
X123085301Y-49378626D01*
X123085000Y-49372500D01*
X123085000Y-48622500D01*
X123085301Y-48616374D01*
X123086201Y-48610307D01*
X123087691Y-48604357D01*
X123089758Y-48598582D01*
X123092380Y-48593038D01*
X123095533Y-48587777D01*
X123099187Y-48582850D01*
X123103306Y-48578306D01*
X123107850Y-48574187D01*
X123112777Y-48570533D01*
X123118038Y-48567380D01*
X123123582Y-48564758D01*
X123129357Y-48562691D01*
X123135307Y-48561201D01*
X123141374Y-48560301D01*
X123147500Y-48560000D01*
X123272500Y-48560000D01*
X123278626Y-48560301D01*
X123278626Y-48560301D01*
G37*
D14*
X123210000Y-48997500D03*
D11*
G36*
X123778626Y-48560301D02*
G01*
X123784693Y-48561201D01*
X123790643Y-48562691D01*
X123796418Y-48564758D01*
X123801962Y-48567380D01*
X123807223Y-48570533D01*
X123812150Y-48574187D01*
X123816694Y-48578306D01*
X123820813Y-48582850D01*
X123824467Y-48587777D01*
X123827620Y-48593038D01*
X123830242Y-48598582D01*
X123832309Y-48604357D01*
X123833799Y-48610307D01*
X123834699Y-48616374D01*
X123835000Y-48622500D01*
X123835000Y-49372500D01*
X123834699Y-49378626D01*
X123833799Y-49384693D01*
X123832309Y-49390643D01*
X123830242Y-49396418D01*
X123827620Y-49401962D01*
X123824467Y-49407223D01*
X123820813Y-49412150D01*
X123816694Y-49416694D01*
X123812150Y-49420813D01*
X123807223Y-49424467D01*
X123801962Y-49427620D01*
X123796418Y-49430242D01*
X123790643Y-49432309D01*
X123784693Y-49433799D01*
X123778626Y-49434699D01*
X123772500Y-49435000D01*
X123647500Y-49435000D01*
X123641374Y-49434699D01*
X123635307Y-49433799D01*
X123629357Y-49432309D01*
X123623582Y-49430242D01*
X123618038Y-49427620D01*
X123612777Y-49424467D01*
X123607850Y-49420813D01*
X123603306Y-49416694D01*
X123599187Y-49412150D01*
X123595533Y-49407223D01*
X123592380Y-49401962D01*
X123589758Y-49396418D01*
X123587691Y-49390643D01*
X123586201Y-49384693D01*
X123585301Y-49378626D01*
X123585000Y-49372500D01*
X123585000Y-48622500D01*
X123585301Y-48616374D01*
X123586201Y-48610307D01*
X123587691Y-48604357D01*
X123589758Y-48598582D01*
X123592380Y-48593038D01*
X123595533Y-48587777D01*
X123599187Y-48582850D01*
X123603306Y-48578306D01*
X123607850Y-48574187D01*
X123612777Y-48570533D01*
X123618038Y-48567380D01*
X123623582Y-48564758D01*
X123629357Y-48562691D01*
X123635307Y-48561201D01*
X123641374Y-48560301D01*
X123647500Y-48560000D01*
X123772500Y-48560000D01*
X123778626Y-48560301D01*
X123778626Y-48560301D01*
G37*
D14*
X123710000Y-48997500D03*
D11*
G36*
X124278626Y-48560301D02*
G01*
X124284693Y-48561201D01*
X124290643Y-48562691D01*
X124296418Y-48564758D01*
X124301962Y-48567380D01*
X124307223Y-48570533D01*
X124312150Y-48574187D01*
X124316694Y-48578306D01*
X124320813Y-48582850D01*
X124324467Y-48587777D01*
X124327620Y-48593038D01*
X124330242Y-48598582D01*
X124332309Y-48604357D01*
X124333799Y-48610307D01*
X124334699Y-48616374D01*
X124335000Y-48622500D01*
X124335000Y-49372500D01*
X124334699Y-49378626D01*
X124333799Y-49384693D01*
X124332309Y-49390643D01*
X124330242Y-49396418D01*
X124327620Y-49401962D01*
X124324467Y-49407223D01*
X124320813Y-49412150D01*
X124316694Y-49416694D01*
X124312150Y-49420813D01*
X124307223Y-49424467D01*
X124301962Y-49427620D01*
X124296418Y-49430242D01*
X124290643Y-49432309D01*
X124284693Y-49433799D01*
X124278626Y-49434699D01*
X124272500Y-49435000D01*
X124147500Y-49435000D01*
X124141374Y-49434699D01*
X124135307Y-49433799D01*
X124129357Y-49432309D01*
X124123582Y-49430242D01*
X124118038Y-49427620D01*
X124112777Y-49424467D01*
X124107850Y-49420813D01*
X124103306Y-49416694D01*
X124099187Y-49412150D01*
X124095533Y-49407223D01*
X124092380Y-49401962D01*
X124089758Y-49396418D01*
X124087691Y-49390643D01*
X124086201Y-49384693D01*
X124085301Y-49378626D01*
X124085000Y-49372500D01*
X124085000Y-48622500D01*
X124085301Y-48616374D01*
X124086201Y-48610307D01*
X124087691Y-48604357D01*
X124089758Y-48598582D01*
X124092380Y-48593038D01*
X124095533Y-48587777D01*
X124099187Y-48582850D01*
X124103306Y-48578306D01*
X124107850Y-48574187D01*
X124112777Y-48570533D01*
X124118038Y-48567380D01*
X124123582Y-48564758D01*
X124129357Y-48562691D01*
X124135307Y-48561201D01*
X124141374Y-48560301D01*
X124147500Y-48560000D01*
X124272500Y-48560000D01*
X124278626Y-48560301D01*
X124278626Y-48560301D01*
G37*
D14*
X124210000Y-48997500D03*
D11*
G36*
X124778626Y-48560301D02*
G01*
X124784693Y-48561201D01*
X124790643Y-48562691D01*
X124796418Y-48564758D01*
X124801962Y-48567380D01*
X124807223Y-48570533D01*
X124812150Y-48574187D01*
X124816694Y-48578306D01*
X124820813Y-48582850D01*
X124824467Y-48587777D01*
X124827620Y-48593038D01*
X124830242Y-48598582D01*
X124832309Y-48604357D01*
X124833799Y-48610307D01*
X124834699Y-48616374D01*
X124835000Y-48622500D01*
X124835000Y-49372500D01*
X124834699Y-49378626D01*
X124833799Y-49384693D01*
X124832309Y-49390643D01*
X124830242Y-49396418D01*
X124827620Y-49401962D01*
X124824467Y-49407223D01*
X124820813Y-49412150D01*
X124816694Y-49416694D01*
X124812150Y-49420813D01*
X124807223Y-49424467D01*
X124801962Y-49427620D01*
X124796418Y-49430242D01*
X124790643Y-49432309D01*
X124784693Y-49433799D01*
X124778626Y-49434699D01*
X124772500Y-49435000D01*
X124647500Y-49435000D01*
X124641374Y-49434699D01*
X124635307Y-49433799D01*
X124629357Y-49432309D01*
X124623582Y-49430242D01*
X124618038Y-49427620D01*
X124612777Y-49424467D01*
X124607850Y-49420813D01*
X124603306Y-49416694D01*
X124599187Y-49412150D01*
X124595533Y-49407223D01*
X124592380Y-49401962D01*
X124589758Y-49396418D01*
X124587691Y-49390643D01*
X124586201Y-49384693D01*
X124585301Y-49378626D01*
X124585000Y-49372500D01*
X124585000Y-48622500D01*
X124585301Y-48616374D01*
X124586201Y-48610307D01*
X124587691Y-48604357D01*
X124589758Y-48598582D01*
X124592380Y-48593038D01*
X124595533Y-48587777D01*
X124599187Y-48582850D01*
X124603306Y-48578306D01*
X124607850Y-48574187D01*
X124612777Y-48570533D01*
X124618038Y-48567380D01*
X124623582Y-48564758D01*
X124629357Y-48562691D01*
X124635307Y-48561201D01*
X124641374Y-48560301D01*
X124647500Y-48560000D01*
X124772500Y-48560000D01*
X124778626Y-48560301D01*
X124778626Y-48560301D01*
G37*
D14*
X124710000Y-48997500D03*
D11*
G36*
X125278626Y-48560301D02*
G01*
X125284693Y-48561201D01*
X125290643Y-48562691D01*
X125296418Y-48564758D01*
X125301962Y-48567380D01*
X125307223Y-48570533D01*
X125312150Y-48574187D01*
X125316694Y-48578306D01*
X125320813Y-48582850D01*
X125324467Y-48587777D01*
X125327620Y-48593038D01*
X125330242Y-48598582D01*
X125332309Y-48604357D01*
X125333799Y-48610307D01*
X125334699Y-48616374D01*
X125335000Y-48622500D01*
X125335000Y-49372500D01*
X125334699Y-49378626D01*
X125333799Y-49384693D01*
X125332309Y-49390643D01*
X125330242Y-49396418D01*
X125327620Y-49401962D01*
X125324467Y-49407223D01*
X125320813Y-49412150D01*
X125316694Y-49416694D01*
X125312150Y-49420813D01*
X125307223Y-49424467D01*
X125301962Y-49427620D01*
X125296418Y-49430242D01*
X125290643Y-49432309D01*
X125284693Y-49433799D01*
X125278626Y-49434699D01*
X125272500Y-49435000D01*
X125147500Y-49435000D01*
X125141374Y-49434699D01*
X125135307Y-49433799D01*
X125129357Y-49432309D01*
X125123582Y-49430242D01*
X125118038Y-49427620D01*
X125112777Y-49424467D01*
X125107850Y-49420813D01*
X125103306Y-49416694D01*
X125099187Y-49412150D01*
X125095533Y-49407223D01*
X125092380Y-49401962D01*
X125089758Y-49396418D01*
X125087691Y-49390643D01*
X125086201Y-49384693D01*
X125085301Y-49378626D01*
X125085000Y-49372500D01*
X125085000Y-48622500D01*
X125085301Y-48616374D01*
X125086201Y-48610307D01*
X125087691Y-48604357D01*
X125089758Y-48598582D01*
X125092380Y-48593038D01*
X125095533Y-48587777D01*
X125099187Y-48582850D01*
X125103306Y-48578306D01*
X125107850Y-48574187D01*
X125112777Y-48570533D01*
X125118038Y-48567380D01*
X125123582Y-48564758D01*
X125129357Y-48562691D01*
X125135307Y-48561201D01*
X125141374Y-48560301D01*
X125147500Y-48560000D01*
X125272500Y-48560000D01*
X125278626Y-48560301D01*
X125278626Y-48560301D01*
G37*
D14*
X125210000Y-48997500D03*
D11*
G36*
X125778626Y-48560301D02*
G01*
X125784693Y-48561201D01*
X125790643Y-48562691D01*
X125796418Y-48564758D01*
X125801962Y-48567380D01*
X125807223Y-48570533D01*
X125812150Y-48574187D01*
X125816694Y-48578306D01*
X125820813Y-48582850D01*
X125824467Y-48587777D01*
X125827620Y-48593038D01*
X125830242Y-48598582D01*
X125832309Y-48604357D01*
X125833799Y-48610307D01*
X125834699Y-48616374D01*
X125835000Y-48622500D01*
X125835000Y-49372500D01*
X125834699Y-49378626D01*
X125833799Y-49384693D01*
X125832309Y-49390643D01*
X125830242Y-49396418D01*
X125827620Y-49401962D01*
X125824467Y-49407223D01*
X125820813Y-49412150D01*
X125816694Y-49416694D01*
X125812150Y-49420813D01*
X125807223Y-49424467D01*
X125801962Y-49427620D01*
X125796418Y-49430242D01*
X125790643Y-49432309D01*
X125784693Y-49433799D01*
X125778626Y-49434699D01*
X125772500Y-49435000D01*
X125647500Y-49435000D01*
X125641374Y-49434699D01*
X125635307Y-49433799D01*
X125629357Y-49432309D01*
X125623582Y-49430242D01*
X125618038Y-49427620D01*
X125612777Y-49424467D01*
X125607850Y-49420813D01*
X125603306Y-49416694D01*
X125599187Y-49412150D01*
X125595533Y-49407223D01*
X125592380Y-49401962D01*
X125589758Y-49396418D01*
X125587691Y-49390643D01*
X125586201Y-49384693D01*
X125585301Y-49378626D01*
X125585000Y-49372500D01*
X125585000Y-48622500D01*
X125585301Y-48616374D01*
X125586201Y-48610307D01*
X125587691Y-48604357D01*
X125589758Y-48598582D01*
X125592380Y-48593038D01*
X125595533Y-48587777D01*
X125599187Y-48582850D01*
X125603306Y-48578306D01*
X125607850Y-48574187D01*
X125612777Y-48570533D01*
X125618038Y-48567380D01*
X125623582Y-48564758D01*
X125629357Y-48562691D01*
X125635307Y-48561201D01*
X125641374Y-48560301D01*
X125647500Y-48560000D01*
X125772500Y-48560000D01*
X125778626Y-48560301D01*
X125778626Y-48560301D01*
G37*
D14*
X125710000Y-48997500D03*
D11*
G36*
X126278626Y-48560301D02*
G01*
X126284693Y-48561201D01*
X126290643Y-48562691D01*
X126296418Y-48564758D01*
X126301962Y-48567380D01*
X126307223Y-48570533D01*
X126312150Y-48574187D01*
X126316694Y-48578306D01*
X126320813Y-48582850D01*
X126324467Y-48587777D01*
X126327620Y-48593038D01*
X126330242Y-48598582D01*
X126332309Y-48604357D01*
X126333799Y-48610307D01*
X126334699Y-48616374D01*
X126335000Y-48622500D01*
X126335000Y-49372500D01*
X126334699Y-49378626D01*
X126333799Y-49384693D01*
X126332309Y-49390643D01*
X126330242Y-49396418D01*
X126327620Y-49401962D01*
X126324467Y-49407223D01*
X126320813Y-49412150D01*
X126316694Y-49416694D01*
X126312150Y-49420813D01*
X126307223Y-49424467D01*
X126301962Y-49427620D01*
X126296418Y-49430242D01*
X126290643Y-49432309D01*
X126284693Y-49433799D01*
X126278626Y-49434699D01*
X126272500Y-49435000D01*
X126147500Y-49435000D01*
X126141374Y-49434699D01*
X126135307Y-49433799D01*
X126129357Y-49432309D01*
X126123582Y-49430242D01*
X126118038Y-49427620D01*
X126112777Y-49424467D01*
X126107850Y-49420813D01*
X126103306Y-49416694D01*
X126099187Y-49412150D01*
X126095533Y-49407223D01*
X126092380Y-49401962D01*
X126089758Y-49396418D01*
X126087691Y-49390643D01*
X126086201Y-49384693D01*
X126085301Y-49378626D01*
X126085000Y-49372500D01*
X126085000Y-48622500D01*
X126085301Y-48616374D01*
X126086201Y-48610307D01*
X126087691Y-48604357D01*
X126089758Y-48598582D01*
X126092380Y-48593038D01*
X126095533Y-48587777D01*
X126099187Y-48582850D01*
X126103306Y-48578306D01*
X126107850Y-48574187D01*
X126112777Y-48570533D01*
X126118038Y-48567380D01*
X126123582Y-48564758D01*
X126129357Y-48562691D01*
X126135307Y-48561201D01*
X126141374Y-48560301D01*
X126147500Y-48560000D01*
X126272500Y-48560000D01*
X126278626Y-48560301D01*
X126278626Y-48560301D01*
G37*
D14*
X126210000Y-48997500D03*
D11*
G36*
X127278626Y-49560301D02*
G01*
X127284693Y-49561201D01*
X127290643Y-49562691D01*
X127296418Y-49564758D01*
X127301962Y-49567380D01*
X127307223Y-49570533D01*
X127312150Y-49574187D01*
X127316694Y-49578306D01*
X127320813Y-49582850D01*
X127324467Y-49587777D01*
X127327620Y-49593038D01*
X127330242Y-49598582D01*
X127332309Y-49604357D01*
X127333799Y-49610307D01*
X127334699Y-49616374D01*
X127335000Y-49622500D01*
X127335000Y-49747500D01*
X127334699Y-49753626D01*
X127333799Y-49759693D01*
X127332309Y-49765643D01*
X127330242Y-49771418D01*
X127327620Y-49776962D01*
X127324467Y-49782223D01*
X127320813Y-49787150D01*
X127316694Y-49791694D01*
X127312150Y-49795813D01*
X127307223Y-49799467D01*
X127301962Y-49802620D01*
X127296418Y-49805242D01*
X127290643Y-49807309D01*
X127284693Y-49808799D01*
X127278626Y-49809699D01*
X127272500Y-49810000D01*
X126522500Y-49810000D01*
X126516374Y-49809699D01*
X126510307Y-49808799D01*
X126504357Y-49807309D01*
X126498582Y-49805242D01*
X126493038Y-49802620D01*
X126487777Y-49799467D01*
X126482850Y-49795813D01*
X126478306Y-49791694D01*
X126474187Y-49787150D01*
X126470533Y-49782223D01*
X126467380Y-49776962D01*
X126464758Y-49771418D01*
X126462691Y-49765643D01*
X126461201Y-49759693D01*
X126460301Y-49753626D01*
X126460000Y-49747500D01*
X126460000Y-49622500D01*
X126460301Y-49616374D01*
X126461201Y-49610307D01*
X126462691Y-49604357D01*
X126464758Y-49598582D01*
X126467380Y-49593038D01*
X126470533Y-49587777D01*
X126474187Y-49582850D01*
X126478306Y-49578306D01*
X126482850Y-49574187D01*
X126487777Y-49570533D01*
X126493038Y-49567380D01*
X126498582Y-49564758D01*
X126504357Y-49562691D01*
X126510307Y-49561201D01*
X126516374Y-49560301D01*
X126522500Y-49560000D01*
X127272500Y-49560000D01*
X127278626Y-49560301D01*
X127278626Y-49560301D01*
G37*
D14*
X126897500Y-49685000D03*
D11*
G36*
X127278626Y-50060301D02*
G01*
X127284693Y-50061201D01*
X127290643Y-50062691D01*
X127296418Y-50064758D01*
X127301962Y-50067380D01*
X127307223Y-50070533D01*
X127312150Y-50074187D01*
X127316694Y-50078306D01*
X127320813Y-50082850D01*
X127324467Y-50087777D01*
X127327620Y-50093038D01*
X127330242Y-50098582D01*
X127332309Y-50104357D01*
X127333799Y-50110307D01*
X127334699Y-50116374D01*
X127335000Y-50122500D01*
X127335000Y-50247500D01*
X127334699Y-50253626D01*
X127333799Y-50259693D01*
X127332309Y-50265643D01*
X127330242Y-50271418D01*
X127327620Y-50276962D01*
X127324467Y-50282223D01*
X127320813Y-50287150D01*
X127316694Y-50291694D01*
X127312150Y-50295813D01*
X127307223Y-50299467D01*
X127301962Y-50302620D01*
X127296418Y-50305242D01*
X127290643Y-50307309D01*
X127284693Y-50308799D01*
X127278626Y-50309699D01*
X127272500Y-50310000D01*
X126522500Y-50310000D01*
X126516374Y-50309699D01*
X126510307Y-50308799D01*
X126504357Y-50307309D01*
X126498582Y-50305242D01*
X126493038Y-50302620D01*
X126487777Y-50299467D01*
X126482850Y-50295813D01*
X126478306Y-50291694D01*
X126474187Y-50287150D01*
X126470533Y-50282223D01*
X126467380Y-50276962D01*
X126464758Y-50271418D01*
X126462691Y-50265643D01*
X126461201Y-50259693D01*
X126460301Y-50253626D01*
X126460000Y-50247500D01*
X126460000Y-50122500D01*
X126460301Y-50116374D01*
X126461201Y-50110307D01*
X126462691Y-50104357D01*
X126464758Y-50098582D01*
X126467380Y-50093038D01*
X126470533Y-50087777D01*
X126474187Y-50082850D01*
X126478306Y-50078306D01*
X126482850Y-50074187D01*
X126487777Y-50070533D01*
X126493038Y-50067380D01*
X126498582Y-50064758D01*
X126504357Y-50062691D01*
X126510307Y-50061201D01*
X126516374Y-50060301D01*
X126522500Y-50060000D01*
X127272500Y-50060000D01*
X127278626Y-50060301D01*
X127278626Y-50060301D01*
G37*
D14*
X126897500Y-50185000D03*
D11*
G36*
X127278626Y-50560301D02*
G01*
X127284693Y-50561201D01*
X127290643Y-50562691D01*
X127296418Y-50564758D01*
X127301962Y-50567380D01*
X127307223Y-50570533D01*
X127312150Y-50574187D01*
X127316694Y-50578306D01*
X127320813Y-50582850D01*
X127324467Y-50587777D01*
X127327620Y-50593038D01*
X127330242Y-50598582D01*
X127332309Y-50604357D01*
X127333799Y-50610307D01*
X127334699Y-50616374D01*
X127335000Y-50622500D01*
X127335000Y-50747500D01*
X127334699Y-50753626D01*
X127333799Y-50759693D01*
X127332309Y-50765643D01*
X127330242Y-50771418D01*
X127327620Y-50776962D01*
X127324467Y-50782223D01*
X127320813Y-50787150D01*
X127316694Y-50791694D01*
X127312150Y-50795813D01*
X127307223Y-50799467D01*
X127301962Y-50802620D01*
X127296418Y-50805242D01*
X127290643Y-50807309D01*
X127284693Y-50808799D01*
X127278626Y-50809699D01*
X127272500Y-50810000D01*
X126522500Y-50810000D01*
X126516374Y-50809699D01*
X126510307Y-50808799D01*
X126504357Y-50807309D01*
X126498582Y-50805242D01*
X126493038Y-50802620D01*
X126487777Y-50799467D01*
X126482850Y-50795813D01*
X126478306Y-50791694D01*
X126474187Y-50787150D01*
X126470533Y-50782223D01*
X126467380Y-50776962D01*
X126464758Y-50771418D01*
X126462691Y-50765643D01*
X126461201Y-50759693D01*
X126460301Y-50753626D01*
X126460000Y-50747500D01*
X126460000Y-50622500D01*
X126460301Y-50616374D01*
X126461201Y-50610307D01*
X126462691Y-50604357D01*
X126464758Y-50598582D01*
X126467380Y-50593038D01*
X126470533Y-50587777D01*
X126474187Y-50582850D01*
X126478306Y-50578306D01*
X126482850Y-50574187D01*
X126487777Y-50570533D01*
X126493038Y-50567380D01*
X126498582Y-50564758D01*
X126504357Y-50562691D01*
X126510307Y-50561201D01*
X126516374Y-50560301D01*
X126522500Y-50560000D01*
X127272500Y-50560000D01*
X127278626Y-50560301D01*
X127278626Y-50560301D01*
G37*
D14*
X126897500Y-50685000D03*
D11*
G36*
X127278626Y-51060301D02*
G01*
X127284693Y-51061201D01*
X127290643Y-51062691D01*
X127296418Y-51064758D01*
X127301962Y-51067380D01*
X127307223Y-51070533D01*
X127312150Y-51074187D01*
X127316694Y-51078306D01*
X127320813Y-51082850D01*
X127324467Y-51087777D01*
X127327620Y-51093038D01*
X127330242Y-51098582D01*
X127332309Y-51104357D01*
X127333799Y-51110307D01*
X127334699Y-51116374D01*
X127335000Y-51122500D01*
X127335000Y-51247500D01*
X127334699Y-51253626D01*
X127333799Y-51259693D01*
X127332309Y-51265643D01*
X127330242Y-51271418D01*
X127327620Y-51276962D01*
X127324467Y-51282223D01*
X127320813Y-51287150D01*
X127316694Y-51291694D01*
X127312150Y-51295813D01*
X127307223Y-51299467D01*
X127301962Y-51302620D01*
X127296418Y-51305242D01*
X127290643Y-51307309D01*
X127284693Y-51308799D01*
X127278626Y-51309699D01*
X127272500Y-51310000D01*
X126522500Y-51310000D01*
X126516374Y-51309699D01*
X126510307Y-51308799D01*
X126504357Y-51307309D01*
X126498582Y-51305242D01*
X126493038Y-51302620D01*
X126487777Y-51299467D01*
X126482850Y-51295813D01*
X126478306Y-51291694D01*
X126474187Y-51287150D01*
X126470533Y-51282223D01*
X126467380Y-51276962D01*
X126464758Y-51271418D01*
X126462691Y-51265643D01*
X126461201Y-51259693D01*
X126460301Y-51253626D01*
X126460000Y-51247500D01*
X126460000Y-51122500D01*
X126460301Y-51116374D01*
X126461201Y-51110307D01*
X126462691Y-51104357D01*
X126464758Y-51098582D01*
X126467380Y-51093038D01*
X126470533Y-51087777D01*
X126474187Y-51082850D01*
X126478306Y-51078306D01*
X126482850Y-51074187D01*
X126487777Y-51070533D01*
X126493038Y-51067380D01*
X126498582Y-51064758D01*
X126504357Y-51062691D01*
X126510307Y-51061201D01*
X126516374Y-51060301D01*
X126522500Y-51060000D01*
X127272500Y-51060000D01*
X127278626Y-51060301D01*
X127278626Y-51060301D01*
G37*
D14*
X126897500Y-51185000D03*
D11*
G36*
X127278626Y-51560301D02*
G01*
X127284693Y-51561201D01*
X127290643Y-51562691D01*
X127296418Y-51564758D01*
X127301962Y-51567380D01*
X127307223Y-51570533D01*
X127312150Y-51574187D01*
X127316694Y-51578306D01*
X127320813Y-51582850D01*
X127324467Y-51587777D01*
X127327620Y-51593038D01*
X127330242Y-51598582D01*
X127332309Y-51604357D01*
X127333799Y-51610307D01*
X127334699Y-51616374D01*
X127335000Y-51622500D01*
X127335000Y-51747500D01*
X127334699Y-51753626D01*
X127333799Y-51759693D01*
X127332309Y-51765643D01*
X127330242Y-51771418D01*
X127327620Y-51776962D01*
X127324467Y-51782223D01*
X127320813Y-51787150D01*
X127316694Y-51791694D01*
X127312150Y-51795813D01*
X127307223Y-51799467D01*
X127301962Y-51802620D01*
X127296418Y-51805242D01*
X127290643Y-51807309D01*
X127284693Y-51808799D01*
X127278626Y-51809699D01*
X127272500Y-51810000D01*
X126522500Y-51810000D01*
X126516374Y-51809699D01*
X126510307Y-51808799D01*
X126504357Y-51807309D01*
X126498582Y-51805242D01*
X126493038Y-51802620D01*
X126487777Y-51799467D01*
X126482850Y-51795813D01*
X126478306Y-51791694D01*
X126474187Y-51787150D01*
X126470533Y-51782223D01*
X126467380Y-51776962D01*
X126464758Y-51771418D01*
X126462691Y-51765643D01*
X126461201Y-51759693D01*
X126460301Y-51753626D01*
X126460000Y-51747500D01*
X126460000Y-51622500D01*
X126460301Y-51616374D01*
X126461201Y-51610307D01*
X126462691Y-51604357D01*
X126464758Y-51598582D01*
X126467380Y-51593038D01*
X126470533Y-51587777D01*
X126474187Y-51582850D01*
X126478306Y-51578306D01*
X126482850Y-51574187D01*
X126487777Y-51570533D01*
X126493038Y-51567380D01*
X126498582Y-51564758D01*
X126504357Y-51562691D01*
X126510307Y-51561201D01*
X126516374Y-51560301D01*
X126522500Y-51560000D01*
X127272500Y-51560000D01*
X127278626Y-51560301D01*
X127278626Y-51560301D01*
G37*
D14*
X126897500Y-51685000D03*
D11*
G36*
X127278626Y-52060301D02*
G01*
X127284693Y-52061201D01*
X127290643Y-52062691D01*
X127296418Y-52064758D01*
X127301962Y-52067380D01*
X127307223Y-52070533D01*
X127312150Y-52074187D01*
X127316694Y-52078306D01*
X127320813Y-52082850D01*
X127324467Y-52087777D01*
X127327620Y-52093038D01*
X127330242Y-52098582D01*
X127332309Y-52104357D01*
X127333799Y-52110307D01*
X127334699Y-52116374D01*
X127335000Y-52122500D01*
X127335000Y-52247500D01*
X127334699Y-52253626D01*
X127333799Y-52259693D01*
X127332309Y-52265643D01*
X127330242Y-52271418D01*
X127327620Y-52276962D01*
X127324467Y-52282223D01*
X127320813Y-52287150D01*
X127316694Y-52291694D01*
X127312150Y-52295813D01*
X127307223Y-52299467D01*
X127301962Y-52302620D01*
X127296418Y-52305242D01*
X127290643Y-52307309D01*
X127284693Y-52308799D01*
X127278626Y-52309699D01*
X127272500Y-52310000D01*
X126522500Y-52310000D01*
X126516374Y-52309699D01*
X126510307Y-52308799D01*
X126504357Y-52307309D01*
X126498582Y-52305242D01*
X126493038Y-52302620D01*
X126487777Y-52299467D01*
X126482850Y-52295813D01*
X126478306Y-52291694D01*
X126474187Y-52287150D01*
X126470533Y-52282223D01*
X126467380Y-52276962D01*
X126464758Y-52271418D01*
X126462691Y-52265643D01*
X126461201Y-52259693D01*
X126460301Y-52253626D01*
X126460000Y-52247500D01*
X126460000Y-52122500D01*
X126460301Y-52116374D01*
X126461201Y-52110307D01*
X126462691Y-52104357D01*
X126464758Y-52098582D01*
X126467380Y-52093038D01*
X126470533Y-52087777D01*
X126474187Y-52082850D01*
X126478306Y-52078306D01*
X126482850Y-52074187D01*
X126487777Y-52070533D01*
X126493038Y-52067380D01*
X126498582Y-52064758D01*
X126504357Y-52062691D01*
X126510307Y-52061201D01*
X126516374Y-52060301D01*
X126522500Y-52060000D01*
X127272500Y-52060000D01*
X127278626Y-52060301D01*
X127278626Y-52060301D01*
G37*
D14*
X126897500Y-52185000D03*
D11*
G36*
X127278626Y-52560301D02*
G01*
X127284693Y-52561201D01*
X127290643Y-52562691D01*
X127296418Y-52564758D01*
X127301962Y-52567380D01*
X127307223Y-52570533D01*
X127312150Y-52574187D01*
X127316694Y-52578306D01*
X127320813Y-52582850D01*
X127324467Y-52587777D01*
X127327620Y-52593038D01*
X127330242Y-52598582D01*
X127332309Y-52604357D01*
X127333799Y-52610307D01*
X127334699Y-52616374D01*
X127335000Y-52622500D01*
X127335000Y-52747500D01*
X127334699Y-52753626D01*
X127333799Y-52759693D01*
X127332309Y-52765643D01*
X127330242Y-52771418D01*
X127327620Y-52776962D01*
X127324467Y-52782223D01*
X127320813Y-52787150D01*
X127316694Y-52791694D01*
X127312150Y-52795813D01*
X127307223Y-52799467D01*
X127301962Y-52802620D01*
X127296418Y-52805242D01*
X127290643Y-52807309D01*
X127284693Y-52808799D01*
X127278626Y-52809699D01*
X127272500Y-52810000D01*
X126522500Y-52810000D01*
X126516374Y-52809699D01*
X126510307Y-52808799D01*
X126504357Y-52807309D01*
X126498582Y-52805242D01*
X126493038Y-52802620D01*
X126487777Y-52799467D01*
X126482850Y-52795813D01*
X126478306Y-52791694D01*
X126474187Y-52787150D01*
X126470533Y-52782223D01*
X126467380Y-52776962D01*
X126464758Y-52771418D01*
X126462691Y-52765643D01*
X126461201Y-52759693D01*
X126460301Y-52753626D01*
X126460000Y-52747500D01*
X126460000Y-52622500D01*
X126460301Y-52616374D01*
X126461201Y-52610307D01*
X126462691Y-52604357D01*
X126464758Y-52598582D01*
X126467380Y-52593038D01*
X126470533Y-52587777D01*
X126474187Y-52582850D01*
X126478306Y-52578306D01*
X126482850Y-52574187D01*
X126487777Y-52570533D01*
X126493038Y-52567380D01*
X126498582Y-52564758D01*
X126504357Y-52562691D01*
X126510307Y-52561201D01*
X126516374Y-52560301D01*
X126522500Y-52560000D01*
X127272500Y-52560000D01*
X127278626Y-52560301D01*
X127278626Y-52560301D01*
G37*
D14*
X126897500Y-52685000D03*
D11*
G36*
X127278626Y-53060301D02*
G01*
X127284693Y-53061201D01*
X127290643Y-53062691D01*
X127296418Y-53064758D01*
X127301962Y-53067380D01*
X127307223Y-53070533D01*
X127312150Y-53074187D01*
X127316694Y-53078306D01*
X127320813Y-53082850D01*
X127324467Y-53087777D01*
X127327620Y-53093038D01*
X127330242Y-53098582D01*
X127332309Y-53104357D01*
X127333799Y-53110307D01*
X127334699Y-53116374D01*
X127335000Y-53122500D01*
X127335000Y-53247500D01*
X127334699Y-53253626D01*
X127333799Y-53259693D01*
X127332309Y-53265643D01*
X127330242Y-53271418D01*
X127327620Y-53276962D01*
X127324467Y-53282223D01*
X127320813Y-53287150D01*
X127316694Y-53291694D01*
X127312150Y-53295813D01*
X127307223Y-53299467D01*
X127301962Y-53302620D01*
X127296418Y-53305242D01*
X127290643Y-53307309D01*
X127284693Y-53308799D01*
X127278626Y-53309699D01*
X127272500Y-53310000D01*
X126522500Y-53310000D01*
X126516374Y-53309699D01*
X126510307Y-53308799D01*
X126504357Y-53307309D01*
X126498582Y-53305242D01*
X126493038Y-53302620D01*
X126487777Y-53299467D01*
X126482850Y-53295813D01*
X126478306Y-53291694D01*
X126474187Y-53287150D01*
X126470533Y-53282223D01*
X126467380Y-53276962D01*
X126464758Y-53271418D01*
X126462691Y-53265643D01*
X126461201Y-53259693D01*
X126460301Y-53253626D01*
X126460000Y-53247500D01*
X126460000Y-53122500D01*
X126460301Y-53116374D01*
X126461201Y-53110307D01*
X126462691Y-53104357D01*
X126464758Y-53098582D01*
X126467380Y-53093038D01*
X126470533Y-53087777D01*
X126474187Y-53082850D01*
X126478306Y-53078306D01*
X126482850Y-53074187D01*
X126487777Y-53070533D01*
X126493038Y-53067380D01*
X126498582Y-53064758D01*
X126504357Y-53062691D01*
X126510307Y-53061201D01*
X126516374Y-53060301D01*
X126522500Y-53060000D01*
X127272500Y-53060000D01*
X127278626Y-53060301D01*
X127278626Y-53060301D01*
G37*
D14*
X126897500Y-53185000D03*
D15*
X123185000Y-50160000D03*
D11*
G36*
X122963288Y-49938288D02*
G01*
X123406712Y-49938288D01*
X123406712Y-50205445D01*
X123230445Y-50381712D01*
X122963288Y-50381712D01*
X122963288Y-49938288D01*
X122963288Y-49938288D01*
G37*
D15*
X123185000Y-52710000D03*
D11*
G36*
X122963288Y-52488288D02*
G01*
X123230445Y-52488288D01*
X123406712Y-52664555D01*
X123406712Y-52931712D01*
X122963288Y-52931712D01*
X122963288Y-52488288D01*
X122963288Y-52488288D01*
G37*
D15*
X125735000Y-50160000D03*
D11*
G36*
X125513288Y-50205445D02*
G01*
X125513288Y-49938288D01*
X125956712Y-49938288D01*
X125956712Y-50381712D01*
X125689555Y-50381712D01*
X125513288Y-50205445D01*
X125513288Y-50205445D01*
G37*
D15*
X125735000Y-52710000D03*
D11*
G36*
X125513288Y-52664555D02*
G01*
X125689555Y-52488288D01*
X125956712Y-52488288D01*
X125956712Y-52931712D01*
X125513288Y-52931712D01*
X125513288Y-52664555D01*
X125513288Y-52664555D01*
G37*
D16*
X123960000Y-50160000D03*
D11*
G36*
X123556887Y-50249044D02*
G01*
X123556887Y-49938288D01*
X124363113Y-49938288D01*
X124363113Y-50249044D01*
X124230445Y-50381712D01*
X123689555Y-50381712D01*
X123556887Y-50249044D01*
X123556887Y-50249044D01*
G37*
D16*
X124960000Y-50160000D03*
D11*
G36*
X124556887Y-50249044D02*
G01*
X124556887Y-49938288D01*
X125363113Y-49938288D01*
X125363113Y-50249044D01*
X125230445Y-50381712D01*
X124689555Y-50381712D01*
X124556887Y-50249044D01*
X124556887Y-50249044D01*
G37*
D16*
X123960000Y-52710000D03*
D11*
G36*
X123556887Y-52620956D02*
G01*
X123689555Y-52488288D01*
X124230445Y-52488288D01*
X124363113Y-52620956D01*
X124363113Y-52931712D01*
X123556887Y-52931712D01*
X123556887Y-52620956D01*
X123556887Y-52620956D01*
G37*
D16*
X124960000Y-52710000D03*
D11*
G36*
X124556887Y-52620956D02*
G01*
X124689555Y-52488288D01*
X125230445Y-52488288D01*
X125363113Y-52620956D01*
X125363113Y-52931712D01*
X124556887Y-52931712D01*
X124556887Y-52620956D01*
X124556887Y-52620956D01*
G37*
D16*
X123185000Y-50935000D03*
D11*
G36*
X122963288Y-50531887D02*
G01*
X123274044Y-50531887D01*
X123406712Y-50664555D01*
X123406712Y-51205445D01*
X123274044Y-51338113D01*
X122963288Y-51338113D01*
X122963288Y-50531887D01*
X122963288Y-50531887D01*
G37*
D16*
X123185000Y-51935000D03*
D11*
G36*
X122963288Y-51531887D02*
G01*
X123274044Y-51531887D01*
X123406712Y-51664555D01*
X123406712Y-52205445D01*
X123274044Y-52338113D01*
X122963288Y-52338113D01*
X122963288Y-51531887D01*
X122963288Y-51531887D01*
G37*
D16*
X125735000Y-50935000D03*
D11*
G36*
X125513288Y-51205445D02*
G01*
X125513288Y-50664555D01*
X125645956Y-50531887D01*
X125956712Y-50531887D01*
X125956712Y-51338113D01*
X125645956Y-51338113D01*
X125513288Y-51205445D01*
X125513288Y-51205445D01*
G37*
D16*
X125735000Y-51935000D03*
D11*
G36*
X125513288Y-52205445D02*
G01*
X125513288Y-51664555D01*
X125645956Y-51531887D01*
X125956712Y-51531887D01*
X125956712Y-52338113D01*
X125645956Y-52338113D01*
X125513288Y-52205445D01*
X125513288Y-52205445D01*
G37*
G36*
X124181313Y-50532858D02*
G01*
X124200879Y-50535760D01*
X124220066Y-50540566D01*
X124238689Y-50547230D01*
X124256570Y-50555686D01*
X124273536Y-50565855D01*
X124289423Y-50577638D01*
X124304079Y-50590921D01*
X124317362Y-50605577D01*
X124329145Y-50621464D01*
X124339314Y-50638430D01*
X124347770Y-50656311D01*
X124354434Y-50674934D01*
X124359240Y-50694121D01*
X124362142Y-50713687D01*
X124363113Y-50733443D01*
X124363113Y-51136557D01*
X124362142Y-51156313D01*
X124359240Y-51175879D01*
X124354434Y-51195066D01*
X124347770Y-51213689D01*
X124339314Y-51231570D01*
X124329145Y-51248536D01*
X124317362Y-51264423D01*
X124304079Y-51279079D01*
X124289423Y-51292362D01*
X124273536Y-51304145D01*
X124256570Y-51314314D01*
X124238689Y-51322770D01*
X124220066Y-51329434D01*
X124200879Y-51334240D01*
X124181313Y-51337142D01*
X124161557Y-51338113D01*
X123758443Y-51338113D01*
X123738687Y-51337142D01*
X123719121Y-51334240D01*
X123699934Y-51329434D01*
X123681311Y-51322770D01*
X123663430Y-51314314D01*
X123646464Y-51304145D01*
X123630577Y-51292362D01*
X123615921Y-51279079D01*
X123602638Y-51264423D01*
X123590855Y-51248536D01*
X123580686Y-51231570D01*
X123572230Y-51213689D01*
X123565566Y-51195066D01*
X123560760Y-51175879D01*
X123557858Y-51156313D01*
X123556887Y-51136557D01*
X123556887Y-50733443D01*
X123557858Y-50713687D01*
X123560760Y-50694121D01*
X123565566Y-50674934D01*
X123572230Y-50656311D01*
X123580686Y-50638430D01*
X123590855Y-50621464D01*
X123602638Y-50605577D01*
X123615921Y-50590921D01*
X123630577Y-50577638D01*
X123646464Y-50565855D01*
X123663430Y-50555686D01*
X123681311Y-50547230D01*
X123699934Y-50540566D01*
X123719121Y-50535760D01*
X123738687Y-50532858D01*
X123758443Y-50531887D01*
X124161557Y-50531887D01*
X124181313Y-50532858D01*
X124181313Y-50532858D01*
G37*
D17*
X123960000Y-50935000D03*
D11*
G36*
X124181313Y-51532858D02*
G01*
X124200879Y-51535760D01*
X124220066Y-51540566D01*
X124238689Y-51547230D01*
X124256570Y-51555686D01*
X124273536Y-51565855D01*
X124289423Y-51577638D01*
X124304079Y-51590921D01*
X124317362Y-51605577D01*
X124329145Y-51621464D01*
X124339314Y-51638430D01*
X124347770Y-51656311D01*
X124354434Y-51674934D01*
X124359240Y-51694121D01*
X124362142Y-51713687D01*
X124363113Y-51733443D01*
X124363113Y-52136557D01*
X124362142Y-52156313D01*
X124359240Y-52175879D01*
X124354434Y-52195066D01*
X124347770Y-52213689D01*
X124339314Y-52231570D01*
X124329145Y-52248536D01*
X124317362Y-52264423D01*
X124304079Y-52279079D01*
X124289423Y-52292362D01*
X124273536Y-52304145D01*
X124256570Y-52314314D01*
X124238689Y-52322770D01*
X124220066Y-52329434D01*
X124200879Y-52334240D01*
X124181313Y-52337142D01*
X124161557Y-52338113D01*
X123758443Y-52338113D01*
X123738687Y-52337142D01*
X123719121Y-52334240D01*
X123699934Y-52329434D01*
X123681311Y-52322770D01*
X123663430Y-52314314D01*
X123646464Y-52304145D01*
X123630577Y-52292362D01*
X123615921Y-52279079D01*
X123602638Y-52264423D01*
X123590855Y-52248536D01*
X123580686Y-52231570D01*
X123572230Y-52213689D01*
X123565566Y-52195066D01*
X123560760Y-52175879D01*
X123557858Y-52156313D01*
X123556887Y-52136557D01*
X123556887Y-51733443D01*
X123557858Y-51713687D01*
X123560760Y-51694121D01*
X123565566Y-51674934D01*
X123572230Y-51656311D01*
X123580686Y-51638430D01*
X123590855Y-51621464D01*
X123602638Y-51605577D01*
X123615921Y-51590921D01*
X123630577Y-51577638D01*
X123646464Y-51565855D01*
X123663430Y-51555686D01*
X123681311Y-51547230D01*
X123699934Y-51540566D01*
X123719121Y-51535760D01*
X123738687Y-51532858D01*
X123758443Y-51531887D01*
X124161557Y-51531887D01*
X124181313Y-51532858D01*
X124181313Y-51532858D01*
G37*
D17*
X123960000Y-51935000D03*
D11*
G36*
X125181313Y-50532858D02*
G01*
X125200879Y-50535760D01*
X125220066Y-50540566D01*
X125238689Y-50547230D01*
X125256570Y-50555686D01*
X125273536Y-50565855D01*
X125289423Y-50577638D01*
X125304079Y-50590921D01*
X125317362Y-50605577D01*
X125329145Y-50621464D01*
X125339314Y-50638430D01*
X125347770Y-50656311D01*
X125354434Y-50674934D01*
X125359240Y-50694121D01*
X125362142Y-50713687D01*
X125363113Y-50733443D01*
X125363113Y-51136557D01*
X125362142Y-51156313D01*
X125359240Y-51175879D01*
X125354434Y-51195066D01*
X125347770Y-51213689D01*
X125339314Y-51231570D01*
X125329145Y-51248536D01*
X125317362Y-51264423D01*
X125304079Y-51279079D01*
X125289423Y-51292362D01*
X125273536Y-51304145D01*
X125256570Y-51314314D01*
X125238689Y-51322770D01*
X125220066Y-51329434D01*
X125200879Y-51334240D01*
X125181313Y-51337142D01*
X125161557Y-51338113D01*
X124758443Y-51338113D01*
X124738687Y-51337142D01*
X124719121Y-51334240D01*
X124699934Y-51329434D01*
X124681311Y-51322770D01*
X124663430Y-51314314D01*
X124646464Y-51304145D01*
X124630577Y-51292362D01*
X124615921Y-51279079D01*
X124602638Y-51264423D01*
X124590855Y-51248536D01*
X124580686Y-51231570D01*
X124572230Y-51213689D01*
X124565566Y-51195066D01*
X124560760Y-51175879D01*
X124557858Y-51156313D01*
X124556887Y-51136557D01*
X124556887Y-50733443D01*
X124557858Y-50713687D01*
X124560760Y-50694121D01*
X124565566Y-50674934D01*
X124572230Y-50656311D01*
X124580686Y-50638430D01*
X124590855Y-50621464D01*
X124602638Y-50605577D01*
X124615921Y-50590921D01*
X124630577Y-50577638D01*
X124646464Y-50565855D01*
X124663430Y-50555686D01*
X124681311Y-50547230D01*
X124699934Y-50540566D01*
X124719121Y-50535760D01*
X124738687Y-50532858D01*
X124758443Y-50531887D01*
X125161557Y-50531887D01*
X125181313Y-50532858D01*
X125181313Y-50532858D01*
G37*
D17*
X124960000Y-50935000D03*
D11*
G36*
X125181313Y-51532858D02*
G01*
X125200879Y-51535760D01*
X125220066Y-51540566D01*
X125238689Y-51547230D01*
X125256570Y-51555686D01*
X125273536Y-51565855D01*
X125289423Y-51577638D01*
X125304079Y-51590921D01*
X125317362Y-51605577D01*
X125329145Y-51621464D01*
X125339314Y-51638430D01*
X125347770Y-51656311D01*
X125354434Y-51674934D01*
X125359240Y-51694121D01*
X125362142Y-51713687D01*
X125363113Y-51733443D01*
X125363113Y-52136557D01*
X125362142Y-52156313D01*
X125359240Y-52175879D01*
X125354434Y-52195066D01*
X125347770Y-52213689D01*
X125339314Y-52231570D01*
X125329145Y-52248536D01*
X125317362Y-52264423D01*
X125304079Y-52279079D01*
X125289423Y-52292362D01*
X125273536Y-52304145D01*
X125256570Y-52314314D01*
X125238689Y-52322770D01*
X125220066Y-52329434D01*
X125200879Y-52334240D01*
X125181313Y-52337142D01*
X125161557Y-52338113D01*
X124758443Y-52338113D01*
X124738687Y-52337142D01*
X124719121Y-52334240D01*
X124699934Y-52329434D01*
X124681311Y-52322770D01*
X124663430Y-52314314D01*
X124646464Y-52304145D01*
X124630577Y-52292362D01*
X124615921Y-52279079D01*
X124602638Y-52264423D01*
X124590855Y-52248536D01*
X124580686Y-52231570D01*
X124572230Y-52213689D01*
X124565566Y-52195066D01*
X124560760Y-52175879D01*
X124557858Y-52156313D01*
X124556887Y-52136557D01*
X124556887Y-51733443D01*
X124557858Y-51713687D01*
X124560760Y-51694121D01*
X124565566Y-51674934D01*
X124572230Y-51656311D01*
X124580686Y-51638430D01*
X124590855Y-51621464D01*
X124602638Y-51605577D01*
X124615921Y-51590921D01*
X124630577Y-51577638D01*
X124646464Y-51565855D01*
X124663430Y-51555686D01*
X124681311Y-51547230D01*
X124699934Y-51540566D01*
X124719121Y-51535760D01*
X124738687Y-51532858D01*
X124758443Y-51531887D01*
X125161557Y-51531887D01*
X125181313Y-51532858D01*
X125181313Y-51532858D01*
G37*
D17*
X124960000Y-51935000D03*
D18*
X127410000Y-41645000D03*
X127410000Y-40995000D03*
X127410000Y-40345000D03*
X127410000Y-39695000D03*
X127410000Y-39045000D03*
X127410000Y-38395000D03*
X127410000Y-37745000D03*
X127410000Y-37095000D03*
X121510000Y-37095000D03*
X121510000Y-37745000D03*
X121510000Y-38395000D03*
X121510000Y-39045000D03*
X121510000Y-39695000D03*
X121510000Y-40345000D03*
X121510000Y-40995000D03*
X121510000Y-41645000D03*
D11*
G36*
X115911691Y-45373053D02*
G01*
X115932926Y-45376203D01*
X115953750Y-45381419D01*
X115973962Y-45388651D01*
X115993368Y-45397830D01*
X116011781Y-45408866D01*
X116029024Y-45421654D01*
X116044930Y-45436070D01*
X116059346Y-45451976D01*
X116072134Y-45469219D01*
X116083170Y-45487632D01*
X116092349Y-45507038D01*
X116099581Y-45527250D01*
X116104797Y-45548074D01*
X116107947Y-45569309D01*
X116109000Y-45590750D01*
X116109000Y-46103250D01*
X116107947Y-46124691D01*
X116104797Y-46145926D01*
X116099581Y-46166750D01*
X116092349Y-46186962D01*
X116083170Y-46206368D01*
X116072134Y-46224781D01*
X116059346Y-46242024D01*
X116044930Y-46257930D01*
X116029024Y-46272346D01*
X116011781Y-46285134D01*
X115993368Y-46296170D01*
X115973962Y-46305349D01*
X115953750Y-46312581D01*
X115932926Y-46317797D01*
X115911691Y-46320947D01*
X115890250Y-46322000D01*
X115452750Y-46322000D01*
X115431309Y-46320947D01*
X115410074Y-46317797D01*
X115389250Y-46312581D01*
X115369038Y-46305349D01*
X115349632Y-46296170D01*
X115331219Y-46285134D01*
X115313976Y-46272346D01*
X115298070Y-46257930D01*
X115283654Y-46242024D01*
X115270866Y-46224781D01*
X115259830Y-46206368D01*
X115250651Y-46186962D01*
X115243419Y-46166750D01*
X115238203Y-46145926D01*
X115235053Y-46124691D01*
X115234000Y-46103250D01*
X115234000Y-45590750D01*
X115235053Y-45569309D01*
X115238203Y-45548074D01*
X115243419Y-45527250D01*
X115250651Y-45507038D01*
X115259830Y-45487632D01*
X115270866Y-45469219D01*
X115283654Y-45451976D01*
X115298070Y-45436070D01*
X115313976Y-45421654D01*
X115331219Y-45408866D01*
X115349632Y-45397830D01*
X115369038Y-45388651D01*
X115389250Y-45381419D01*
X115410074Y-45376203D01*
X115431309Y-45373053D01*
X115452750Y-45372000D01*
X115890250Y-45372000D01*
X115911691Y-45373053D01*
X115911691Y-45373053D01*
G37*
D12*
X115671500Y-45847000D03*
D11*
G36*
X117486691Y-45373053D02*
G01*
X117507926Y-45376203D01*
X117528750Y-45381419D01*
X117548962Y-45388651D01*
X117568368Y-45397830D01*
X117586781Y-45408866D01*
X117604024Y-45421654D01*
X117619930Y-45436070D01*
X117634346Y-45451976D01*
X117647134Y-45469219D01*
X117658170Y-45487632D01*
X117667349Y-45507038D01*
X117674581Y-45527250D01*
X117679797Y-45548074D01*
X117682947Y-45569309D01*
X117684000Y-45590750D01*
X117684000Y-46103250D01*
X117682947Y-46124691D01*
X117679797Y-46145926D01*
X117674581Y-46166750D01*
X117667349Y-46186962D01*
X117658170Y-46206368D01*
X117647134Y-46224781D01*
X117634346Y-46242024D01*
X117619930Y-46257930D01*
X117604024Y-46272346D01*
X117586781Y-46285134D01*
X117568368Y-46296170D01*
X117548962Y-46305349D01*
X117528750Y-46312581D01*
X117507926Y-46317797D01*
X117486691Y-46320947D01*
X117465250Y-46322000D01*
X117027750Y-46322000D01*
X117006309Y-46320947D01*
X116985074Y-46317797D01*
X116964250Y-46312581D01*
X116944038Y-46305349D01*
X116924632Y-46296170D01*
X116906219Y-46285134D01*
X116888976Y-46272346D01*
X116873070Y-46257930D01*
X116858654Y-46242024D01*
X116845866Y-46224781D01*
X116834830Y-46206368D01*
X116825651Y-46186962D01*
X116818419Y-46166750D01*
X116813203Y-46145926D01*
X116810053Y-46124691D01*
X116809000Y-46103250D01*
X116809000Y-45590750D01*
X116810053Y-45569309D01*
X116813203Y-45548074D01*
X116818419Y-45527250D01*
X116825651Y-45507038D01*
X116834830Y-45487632D01*
X116845866Y-45469219D01*
X116858654Y-45451976D01*
X116873070Y-45436070D01*
X116888976Y-45421654D01*
X116906219Y-45408866D01*
X116924632Y-45397830D01*
X116944038Y-45388651D01*
X116964250Y-45381419D01*
X116985074Y-45376203D01*
X117006309Y-45373053D01*
X117027750Y-45372000D01*
X117465250Y-45372000D01*
X117486691Y-45373053D01*
X117486691Y-45373053D01*
G37*
D12*
X117246500Y-45847000D03*
D11*
G36*
X117486691Y-49564053D02*
G01*
X117507926Y-49567203D01*
X117528750Y-49572419D01*
X117548962Y-49579651D01*
X117568368Y-49588830D01*
X117586781Y-49599866D01*
X117604024Y-49612654D01*
X117619930Y-49627070D01*
X117634346Y-49642976D01*
X117647134Y-49660219D01*
X117658170Y-49678632D01*
X117667349Y-49698038D01*
X117674581Y-49718250D01*
X117679797Y-49739074D01*
X117682947Y-49760309D01*
X117684000Y-49781750D01*
X117684000Y-50294250D01*
X117682947Y-50315691D01*
X117679797Y-50336926D01*
X117674581Y-50357750D01*
X117667349Y-50377962D01*
X117658170Y-50397368D01*
X117647134Y-50415781D01*
X117634346Y-50433024D01*
X117619930Y-50448930D01*
X117604024Y-50463346D01*
X117586781Y-50476134D01*
X117568368Y-50487170D01*
X117548962Y-50496349D01*
X117528750Y-50503581D01*
X117507926Y-50508797D01*
X117486691Y-50511947D01*
X117465250Y-50513000D01*
X117027750Y-50513000D01*
X117006309Y-50511947D01*
X116985074Y-50508797D01*
X116964250Y-50503581D01*
X116944038Y-50496349D01*
X116924632Y-50487170D01*
X116906219Y-50476134D01*
X116888976Y-50463346D01*
X116873070Y-50448930D01*
X116858654Y-50433024D01*
X116845866Y-50415781D01*
X116834830Y-50397368D01*
X116825651Y-50377962D01*
X116818419Y-50357750D01*
X116813203Y-50336926D01*
X116810053Y-50315691D01*
X116809000Y-50294250D01*
X116809000Y-49781750D01*
X116810053Y-49760309D01*
X116813203Y-49739074D01*
X116818419Y-49718250D01*
X116825651Y-49698038D01*
X116834830Y-49678632D01*
X116845866Y-49660219D01*
X116858654Y-49642976D01*
X116873070Y-49627070D01*
X116888976Y-49612654D01*
X116906219Y-49599866D01*
X116924632Y-49588830D01*
X116944038Y-49579651D01*
X116964250Y-49572419D01*
X116985074Y-49567203D01*
X117006309Y-49564053D01*
X117027750Y-49563000D01*
X117465250Y-49563000D01*
X117486691Y-49564053D01*
X117486691Y-49564053D01*
G37*
D12*
X117246500Y-50038000D03*
D11*
G36*
X115911691Y-49564053D02*
G01*
X115932926Y-49567203D01*
X115953750Y-49572419D01*
X115973962Y-49579651D01*
X115993368Y-49588830D01*
X116011781Y-49599866D01*
X116029024Y-49612654D01*
X116044930Y-49627070D01*
X116059346Y-49642976D01*
X116072134Y-49660219D01*
X116083170Y-49678632D01*
X116092349Y-49698038D01*
X116099581Y-49718250D01*
X116104797Y-49739074D01*
X116107947Y-49760309D01*
X116109000Y-49781750D01*
X116109000Y-50294250D01*
X116107947Y-50315691D01*
X116104797Y-50336926D01*
X116099581Y-50357750D01*
X116092349Y-50377962D01*
X116083170Y-50397368D01*
X116072134Y-50415781D01*
X116059346Y-50433024D01*
X116044930Y-50448930D01*
X116029024Y-50463346D01*
X116011781Y-50476134D01*
X115993368Y-50487170D01*
X115973962Y-50496349D01*
X115953750Y-50503581D01*
X115932926Y-50508797D01*
X115911691Y-50511947D01*
X115890250Y-50513000D01*
X115452750Y-50513000D01*
X115431309Y-50511947D01*
X115410074Y-50508797D01*
X115389250Y-50503581D01*
X115369038Y-50496349D01*
X115349632Y-50487170D01*
X115331219Y-50476134D01*
X115313976Y-50463346D01*
X115298070Y-50448930D01*
X115283654Y-50433024D01*
X115270866Y-50415781D01*
X115259830Y-50397368D01*
X115250651Y-50377962D01*
X115243419Y-50357750D01*
X115238203Y-50336926D01*
X115235053Y-50315691D01*
X115234000Y-50294250D01*
X115234000Y-49781750D01*
X115235053Y-49760309D01*
X115238203Y-49739074D01*
X115243419Y-49718250D01*
X115250651Y-49698038D01*
X115259830Y-49678632D01*
X115270866Y-49660219D01*
X115283654Y-49642976D01*
X115298070Y-49627070D01*
X115313976Y-49612654D01*
X115331219Y-49599866D01*
X115349632Y-49588830D01*
X115369038Y-49579651D01*
X115389250Y-49572419D01*
X115410074Y-49567203D01*
X115431309Y-49564053D01*
X115452750Y-49563000D01*
X115890250Y-49563000D01*
X115911691Y-49564053D01*
X115911691Y-49564053D01*
G37*
D12*
X115671500Y-50038000D03*
D11*
G36*
X132040691Y-39658053D02*
G01*
X132061926Y-39661203D01*
X132082750Y-39666419D01*
X132102962Y-39673651D01*
X132122368Y-39682830D01*
X132140781Y-39693866D01*
X132158024Y-39706654D01*
X132173930Y-39721070D01*
X132188346Y-39736976D01*
X132201134Y-39754219D01*
X132212170Y-39772632D01*
X132221349Y-39792038D01*
X132228581Y-39812250D01*
X132233797Y-39833074D01*
X132236947Y-39854309D01*
X132238000Y-39875750D01*
X132238000Y-40388250D01*
X132236947Y-40409691D01*
X132233797Y-40430926D01*
X132228581Y-40451750D01*
X132221349Y-40471962D01*
X132212170Y-40491368D01*
X132201134Y-40509781D01*
X132188346Y-40527024D01*
X132173930Y-40542930D01*
X132158024Y-40557346D01*
X132140781Y-40570134D01*
X132122368Y-40581170D01*
X132102962Y-40590349D01*
X132082750Y-40597581D01*
X132061926Y-40602797D01*
X132040691Y-40605947D01*
X132019250Y-40607000D01*
X131581750Y-40607000D01*
X131560309Y-40605947D01*
X131539074Y-40602797D01*
X131518250Y-40597581D01*
X131498038Y-40590349D01*
X131478632Y-40581170D01*
X131460219Y-40570134D01*
X131442976Y-40557346D01*
X131427070Y-40542930D01*
X131412654Y-40527024D01*
X131399866Y-40509781D01*
X131388830Y-40491368D01*
X131379651Y-40471962D01*
X131372419Y-40451750D01*
X131367203Y-40430926D01*
X131364053Y-40409691D01*
X131363000Y-40388250D01*
X131363000Y-39875750D01*
X131364053Y-39854309D01*
X131367203Y-39833074D01*
X131372419Y-39812250D01*
X131379651Y-39792038D01*
X131388830Y-39772632D01*
X131399866Y-39754219D01*
X131412654Y-39736976D01*
X131427070Y-39721070D01*
X131442976Y-39706654D01*
X131460219Y-39693866D01*
X131478632Y-39682830D01*
X131498038Y-39673651D01*
X131518250Y-39666419D01*
X131539074Y-39661203D01*
X131560309Y-39658053D01*
X131581750Y-39657000D01*
X132019250Y-39657000D01*
X132040691Y-39658053D01*
X132040691Y-39658053D01*
G37*
D12*
X131800500Y-40132000D03*
D11*
G36*
X133615691Y-39658053D02*
G01*
X133636926Y-39661203D01*
X133657750Y-39666419D01*
X133677962Y-39673651D01*
X133697368Y-39682830D01*
X133715781Y-39693866D01*
X133733024Y-39706654D01*
X133748930Y-39721070D01*
X133763346Y-39736976D01*
X133776134Y-39754219D01*
X133787170Y-39772632D01*
X133796349Y-39792038D01*
X133803581Y-39812250D01*
X133808797Y-39833074D01*
X133811947Y-39854309D01*
X133813000Y-39875750D01*
X133813000Y-40388250D01*
X133811947Y-40409691D01*
X133808797Y-40430926D01*
X133803581Y-40451750D01*
X133796349Y-40471962D01*
X133787170Y-40491368D01*
X133776134Y-40509781D01*
X133763346Y-40527024D01*
X133748930Y-40542930D01*
X133733024Y-40557346D01*
X133715781Y-40570134D01*
X133697368Y-40581170D01*
X133677962Y-40590349D01*
X133657750Y-40597581D01*
X133636926Y-40602797D01*
X133615691Y-40605947D01*
X133594250Y-40607000D01*
X133156750Y-40607000D01*
X133135309Y-40605947D01*
X133114074Y-40602797D01*
X133093250Y-40597581D01*
X133073038Y-40590349D01*
X133053632Y-40581170D01*
X133035219Y-40570134D01*
X133017976Y-40557346D01*
X133002070Y-40542930D01*
X132987654Y-40527024D01*
X132974866Y-40509781D01*
X132963830Y-40491368D01*
X132954651Y-40471962D01*
X132947419Y-40451750D01*
X132942203Y-40430926D01*
X132939053Y-40409691D01*
X132938000Y-40388250D01*
X132938000Y-39875750D01*
X132939053Y-39854309D01*
X132942203Y-39833074D01*
X132947419Y-39812250D01*
X132954651Y-39792038D01*
X132963830Y-39772632D01*
X132974866Y-39754219D01*
X132987654Y-39736976D01*
X133002070Y-39721070D01*
X133017976Y-39706654D01*
X133035219Y-39693866D01*
X133053632Y-39682830D01*
X133073038Y-39673651D01*
X133093250Y-39666419D01*
X133114074Y-39661203D01*
X133135309Y-39658053D01*
X133156750Y-39657000D01*
X133594250Y-39657000D01*
X133615691Y-39658053D01*
X133615691Y-39658053D01*
G37*
D12*
X133375500Y-40132000D03*
M02*
