G04 #@! TF.GenerationSoftware,KiCad,Pcbnew,5.1.2*
G04 #@! TF.CreationDate,2019-05-07T22:25:54+02:00*
G04 #@! TF.ProjectId,SX1257_pmod,53583132-3537-45f7-906d-6f642e6b6963,rev?*
G04 #@! TF.SameCoordinates,Original*
G04 #@! TF.FileFunction,Soldermask,Top*
G04 #@! TF.FilePolarity,Negative*
%FSLAX46Y46*%
G04 Gerber Fmt 4.6, Leading zero omitted, Abs format (unit mm)*
G04 Created by KiCad (PCBNEW 5.1.2) date 2019-05-07 22:25:54*
%MOMM*%
%LPD*%
G04 APERTURE LIST*
%ADD10C,0.100000*%
G04 APERTURE END LIST*
D10*
G36*
X121717000Y-68064000D02*
G01*
X120091000Y-68064000D01*
X120091000Y-63162000D01*
X121717000Y-63162000D01*
X121717000Y-68064000D01*
X121717000Y-68064000D01*
G37*
G36*
X131369000Y-68064000D02*
G01*
X129743000Y-68064000D01*
X129743000Y-63162000D01*
X131369000Y-63162000D01*
X131369000Y-68064000D01*
X131369000Y-68064000D01*
G37*
G36*
X133909000Y-68064000D02*
G01*
X132283000Y-68064000D01*
X132283000Y-63162000D01*
X133909000Y-63162000D01*
X133909000Y-68064000D01*
X133909000Y-68064000D01*
G37*
G36*
X128829000Y-68064000D02*
G01*
X127203000Y-68064000D01*
X127203000Y-63162000D01*
X128829000Y-63162000D01*
X128829000Y-68064000D01*
X128829000Y-68064000D01*
G37*
G36*
X116637000Y-68064000D02*
G01*
X115011000Y-68064000D01*
X115011000Y-63162000D01*
X116637000Y-63162000D01*
X116637000Y-68064000D01*
X116637000Y-68064000D01*
G37*
G36*
X119177000Y-68064000D02*
G01*
X117551000Y-68064000D01*
X117551000Y-63162000D01*
X119177000Y-63162000D01*
X119177000Y-68064000D01*
X119177000Y-68064000D01*
G37*
G36*
X129919591Y-59966085D02*
G01*
X129953569Y-59976393D01*
X129984890Y-59993134D01*
X130012339Y-60015661D01*
X130034866Y-60043110D01*
X130051607Y-60074431D01*
X130061915Y-60108409D01*
X130066000Y-60149890D01*
X130066000Y-60751110D01*
X130061915Y-60792591D01*
X130051607Y-60826569D01*
X130034866Y-60857890D01*
X130012339Y-60885339D01*
X129984890Y-60907866D01*
X129953569Y-60924607D01*
X129919591Y-60934915D01*
X129878110Y-60939000D01*
X129201890Y-60939000D01*
X129160409Y-60934915D01*
X129126431Y-60924607D01*
X129095110Y-60907866D01*
X129067661Y-60885339D01*
X129045134Y-60857890D01*
X129028393Y-60826569D01*
X129018085Y-60792591D01*
X129014000Y-60751110D01*
X129014000Y-60149890D01*
X129018085Y-60108409D01*
X129028393Y-60074431D01*
X129045134Y-60043110D01*
X129067661Y-60015661D01*
X129095110Y-59993134D01*
X129126431Y-59976393D01*
X129160409Y-59966085D01*
X129201890Y-59962000D01*
X129878110Y-59962000D01*
X129919591Y-59966085D01*
X129919591Y-59966085D01*
G37*
G36*
X119061591Y-59803085D02*
G01*
X119095569Y-59813393D01*
X119126890Y-59830134D01*
X119154339Y-59852661D01*
X119176866Y-59880110D01*
X119193607Y-59911431D01*
X119203915Y-59945409D01*
X119208000Y-59986890D01*
X119208000Y-60663110D01*
X119203915Y-60704591D01*
X119193607Y-60738569D01*
X119176866Y-60769890D01*
X119154339Y-60797339D01*
X119126890Y-60819866D01*
X119095569Y-60836607D01*
X119061591Y-60846915D01*
X119020110Y-60851000D01*
X118418890Y-60851000D01*
X118377409Y-60846915D01*
X118343431Y-60836607D01*
X118312110Y-60819866D01*
X118284661Y-60797339D01*
X118262134Y-60769890D01*
X118245393Y-60738569D01*
X118235085Y-60704591D01*
X118231000Y-60663110D01*
X118231000Y-59986890D01*
X118235085Y-59945409D01*
X118245393Y-59911431D01*
X118262134Y-59880110D01*
X118284661Y-59852661D01*
X118312110Y-59830134D01*
X118343431Y-59813393D01*
X118377409Y-59803085D01*
X118418890Y-59799000D01*
X119020110Y-59799000D01*
X119061591Y-59803085D01*
X119061591Y-59803085D01*
G37*
G36*
X120636591Y-59803085D02*
G01*
X120670569Y-59813393D01*
X120701890Y-59830134D01*
X120729339Y-59852661D01*
X120751866Y-59880110D01*
X120768607Y-59911431D01*
X120778915Y-59945409D01*
X120783000Y-59986890D01*
X120783000Y-60663110D01*
X120778915Y-60704591D01*
X120768607Y-60738569D01*
X120751866Y-60769890D01*
X120729339Y-60797339D01*
X120701890Y-60819866D01*
X120670569Y-60836607D01*
X120636591Y-60846915D01*
X120595110Y-60851000D01*
X119993890Y-60851000D01*
X119952409Y-60846915D01*
X119918431Y-60836607D01*
X119887110Y-60819866D01*
X119859661Y-60797339D01*
X119837134Y-60769890D01*
X119820393Y-60738569D01*
X119810085Y-60704591D01*
X119806000Y-60663110D01*
X119806000Y-59986890D01*
X119810085Y-59945409D01*
X119820393Y-59911431D01*
X119837134Y-59880110D01*
X119859661Y-59852661D01*
X119887110Y-59830134D01*
X119918431Y-59813393D01*
X119952409Y-59803085D01*
X119993890Y-59799000D01*
X120595110Y-59799000D01*
X120636591Y-59803085D01*
X120636591Y-59803085D01*
G37*
G36*
X117600591Y-59866085D02*
G01*
X117634569Y-59876393D01*
X117665890Y-59893134D01*
X117693339Y-59915661D01*
X117715866Y-59943110D01*
X117732607Y-59974431D01*
X117742915Y-60008409D01*
X117747000Y-60049890D01*
X117747000Y-60651110D01*
X117742915Y-60692591D01*
X117732607Y-60726569D01*
X117715866Y-60757890D01*
X117693339Y-60785339D01*
X117665890Y-60807866D01*
X117634569Y-60824607D01*
X117600591Y-60834915D01*
X117559110Y-60839000D01*
X116882890Y-60839000D01*
X116841409Y-60834915D01*
X116807431Y-60824607D01*
X116776110Y-60807866D01*
X116748661Y-60785339D01*
X116726134Y-60757890D01*
X116709393Y-60726569D01*
X116699085Y-60692591D01*
X116695000Y-60651110D01*
X116695000Y-60049890D01*
X116699085Y-60008409D01*
X116709393Y-59974431D01*
X116726134Y-59943110D01*
X116748661Y-59915661D01*
X116776110Y-59893134D01*
X116807431Y-59876393D01*
X116841409Y-59866085D01*
X116882890Y-59862000D01*
X117559110Y-59862000D01*
X117600591Y-59866085D01*
X117600591Y-59866085D01*
G37*
G36*
X116076591Y-59840585D02*
G01*
X116110569Y-59850893D01*
X116141890Y-59867634D01*
X116169339Y-59890161D01*
X116191866Y-59917610D01*
X116208607Y-59948931D01*
X116218915Y-59982909D01*
X116223000Y-60024390D01*
X116223000Y-60625610D01*
X116218915Y-60667091D01*
X116208607Y-60701069D01*
X116191866Y-60732390D01*
X116169339Y-60759839D01*
X116141890Y-60782366D01*
X116110569Y-60799107D01*
X116076591Y-60809415D01*
X116035110Y-60813500D01*
X115358890Y-60813500D01*
X115317409Y-60809415D01*
X115283431Y-60799107D01*
X115252110Y-60782366D01*
X115224661Y-60759839D01*
X115202134Y-60732390D01*
X115185393Y-60701069D01*
X115175085Y-60667091D01*
X115171000Y-60625610D01*
X115171000Y-60024390D01*
X115175085Y-59982909D01*
X115185393Y-59948931D01*
X115202134Y-59917610D01*
X115224661Y-59890161D01*
X115252110Y-59867634D01*
X115283431Y-59850893D01*
X115317409Y-59840585D01*
X115358890Y-59836500D01*
X116035110Y-59836500D01*
X116076591Y-59840585D01*
X116076591Y-59840585D01*
G37*
G36*
X126879591Y-58403085D02*
G01*
X126913569Y-58413393D01*
X126944890Y-58430134D01*
X126972339Y-58452661D01*
X126994866Y-58480110D01*
X127011607Y-58511431D01*
X127021915Y-58545409D01*
X127026000Y-58586890D01*
X127026000Y-59263110D01*
X127021915Y-59304591D01*
X127011607Y-59338569D01*
X126994866Y-59369890D01*
X126972339Y-59397339D01*
X126944890Y-59419866D01*
X126913569Y-59436607D01*
X126879591Y-59446915D01*
X126838110Y-59451000D01*
X126236890Y-59451000D01*
X126195409Y-59446915D01*
X126161431Y-59436607D01*
X126130110Y-59419866D01*
X126102661Y-59397339D01*
X126080134Y-59369890D01*
X126063393Y-59338569D01*
X126053085Y-59304591D01*
X126049000Y-59263110D01*
X126049000Y-58586890D01*
X126053085Y-58545409D01*
X126063393Y-58511431D01*
X126080134Y-58480110D01*
X126102661Y-58452661D01*
X126130110Y-58430134D01*
X126161431Y-58413393D01*
X126195409Y-58403085D01*
X126236890Y-58399000D01*
X126838110Y-58399000D01*
X126879591Y-58403085D01*
X126879591Y-58403085D01*
G37*
G36*
X125304591Y-58403085D02*
G01*
X125338569Y-58413393D01*
X125369890Y-58430134D01*
X125397339Y-58452661D01*
X125419866Y-58480110D01*
X125436607Y-58511431D01*
X125446915Y-58545409D01*
X125451000Y-58586890D01*
X125451000Y-59263110D01*
X125446915Y-59304591D01*
X125436607Y-59338569D01*
X125419866Y-59369890D01*
X125397339Y-59397339D01*
X125369890Y-59419866D01*
X125338569Y-59436607D01*
X125304591Y-59446915D01*
X125263110Y-59451000D01*
X124661890Y-59451000D01*
X124620409Y-59446915D01*
X124586431Y-59436607D01*
X124555110Y-59419866D01*
X124527661Y-59397339D01*
X124505134Y-59369890D01*
X124488393Y-59338569D01*
X124478085Y-59304591D01*
X124474000Y-59263110D01*
X124474000Y-58586890D01*
X124478085Y-58545409D01*
X124488393Y-58511431D01*
X124505134Y-58480110D01*
X124527661Y-58452661D01*
X124555110Y-58430134D01*
X124586431Y-58413393D01*
X124620409Y-58403085D01*
X124661890Y-58399000D01*
X125263110Y-58399000D01*
X125304591Y-58403085D01*
X125304591Y-58403085D01*
G37*
G36*
X129919591Y-58391085D02*
G01*
X129953569Y-58401393D01*
X129984890Y-58418134D01*
X130012339Y-58440661D01*
X130034866Y-58468110D01*
X130051607Y-58499431D01*
X130061915Y-58533409D01*
X130066000Y-58574890D01*
X130066000Y-59176110D01*
X130061915Y-59217591D01*
X130051607Y-59251569D01*
X130034866Y-59282890D01*
X130012339Y-59310339D01*
X129984890Y-59332866D01*
X129953569Y-59349607D01*
X129919591Y-59359915D01*
X129878110Y-59364000D01*
X129201890Y-59364000D01*
X129160409Y-59359915D01*
X129126431Y-59349607D01*
X129095110Y-59332866D01*
X129067661Y-59310339D01*
X129045134Y-59282890D01*
X129028393Y-59251569D01*
X129018085Y-59217591D01*
X129014000Y-59176110D01*
X129014000Y-58574890D01*
X129018085Y-58533409D01*
X129028393Y-58499431D01*
X129045134Y-58468110D01*
X129067661Y-58440661D01*
X129095110Y-58418134D01*
X129126431Y-58401393D01*
X129160409Y-58391085D01*
X129201890Y-58387000D01*
X129878110Y-58387000D01*
X129919591Y-58391085D01*
X129919591Y-58391085D01*
G37*
G36*
X120648591Y-58342085D02*
G01*
X120682569Y-58352393D01*
X120713890Y-58369134D01*
X120741339Y-58391661D01*
X120763866Y-58419110D01*
X120780607Y-58450431D01*
X120790915Y-58484409D01*
X120795000Y-58525890D01*
X120795000Y-59127110D01*
X120790915Y-59168591D01*
X120780607Y-59202569D01*
X120763866Y-59233890D01*
X120741339Y-59261339D01*
X120713890Y-59283866D01*
X120682569Y-59300607D01*
X120648591Y-59310915D01*
X120607110Y-59315000D01*
X119930890Y-59315000D01*
X119889409Y-59310915D01*
X119855431Y-59300607D01*
X119824110Y-59283866D01*
X119796661Y-59261339D01*
X119774134Y-59233890D01*
X119757393Y-59202569D01*
X119747085Y-59168591D01*
X119743000Y-59127110D01*
X119743000Y-58525890D01*
X119747085Y-58484409D01*
X119757393Y-58450431D01*
X119774134Y-58419110D01*
X119796661Y-58391661D01*
X119824110Y-58369134D01*
X119855431Y-58352393D01*
X119889409Y-58342085D01*
X119930890Y-58338000D01*
X120607110Y-58338000D01*
X120648591Y-58342085D01*
X120648591Y-58342085D01*
G37*
G36*
X117600591Y-58291085D02*
G01*
X117634569Y-58301393D01*
X117665890Y-58318134D01*
X117693339Y-58340661D01*
X117715866Y-58368110D01*
X117732607Y-58399431D01*
X117742915Y-58433409D01*
X117747000Y-58474890D01*
X117747000Y-59076110D01*
X117742915Y-59117591D01*
X117732607Y-59151569D01*
X117715866Y-59182890D01*
X117693339Y-59210339D01*
X117665890Y-59232866D01*
X117634569Y-59249607D01*
X117600591Y-59259915D01*
X117559110Y-59264000D01*
X116882890Y-59264000D01*
X116841409Y-59259915D01*
X116807431Y-59249607D01*
X116776110Y-59232866D01*
X116748661Y-59210339D01*
X116726134Y-59182890D01*
X116709393Y-59151569D01*
X116699085Y-59117591D01*
X116695000Y-59076110D01*
X116695000Y-58474890D01*
X116699085Y-58433409D01*
X116709393Y-58399431D01*
X116726134Y-58368110D01*
X116748661Y-58340661D01*
X116776110Y-58318134D01*
X116807431Y-58301393D01*
X116841409Y-58291085D01*
X116882890Y-58287000D01*
X117559110Y-58287000D01*
X117600591Y-58291085D01*
X117600591Y-58291085D01*
G37*
G36*
X116076591Y-58265585D02*
G01*
X116110569Y-58275893D01*
X116141890Y-58292634D01*
X116169339Y-58315161D01*
X116191866Y-58342610D01*
X116208607Y-58373931D01*
X116218915Y-58407909D01*
X116223000Y-58449390D01*
X116223000Y-59050610D01*
X116218915Y-59092091D01*
X116208607Y-59126069D01*
X116191866Y-59157390D01*
X116169339Y-59184839D01*
X116141890Y-59207366D01*
X116110569Y-59224107D01*
X116076591Y-59234415D01*
X116035110Y-59238500D01*
X115358890Y-59238500D01*
X115317409Y-59234415D01*
X115283431Y-59224107D01*
X115252110Y-59207366D01*
X115224661Y-59184839D01*
X115202134Y-59157390D01*
X115185393Y-59126069D01*
X115175085Y-59092091D01*
X115171000Y-59050610D01*
X115171000Y-58449390D01*
X115175085Y-58407909D01*
X115185393Y-58373931D01*
X115202134Y-58342610D01*
X115224661Y-58315161D01*
X115252110Y-58292634D01*
X115283431Y-58275893D01*
X115317409Y-58265585D01*
X115358890Y-58261500D01*
X116035110Y-58261500D01*
X116076591Y-58265585D01*
X116076591Y-58265585D01*
G37*
G36*
X125335591Y-56855085D02*
G01*
X125369569Y-56865393D01*
X125400890Y-56882134D01*
X125428339Y-56904661D01*
X125450866Y-56932110D01*
X125467607Y-56963431D01*
X125477915Y-56997409D01*
X125482000Y-57038890D01*
X125482000Y-57715110D01*
X125477915Y-57756591D01*
X125467607Y-57790569D01*
X125450866Y-57821890D01*
X125428339Y-57849339D01*
X125400890Y-57871866D01*
X125369569Y-57888607D01*
X125335591Y-57898915D01*
X125294110Y-57903000D01*
X124692890Y-57903000D01*
X124651409Y-57898915D01*
X124617431Y-57888607D01*
X124586110Y-57871866D01*
X124558661Y-57849339D01*
X124536134Y-57821890D01*
X124519393Y-57790569D01*
X124509085Y-57756591D01*
X124505000Y-57715110D01*
X124505000Y-57038890D01*
X124509085Y-56997409D01*
X124519393Y-56963431D01*
X124536134Y-56932110D01*
X124558661Y-56904661D01*
X124586110Y-56882134D01*
X124617431Y-56865393D01*
X124651409Y-56855085D01*
X124692890Y-56851000D01*
X125294110Y-56851000D01*
X125335591Y-56855085D01*
X125335591Y-56855085D01*
G37*
G36*
X131431591Y-56855085D02*
G01*
X131465569Y-56865393D01*
X131496890Y-56882134D01*
X131524339Y-56904661D01*
X131546866Y-56932110D01*
X131563607Y-56963431D01*
X131573915Y-56997409D01*
X131578000Y-57038890D01*
X131578000Y-57715110D01*
X131573915Y-57756591D01*
X131563607Y-57790569D01*
X131546866Y-57821890D01*
X131524339Y-57849339D01*
X131496890Y-57871866D01*
X131465569Y-57888607D01*
X131431591Y-57898915D01*
X131390110Y-57903000D01*
X130788890Y-57903000D01*
X130747409Y-57898915D01*
X130713431Y-57888607D01*
X130682110Y-57871866D01*
X130654661Y-57849339D01*
X130632134Y-57821890D01*
X130615393Y-57790569D01*
X130605085Y-57756591D01*
X130601000Y-57715110D01*
X130601000Y-57038890D01*
X130605085Y-56997409D01*
X130615393Y-56963431D01*
X130632134Y-56932110D01*
X130654661Y-56904661D01*
X130682110Y-56882134D01*
X130713431Y-56865393D01*
X130747409Y-56855085D01*
X130788890Y-56851000D01*
X131390110Y-56851000D01*
X131431591Y-56855085D01*
X131431591Y-56855085D01*
G37*
G36*
X129856591Y-56855085D02*
G01*
X129890569Y-56865393D01*
X129921890Y-56882134D01*
X129949339Y-56904661D01*
X129971866Y-56932110D01*
X129988607Y-56963431D01*
X129998915Y-56997409D01*
X130003000Y-57038890D01*
X130003000Y-57715110D01*
X129998915Y-57756591D01*
X129988607Y-57790569D01*
X129971866Y-57821890D01*
X129949339Y-57849339D01*
X129921890Y-57871866D01*
X129890569Y-57888607D01*
X129856591Y-57898915D01*
X129815110Y-57903000D01*
X129213890Y-57903000D01*
X129172409Y-57898915D01*
X129138431Y-57888607D01*
X129107110Y-57871866D01*
X129079661Y-57849339D01*
X129057134Y-57821890D01*
X129040393Y-57790569D01*
X129030085Y-57756591D01*
X129026000Y-57715110D01*
X129026000Y-57038890D01*
X129030085Y-56997409D01*
X129040393Y-56963431D01*
X129057134Y-56932110D01*
X129079661Y-56904661D01*
X129107110Y-56882134D01*
X129138431Y-56865393D01*
X129172409Y-56855085D01*
X129213890Y-56851000D01*
X129815110Y-56851000D01*
X129856591Y-56855085D01*
X129856591Y-56855085D01*
G37*
G36*
X128409091Y-56855085D02*
G01*
X128443069Y-56865393D01*
X128474390Y-56882134D01*
X128501839Y-56904661D01*
X128524366Y-56932110D01*
X128541107Y-56963431D01*
X128551415Y-56997409D01*
X128555500Y-57038890D01*
X128555500Y-57715110D01*
X128551415Y-57756591D01*
X128541107Y-57790569D01*
X128524366Y-57821890D01*
X128501839Y-57849339D01*
X128474390Y-57871866D01*
X128443069Y-57888607D01*
X128409091Y-57898915D01*
X128367610Y-57903000D01*
X127766390Y-57903000D01*
X127724909Y-57898915D01*
X127690931Y-57888607D01*
X127659610Y-57871866D01*
X127632161Y-57849339D01*
X127609634Y-57821890D01*
X127592893Y-57790569D01*
X127582585Y-57756591D01*
X127578500Y-57715110D01*
X127578500Y-57038890D01*
X127582585Y-56997409D01*
X127592893Y-56963431D01*
X127609634Y-56932110D01*
X127632161Y-56904661D01*
X127659610Y-56882134D01*
X127690931Y-56865393D01*
X127724909Y-56855085D01*
X127766390Y-56851000D01*
X128367610Y-56851000D01*
X128409091Y-56855085D01*
X128409091Y-56855085D01*
G37*
G36*
X126834091Y-56855085D02*
G01*
X126868069Y-56865393D01*
X126899390Y-56882134D01*
X126926839Y-56904661D01*
X126949366Y-56932110D01*
X126966107Y-56963431D01*
X126976415Y-56997409D01*
X126980500Y-57038890D01*
X126980500Y-57715110D01*
X126976415Y-57756591D01*
X126966107Y-57790569D01*
X126949366Y-57821890D01*
X126926839Y-57849339D01*
X126899390Y-57871866D01*
X126868069Y-57888607D01*
X126834091Y-57898915D01*
X126792610Y-57903000D01*
X126191390Y-57903000D01*
X126149909Y-57898915D01*
X126115931Y-57888607D01*
X126084610Y-57871866D01*
X126057161Y-57849339D01*
X126034634Y-57821890D01*
X126017893Y-57790569D01*
X126007585Y-57756591D01*
X126003500Y-57715110D01*
X126003500Y-57038890D01*
X126007585Y-56997409D01*
X126017893Y-56963431D01*
X126034634Y-56932110D01*
X126057161Y-56904661D01*
X126084610Y-56882134D01*
X126115931Y-56865393D01*
X126149909Y-56855085D01*
X126191390Y-56851000D01*
X126792610Y-56851000D01*
X126834091Y-56855085D01*
X126834091Y-56855085D01*
G37*
G36*
X123760591Y-56855085D02*
G01*
X123794569Y-56865393D01*
X123825890Y-56882134D01*
X123853339Y-56904661D01*
X123875866Y-56932110D01*
X123892607Y-56963431D01*
X123902915Y-56997409D01*
X123907000Y-57038890D01*
X123907000Y-57715110D01*
X123902915Y-57756591D01*
X123892607Y-57790569D01*
X123875866Y-57821890D01*
X123853339Y-57849339D01*
X123825890Y-57871866D01*
X123794569Y-57888607D01*
X123760591Y-57898915D01*
X123719110Y-57903000D01*
X123117890Y-57903000D01*
X123076409Y-57898915D01*
X123042431Y-57888607D01*
X123011110Y-57871866D01*
X122983661Y-57849339D01*
X122961134Y-57821890D01*
X122944393Y-57790569D01*
X122934085Y-57756591D01*
X122930000Y-57715110D01*
X122930000Y-57038890D01*
X122934085Y-56997409D01*
X122944393Y-56963431D01*
X122961134Y-56932110D01*
X122983661Y-56904661D01*
X123011110Y-56882134D01*
X123042431Y-56865393D01*
X123076409Y-56855085D01*
X123117890Y-56851000D01*
X123719110Y-56851000D01*
X123760591Y-56855085D01*
X123760591Y-56855085D01*
G37*
G36*
X117537591Y-56755085D02*
G01*
X117571569Y-56765393D01*
X117602890Y-56782134D01*
X117630339Y-56804661D01*
X117652866Y-56832110D01*
X117669607Y-56863431D01*
X117679915Y-56897409D01*
X117684000Y-56938890D01*
X117684000Y-57615110D01*
X117679915Y-57656591D01*
X117669607Y-57690569D01*
X117652866Y-57721890D01*
X117630339Y-57749339D01*
X117602890Y-57771866D01*
X117571569Y-57788607D01*
X117537591Y-57798915D01*
X117496110Y-57803000D01*
X116894890Y-57803000D01*
X116853409Y-57798915D01*
X116819431Y-57788607D01*
X116788110Y-57771866D01*
X116760661Y-57749339D01*
X116738134Y-57721890D01*
X116721393Y-57690569D01*
X116711085Y-57656591D01*
X116707000Y-57615110D01*
X116707000Y-56938890D01*
X116711085Y-56897409D01*
X116721393Y-56863431D01*
X116738134Y-56832110D01*
X116760661Y-56804661D01*
X116788110Y-56782134D01*
X116819431Y-56765393D01*
X116853409Y-56755085D01*
X116894890Y-56751000D01*
X117496110Y-56751000D01*
X117537591Y-56755085D01*
X117537591Y-56755085D01*
G37*
G36*
X119112591Y-56755085D02*
G01*
X119146569Y-56765393D01*
X119177890Y-56782134D01*
X119205339Y-56804661D01*
X119227866Y-56832110D01*
X119244607Y-56863431D01*
X119254915Y-56897409D01*
X119259000Y-56938890D01*
X119259000Y-57615110D01*
X119254915Y-57656591D01*
X119244607Y-57690569D01*
X119227866Y-57721890D01*
X119205339Y-57749339D01*
X119177890Y-57771866D01*
X119146569Y-57788607D01*
X119112591Y-57798915D01*
X119071110Y-57803000D01*
X118469890Y-57803000D01*
X118428409Y-57798915D01*
X118394431Y-57788607D01*
X118363110Y-57771866D01*
X118335661Y-57749339D01*
X118313134Y-57721890D01*
X118296393Y-57690569D01*
X118286085Y-57656591D01*
X118282000Y-57615110D01*
X118282000Y-56938890D01*
X118286085Y-56897409D01*
X118296393Y-56863431D01*
X118313134Y-56832110D01*
X118335661Y-56804661D01*
X118363110Y-56782134D01*
X118394431Y-56765393D01*
X118428409Y-56755085D01*
X118469890Y-56751000D01*
X119071110Y-56751000D01*
X119112591Y-56755085D01*
X119112591Y-56755085D01*
G37*
G36*
X120648591Y-56767085D02*
G01*
X120682569Y-56777393D01*
X120713890Y-56794134D01*
X120741339Y-56816661D01*
X120763866Y-56844110D01*
X120780607Y-56875431D01*
X120790915Y-56909409D01*
X120795000Y-56950890D01*
X120795000Y-57552110D01*
X120790915Y-57593591D01*
X120780607Y-57627569D01*
X120763866Y-57658890D01*
X120741339Y-57686339D01*
X120713890Y-57708866D01*
X120682569Y-57725607D01*
X120648591Y-57735915D01*
X120607110Y-57740000D01*
X119930890Y-57740000D01*
X119889409Y-57735915D01*
X119855431Y-57725607D01*
X119824110Y-57708866D01*
X119796661Y-57686339D01*
X119774134Y-57658890D01*
X119757393Y-57627569D01*
X119747085Y-57593591D01*
X119743000Y-57552110D01*
X119743000Y-56950890D01*
X119747085Y-56909409D01*
X119757393Y-56875431D01*
X119774134Y-56844110D01*
X119796661Y-56816661D01*
X119824110Y-56794134D01*
X119855431Y-56777393D01*
X119889409Y-56767085D01*
X119930890Y-56763000D01*
X120607110Y-56763000D01*
X120648591Y-56767085D01*
X120648591Y-56767085D01*
G37*
G36*
X129854591Y-55328085D02*
G01*
X129888569Y-55338393D01*
X129919890Y-55355134D01*
X129947339Y-55377661D01*
X129969866Y-55405110D01*
X129986607Y-55436431D01*
X129996915Y-55470409D01*
X130001000Y-55511890D01*
X130001000Y-56188110D01*
X129996915Y-56229591D01*
X129986607Y-56263569D01*
X129969866Y-56294890D01*
X129947339Y-56322339D01*
X129919890Y-56344866D01*
X129888569Y-56361607D01*
X129854591Y-56371915D01*
X129813110Y-56376000D01*
X129211890Y-56376000D01*
X129170409Y-56371915D01*
X129136431Y-56361607D01*
X129105110Y-56344866D01*
X129077661Y-56322339D01*
X129055134Y-56294890D01*
X129038393Y-56263569D01*
X129028085Y-56229591D01*
X129024000Y-56188110D01*
X129024000Y-55511890D01*
X129028085Y-55470409D01*
X129038393Y-55436431D01*
X129055134Y-55405110D01*
X129077661Y-55377661D01*
X129105110Y-55355134D01*
X129136431Y-55338393D01*
X129170409Y-55328085D01*
X129211890Y-55324000D01*
X129813110Y-55324000D01*
X129854591Y-55328085D01*
X129854591Y-55328085D01*
G37*
G36*
X131429591Y-55328085D02*
G01*
X131463569Y-55338393D01*
X131494890Y-55355134D01*
X131522339Y-55377661D01*
X131544866Y-55405110D01*
X131561607Y-55436431D01*
X131571915Y-55470409D01*
X131576000Y-55511890D01*
X131576000Y-56188110D01*
X131571915Y-56229591D01*
X131561607Y-56263569D01*
X131544866Y-56294890D01*
X131522339Y-56322339D01*
X131494890Y-56344866D01*
X131463569Y-56361607D01*
X131429591Y-56371915D01*
X131388110Y-56376000D01*
X130786890Y-56376000D01*
X130745409Y-56371915D01*
X130711431Y-56361607D01*
X130680110Y-56344866D01*
X130652661Y-56322339D01*
X130630134Y-56294890D01*
X130613393Y-56263569D01*
X130603085Y-56229591D01*
X130599000Y-56188110D01*
X130599000Y-55511890D01*
X130603085Y-55470409D01*
X130613393Y-55436431D01*
X130630134Y-55405110D01*
X130652661Y-55377661D01*
X130680110Y-55355134D01*
X130711431Y-55338393D01*
X130745409Y-55328085D01*
X130786890Y-55324000D01*
X131388110Y-55324000D01*
X131429591Y-55328085D01*
X131429591Y-55328085D01*
G37*
G36*
X120629591Y-55303085D02*
G01*
X120663569Y-55313393D01*
X120694890Y-55330134D01*
X120722339Y-55352661D01*
X120744866Y-55380110D01*
X120761607Y-55411431D01*
X120771915Y-55445409D01*
X120776000Y-55486890D01*
X120776000Y-56088110D01*
X120771915Y-56129591D01*
X120761607Y-56163569D01*
X120744866Y-56194890D01*
X120722339Y-56222339D01*
X120694890Y-56244866D01*
X120663569Y-56261607D01*
X120629591Y-56271915D01*
X120588110Y-56276000D01*
X119911890Y-56276000D01*
X119870409Y-56271915D01*
X119836431Y-56261607D01*
X119805110Y-56244866D01*
X119777661Y-56222339D01*
X119755134Y-56194890D01*
X119738393Y-56163569D01*
X119728085Y-56129591D01*
X119724000Y-56088110D01*
X119724000Y-55486890D01*
X119728085Y-55445409D01*
X119738393Y-55411431D01*
X119755134Y-55380110D01*
X119777661Y-55352661D01*
X119805110Y-55330134D01*
X119836431Y-55313393D01*
X119870409Y-55303085D01*
X119911890Y-55299000D01*
X120588110Y-55299000D01*
X120629591Y-55303085D01*
X120629591Y-55303085D01*
G37*
G36*
X129854591Y-53828085D02*
G01*
X129888569Y-53838393D01*
X129919890Y-53855134D01*
X129947339Y-53877661D01*
X129969866Y-53905110D01*
X129986607Y-53936431D01*
X129996915Y-53970409D01*
X130001000Y-54011890D01*
X130001000Y-54688110D01*
X129996915Y-54729591D01*
X129986607Y-54763569D01*
X129969866Y-54794890D01*
X129947339Y-54822339D01*
X129919890Y-54844866D01*
X129888569Y-54861607D01*
X129854591Y-54871915D01*
X129813110Y-54876000D01*
X129211890Y-54876000D01*
X129170409Y-54871915D01*
X129136431Y-54861607D01*
X129105110Y-54844866D01*
X129077661Y-54822339D01*
X129055134Y-54794890D01*
X129038393Y-54763569D01*
X129028085Y-54729591D01*
X129024000Y-54688110D01*
X129024000Y-54011890D01*
X129028085Y-53970409D01*
X129038393Y-53936431D01*
X129055134Y-53905110D01*
X129077661Y-53877661D01*
X129105110Y-53855134D01*
X129136431Y-53838393D01*
X129170409Y-53828085D01*
X129211890Y-53824000D01*
X129813110Y-53824000D01*
X129854591Y-53828085D01*
X129854591Y-53828085D01*
G37*
G36*
X131429591Y-53828085D02*
G01*
X131463569Y-53838393D01*
X131494890Y-53855134D01*
X131522339Y-53877661D01*
X131544866Y-53905110D01*
X131561607Y-53936431D01*
X131571915Y-53970409D01*
X131576000Y-54011890D01*
X131576000Y-54688110D01*
X131571915Y-54729591D01*
X131561607Y-54763569D01*
X131544866Y-54794890D01*
X131522339Y-54822339D01*
X131494890Y-54844866D01*
X131463569Y-54861607D01*
X131429591Y-54871915D01*
X131388110Y-54876000D01*
X130786890Y-54876000D01*
X130745409Y-54871915D01*
X130711431Y-54861607D01*
X130680110Y-54844866D01*
X130652661Y-54822339D01*
X130630134Y-54794890D01*
X130613393Y-54763569D01*
X130603085Y-54729591D01*
X130599000Y-54688110D01*
X130599000Y-54011890D01*
X130603085Y-53970409D01*
X130613393Y-53936431D01*
X130630134Y-53905110D01*
X130652661Y-53877661D01*
X130680110Y-53855134D01*
X130711431Y-53838393D01*
X130745409Y-53828085D01*
X130786890Y-53824000D01*
X131388110Y-53824000D01*
X131429591Y-53828085D01*
X131429591Y-53828085D01*
G37*
G36*
X120629591Y-53728085D02*
G01*
X120663569Y-53738393D01*
X120694890Y-53755134D01*
X120722339Y-53777661D01*
X120744866Y-53805110D01*
X120761607Y-53836431D01*
X120771915Y-53870409D01*
X120776000Y-53911890D01*
X120776000Y-54513110D01*
X120771915Y-54554591D01*
X120761607Y-54588569D01*
X120744866Y-54619890D01*
X120722339Y-54647339D01*
X120694890Y-54669866D01*
X120663569Y-54686607D01*
X120629591Y-54696915D01*
X120588110Y-54701000D01*
X119911890Y-54701000D01*
X119870409Y-54696915D01*
X119836431Y-54686607D01*
X119805110Y-54669866D01*
X119777661Y-54647339D01*
X119755134Y-54619890D01*
X119738393Y-54588569D01*
X119728085Y-54554591D01*
X119724000Y-54513110D01*
X119724000Y-53911890D01*
X119728085Y-53870409D01*
X119738393Y-53836431D01*
X119755134Y-53805110D01*
X119777661Y-53777661D01*
X119805110Y-53755134D01*
X119836431Y-53738393D01*
X119870409Y-53728085D01*
X119911890Y-53724000D01*
X120588110Y-53724000D01*
X120629591Y-53728085D01*
X120629591Y-53728085D01*
G37*
G36*
X116111721Y-53572174D02*
G01*
X116211995Y-53613709D01*
X116211996Y-53613710D01*
X116302242Y-53674010D01*
X116378990Y-53750758D01*
X116396966Y-53777661D01*
X116439291Y-53841005D01*
X116480826Y-53941279D01*
X116502000Y-54047730D01*
X116502000Y-54156270D01*
X116480826Y-54262721D01*
X116439291Y-54362995D01*
X116439290Y-54362996D01*
X116378990Y-54453242D01*
X116302242Y-54529990D01*
X116271965Y-54550220D01*
X116211995Y-54590291D01*
X116111721Y-54631826D01*
X116005270Y-54653000D01*
X115896730Y-54653000D01*
X115790279Y-54631826D01*
X115690005Y-54590291D01*
X115630035Y-54550220D01*
X115599758Y-54529990D01*
X115523010Y-54453242D01*
X115462710Y-54362996D01*
X115462709Y-54362995D01*
X115421174Y-54262721D01*
X115400000Y-54156270D01*
X115400000Y-54047730D01*
X115421174Y-53941279D01*
X115462709Y-53841005D01*
X115505034Y-53777661D01*
X115523010Y-53750758D01*
X115599758Y-53674010D01*
X115690004Y-53613710D01*
X115690005Y-53613709D01*
X115790279Y-53572174D01*
X115896730Y-53551000D01*
X116005270Y-53551000D01*
X116111721Y-53572174D01*
X116111721Y-53572174D01*
G37*
G36*
X122865355Y-48510083D02*
G01*
X122870029Y-48511501D01*
X122874330Y-48513800D01*
X122880702Y-48519029D01*
X122901076Y-48532643D01*
X122923715Y-48542020D01*
X122947749Y-48546800D01*
X122972253Y-48546800D01*
X122996286Y-48542019D01*
X123018925Y-48532642D01*
X123039298Y-48519029D01*
X123045670Y-48513800D01*
X123049971Y-48511501D01*
X123054645Y-48510083D01*
X123065641Y-48509000D01*
X123354359Y-48509000D01*
X123365355Y-48510083D01*
X123370029Y-48511501D01*
X123374330Y-48513800D01*
X123380702Y-48519029D01*
X123401076Y-48532643D01*
X123423715Y-48542020D01*
X123447749Y-48546800D01*
X123472253Y-48546800D01*
X123496286Y-48542019D01*
X123518925Y-48532642D01*
X123539298Y-48519029D01*
X123545670Y-48513800D01*
X123549971Y-48511501D01*
X123554645Y-48510083D01*
X123565641Y-48509000D01*
X123854359Y-48509000D01*
X123865355Y-48510083D01*
X123870029Y-48511501D01*
X123874330Y-48513800D01*
X123880702Y-48519029D01*
X123901076Y-48532643D01*
X123923715Y-48542020D01*
X123947749Y-48546800D01*
X123972253Y-48546800D01*
X123996286Y-48542019D01*
X124018925Y-48532642D01*
X124039298Y-48519029D01*
X124045670Y-48513800D01*
X124049971Y-48511501D01*
X124054645Y-48510083D01*
X124065641Y-48509000D01*
X124354359Y-48509000D01*
X124365355Y-48510083D01*
X124370029Y-48511501D01*
X124374330Y-48513800D01*
X124380702Y-48519029D01*
X124401076Y-48532643D01*
X124423715Y-48542020D01*
X124447749Y-48546800D01*
X124472253Y-48546800D01*
X124496286Y-48542019D01*
X124518925Y-48532642D01*
X124539298Y-48519029D01*
X124545670Y-48513800D01*
X124549971Y-48511501D01*
X124554645Y-48510083D01*
X124565641Y-48509000D01*
X124854359Y-48509000D01*
X124865355Y-48510083D01*
X124870029Y-48511501D01*
X124874330Y-48513800D01*
X124880702Y-48519029D01*
X124901076Y-48532643D01*
X124923715Y-48542020D01*
X124947749Y-48546800D01*
X124972253Y-48546800D01*
X124996286Y-48542019D01*
X125018925Y-48532642D01*
X125039298Y-48519029D01*
X125045670Y-48513800D01*
X125049971Y-48511501D01*
X125054645Y-48510083D01*
X125065641Y-48509000D01*
X125354359Y-48509000D01*
X125365355Y-48510083D01*
X125370029Y-48511501D01*
X125374330Y-48513800D01*
X125380702Y-48519029D01*
X125401076Y-48532643D01*
X125423715Y-48542020D01*
X125447749Y-48546800D01*
X125472253Y-48546800D01*
X125496286Y-48542019D01*
X125518925Y-48532642D01*
X125539298Y-48519029D01*
X125545670Y-48513800D01*
X125549971Y-48511501D01*
X125554645Y-48510083D01*
X125565641Y-48509000D01*
X125854359Y-48509000D01*
X125865355Y-48510083D01*
X125870029Y-48511501D01*
X125874330Y-48513800D01*
X125880702Y-48519029D01*
X125901076Y-48532643D01*
X125923715Y-48542020D01*
X125947749Y-48546800D01*
X125972253Y-48546800D01*
X125996286Y-48542019D01*
X126018925Y-48532642D01*
X126039298Y-48519029D01*
X126045670Y-48513800D01*
X126049971Y-48511501D01*
X126054645Y-48510083D01*
X126065641Y-48509000D01*
X126354359Y-48509000D01*
X126365355Y-48510083D01*
X126370029Y-48511501D01*
X126374331Y-48513800D01*
X126378104Y-48516896D01*
X126381200Y-48520669D01*
X126383499Y-48524971D01*
X126384917Y-48529645D01*
X126386000Y-48540641D01*
X126386000Y-49384001D01*
X126388402Y-49408387D01*
X126395515Y-49431836D01*
X126407066Y-49453447D01*
X126422611Y-49472389D01*
X126441553Y-49487934D01*
X126463164Y-49499485D01*
X126486613Y-49506598D01*
X126510999Y-49509000D01*
X127354359Y-49509000D01*
X127365355Y-49510083D01*
X127370029Y-49511501D01*
X127374331Y-49513800D01*
X127378104Y-49516896D01*
X127381200Y-49520669D01*
X127383499Y-49524971D01*
X127384917Y-49529645D01*
X127386000Y-49540641D01*
X127386000Y-49829359D01*
X127384917Y-49840355D01*
X127383499Y-49845029D01*
X127381200Y-49849330D01*
X127375971Y-49855702D01*
X127362357Y-49876076D01*
X127352980Y-49898715D01*
X127348200Y-49922749D01*
X127348200Y-49947253D01*
X127352981Y-49971286D01*
X127362358Y-49993925D01*
X127375971Y-50014298D01*
X127381200Y-50020670D01*
X127383499Y-50024971D01*
X127384917Y-50029645D01*
X127386000Y-50040641D01*
X127386000Y-50329359D01*
X127384917Y-50340355D01*
X127383499Y-50345029D01*
X127381200Y-50349330D01*
X127375971Y-50355702D01*
X127362357Y-50376076D01*
X127352980Y-50398715D01*
X127348200Y-50422749D01*
X127348200Y-50447253D01*
X127352981Y-50471286D01*
X127362358Y-50493925D01*
X127375971Y-50514298D01*
X127381200Y-50520670D01*
X127383499Y-50524971D01*
X127384917Y-50529645D01*
X127386000Y-50540641D01*
X127386000Y-50829359D01*
X127384917Y-50840355D01*
X127383499Y-50845029D01*
X127381200Y-50849330D01*
X127375971Y-50855702D01*
X127362357Y-50876076D01*
X127352980Y-50898715D01*
X127348200Y-50922749D01*
X127348200Y-50947253D01*
X127352981Y-50971286D01*
X127362358Y-50993925D01*
X127375971Y-51014298D01*
X127381200Y-51020670D01*
X127383499Y-51024971D01*
X127384917Y-51029645D01*
X127386000Y-51040641D01*
X127386000Y-51329359D01*
X127384917Y-51340355D01*
X127383499Y-51345029D01*
X127381200Y-51349330D01*
X127375971Y-51355702D01*
X127362357Y-51376076D01*
X127352980Y-51398715D01*
X127348200Y-51422749D01*
X127348200Y-51447253D01*
X127352981Y-51471286D01*
X127362358Y-51493925D01*
X127375971Y-51514298D01*
X127381200Y-51520670D01*
X127383499Y-51524971D01*
X127384917Y-51529645D01*
X127386000Y-51540641D01*
X127386000Y-51829359D01*
X127384917Y-51840355D01*
X127383499Y-51845029D01*
X127381200Y-51849330D01*
X127375971Y-51855702D01*
X127362357Y-51876076D01*
X127352980Y-51898715D01*
X127348200Y-51922749D01*
X127348200Y-51947253D01*
X127352981Y-51971286D01*
X127362358Y-51993925D01*
X127375971Y-52014298D01*
X127381200Y-52020670D01*
X127383499Y-52024971D01*
X127384917Y-52029645D01*
X127386000Y-52040641D01*
X127386000Y-52329359D01*
X127384917Y-52340355D01*
X127383499Y-52345029D01*
X127381200Y-52349330D01*
X127375971Y-52355702D01*
X127362357Y-52376076D01*
X127352980Y-52398715D01*
X127348200Y-52422749D01*
X127348200Y-52447253D01*
X127352981Y-52471286D01*
X127362358Y-52493925D01*
X127375971Y-52514298D01*
X127381200Y-52520670D01*
X127383499Y-52524971D01*
X127384917Y-52529645D01*
X127386000Y-52540641D01*
X127386000Y-52829359D01*
X127384917Y-52840355D01*
X127383499Y-52845029D01*
X127381200Y-52849330D01*
X127375971Y-52855702D01*
X127362357Y-52876076D01*
X127352980Y-52898715D01*
X127348200Y-52922749D01*
X127348200Y-52947253D01*
X127352981Y-52971286D01*
X127362358Y-52993925D01*
X127375971Y-53014298D01*
X127381200Y-53020670D01*
X127383499Y-53024971D01*
X127384917Y-53029645D01*
X127386000Y-53040641D01*
X127386000Y-53329359D01*
X127384917Y-53340355D01*
X127383499Y-53345029D01*
X127381200Y-53349331D01*
X127378104Y-53353104D01*
X127374331Y-53356200D01*
X127370029Y-53358499D01*
X127365355Y-53359917D01*
X127354359Y-53361000D01*
X126510999Y-53361000D01*
X126486613Y-53363402D01*
X126463164Y-53370515D01*
X126441553Y-53382066D01*
X126422611Y-53397611D01*
X126407066Y-53416553D01*
X126395515Y-53438164D01*
X126388402Y-53461613D01*
X126386000Y-53485999D01*
X126386000Y-54329359D01*
X126384917Y-54340355D01*
X126383499Y-54345029D01*
X126381200Y-54349331D01*
X126378104Y-54353104D01*
X126374331Y-54356200D01*
X126370029Y-54358499D01*
X126365355Y-54359917D01*
X126354359Y-54361000D01*
X126065641Y-54361000D01*
X126054645Y-54359917D01*
X126049971Y-54358499D01*
X126045670Y-54356200D01*
X126039298Y-54350971D01*
X126018924Y-54337357D01*
X125996285Y-54327980D01*
X125972251Y-54323200D01*
X125947747Y-54323200D01*
X125923714Y-54327981D01*
X125901075Y-54337358D01*
X125880702Y-54350971D01*
X125874330Y-54356200D01*
X125870029Y-54358499D01*
X125865355Y-54359917D01*
X125854359Y-54361000D01*
X125565641Y-54361000D01*
X125554645Y-54359917D01*
X125549971Y-54358499D01*
X125545670Y-54356200D01*
X125539298Y-54350971D01*
X125518924Y-54337357D01*
X125496285Y-54327980D01*
X125472251Y-54323200D01*
X125447747Y-54323200D01*
X125423714Y-54327981D01*
X125401075Y-54337358D01*
X125380702Y-54350971D01*
X125374330Y-54356200D01*
X125370029Y-54358499D01*
X125365355Y-54359917D01*
X125354359Y-54361000D01*
X125065641Y-54361000D01*
X125054645Y-54359917D01*
X125049971Y-54358499D01*
X125045670Y-54356200D01*
X125039298Y-54350971D01*
X125018924Y-54337357D01*
X124996285Y-54327980D01*
X124972251Y-54323200D01*
X124947747Y-54323200D01*
X124923714Y-54327981D01*
X124901075Y-54337358D01*
X124880702Y-54350971D01*
X124874330Y-54356200D01*
X124870029Y-54358499D01*
X124865355Y-54359917D01*
X124854359Y-54361000D01*
X124565641Y-54361000D01*
X124554645Y-54359917D01*
X124549971Y-54358499D01*
X124545670Y-54356200D01*
X124539298Y-54350971D01*
X124518924Y-54337357D01*
X124496285Y-54327980D01*
X124472251Y-54323200D01*
X124447747Y-54323200D01*
X124423714Y-54327981D01*
X124401075Y-54337358D01*
X124380702Y-54350971D01*
X124374330Y-54356200D01*
X124370029Y-54358499D01*
X124365355Y-54359917D01*
X124354359Y-54361000D01*
X124065641Y-54361000D01*
X124054645Y-54359917D01*
X124049971Y-54358499D01*
X124045670Y-54356200D01*
X124039298Y-54350971D01*
X124018924Y-54337357D01*
X123996285Y-54327980D01*
X123972251Y-54323200D01*
X123947747Y-54323200D01*
X123923714Y-54327981D01*
X123901075Y-54337358D01*
X123880702Y-54350971D01*
X123874330Y-54356200D01*
X123870029Y-54358499D01*
X123865355Y-54359917D01*
X123854359Y-54361000D01*
X123565641Y-54361000D01*
X123554645Y-54359917D01*
X123549971Y-54358499D01*
X123545670Y-54356200D01*
X123539298Y-54350971D01*
X123518924Y-54337357D01*
X123496285Y-54327980D01*
X123472251Y-54323200D01*
X123447747Y-54323200D01*
X123423714Y-54327981D01*
X123401075Y-54337358D01*
X123380702Y-54350971D01*
X123374330Y-54356200D01*
X123370029Y-54358499D01*
X123365355Y-54359917D01*
X123354359Y-54361000D01*
X123065641Y-54361000D01*
X123054645Y-54359917D01*
X123049971Y-54358499D01*
X123045670Y-54356200D01*
X123039298Y-54350971D01*
X123018924Y-54337357D01*
X122996285Y-54327980D01*
X122972251Y-54323200D01*
X122947747Y-54323200D01*
X122923714Y-54327981D01*
X122901075Y-54337358D01*
X122880702Y-54350971D01*
X122874330Y-54356200D01*
X122870029Y-54358499D01*
X122865355Y-54359917D01*
X122854359Y-54361000D01*
X122565641Y-54361000D01*
X122554645Y-54359917D01*
X122549971Y-54358499D01*
X122545669Y-54356200D01*
X122541896Y-54353104D01*
X122538800Y-54349331D01*
X122536501Y-54345029D01*
X122535083Y-54340355D01*
X122534000Y-54329359D01*
X122534000Y-53485999D01*
X122531598Y-53461613D01*
X122524485Y-53438164D01*
X122512934Y-53416553D01*
X122497389Y-53397611D01*
X122478447Y-53382066D01*
X122456836Y-53370515D01*
X122433387Y-53363402D01*
X122409001Y-53361000D01*
X121565641Y-53361000D01*
X121554645Y-53359917D01*
X121549971Y-53358499D01*
X121545669Y-53356200D01*
X121541896Y-53353104D01*
X121538800Y-53349331D01*
X121536501Y-53345029D01*
X121535083Y-53340355D01*
X121534000Y-53329359D01*
X121534000Y-53040641D01*
X121535083Y-53029645D01*
X121536501Y-53024971D01*
X121538800Y-53020670D01*
X121544029Y-53014298D01*
X121557643Y-52993924D01*
X121567020Y-52971285D01*
X121571800Y-52947251D01*
X121571800Y-52922747D01*
X121567019Y-52898714D01*
X121557642Y-52876075D01*
X121544029Y-52855702D01*
X121538800Y-52849330D01*
X121536501Y-52845029D01*
X121535083Y-52840355D01*
X121534000Y-52829359D01*
X121534000Y-52540641D01*
X121535083Y-52529645D01*
X121536501Y-52524971D01*
X121538800Y-52520670D01*
X121544029Y-52514298D01*
X121557643Y-52493924D01*
X121567020Y-52471285D01*
X121571800Y-52447251D01*
X121571800Y-52422747D01*
X121567019Y-52398714D01*
X121557642Y-52376075D01*
X121544029Y-52355702D01*
X121538800Y-52349330D01*
X121536501Y-52345029D01*
X121535083Y-52340355D01*
X121534000Y-52329359D01*
X121534000Y-52040641D01*
X121535083Y-52029645D01*
X121536501Y-52024971D01*
X121538800Y-52020670D01*
X121544029Y-52014298D01*
X121557643Y-51993924D01*
X121567020Y-51971285D01*
X121571800Y-51947251D01*
X121571800Y-51922747D01*
X121567019Y-51898714D01*
X121557642Y-51876075D01*
X121544029Y-51855702D01*
X121538800Y-51849330D01*
X121536501Y-51845029D01*
X121535083Y-51840355D01*
X121534000Y-51829359D01*
X121534000Y-51540641D01*
X121535083Y-51529645D01*
X121536501Y-51524971D01*
X121538800Y-51520670D01*
X121544029Y-51514298D01*
X121557643Y-51493924D01*
X121567020Y-51471285D01*
X121571800Y-51447251D01*
X121571800Y-51422747D01*
X121567019Y-51398714D01*
X121557642Y-51376075D01*
X121544029Y-51355702D01*
X121538800Y-51349330D01*
X121536501Y-51345029D01*
X121535083Y-51340355D01*
X121534000Y-51329359D01*
X121534000Y-51040641D01*
X121535083Y-51029645D01*
X121536501Y-51024971D01*
X121538800Y-51020670D01*
X121544029Y-51014298D01*
X121557643Y-50993924D01*
X121567020Y-50971285D01*
X121571800Y-50947251D01*
X121571800Y-50922747D01*
X121567019Y-50898714D01*
X121557642Y-50876075D01*
X121544029Y-50855702D01*
X121538800Y-50849330D01*
X121536501Y-50845029D01*
X121535083Y-50840355D01*
X121534000Y-50829359D01*
X121534000Y-50540641D01*
X121535083Y-50529645D01*
X121536501Y-50524971D01*
X121538800Y-50520670D01*
X121544029Y-50514298D01*
X121557643Y-50493924D01*
X121567020Y-50471285D01*
X121571800Y-50447251D01*
X121571800Y-50422747D01*
X121567019Y-50398714D01*
X121557642Y-50376075D01*
X121544029Y-50355702D01*
X121538800Y-50349330D01*
X121536501Y-50345029D01*
X121535083Y-50340355D01*
X121534000Y-50329359D01*
X121534000Y-50040641D01*
X121535083Y-50029645D01*
X121536501Y-50024971D01*
X121538800Y-50020670D01*
X121544029Y-50014298D01*
X121557643Y-49993924D01*
X121567020Y-49971285D01*
X121571800Y-49947251D01*
X121571800Y-49922749D01*
X122473200Y-49922749D01*
X122473200Y-49947253D01*
X122477981Y-49971286D01*
X122487358Y-49993925D01*
X122500971Y-50014298D01*
X122506200Y-50020670D01*
X122508499Y-50024971D01*
X122509917Y-50029645D01*
X122511000Y-50040641D01*
X122511000Y-50329359D01*
X122509917Y-50340355D01*
X122508499Y-50345029D01*
X122506200Y-50349330D01*
X122500971Y-50355702D01*
X122487357Y-50376076D01*
X122477980Y-50398715D01*
X122473200Y-50422749D01*
X122473200Y-50447253D01*
X122477981Y-50471286D01*
X122487358Y-50493925D01*
X122500971Y-50514298D01*
X122506200Y-50520670D01*
X122508499Y-50524971D01*
X122509917Y-50529645D01*
X122511000Y-50540641D01*
X122511000Y-50829359D01*
X122509917Y-50840355D01*
X122508499Y-50845029D01*
X122506200Y-50849330D01*
X122500971Y-50855702D01*
X122487357Y-50876076D01*
X122477980Y-50898715D01*
X122473200Y-50922749D01*
X122473200Y-50947253D01*
X122477981Y-50971286D01*
X122487358Y-50993925D01*
X122500971Y-51014298D01*
X122506200Y-51020670D01*
X122508499Y-51024971D01*
X122509917Y-51029645D01*
X122511000Y-51040641D01*
X122511000Y-51329359D01*
X122509917Y-51340355D01*
X122508499Y-51345029D01*
X122506200Y-51349330D01*
X122500971Y-51355702D01*
X122487357Y-51376076D01*
X122477980Y-51398715D01*
X122473200Y-51422749D01*
X122473200Y-51447253D01*
X122477981Y-51471286D01*
X122487358Y-51493925D01*
X122500971Y-51514298D01*
X122506200Y-51520670D01*
X122508499Y-51524971D01*
X122509917Y-51529645D01*
X122511000Y-51540641D01*
X122511000Y-51829359D01*
X122509917Y-51840355D01*
X122508499Y-51845029D01*
X122506200Y-51849330D01*
X122500971Y-51855702D01*
X122487357Y-51876076D01*
X122477980Y-51898715D01*
X122473200Y-51922749D01*
X122473200Y-51947253D01*
X122477981Y-51971286D01*
X122487358Y-51993925D01*
X122500971Y-52014298D01*
X122506200Y-52020670D01*
X122508499Y-52024971D01*
X122509917Y-52029645D01*
X122511000Y-52040641D01*
X122511000Y-52329359D01*
X122509917Y-52340355D01*
X122508499Y-52345029D01*
X122506200Y-52349330D01*
X122500971Y-52355702D01*
X122487357Y-52376076D01*
X122477980Y-52398715D01*
X122473200Y-52422749D01*
X122473200Y-52447253D01*
X122477981Y-52471286D01*
X122487358Y-52493925D01*
X122500971Y-52514298D01*
X122506200Y-52520670D01*
X122508499Y-52524971D01*
X122509917Y-52529645D01*
X122511000Y-52540641D01*
X122511000Y-52829359D01*
X122509917Y-52840355D01*
X122508499Y-52845029D01*
X122506200Y-52849330D01*
X122500971Y-52855702D01*
X122487357Y-52876076D01*
X122477980Y-52898715D01*
X122473200Y-52922749D01*
X122473200Y-52947253D01*
X122477981Y-52971286D01*
X122487358Y-52993925D01*
X122500971Y-53014298D01*
X122506200Y-53020670D01*
X122508499Y-53024971D01*
X122509917Y-53029645D01*
X122511000Y-53040641D01*
X122511000Y-53259001D01*
X122513402Y-53283387D01*
X122520515Y-53306836D01*
X122532066Y-53328447D01*
X122547611Y-53347389D01*
X122566553Y-53362934D01*
X122588164Y-53374485D01*
X122611613Y-53381598D01*
X122635999Y-53384000D01*
X122854359Y-53384000D01*
X122865355Y-53385083D01*
X122870029Y-53386501D01*
X122874330Y-53388800D01*
X122880702Y-53394029D01*
X122901076Y-53407643D01*
X122923715Y-53417020D01*
X122947749Y-53421800D01*
X122972253Y-53421800D01*
X122996286Y-53417019D01*
X123018925Y-53407642D01*
X123039298Y-53394029D01*
X123045670Y-53388800D01*
X123049971Y-53386501D01*
X123054645Y-53385083D01*
X123065641Y-53384000D01*
X123354359Y-53384000D01*
X123365355Y-53385083D01*
X123370029Y-53386501D01*
X123374330Y-53388800D01*
X123380702Y-53394029D01*
X123401076Y-53407643D01*
X123423715Y-53417020D01*
X123447749Y-53421800D01*
X123472253Y-53421800D01*
X123496286Y-53417019D01*
X123518925Y-53407642D01*
X123539298Y-53394029D01*
X123545670Y-53388800D01*
X123549971Y-53386501D01*
X123554645Y-53385083D01*
X123565641Y-53384000D01*
X123854359Y-53384000D01*
X123865355Y-53385083D01*
X123870029Y-53386501D01*
X123874330Y-53388800D01*
X123880702Y-53394029D01*
X123901076Y-53407643D01*
X123923715Y-53417020D01*
X123947749Y-53421800D01*
X123972253Y-53421800D01*
X123996286Y-53417019D01*
X124018925Y-53407642D01*
X124039298Y-53394029D01*
X124045670Y-53388800D01*
X124049971Y-53386501D01*
X124054645Y-53385083D01*
X124065641Y-53384000D01*
X124354359Y-53384000D01*
X124365355Y-53385083D01*
X124370029Y-53386501D01*
X124374330Y-53388800D01*
X124380702Y-53394029D01*
X124401076Y-53407643D01*
X124423715Y-53417020D01*
X124447749Y-53421800D01*
X124472253Y-53421800D01*
X124496286Y-53417019D01*
X124518925Y-53407642D01*
X124539298Y-53394029D01*
X124545670Y-53388800D01*
X124549971Y-53386501D01*
X124554645Y-53385083D01*
X124565641Y-53384000D01*
X124854359Y-53384000D01*
X124865355Y-53385083D01*
X124870029Y-53386501D01*
X124874330Y-53388800D01*
X124880702Y-53394029D01*
X124901076Y-53407643D01*
X124923715Y-53417020D01*
X124947749Y-53421800D01*
X124972253Y-53421800D01*
X124996286Y-53417019D01*
X125018925Y-53407642D01*
X125039298Y-53394029D01*
X125045670Y-53388800D01*
X125049971Y-53386501D01*
X125054645Y-53385083D01*
X125065641Y-53384000D01*
X125354359Y-53384000D01*
X125365355Y-53385083D01*
X125370029Y-53386501D01*
X125374330Y-53388800D01*
X125380702Y-53394029D01*
X125401076Y-53407643D01*
X125423715Y-53417020D01*
X125447749Y-53421800D01*
X125472253Y-53421800D01*
X125496286Y-53417019D01*
X125518925Y-53407642D01*
X125539298Y-53394029D01*
X125545670Y-53388800D01*
X125549971Y-53386501D01*
X125554645Y-53385083D01*
X125565641Y-53384000D01*
X125854359Y-53384000D01*
X125865355Y-53385083D01*
X125870029Y-53386501D01*
X125874330Y-53388800D01*
X125880702Y-53394029D01*
X125901076Y-53407643D01*
X125923715Y-53417020D01*
X125947749Y-53421800D01*
X125972253Y-53421800D01*
X125996286Y-53417019D01*
X126018925Y-53407642D01*
X126039298Y-53394029D01*
X126045670Y-53388800D01*
X126049971Y-53386501D01*
X126054645Y-53385083D01*
X126065641Y-53384000D01*
X126284001Y-53384000D01*
X126308387Y-53381598D01*
X126331836Y-53374485D01*
X126353447Y-53362934D01*
X126372389Y-53347389D01*
X126387934Y-53328447D01*
X126399485Y-53306836D01*
X126406598Y-53283387D01*
X126409000Y-53259001D01*
X126409000Y-53040641D01*
X126410083Y-53029645D01*
X126411501Y-53024971D01*
X126413800Y-53020670D01*
X126419029Y-53014298D01*
X126432643Y-52993924D01*
X126442020Y-52971285D01*
X126446800Y-52947251D01*
X126446800Y-52922747D01*
X126442019Y-52898714D01*
X126432642Y-52876075D01*
X126419029Y-52855702D01*
X126413800Y-52849330D01*
X126411501Y-52845029D01*
X126410083Y-52840355D01*
X126409000Y-52829359D01*
X126409000Y-52540641D01*
X126410083Y-52529645D01*
X126411501Y-52524971D01*
X126413800Y-52520670D01*
X126419029Y-52514298D01*
X126432643Y-52493924D01*
X126442020Y-52471285D01*
X126446800Y-52447251D01*
X126446800Y-52422747D01*
X126442019Y-52398714D01*
X126432642Y-52376075D01*
X126419029Y-52355702D01*
X126413800Y-52349330D01*
X126411501Y-52345029D01*
X126410083Y-52340355D01*
X126409000Y-52329359D01*
X126409000Y-52040641D01*
X126410083Y-52029645D01*
X126411501Y-52024971D01*
X126413800Y-52020670D01*
X126419029Y-52014298D01*
X126432643Y-51993924D01*
X126442020Y-51971285D01*
X126446800Y-51947251D01*
X126446800Y-51922747D01*
X126442019Y-51898714D01*
X126432642Y-51876075D01*
X126419029Y-51855702D01*
X126413800Y-51849330D01*
X126411501Y-51845029D01*
X126410083Y-51840355D01*
X126409000Y-51829359D01*
X126409000Y-51540641D01*
X126410083Y-51529645D01*
X126411501Y-51524971D01*
X126413800Y-51520670D01*
X126419029Y-51514298D01*
X126432643Y-51493924D01*
X126442020Y-51471285D01*
X126446800Y-51447251D01*
X126446800Y-51422747D01*
X126442019Y-51398714D01*
X126432642Y-51376075D01*
X126419029Y-51355702D01*
X126413800Y-51349330D01*
X126411501Y-51345029D01*
X126410083Y-51340355D01*
X126409000Y-51329359D01*
X126409000Y-51040641D01*
X126410083Y-51029645D01*
X126411501Y-51024971D01*
X126413800Y-51020670D01*
X126419029Y-51014298D01*
X126432643Y-50993924D01*
X126442020Y-50971285D01*
X126446800Y-50947251D01*
X126446800Y-50922747D01*
X126442019Y-50898714D01*
X126432642Y-50876075D01*
X126419029Y-50855702D01*
X126413800Y-50849330D01*
X126411501Y-50845029D01*
X126410083Y-50840355D01*
X126409000Y-50829359D01*
X126409000Y-50540641D01*
X126410083Y-50529645D01*
X126411501Y-50524971D01*
X126413800Y-50520670D01*
X126419029Y-50514298D01*
X126432643Y-50493924D01*
X126442020Y-50471285D01*
X126446800Y-50447251D01*
X126446800Y-50422747D01*
X126442019Y-50398714D01*
X126432642Y-50376075D01*
X126419029Y-50355702D01*
X126413800Y-50349330D01*
X126411501Y-50345029D01*
X126410083Y-50340355D01*
X126409000Y-50329359D01*
X126409000Y-50040641D01*
X126410083Y-50029645D01*
X126411501Y-50024971D01*
X126413800Y-50020670D01*
X126419029Y-50014298D01*
X126432643Y-49993924D01*
X126442020Y-49971285D01*
X126446800Y-49947251D01*
X126446800Y-49922747D01*
X126442019Y-49898714D01*
X126432642Y-49876075D01*
X126419029Y-49855702D01*
X126413800Y-49849330D01*
X126411501Y-49845029D01*
X126410083Y-49840355D01*
X126409000Y-49829359D01*
X126409000Y-49610999D01*
X126406598Y-49586613D01*
X126399485Y-49563164D01*
X126387934Y-49541553D01*
X126372389Y-49522611D01*
X126353447Y-49507066D01*
X126331836Y-49495515D01*
X126308387Y-49488402D01*
X126284001Y-49486000D01*
X126065641Y-49486000D01*
X126054645Y-49484917D01*
X126049971Y-49483499D01*
X126045670Y-49481200D01*
X126039298Y-49475971D01*
X126018924Y-49462357D01*
X125996285Y-49452980D01*
X125972251Y-49448200D01*
X125947747Y-49448200D01*
X125923714Y-49452981D01*
X125901075Y-49462358D01*
X125880702Y-49475971D01*
X125874330Y-49481200D01*
X125870029Y-49483499D01*
X125865355Y-49484917D01*
X125854359Y-49486000D01*
X125565641Y-49486000D01*
X125554645Y-49484917D01*
X125549971Y-49483499D01*
X125545670Y-49481200D01*
X125539298Y-49475971D01*
X125518924Y-49462357D01*
X125496285Y-49452980D01*
X125472251Y-49448200D01*
X125447747Y-49448200D01*
X125423714Y-49452981D01*
X125401075Y-49462358D01*
X125380702Y-49475971D01*
X125374330Y-49481200D01*
X125370029Y-49483499D01*
X125365355Y-49484917D01*
X125354359Y-49486000D01*
X125065641Y-49486000D01*
X125054645Y-49484917D01*
X125049971Y-49483499D01*
X125045670Y-49481200D01*
X125039298Y-49475971D01*
X125018924Y-49462357D01*
X124996285Y-49452980D01*
X124972251Y-49448200D01*
X124947747Y-49448200D01*
X124923714Y-49452981D01*
X124901075Y-49462358D01*
X124880702Y-49475971D01*
X124874330Y-49481200D01*
X124870029Y-49483499D01*
X124865355Y-49484917D01*
X124854359Y-49486000D01*
X124565641Y-49486000D01*
X124554645Y-49484917D01*
X124549971Y-49483499D01*
X124545670Y-49481200D01*
X124539298Y-49475971D01*
X124518924Y-49462357D01*
X124496285Y-49452980D01*
X124472251Y-49448200D01*
X124447747Y-49448200D01*
X124423714Y-49452981D01*
X124401075Y-49462358D01*
X124380702Y-49475971D01*
X124374330Y-49481200D01*
X124370029Y-49483499D01*
X124365355Y-49484917D01*
X124354359Y-49486000D01*
X124065641Y-49486000D01*
X124054645Y-49484917D01*
X124049971Y-49483499D01*
X124045670Y-49481200D01*
X124039298Y-49475971D01*
X124018924Y-49462357D01*
X123996285Y-49452980D01*
X123972251Y-49448200D01*
X123947747Y-49448200D01*
X123923714Y-49452981D01*
X123901075Y-49462358D01*
X123880702Y-49475971D01*
X123874330Y-49481200D01*
X123870029Y-49483499D01*
X123865355Y-49484917D01*
X123854359Y-49486000D01*
X123565641Y-49486000D01*
X123554645Y-49484917D01*
X123549971Y-49483499D01*
X123545670Y-49481200D01*
X123539298Y-49475971D01*
X123518924Y-49462357D01*
X123496285Y-49452980D01*
X123472251Y-49448200D01*
X123447747Y-49448200D01*
X123423714Y-49452981D01*
X123401075Y-49462358D01*
X123380702Y-49475971D01*
X123374330Y-49481200D01*
X123370029Y-49483499D01*
X123365355Y-49484917D01*
X123354359Y-49486000D01*
X123065641Y-49486000D01*
X123054645Y-49484917D01*
X123049971Y-49483499D01*
X123045670Y-49481200D01*
X123039298Y-49475971D01*
X123018924Y-49462357D01*
X122996285Y-49452980D01*
X122972251Y-49448200D01*
X122947747Y-49448200D01*
X122923714Y-49452981D01*
X122901075Y-49462358D01*
X122880702Y-49475971D01*
X122874330Y-49481200D01*
X122870029Y-49483499D01*
X122865355Y-49484917D01*
X122854359Y-49486000D01*
X122635999Y-49486000D01*
X122611613Y-49488402D01*
X122588164Y-49495515D01*
X122566553Y-49507066D01*
X122547611Y-49522611D01*
X122532066Y-49541553D01*
X122520515Y-49563164D01*
X122513402Y-49586613D01*
X122511000Y-49610999D01*
X122511000Y-49829359D01*
X122509917Y-49840355D01*
X122508499Y-49845029D01*
X122506200Y-49849330D01*
X122500971Y-49855702D01*
X122487357Y-49876076D01*
X122477980Y-49898715D01*
X122473200Y-49922749D01*
X121571800Y-49922749D01*
X121571800Y-49922747D01*
X121567019Y-49898714D01*
X121557642Y-49876075D01*
X121544029Y-49855702D01*
X121538800Y-49849330D01*
X121536501Y-49845029D01*
X121535083Y-49840355D01*
X121534000Y-49829359D01*
X121534000Y-49540641D01*
X121535083Y-49529645D01*
X121536501Y-49524971D01*
X121538800Y-49520669D01*
X121541896Y-49516896D01*
X121545669Y-49513800D01*
X121549971Y-49511501D01*
X121554645Y-49510083D01*
X121565641Y-49509000D01*
X122409001Y-49509000D01*
X122433387Y-49506598D01*
X122456836Y-49499485D01*
X122478447Y-49487934D01*
X122497389Y-49472389D01*
X122512934Y-49453447D01*
X122524485Y-49431836D01*
X122531598Y-49408387D01*
X122534000Y-49384001D01*
X122534000Y-48540641D01*
X122535083Y-48529645D01*
X122536501Y-48524971D01*
X122538800Y-48520669D01*
X122541896Y-48516896D01*
X122545669Y-48513800D01*
X122549971Y-48511501D01*
X122554645Y-48510083D01*
X122565641Y-48509000D01*
X122854359Y-48509000D01*
X122865355Y-48510083D01*
X122865355Y-48510083D01*
G37*
G36*
X125937417Y-49837540D02*
G01*
X125966081Y-49846235D01*
X125992495Y-49860354D01*
X126015646Y-49879354D01*
X126034646Y-49902505D01*
X126048765Y-49928919D01*
X126057460Y-49957583D01*
X126061000Y-49993527D01*
X126061000Y-52876473D01*
X126057460Y-52912417D01*
X126048765Y-52941081D01*
X126034646Y-52967495D01*
X126015646Y-52990646D01*
X125992495Y-53009646D01*
X125966081Y-53023765D01*
X125937417Y-53032460D01*
X125901473Y-53036000D01*
X123018527Y-53036000D01*
X122982583Y-53032460D01*
X122953919Y-53023765D01*
X122927505Y-53009646D01*
X122904354Y-52990646D01*
X122885354Y-52967495D01*
X122871235Y-52941081D01*
X122862540Y-52912417D01*
X122859000Y-52876473D01*
X122859000Y-49993527D01*
X122862540Y-49957583D01*
X122871235Y-49928919D01*
X122885354Y-49902505D01*
X122904354Y-49879354D01*
X122927505Y-49860354D01*
X122953919Y-49846235D01*
X122982583Y-49837540D01*
X123018527Y-49834000D01*
X125901473Y-49834000D01*
X125937417Y-49837540D01*
X125937417Y-49837540D01*
G37*
G36*
X116111721Y-51413174D02*
G01*
X116211995Y-51454709D01*
X116236804Y-51471286D01*
X116302242Y-51515010D01*
X116378990Y-51591758D01*
X116409345Y-51637188D01*
X116439291Y-51682005D01*
X116480826Y-51782279D01*
X116502000Y-51888730D01*
X116502000Y-51997270D01*
X116480826Y-52103721D01*
X116439291Y-52203995D01*
X116439290Y-52203996D01*
X116378990Y-52294242D01*
X116302242Y-52370990D01*
X116294630Y-52376076D01*
X116211995Y-52431291D01*
X116111721Y-52472826D01*
X116005270Y-52494000D01*
X115896730Y-52494000D01*
X115790279Y-52472826D01*
X115690005Y-52431291D01*
X115607370Y-52376076D01*
X115599758Y-52370990D01*
X115523010Y-52294242D01*
X115462710Y-52203996D01*
X115462709Y-52203995D01*
X115421174Y-52103721D01*
X115400000Y-51997270D01*
X115400000Y-51888730D01*
X115421174Y-51782279D01*
X115462709Y-51682005D01*
X115492655Y-51637188D01*
X115523010Y-51591758D01*
X115599758Y-51515010D01*
X115665196Y-51471286D01*
X115690005Y-51454709D01*
X115790279Y-51413174D01*
X115896730Y-51392000D01*
X116005270Y-51392000D01*
X116111721Y-51413174D01*
X116111721Y-51413174D01*
G37*
G36*
X132029591Y-51178085D02*
G01*
X132063569Y-51188393D01*
X132094890Y-51205134D01*
X132122339Y-51227661D01*
X132144866Y-51255110D01*
X132161607Y-51286431D01*
X132171915Y-51320409D01*
X132176000Y-51361890D01*
X132176000Y-52038110D01*
X132171915Y-52079591D01*
X132161607Y-52113569D01*
X132144866Y-52144890D01*
X132122339Y-52172339D01*
X132094890Y-52194866D01*
X132063569Y-52211607D01*
X132029591Y-52221915D01*
X131988110Y-52226000D01*
X131386890Y-52226000D01*
X131345409Y-52221915D01*
X131311431Y-52211607D01*
X131280110Y-52194866D01*
X131252661Y-52172339D01*
X131230134Y-52144890D01*
X131213393Y-52113569D01*
X131203085Y-52079591D01*
X131199000Y-52038110D01*
X131199000Y-51361890D01*
X131203085Y-51320409D01*
X131213393Y-51286431D01*
X131230134Y-51255110D01*
X131252661Y-51227661D01*
X131280110Y-51205134D01*
X131311431Y-51188393D01*
X131345409Y-51178085D01*
X131386890Y-51174000D01*
X131988110Y-51174000D01*
X132029591Y-51178085D01*
X132029591Y-51178085D01*
G37*
G36*
X130454591Y-51178085D02*
G01*
X130488569Y-51188393D01*
X130519890Y-51205134D01*
X130547339Y-51227661D01*
X130569866Y-51255110D01*
X130586607Y-51286431D01*
X130596915Y-51320409D01*
X130601000Y-51361890D01*
X130601000Y-52038110D01*
X130596915Y-52079591D01*
X130586607Y-52113569D01*
X130569866Y-52144890D01*
X130547339Y-52172339D01*
X130519890Y-52194866D01*
X130488569Y-52211607D01*
X130454591Y-52221915D01*
X130413110Y-52226000D01*
X129811890Y-52226000D01*
X129770409Y-52221915D01*
X129736431Y-52211607D01*
X129705110Y-52194866D01*
X129677661Y-52172339D01*
X129655134Y-52144890D01*
X129638393Y-52113569D01*
X129628085Y-52079591D01*
X129624000Y-52038110D01*
X129624000Y-51361890D01*
X129628085Y-51320409D01*
X129638393Y-51286431D01*
X129655134Y-51255110D01*
X129677661Y-51227661D01*
X129705110Y-51205134D01*
X129736431Y-51188393D01*
X129770409Y-51178085D01*
X129811890Y-51174000D01*
X130413110Y-51174000D01*
X130454591Y-51178085D01*
X130454591Y-51178085D01*
G37*
G36*
X117588591Y-49516085D02*
G01*
X117622569Y-49526393D01*
X117653890Y-49543134D01*
X117681339Y-49565661D01*
X117703866Y-49593110D01*
X117720607Y-49624431D01*
X117730915Y-49658409D01*
X117735000Y-49699890D01*
X117735000Y-50376110D01*
X117730915Y-50417591D01*
X117720607Y-50451569D01*
X117703866Y-50482890D01*
X117681339Y-50510339D01*
X117653890Y-50532866D01*
X117622569Y-50549607D01*
X117588591Y-50559915D01*
X117547110Y-50564000D01*
X116945890Y-50564000D01*
X116904409Y-50559915D01*
X116870431Y-50549607D01*
X116839110Y-50532866D01*
X116811661Y-50510339D01*
X116789134Y-50482890D01*
X116772393Y-50451569D01*
X116762085Y-50417591D01*
X116758000Y-50376110D01*
X116758000Y-49699890D01*
X116762085Y-49658409D01*
X116772393Y-49624431D01*
X116789134Y-49593110D01*
X116811661Y-49565661D01*
X116839110Y-49543134D01*
X116870431Y-49526393D01*
X116904409Y-49516085D01*
X116945890Y-49512000D01*
X117547110Y-49512000D01*
X117588591Y-49516085D01*
X117588591Y-49516085D01*
G37*
G36*
X116013591Y-49516085D02*
G01*
X116047569Y-49526393D01*
X116078890Y-49543134D01*
X116106339Y-49565661D01*
X116128866Y-49593110D01*
X116145607Y-49624431D01*
X116155915Y-49658409D01*
X116160000Y-49699890D01*
X116160000Y-50376110D01*
X116155915Y-50417591D01*
X116145607Y-50451569D01*
X116128866Y-50482890D01*
X116106339Y-50510339D01*
X116078890Y-50532866D01*
X116047569Y-50549607D01*
X116013591Y-50559915D01*
X115972110Y-50564000D01*
X115370890Y-50564000D01*
X115329409Y-50559915D01*
X115295431Y-50549607D01*
X115264110Y-50532866D01*
X115236661Y-50510339D01*
X115214134Y-50482890D01*
X115197393Y-50451569D01*
X115187085Y-50417591D01*
X115183000Y-50376110D01*
X115183000Y-49699890D01*
X115187085Y-49658409D01*
X115197393Y-49624431D01*
X115214134Y-49593110D01*
X115236661Y-49565661D01*
X115264110Y-49543134D01*
X115295431Y-49526393D01*
X115329409Y-49516085D01*
X115370890Y-49512000D01*
X115972110Y-49512000D01*
X116013591Y-49516085D01*
X116013591Y-49516085D01*
G37*
G36*
X131516000Y-50216000D02*
G01*
X130084000Y-50216000D01*
X130084000Y-48384000D01*
X131516000Y-48384000D01*
X131516000Y-50216000D01*
X131516000Y-50216000D01*
G37*
G36*
X117588591Y-47865085D02*
G01*
X117622569Y-47875393D01*
X117653890Y-47892134D01*
X117681339Y-47914661D01*
X117703866Y-47942110D01*
X117720607Y-47973431D01*
X117730915Y-48007409D01*
X117735000Y-48048890D01*
X117735000Y-48725110D01*
X117730915Y-48766591D01*
X117720607Y-48800569D01*
X117703866Y-48831890D01*
X117681339Y-48859339D01*
X117653890Y-48881866D01*
X117622569Y-48898607D01*
X117588591Y-48908915D01*
X117547110Y-48913000D01*
X116945890Y-48913000D01*
X116904409Y-48908915D01*
X116870431Y-48898607D01*
X116839110Y-48881866D01*
X116811661Y-48859339D01*
X116789134Y-48831890D01*
X116772393Y-48800569D01*
X116762085Y-48766591D01*
X116758000Y-48725110D01*
X116758000Y-48048890D01*
X116762085Y-48007409D01*
X116772393Y-47973431D01*
X116789134Y-47942110D01*
X116811661Y-47914661D01*
X116839110Y-47892134D01*
X116870431Y-47875393D01*
X116904409Y-47865085D01*
X116945890Y-47861000D01*
X117547110Y-47861000D01*
X117588591Y-47865085D01*
X117588591Y-47865085D01*
G37*
G36*
X116013591Y-47865085D02*
G01*
X116047569Y-47875393D01*
X116078890Y-47892134D01*
X116106339Y-47914661D01*
X116128866Y-47942110D01*
X116145607Y-47973431D01*
X116155915Y-48007409D01*
X116160000Y-48048890D01*
X116160000Y-48725110D01*
X116155915Y-48766591D01*
X116145607Y-48800569D01*
X116128866Y-48831890D01*
X116106339Y-48859339D01*
X116078890Y-48881866D01*
X116047569Y-48898607D01*
X116013591Y-48908915D01*
X115972110Y-48913000D01*
X115370890Y-48913000D01*
X115329409Y-48908915D01*
X115295431Y-48898607D01*
X115264110Y-48881866D01*
X115236661Y-48859339D01*
X115214134Y-48831890D01*
X115197393Y-48800569D01*
X115187085Y-48766591D01*
X115183000Y-48725110D01*
X115183000Y-48048890D01*
X115187085Y-48007409D01*
X115197393Y-47973431D01*
X115214134Y-47942110D01*
X115236661Y-47914661D01*
X115264110Y-47892134D01*
X115295431Y-47875393D01*
X115329409Y-47865085D01*
X115370890Y-47861000D01*
X115972110Y-47861000D01*
X116013591Y-47865085D01*
X116013591Y-47865085D01*
G37*
G36*
X132029591Y-46778085D02*
G01*
X132063569Y-46788393D01*
X132094890Y-46805134D01*
X132122339Y-46827661D01*
X132144866Y-46855110D01*
X132161607Y-46886431D01*
X132171915Y-46920409D01*
X132176000Y-46961890D01*
X132176000Y-47638110D01*
X132171915Y-47679591D01*
X132161607Y-47713569D01*
X132144866Y-47744890D01*
X132122339Y-47772339D01*
X132094890Y-47794866D01*
X132063569Y-47811607D01*
X132029591Y-47821915D01*
X131988110Y-47826000D01*
X131386890Y-47826000D01*
X131345409Y-47821915D01*
X131311431Y-47811607D01*
X131280110Y-47794866D01*
X131252661Y-47772339D01*
X131230134Y-47744890D01*
X131213393Y-47713569D01*
X131203085Y-47679591D01*
X131199000Y-47638110D01*
X131199000Y-46961890D01*
X131203085Y-46920409D01*
X131213393Y-46886431D01*
X131230134Y-46855110D01*
X131252661Y-46827661D01*
X131280110Y-46805134D01*
X131311431Y-46788393D01*
X131345409Y-46778085D01*
X131386890Y-46774000D01*
X131988110Y-46774000D01*
X132029591Y-46778085D01*
X132029591Y-46778085D01*
G37*
G36*
X130454591Y-46778085D02*
G01*
X130488569Y-46788393D01*
X130519890Y-46805134D01*
X130547339Y-46827661D01*
X130569866Y-46855110D01*
X130586607Y-46886431D01*
X130596915Y-46920409D01*
X130601000Y-46961890D01*
X130601000Y-47638110D01*
X130596915Y-47679591D01*
X130586607Y-47713569D01*
X130569866Y-47744890D01*
X130547339Y-47772339D01*
X130519890Y-47794866D01*
X130488569Y-47811607D01*
X130454591Y-47821915D01*
X130413110Y-47826000D01*
X129811890Y-47826000D01*
X129770409Y-47821915D01*
X129736431Y-47811607D01*
X129705110Y-47794866D01*
X129677661Y-47772339D01*
X129655134Y-47744890D01*
X129638393Y-47713569D01*
X129628085Y-47679591D01*
X129624000Y-47638110D01*
X129624000Y-46961890D01*
X129628085Y-46920409D01*
X129638393Y-46886431D01*
X129655134Y-46855110D01*
X129677661Y-46827661D01*
X129705110Y-46805134D01*
X129736431Y-46788393D01*
X129770409Y-46778085D01*
X129811890Y-46774000D01*
X130413110Y-46774000D01*
X130454591Y-46778085D01*
X130454591Y-46778085D01*
G37*
G36*
X122567091Y-46214085D02*
G01*
X122601069Y-46224393D01*
X122632390Y-46241134D01*
X122659839Y-46263661D01*
X122682366Y-46291110D01*
X122699107Y-46322431D01*
X122709415Y-46356409D01*
X122713500Y-46397890D01*
X122713500Y-47074110D01*
X122709415Y-47115591D01*
X122699107Y-47149569D01*
X122682366Y-47180890D01*
X122659839Y-47208339D01*
X122632390Y-47230866D01*
X122601069Y-47247607D01*
X122567091Y-47257915D01*
X122525610Y-47262000D01*
X121924390Y-47262000D01*
X121882909Y-47257915D01*
X121848931Y-47247607D01*
X121817610Y-47230866D01*
X121790161Y-47208339D01*
X121767634Y-47180890D01*
X121750893Y-47149569D01*
X121740585Y-47115591D01*
X121736500Y-47074110D01*
X121736500Y-46397890D01*
X121740585Y-46356409D01*
X121750893Y-46322431D01*
X121767634Y-46291110D01*
X121790161Y-46263661D01*
X121817610Y-46241134D01*
X121848931Y-46224393D01*
X121882909Y-46214085D01*
X121924390Y-46210000D01*
X122525610Y-46210000D01*
X122567091Y-46214085D01*
X122567091Y-46214085D01*
G37*
G36*
X120992091Y-46214085D02*
G01*
X121026069Y-46224393D01*
X121057390Y-46241134D01*
X121084839Y-46263661D01*
X121107366Y-46291110D01*
X121124107Y-46322431D01*
X121134415Y-46356409D01*
X121138500Y-46397890D01*
X121138500Y-47074110D01*
X121134415Y-47115591D01*
X121124107Y-47149569D01*
X121107366Y-47180890D01*
X121084839Y-47208339D01*
X121057390Y-47230866D01*
X121026069Y-47247607D01*
X120992091Y-47257915D01*
X120950610Y-47262000D01*
X120349390Y-47262000D01*
X120307909Y-47257915D01*
X120273931Y-47247607D01*
X120242610Y-47230866D01*
X120215161Y-47208339D01*
X120192634Y-47180890D01*
X120175893Y-47149569D01*
X120165585Y-47115591D01*
X120161500Y-47074110D01*
X120161500Y-46397890D01*
X120165585Y-46356409D01*
X120175893Y-46322431D01*
X120192634Y-46291110D01*
X120215161Y-46263661D01*
X120242610Y-46241134D01*
X120273931Y-46224393D01*
X120307909Y-46214085D01*
X120349390Y-46210000D01*
X120950610Y-46210000D01*
X120992091Y-46214085D01*
X120992091Y-46214085D01*
G37*
G36*
X117588591Y-45325085D02*
G01*
X117622569Y-45335393D01*
X117653890Y-45352134D01*
X117681339Y-45374661D01*
X117703866Y-45402110D01*
X117720607Y-45433431D01*
X117730915Y-45467409D01*
X117735000Y-45508890D01*
X117735000Y-46185110D01*
X117730915Y-46226591D01*
X117720607Y-46260569D01*
X117703866Y-46291890D01*
X117681339Y-46319339D01*
X117653890Y-46341866D01*
X117622569Y-46358607D01*
X117588591Y-46368915D01*
X117547110Y-46373000D01*
X116945890Y-46373000D01*
X116904409Y-46368915D01*
X116870431Y-46358607D01*
X116839110Y-46341866D01*
X116811661Y-46319339D01*
X116789134Y-46291890D01*
X116772393Y-46260569D01*
X116762085Y-46226591D01*
X116758000Y-46185110D01*
X116758000Y-45508890D01*
X116762085Y-45467409D01*
X116772393Y-45433431D01*
X116789134Y-45402110D01*
X116811661Y-45374661D01*
X116839110Y-45352134D01*
X116870431Y-45335393D01*
X116904409Y-45325085D01*
X116945890Y-45321000D01*
X117547110Y-45321000D01*
X117588591Y-45325085D01*
X117588591Y-45325085D01*
G37*
G36*
X116013591Y-45325085D02*
G01*
X116047569Y-45335393D01*
X116078890Y-45352134D01*
X116106339Y-45374661D01*
X116128866Y-45402110D01*
X116145607Y-45433431D01*
X116155915Y-45467409D01*
X116160000Y-45508890D01*
X116160000Y-46185110D01*
X116155915Y-46226591D01*
X116145607Y-46260569D01*
X116128866Y-46291890D01*
X116106339Y-46319339D01*
X116078890Y-46341866D01*
X116047569Y-46358607D01*
X116013591Y-46368915D01*
X115972110Y-46373000D01*
X115370890Y-46373000D01*
X115329409Y-46368915D01*
X115295431Y-46358607D01*
X115264110Y-46341866D01*
X115236661Y-46319339D01*
X115214134Y-46291890D01*
X115197393Y-46260569D01*
X115187085Y-46226591D01*
X115183000Y-46185110D01*
X115183000Y-45508890D01*
X115187085Y-45467409D01*
X115197393Y-45433431D01*
X115214134Y-45402110D01*
X115236661Y-45374661D01*
X115264110Y-45352134D01*
X115295431Y-45335393D01*
X115329409Y-45325085D01*
X115370890Y-45321000D01*
X115972110Y-45321000D01*
X116013591Y-45325085D01*
X116013591Y-45325085D01*
G37*
G36*
X120992091Y-44690085D02*
G01*
X121026069Y-44700393D01*
X121057390Y-44717134D01*
X121084839Y-44739661D01*
X121107366Y-44767110D01*
X121124107Y-44798431D01*
X121134415Y-44832409D01*
X121138500Y-44873890D01*
X121138500Y-45550110D01*
X121134415Y-45591591D01*
X121124107Y-45625569D01*
X121107366Y-45656890D01*
X121084839Y-45684339D01*
X121057390Y-45706866D01*
X121026069Y-45723607D01*
X120992091Y-45733915D01*
X120950610Y-45738000D01*
X120349390Y-45738000D01*
X120307909Y-45733915D01*
X120273931Y-45723607D01*
X120242610Y-45706866D01*
X120215161Y-45684339D01*
X120192634Y-45656890D01*
X120175893Y-45625569D01*
X120165585Y-45591591D01*
X120161500Y-45550110D01*
X120161500Y-44873890D01*
X120165585Y-44832409D01*
X120175893Y-44798431D01*
X120192634Y-44767110D01*
X120215161Y-44739661D01*
X120242610Y-44717134D01*
X120273931Y-44700393D01*
X120307909Y-44690085D01*
X120349390Y-44686000D01*
X120950610Y-44686000D01*
X120992091Y-44690085D01*
X120992091Y-44690085D01*
G37*
G36*
X122567091Y-44690085D02*
G01*
X122601069Y-44700393D01*
X122632390Y-44717134D01*
X122659839Y-44739661D01*
X122682366Y-44767110D01*
X122699107Y-44798431D01*
X122709415Y-44832409D01*
X122713500Y-44873890D01*
X122713500Y-45550110D01*
X122709415Y-45591591D01*
X122699107Y-45625569D01*
X122682366Y-45656890D01*
X122659839Y-45684339D01*
X122632390Y-45706866D01*
X122601069Y-45723607D01*
X122567091Y-45733915D01*
X122525610Y-45738000D01*
X121924390Y-45738000D01*
X121882909Y-45733915D01*
X121848931Y-45723607D01*
X121817610Y-45706866D01*
X121790161Y-45684339D01*
X121767634Y-45656890D01*
X121750893Y-45625569D01*
X121740585Y-45591591D01*
X121736500Y-45550110D01*
X121736500Y-44873890D01*
X121740585Y-44832409D01*
X121750893Y-44798431D01*
X121767634Y-44767110D01*
X121790161Y-44739661D01*
X121817610Y-44717134D01*
X121848931Y-44700393D01*
X121882909Y-44690085D01*
X121924390Y-44686000D01*
X122525610Y-44686000D01*
X122567091Y-44690085D01*
X122567091Y-44690085D01*
G37*
G36*
X117588591Y-43674085D02*
G01*
X117622569Y-43684393D01*
X117653890Y-43701134D01*
X117681339Y-43723661D01*
X117703866Y-43751110D01*
X117720607Y-43782431D01*
X117730915Y-43816409D01*
X117735000Y-43857890D01*
X117735000Y-44534110D01*
X117730915Y-44575591D01*
X117720607Y-44609569D01*
X117703866Y-44640890D01*
X117681339Y-44668339D01*
X117653890Y-44690866D01*
X117622569Y-44707607D01*
X117588591Y-44717915D01*
X117547110Y-44722000D01*
X116945890Y-44722000D01*
X116904409Y-44717915D01*
X116870431Y-44707607D01*
X116839110Y-44690866D01*
X116811661Y-44668339D01*
X116789134Y-44640890D01*
X116772393Y-44609569D01*
X116762085Y-44575591D01*
X116758000Y-44534110D01*
X116758000Y-43857890D01*
X116762085Y-43816409D01*
X116772393Y-43782431D01*
X116789134Y-43751110D01*
X116811661Y-43723661D01*
X116839110Y-43701134D01*
X116870431Y-43684393D01*
X116904409Y-43674085D01*
X116945890Y-43670000D01*
X117547110Y-43670000D01*
X117588591Y-43674085D01*
X117588591Y-43674085D01*
G37*
G36*
X116013591Y-43674085D02*
G01*
X116047569Y-43684393D01*
X116078890Y-43701134D01*
X116106339Y-43723661D01*
X116128866Y-43751110D01*
X116145607Y-43782431D01*
X116155915Y-43816409D01*
X116160000Y-43857890D01*
X116160000Y-44534110D01*
X116155915Y-44575591D01*
X116145607Y-44609569D01*
X116128866Y-44640890D01*
X116106339Y-44668339D01*
X116078890Y-44690866D01*
X116047569Y-44707607D01*
X116013591Y-44717915D01*
X115972110Y-44722000D01*
X115370890Y-44722000D01*
X115329409Y-44717915D01*
X115295431Y-44707607D01*
X115264110Y-44690866D01*
X115236661Y-44668339D01*
X115214134Y-44640890D01*
X115197393Y-44609569D01*
X115187085Y-44575591D01*
X115183000Y-44534110D01*
X115183000Y-43857890D01*
X115187085Y-43816409D01*
X115197393Y-43782431D01*
X115214134Y-43751110D01*
X115236661Y-43723661D01*
X115264110Y-43701134D01*
X115295431Y-43684393D01*
X115329409Y-43674085D01*
X115370890Y-43670000D01*
X115972110Y-43670000D01*
X116013591Y-43674085D01*
X116013591Y-43674085D01*
G37*
G36*
X133256721Y-41634174D02*
G01*
X133356995Y-41675709D01*
X133356996Y-41675710D01*
X133447242Y-41736010D01*
X133523990Y-41812758D01*
X133540368Y-41837270D01*
X133584291Y-41903005D01*
X133625826Y-42003279D01*
X133647000Y-42109730D01*
X133647000Y-42218270D01*
X133625826Y-42324721D01*
X133584291Y-42424995D01*
X133584290Y-42424996D01*
X133523990Y-42515242D01*
X133447242Y-42591990D01*
X133401812Y-42622345D01*
X133356995Y-42652291D01*
X133256721Y-42693826D01*
X133150270Y-42715000D01*
X133041730Y-42715000D01*
X132935279Y-42693826D01*
X132835005Y-42652291D01*
X132790188Y-42622345D01*
X132744758Y-42591990D01*
X132668010Y-42515242D01*
X132607710Y-42424996D01*
X132607709Y-42424995D01*
X132566174Y-42324721D01*
X132545000Y-42218270D01*
X132545000Y-42109730D01*
X132566174Y-42003279D01*
X132607709Y-41903005D01*
X132651632Y-41837270D01*
X132668010Y-41812758D01*
X132744758Y-41736010D01*
X132835004Y-41675710D01*
X132835005Y-41675709D01*
X132935279Y-41634174D01*
X133041730Y-41613000D01*
X133150270Y-41613000D01*
X133256721Y-41634174D01*
X133256721Y-41634174D01*
G37*
G36*
X130970721Y-41634174D02*
G01*
X131070995Y-41675709D01*
X131070996Y-41675710D01*
X131161242Y-41736010D01*
X131237990Y-41812758D01*
X131254368Y-41837270D01*
X131298291Y-41903005D01*
X131339826Y-42003279D01*
X131361000Y-42109730D01*
X131361000Y-42218270D01*
X131339826Y-42324721D01*
X131298291Y-42424995D01*
X131298290Y-42424996D01*
X131237990Y-42515242D01*
X131161242Y-42591990D01*
X131115812Y-42622345D01*
X131070995Y-42652291D01*
X130970721Y-42693826D01*
X130864270Y-42715000D01*
X130755730Y-42715000D01*
X130649279Y-42693826D01*
X130549005Y-42652291D01*
X130504188Y-42622345D01*
X130458758Y-42591990D01*
X130382010Y-42515242D01*
X130321710Y-42424996D01*
X130321709Y-42424995D01*
X130280174Y-42324721D01*
X130259000Y-42218270D01*
X130259000Y-42109730D01*
X130280174Y-42003279D01*
X130321709Y-41903005D01*
X130365632Y-41837270D01*
X130382010Y-41812758D01*
X130458758Y-41736010D01*
X130549004Y-41675710D01*
X130549005Y-41675709D01*
X130649279Y-41634174D01*
X130755730Y-41613000D01*
X130864270Y-41613000D01*
X130970721Y-41634174D01*
X130970721Y-41634174D01*
G37*
G36*
X116111721Y-41253174D02*
G01*
X116211995Y-41294709D01*
X116211996Y-41294710D01*
X116302242Y-41355010D01*
X116378990Y-41431758D01*
X116378991Y-41431760D01*
X116439291Y-41522005D01*
X116480826Y-41622279D01*
X116502000Y-41728730D01*
X116502000Y-41837270D01*
X116480826Y-41943721D01*
X116439291Y-42043995D01*
X116439290Y-42043996D01*
X116378990Y-42134242D01*
X116302242Y-42210990D01*
X116256812Y-42241345D01*
X116211995Y-42271291D01*
X116111721Y-42312826D01*
X116005270Y-42334000D01*
X115896730Y-42334000D01*
X115790279Y-42312826D01*
X115690005Y-42271291D01*
X115645188Y-42241345D01*
X115599758Y-42210990D01*
X115523010Y-42134242D01*
X115462710Y-42043996D01*
X115462709Y-42043995D01*
X115421174Y-41943721D01*
X115400000Y-41837270D01*
X115400000Y-41728730D01*
X115421174Y-41622279D01*
X115462709Y-41522005D01*
X115523009Y-41431760D01*
X115523010Y-41431758D01*
X115599758Y-41355010D01*
X115690004Y-41294710D01*
X115690005Y-41294709D01*
X115790279Y-41253174D01*
X115896730Y-41232000D01*
X116005270Y-41232000D01*
X116111721Y-41253174D01*
X116111721Y-41253174D01*
G37*
G36*
X128211000Y-41921000D02*
G01*
X126609000Y-41921000D01*
X126609000Y-36819000D01*
X128211000Y-36819000D01*
X128211000Y-41921000D01*
X128211000Y-41921000D01*
G37*
G36*
X122311000Y-41921000D02*
G01*
X120709000Y-41921000D01*
X120709000Y-36819000D01*
X122311000Y-36819000D01*
X122311000Y-41921000D01*
X122311000Y-41921000D01*
G37*
G36*
X133717591Y-39610085D02*
G01*
X133751569Y-39620393D01*
X133782890Y-39637134D01*
X133810339Y-39659661D01*
X133832866Y-39687110D01*
X133849607Y-39718431D01*
X133859915Y-39752409D01*
X133864000Y-39793890D01*
X133864000Y-40470110D01*
X133859915Y-40511591D01*
X133849607Y-40545569D01*
X133832866Y-40576890D01*
X133810339Y-40604339D01*
X133782890Y-40626866D01*
X133751569Y-40643607D01*
X133717591Y-40653915D01*
X133676110Y-40658000D01*
X133074890Y-40658000D01*
X133033409Y-40653915D01*
X132999431Y-40643607D01*
X132968110Y-40626866D01*
X132940661Y-40604339D01*
X132918134Y-40576890D01*
X132901393Y-40545569D01*
X132891085Y-40511591D01*
X132887000Y-40470110D01*
X132887000Y-39793890D01*
X132891085Y-39752409D01*
X132901393Y-39718431D01*
X132918134Y-39687110D01*
X132940661Y-39659661D01*
X132968110Y-39637134D01*
X132999431Y-39620393D01*
X133033409Y-39610085D01*
X133074890Y-39606000D01*
X133676110Y-39606000D01*
X133717591Y-39610085D01*
X133717591Y-39610085D01*
G37*
G36*
X132142591Y-39610085D02*
G01*
X132176569Y-39620393D01*
X132207890Y-39637134D01*
X132235339Y-39659661D01*
X132257866Y-39687110D01*
X132274607Y-39718431D01*
X132284915Y-39752409D01*
X132289000Y-39793890D01*
X132289000Y-40470110D01*
X132284915Y-40511591D01*
X132274607Y-40545569D01*
X132257866Y-40576890D01*
X132235339Y-40604339D01*
X132207890Y-40626866D01*
X132176569Y-40643607D01*
X132142591Y-40653915D01*
X132101110Y-40658000D01*
X131499890Y-40658000D01*
X131458409Y-40653915D01*
X131424431Y-40643607D01*
X131393110Y-40626866D01*
X131365661Y-40604339D01*
X131343134Y-40576890D01*
X131326393Y-40545569D01*
X131316085Y-40511591D01*
X131312000Y-40470110D01*
X131312000Y-39793890D01*
X131316085Y-39752409D01*
X131326393Y-39718431D01*
X131343134Y-39687110D01*
X131365661Y-39659661D01*
X131393110Y-39637134D01*
X131424431Y-39620393D01*
X131458409Y-39610085D01*
X131499890Y-39606000D01*
X132101110Y-39606000D01*
X132142591Y-39610085D01*
X132142591Y-39610085D01*
G37*
G36*
X116111721Y-39221174D02*
G01*
X116211995Y-39262709D01*
X116211996Y-39262710D01*
X116302242Y-39323010D01*
X116378990Y-39399758D01*
X116378991Y-39399760D01*
X116439291Y-39490005D01*
X116480826Y-39590279D01*
X116502000Y-39696730D01*
X116502000Y-39805270D01*
X116480826Y-39911721D01*
X116439291Y-40011995D01*
X116439290Y-40011996D01*
X116378990Y-40102242D01*
X116302242Y-40178990D01*
X116256812Y-40209345D01*
X116211995Y-40239291D01*
X116111721Y-40280826D01*
X116005270Y-40302000D01*
X115896730Y-40302000D01*
X115790279Y-40280826D01*
X115690005Y-40239291D01*
X115645188Y-40209345D01*
X115599758Y-40178990D01*
X115523010Y-40102242D01*
X115462710Y-40011996D01*
X115462709Y-40011995D01*
X115421174Y-39911721D01*
X115400000Y-39805270D01*
X115400000Y-39696730D01*
X115421174Y-39590279D01*
X115462709Y-39490005D01*
X115523009Y-39399760D01*
X115523010Y-39399758D01*
X115599758Y-39323010D01*
X115690004Y-39262710D01*
X115690005Y-39262709D01*
X115790279Y-39221174D01*
X115896730Y-39200000D01*
X116005270Y-39200000D01*
X116111721Y-39221174D01*
X116111721Y-39221174D01*
G37*
G36*
X133256721Y-37189174D02*
G01*
X133356995Y-37230709D01*
X133356996Y-37230710D01*
X133447242Y-37291010D01*
X133523990Y-37367758D01*
X133523991Y-37367760D01*
X133584291Y-37458005D01*
X133625826Y-37558279D01*
X133647000Y-37664730D01*
X133647000Y-37773270D01*
X133625826Y-37879721D01*
X133584291Y-37979995D01*
X133584290Y-37979996D01*
X133523990Y-38070242D01*
X133447242Y-38146990D01*
X133401812Y-38177345D01*
X133356995Y-38207291D01*
X133256721Y-38248826D01*
X133150270Y-38270000D01*
X133041730Y-38270000D01*
X132935279Y-38248826D01*
X132835005Y-38207291D01*
X132790188Y-38177345D01*
X132744758Y-38146990D01*
X132668010Y-38070242D01*
X132607710Y-37979996D01*
X132607709Y-37979995D01*
X132566174Y-37879721D01*
X132545000Y-37773270D01*
X132545000Y-37664730D01*
X132566174Y-37558279D01*
X132607709Y-37458005D01*
X132668009Y-37367760D01*
X132668010Y-37367758D01*
X132744758Y-37291010D01*
X132835004Y-37230710D01*
X132835005Y-37230709D01*
X132935279Y-37189174D01*
X133041730Y-37168000D01*
X133150270Y-37168000D01*
X133256721Y-37189174D01*
X133256721Y-37189174D01*
G37*
G36*
X116111721Y-37189174D02*
G01*
X116211995Y-37230709D01*
X116211996Y-37230710D01*
X116302242Y-37291010D01*
X116378990Y-37367758D01*
X116378991Y-37367760D01*
X116439291Y-37458005D01*
X116480826Y-37558279D01*
X116502000Y-37664730D01*
X116502000Y-37773270D01*
X116480826Y-37879721D01*
X116439291Y-37979995D01*
X116439290Y-37979996D01*
X116378990Y-38070242D01*
X116302242Y-38146990D01*
X116256812Y-38177345D01*
X116211995Y-38207291D01*
X116111721Y-38248826D01*
X116005270Y-38270000D01*
X115896730Y-38270000D01*
X115790279Y-38248826D01*
X115690005Y-38207291D01*
X115645188Y-38177345D01*
X115599758Y-38146990D01*
X115523010Y-38070242D01*
X115462710Y-37979996D01*
X115462709Y-37979995D01*
X115421174Y-37879721D01*
X115400000Y-37773270D01*
X115400000Y-37664730D01*
X115421174Y-37558279D01*
X115462709Y-37458005D01*
X115523009Y-37367760D01*
X115523010Y-37367758D01*
X115599758Y-37291010D01*
X115690004Y-37230710D01*
X115690005Y-37230709D01*
X115790279Y-37189174D01*
X115896730Y-37168000D01*
X116005270Y-37168000D01*
X116111721Y-37189174D01*
X116111721Y-37189174D01*
G37*
G36*
X131443591Y-35837585D02*
G01*
X131477569Y-35847893D01*
X131508890Y-35864634D01*
X131536339Y-35887161D01*
X131558866Y-35914610D01*
X131575607Y-35945931D01*
X131585915Y-35979909D01*
X131590000Y-36021390D01*
X131590000Y-36622610D01*
X131585915Y-36664091D01*
X131575607Y-36698069D01*
X131558866Y-36729390D01*
X131536339Y-36756839D01*
X131508890Y-36779366D01*
X131477569Y-36796107D01*
X131443591Y-36806415D01*
X131402110Y-36810500D01*
X130725890Y-36810500D01*
X130684409Y-36806415D01*
X130650431Y-36796107D01*
X130619110Y-36779366D01*
X130591661Y-36756839D01*
X130569134Y-36729390D01*
X130552393Y-36698069D01*
X130542085Y-36664091D01*
X130538000Y-36622610D01*
X130538000Y-36021390D01*
X130542085Y-35979909D01*
X130552393Y-35945931D01*
X130569134Y-35914610D01*
X130591661Y-35887161D01*
X130619110Y-35864634D01*
X130650431Y-35847893D01*
X130684409Y-35837585D01*
X130725890Y-35833500D01*
X131402110Y-35833500D01*
X131443591Y-35837585D01*
X131443591Y-35837585D01*
G37*
G36*
X133256721Y-35157174D02*
G01*
X133356995Y-35198709D01*
X133390516Y-35221107D01*
X133447242Y-35259010D01*
X133523990Y-35335758D01*
X133523991Y-35335760D01*
X133584291Y-35426005D01*
X133625826Y-35526279D01*
X133647000Y-35632730D01*
X133647000Y-35741270D01*
X133625826Y-35847721D01*
X133584291Y-35947995D01*
X133584290Y-35947996D01*
X133523990Y-36038242D01*
X133447242Y-36114990D01*
X133401812Y-36145345D01*
X133356995Y-36175291D01*
X133256721Y-36216826D01*
X133150270Y-36238000D01*
X133041730Y-36238000D01*
X132935279Y-36216826D01*
X132835005Y-36175291D01*
X132790188Y-36145345D01*
X132744758Y-36114990D01*
X132668010Y-36038242D01*
X132607710Y-35947996D01*
X132607709Y-35947995D01*
X132566174Y-35847721D01*
X132545000Y-35741270D01*
X132545000Y-35632730D01*
X132566174Y-35526279D01*
X132607709Y-35426005D01*
X132668009Y-35335760D01*
X132668010Y-35335758D01*
X132744758Y-35259010D01*
X132801484Y-35221107D01*
X132835005Y-35198709D01*
X132935279Y-35157174D01*
X133041730Y-35136000D01*
X133150270Y-35136000D01*
X133256721Y-35157174D01*
X133256721Y-35157174D01*
G37*
G36*
X131443591Y-34262585D02*
G01*
X131477569Y-34272893D01*
X131508890Y-34289634D01*
X131536339Y-34312161D01*
X131558866Y-34339610D01*
X131575607Y-34370931D01*
X131585915Y-34404909D01*
X131590000Y-34446390D01*
X131590000Y-35047610D01*
X131585915Y-35089091D01*
X131575607Y-35123069D01*
X131558866Y-35154390D01*
X131536339Y-35181839D01*
X131508890Y-35204366D01*
X131477569Y-35221107D01*
X131443591Y-35231415D01*
X131402110Y-35235500D01*
X130725890Y-35235500D01*
X130684409Y-35231415D01*
X130650431Y-35221107D01*
X130619110Y-35204366D01*
X130591661Y-35181839D01*
X130569134Y-35154390D01*
X130552393Y-35123069D01*
X130542085Y-35089091D01*
X130538000Y-35047610D01*
X130538000Y-34446390D01*
X130542085Y-34404909D01*
X130552393Y-34370931D01*
X130569134Y-34339610D01*
X130591661Y-34312161D01*
X130619110Y-34289634D01*
X130650431Y-34272893D01*
X130684409Y-34262585D01*
X130725890Y-34258500D01*
X131402110Y-34258500D01*
X131443591Y-34262585D01*
X131443591Y-34262585D01*
G37*
G36*
X126879591Y-32815085D02*
G01*
X126913569Y-32825393D01*
X126944890Y-32842134D01*
X126972339Y-32864661D01*
X126994866Y-32892110D01*
X127011607Y-32923431D01*
X127021915Y-32957409D01*
X127026000Y-32998890D01*
X127026000Y-33600110D01*
X127021915Y-33641591D01*
X127011607Y-33675569D01*
X126994866Y-33706890D01*
X126972339Y-33734339D01*
X126944890Y-33756866D01*
X126913569Y-33773607D01*
X126879591Y-33783915D01*
X126838110Y-33788000D01*
X126161890Y-33788000D01*
X126120409Y-33783915D01*
X126086431Y-33773607D01*
X126055110Y-33756866D01*
X126027661Y-33734339D01*
X126005134Y-33706890D01*
X125988393Y-33675569D01*
X125978085Y-33641591D01*
X125974000Y-33600110D01*
X125974000Y-32998890D01*
X125978085Y-32957409D01*
X125988393Y-32923431D01*
X126005134Y-32892110D01*
X126027661Y-32864661D01*
X126055110Y-32842134D01*
X126086431Y-32825393D01*
X126120409Y-32815085D01*
X126161890Y-32811000D01*
X126838110Y-32811000D01*
X126879591Y-32815085D01*
X126879591Y-32815085D01*
G37*
G36*
X125279591Y-32815085D02*
G01*
X125313569Y-32825393D01*
X125344890Y-32842134D01*
X125372339Y-32864661D01*
X125394866Y-32892110D01*
X125411607Y-32923431D01*
X125421915Y-32957409D01*
X125426000Y-32998890D01*
X125426000Y-33600110D01*
X125421915Y-33641591D01*
X125411607Y-33675569D01*
X125394866Y-33706890D01*
X125372339Y-33734339D01*
X125344890Y-33756866D01*
X125313569Y-33773607D01*
X125279591Y-33783915D01*
X125238110Y-33788000D01*
X124561890Y-33788000D01*
X124520409Y-33783915D01*
X124486431Y-33773607D01*
X124455110Y-33756866D01*
X124427661Y-33734339D01*
X124405134Y-33706890D01*
X124388393Y-33675569D01*
X124378085Y-33641591D01*
X124374000Y-33600110D01*
X124374000Y-32998890D01*
X124378085Y-32957409D01*
X124388393Y-32923431D01*
X124405134Y-32892110D01*
X124427661Y-32864661D01*
X124455110Y-32842134D01*
X124486431Y-32825393D01*
X124520409Y-32815085D01*
X124561890Y-32811000D01*
X125238110Y-32811000D01*
X125279591Y-32815085D01*
X125279591Y-32815085D01*
G37*
G36*
X121537591Y-32815085D02*
G01*
X121571569Y-32825393D01*
X121602890Y-32842134D01*
X121630339Y-32864661D01*
X121652866Y-32892110D01*
X121669607Y-32923431D01*
X121679915Y-32957409D01*
X121684000Y-32998890D01*
X121684000Y-33600110D01*
X121679915Y-33641591D01*
X121669607Y-33675569D01*
X121652866Y-33706890D01*
X121630339Y-33734339D01*
X121602890Y-33756866D01*
X121571569Y-33773607D01*
X121537591Y-33783915D01*
X121496110Y-33788000D01*
X120819890Y-33788000D01*
X120778409Y-33783915D01*
X120744431Y-33773607D01*
X120713110Y-33756866D01*
X120685661Y-33734339D01*
X120663134Y-33706890D01*
X120646393Y-33675569D01*
X120636085Y-33641591D01*
X120632000Y-33600110D01*
X120632000Y-32998890D01*
X120636085Y-32957409D01*
X120646393Y-32923431D01*
X120663134Y-32892110D01*
X120685661Y-32864661D01*
X120713110Y-32842134D01*
X120744431Y-32825393D01*
X120778409Y-32815085D01*
X120819890Y-32811000D01*
X121496110Y-32811000D01*
X121537591Y-32815085D01*
X121537591Y-32815085D01*
G37*
G36*
X128395591Y-32815085D02*
G01*
X128429569Y-32825393D01*
X128460890Y-32842134D01*
X128488339Y-32864661D01*
X128510866Y-32892110D01*
X128527607Y-32923431D01*
X128537915Y-32957409D01*
X128542000Y-32998890D01*
X128542000Y-33600110D01*
X128537915Y-33641591D01*
X128527607Y-33675569D01*
X128510866Y-33706890D01*
X128488339Y-33734339D01*
X128460890Y-33756866D01*
X128429569Y-33773607D01*
X128395591Y-33783915D01*
X128354110Y-33788000D01*
X127677890Y-33788000D01*
X127636409Y-33783915D01*
X127602431Y-33773607D01*
X127571110Y-33756866D01*
X127543661Y-33734339D01*
X127521134Y-33706890D01*
X127504393Y-33675569D01*
X127494085Y-33641591D01*
X127490000Y-33600110D01*
X127490000Y-32998890D01*
X127494085Y-32957409D01*
X127504393Y-32923431D01*
X127521134Y-32892110D01*
X127543661Y-32864661D01*
X127571110Y-32842134D01*
X127602431Y-32825393D01*
X127636409Y-32815085D01*
X127677890Y-32811000D01*
X128354110Y-32811000D01*
X128395591Y-32815085D01*
X128395591Y-32815085D01*
G37*
G36*
X129919591Y-32815085D02*
G01*
X129953569Y-32825393D01*
X129984890Y-32842134D01*
X130012339Y-32864661D01*
X130034866Y-32892110D01*
X130051607Y-32923431D01*
X130061915Y-32957409D01*
X130066000Y-32998890D01*
X130066000Y-33600110D01*
X130061915Y-33641591D01*
X130051607Y-33675569D01*
X130034866Y-33706890D01*
X130012339Y-33734339D01*
X129984890Y-33756866D01*
X129953569Y-33773607D01*
X129919591Y-33783915D01*
X129878110Y-33788000D01*
X129201890Y-33788000D01*
X129160409Y-33783915D01*
X129126431Y-33773607D01*
X129095110Y-33756866D01*
X129067661Y-33734339D01*
X129045134Y-33706890D01*
X129028393Y-33675569D01*
X129018085Y-33641591D01*
X129014000Y-33600110D01*
X129014000Y-32998890D01*
X129018085Y-32957409D01*
X129028393Y-32923431D01*
X129045134Y-32892110D01*
X129067661Y-32864661D01*
X129095110Y-32842134D01*
X129126431Y-32825393D01*
X129160409Y-32815085D01*
X129201890Y-32811000D01*
X129878110Y-32811000D01*
X129919591Y-32815085D01*
X129919591Y-32815085D01*
G37*
G36*
X131443591Y-32815085D02*
G01*
X131477569Y-32825393D01*
X131508890Y-32842134D01*
X131536339Y-32864661D01*
X131558866Y-32892110D01*
X131575607Y-32923431D01*
X131585915Y-32957409D01*
X131590000Y-32998890D01*
X131590000Y-33600110D01*
X131585915Y-33641591D01*
X131575607Y-33675569D01*
X131558866Y-33706890D01*
X131536339Y-33734339D01*
X131508890Y-33756866D01*
X131477569Y-33773607D01*
X131443591Y-33783915D01*
X131402110Y-33788000D01*
X130725890Y-33788000D01*
X130684409Y-33783915D01*
X130650431Y-33773607D01*
X130619110Y-33756866D01*
X130591661Y-33734339D01*
X130569134Y-33706890D01*
X130552393Y-33675569D01*
X130542085Y-33641591D01*
X130538000Y-33600110D01*
X130538000Y-32998890D01*
X130542085Y-32957409D01*
X130552393Y-32923431D01*
X130569134Y-32892110D01*
X130591661Y-32864661D01*
X130619110Y-32842134D01*
X130650431Y-32825393D01*
X130684409Y-32815085D01*
X130725890Y-32811000D01*
X131402110Y-32811000D01*
X131443591Y-32815085D01*
X131443591Y-32815085D01*
G37*
G36*
X120013591Y-32815085D02*
G01*
X120047569Y-32825393D01*
X120078890Y-32842134D01*
X120106339Y-32864661D01*
X120128866Y-32892110D01*
X120145607Y-32923431D01*
X120155915Y-32957409D01*
X120160000Y-32998890D01*
X120160000Y-33600110D01*
X120155915Y-33641591D01*
X120145607Y-33675569D01*
X120128866Y-33706890D01*
X120106339Y-33734339D01*
X120078890Y-33756866D01*
X120047569Y-33773607D01*
X120013591Y-33783915D01*
X119972110Y-33788000D01*
X119295890Y-33788000D01*
X119254409Y-33783915D01*
X119220431Y-33773607D01*
X119189110Y-33756866D01*
X119161661Y-33734339D01*
X119139134Y-33706890D01*
X119122393Y-33675569D01*
X119112085Y-33641591D01*
X119108000Y-33600110D01*
X119108000Y-32998890D01*
X119112085Y-32957409D01*
X119122393Y-32923431D01*
X119139134Y-32892110D01*
X119161661Y-32864661D01*
X119189110Y-32842134D01*
X119220431Y-32825393D01*
X119254409Y-32815085D01*
X119295890Y-32811000D01*
X119972110Y-32811000D01*
X120013591Y-32815085D01*
X120013591Y-32815085D01*
G37*
G36*
X118489591Y-32815085D02*
G01*
X118523569Y-32825393D01*
X118554890Y-32842134D01*
X118582339Y-32864661D01*
X118604866Y-32892110D01*
X118621607Y-32923431D01*
X118631915Y-32957409D01*
X118636000Y-32998890D01*
X118636000Y-33600110D01*
X118631915Y-33641591D01*
X118621607Y-33675569D01*
X118604866Y-33706890D01*
X118582339Y-33734339D01*
X118554890Y-33756866D01*
X118523569Y-33773607D01*
X118489591Y-33783915D01*
X118448110Y-33788000D01*
X117771890Y-33788000D01*
X117730409Y-33783915D01*
X117696431Y-33773607D01*
X117665110Y-33756866D01*
X117637661Y-33734339D01*
X117615134Y-33706890D01*
X117598393Y-33675569D01*
X117588085Y-33641591D01*
X117584000Y-33600110D01*
X117584000Y-32998890D01*
X117588085Y-32957409D01*
X117598393Y-32923431D01*
X117615134Y-32892110D01*
X117637661Y-32864661D01*
X117665110Y-32842134D01*
X117696431Y-32825393D01*
X117730409Y-32815085D01*
X117771890Y-32811000D01*
X118448110Y-32811000D01*
X118489591Y-32815085D01*
X118489591Y-32815085D01*
G37*
G36*
X131443591Y-31240085D02*
G01*
X131477569Y-31250393D01*
X131508890Y-31267134D01*
X131536339Y-31289661D01*
X131558866Y-31317110D01*
X131575607Y-31348431D01*
X131585915Y-31382409D01*
X131590000Y-31423890D01*
X131590000Y-32025110D01*
X131585915Y-32066591D01*
X131575607Y-32100569D01*
X131558866Y-32131890D01*
X131536339Y-32159339D01*
X131508890Y-32181866D01*
X131477569Y-32198607D01*
X131443591Y-32208915D01*
X131402110Y-32213000D01*
X130725890Y-32213000D01*
X130684409Y-32208915D01*
X130650431Y-32198607D01*
X130619110Y-32181866D01*
X130591661Y-32159339D01*
X130569134Y-32131890D01*
X130552393Y-32100569D01*
X130542085Y-32066591D01*
X130538000Y-32025110D01*
X130538000Y-31423890D01*
X130542085Y-31382409D01*
X130552393Y-31348431D01*
X130569134Y-31317110D01*
X130591661Y-31289661D01*
X130619110Y-31267134D01*
X130650431Y-31250393D01*
X130684409Y-31240085D01*
X130725890Y-31236000D01*
X131402110Y-31236000D01*
X131443591Y-31240085D01*
X131443591Y-31240085D01*
G37*
G36*
X120013591Y-31240085D02*
G01*
X120047569Y-31250393D01*
X120078890Y-31267134D01*
X120106339Y-31289661D01*
X120128866Y-31317110D01*
X120145607Y-31348431D01*
X120155915Y-31382409D01*
X120160000Y-31423890D01*
X120160000Y-32025110D01*
X120155915Y-32066591D01*
X120145607Y-32100569D01*
X120128866Y-32131890D01*
X120106339Y-32159339D01*
X120078890Y-32181866D01*
X120047569Y-32198607D01*
X120013591Y-32208915D01*
X119972110Y-32213000D01*
X119295890Y-32213000D01*
X119254409Y-32208915D01*
X119220431Y-32198607D01*
X119189110Y-32181866D01*
X119161661Y-32159339D01*
X119139134Y-32131890D01*
X119122393Y-32100569D01*
X119112085Y-32066591D01*
X119108000Y-32025110D01*
X119108000Y-31423890D01*
X119112085Y-31382409D01*
X119122393Y-31348431D01*
X119139134Y-31317110D01*
X119161661Y-31289661D01*
X119189110Y-31267134D01*
X119220431Y-31250393D01*
X119254409Y-31240085D01*
X119295890Y-31236000D01*
X119972110Y-31236000D01*
X120013591Y-31240085D01*
X120013591Y-31240085D01*
G37*
G36*
X125279591Y-31240085D02*
G01*
X125313569Y-31250393D01*
X125344890Y-31267134D01*
X125372339Y-31289661D01*
X125394866Y-31317110D01*
X125411607Y-31348431D01*
X125421915Y-31382409D01*
X125426000Y-31423890D01*
X125426000Y-32025110D01*
X125421915Y-32066591D01*
X125411607Y-32100569D01*
X125394866Y-32131890D01*
X125372339Y-32159339D01*
X125344890Y-32181866D01*
X125313569Y-32198607D01*
X125279591Y-32208915D01*
X125238110Y-32213000D01*
X124561890Y-32213000D01*
X124520409Y-32208915D01*
X124486431Y-32198607D01*
X124455110Y-32181866D01*
X124427661Y-32159339D01*
X124405134Y-32131890D01*
X124388393Y-32100569D01*
X124378085Y-32066591D01*
X124374000Y-32025110D01*
X124374000Y-31423890D01*
X124378085Y-31382409D01*
X124388393Y-31348431D01*
X124405134Y-31317110D01*
X124427661Y-31289661D01*
X124455110Y-31267134D01*
X124486431Y-31250393D01*
X124520409Y-31240085D01*
X124561890Y-31236000D01*
X125238110Y-31236000D01*
X125279591Y-31240085D01*
X125279591Y-31240085D01*
G37*
G36*
X126879591Y-31240085D02*
G01*
X126913569Y-31250393D01*
X126944890Y-31267134D01*
X126972339Y-31289661D01*
X126994866Y-31317110D01*
X127011607Y-31348431D01*
X127021915Y-31382409D01*
X127026000Y-31423890D01*
X127026000Y-32025110D01*
X127021915Y-32066591D01*
X127011607Y-32100569D01*
X126994866Y-32131890D01*
X126972339Y-32159339D01*
X126944890Y-32181866D01*
X126913569Y-32198607D01*
X126879591Y-32208915D01*
X126838110Y-32213000D01*
X126161890Y-32213000D01*
X126120409Y-32208915D01*
X126086431Y-32198607D01*
X126055110Y-32181866D01*
X126027661Y-32159339D01*
X126005134Y-32131890D01*
X125988393Y-32100569D01*
X125978085Y-32066591D01*
X125974000Y-32025110D01*
X125974000Y-31423890D01*
X125978085Y-31382409D01*
X125988393Y-31348431D01*
X126005134Y-31317110D01*
X126027661Y-31289661D01*
X126055110Y-31267134D01*
X126086431Y-31250393D01*
X126120409Y-31240085D01*
X126161890Y-31236000D01*
X126838110Y-31236000D01*
X126879591Y-31240085D01*
X126879591Y-31240085D01*
G37*
G36*
X118489591Y-31240085D02*
G01*
X118523569Y-31250393D01*
X118554890Y-31267134D01*
X118582339Y-31289661D01*
X118604866Y-31317110D01*
X118621607Y-31348431D01*
X118631915Y-31382409D01*
X118636000Y-31423890D01*
X118636000Y-32025110D01*
X118631915Y-32066591D01*
X118621607Y-32100569D01*
X118604866Y-32131890D01*
X118582339Y-32159339D01*
X118554890Y-32181866D01*
X118523569Y-32198607D01*
X118489591Y-32208915D01*
X118448110Y-32213000D01*
X117771890Y-32213000D01*
X117730409Y-32208915D01*
X117696431Y-32198607D01*
X117665110Y-32181866D01*
X117637661Y-32159339D01*
X117615134Y-32131890D01*
X117598393Y-32100569D01*
X117588085Y-32066591D01*
X117584000Y-32025110D01*
X117584000Y-31423890D01*
X117588085Y-31382409D01*
X117598393Y-31348431D01*
X117615134Y-31317110D01*
X117637661Y-31289661D01*
X117665110Y-31267134D01*
X117696431Y-31250393D01*
X117730409Y-31240085D01*
X117771890Y-31236000D01*
X118448110Y-31236000D01*
X118489591Y-31240085D01*
X118489591Y-31240085D01*
G37*
G36*
X128395591Y-31240085D02*
G01*
X128429569Y-31250393D01*
X128460890Y-31267134D01*
X128488339Y-31289661D01*
X128510866Y-31317110D01*
X128527607Y-31348431D01*
X128537915Y-31382409D01*
X128542000Y-31423890D01*
X128542000Y-32025110D01*
X128537915Y-32066591D01*
X128527607Y-32100569D01*
X128510866Y-32131890D01*
X128488339Y-32159339D01*
X128460890Y-32181866D01*
X128429569Y-32198607D01*
X128395591Y-32208915D01*
X128354110Y-32213000D01*
X127677890Y-32213000D01*
X127636409Y-32208915D01*
X127602431Y-32198607D01*
X127571110Y-32181866D01*
X127543661Y-32159339D01*
X127521134Y-32131890D01*
X127504393Y-32100569D01*
X127494085Y-32066591D01*
X127490000Y-32025110D01*
X127490000Y-31423890D01*
X127494085Y-31382409D01*
X127504393Y-31348431D01*
X127521134Y-31317110D01*
X127543661Y-31289661D01*
X127571110Y-31267134D01*
X127602431Y-31250393D01*
X127636409Y-31240085D01*
X127677890Y-31236000D01*
X128354110Y-31236000D01*
X128395591Y-31240085D01*
X128395591Y-31240085D01*
G37*
G36*
X129919591Y-31240085D02*
G01*
X129953569Y-31250393D01*
X129984890Y-31267134D01*
X130012339Y-31289661D01*
X130034866Y-31317110D01*
X130051607Y-31348431D01*
X130061915Y-31382409D01*
X130066000Y-31423890D01*
X130066000Y-32025110D01*
X130061915Y-32066591D01*
X130051607Y-32100569D01*
X130034866Y-32131890D01*
X130012339Y-32159339D01*
X129984890Y-32181866D01*
X129953569Y-32198607D01*
X129919591Y-32208915D01*
X129878110Y-32213000D01*
X129201890Y-32213000D01*
X129160409Y-32208915D01*
X129126431Y-32198607D01*
X129095110Y-32181866D01*
X129067661Y-32159339D01*
X129045134Y-32131890D01*
X129028393Y-32100569D01*
X129018085Y-32066591D01*
X129014000Y-32025110D01*
X129014000Y-31423890D01*
X129018085Y-31382409D01*
X129028393Y-31348431D01*
X129045134Y-31317110D01*
X129067661Y-31289661D01*
X129095110Y-31267134D01*
X129126431Y-31250393D01*
X129160409Y-31240085D01*
X129201890Y-31236000D01*
X129878110Y-31236000D01*
X129919591Y-31240085D01*
X129919591Y-31240085D01*
G37*
G36*
X121537591Y-31240085D02*
G01*
X121571569Y-31250393D01*
X121602890Y-31267134D01*
X121630339Y-31289661D01*
X121652866Y-31317110D01*
X121669607Y-31348431D01*
X121679915Y-31382409D01*
X121684000Y-31423890D01*
X121684000Y-32025110D01*
X121679915Y-32066591D01*
X121669607Y-32100569D01*
X121652866Y-32131890D01*
X121630339Y-32159339D01*
X121602890Y-32181866D01*
X121571569Y-32198607D01*
X121537591Y-32208915D01*
X121496110Y-32213000D01*
X120819890Y-32213000D01*
X120778409Y-32208915D01*
X120744431Y-32198607D01*
X120713110Y-32181866D01*
X120685661Y-32159339D01*
X120663134Y-32131890D01*
X120646393Y-32100569D01*
X120636085Y-32066591D01*
X120632000Y-32025110D01*
X120632000Y-31423890D01*
X120636085Y-31382409D01*
X120646393Y-31348431D01*
X120663134Y-31317110D01*
X120685661Y-31289661D01*
X120713110Y-31267134D01*
X120744431Y-31250393D01*
X120778409Y-31240085D01*
X120819890Y-31236000D01*
X121496110Y-31236000D01*
X121537591Y-31240085D01*
X121537591Y-31240085D01*
G37*
G36*
X128380442Y-28315518D02*
G01*
X128446627Y-28322037D01*
X128616466Y-28373557D01*
X128772991Y-28457222D01*
X128808729Y-28486552D01*
X128910186Y-28569814D01*
X128993448Y-28671271D01*
X129022778Y-28707009D01*
X129106443Y-28863534D01*
X129157963Y-29033373D01*
X129175359Y-29210000D01*
X129157963Y-29386627D01*
X129106443Y-29556466D01*
X129022778Y-29712991D01*
X128993448Y-29748729D01*
X128910186Y-29850186D01*
X128808729Y-29933448D01*
X128772991Y-29962778D01*
X128616466Y-30046443D01*
X128446627Y-30097963D01*
X128380442Y-30104482D01*
X128314260Y-30111000D01*
X128225740Y-30111000D01*
X128159558Y-30104482D01*
X128093373Y-30097963D01*
X127923534Y-30046443D01*
X127767009Y-29962778D01*
X127731271Y-29933448D01*
X127629814Y-29850186D01*
X127546552Y-29748729D01*
X127517222Y-29712991D01*
X127433557Y-29556466D01*
X127382037Y-29386627D01*
X127364641Y-29210000D01*
X127382037Y-29033373D01*
X127433557Y-28863534D01*
X127517222Y-28707009D01*
X127546552Y-28671271D01*
X127629814Y-28569814D01*
X127731271Y-28486552D01*
X127767009Y-28457222D01*
X127923534Y-28373557D01*
X128093373Y-28322037D01*
X128159558Y-28315518D01*
X128225740Y-28309000D01*
X128314260Y-28309000D01*
X128380442Y-28315518D01*
X128380442Y-28315518D01*
G37*
G36*
X130920442Y-28315518D02*
G01*
X130986627Y-28322037D01*
X131156466Y-28373557D01*
X131312991Y-28457222D01*
X131348729Y-28486552D01*
X131450186Y-28569814D01*
X131533448Y-28671271D01*
X131562778Y-28707009D01*
X131646443Y-28863534D01*
X131697963Y-29033373D01*
X131715359Y-29210000D01*
X131697963Y-29386627D01*
X131646443Y-29556466D01*
X131562778Y-29712991D01*
X131533448Y-29748729D01*
X131450186Y-29850186D01*
X131348729Y-29933448D01*
X131312991Y-29962778D01*
X131156466Y-30046443D01*
X130986627Y-30097963D01*
X130920442Y-30104482D01*
X130854260Y-30111000D01*
X130765740Y-30111000D01*
X130699558Y-30104482D01*
X130633373Y-30097963D01*
X130463534Y-30046443D01*
X130307009Y-29962778D01*
X130271271Y-29933448D01*
X130169814Y-29850186D01*
X130086552Y-29748729D01*
X130057222Y-29712991D01*
X129973557Y-29556466D01*
X129922037Y-29386627D01*
X129904641Y-29210000D01*
X129922037Y-29033373D01*
X129973557Y-28863534D01*
X130057222Y-28707009D01*
X130086552Y-28671271D01*
X130169814Y-28569814D01*
X130271271Y-28486552D01*
X130307009Y-28457222D01*
X130463534Y-28373557D01*
X130633373Y-28322037D01*
X130699558Y-28315518D01*
X130765740Y-28309000D01*
X130854260Y-28309000D01*
X130920442Y-28315518D01*
X130920442Y-28315518D01*
G37*
G36*
X119011000Y-30111000D02*
G01*
X117209000Y-30111000D01*
X117209000Y-28309000D01*
X119011000Y-28309000D01*
X119011000Y-30111000D01*
X119011000Y-30111000D01*
G37*
G36*
X120760442Y-28315518D02*
G01*
X120826627Y-28322037D01*
X120996466Y-28373557D01*
X121152991Y-28457222D01*
X121188729Y-28486552D01*
X121290186Y-28569814D01*
X121373448Y-28671271D01*
X121402778Y-28707009D01*
X121486443Y-28863534D01*
X121537963Y-29033373D01*
X121555359Y-29210000D01*
X121537963Y-29386627D01*
X121486443Y-29556466D01*
X121402778Y-29712991D01*
X121373448Y-29748729D01*
X121290186Y-29850186D01*
X121188729Y-29933448D01*
X121152991Y-29962778D01*
X120996466Y-30046443D01*
X120826627Y-30097963D01*
X120760442Y-30104482D01*
X120694260Y-30111000D01*
X120605740Y-30111000D01*
X120539558Y-30104482D01*
X120473373Y-30097963D01*
X120303534Y-30046443D01*
X120147009Y-29962778D01*
X120111271Y-29933448D01*
X120009814Y-29850186D01*
X119926552Y-29748729D01*
X119897222Y-29712991D01*
X119813557Y-29556466D01*
X119762037Y-29386627D01*
X119744641Y-29210000D01*
X119762037Y-29033373D01*
X119813557Y-28863534D01*
X119897222Y-28707009D01*
X119926552Y-28671271D01*
X120009814Y-28569814D01*
X120111271Y-28486552D01*
X120147009Y-28457222D01*
X120303534Y-28373557D01*
X120473373Y-28322037D01*
X120539558Y-28315518D01*
X120605740Y-28309000D01*
X120694260Y-28309000D01*
X120760442Y-28315518D01*
X120760442Y-28315518D01*
G37*
G36*
X123300442Y-28315518D02*
G01*
X123366627Y-28322037D01*
X123536466Y-28373557D01*
X123692991Y-28457222D01*
X123728729Y-28486552D01*
X123830186Y-28569814D01*
X123913448Y-28671271D01*
X123942778Y-28707009D01*
X124026443Y-28863534D01*
X124077963Y-29033373D01*
X124095359Y-29210000D01*
X124077963Y-29386627D01*
X124026443Y-29556466D01*
X123942778Y-29712991D01*
X123913448Y-29748729D01*
X123830186Y-29850186D01*
X123728729Y-29933448D01*
X123692991Y-29962778D01*
X123536466Y-30046443D01*
X123366627Y-30097963D01*
X123300442Y-30104482D01*
X123234260Y-30111000D01*
X123145740Y-30111000D01*
X123079558Y-30104482D01*
X123013373Y-30097963D01*
X122843534Y-30046443D01*
X122687009Y-29962778D01*
X122651271Y-29933448D01*
X122549814Y-29850186D01*
X122466552Y-29748729D01*
X122437222Y-29712991D01*
X122353557Y-29556466D01*
X122302037Y-29386627D01*
X122284641Y-29210000D01*
X122302037Y-29033373D01*
X122353557Y-28863534D01*
X122437222Y-28707009D01*
X122466552Y-28671271D01*
X122549814Y-28569814D01*
X122651271Y-28486552D01*
X122687009Y-28457222D01*
X122843534Y-28373557D01*
X123013373Y-28322037D01*
X123079558Y-28315518D01*
X123145740Y-28309000D01*
X123234260Y-28309000D01*
X123300442Y-28315518D01*
X123300442Y-28315518D01*
G37*
G36*
X125840442Y-28315518D02*
G01*
X125906627Y-28322037D01*
X126076466Y-28373557D01*
X126232991Y-28457222D01*
X126268729Y-28486552D01*
X126370186Y-28569814D01*
X126453448Y-28671271D01*
X126482778Y-28707009D01*
X126566443Y-28863534D01*
X126617963Y-29033373D01*
X126635359Y-29210000D01*
X126617963Y-29386627D01*
X126566443Y-29556466D01*
X126482778Y-29712991D01*
X126453448Y-29748729D01*
X126370186Y-29850186D01*
X126268729Y-29933448D01*
X126232991Y-29962778D01*
X126076466Y-30046443D01*
X125906627Y-30097963D01*
X125840442Y-30104482D01*
X125774260Y-30111000D01*
X125685740Y-30111000D01*
X125619558Y-30104482D01*
X125553373Y-30097963D01*
X125383534Y-30046443D01*
X125227009Y-29962778D01*
X125191271Y-29933448D01*
X125089814Y-29850186D01*
X125006552Y-29748729D01*
X124977222Y-29712991D01*
X124893557Y-29556466D01*
X124842037Y-29386627D01*
X124824641Y-29210000D01*
X124842037Y-29033373D01*
X124893557Y-28863534D01*
X124977222Y-28707009D01*
X125006552Y-28671271D01*
X125089814Y-28569814D01*
X125191271Y-28486552D01*
X125227009Y-28457222D01*
X125383534Y-28373557D01*
X125553373Y-28322037D01*
X125619558Y-28315518D01*
X125685740Y-28309000D01*
X125774260Y-28309000D01*
X125840442Y-28315518D01*
X125840442Y-28315518D01*
G37*
G36*
X118220442Y-25775518D02*
G01*
X118286627Y-25782037D01*
X118456466Y-25833557D01*
X118612991Y-25917222D01*
X118648729Y-25946552D01*
X118750186Y-26029814D01*
X118833448Y-26131271D01*
X118862778Y-26167009D01*
X118946443Y-26323534D01*
X118997963Y-26493373D01*
X119015359Y-26670000D01*
X118997963Y-26846627D01*
X118946443Y-27016466D01*
X118862778Y-27172991D01*
X118833448Y-27208729D01*
X118750186Y-27310186D01*
X118648729Y-27393448D01*
X118612991Y-27422778D01*
X118456466Y-27506443D01*
X118286627Y-27557963D01*
X118220442Y-27564482D01*
X118154260Y-27571000D01*
X118065740Y-27571000D01*
X117999558Y-27564482D01*
X117933373Y-27557963D01*
X117763534Y-27506443D01*
X117607009Y-27422778D01*
X117571271Y-27393448D01*
X117469814Y-27310186D01*
X117386552Y-27208729D01*
X117357222Y-27172991D01*
X117273557Y-27016466D01*
X117222037Y-26846627D01*
X117204641Y-26670000D01*
X117222037Y-26493373D01*
X117273557Y-26323534D01*
X117357222Y-26167009D01*
X117386552Y-26131271D01*
X117469814Y-26029814D01*
X117571271Y-25946552D01*
X117607009Y-25917222D01*
X117763534Y-25833557D01*
X117933373Y-25782037D01*
X117999557Y-25775519D01*
X118065740Y-25769000D01*
X118154260Y-25769000D01*
X118220442Y-25775518D01*
X118220442Y-25775518D01*
G37*
G36*
X130920442Y-25775518D02*
G01*
X130986627Y-25782037D01*
X131156466Y-25833557D01*
X131312991Y-25917222D01*
X131348729Y-25946552D01*
X131450186Y-26029814D01*
X131533448Y-26131271D01*
X131562778Y-26167009D01*
X131646443Y-26323534D01*
X131697963Y-26493373D01*
X131715359Y-26670000D01*
X131697963Y-26846627D01*
X131646443Y-27016466D01*
X131562778Y-27172991D01*
X131533448Y-27208729D01*
X131450186Y-27310186D01*
X131348729Y-27393448D01*
X131312991Y-27422778D01*
X131156466Y-27506443D01*
X130986627Y-27557963D01*
X130920442Y-27564482D01*
X130854260Y-27571000D01*
X130765740Y-27571000D01*
X130699558Y-27564482D01*
X130633373Y-27557963D01*
X130463534Y-27506443D01*
X130307009Y-27422778D01*
X130271271Y-27393448D01*
X130169814Y-27310186D01*
X130086552Y-27208729D01*
X130057222Y-27172991D01*
X129973557Y-27016466D01*
X129922037Y-26846627D01*
X129904641Y-26670000D01*
X129922037Y-26493373D01*
X129973557Y-26323534D01*
X130057222Y-26167009D01*
X130086552Y-26131271D01*
X130169814Y-26029814D01*
X130271271Y-25946552D01*
X130307009Y-25917222D01*
X130463534Y-25833557D01*
X130633373Y-25782037D01*
X130699557Y-25775519D01*
X130765740Y-25769000D01*
X130854260Y-25769000D01*
X130920442Y-25775518D01*
X130920442Y-25775518D01*
G37*
G36*
X128380442Y-25775518D02*
G01*
X128446627Y-25782037D01*
X128616466Y-25833557D01*
X128772991Y-25917222D01*
X128808729Y-25946552D01*
X128910186Y-26029814D01*
X128993448Y-26131271D01*
X129022778Y-26167009D01*
X129106443Y-26323534D01*
X129157963Y-26493373D01*
X129175359Y-26670000D01*
X129157963Y-26846627D01*
X129106443Y-27016466D01*
X129022778Y-27172991D01*
X128993448Y-27208729D01*
X128910186Y-27310186D01*
X128808729Y-27393448D01*
X128772991Y-27422778D01*
X128616466Y-27506443D01*
X128446627Y-27557963D01*
X128380442Y-27564482D01*
X128314260Y-27571000D01*
X128225740Y-27571000D01*
X128159558Y-27564482D01*
X128093373Y-27557963D01*
X127923534Y-27506443D01*
X127767009Y-27422778D01*
X127731271Y-27393448D01*
X127629814Y-27310186D01*
X127546552Y-27208729D01*
X127517222Y-27172991D01*
X127433557Y-27016466D01*
X127382037Y-26846627D01*
X127364641Y-26670000D01*
X127382037Y-26493373D01*
X127433557Y-26323534D01*
X127517222Y-26167009D01*
X127546552Y-26131271D01*
X127629814Y-26029814D01*
X127731271Y-25946552D01*
X127767009Y-25917222D01*
X127923534Y-25833557D01*
X128093373Y-25782037D01*
X128159557Y-25775519D01*
X128225740Y-25769000D01*
X128314260Y-25769000D01*
X128380442Y-25775518D01*
X128380442Y-25775518D01*
G37*
G36*
X125840442Y-25775518D02*
G01*
X125906627Y-25782037D01*
X126076466Y-25833557D01*
X126232991Y-25917222D01*
X126268729Y-25946552D01*
X126370186Y-26029814D01*
X126453448Y-26131271D01*
X126482778Y-26167009D01*
X126566443Y-26323534D01*
X126617963Y-26493373D01*
X126635359Y-26670000D01*
X126617963Y-26846627D01*
X126566443Y-27016466D01*
X126482778Y-27172991D01*
X126453448Y-27208729D01*
X126370186Y-27310186D01*
X126268729Y-27393448D01*
X126232991Y-27422778D01*
X126076466Y-27506443D01*
X125906627Y-27557963D01*
X125840442Y-27564482D01*
X125774260Y-27571000D01*
X125685740Y-27571000D01*
X125619558Y-27564482D01*
X125553373Y-27557963D01*
X125383534Y-27506443D01*
X125227009Y-27422778D01*
X125191271Y-27393448D01*
X125089814Y-27310186D01*
X125006552Y-27208729D01*
X124977222Y-27172991D01*
X124893557Y-27016466D01*
X124842037Y-26846627D01*
X124824641Y-26670000D01*
X124842037Y-26493373D01*
X124893557Y-26323534D01*
X124977222Y-26167009D01*
X125006552Y-26131271D01*
X125089814Y-26029814D01*
X125191271Y-25946552D01*
X125227009Y-25917222D01*
X125383534Y-25833557D01*
X125553373Y-25782037D01*
X125619557Y-25775519D01*
X125685740Y-25769000D01*
X125774260Y-25769000D01*
X125840442Y-25775518D01*
X125840442Y-25775518D01*
G37*
G36*
X123300442Y-25775518D02*
G01*
X123366627Y-25782037D01*
X123536466Y-25833557D01*
X123692991Y-25917222D01*
X123728729Y-25946552D01*
X123830186Y-26029814D01*
X123913448Y-26131271D01*
X123942778Y-26167009D01*
X124026443Y-26323534D01*
X124077963Y-26493373D01*
X124095359Y-26670000D01*
X124077963Y-26846627D01*
X124026443Y-27016466D01*
X123942778Y-27172991D01*
X123913448Y-27208729D01*
X123830186Y-27310186D01*
X123728729Y-27393448D01*
X123692991Y-27422778D01*
X123536466Y-27506443D01*
X123366627Y-27557963D01*
X123300442Y-27564482D01*
X123234260Y-27571000D01*
X123145740Y-27571000D01*
X123079558Y-27564482D01*
X123013373Y-27557963D01*
X122843534Y-27506443D01*
X122687009Y-27422778D01*
X122651271Y-27393448D01*
X122549814Y-27310186D01*
X122466552Y-27208729D01*
X122437222Y-27172991D01*
X122353557Y-27016466D01*
X122302037Y-26846627D01*
X122284641Y-26670000D01*
X122302037Y-26493373D01*
X122353557Y-26323534D01*
X122437222Y-26167009D01*
X122466552Y-26131271D01*
X122549814Y-26029814D01*
X122651271Y-25946552D01*
X122687009Y-25917222D01*
X122843534Y-25833557D01*
X123013373Y-25782037D01*
X123079557Y-25775519D01*
X123145740Y-25769000D01*
X123234260Y-25769000D01*
X123300442Y-25775518D01*
X123300442Y-25775518D01*
G37*
G36*
X120760442Y-25775518D02*
G01*
X120826627Y-25782037D01*
X120996466Y-25833557D01*
X121152991Y-25917222D01*
X121188729Y-25946552D01*
X121290186Y-26029814D01*
X121373448Y-26131271D01*
X121402778Y-26167009D01*
X121486443Y-26323534D01*
X121537963Y-26493373D01*
X121555359Y-26670000D01*
X121537963Y-26846627D01*
X121486443Y-27016466D01*
X121402778Y-27172991D01*
X121373448Y-27208729D01*
X121290186Y-27310186D01*
X121188729Y-27393448D01*
X121152991Y-27422778D01*
X120996466Y-27506443D01*
X120826627Y-27557963D01*
X120760442Y-27564482D01*
X120694260Y-27571000D01*
X120605740Y-27571000D01*
X120539558Y-27564482D01*
X120473373Y-27557963D01*
X120303534Y-27506443D01*
X120147009Y-27422778D01*
X120111271Y-27393448D01*
X120009814Y-27310186D01*
X119926552Y-27208729D01*
X119897222Y-27172991D01*
X119813557Y-27016466D01*
X119762037Y-26846627D01*
X119744641Y-26670000D01*
X119762037Y-26493373D01*
X119813557Y-26323534D01*
X119897222Y-26167009D01*
X119926552Y-26131271D01*
X120009814Y-26029814D01*
X120111271Y-25946552D01*
X120147009Y-25917222D01*
X120303534Y-25833557D01*
X120473373Y-25782037D01*
X120539557Y-25775519D01*
X120605740Y-25769000D01*
X120694260Y-25769000D01*
X120760442Y-25775518D01*
X120760442Y-25775518D01*
G37*
M02*
