G04 #@! TF.GenerationSoftware,KiCad,Pcbnew,5.1.2*
G04 #@! TF.CreationDate,2019-05-07T22:25:54+02:00*
G04 #@! TF.ProjectId,SX1257_pmod,53583132-3537-45f7-906d-6f642e6b6963,rev?*
G04 #@! TF.SameCoordinates,Original*
G04 #@! TF.FileFunction,Legend,Bot*
G04 #@! TF.FilePolarity,Positive*
%FSLAX46Y46*%
G04 Gerber Fmt 4.6, Leading zero omitted, Abs format (unit mm)*
G04 Created by KiCad (PCBNEW 5.1.2) date 2019-05-07 22:25:54*
%MOMM*%
%LPD*%
G04 APERTURE LIST*
%ADD10C,0.150000*%
%ADD11C,0.254000*%
%ADD12C,0.300000*%
%ADD13C,0.010000*%
G04 APERTURE END LIST*
D10*
X133452380Y-32735595D02*
X132452380Y-32735595D01*
X133452380Y-33164166D02*
X132928571Y-33164166D01*
X132833333Y-33116547D01*
X132785714Y-33021309D01*
X132785714Y-32878452D01*
X132833333Y-32783214D01*
X132880952Y-32735595D01*
X132785714Y-33497500D02*
X132785714Y-33878452D01*
X132452380Y-33640357D02*
X133309523Y-33640357D01*
X133404761Y-33687976D01*
X133452380Y-33783214D01*
X133452380Y-33878452D01*
X132785714Y-34068928D02*
X132785714Y-34449880D01*
X132452380Y-34211785D02*
X133309523Y-34211785D01*
X133404761Y-34259404D01*
X133452380Y-34354642D01*
X133452380Y-34449880D01*
X132785714Y-34783214D02*
X133785714Y-34783214D01*
X132833333Y-34783214D02*
X132785714Y-34878452D01*
X132785714Y-35068928D01*
X132833333Y-35164166D01*
X132880952Y-35211785D01*
X132976190Y-35259404D01*
X133261904Y-35259404D01*
X133357142Y-35211785D01*
X133404761Y-35164166D01*
X133452380Y-35068928D01*
X133452380Y-34878452D01*
X133404761Y-34783214D01*
X133404761Y-35640357D02*
X133452380Y-35735595D01*
X133452380Y-35926071D01*
X133404761Y-36021309D01*
X133309523Y-36068928D01*
X133261904Y-36068928D01*
X133166666Y-36021309D01*
X133119047Y-35926071D01*
X133119047Y-35783214D01*
X133071428Y-35687976D01*
X132976190Y-35640357D01*
X132928571Y-35640357D01*
X132833333Y-35687976D01*
X132785714Y-35783214D01*
X132785714Y-35926071D01*
X132833333Y-36021309D01*
X133357142Y-36497500D02*
X133404761Y-36545119D01*
X133452380Y-36497500D01*
X133404761Y-36449880D01*
X133357142Y-36497500D01*
X133452380Y-36497500D01*
X132833333Y-36497500D02*
X132880952Y-36545119D01*
X132928571Y-36497500D01*
X132880952Y-36449880D01*
X132833333Y-36497500D01*
X132928571Y-36497500D01*
X132404761Y-37687976D02*
X133690476Y-36830833D01*
X132404761Y-38735595D02*
X133690476Y-37878452D01*
X132785714Y-39497500D02*
X133595238Y-39497500D01*
X133690476Y-39449880D01*
X133738095Y-39402261D01*
X133785714Y-39307023D01*
X133785714Y-39164166D01*
X133738095Y-39068928D01*
X133404761Y-39497500D02*
X133452380Y-39402261D01*
X133452380Y-39211785D01*
X133404761Y-39116547D01*
X133357142Y-39068928D01*
X133261904Y-39021309D01*
X132976190Y-39021309D01*
X132880952Y-39068928D01*
X132833333Y-39116547D01*
X132785714Y-39211785D01*
X132785714Y-39402261D01*
X132833333Y-39497500D01*
X133452380Y-39973690D02*
X132785714Y-39973690D01*
X132452380Y-39973690D02*
X132500000Y-39926071D01*
X132547619Y-39973690D01*
X132500000Y-40021309D01*
X132452380Y-39973690D01*
X132547619Y-39973690D01*
X132785714Y-40307023D02*
X132785714Y-40687976D01*
X132452380Y-40449880D02*
X133309523Y-40449880D01*
X133404761Y-40497500D01*
X133452380Y-40592738D01*
X133452380Y-40687976D01*
X133357142Y-41021309D02*
X133404761Y-41068928D01*
X133452380Y-41021309D01*
X133404761Y-40973690D01*
X133357142Y-41021309D01*
X133452380Y-41021309D01*
X133452380Y-41402261D02*
X132785714Y-41926071D01*
X132785714Y-41402261D02*
X133452380Y-41926071D01*
X133452380Y-42307023D02*
X132785714Y-42307023D01*
X132452380Y-42307023D02*
X132500000Y-42259404D01*
X132547619Y-42307023D01*
X132500000Y-42354642D01*
X132452380Y-42307023D01*
X132547619Y-42307023D01*
X133452380Y-42926071D02*
X133404761Y-42830833D01*
X133309523Y-42783214D01*
X132452380Y-42783214D01*
X133357142Y-43307023D02*
X133404761Y-43354642D01*
X133452380Y-43307023D01*
X133404761Y-43259404D01*
X133357142Y-43307023D01*
X133452380Y-43307023D01*
X133404761Y-43735595D02*
X133452380Y-43830833D01*
X133452380Y-44021309D01*
X133404761Y-44116547D01*
X133309523Y-44164166D01*
X133261904Y-44164166D01*
X133166666Y-44116547D01*
X133119047Y-44021309D01*
X133119047Y-43878452D01*
X133071428Y-43783214D01*
X132976190Y-43735595D01*
X132928571Y-43735595D01*
X132833333Y-43783214D01*
X132785714Y-43878452D01*
X132785714Y-44021309D01*
X132833333Y-44116547D01*
X133404761Y-44973690D02*
X133452380Y-44878452D01*
X133452380Y-44687976D01*
X133404761Y-44592738D01*
X133309523Y-44545119D01*
X132928571Y-44545119D01*
X132833333Y-44592738D01*
X132785714Y-44687976D01*
X132785714Y-44878452D01*
X132833333Y-44973690D01*
X132928571Y-45021309D01*
X133023809Y-45021309D01*
X133119047Y-44545119D01*
X132404761Y-46164166D02*
X133690476Y-45307023D01*
X133452380Y-46497500D02*
X132452380Y-46497500D01*
X133071428Y-46592738D02*
X133452380Y-46878452D01*
X132785714Y-46878452D02*
X133166666Y-46497500D01*
X133452380Y-47307023D02*
X132452380Y-47307023D01*
X132833333Y-47307023D02*
X132785714Y-47402261D01*
X132785714Y-47592738D01*
X132833333Y-47687976D01*
X132880952Y-47735595D01*
X132976190Y-47783214D01*
X133261904Y-47783214D01*
X133357142Y-47735595D01*
X133404761Y-47687976D01*
X133452380Y-47592738D01*
X133452380Y-47402261D01*
X133404761Y-47307023D01*
X133404761Y-48592738D02*
X133452380Y-48497500D01*
X133452380Y-48307023D01*
X133404761Y-48211785D01*
X133309523Y-48164166D01*
X132928571Y-48164166D01*
X132833333Y-48211785D01*
X132785714Y-48307023D01*
X132785714Y-48497500D01*
X132833333Y-48592738D01*
X132928571Y-48640357D01*
X133023809Y-48640357D01*
X133119047Y-48164166D01*
X133404761Y-49497500D02*
X133452380Y-49402261D01*
X133452380Y-49211785D01*
X133404761Y-49116547D01*
X133357142Y-49068928D01*
X133261904Y-49021309D01*
X132976190Y-49021309D01*
X132880952Y-49068928D01*
X132833333Y-49116547D01*
X132785714Y-49211785D01*
X132785714Y-49402261D01*
X132833333Y-49497500D01*
X133452380Y-49926071D02*
X132452380Y-49926071D01*
X133071428Y-50021309D02*
X133452380Y-50307023D01*
X132785714Y-50307023D02*
X133166666Y-49926071D01*
X133452380Y-50735595D02*
X132785714Y-50735595D01*
X132880952Y-50735595D02*
X132833333Y-50783214D01*
X132785714Y-50878452D01*
X132785714Y-51021309D01*
X132833333Y-51116547D01*
X132928571Y-51164166D01*
X133452380Y-51164166D01*
X132928571Y-51164166D02*
X132833333Y-51211785D01*
X132785714Y-51307023D01*
X132785714Y-51449880D01*
X132833333Y-51545119D01*
X132928571Y-51592738D01*
X133452380Y-51592738D01*
X133452380Y-52497500D02*
X132928571Y-52497500D01*
X132833333Y-52449880D01*
X132785714Y-52354642D01*
X132785714Y-52164166D01*
X132833333Y-52068928D01*
X133404761Y-52497500D02*
X133452380Y-52402261D01*
X133452380Y-52164166D01*
X133404761Y-52068928D01*
X133309523Y-52021309D01*
X133214285Y-52021309D01*
X133119047Y-52068928D01*
X133071428Y-52164166D01*
X133071428Y-52402261D01*
X133023809Y-52497500D01*
X132785714Y-52973690D02*
X133452380Y-52973690D01*
X132880952Y-52973690D02*
X132833333Y-53021309D01*
X132785714Y-53116547D01*
X132785714Y-53259404D01*
X132833333Y-53354642D01*
X132928571Y-53402261D01*
X133452380Y-53402261D01*
X132785714Y-53878452D02*
X133452380Y-53878452D01*
X132880952Y-53878452D02*
X132833333Y-53926071D01*
X132785714Y-54021309D01*
X132785714Y-54164166D01*
X132833333Y-54259404D01*
X132928571Y-54307023D01*
X133452380Y-54307023D01*
X132404761Y-55497500D02*
X133690476Y-54640357D01*
X133404761Y-55783214D02*
X133452380Y-55926071D01*
X133452380Y-56164166D01*
X133404761Y-56259404D01*
X133357142Y-56307023D01*
X133261904Y-56354642D01*
X133166666Y-56354642D01*
X133071428Y-56307023D01*
X133023809Y-56259404D01*
X132976190Y-56164166D01*
X132928571Y-55973690D01*
X132880952Y-55878452D01*
X132833333Y-55830833D01*
X132738095Y-55783214D01*
X132642857Y-55783214D01*
X132547619Y-55830833D01*
X132500000Y-55878452D01*
X132452380Y-55973690D01*
X132452380Y-56211785D01*
X132500000Y-56354642D01*
X132452380Y-56687976D02*
X133452380Y-57354642D01*
X132452380Y-57354642D02*
X133452380Y-56687976D01*
X133452380Y-58259404D02*
X133452380Y-57687976D01*
X133452380Y-57973690D02*
X132452380Y-57973690D01*
X132595238Y-57878452D01*
X132690476Y-57783214D01*
X132738095Y-57687976D01*
X132547619Y-58640357D02*
X132500000Y-58687976D01*
X132452380Y-58783214D01*
X132452380Y-59021309D01*
X132500000Y-59116547D01*
X132547619Y-59164166D01*
X132642857Y-59211785D01*
X132738095Y-59211785D01*
X132880952Y-59164166D01*
X133452380Y-58592738D01*
X133452380Y-59211785D01*
X132452380Y-60116547D02*
X132452380Y-59640357D01*
X132928571Y-59592738D01*
X132880952Y-59640357D01*
X132833333Y-59735595D01*
X132833333Y-59973690D01*
X132880952Y-60068928D01*
X132928571Y-60116547D01*
X133023809Y-60164166D01*
X133261904Y-60164166D01*
X133357142Y-60116547D01*
X133404761Y-60068928D01*
X133452380Y-59973690D01*
X133452380Y-59735595D01*
X133404761Y-59640357D01*
X133357142Y-59592738D01*
X132452380Y-60497500D02*
X132452380Y-61164166D01*
X133452380Y-60735595D01*
D11*
X120015000Y-31242000D02*
X120015000Y-31800000D01*
X117475000Y-31242000D02*
X117475000Y-31800000D01*
D12*
X131488571Y-42716142D02*
X129988571Y-42716142D01*
X131631428Y-43073285D02*
X131631428Y-44216142D01*
X131488571Y-44573285D02*
X129988571Y-44573285D01*
X131488571Y-45287571D02*
X129988571Y-45287571D01*
X131488571Y-46144714D01*
X129988571Y-46144714D01*
X129091428Y-43716142D02*
X129020000Y-43573285D01*
X128877142Y-43430428D01*
X128662857Y-43216142D01*
X128591428Y-43073285D01*
X128591428Y-42930428D01*
X128948571Y-43001857D02*
X128877142Y-42859000D01*
X128734285Y-42716142D01*
X128448571Y-42644714D01*
X127948571Y-42644714D01*
X127662857Y-42716142D01*
X127520000Y-42859000D01*
X127448571Y-43001857D01*
X127448571Y-43287571D01*
X127520000Y-43430428D01*
X127662857Y-43573285D01*
X127948571Y-43644714D01*
X128448571Y-43644714D01*
X128734285Y-43573285D01*
X128877142Y-43430428D01*
X128948571Y-43287571D01*
X128948571Y-43001857D01*
X129091428Y-43930428D02*
X129091428Y-45073285D01*
X128948571Y-45430428D02*
X127448571Y-45430428D01*
X128948571Y-46144714D02*
X127448571Y-46144714D01*
X128948571Y-47001857D01*
X127448571Y-47001857D01*
X126551428Y-43716142D02*
X126480000Y-43573285D01*
X126337142Y-43430428D01*
X126122857Y-43216142D01*
X126051428Y-43073285D01*
X126051428Y-42930428D01*
X126408571Y-43001857D02*
X126337142Y-42859000D01*
X126194285Y-42716142D01*
X125908571Y-42644714D01*
X125408571Y-42644714D01*
X125122857Y-42716142D01*
X124980000Y-42859000D01*
X124908571Y-43001857D01*
X124908571Y-43287571D01*
X124980000Y-43430428D01*
X125122857Y-43573285D01*
X125408571Y-43644714D01*
X125908571Y-43644714D01*
X126194285Y-43573285D01*
X126337142Y-43430428D01*
X126408571Y-43287571D01*
X126408571Y-43001857D01*
X126551428Y-43930428D02*
X126551428Y-45073285D01*
X124908571Y-45716142D02*
X124908571Y-46001857D01*
X124980000Y-46144714D01*
X125122857Y-46287571D01*
X125408571Y-46359000D01*
X125908571Y-46359000D01*
X126194285Y-46287571D01*
X126337142Y-46144714D01*
X126408571Y-46001857D01*
X126408571Y-45716142D01*
X126337142Y-45573285D01*
X126194285Y-45430428D01*
X125908571Y-45359000D01*
X125408571Y-45359000D01*
X125122857Y-45430428D01*
X124980000Y-45573285D01*
X124908571Y-45716142D01*
X124908571Y-47001857D02*
X126122857Y-47001857D01*
X126265714Y-47073285D01*
X126337142Y-47144714D01*
X126408571Y-47287571D01*
X126408571Y-47573285D01*
X126337142Y-47716142D01*
X126265714Y-47787571D01*
X126122857Y-47859000D01*
X124908571Y-47859000D01*
X124908571Y-48359000D02*
X124908571Y-49216142D01*
X126408571Y-48787571D02*
X124908571Y-48787571D01*
D11*
X118110000Y-31242000D02*
X116840000Y-31242000D01*
X116840000Y-27940000D02*
X116840000Y-31242000D01*
X118110000Y-30480000D02*
X118110000Y-31242000D01*
X129540000Y-27940000D02*
X129540000Y-31800000D01*
X127000000Y-27940000D02*
X127000000Y-31800000D01*
X124460000Y-27940000D02*
X124460000Y-31800000D01*
D12*
X123868571Y-42716142D02*
X122368571Y-42716142D01*
X124011428Y-43073285D02*
X124011428Y-44216142D01*
X122368571Y-44859000D02*
X122368571Y-45144714D01*
X122440000Y-45287571D01*
X122582857Y-45430428D01*
X122868571Y-45501857D01*
X123368571Y-45501857D01*
X123654285Y-45430428D01*
X123797142Y-45287571D01*
X123868571Y-45144714D01*
X123868571Y-44859000D01*
X123797142Y-44716142D01*
X123654285Y-44573285D01*
X123368571Y-44501857D01*
X122868571Y-44501857D01*
X122582857Y-44573285D01*
X122440000Y-44716142D01*
X122368571Y-44859000D01*
X122368571Y-46144714D02*
X123582857Y-46144714D01*
X123725714Y-46216142D01*
X123797142Y-46287571D01*
X123868571Y-46430428D01*
X123868571Y-46716142D01*
X123797142Y-46859000D01*
X123725714Y-46930428D01*
X123582857Y-47001857D01*
X122368571Y-47001857D01*
X122368571Y-47501857D02*
X122368571Y-48359000D01*
X123868571Y-47930428D02*
X122368571Y-47930428D01*
X130218571Y-32548142D02*
X128718571Y-32548142D01*
X128861428Y-33191000D02*
X128790000Y-33262428D01*
X128718571Y-33405285D01*
X128718571Y-33762428D01*
X128790000Y-33905285D01*
X128861428Y-33976714D01*
X129004285Y-34048142D01*
X129147142Y-34048142D01*
X129361428Y-33976714D01*
X130218571Y-33119571D01*
X130218571Y-34048142D01*
X130075714Y-35548142D02*
X130147142Y-35476714D01*
X130218571Y-35262428D01*
X130218571Y-35119571D01*
X130147142Y-34905285D01*
X130004285Y-34762428D01*
X129861428Y-34691000D01*
X129575714Y-34619571D01*
X129361428Y-34619571D01*
X129075714Y-34691000D01*
X128932857Y-34762428D01*
X128790000Y-34905285D01*
X128718571Y-35119571D01*
X128718571Y-35262428D01*
X128790000Y-35476714D01*
X128861428Y-35548142D01*
X130361428Y-35833857D02*
X130361428Y-36976714D01*
X130147142Y-37262428D02*
X130218571Y-37476714D01*
X130218571Y-37833857D01*
X130147142Y-37976714D01*
X130075714Y-38048142D01*
X129932857Y-38119571D01*
X129790000Y-38119571D01*
X129647142Y-38048142D01*
X129575714Y-37976714D01*
X129504285Y-37833857D01*
X129432857Y-37548142D01*
X129361428Y-37405285D01*
X129290000Y-37333857D01*
X129147142Y-37262428D01*
X129004285Y-37262428D01*
X128861428Y-37333857D01*
X128790000Y-37405285D01*
X128718571Y-37548142D01*
X128718571Y-37905285D01*
X128790000Y-38119571D01*
X130075714Y-39619571D02*
X130147142Y-39548142D01*
X130218571Y-39333857D01*
X130218571Y-39191000D01*
X130147142Y-38976714D01*
X130004285Y-38833857D01*
X129861428Y-38762428D01*
X129575714Y-38691000D01*
X129361428Y-38691000D01*
X129075714Y-38762428D01*
X128932857Y-38833857D01*
X128790000Y-38976714D01*
X128718571Y-39191000D01*
X128718571Y-39333857D01*
X128790000Y-39548142D01*
X128861428Y-39619571D01*
X130218571Y-40976714D02*
X130218571Y-40262428D01*
X128718571Y-40262428D01*
X127678571Y-32548142D02*
X126178571Y-32548142D01*
X126321428Y-33191000D02*
X126250000Y-33262428D01*
X126178571Y-33405285D01*
X126178571Y-33762428D01*
X126250000Y-33905285D01*
X126321428Y-33976714D01*
X126464285Y-34048142D01*
X126607142Y-34048142D01*
X126821428Y-33976714D01*
X127678571Y-33119571D01*
X127678571Y-34048142D01*
X127535714Y-35548142D02*
X127607142Y-35476714D01*
X127678571Y-35262428D01*
X127678571Y-35119571D01*
X127607142Y-34905285D01*
X127464285Y-34762428D01*
X127321428Y-34691000D01*
X127035714Y-34619571D01*
X126821428Y-34619571D01*
X126535714Y-34691000D01*
X126392857Y-34762428D01*
X126250000Y-34905285D01*
X126178571Y-35119571D01*
X126178571Y-35262428D01*
X126250000Y-35476714D01*
X126321428Y-35548142D01*
X127821428Y-35833857D02*
X127821428Y-36976714D01*
X127607142Y-37262428D02*
X127678571Y-37476714D01*
X127678571Y-37833857D01*
X127607142Y-37976714D01*
X127535714Y-38048142D01*
X127392857Y-38119571D01*
X127250000Y-38119571D01*
X127107142Y-38048142D01*
X127035714Y-37976714D01*
X126964285Y-37833857D01*
X126892857Y-37548142D01*
X126821428Y-37405285D01*
X126750000Y-37333857D01*
X126607142Y-37262428D01*
X126464285Y-37262428D01*
X126321428Y-37333857D01*
X126250000Y-37405285D01*
X126178571Y-37548142D01*
X126178571Y-37905285D01*
X126250000Y-38119571D01*
X127678571Y-38762428D02*
X126178571Y-38762428D01*
X126178571Y-39119571D01*
X126250000Y-39333857D01*
X126392857Y-39476714D01*
X126535714Y-39548142D01*
X126821428Y-39619571D01*
X127035714Y-39619571D01*
X127321428Y-39548142D01*
X127464285Y-39476714D01*
X127607142Y-39333857D01*
X127678571Y-39119571D01*
X127678571Y-38762428D01*
X127250000Y-40191000D02*
X127250000Y-40905285D01*
X127678571Y-40048142D02*
X126178571Y-40548142D01*
X127678571Y-41048142D01*
X124995714Y-33405285D02*
X125067142Y-33333857D01*
X125138571Y-33119571D01*
X125138571Y-32976714D01*
X125067142Y-32762428D01*
X124924285Y-32619571D01*
X124781428Y-32548142D01*
X124495714Y-32476714D01*
X124281428Y-32476714D01*
X123995714Y-32548142D01*
X123852857Y-32619571D01*
X123710000Y-32762428D01*
X123638571Y-32976714D01*
X123638571Y-33119571D01*
X123710000Y-33333857D01*
X123781428Y-33405285D01*
X125138571Y-34762428D02*
X125138571Y-34048142D01*
X123638571Y-34048142D01*
X125138571Y-35262428D02*
X123638571Y-35262428D01*
X125138571Y-36119571D02*
X124281428Y-35476714D01*
X123638571Y-36119571D02*
X124495714Y-35262428D01*
X125281428Y-36405285D02*
X125281428Y-37548142D01*
X125138571Y-37905285D02*
X123638571Y-37905285D01*
X125138571Y-38619571D02*
X123638571Y-38619571D01*
X125138571Y-39476714D01*
X123638571Y-39476714D01*
D11*
X120650000Y-31242000D02*
X119380000Y-31242000D01*
D12*
X122455714Y-33405285D02*
X122527142Y-33333857D01*
X122598571Y-33119571D01*
X122598571Y-32976714D01*
X122527142Y-32762428D01*
X122384285Y-32619571D01*
X122241428Y-32548142D01*
X121955714Y-32476714D01*
X121741428Y-32476714D01*
X121455714Y-32548142D01*
X121312857Y-32619571D01*
X121170000Y-32762428D01*
X121098571Y-32976714D01*
X121098571Y-33119571D01*
X121170000Y-33333857D01*
X121241428Y-33405285D01*
X122598571Y-34762428D02*
X122598571Y-34048142D01*
X121098571Y-34048142D01*
X122598571Y-35262428D02*
X121098571Y-35262428D01*
X122598571Y-36119571D02*
X121741428Y-35476714D01*
X121098571Y-36119571D02*
X121955714Y-35262428D01*
X122741428Y-36405285D02*
X122741428Y-37548142D01*
X121098571Y-38191000D02*
X121098571Y-38476714D01*
X121170000Y-38619571D01*
X121312857Y-38762428D01*
X121598571Y-38833857D01*
X122098571Y-38833857D01*
X122384285Y-38762428D01*
X122527142Y-38619571D01*
X122598571Y-38476714D01*
X122598571Y-38191000D01*
X122527142Y-38048142D01*
X122384285Y-37905285D01*
X122098571Y-37833857D01*
X121598571Y-37833857D01*
X121312857Y-37905285D01*
X121170000Y-38048142D01*
X121098571Y-38191000D01*
X121098571Y-39476714D02*
X122312857Y-39476714D01*
X122455714Y-39548142D01*
X122527142Y-39619571D01*
X122598571Y-39762428D01*
X122598571Y-40048142D01*
X122527142Y-40190999D01*
X122455714Y-40262428D01*
X122312857Y-40333857D01*
X121098571Y-40333857D01*
X121098571Y-40833857D02*
X121098571Y-41690999D01*
X122598571Y-41262428D02*
X121098571Y-41262428D01*
X117455142Y-32548142D02*
X117455142Y-33691000D01*
X118026571Y-33119571D02*
X116883714Y-33119571D01*
X116526571Y-34262428D02*
X116526571Y-35191000D01*
X117098000Y-34691000D01*
X117098000Y-34905285D01*
X117169428Y-35048142D01*
X117240857Y-35119571D01*
X117383714Y-35191000D01*
X117740857Y-35191000D01*
X117883714Y-35119571D01*
X117955142Y-35048142D01*
X118026571Y-34905285D01*
X118026571Y-34476714D01*
X117955142Y-34333857D01*
X117883714Y-34262428D01*
X116526571Y-35619571D02*
X118026571Y-36119571D01*
X116526571Y-36619571D01*
X116526571Y-36976714D02*
X116526571Y-37905285D01*
X117098000Y-37405285D01*
X117098000Y-37619571D01*
X117169428Y-37762428D01*
X117240857Y-37833857D01*
X117383714Y-37905285D01*
X117740857Y-37905285D01*
X117883714Y-37833857D01*
X117955142Y-37762428D01*
X118026571Y-37619571D01*
X118026571Y-37191000D01*
X117955142Y-37048142D01*
X117883714Y-36976714D01*
D11*
X130810000Y-30480000D02*
X130810000Y-41656000D01*
X128270000Y-30480000D02*
X128270000Y-41656000D01*
X125730000Y-30480000D02*
X125730000Y-41656000D01*
X123190000Y-30480000D02*
X123190000Y-41656000D01*
X120650000Y-30480000D02*
X120650000Y-31242000D01*
D12*
X119138000Y-33333857D02*
X119066571Y-33191000D01*
X119066571Y-32976714D01*
X119138000Y-32762428D01*
X119280857Y-32619571D01*
X119423714Y-32548142D01*
X119709428Y-32476714D01*
X119923714Y-32476714D01*
X120209428Y-32548142D01*
X120352285Y-32619571D01*
X120495142Y-32762428D01*
X120566571Y-32976714D01*
X120566571Y-33119571D01*
X120495142Y-33333857D01*
X120423714Y-33405285D01*
X119923714Y-33405285D01*
X119923714Y-33119571D01*
X120566571Y-34048142D02*
X119066571Y-34048142D01*
X120566571Y-34905285D01*
X119066571Y-34905285D01*
X120566571Y-35619571D02*
X119066571Y-35619571D01*
X119066571Y-35976714D01*
X119138000Y-36191000D01*
X119280857Y-36333857D01*
X119423714Y-36405285D01*
X119709428Y-36476714D01*
X119923714Y-36476714D01*
X120209428Y-36405285D01*
X120352285Y-36333857D01*
X120495142Y-36191000D01*
X120566571Y-35976714D01*
X120566571Y-35619571D01*
D11*
X117348000Y-27432000D02*
X116840000Y-27940000D01*
X119380000Y-27940000D02*
X119380000Y-31242000D01*
X119888000Y-27432000D02*
X119380000Y-27940000D01*
X121920000Y-27940000D02*
X121920000Y-31800000D01*
X122428000Y-27432000D02*
X121920000Y-27940000D01*
X124968000Y-27432000D02*
X124460000Y-27940000D01*
X127508000Y-27432000D02*
X127000000Y-27940000D01*
X130048000Y-27432000D02*
X129540000Y-27940000D01*
D12*
X121182142Y-52896000D02*
X121253571Y-53110285D01*
X121253571Y-53467428D01*
X121182142Y-53610285D01*
X121110714Y-53681714D01*
X120967857Y-53753142D01*
X120825000Y-53753142D01*
X120682142Y-53681714D01*
X120610714Y-53610285D01*
X120539285Y-53467428D01*
X120467857Y-53181714D01*
X120396428Y-53038857D01*
X120325000Y-52967428D01*
X120182142Y-52896000D01*
X120039285Y-52896000D01*
X119896428Y-52967428D01*
X119825000Y-53038857D01*
X119753571Y-53181714D01*
X119753571Y-53538857D01*
X119825000Y-53753142D01*
X119753571Y-54253142D02*
X121253571Y-55253142D01*
X119753571Y-55253142D02*
X121253571Y-54253142D01*
X121253571Y-56610285D02*
X121253571Y-55753142D01*
X121253571Y-56181714D02*
X119753571Y-56181714D01*
X119967857Y-56038857D01*
X120110714Y-55896000D01*
X120182142Y-55753142D01*
X119896428Y-57181714D02*
X119825000Y-57253142D01*
X119753571Y-57396000D01*
X119753571Y-57753142D01*
X119825000Y-57896000D01*
X119896428Y-57967428D01*
X120039285Y-58038857D01*
X120182142Y-58038857D01*
X120396428Y-57967428D01*
X121253571Y-57110285D01*
X121253571Y-58038857D01*
X119753571Y-59396000D02*
X119753571Y-58681714D01*
X120467857Y-58610285D01*
X120396428Y-58681714D01*
X120325000Y-58824571D01*
X120325000Y-59181714D01*
X120396428Y-59324571D01*
X120467857Y-59396000D01*
X120610714Y-59467428D01*
X120967857Y-59467428D01*
X121110714Y-59396000D01*
X121182142Y-59324571D01*
X121253571Y-59181714D01*
X121253571Y-58824571D01*
X121182142Y-58681714D01*
X121110714Y-58610285D01*
X119753571Y-59967428D02*
X119753571Y-60967428D01*
X121253571Y-60324571D01*
X123803571Y-54110285D02*
X122303571Y-54110285D01*
X122303571Y-54681714D01*
X122375000Y-54824571D01*
X122446428Y-54896000D01*
X122589285Y-54967428D01*
X122803571Y-54967428D01*
X122946428Y-54896000D01*
X123017857Y-54824571D01*
X123089285Y-54681714D01*
X123089285Y-54110285D01*
X123803571Y-55610285D02*
X122303571Y-55610285D01*
X123375000Y-56110285D01*
X122303571Y-56610285D01*
X123803571Y-56610285D01*
X122303571Y-57610285D02*
X122303571Y-57896000D01*
X122375000Y-58038857D01*
X122517857Y-58181714D01*
X122803571Y-58253142D01*
X123303571Y-58253142D01*
X123589285Y-58181714D01*
X123732142Y-58038857D01*
X123803571Y-57896000D01*
X123803571Y-57610285D01*
X123732142Y-57467428D01*
X123589285Y-57324571D01*
X123303571Y-57253142D01*
X122803571Y-57253142D01*
X122517857Y-57324571D01*
X122375000Y-57467428D01*
X122303571Y-57610285D01*
X123803571Y-58896000D02*
X122303571Y-58896000D01*
X122303571Y-59253142D01*
X122375000Y-59467428D01*
X122517857Y-59610285D01*
X122660714Y-59681714D01*
X122946428Y-59753142D01*
X123160714Y-59753142D01*
X123446428Y-59681714D01*
X123589285Y-59610285D01*
X123732142Y-59467428D01*
X123803571Y-59253142D01*
X123803571Y-58896000D01*
X126353571Y-55396000D02*
X125639285Y-54896000D01*
X126353571Y-54538857D02*
X124853571Y-54538857D01*
X124853571Y-55110285D01*
X124925000Y-55253142D01*
X124996428Y-55324571D01*
X125139285Y-55396000D01*
X125353571Y-55396000D01*
X125496428Y-55324571D01*
X125567857Y-55253142D01*
X125639285Y-55110285D01*
X125639285Y-54538857D01*
X126282142Y-56610285D02*
X126353571Y-56467428D01*
X126353571Y-56181714D01*
X126282142Y-56038857D01*
X126139285Y-55967428D01*
X125567857Y-55967428D01*
X125425000Y-56038857D01*
X125353571Y-56181714D01*
X125353571Y-56467428D01*
X125425000Y-56610285D01*
X125567857Y-56681714D01*
X125710714Y-56681714D01*
X125853571Y-55967428D01*
X125353571Y-57181714D02*
X126353571Y-57538857D01*
X125353571Y-57896000D01*
X125567857Y-58967428D02*
X125639285Y-59181714D01*
X125710714Y-59253142D01*
X125853571Y-59324571D01*
X126067857Y-59324571D01*
X126210714Y-59253142D01*
X126282142Y-59181714D01*
X126353571Y-59038857D01*
X126353571Y-58467428D01*
X124853571Y-58467428D01*
X124853571Y-58967428D01*
X124925000Y-59110285D01*
X124996428Y-59181714D01*
X125139285Y-59253142D01*
X125282142Y-59253142D01*
X125425000Y-59181714D01*
X125496428Y-59110285D01*
X125567857Y-58967428D01*
X125567857Y-58467428D01*
X127546428Y-51967428D02*
X127475000Y-52038857D01*
X127403571Y-52181714D01*
X127403571Y-52538857D01*
X127475000Y-52681714D01*
X127546428Y-52753142D01*
X127689285Y-52824571D01*
X127832142Y-52824571D01*
X128046428Y-52753142D01*
X128903571Y-51896000D01*
X128903571Y-52824571D01*
X127403571Y-53753142D02*
X127403571Y-53896000D01*
X127475000Y-54038857D01*
X127546428Y-54110285D01*
X127689285Y-54181714D01*
X127975000Y-54253142D01*
X128332142Y-54253142D01*
X128617857Y-54181714D01*
X128760714Y-54110285D01*
X128832142Y-54038857D01*
X128903571Y-53896000D01*
X128903571Y-53753142D01*
X128832142Y-53610285D01*
X128760714Y-53538857D01*
X128617857Y-53467428D01*
X128332142Y-53396000D01*
X127975000Y-53396000D01*
X127689285Y-53467428D01*
X127546428Y-53538857D01*
X127475000Y-53610285D01*
X127403571Y-53753142D01*
X128903571Y-55681714D02*
X128903571Y-54824571D01*
X128903571Y-55253142D02*
X127403571Y-55253142D01*
X127617857Y-55110285D01*
X127760714Y-54967428D01*
X127832142Y-54824571D01*
X128903571Y-56396000D02*
X128903571Y-56681714D01*
X128832142Y-56824571D01*
X128760714Y-56896000D01*
X128546428Y-57038857D01*
X128260714Y-57110285D01*
X127689285Y-57110285D01*
X127546428Y-57038857D01*
X127475000Y-56967428D01*
X127403571Y-56824571D01*
X127403571Y-56538857D01*
X127475000Y-56396000D01*
X127546428Y-56324571D01*
X127689285Y-56253142D01*
X128046428Y-56253142D01*
X128189285Y-56324571D01*
X128260714Y-56396000D01*
X128332142Y-56538857D01*
X128332142Y-56824571D01*
X128260714Y-56967428D01*
X128189285Y-57038857D01*
X128046428Y-57110285D01*
X128332142Y-57753142D02*
X128332142Y-58896000D01*
X127403571Y-59896000D02*
X127403571Y-60038857D01*
X127475000Y-60181714D01*
X127546428Y-60253142D01*
X127689285Y-60324571D01*
X127975000Y-60396000D01*
X128332142Y-60396000D01*
X128617857Y-60324571D01*
X128760714Y-60253142D01*
X128832142Y-60181714D01*
X128903571Y-60038857D01*
X128903571Y-59896000D01*
X128832142Y-59753142D01*
X128760714Y-59681714D01*
X128617857Y-59610285D01*
X128332142Y-59538857D01*
X127975000Y-59538857D01*
X127689285Y-59610285D01*
X127546428Y-59681714D01*
X127475000Y-59753142D01*
X127403571Y-59896000D01*
X127403571Y-61753142D02*
X127403571Y-61038857D01*
X128117857Y-60967428D01*
X128046428Y-61038857D01*
X127975000Y-61181714D01*
X127975000Y-61538857D01*
X128046428Y-61681714D01*
X128117857Y-61753142D01*
X128260714Y-61824571D01*
X128617857Y-61824571D01*
X128760714Y-61753142D01*
X128832142Y-61681714D01*
X128903571Y-61538857D01*
X128903571Y-61181714D01*
X128832142Y-61038857D01*
X128760714Y-60967428D01*
D13*
G36*
X120588721Y-43756118D02*
G01*
X120593349Y-43797443D01*
X120601283Y-43833924D01*
X120612634Y-43865916D01*
X120627515Y-43893773D01*
X120646035Y-43917847D01*
X120655996Y-43927925D01*
X120677357Y-43945000D01*
X120701155Y-43958071D01*
X120728981Y-43967976D01*
X120735907Y-43969839D01*
X120740680Y-43970995D01*
X120745648Y-43971997D01*
X120751276Y-43972857D01*
X120758029Y-43973585D01*
X120766372Y-43974193D01*
X120776769Y-43974691D01*
X120789686Y-43975090D01*
X120805589Y-43975401D01*
X120824941Y-43975634D01*
X120848209Y-43975802D01*
X120875857Y-43975913D01*
X120908351Y-43975980D01*
X120946154Y-43976014D01*
X120989733Y-43976024D01*
X121000882Y-43976025D01*
X121241675Y-43976025D01*
X121241675Y-43845850D01*
X121184013Y-43845850D01*
X121201591Y-43829784D01*
X121216066Y-43814318D01*
X121227368Y-43796879D01*
X121235794Y-43776604D01*
X121241639Y-43752628D01*
X121245199Y-43724087D01*
X121246575Y-43698212D01*
X121246850Y-43671181D01*
X121245854Y-43649120D01*
X121243525Y-43630766D01*
X121243201Y-43629007D01*
X121233659Y-43592684D01*
X121219620Y-43559766D01*
X121201424Y-43530735D01*
X121179406Y-43506071D01*
X121153903Y-43486253D01*
X121135997Y-43476376D01*
X121113152Y-43466822D01*
X121091705Y-43460880D01*
X121069013Y-43457981D01*
X121048000Y-43457473D01*
X121042754Y-43457863D01*
X121042754Y-43582325D01*
X121061564Y-43584048D01*
X121076885Y-43589764D01*
X121090727Y-43600293D01*
X121093440Y-43602992D01*
X121105930Y-43620221D01*
X121115125Y-43642665D01*
X121120982Y-43670085D01*
X121123459Y-43702241D01*
X121122513Y-43738896D01*
X121120943Y-43756950D01*
X121116574Y-43783279D01*
X121109352Y-43804251D01*
X121098984Y-43820320D01*
X121085175Y-43831943D01*
X121067630Y-43839574D01*
X121067423Y-43839635D01*
X121060078Y-43840998D01*
X121047914Y-43842388D01*
X121032459Y-43843666D01*
X121015240Y-43844689D01*
X121010268Y-43844913D01*
X120964599Y-43846814D01*
X120966232Y-43751876D01*
X120966753Y-43723993D01*
X120967290Y-43701642D01*
X120967901Y-43684003D01*
X120968641Y-43670257D01*
X120969567Y-43659585D01*
X120970736Y-43651169D01*
X120972205Y-43644189D01*
X120974030Y-43637826D01*
X120974143Y-43637473D01*
X120983520Y-43615709D01*
X120995902Y-43599492D01*
X121011455Y-43588688D01*
X121030345Y-43583163D01*
X121042754Y-43582325D01*
X121042754Y-43457863D01*
X121014015Y-43460001D01*
X120983817Y-43467188D01*
X120956521Y-43479394D01*
X120931245Y-43496975D01*
X120916140Y-43510790D01*
X120897018Y-43532532D01*
X120882344Y-43555607D01*
X120870962Y-43581988D01*
X120866730Y-43595047D01*
X120864844Y-43601704D01*
X120863310Y-43608249D01*
X120862081Y-43615435D01*
X120861110Y-43624016D01*
X120860351Y-43634746D01*
X120859758Y-43648377D01*
X120859285Y-43665664D01*
X120858886Y-43687359D01*
X120858513Y-43714216D01*
X120858293Y-43732343D01*
X120856950Y-43845850D01*
X120820868Y-43845850D01*
X120804405Y-43845533D01*
X120788479Y-43844680D01*
X120775229Y-43843431D01*
X120768571Y-43842372D01*
X120751015Y-43835454D01*
X120736234Y-43822952D01*
X120724486Y-43805114D01*
X120720732Y-43796637D01*
X120718053Y-43789379D01*
X120716095Y-43782464D01*
X120714744Y-43774726D01*
X120713885Y-43764996D01*
X120713406Y-43752107D01*
X120713191Y-43734892D01*
X120713136Y-43718850D01*
X120713308Y-43693081D01*
X120714102Y-43672619D01*
X120715790Y-43656430D01*
X120718645Y-43643482D01*
X120722939Y-43632740D01*
X120728943Y-43623171D01*
X120736931Y-43613743D01*
X120742266Y-43608243D01*
X120759413Y-43591097D01*
X120721730Y-43541662D01*
X120709927Y-43526348D01*
X120699273Y-43512842D01*
X120690415Y-43501940D01*
X120683999Y-43494437D01*
X120680675Y-43491128D01*
X120680523Y-43491053D01*
X120676963Y-43492684D01*
X120670089Y-43498012D01*
X120660979Y-43506145D01*
X120653173Y-43513704D01*
X120639304Y-43528489D01*
X120628679Y-43542368D01*
X120619336Y-43558067D01*
X120614720Y-43567071D01*
X120605028Y-43588672D01*
X120597741Y-43610039D01*
X120592591Y-43632553D01*
X120589314Y-43657595D01*
X120587643Y-43686544D01*
X120587288Y-43709596D01*
X120588721Y-43756118D01*
X120588721Y-43756118D01*
G37*
X120588721Y-43756118D02*
X120593349Y-43797443D01*
X120601283Y-43833924D01*
X120612634Y-43865916D01*
X120627515Y-43893773D01*
X120646035Y-43917847D01*
X120655996Y-43927925D01*
X120677357Y-43945000D01*
X120701155Y-43958071D01*
X120728981Y-43967976D01*
X120735907Y-43969839D01*
X120740680Y-43970995D01*
X120745648Y-43971997D01*
X120751276Y-43972857D01*
X120758029Y-43973585D01*
X120766372Y-43974193D01*
X120776769Y-43974691D01*
X120789686Y-43975090D01*
X120805589Y-43975401D01*
X120824941Y-43975634D01*
X120848209Y-43975802D01*
X120875857Y-43975913D01*
X120908351Y-43975980D01*
X120946154Y-43976014D01*
X120989733Y-43976024D01*
X121000882Y-43976025D01*
X121241675Y-43976025D01*
X121241675Y-43845850D01*
X121184013Y-43845850D01*
X121201591Y-43829784D01*
X121216066Y-43814318D01*
X121227368Y-43796879D01*
X121235794Y-43776604D01*
X121241639Y-43752628D01*
X121245199Y-43724087D01*
X121246575Y-43698212D01*
X121246850Y-43671181D01*
X121245854Y-43649120D01*
X121243525Y-43630766D01*
X121243201Y-43629007D01*
X121233659Y-43592684D01*
X121219620Y-43559766D01*
X121201424Y-43530735D01*
X121179406Y-43506071D01*
X121153903Y-43486253D01*
X121135997Y-43476376D01*
X121113152Y-43466822D01*
X121091705Y-43460880D01*
X121069013Y-43457981D01*
X121048000Y-43457473D01*
X121042754Y-43457863D01*
X121042754Y-43582325D01*
X121061564Y-43584048D01*
X121076885Y-43589764D01*
X121090727Y-43600293D01*
X121093440Y-43602992D01*
X121105930Y-43620221D01*
X121115125Y-43642665D01*
X121120982Y-43670085D01*
X121123459Y-43702241D01*
X121122513Y-43738896D01*
X121120943Y-43756950D01*
X121116574Y-43783279D01*
X121109352Y-43804251D01*
X121098984Y-43820320D01*
X121085175Y-43831943D01*
X121067630Y-43839574D01*
X121067423Y-43839635D01*
X121060078Y-43840998D01*
X121047914Y-43842388D01*
X121032459Y-43843666D01*
X121015240Y-43844689D01*
X121010268Y-43844913D01*
X120964599Y-43846814D01*
X120966232Y-43751876D01*
X120966753Y-43723993D01*
X120967290Y-43701642D01*
X120967901Y-43684003D01*
X120968641Y-43670257D01*
X120969567Y-43659585D01*
X120970736Y-43651169D01*
X120972205Y-43644189D01*
X120974030Y-43637826D01*
X120974143Y-43637473D01*
X120983520Y-43615709D01*
X120995902Y-43599492D01*
X121011455Y-43588688D01*
X121030345Y-43583163D01*
X121042754Y-43582325D01*
X121042754Y-43457863D01*
X121014015Y-43460001D01*
X120983817Y-43467188D01*
X120956521Y-43479394D01*
X120931245Y-43496975D01*
X120916140Y-43510790D01*
X120897018Y-43532532D01*
X120882344Y-43555607D01*
X120870962Y-43581988D01*
X120866730Y-43595047D01*
X120864844Y-43601704D01*
X120863310Y-43608249D01*
X120862081Y-43615435D01*
X120861110Y-43624016D01*
X120860351Y-43634746D01*
X120859758Y-43648377D01*
X120859285Y-43665664D01*
X120858886Y-43687359D01*
X120858513Y-43714216D01*
X120858293Y-43732343D01*
X120856950Y-43845850D01*
X120820868Y-43845850D01*
X120804405Y-43845533D01*
X120788479Y-43844680D01*
X120775229Y-43843431D01*
X120768571Y-43842372D01*
X120751015Y-43835454D01*
X120736234Y-43822952D01*
X120724486Y-43805114D01*
X120720732Y-43796637D01*
X120718053Y-43789379D01*
X120716095Y-43782464D01*
X120714744Y-43774726D01*
X120713885Y-43764996D01*
X120713406Y-43752107D01*
X120713191Y-43734892D01*
X120713136Y-43718850D01*
X120713308Y-43693081D01*
X120714102Y-43672619D01*
X120715790Y-43656430D01*
X120718645Y-43643482D01*
X120722939Y-43632740D01*
X120728943Y-43623171D01*
X120736931Y-43613743D01*
X120742266Y-43608243D01*
X120759413Y-43591097D01*
X120721730Y-43541662D01*
X120709927Y-43526348D01*
X120699273Y-43512842D01*
X120690415Y-43501940D01*
X120683999Y-43494437D01*
X120680675Y-43491128D01*
X120680523Y-43491053D01*
X120676963Y-43492684D01*
X120670089Y-43498012D01*
X120660979Y-43506145D01*
X120653173Y-43513704D01*
X120639304Y-43528489D01*
X120628679Y-43542368D01*
X120619336Y-43558067D01*
X120614720Y-43567071D01*
X120605028Y-43588672D01*
X120597741Y-43610039D01*
X120592591Y-43632553D01*
X120589314Y-43657595D01*
X120587643Y-43686544D01*
X120587288Y-43709596D01*
X120588721Y-43756118D01*
G36*
X121241803Y-45071400D02*
G01*
X121240945Y-45005518D01*
X121240087Y-44939637D01*
X121209226Y-44938729D01*
X121178364Y-44937822D01*
X121195487Y-44916603D01*
X121212698Y-44892116D01*
X121227316Y-44865110D01*
X121238034Y-44838086D01*
X121239947Y-44831631D01*
X121243585Y-44813362D01*
X121245848Y-44791518D01*
X121246655Y-44768514D01*
X121245920Y-44746765D01*
X121243560Y-44728687D01*
X121243520Y-44728493D01*
X121233244Y-44693843D01*
X121217812Y-44662013D01*
X121197744Y-44633544D01*
X121173560Y-44608980D01*
X121145780Y-44588860D01*
X121114924Y-44573726D01*
X121086662Y-44565186D01*
X121066589Y-44561707D01*
X121041527Y-44558893D01*
X121012502Y-44556739D01*
X120980540Y-44555242D01*
X120946666Y-44554398D01*
X120911907Y-44554202D01*
X120910503Y-44554220D01*
X120910503Y-44688343D01*
X120935824Y-44688444D01*
X120960265Y-44688979D01*
X120982639Y-44689948D01*
X121001759Y-44691349D01*
X121016439Y-44693182D01*
X121022600Y-44694482D01*
X121050800Y-44704226D01*
X121073449Y-44716824D01*
X121090834Y-44732644D01*
X121103247Y-44752052D01*
X121110977Y-44775416D01*
X121114314Y-44803103D01*
X121114496Y-44810841D01*
X121113872Y-44827680D01*
X121112011Y-44844066D01*
X121109625Y-44855616D01*
X121100187Y-44877826D01*
X121085531Y-44897045D01*
X121066477Y-44912244D01*
X121062615Y-44914490D01*
X121050140Y-44920911D01*
X121038012Y-44925968D01*
X121025207Y-44929839D01*
X121010704Y-44932700D01*
X120993479Y-44934728D01*
X120972508Y-44936100D01*
X120946769Y-44936993D01*
X120930443Y-44937340D01*
X120892571Y-44937513D01*
X120860297Y-44936453D01*
X120832963Y-44934006D01*
X120809911Y-44930021D01*
X120790482Y-44924343D01*
X120774017Y-44916822D01*
X120759858Y-44907304D01*
X120747345Y-44895637D01*
X120746510Y-44894731D01*
X120735191Y-44880694D01*
X120727349Y-44866487D01*
X120722487Y-44850560D01*
X120720107Y-44831361D01*
X120719667Y-44811050D01*
X120720154Y-44793300D01*
X120721459Y-44779865D01*
X120723868Y-44768732D01*
X120726949Y-44759696D01*
X120738315Y-44738751D01*
X120754805Y-44721331D01*
X120776512Y-44707364D01*
X120803531Y-44696780D01*
X120812227Y-44694370D01*
X120824150Y-44692291D01*
X120841125Y-44690650D01*
X120861967Y-44689446D01*
X120885489Y-44688677D01*
X120910503Y-44688343D01*
X120910503Y-44554220D01*
X120877288Y-44554651D01*
X120843834Y-44555741D01*
X120812572Y-44557467D01*
X120784527Y-44559826D01*
X120760725Y-44562814D01*
X120742192Y-44566427D01*
X120741810Y-44566524D01*
X120708705Y-44578205D01*
X120678131Y-44595432D01*
X120650711Y-44617697D01*
X120627065Y-44644491D01*
X120607813Y-44675305D01*
X120606866Y-44677163D01*
X120597154Y-44701938D01*
X120590600Y-44730871D01*
X120587515Y-44762443D01*
X120587311Y-44772950D01*
X120588968Y-44803442D01*
X120594300Y-44831158D01*
X120603812Y-44857501D01*
X120618008Y-44883871D01*
X120637178Y-44911391D01*
X120657519Y-44938050D01*
X120333625Y-44938050D01*
X120333625Y-45071400D01*
X121241803Y-45071400D01*
X121241803Y-45071400D01*
G37*
X121241803Y-45071400D02*
X121240945Y-45005518D01*
X121240087Y-44939637D01*
X121209226Y-44938729D01*
X121178364Y-44937822D01*
X121195487Y-44916603D01*
X121212698Y-44892116D01*
X121227316Y-44865110D01*
X121238034Y-44838086D01*
X121239947Y-44831631D01*
X121243585Y-44813362D01*
X121245848Y-44791518D01*
X121246655Y-44768514D01*
X121245920Y-44746765D01*
X121243560Y-44728687D01*
X121243520Y-44728493D01*
X121233244Y-44693843D01*
X121217812Y-44662013D01*
X121197744Y-44633544D01*
X121173560Y-44608980D01*
X121145780Y-44588860D01*
X121114924Y-44573726D01*
X121086662Y-44565186D01*
X121066589Y-44561707D01*
X121041527Y-44558893D01*
X121012502Y-44556739D01*
X120980540Y-44555242D01*
X120946666Y-44554398D01*
X120911907Y-44554202D01*
X120910503Y-44554220D01*
X120910503Y-44688343D01*
X120935824Y-44688444D01*
X120960265Y-44688979D01*
X120982639Y-44689948D01*
X121001759Y-44691349D01*
X121016439Y-44693182D01*
X121022600Y-44694482D01*
X121050800Y-44704226D01*
X121073449Y-44716824D01*
X121090834Y-44732644D01*
X121103247Y-44752052D01*
X121110977Y-44775416D01*
X121114314Y-44803103D01*
X121114496Y-44810841D01*
X121113872Y-44827680D01*
X121112011Y-44844066D01*
X121109625Y-44855616D01*
X121100187Y-44877826D01*
X121085531Y-44897045D01*
X121066477Y-44912244D01*
X121062615Y-44914490D01*
X121050140Y-44920911D01*
X121038012Y-44925968D01*
X121025207Y-44929839D01*
X121010704Y-44932700D01*
X120993479Y-44934728D01*
X120972508Y-44936100D01*
X120946769Y-44936993D01*
X120930443Y-44937340D01*
X120892571Y-44937513D01*
X120860297Y-44936453D01*
X120832963Y-44934006D01*
X120809911Y-44930021D01*
X120790482Y-44924343D01*
X120774017Y-44916822D01*
X120759858Y-44907304D01*
X120747345Y-44895637D01*
X120746510Y-44894731D01*
X120735191Y-44880694D01*
X120727349Y-44866487D01*
X120722487Y-44850560D01*
X120720107Y-44831361D01*
X120719667Y-44811050D01*
X120720154Y-44793300D01*
X120721459Y-44779865D01*
X120723868Y-44768732D01*
X120726949Y-44759696D01*
X120738315Y-44738751D01*
X120754805Y-44721331D01*
X120776512Y-44707364D01*
X120803531Y-44696780D01*
X120812227Y-44694370D01*
X120824150Y-44692291D01*
X120841125Y-44690650D01*
X120861967Y-44689446D01*
X120885489Y-44688677D01*
X120910503Y-44688343D01*
X120910503Y-44554220D01*
X120877288Y-44554651D01*
X120843834Y-44555741D01*
X120812572Y-44557467D01*
X120784527Y-44559826D01*
X120760725Y-44562814D01*
X120742192Y-44566427D01*
X120741810Y-44566524D01*
X120708705Y-44578205D01*
X120678131Y-44595432D01*
X120650711Y-44617697D01*
X120627065Y-44644491D01*
X120607813Y-44675305D01*
X120606866Y-44677163D01*
X120597154Y-44701938D01*
X120590600Y-44730871D01*
X120587515Y-44762443D01*
X120587311Y-44772950D01*
X120588968Y-44803442D01*
X120594300Y-44831158D01*
X120603812Y-44857501D01*
X120618008Y-44883871D01*
X120637178Y-44911391D01*
X120657519Y-44938050D01*
X120333625Y-44938050D01*
X120333625Y-45071400D01*
X121241803Y-45071400D01*
G36*
X120586989Y-46320976D02*
G01*
X120587760Y-46345327D01*
X120589206Y-46368999D01*
X120591239Y-46390156D01*
X120593772Y-46406960D01*
X120593996Y-46408075D01*
X120604414Y-46447136D01*
X120618529Y-46481073D01*
X120636421Y-46509979D01*
X120658167Y-46533946D01*
X120683846Y-46553068D01*
X120713538Y-46567437D01*
X120734075Y-46574022D01*
X120739126Y-46575344D01*
X120743987Y-46576490D01*
X120749128Y-46577474D01*
X120755018Y-46578307D01*
X120762126Y-46579002D01*
X120770921Y-46579572D01*
X120781874Y-46580028D01*
X120795452Y-46580384D01*
X120812125Y-46580652D01*
X120832363Y-46580845D01*
X120856634Y-46580974D01*
X120885409Y-46581053D01*
X120919155Y-46581094D01*
X120958343Y-46581110D01*
X121000375Y-46581112D01*
X121240087Y-46581112D01*
X121240087Y-46450937D01*
X121212030Y-46450016D01*
X121183973Y-46449094D01*
X121196155Y-46439485D01*
X121209021Y-46426816D01*
X121221300Y-46410350D01*
X121231348Y-46392555D01*
X121236866Y-46378374D01*
X121242929Y-46350585D01*
X121246538Y-46319065D01*
X121247576Y-46285985D01*
X121245928Y-46253519D01*
X121244312Y-46239924D01*
X121236385Y-46203989D01*
X121223508Y-46170961D01*
X121206088Y-46141330D01*
X121184534Y-46115585D01*
X121159252Y-46094218D01*
X121130650Y-46077717D01*
X121100404Y-46066900D01*
X121083177Y-46063863D01*
X121062182Y-46062326D01*
X121043237Y-46062293D01*
X121043237Y-46185964D01*
X121063692Y-46188869D01*
X121081558Y-46197417D01*
X121096609Y-46211361D01*
X121108624Y-46230449D01*
X121117376Y-46254434D01*
X121121251Y-46272779D01*
X121122440Y-46285590D01*
X121122849Y-46302776D01*
X121122556Y-46322537D01*
X121121640Y-46343071D01*
X121120181Y-46362577D01*
X121118257Y-46379254D01*
X121116070Y-46390839D01*
X121108963Y-46410145D01*
X121098501Y-46424739D01*
X121083746Y-46435783D01*
X121076914Y-46439246D01*
X121069221Y-46442520D01*
X121061802Y-46444856D01*
X121053269Y-46446460D01*
X121042232Y-46447537D01*
X121027304Y-46448291D01*
X121012281Y-46448781D01*
X120965450Y-46450135D01*
X120965536Y-46377511D01*
X120965789Y-46342306D01*
X120966492Y-46312831D01*
X120967698Y-46288480D01*
X120969457Y-46268645D01*
X120971823Y-46252721D01*
X120974847Y-46240100D01*
X120978046Y-46231351D01*
X120989514Y-46211973D01*
X121004327Y-46197792D01*
X121022145Y-46189045D01*
X121042629Y-46185966D01*
X121043237Y-46185964D01*
X121043237Y-46062293D01*
X121039818Y-46062286D01*
X121018486Y-46063740D01*
X121000587Y-46066686D01*
X120999245Y-46067019D01*
X120967026Y-46078427D01*
X120938302Y-46095006D01*
X120913388Y-46116435D01*
X120892599Y-46142390D01*
X120876250Y-46172546D01*
X120865083Y-46204923D01*
X120863572Y-46211673D01*
X120862326Y-46219765D01*
X120861307Y-46229911D01*
X120860480Y-46242823D01*
X120859808Y-46259213D01*
X120859254Y-46279794D01*
X120858784Y-46305279D01*
X120858360Y-46336379D01*
X120858347Y-46337431D01*
X120857002Y-46449350D01*
X120816770Y-46449332D01*
X120794768Y-46449013D01*
X120777913Y-46447874D01*
X120765019Y-46445609D01*
X120754903Y-46441909D01*
X120746381Y-46436468D01*
X120738271Y-46428979D01*
X120738264Y-46428973D01*
X120730242Y-46419689D01*
X120724064Y-46409916D01*
X120719508Y-46398684D01*
X120716350Y-46385022D01*
X120714367Y-46367959D01*
X120713337Y-46346526D01*
X120713037Y-46319753D01*
X120713037Y-46319175D01*
X120713064Y-46298465D01*
X120713236Y-46282956D01*
X120713688Y-46271500D01*
X120714554Y-46262948D01*
X120715969Y-46256151D01*
X120718069Y-46249960D01*
X120720989Y-46243226D01*
X120722292Y-46240393D01*
X120733948Y-46220851D01*
X120745744Y-46208213D01*
X120759942Y-46196077D01*
X120721027Y-46145005D01*
X120707339Y-46127205D01*
X120696860Y-46114021D01*
X120689097Y-46104910D01*
X120683555Y-46099333D01*
X120679741Y-46096746D01*
X120677158Y-46096608D01*
X120676938Y-46096714D01*
X120669849Y-46101856D01*
X120660284Y-46110530D01*
X120649675Y-46121265D01*
X120639457Y-46132592D01*
X120631066Y-46143041D01*
X120629285Y-46145542D01*
X120612322Y-46175107D01*
X120599776Y-46208139D01*
X120591478Y-46245181D01*
X120587817Y-46277580D01*
X120586979Y-46297781D01*
X120586989Y-46320976D01*
X120586989Y-46320976D01*
G37*
X120586989Y-46320976D02*
X120587760Y-46345327D01*
X120589206Y-46368999D01*
X120591239Y-46390156D01*
X120593772Y-46406960D01*
X120593996Y-46408075D01*
X120604414Y-46447136D01*
X120618529Y-46481073D01*
X120636421Y-46509979D01*
X120658167Y-46533946D01*
X120683846Y-46553068D01*
X120713538Y-46567437D01*
X120734075Y-46574022D01*
X120739126Y-46575344D01*
X120743987Y-46576490D01*
X120749128Y-46577474D01*
X120755018Y-46578307D01*
X120762126Y-46579002D01*
X120770921Y-46579572D01*
X120781874Y-46580028D01*
X120795452Y-46580384D01*
X120812125Y-46580652D01*
X120832363Y-46580845D01*
X120856634Y-46580974D01*
X120885409Y-46581053D01*
X120919155Y-46581094D01*
X120958343Y-46581110D01*
X121000375Y-46581112D01*
X121240087Y-46581112D01*
X121240087Y-46450937D01*
X121212030Y-46450016D01*
X121183973Y-46449094D01*
X121196155Y-46439485D01*
X121209021Y-46426816D01*
X121221300Y-46410350D01*
X121231348Y-46392555D01*
X121236866Y-46378374D01*
X121242929Y-46350585D01*
X121246538Y-46319065D01*
X121247576Y-46285985D01*
X121245928Y-46253519D01*
X121244312Y-46239924D01*
X121236385Y-46203989D01*
X121223508Y-46170961D01*
X121206088Y-46141330D01*
X121184534Y-46115585D01*
X121159252Y-46094218D01*
X121130650Y-46077717D01*
X121100404Y-46066900D01*
X121083177Y-46063863D01*
X121062182Y-46062326D01*
X121043237Y-46062293D01*
X121043237Y-46185964D01*
X121063692Y-46188869D01*
X121081558Y-46197417D01*
X121096609Y-46211361D01*
X121108624Y-46230449D01*
X121117376Y-46254434D01*
X121121251Y-46272779D01*
X121122440Y-46285590D01*
X121122849Y-46302776D01*
X121122556Y-46322537D01*
X121121640Y-46343071D01*
X121120181Y-46362577D01*
X121118257Y-46379254D01*
X121116070Y-46390839D01*
X121108963Y-46410145D01*
X121098501Y-46424739D01*
X121083746Y-46435783D01*
X121076914Y-46439246D01*
X121069221Y-46442520D01*
X121061802Y-46444856D01*
X121053269Y-46446460D01*
X121042232Y-46447537D01*
X121027304Y-46448291D01*
X121012281Y-46448781D01*
X120965450Y-46450135D01*
X120965536Y-46377511D01*
X120965789Y-46342306D01*
X120966492Y-46312831D01*
X120967698Y-46288480D01*
X120969457Y-46268645D01*
X120971823Y-46252721D01*
X120974847Y-46240100D01*
X120978046Y-46231351D01*
X120989514Y-46211973D01*
X121004327Y-46197792D01*
X121022145Y-46189045D01*
X121042629Y-46185966D01*
X121043237Y-46185964D01*
X121043237Y-46062293D01*
X121039818Y-46062286D01*
X121018486Y-46063740D01*
X121000587Y-46066686D01*
X120999245Y-46067019D01*
X120967026Y-46078427D01*
X120938302Y-46095006D01*
X120913388Y-46116435D01*
X120892599Y-46142390D01*
X120876250Y-46172546D01*
X120865083Y-46204923D01*
X120863572Y-46211673D01*
X120862326Y-46219765D01*
X120861307Y-46229911D01*
X120860480Y-46242823D01*
X120859808Y-46259213D01*
X120859254Y-46279794D01*
X120858784Y-46305279D01*
X120858360Y-46336379D01*
X120858347Y-46337431D01*
X120857002Y-46449350D01*
X120816770Y-46449332D01*
X120794768Y-46449013D01*
X120777913Y-46447874D01*
X120765019Y-46445609D01*
X120754903Y-46441909D01*
X120746381Y-46436468D01*
X120738271Y-46428979D01*
X120738264Y-46428973D01*
X120730242Y-46419689D01*
X120724064Y-46409916D01*
X120719508Y-46398684D01*
X120716350Y-46385022D01*
X120714367Y-46367959D01*
X120713337Y-46346526D01*
X120713037Y-46319753D01*
X120713037Y-46319175D01*
X120713064Y-46298465D01*
X120713236Y-46282956D01*
X120713688Y-46271500D01*
X120714554Y-46262948D01*
X120715969Y-46256151D01*
X120718069Y-46249960D01*
X120720989Y-46243226D01*
X120722292Y-46240393D01*
X120733948Y-46220851D01*
X120745744Y-46208213D01*
X120759942Y-46196077D01*
X120721027Y-46145005D01*
X120707339Y-46127205D01*
X120696860Y-46114021D01*
X120689097Y-46104910D01*
X120683555Y-46099333D01*
X120679741Y-46096746D01*
X120677158Y-46096608D01*
X120676938Y-46096714D01*
X120669849Y-46101856D01*
X120660284Y-46110530D01*
X120649675Y-46121265D01*
X120639457Y-46132592D01*
X120631066Y-46143041D01*
X120629285Y-46145542D01*
X120612322Y-46175107D01*
X120599776Y-46208139D01*
X120591478Y-46245181D01*
X120587817Y-46277580D01*
X120586979Y-46297781D01*
X120586989Y-46320976D01*
G36*
X120590661Y-47475248D02*
G01*
X120600404Y-47512814D01*
X120615253Y-47548254D01*
X120634867Y-47580986D01*
X120658905Y-47610430D01*
X120687026Y-47636004D01*
X120718888Y-47657127D01*
X120749550Y-47671494D01*
X120765787Y-47677390D01*
X120781100Y-47681986D01*
X120796627Y-47685434D01*
X120813510Y-47687883D01*
X120832888Y-47689485D01*
X120855903Y-47690391D01*
X120883694Y-47690750D01*
X120895466Y-47690775D01*
X120968625Y-47690775D01*
X120968625Y-47290725D01*
X120978943Y-47290780D01*
X120994232Y-47292213D01*
X121012381Y-47295910D01*
X121030630Y-47301177D01*
X121046221Y-47307315D01*
X121048043Y-47308209D01*
X121072147Y-47323801D01*
X121091730Y-47343713D01*
X121106625Y-47367643D01*
X121116668Y-47395290D01*
X121121692Y-47426353D01*
X121122270Y-47443125D01*
X121118974Y-47476919D01*
X121109516Y-47509727D01*
X121094063Y-47541104D01*
X121076406Y-47566232D01*
X121061240Y-47584975D01*
X121096183Y-47625969D01*
X121111181Y-47643669D01*
X121122579Y-47657077D01*
X121131072Y-47666579D01*
X121137351Y-47672561D01*
X121142111Y-47675410D01*
X121146045Y-47675513D01*
X121149844Y-47673257D01*
X121154204Y-47669028D01*
X121159816Y-47663214D01*
X121160939Y-47662101D01*
X121183955Y-47635854D01*
X121204593Y-47605089D01*
X121221950Y-47571465D01*
X121235119Y-47536642D01*
X121240553Y-47516227D01*
X121242954Y-47501473D01*
X121244820Y-47482357D01*
X121246079Y-47460852D01*
X121246659Y-47438930D01*
X121246487Y-47418564D01*
X121245491Y-47401725D01*
X121244929Y-47396998D01*
X121236609Y-47355632D01*
X121223884Y-47318534D01*
X121206514Y-47285181D01*
X121184258Y-47255048D01*
X121175564Y-47245473D01*
X121150312Y-47222554D01*
X121121616Y-47203355D01*
X121088896Y-47187598D01*
X121051571Y-47175007D01*
X121009061Y-47165304D01*
X121006725Y-47164878D01*
X120986465Y-47162186D01*
X120961680Y-47160384D01*
X120934132Y-47159473D01*
X120905584Y-47159455D01*
X120877797Y-47160331D01*
X120857500Y-47161754D01*
X120857500Y-47289904D01*
X120857500Y-47560675D01*
X120844006Y-47558768D01*
X120810139Y-47551808D01*
X120781386Y-47541166D01*
X120757619Y-47526748D01*
X120738711Y-47508463D01*
X120724538Y-47486215D01*
X120716112Y-47464097D01*
X120712282Y-47443329D01*
X120711538Y-47420292D01*
X120713740Y-47397338D01*
X120718749Y-47376820D01*
X120721697Y-47369407D01*
X120736044Y-47345613D01*
X120755184Y-47325715D01*
X120778687Y-47309997D01*
X120806124Y-47298741D01*
X120837067Y-47292230D01*
X120839243Y-47291972D01*
X120857500Y-47289904D01*
X120857500Y-47161754D01*
X120852534Y-47162103D01*
X120831604Y-47164762D01*
X120785373Y-47175147D01*
X120743653Y-47189708D01*
X120706560Y-47208337D01*
X120674205Y-47230926D01*
X120646703Y-47257368D01*
X120624168Y-47287555D01*
X120606712Y-47321380D01*
X120594450Y-47358733D01*
X120587860Y-47396062D01*
X120586366Y-47436137D01*
X120590661Y-47475248D01*
X120590661Y-47475248D01*
G37*
X120590661Y-47475248D02*
X120600404Y-47512814D01*
X120615253Y-47548254D01*
X120634867Y-47580986D01*
X120658905Y-47610430D01*
X120687026Y-47636004D01*
X120718888Y-47657127D01*
X120749550Y-47671494D01*
X120765787Y-47677390D01*
X120781100Y-47681986D01*
X120796627Y-47685434D01*
X120813510Y-47687883D01*
X120832888Y-47689485D01*
X120855903Y-47690391D01*
X120883694Y-47690750D01*
X120895466Y-47690775D01*
X120968625Y-47690775D01*
X120968625Y-47290725D01*
X120978943Y-47290780D01*
X120994232Y-47292213D01*
X121012381Y-47295910D01*
X121030630Y-47301177D01*
X121046221Y-47307315D01*
X121048043Y-47308209D01*
X121072147Y-47323801D01*
X121091730Y-47343713D01*
X121106625Y-47367643D01*
X121116668Y-47395290D01*
X121121692Y-47426353D01*
X121122270Y-47443125D01*
X121118974Y-47476919D01*
X121109516Y-47509727D01*
X121094063Y-47541104D01*
X121076406Y-47566232D01*
X121061240Y-47584975D01*
X121096183Y-47625969D01*
X121111181Y-47643669D01*
X121122579Y-47657077D01*
X121131072Y-47666579D01*
X121137351Y-47672561D01*
X121142111Y-47675410D01*
X121146045Y-47675513D01*
X121149844Y-47673257D01*
X121154204Y-47669028D01*
X121159816Y-47663214D01*
X121160939Y-47662101D01*
X121183955Y-47635854D01*
X121204593Y-47605089D01*
X121221950Y-47571465D01*
X121235119Y-47536642D01*
X121240553Y-47516227D01*
X121242954Y-47501473D01*
X121244820Y-47482357D01*
X121246079Y-47460852D01*
X121246659Y-47438930D01*
X121246487Y-47418564D01*
X121245491Y-47401725D01*
X121244929Y-47396998D01*
X121236609Y-47355632D01*
X121223884Y-47318534D01*
X121206514Y-47285181D01*
X121184258Y-47255048D01*
X121175564Y-47245473D01*
X121150312Y-47222554D01*
X121121616Y-47203355D01*
X121088896Y-47187598D01*
X121051571Y-47175007D01*
X121009061Y-47165304D01*
X121006725Y-47164878D01*
X120986465Y-47162186D01*
X120961680Y-47160384D01*
X120934132Y-47159473D01*
X120905584Y-47159455D01*
X120877797Y-47160331D01*
X120857500Y-47161754D01*
X120857500Y-47289904D01*
X120857500Y-47560675D01*
X120844006Y-47558768D01*
X120810139Y-47551808D01*
X120781386Y-47541166D01*
X120757619Y-47526748D01*
X120738711Y-47508463D01*
X120724538Y-47486215D01*
X120716112Y-47464097D01*
X120712282Y-47443329D01*
X120711538Y-47420292D01*
X120713740Y-47397338D01*
X120718749Y-47376820D01*
X120721697Y-47369407D01*
X120736044Y-47345613D01*
X120755184Y-47325715D01*
X120778687Y-47309997D01*
X120806124Y-47298741D01*
X120837067Y-47292230D01*
X120839243Y-47291972D01*
X120857500Y-47289904D01*
X120857500Y-47161754D01*
X120852534Y-47162103D01*
X120831604Y-47164762D01*
X120785373Y-47175147D01*
X120743653Y-47189708D01*
X120706560Y-47208337D01*
X120674205Y-47230926D01*
X120646703Y-47257368D01*
X120624168Y-47287555D01*
X120606712Y-47321380D01*
X120594450Y-47358733D01*
X120587860Y-47396062D01*
X120586366Y-47436137D01*
X120590661Y-47475248D01*
G36*
X119574638Y-43201275D02*
G01*
X119585712Y-43235240D01*
X119602575Y-43267492D01*
X119605137Y-43271437D01*
X119625965Y-43297479D01*
X119651144Y-43320129D01*
X119679513Y-43338601D01*
X119709912Y-43352105D01*
X119733550Y-43358541D01*
X119751727Y-43361291D01*
X119775109Y-43363540D01*
X119802651Y-43365287D01*
X119833305Y-43366533D01*
X119866026Y-43367278D01*
X119899767Y-43367523D01*
X119933483Y-43367268D01*
X119966126Y-43366513D01*
X119996650Y-43365259D01*
X120024010Y-43363506D01*
X120047159Y-43361254D01*
X120065051Y-43358504D01*
X120065433Y-43358427D01*
X120097538Y-43349192D01*
X120126432Y-43335004D01*
X120153286Y-43315256D01*
X120159923Y-43309281D01*
X120180406Y-43288333D01*
X120196307Y-43267545D01*
X120209007Y-43244899D01*
X120217157Y-43225756D01*
X120220963Y-43215538D01*
X120223651Y-43207043D01*
X120225415Y-43198807D01*
X120226449Y-43189367D01*
X120226947Y-43177261D01*
X120227101Y-43161024D01*
X120227110Y-43150525D01*
X120227027Y-43131285D01*
X120226679Y-43116991D01*
X120225901Y-43106239D01*
X120224529Y-43097624D01*
X120222399Y-43089744D01*
X120219346Y-43081193D01*
X120218853Y-43079908D01*
X120204760Y-43049579D01*
X120185941Y-43020051D01*
X120172423Y-43002599D01*
X120155685Y-42982250D01*
X120657518Y-42982250D01*
X120638778Y-43004569D01*
X120617179Y-43034635D01*
X120601502Y-43066517D01*
X120591572Y-43100708D01*
X120587211Y-43137698D01*
X120586964Y-43148846D01*
X120589440Y-43185498D01*
X120597239Y-43219061D01*
X120610618Y-43250154D01*
X120629831Y-43279397D01*
X120650968Y-43303285D01*
X120664730Y-43316655D01*
X120676314Y-43326508D01*
X120687581Y-43334227D01*
X120700391Y-43341194D01*
X120705100Y-43343480D01*
X120713815Y-43347619D01*
X120721729Y-43351228D01*
X120729322Y-43354343D01*
X120737079Y-43357000D01*
X120745480Y-43359237D01*
X120755008Y-43361088D01*
X120766146Y-43362591D01*
X120779377Y-43363781D01*
X120795182Y-43364696D01*
X120814044Y-43365371D01*
X120836446Y-43365842D01*
X120862869Y-43366147D01*
X120893797Y-43366322D01*
X120929712Y-43366402D01*
X120971096Y-43366424D01*
X121009733Y-43366425D01*
X121241675Y-43366425D01*
X121241675Y-43236544D01*
X121031331Y-43235508D01*
X120988042Y-43235297D01*
X120950610Y-43235093D01*
X120918541Y-43234850D01*
X120891342Y-43234525D01*
X120868520Y-43234073D01*
X120849581Y-43233450D01*
X120834033Y-43232610D01*
X120821381Y-43231510D01*
X120811133Y-43230105D01*
X120802796Y-43228350D01*
X120795876Y-43226201D01*
X120789879Y-43223614D01*
X120784313Y-43220543D01*
X120778685Y-43216945D01*
X120772500Y-43212775D01*
X120771446Y-43212065D01*
X120753635Y-43198180D01*
X120740388Y-43182901D01*
X120729962Y-43164113D01*
X120727805Y-43159136D01*
X120721812Y-43138364D01*
X120719243Y-43114656D01*
X120720119Y-43090436D01*
X120724461Y-43068131D01*
X120726953Y-43060841D01*
X120736689Y-43042605D01*
X120750734Y-43024759D01*
X120767267Y-43009349D01*
X120780919Y-43000225D01*
X120787411Y-42996800D01*
X120793731Y-42993843D01*
X120800379Y-42991319D01*
X120807854Y-42989194D01*
X120816656Y-42987433D01*
X120827284Y-42986002D01*
X120840236Y-42984867D01*
X120856012Y-42983993D01*
X120875112Y-42983346D01*
X120898034Y-42982891D01*
X120925277Y-42982593D01*
X120957342Y-42982420D01*
X120994727Y-42982335D01*
X121037931Y-42982305D01*
X121040856Y-42982305D01*
X121241675Y-42982250D01*
X121241675Y-42852075D01*
X119891398Y-42852075D01*
X119891398Y-42983086D01*
X119916334Y-42983429D01*
X119941714Y-42984606D01*
X119965959Y-42986512D01*
X119987488Y-42989042D01*
X120004719Y-42992089D01*
X120008706Y-42993059D01*
X120036219Y-43002950D01*
X120058693Y-43016698D01*
X120076123Y-43034297D01*
X120088503Y-43055742D01*
X120095328Y-43078356D01*
X120098097Y-43103572D01*
X120097082Y-43129409D01*
X120095105Y-43141637D01*
X120086914Y-43166538D01*
X120073906Y-43188001D01*
X120056624Y-43205368D01*
X120035611Y-43217981D01*
X120030327Y-43220134D01*
X120017087Y-43224636D01*
X120003614Y-43228141D01*
X119988900Y-43230758D01*
X119971939Y-43232593D01*
X119951722Y-43233752D01*
X119927241Y-43234344D01*
X119897489Y-43234475D01*
X119895475Y-43234471D01*
X119866186Y-43234221D01*
X119842213Y-43233536D01*
X119822527Y-43232262D01*
X119806100Y-43230246D01*
X119791904Y-43227337D01*
X119778910Y-43223381D01*
X119766089Y-43218225D01*
X119756764Y-43213868D01*
X119740345Y-43204249D01*
X119727688Y-43192623D01*
X119717185Y-43177298D01*
X119711611Y-43166400D01*
X119708114Y-43158421D01*
X119705772Y-43151059D01*
X119704357Y-43142732D01*
X119703643Y-43131860D01*
X119703402Y-43116862D01*
X119703387Y-43109250D01*
X119703485Y-43092308D01*
X119703941Y-43080138D01*
X119704996Y-43071164D01*
X119706890Y-43063808D01*
X119709867Y-43056494D01*
X119712213Y-43051590D01*
X119723028Y-43033909D01*
X119736891Y-43019258D01*
X119754317Y-43007413D01*
X119775820Y-42998149D01*
X119801917Y-42991243D01*
X119833123Y-42986471D01*
X119868487Y-42983684D01*
X119891398Y-42983086D01*
X119891398Y-42852075D01*
X119574800Y-42852075D01*
X119574800Y-42982250D01*
X119608336Y-42982249D01*
X119641872Y-42982249D01*
X119626720Y-42999435D01*
X119604197Y-43029460D01*
X119587140Y-43061833D01*
X119575602Y-43095878D01*
X119569636Y-43130917D01*
X119569297Y-43166275D01*
X119574638Y-43201275D01*
X119574638Y-43201275D01*
G37*
X119574638Y-43201275D02*
X119585712Y-43235240D01*
X119602575Y-43267492D01*
X119605137Y-43271437D01*
X119625965Y-43297479D01*
X119651144Y-43320129D01*
X119679513Y-43338601D01*
X119709912Y-43352105D01*
X119733550Y-43358541D01*
X119751727Y-43361291D01*
X119775109Y-43363540D01*
X119802651Y-43365287D01*
X119833305Y-43366533D01*
X119866026Y-43367278D01*
X119899767Y-43367523D01*
X119933483Y-43367268D01*
X119966126Y-43366513D01*
X119996650Y-43365259D01*
X120024010Y-43363506D01*
X120047159Y-43361254D01*
X120065051Y-43358504D01*
X120065433Y-43358427D01*
X120097538Y-43349192D01*
X120126432Y-43335004D01*
X120153286Y-43315256D01*
X120159923Y-43309281D01*
X120180406Y-43288333D01*
X120196307Y-43267545D01*
X120209007Y-43244899D01*
X120217157Y-43225756D01*
X120220963Y-43215538D01*
X120223651Y-43207043D01*
X120225415Y-43198807D01*
X120226449Y-43189367D01*
X120226947Y-43177261D01*
X120227101Y-43161024D01*
X120227110Y-43150525D01*
X120227027Y-43131285D01*
X120226679Y-43116991D01*
X120225901Y-43106239D01*
X120224529Y-43097624D01*
X120222399Y-43089744D01*
X120219346Y-43081193D01*
X120218853Y-43079908D01*
X120204760Y-43049579D01*
X120185941Y-43020051D01*
X120172423Y-43002599D01*
X120155685Y-42982250D01*
X120657518Y-42982250D01*
X120638778Y-43004569D01*
X120617179Y-43034635D01*
X120601502Y-43066517D01*
X120591572Y-43100708D01*
X120587211Y-43137698D01*
X120586964Y-43148846D01*
X120589440Y-43185498D01*
X120597239Y-43219061D01*
X120610618Y-43250154D01*
X120629831Y-43279397D01*
X120650968Y-43303285D01*
X120664730Y-43316655D01*
X120676314Y-43326508D01*
X120687581Y-43334227D01*
X120700391Y-43341194D01*
X120705100Y-43343480D01*
X120713815Y-43347619D01*
X120721729Y-43351228D01*
X120729322Y-43354343D01*
X120737079Y-43357000D01*
X120745480Y-43359237D01*
X120755008Y-43361088D01*
X120766146Y-43362591D01*
X120779377Y-43363781D01*
X120795182Y-43364696D01*
X120814044Y-43365371D01*
X120836446Y-43365842D01*
X120862869Y-43366147D01*
X120893797Y-43366322D01*
X120929712Y-43366402D01*
X120971096Y-43366424D01*
X121009733Y-43366425D01*
X121241675Y-43366425D01*
X121241675Y-43236544D01*
X121031331Y-43235508D01*
X120988042Y-43235297D01*
X120950610Y-43235093D01*
X120918541Y-43234850D01*
X120891342Y-43234525D01*
X120868520Y-43234073D01*
X120849581Y-43233450D01*
X120834033Y-43232610D01*
X120821381Y-43231510D01*
X120811133Y-43230105D01*
X120802796Y-43228350D01*
X120795876Y-43226201D01*
X120789879Y-43223614D01*
X120784313Y-43220543D01*
X120778685Y-43216945D01*
X120772500Y-43212775D01*
X120771446Y-43212065D01*
X120753635Y-43198180D01*
X120740388Y-43182901D01*
X120729962Y-43164113D01*
X120727805Y-43159136D01*
X120721812Y-43138364D01*
X120719243Y-43114656D01*
X120720119Y-43090436D01*
X120724461Y-43068131D01*
X120726953Y-43060841D01*
X120736689Y-43042605D01*
X120750734Y-43024759D01*
X120767267Y-43009349D01*
X120780919Y-43000225D01*
X120787411Y-42996800D01*
X120793731Y-42993843D01*
X120800379Y-42991319D01*
X120807854Y-42989194D01*
X120816656Y-42987433D01*
X120827284Y-42986002D01*
X120840236Y-42984867D01*
X120856012Y-42983993D01*
X120875112Y-42983346D01*
X120898034Y-42982891D01*
X120925277Y-42982593D01*
X120957342Y-42982420D01*
X120994727Y-42982335D01*
X121037931Y-42982305D01*
X121040856Y-42982305D01*
X121241675Y-42982250D01*
X121241675Y-42852075D01*
X119891398Y-42852075D01*
X119891398Y-42983086D01*
X119916334Y-42983429D01*
X119941714Y-42984606D01*
X119965959Y-42986512D01*
X119987488Y-42989042D01*
X120004719Y-42992089D01*
X120008706Y-42993059D01*
X120036219Y-43002950D01*
X120058693Y-43016698D01*
X120076123Y-43034297D01*
X120088503Y-43055742D01*
X120095328Y-43078356D01*
X120098097Y-43103572D01*
X120097082Y-43129409D01*
X120095105Y-43141637D01*
X120086914Y-43166538D01*
X120073906Y-43188001D01*
X120056624Y-43205368D01*
X120035611Y-43217981D01*
X120030327Y-43220134D01*
X120017087Y-43224636D01*
X120003614Y-43228141D01*
X119988900Y-43230758D01*
X119971939Y-43232593D01*
X119951722Y-43233752D01*
X119927241Y-43234344D01*
X119897489Y-43234475D01*
X119895475Y-43234471D01*
X119866186Y-43234221D01*
X119842213Y-43233536D01*
X119822527Y-43232262D01*
X119806100Y-43230246D01*
X119791904Y-43227337D01*
X119778910Y-43223381D01*
X119766089Y-43218225D01*
X119756764Y-43213868D01*
X119740345Y-43204249D01*
X119727688Y-43192623D01*
X119717185Y-43177298D01*
X119711611Y-43166400D01*
X119708114Y-43158421D01*
X119705772Y-43151059D01*
X119704357Y-43142732D01*
X119703643Y-43131860D01*
X119703402Y-43116862D01*
X119703387Y-43109250D01*
X119703485Y-43092308D01*
X119703941Y-43080138D01*
X119704996Y-43071164D01*
X119706890Y-43063808D01*
X119709867Y-43056494D01*
X119712213Y-43051590D01*
X119723028Y-43033909D01*
X119736891Y-43019258D01*
X119754317Y-43007413D01*
X119775820Y-42998149D01*
X119801917Y-42991243D01*
X119833123Y-42986471D01*
X119868487Y-42983684D01*
X119891398Y-42983086D01*
X119891398Y-42852075D01*
X119574800Y-42852075D01*
X119574800Y-42982250D01*
X119608336Y-42982249D01*
X119641872Y-42982249D01*
X119626720Y-42999435D01*
X119604197Y-43029460D01*
X119587140Y-43061833D01*
X119575602Y-43095878D01*
X119569636Y-43130917D01*
X119569297Y-43166275D01*
X119574638Y-43201275D01*
G36*
X120587386Y-44430100D02*
G01*
X120589381Y-44452764D01*
X120592328Y-44468150D01*
X120597278Y-44483232D01*
X120604577Y-44500697D01*
X120613185Y-44518397D01*
X120622062Y-44534189D01*
X120629825Y-44545504D01*
X120637132Y-44554595D01*
X120690959Y-44509451D01*
X120706751Y-44496195D01*
X120720949Y-44484258D01*
X120732815Y-44474260D01*
X120741611Y-44466825D01*
X120746599Y-44462574D01*
X120747392Y-44461876D01*
X120747137Y-44458191D01*
X120743955Y-44450879D01*
X120738616Y-44441656D01*
X120726681Y-44417752D01*
X120720090Y-44392533D01*
X120718639Y-44366921D01*
X120722122Y-44341838D01*
X120730336Y-44318205D01*
X120743077Y-44296942D01*
X120760139Y-44278972D01*
X120777294Y-44267296D01*
X120783813Y-44263826D01*
X120790041Y-44260829D01*
X120796476Y-44258271D01*
X120803617Y-44256117D01*
X120811963Y-44254332D01*
X120822014Y-44252882D01*
X120834269Y-44251730D01*
X120849227Y-44250843D01*
X120867387Y-44250186D01*
X120889248Y-44249724D01*
X120915309Y-44249421D01*
X120946070Y-44249244D01*
X120982030Y-44249157D01*
X121023687Y-44249125D01*
X121037681Y-44249121D01*
X121241675Y-44249075D01*
X121241675Y-44184516D01*
X121241575Y-44164881D01*
X121241297Y-44147441D01*
X121240871Y-44133182D01*
X121240330Y-44123087D01*
X121239704Y-44118141D01*
X121239558Y-44117841D01*
X121236155Y-44117547D01*
X121226828Y-44117266D01*
X121212003Y-44116999D01*
X121192106Y-44116750D01*
X121167563Y-44116521D01*
X121138800Y-44116316D01*
X121106243Y-44116136D01*
X121070318Y-44115986D01*
X121031450Y-44115867D01*
X120990066Y-44115782D01*
X120946592Y-44115734D01*
X120915708Y-44115725D01*
X120593975Y-44115725D01*
X120593975Y-44249075D01*
X120661244Y-44249075D01*
X120640711Y-44271252D01*
X120619199Y-44299083D01*
X120602707Y-44330395D01*
X120592402Y-44361555D01*
X120588898Y-44382075D01*
X120587226Y-44405731D01*
X120587386Y-44430100D01*
X120587386Y-44430100D01*
G37*
X120587386Y-44430100D02*
X120589381Y-44452764D01*
X120592328Y-44468150D01*
X120597278Y-44483232D01*
X120604577Y-44500697D01*
X120613185Y-44518397D01*
X120622062Y-44534189D01*
X120629825Y-44545504D01*
X120637132Y-44554595D01*
X120690959Y-44509451D01*
X120706751Y-44496195D01*
X120720949Y-44484258D01*
X120732815Y-44474260D01*
X120741611Y-44466825D01*
X120746599Y-44462574D01*
X120747392Y-44461876D01*
X120747137Y-44458191D01*
X120743955Y-44450879D01*
X120738616Y-44441656D01*
X120726681Y-44417752D01*
X120720090Y-44392533D01*
X120718639Y-44366921D01*
X120722122Y-44341838D01*
X120730336Y-44318205D01*
X120743077Y-44296942D01*
X120760139Y-44278972D01*
X120777294Y-44267296D01*
X120783813Y-44263826D01*
X120790041Y-44260829D01*
X120796476Y-44258271D01*
X120803617Y-44256117D01*
X120811963Y-44254332D01*
X120822014Y-44252882D01*
X120834269Y-44251730D01*
X120849227Y-44250843D01*
X120867387Y-44250186D01*
X120889248Y-44249724D01*
X120915309Y-44249421D01*
X120946070Y-44249244D01*
X120982030Y-44249157D01*
X121023687Y-44249125D01*
X121037681Y-44249121D01*
X121241675Y-44249075D01*
X121241675Y-44184516D01*
X121241575Y-44164881D01*
X121241297Y-44147441D01*
X121240871Y-44133182D01*
X121240330Y-44123087D01*
X121239704Y-44118141D01*
X121239558Y-44117841D01*
X121236155Y-44117547D01*
X121226828Y-44117266D01*
X121212003Y-44116999D01*
X121192106Y-44116750D01*
X121167563Y-44116521D01*
X121138800Y-44116316D01*
X121106243Y-44116136D01*
X121070318Y-44115986D01*
X121031450Y-44115867D01*
X120990066Y-44115782D01*
X120946592Y-44115734D01*
X120915708Y-44115725D01*
X120593975Y-44115725D01*
X120593975Y-44249075D01*
X120661244Y-44249075D01*
X120640711Y-44271252D01*
X120619199Y-44299083D01*
X120602707Y-44330395D01*
X120592402Y-44361555D01*
X120588898Y-44382075D01*
X120587226Y-44405731D01*
X120587386Y-44430100D01*
G36*
X120605881Y-45281001D02*
G01*
X120610896Y-45282411D01*
X120621508Y-45285352D01*
X120637185Y-45289677D01*
X120657400Y-45295242D01*
X120681622Y-45301900D01*
X120709322Y-45309507D01*
X120739972Y-45317917D01*
X120773041Y-45326984D01*
X120808001Y-45336563D01*
X120830512Y-45342728D01*
X120875299Y-45355033D01*
X120914147Y-45365796D01*
X120947262Y-45375079D01*
X120974848Y-45382942D01*
X120997111Y-45389445D01*
X121014257Y-45394650D01*
X121026491Y-45398616D01*
X121034019Y-45401405D01*
X121037046Y-45403076D01*
X121036887Y-45403533D01*
X121032883Y-45404913D01*
X121023332Y-45408088D01*
X121008731Y-45412895D01*
X120989575Y-45419172D01*
X120966359Y-45426758D01*
X120939578Y-45435492D01*
X120909728Y-45445211D01*
X120877303Y-45455754D01*
X120842800Y-45466959D01*
X120813050Y-45476610D01*
X120595562Y-45547129D01*
X120595562Y-45644267D01*
X120816225Y-45715948D01*
X120852250Y-45727653D01*
X120886549Y-45738804D01*
X120918636Y-45749241D01*
X120948028Y-45758808D01*
X120974241Y-45767346D01*
X120996792Y-45774699D01*
X121015196Y-45780708D01*
X121028969Y-45785215D01*
X121037629Y-45788064D01*
X121040658Y-45789082D01*
X121038354Y-45790147D01*
X121030426Y-45792723D01*
X121017379Y-45796664D01*
X120999721Y-45801826D01*
X120977957Y-45808064D01*
X120952593Y-45815234D01*
X120924136Y-45823190D01*
X120893091Y-45831788D01*
X120859965Y-45840882D01*
X120853333Y-45842694D01*
X120818521Y-45852196D01*
X120784637Y-45861447D01*
X120752331Y-45870268D01*
X120722255Y-45878482D01*
X120695058Y-45885911D01*
X120671390Y-45892378D01*
X120651901Y-45897705D01*
X120637243Y-45901715D01*
X120628106Y-45904218D01*
X120593975Y-45913585D01*
X120593975Y-45983030D01*
X120594078Y-46003250D01*
X120594368Y-46021142D01*
X120594814Y-46035800D01*
X120595383Y-46046315D01*
X120596046Y-46051782D01*
X120596356Y-46052355D01*
X120599642Y-46051390D01*
X120608578Y-46048615D01*
X120622768Y-46044154D01*
X120641813Y-46038134D01*
X120665318Y-46030682D01*
X120692886Y-46021923D01*
X120724119Y-46011984D01*
X120758620Y-46000992D01*
X120795992Y-45989071D01*
X120835839Y-45976349D01*
X120877764Y-45962951D01*
X120919412Y-45949631D01*
X121240087Y-45847027D01*
X121240087Y-45730554D01*
X121015679Y-45663708D01*
X120979379Y-45652862D01*
X120944958Y-45642513D01*
X120912882Y-45632805D01*
X120883622Y-45623883D01*
X120857647Y-45615893D01*
X120835423Y-45608979D01*
X120817422Y-45603286D01*
X120804111Y-45598959D01*
X120795959Y-45596144D01*
X120793429Y-45594989D01*
X120796756Y-45593797D01*
X120805682Y-45590954D01*
X120819717Y-45586607D01*
X120838370Y-45580906D01*
X120861150Y-45573998D01*
X120887566Y-45566032D01*
X120917129Y-45557157D01*
X120949347Y-45547520D01*
X120983731Y-45537270D01*
X121011487Y-45529020D01*
X121047365Y-45518356D01*
X121081578Y-45508163D01*
X121113620Y-45498594D01*
X121142984Y-45489799D01*
X121169166Y-45481932D01*
X121191660Y-45475145D01*
X121209960Y-45469589D01*
X121223560Y-45465417D01*
X121231956Y-45462782D01*
X121234531Y-45461905D01*
X121237071Y-45460636D01*
X121238924Y-45458688D01*
X121240198Y-45455151D01*
X121241002Y-45449113D01*
X121241444Y-45439664D01*
X121241632Y-45425892D01*
X121241674Y-45406885D01*
X121241675Y-45401806D01*
X121241675Y-45344726D01*
X121215508Y-45336460D01*
X121204405Y-45332941D01*
X121188432Y-45327861D01*
X121168081Y-45321379D01*
X121143844Y-45313651D01*
X121116212Y-45304834D01*
X121085677Y-45295086D01*
X121052730Y-45284564D01*
X121017864Y-45273425D01*
X120981569Y-45261826D01*
X120944337Y-45249925D01*
X120906660Y-45237879D01*
X120869030Y-45225844D01*
X120831937Y-45213979D01*
X120795874Y-45202440D01*
X120761333Y-45191385D01*
X120728804Y-45180971D01*
X120698779Y-45171354D01*
X120671750Y-45162693D01*
X120648209Y-45155145D01*
X120628647Y-45148866D01*
X120613555Y-45144014D01*
X120603426Y-45140746D01*
X120598751Y-45139219D01*
X120598508Y-45139135D01*
X120597010Y-45139372D01*
X120595874Y-45141854D01*
X120595052Y-45147290D01*
X120594499Y-45156385D01*
X120594166Y-45169846D01*
X120594008Y-45188382D01*
X120593975Y-45207457D01*
X120593975Y-45277520D01*
X120605881Y-45281001D01*
X120605881Y-45281001D01*
G37*
X120605881Y-45281001D02*
X120610896Y-45282411D01*
X120621508Y-45285352D01*
X120637185Y-45289677D01*
X120657400Y-45295242D01*
X120681622Y-45301900D01*
X120709322Y-45309507D01*
X120739972Y-45317917D01*
X120773041Y-45326984D01*
X120808001Y-45336563D01*
X120830512Y-45342728D01*
X120875299Y-45355033D01*
X120914147Y-45365796D01*
X120947262Y-45375079D01*
X120974848Y-45382942D01*
X120997111Y-45389445D01*
X121014257Y-45394650D01*
X121026491Y-45398616D01*
X121034019Y-45401405D01*
X121037046Y-45403076D01*
X121036887Y-45403533D01*
X121032883Y-45404913D01*
X121023332Y-45408088D01*
X121008731Y-45412895D01*
X120989575Y-45419172D01*
X120966359Y-45426758D01*
X120939578Y-45435492D01*
X120909728Y-45445211D01*
X120877303Y-45455754D01*
X120842800Y-45466959D01*
X120813050Y-45476610D01*
X120595562Y-45547129D01*
X120595562Y-45644267D01*
X120816225Y-45715948D01*
X120852250Y-45727653D01*
X120886549Y-45738804D01*
X120918636Y-45749241D01*
X120948028Y-45758808D01*
X120974241Y-45767346D01*
X120996792Y-45774699D01*
X121015196Y-45780708D01*
X121028969Y-45785215D01*
X121037629Y-45788064D01*
X121040658Y-45789082D01*
X121038354Y-45790147D01*
X121030426Y-45792723D01*
X121017379Y-45796664D01*
X120999721Y-45801826D01*
X120977957Y-45808064D01*
X120952593Y-45815234D01*
X120924136Y-45823190D01*
X120893091Y-45831788D01*
X120859965Y-45840882D01*
X120853333Y-45842694D01*
X120818521Y-45852196D01*
X120784637Y-45861447D01*
X120752331Y-45870268D01*
X120722255Y-45878482D01*
X120695058Y-45885911D01*
X120671390Y-45892378D01*
X120651901Y-45897705D01*
X120637243Y-45901715D01*
X120628106Y-45904218D01*
X120593975Y-45913585D01*
X120593975Y-45983030D01*
X120594078Y-46003250D01*
X120594368Y-46021142D01*
X120594814Y-46035800D01*
X120595383Y-46046315D01*
X120596046Y-46051782D01*
X120596356Y-46052355D01*
X120599642Y-46051390D01*
X120608578Y-46048615D01*
X120622768Y-46044154D01*
X120641813Y-46038134D01*
X120665318Y-46030682D01*
X120692886Y-46021923D01*
X120724119Y-46011984D01*
X120758620Y-46000992D01*
X120795992Y-45989071D01*
X120835839Y-45976349D01*
X120877764Y-45962951D01*
X120919412Y-45949631D01*
X121240087Y-45847027D01*
X121240087Y-45730554D01*
X121015679Y-45663708D01*
X120979379Y-45652862D01*
X120944958Y-45642513D01*
X120912882Y-45632805D01*
X120883622Y-45623883D01*
X120857647Y-45615893D01*
X120835423Y-45608979D01*
X120817422Y-45603286D01*
X120804111Y-45598959D01*
X120795959Y-45596144D01*
X120793429Y-45594989D01*
X120796756Y-45593797D01*
X120805682Y-45590954D01*
X120819717Y-45586607D01*
X120838370Y-45580906D01*
X120861150Y-45573998D01*
X120887566Y-45566032D01*
X120917129Y-45557157D01*
X120949347Y-45547520D01*
X120983731Y-45537270D01*
X121011487Y-45529020D01*
X121047365Y-45518356D01*
X121081578Y-45508163D01*
X121113620Y-45498594D01*
X121142984Y-45489799D01*
X121169166Y-45481932D01*
X121191660Y-45475145D01*
X121209960Y-45469589D01*
X121223560Y-45465417D01*
X121231956Y-45462782D01*
X121234531Y-45461905D01*
X121237071Y-45460636D01*
X121238924Y-45458688D01*
X121240198Y-45455151D01*
X121241002Y-45449113D01*
X121241444Y-45439664D01*
X121241632Y-45425892D01*
X121241674Y-45406885D01*
X121241675Y-45401806D01*
X121241675Y-45344726D01*
X121215508Y-45336460D01*
X121204405Y-45332941D01*
X121188432Y-45327861D01*
X121168081Y-45321379D01*
X121143844Y-45313651D01*
X121116212Y-45304834D01*
X121085677Y-45295086D01*
X121052730Y-45284564D01*
X121017864Y-45273425D01*
X120981569Y-45261826D01*
X120944337Y-45249925D01*
X120906660Y-45237879D01*
X120869030Y-45225844D01*
X120831937Y-45213979D01*
X120795874Y-45202440D01*
X120761333Y-45191385D01*
X120728804Y-45180971D01*
X120698779Y-45171354D01*
X120671750Y-45162693D01*
X120648209Y-45155145D01*
X120628647Y-45148866D01*
X120613555Y-45144014D01*
X120603426Y-45140746D01*
X120598751Y-45139219D01*
X120598508Y-45139135D01*
X120597010Y-45139372D01*
X120595874Y-45141854D01*
X120595052Y-45147290D01*
X120594499Y-45156385D01*
X120594166Y-45169846D01*
X120594008Y-45188382D01*
X120593975Y-45207457D01*
X120593975Y-45277520D01*
X120605881Y-45281001D01*
G36*
X120588658Y-47049786D02*
G01*
X120591516Y-47068556D01*
X120592254Y-47071650D01*
X120597780Y-47089002D01*
X120605462Y-47107721D01*
X120614307Y-47125716D01*
X120623322Y-47140898D01*
X120628514Y-47147924D01*
X120637431Y-47158605D01*
X120687934Y-47116208D01*
X120703472Y-47103140D01*
X120717640Y-47091181D01*
X120729608Y-47081033D01*
X120738549Y-47073399D01*
X120743635Y-47068982D01*
X120744163Y-47068503D01*
X120747068Y-47065289D01*
X120747606Y-47061914D01*
X120745393Y-47056769D01*
X120740043Y-47048247D01*
X120738874Y-47046469D01*
X120726170Y-47021653D01*
X120719440Y-46995286D01*
X120718721Y-46968071D01*
X120724050Y-46940712D01*
X120732188Y-46920215D01*
X120746659Y-46897355D01*
X120765342Y-46879240D01*
X120788199Y-46865897D01*
X120815191Y-46857353D01*
X120822848Y-46855927D01*
X120830533Y-46855220D01*
X120844208Y-46854585D01*
X120863517Y-46854028D01*
X120888100Y-46853555D01*
X120917599Y-46853170D01*
X120951655Y-46852880D01*
X120989910Y-46852689D01*
X121032005Y-46852603D01*
X121042443Y-46852598D01*
X121241675Y-46852575D01*
X121241675Y-46722400D01*
X120593975Y-46722400D01*
X120593975Y-46852575D01*
X120661378Y-46852575D01*
X120642168Y-46873109D01*
X120625803Y-46893755D01*
X120610986Y-46918389D01*
X120598992Y-46944654D01*
X120592278Y-46965287D01*
X120589116Y-46983084D01*
X120587459Y-47004680D01*
X120587306Y-47027704D01*
X120588658Y-47049786D01*
X120588658Y-47049786D01*
G37*
X120588658Y-47049786D02*
X120591516Y-47068556D01*
X120592254Y-47071650D01*
X120597780Y-47089002D01*
X120605462Y-47107721D01*
X120614307Y-47125716D01*
X120623322Y-47140898D01*
X120628514Y-47147924D01*
X120637431Y-47158605D01*
X120687934Y-47116208D01*
X120703472Y-47103140D01*
X120717640Y-47091181D01*
X120729608Y-47081033D01*
X120738549Y-47073399D01*
X120743635Y-47068982D01*
X120744163Y-47068503D01*
X120747068Y-47065289D01*
X120747606Y-47061914D01*
X120745393Y-47056769D01*
X120740043Y-47048247D01*
X120738874Y-47046469D01*
X120726170Y-47021653D01*
X120719440Y-46995286D01*
X120718721Y-46968071D01*
X120724050Y-46940712D01*
X120732188Y-46920215D01*
X120746659Y-46897355D01*
X120765342Y-46879240D01*
X120788199Y-46865897D01*
X120815191Y-46857353D01*
X120822848Y-46855927D01*
X120830533Y-46855220D01*
X120844208Y-46854585D01*
X120863517Y-46854028D01*
X120888100Y-46853555D01*
X120917599Y-46853170D01*
X120951655Y-46852880D01*
X120989910Y-46852689D01*
X121032005Y-46852603D01*
X121042443Y-46852598D01*
X121241675Y-46852575D01*
X121241675Y-46722400D01*
X120593975Y-46722400D01*
X120593975Y-46852575D01*
X120661378Y-46852575D01*
X120642168Y-46873109D01*
X120625803Y-46893755D01*
X120610986Y-46918389D01*
X120598992Y-46944654D01*
X120592278Y-46965287D01*
X120589116Y-46983084D01*
X120587459Y-47004680D01*
X120587306Y-47027704D01*
X120588658Y-47049786D01*
G36*
X119569926Y-42504156D02*
G01*
X119575652Y-42543398D01*
X119586789Y-42579629D01*
X119603464Y-42613198D01*
X119625808Y-42644459D01*
X119644480Y-42664750D01*
X119664785Y-42683514D01*
X119684855Y-42698944D01*
X119705647Y-42711403D01*
X119728118Y-42721252D01*
X119753222Y-42728853D01*
X119781917Y-42734570D01*
X119815159Y-42738763D01*
X119846656Y-42741332D01*
X119877395Y-42742706D01*
X119909749Y-42742943D01*
X119942182Y-42742110D01*
X119973156Y-42740278D01*
X120001134Y-42737513D01*
X120024578Y-42733886D01*
X120027603Y-42733272D01*
X120066347Y-42722165D01*
X120101730Y-42705779D01*
X120134065Y-42683926D01*
X120163663Y-42656417D01*
X120174235Y-42644468D01*
X120184248Y-42630642D01*
X120194921Y-42612726D01*
X120205221Y-42592748D01*
X120214114Y-42572738D01*
X120220566Y-42554724D01*
X120221338Y-42552037D01*
X120224077Y-42537915D01*
X120226103Y-42519186D01*
X120227387Y-42497555D01*
X120227897Y-42474729D01*
X120227603Y-42452414D01*
X120226477Y-42432315D01*
X120224487Y-42416138D01*
X120223796Y-42412658D01*
X120212564Y-42374800D01*
X120196360Y-42340658D01*
X120174871Y-42309633D01*
X120162748Y-42295842D01*
X120137532Y-42271686D01*
X120111579Y-42252322D01*
X120083797Y-42237232D01*
X120053095Y-42225896D01*
X120018380Y-42217796D01*
X119989750Y-42213614D01*
X119973934Y-42212309D01*
X119953724Y-42211467D01*
X119930288Y-42211063D01*
X119904790Y-42211067D01*
X119897062Y-42211180D01*
X119897062Y-42342892D01*
X119925728Y-42342987D01*
X119949052Y-42343476D01*
X119968034Y-42344500D01*
X119983678Y-42346198D01*
X119996986Y-42348710D01*
X120008959Y-42352177D01*
X120020599Y-42356738D01*
X120031034Y-42361606D01*
X120052625Y-42374825D01*
X120069691Y-42391366D01*
X120082817Y-42411991D01*
X120092586Y-42437456D01*
X120094421Y-42444087D01*
X120097043Y-42461739D01*
X120097102Y-42482495D01*
X120094772Y-42503728D01*
X120090224Y-42522811D01*
X120089020Y-42526255D01*
X120077225Y-42550446D01*
X120061441Y-42570248D01*
X120041378Y-42585860D01*
X120016745Y-42597481D01*
X119987252Y-42605307D01*
X119969418Y-42608001D01*
X119953950Y-42609264D01*
X119934522Y-42609999D01*
X119912456Y-42610239D01*
X119889073Y-42610020D01*
X119865694Y-42609374D01*
X119843640Y-42608335D01*
X119824233Y-42606939D01*
X119808794Y-42605219D01*
X119800198Y-42603635D01*
X119772056Y-42593750D01*
X119748363Y-42579433D01*
X119729330Y-42560979D01*
X119715163Y-42538682D01*
X119706072Y-42512836D01*
X119702266Y-42483736D01*
X119702537Y-42465864D01*
X119706579Y-42438123D01*
X119715122Y-42414268D01*
X119728535Y-42393362D01*
X119733490Y-42387607D01*
X119745485Y-42375594D01*
X119757833Y-42365863D01*
X119771347Y-42358191D01*
X119786837Y-42352356D01*
X119805116Y-42348137D01*
X119826995Y-42345312D01*
X119853287Y-42343659D01*
X119884803Y-42342955D01*
X119897062Y-42342892D01*
X119897062Y-42211180D01*
X119878395Y-42211455D01*
X119852270Y-42212199D01*
X119827580Y-42213272D01*
X119805489Y-42214648D01*
X119787163Y-42216299D01*
X119773769Y-42218198D01*
X119771650Y-42218636D01*
X119736823Y-42228348D01*
X119706324Y-42241255D01*
X119678572Y-42258230D01*
X119651985Y-42280141D01*
X119641498Y-42290306D01*
X119616664Y-42318980D01*
X119597318Y-42349666D01*
X119583195Y-42382997D01*
X119574028Y-42419605D01*
X119569550Y-42460123D01*
X119569479Y-42461550D01*
X119569926Y-42504156D01*
X119569926Y-42504156D01*
G37*
X119569926Y-42504156D02*
X119575652Y-42543398D01*
X119586789Y-42579629D01*
X119603464Y-42613198D01*
X119625808Y-42644459D01*
X119644480Y-42664750D01*
X119664785Y-42683514D01*
X119684855Y-42698944D01*
X119705647Y-42711403D01*
X119728118Y-42721252D01*
X119753222Y-42728853D01*
X119781917Y-42734570D01*
X119815159Y-42738763D01*
X119846656Y-42741332D01*
X119877395Y-42742706D01*
X119909749Y-42742943D01*
X119942182Y-42742110D01*
X119973156Y-42740278D01*
X120001134Y-42737513D01*
X120024578Y-42733886D01*
X120027603Y-42733272D01*
X120066347Y-42722165D01*
X120101730Y-42705779D01*
X120134065Y-42683926D01*
X120163663Y-42656417D01*
X120174235Y-42644468D01*
X120184248Y-42630642D01*
X120194921Y-42612726D01*
X120205221Y-42592748D01*
X120214114Y-42572738D01*
X120220566Y-42554724D01*
X120221338Y-42552037D01*
X120224077Y-42537915D01*
X120226103Y-42519186D01*
X120227387Y-42497555D01*
X120227897Y-42474729D01*
X120227603Y-42452414D01*
X120226477Y-42432315D01*
X120224487Y-42416138D01*
X120223796Y-42412658D01*
X120212564Y-42374800D01*
X120196360Y-42340658D01*
X120174871Y-42309633D01*
X120162748Y-42295842D01*
X120137532Y-42271686D01*
X120111579Y-42252322D01*
X120083797Y-42237232D01*
X120053095Y-42225896D01*
X120018380Y-42217796D01*
X119989750Y-42213614D01*
X119973934Y-42212309D01*
X119953724Y-42211467D01*
X119930288Y-42211063D01*
X119904790Y-42211067D01*
X119897062Y-42211180D01*
X119897062Y-42342892D01*
X119925728Y-42342987D01*
X119949052Y-42343476D01*
X119968034Y-42344500D01*
X119983678Y-42346198D01*
X119996986Y-42348710D01*
X120008959Y-42352177D01*
X120020599Y-42356738D01*
X120031034Y-42361606D01*
X120052625Y-42374825D01*
X120069691Y-42391366D01*
X120082817Y-42411991D01*
X120092586Y-42437456D01*
X120094421Y-42444087D01*
X120097043Y-42461739D01*
X120097102Y-42482495D01*
X120094772Y-42503728D01*
X120090224Y-42522811D01*
X120089020Y-42526255D01*
X120077225Y-42550446D01*
X120061441Y-42570248D01*
X120041378Y-42585860D01*
X120016745Y-42597481D01*
X119987252Y-42605307D01*
X119969418Y-42608001D01*
X119953950Y-42609264D01*
X119934522Y-42609999D01*
X119912456Y-42610239D01*
X119889073Y-42610020D01*
X119865694Y-42609374D01*
X119843640Y-42608335D01*
X119824233Y-42606939D01*
X119808794Y-42605219D01*
X119800198Y-42603635D01*
X119772056Y-42593750D01*
X119748363Y-42579433D01*
X119729330Y-42560979D01*
X119715163Y-42538682D01*
X119706072Y-42512836D01*
X119702266Y-42483736D01*
X119702537Y-42465864D01*
X119706579Y-42438123D01*
X119715122Y-42414268D01*
X119728535Y-42393362D01*
X119733490Y-42387607D01*
X119745485Y-42375594D01*
X119757833Y-42365863D01*
X119771347Y-42358191D01*
X119786837Y-42352356D01*
X119805116Y-42348137D01*
X119826995Y-42345312D01*
X119853287Y-42343659D01*
X119884803Y-42342955D01*
X119897062Y-42342892D01*
X119897062Y-42211180D01*
X119878395Y-42211455D01*
X119852270Y-42212199D01*
X119827580Y-42213272D01*
X119805489Y-42214648D01*
X119787163Y-42216299D01*
X119773769Y-42218198D01*
X119771650Y-42218636D01*
X119736823Y-42228348D01*
X119706324Y-42241255D01*
X119678572Y-42258230D01*
X119651985Y-42280141D01*
X119641498Y-42290306D01*
X119616664Y-42318980D01*
X119597318Y-42349666D01*
X119583195Y-42382997D01*
X119574028Y-42419605D01*
X119569550Y-42460123D01*
X119569479Y-42461550D01*
X119569926Y-42504156D01*
G36*
X119569436Y-43737658D02*
G01*
X119574946Y-43778348D01*
X119586091Y-43816732D01*
X119602518Y-43852350D01*
X119623877Y-43884746D01*
X119649816Y-43913460D01*
X119679984Y-43938034D01*
X119714028Y-43958011D01*
X119749425Y-43972244D01*
X119763524Y-43976460D01*
X119777087Y-43979710D01*
X119791248Y-43982110D01*
X119807142Y-43983777D01*
X119825903Y-43984828D01*
X119848666Y-43985380D01*
X119876565Y-43985549D01*
X119878595Y-43985550D01*
X119949450Y-43985550D01*
X119949450Y-43585500D01*
X119959768Y-43585555D01*
X119968192Y-43586249D01*
X119980130Y-43588009D01*
X119992257Y-43590306D01*
X120021954Y-43599444D01*
X120047434Y-43613245D01*
X120068508Y-43631464D01*
X120084983Y-43653851D01*
X120096669Y-43680161D01*
X120103374Y-43710145D01*
X120105025Y-43736312D01*
X120102086Y-43768580D01*
X120093631Y-43800381D01*
X120080198Y-43830259D01*
X120062327Y-43856755D01*
X120058957Y-43860738D01*
X120051800Y-43869185D01*
X120046682Y-43875732D01*
X120044700Y-43878975D01*
X120044700Y-43878987D01*
X120046670Y-43881968D01*
X120052056Y-43888792D01*
X120060074Y-43898542D01*
X120069936Y-43910301D01*
X120080857Y-43923152D01*
X120092051Y-43936177D01*
X120102732Y-43948460D01*
X120112114Y-43959082D01*
X120119412Y-43967127D01*
X120123839Y-43971678D01*
X120124690Y-43972344D01*
X120128389Y-43970754D01*
X120135047Y-43965097D01*
X120143767Y-43956354D01*
X120153655Y-43945505D01*
X120163814Y-43933530D01*
X120173347Y-43921407D01*
X120180773Y-43911003D01*
X120200010Y-43877061D01*
X120214944Y-43839627D01*
X120222620Y-43811484D01*
X120225567Y-43793177D01*
X120227529Y-43770602D01*
X120228487Y-43745724D01*
X120228420Y-43720513D01*
X120227306Y-43696936D01*
X120225125Y-43676962D01*
X120224113Y-43671225D01*
X120213217Y-43630606D01*
X120197645Y-43594204D01*
X120177356Y-43561981D01*
X120152309Y-43533901D01*
X120122464Y-43509926D01*
X120087779Y-43490019D01*
X120048214Y-43474144D01*
X120003727Y-43462263D01*
X119989568Y-43459500D01*
X119969598Y-43456860D01*
X119945065Y-43455102D01*
X119917693Y-43454221D01*
X119889206Y-43454215D01*
X119861329Y-43455078D01*
X119841500Y-43456420D01*
X119841500Y-43584679D01*
X119841500Y-43855253D01*
X119826418Y-43853480D01*
X119793750Y-43847140D01*
X119765239Y-43836404D01*
X119741114Y-43821462D01*
X119721604Y-43802504D01*
X119706938Y-43779722D01*
X119697345Y-43753307D01*
X119695407Y-43744250D01*
X119692963Y-43714814D01*
X119696338Y-43687279D01*
X119705170Y-43662097D01*
X119719097Y-43639721D01*
X119737756Y-43620600D01*
X119760785Y-43605189D01*
X119787820Y-43593938D01*
X119818499Y-43587300D01*
X119821656Y-43586918D01*
X119841500Y-43584679D01*
X119841500Y-43456420D01*
X119835787Y-43456807D01*
X119814303Y-43459399D01*
X119811337Y-43459897D01*
X119776723Y-43467577D01*
X119742866Y-43478056D01*
X119711832Y-43490632D01*
X119693522Y-43499950D01*
X119675835Y-43511595D01*
X119656873Y-43526911D01*
X119638193Y-43544397D01*
X119621353Y-43562554D01*
X119607909Y-43579878D01*
X119603618Y-43586601D01*
X119587737Y-43619488D01*
X119576504Y-43655683D01*
X119570218Y-43693869D01*
X119569177Y-43732727D01*
X119569436Y-43737658D01*
X119569436Y-43737658D01*
G37*
X119569436Y-43737658D02*
X119574946Y-43778348D01*
X119586091Y-43816732D01*
X119602518Y-43852350D01*
X119623877Y-43884746D01*
X119649816Y-43913460D01*
X119679984Y-43938034D01*
X119714028Y-43958011D01*
X119749425Y-43972244D01*
X119763524Y-43976460D01*
X119777087Y-43979710D01*
X119791248Y-43982110D01*
X119807142Y-43983777D01*
X119825903Y-43984828D01*
X119848666Y-43985380D01*
X119876565Y-43985549D01*
X119878595Y-43985550D01*
X119949450Y-43985550D01*
X119949450Y-43585500D01*
X119959768Y-43585555D01*
X119968192Y-43586249D01*
X119980130Y-43588009D01*
X119992257Y-43590306D01*
X120021954Y-43599444D01*
X120047434Y-43613245D01*
X120068508Y-43631464D01*
X120084983Y-43653851D01*
X120096669Y-43680161D01*
X120103374Y-43710145D01*
X120105025Y-43736312D01*
X120102086Y-43768580D01*
X120093631Y-43800381D01*
X120080198Y-43830259D01*
X120062327Y-43856755D01*
X120058957Y-43860738D01*
X120051800Y-43869185D01*
X120046682Y-43875732D01*
X120044700Y-43878975D01*
X120044700Y-43878987D01*
X120046670Y-43881968D01*
X120052056Y-43888792D01*
X120060074Y-43898542D01*
X120069936Y-43910301D01*
X120080857Y-43923152D01*
X120092051Y-43936177D01*
X120102732Y-43948460D01*
X120112114Y-43959082D01*
X120119412Y-43967127D01*
X120123839Y-43971678D01*
X120124690Y-43972344D01*
X120128389Y-43970754D01*
X120135047Y-43965097D01*
X120143767Y-43956354D01*
X120153655Y-43945505D01*
X120163814Y-43933530D01*
X120173347Y-43921407D01*
X120180773Y-43911003D01*
X120200010Y-43877061D01*
X120214944Y-43839627D01*
X120222620Y-43811484D01*
X120225567Y-43793177D01*
X120227529Y-43770602D01*
X120228487Y-43745724D01*
X120228420Y-43720513D01*
X120227306Y-43696936D01*
X120225125Y-43676962D01*
X120224113Y-43671225D01*
X120213217Y-43630606D01*
X120197645Y-43594204D01*
X120177356Y-43561981D01*
X120152309Y-43533901D01*
X120122464Y-43509926D01*
X120087779Y-43490019D01*
X120048214Y-43474144D01*
X120003727Y-43462263D01*
X119989568Y-43459500D01*
X119969598Y-43456860D01*
X119945065Y-43455102D01*
X119917693Y-43454221D01*
X119889206Y-43454215D01*
X119861329Y-43455078D01*
X119841500Y-43456420D01*
X119841500Y-43584679D01*
X119841500Y-43855253D01*
X119826418Y-43853480D01*
X119793750Y-43847140D01*
X119765239Y-43836404D01*
X119741114Y-43821462D01*
X119721604Y-43802504D01*
X119706938Y-43779722D01*
X119697345Y-43753307D01*
X119695407Y-43744250D01*
X119692963Y-43714814D01*
X119696338Y-43687279D01*
X119705170Y-43662097D01*
X119719097Y-43639721D01*
X119737756Y-43620600D01*
X119760785Y-43605189D01*
X119787820Y-43593938D01*
X119818499Y-43587300D01*
X119821656Y-43586918D01*
X119841500Y-43584679D01*
X119841500Y-43456420D01*
X119835787Y-43456807D01*
X119814303Y-43459399D01*
X119811337Y-43459897D01*
X119776723Y-43467577D01*
X119742866Y-43478056D01*
X119711832Y-43490632D01*
X119693522Y-43499950D01*
X119675835Y-43511595D01*
X119656873Y-43526911D01*
X119638193Y-43544397D01*
X119621353Y-43562554D01*
X119607909Y-43579878D01*
X119603618Y-43586601D01*
X119587737Y-43619488D01*
X119576504Y-43655683D01*
X119570218Y-43693869D01*
X119569177Y-43732727D01*
X119569436Y-43737658D01*
G36*
X119569771Y-45276078D02*
G01*
X119575717Y-45324870D01*
X119587284Y-45371320D01*
X119604387Y-45414986D01*
X119606340Y-45419062D01*
X119613668Y-45433144D01*
X119622139Y-45447911D01*
X119631053Y-45462313D01*
X119639712Y-45475300D01*
X119647415Y-45485820D01*
X119653463Y-45492823D01*
X119657073Y-45495262D01*
X119660264Y-45493302D01*
X119667481Y-45487845D01*
X119677927Y-45479525D01*
X119690807Y-45468977D01*
X119705325Y-45456837D01*
X119706284Y-45456026D01*
X119752695Y-45416791D01*
X119746607Y-45406814D01*
X119730088Y-45378678D01*
X119717278Y-45354074D01*
X119707764Y-45331705D01*
X119701133Y-45310275D01*
X119696971Y-45288485D01*
X119694866Y-45265038D01*
X119694384Y-45242850D01*
X119694614Y-45224357D01*
X119695385Y-45210506D01*
X119696900Y-45199597D01*
X119699355Y-45189931D01*
X119701254Y-45184323D01*
X119711260Y-45163875D01*
X119724462Y-45148896D01*
X119740823Y-45139412D01*
X119760304Y-45135450D01*
X119770572Y-45135506D01*
X119782449Y-45136677D01*
X119790471Y-45138960D01*
X119797132Y-45143310D01*
X119801578Y-45147373D01*
X119808229Y-45154375D01*
X119813636Y-45161695D01*
X119818006Y-45170149D01*
X119821544Y-45180555D01*
X119824456Y-45193727D01*
X119826949Y-45210484D01*
X119829227Y-45231640D01*
X119831498Y-45258012D01*
X119832405Y-45269622D01*
X119835147Y-45302525D01*
X119837973Y-45329970D01*
X119841054Y-45352851D01*
X119844562Y-45372059D01*
X119848667Y-45388488D01*
X119853540Y-45403030D01*
X119859352Y-45416576D01*
X119861336Y-45420643D01*
X119876955Y-45445029D01*
X119897634Y-45466686D01*
X119922406Y-45484879D01*
X119950304Y-45498874D01*
X119974850Y-45506708D01*
X119990639Y-45509349D01*
X120009798Y-45510808D01*
X120030425Y-45511113D01*
X120050618Y-45510290D01*
X120068476Y-45508368D01*
X120082097Y-45505373D01*
X120082800Y-45505139D01*
X120105268Y-45496318D01*
X120123927Y-45486125D01*
X120141173Y-45473054D01*
X120155964Y-45459106D01*
X120179445Y-45431056D01*
X120198458Y-45398749D01*
X120213078Y-45362033D01*
X120223373Y-45320760D01*
X120224189Y-45316252D01*
X120226797Y-45295538D01*
X120228295Y-45270883D01*
X120228703Y-45244211D01*
X120228042Y-45217447D01*
X120226333Y-45192518D01*
X120223597Y-45171347D01*
X120222562Y-45165938D01*
X120210142Y-45120162D01*
X120192720Y-45075877D01*
X120170866Y-45034238D01*
X120145155Y-44996398D01*
X120128749Y-44976701D01*
X120113526Y-44959791D01*
X120068395Y-45004841D01*
X120023264Y-45049892D01*
X120044855Y-45076801D01*
X120066355Y-45106708D01*
X120082544Y-45136701D01*
X120093922Y-45168138D01*
X120100991Y-45202377D01*
X120104103Y-45237111D01*
X120104160Y-45271974D01*
X120100874Y-45301650D01*
X120094143Y-45326413D01*
X120083866Y-45346535D01*
X120069941Y-45362292D01*
X120053557Y-45373303D01*
X120039339Y-45377883D01*
X120022578Y-45379240D01*
X120006255Y-45377284D01*
X119998979Y-45374949D01*
X119987583Y-45367308D01*
X119977302Y-45355188D01*
X119969662Y-45340448D01*
X119968871Y-45338227D01*
X119967573Y-45332131D01*
X119965838Y-45320690D01*
X119963785Y-45304887D01*
X119961537Y-45285703D01*
X119959216Y-45264119D01*
X119957270Y-45244564D01*
X119954448Y-45216993D01*
X119951519Y-45191820D01*
X119948609Y-45169982D01*
X119945845Y-45152415D01*
X119943354Y-45140052D01*
X119942881Y-45138218D01*
X119930792Y-45104733D01*
X119914164Y-45075472D01*
X119893337Y-45050701D01*
X119868653Y-45030684D01*
X119840453Y-45015686D01*
X119809078Y-45005971D01*
X119774870Y-45001805D01*
X119766887Y-45001660D01*
X119732273Y-45004537D01*
X119699831Y-45013022D01*
X119670151Y-45026896D01*
X119643821Y-45045940D01*
X119640941Y-45048537D01*
X119618024Y-45073471D01*
X119599653Y-45101908D01*
X119585689Y-45134188D01*
X119575997Y-45170652D01*
X119570438Y-45211639D01*
X119569529Y-45225387D01*
X119569771Y-45276078D01*
X119569771Y-45276078D01*
G37*
X119569771Y-45276078D02*
X119575717Y-45324870D01*
X119587284Y-45371320D01*
X119604387Y-45414986D01*
X119606340Y-45419062D01*
X119613668Y-45433144D01*
X119622139Y-45447911D01*
X119631053Y-45462313D01*
X119639712Y-45475300D01*
X119647415Y-45485820D01*
X119653463Y-45492823D01*
X119657073Y-45495262D01*
X119660264Y-45493302D01*
X119667481Y-45487845D01*
X119677927Y-45479525D01*
X119690807Y-45468977D01*
X119705325Y-45456837D01*
X119706284Y-45456026D01*
X119752695Y-45416791D01*
X119746607Y-45406814D01*
X119730088Y-45378678D01*
X119717278Y-45354074D01*
X119707764Y-45331705D01*
X119701133Y-45310275D01*
X119696971Y-45288485D01*
X119694866Y-45265038D01*
X119694384Y-45242850D01*
X119694614Y-45224357D01*
X119695385Y-45210506D01*
X119696900Y-45199597D01*
X119699355Y-45189931D01*
X119701254Y-45184323D01*
X119711260Y-45163875D01*
X119724462Y-45148896D01*
X119740823Y-45139412D01*
X119760304Y-45135450D01*
X119770572Y-45135506D01*
X119782449Y-45136677D01*
X119790471Y-45138960D01*
X119797132Y-45143310D01*
X119801578Y-45147373D01*
X119808229Y-45154375D01*
X119813636Y-45161695D01*
X119818006Y-45170149D01*
X119821544Y-45180555D01*
X119824456Y-45193727D01*
X119826949Y-45210484D01*
X119829227Y-45231640D01*
X119831498Y-45258012D01*
X119832405Y-45269622D01*
X119835147Y-45302525D01*
X119837973Y-45329970D01*
X119841054Y-45352851D01*
X119844562Y-45372059D01*
X119848667Y-45388488D01*
X119853540Y-45403030D01*
X119859352Y-45416576D01*
X119861336Y-45420643D01*
X119876955Y-45445029D01*
X119897634Y-45466686D01*
X119922406Y-45484879D01*
X119950304Y-45498874D01*
X119974850Y-45506708D01*
X119990639Y-45509349D01*
X120009798Y-45510808D01*
X120030425Y-45511113D01*
X120050618Y-45510290D01*
X120068476Y-45508368D01*
X120082097Y-45505373D01*
X120082800Y-45505139D01*
X120105268Y-45496318D01*
X120123927Y-45486125D01*
X120141173Y-45473054D01*
X120155964Y-45459106D01*
X120179445Y-45431056D01*
X120198458Y-45398749D01*
X120213078Y-45362033D01*
X120223373Y-45320760D01*
X120224189Y-45316252D01*
X120226797Y-45295538D01*
X120228295Y-45270883D01*
X120228703Y-45244211D01*
X120228042Y-45217447D01*
X120226333Y-45192518D01*
X120223597Y-45171347D01*
X120222562Y-45165938D01*
X120210142Y-45120162D01*
X120192720Y-45075877D01*
X120170866Y-45034238D01*
X120145155Y-44996398D01*
X120128749Y-44976701D01*
X120113526Y-44959791D01*
X120068395Y-45004841D01*
X120023264Y-45049892D01*
X120044855Y-45076801D01*
X120066355Y-45106708D01*
X120082544Y-45136701D01*
X120093922Y-45168138D01*
X120100991Y-45202377D01*
X120104103Y-45237111D01*
X120104160Y-45271974D01*
X120100874Y-45301650D01*
X120094143Y-45326413D01*
X120083866Y-45346535D01*
X120069941Y-45362292D01*
X120053557Y-45373303D01*
X120039339Y-45377883D01*
X120022578Y-45379240D01*
X120006255Y-45377284D01*
X119998979Y-45374949D01*
X119987583Y-45367308D01*
X119977302Y-45355188D01*
X119969662Y-45340448D01*
X119968871Y-45338227D01*
X119967573Y-45332131D01*
X119965838Y-45320690D01*
X119963785Y-45304887D01*
X119961537Y-45285703D01*
X119959216Y-45264119D01*
X119957270Y-45244564D01*
X119954448Y-45216993D01*
X119951519Y-45191820D01*
X119948609Y-45169982D01*
X119945845Y-45152415D01*
X119943354Y-45140052D01*
X119942881Y-45138218D01*
X119930792Y-45104733D01*
X119914164Y-45075472D01*
X119893337Y-45050701D01*
X119868653Y-45030684D01*
X119840453Y-45015686D01*
X119809078Y-45005971D01*
X119774870Y-45001805D01*
X119766887Y-45001660D01*
X119732273Y-45004537D01*
X119699831Y-45013022D01*
X119670151Y-45026896D01*
X119643821Y-45045940D01*
X119640941Y-45048537D01*
X119618024Y-45073471D01*
X119599653Y-45101908D01*
X119585689Y-45134188D01*
X119575997Y-45170652D01*
X119570438Y-45211639D01*
X119569529Y-45225387D01*
X119569771Y-45276078D01*
G36*
X119569500Y-45865150D02*
G01*
X119571665Y-45892835D01*
X119575549Y-45916564D01*
X119581710Y-45938625D01*
X119590706Y-45961303D01*
X119595440Y-45971512D01*
X119614475Y-46004253D01*
X119638296Y-46033701D01*
X119666146Y-46059226D01*
X119697267Y-46080197D01*
X119730901Y-46095982D01*
X119753529Y-46103106D01*
X119773382Y-46107601D01*
X119794063Y-46111020D01*
X119816580Y-46113433D01*
X119841940Y-46114911D01*
X119871149Y-46115526D01*
X119905215Y-46115349D01*
X119922217Y-46115034D01*
X119952276Y-46114227D01*
X119977067Y-46113152D01*
X119997670Y-46111666D01*
X120015165Y-46109625D01*
X120030633Y-46106885D01*
X120045154Y-46103303D01*
X120059809Y-46098734D01*
X120068993Y-46095504D01*
X120090292Y-46086560D01*
X120109735Y-46075544D01*
X120128846Y-46061421D01*
X120149152Y-46043156D01*
X120155819Y-46036600D01*
X120178433Y-46011704D01*
X120195953Y-45986893D01*
X120209394Y-45960500D01*
X120219486Y-45931825D01*
X120222687Y-45916960D01*
X120225200Y-45897654D01*
X120226967Y-45875591D01*
X120227928Y-45852454D01*
X120228025Y-45829929D01*
X120227198Y-45809698D01*
X120225388Y-45793445D01*
X120224498Y-45788950D01*
X120212287Y-45749207D01*
X120194966Y-45713194D01*
X120172444Y-45680779D01*
X120144628Y-45651833D01*
X120111427Y-45626227D01*
X120107341Y-45623543D01*
X120089749Y-45614021D01*
X120067797Y-45605011D01*
X120043474Y-45597247D01*
X120022477Y-45592188D01*
X120002345Y-45589018D01*
X119977406Y-45586525D01*
X119949172Y-45584768D01*
X119919156Y-45583807D01*
X119901825Y-45583748D01*
X119901825Y-45717580D01*
X119930806Y-45717751D01*
X119954395Y-45718300D01*
X119973545Y-45719367D01*
X119989209Y-45721092D01*
X120002341Y-45723614D01*
X120013894Y-45727073D01*
X120024820Y-45731608D01*
X120035756Y-45737185D01*
X120056416Y-45751916D01*
X120073377Y-45771110D01*
X120086232Y-45793799D01*
X120094576Y-45819017D01*
X120098003Y-45845798D01*
X120096108Y-45873174D01*
X120095086Y-45878487D01*
X120087164Y-45904254D01*
X120075291Y-45927379D01*
X120065554Y-45940467D01*
X120053840Y-45950963D01*
X120037885Y-45961267D01*
X120019737Y-45970299D01*
X120001442Y-45976984D01*
X119991687Y-45979339D01*
X119972173Y-45982036D01*
X119948653Y-45983826D01*
X119922474Y-45984738D01*
X119894980Y-45984802D01*
X119867516Y-45984050D01*
X119841429Y-45982510D01*
X119818064Y-45980214D01*
X119798766Y-45977192D01*
X119788784Y-45974776D01*
X119767812Y-45965913D01*
X119747702Y-45952687D01*
X119730804Y-45936740D01*
X119726412Y-45931265D01*
X119713495Y-45908666D01*
X119705376Y-45883124D01*
X119702075Y-45855884D01*
X119703615Y-45828190D01*
X119710019Y-45801286D01*
X119721308Y-45776416D01*
X119723577Y-45772697D01*
X119734204Y-45758881D01*
X119747679Y-45747218D01*
X119765568Y-45736411D01*
X119770062Y-45734113D01*
X119780675Y-45729230D01*
X119791323Y-45725384D01*
X119802933Y-45722460D01*
X119816429Y-45720340D01*
X119832737Y-45718909D01*
X119852783Y-45718051D01*
X119877491Y-45717650D01*
X119901825Y-45717580D01*
X119901825Y-45583748D01*
X119888871Y-45583703D01*
X119859828Y-45584515D01*
X119846984Y-45585233D01*
X119809275Y-45588434D01*
X119776893Y-45592869D01*
X119748874Y-45598905D01*
X119724256Y-45606905D01*
X119702073Y-45617235D01*
X119681365Y-45630260D01*
X119661166Y-45646344D01*
X119644432Y-45661950D01*
X119618147Y-45691717D01*
X119597594Y-45723705D01*
X119582663Y-45758213D01*
X119573242Y-45795543D01*
X119569221Y-45835994D01*
X119569500Y-45865150D01*
X119569500Y-45865150D01*
G37*
X119569500Y-45865150D02*
X119571665Y-45892835D01*
X119575549Y-45916564D01*
X119581710Y-45938625D01*
X119590706Y-45961303D01*
X119595440Y-45971512D01*
X119614475Y-46004253D01*
X119638296Y-46033701D01*
X119666146Y-46059226D01*
X119697267Y-46080197D01*
X119730901Y-46095982D01*
X119753529Y-46103106D01*
X119773382Y-46107601D01*
X119794063Y-46111020D01*
X119816580Y-46113433D01*
X119841940Y-46114911D01*
X119871149Y-46115526D01*
X119905215Y-46115349D01*
X119922217Y-46115034D01*
X119952276Y-46114227D01*
X119977067Y-46113152D01*
X119997670Y-46111666D01*
X120015165Y-46109625D01*
X120030633Y-46106885D01*
X120045154Y-46103303D01*
X120059809Y-46098734D01*
X120068993Y-46095504D01*
X120090292Y-46086560D01*
X120109735Y-46075544D01*
X120128846Y-46061421D01*
X120149152Y-46043156D01*
X120155819Y-46036600D01*
X120178433Y-46011704D01*
X120195953Y-45986893D01*
X120209394Y-45960500D01*
X120219486Y-45931825D01*
X120222687Y-45916960D01*
X120225200Y-45897654D01*
X120226967Y-45875591D01*
X120227928Y-45852454D01*
X120228025Y-45829929D01*
X120227198Y-45809698D01*
X120225388Y-45793445D01*
X120224498Y-45788950D01*
X120212287Y-45749207D01*
X120194966Y-45713194D01*
X120172444Y-45680779D01*
X120144628Y-45651833D01*
X120111427Y-45626227D01*
X120107341Y-45623543D01*
X120089749Y-45614021D01*
X120067797Y-45605011D01*
X120043474Y-45597247D01*
X120022477Y-45592188D01*
X120002345Y-45589018D01*
X119977406Y-45586525D01*
X119949172Y-45584768D01*
X119919156Y-45583807D01*
X119901825Y-45583748D01*
X119901825Y-45717580D01*
X119930806Y-45717751D01*
X119954395Y-45718300D01*
X119973545Y-45719367D01*
X119989209Y-45721092D01*
X120002341Y-45723614D01*
X120013894Y-45727073D01*
X120024820Y-45731608D01*
X120035756Y-45737185D01*
X120056416Y-45751916D01*
X120073377Y-45771110D01*
X120086232Y-45793799D01*
X120094576Y-45819017D01*
X120098003Y-45845798D01*
X120096108Y-45873174D01*
X120095086Y-45878487D01*
X120087164Y-45904254D01*
X120075291Y-45927379D01*
X120065554Y-45940467D01*
X120053840Y-45950963D01*
X120037885Y-45961267D01*
X120019737Y-45970299D01*
X120001442Y-45976984D01*
X119991687Y-45979339D01*
X119972173Y-45982036D01*
X119948653Y-45983826D01*
X119922474Y-45984738D01*
X119894980Y-45984802D01*
X119867516Y-45984050D01*
X119841429Y-45982510D01*
X119818064Y-45980214D01*
X119798766Y-45977192D01*
X119788784Y-45974776D01*
X119767812Y-45965913D01*
X119747702Y-45952687D01*
X119730804Y-45936740D01*
X119726412Y-45931265D01*
X119713495Y-45908666D01*
X119705376Y-45883124D01*
X119702075Y-45855884D01*
X119703615Y-45828190D01*
X119710019Y-45801286D01*
X119721308Y-45776416D01*
X119723577Y-45772697D01*
X119734204Y-45758881D01*
X119747679Y-45747218D01*
X119765568Y-45736411D01*
X119770062Y-45734113D01*
X119780675Y-45729230D01*
X119791323Y-45725384D01*
X119802933Y-45722460D01*
X119816429Y-45720340D01*
X119832737Y-45718909D01*
X119852783Y-45718051D01*
X119877491Y-45717650D01*
X119901825Y-45717580D01*
X119901825Y-45583748D01*
X119888871Y-45583703D01*
X119859828Y-45584515D01*
X119846984Y-45585233D01*
X119809275Y-45588434D01*
X119776893Y-45592869D01*
X119748874Y-45598905D01*
X119724256Y-45606905D01*
X119702073Y-45617235D01*
X119681365Y-45630260D01*
X119661166Y-45646344D01*
X119644432Y-45661950D01*
X119618147Y-45691717D01*
X119597594Y-45723705D01*
X119582663Y-45758213D01*
X119573242Y-45795543D01*
X119569221Y-45835994D01*
X119569500Y-45865150D01*
G36*
X119775914Y-46357275D02*
G01*
X119818585Y-46357327D01*
X119857510Y-46357483D01*
X119892335Y-46357735D01*
X119922706Y-46358080D01*
X119948268Y-46358511D01*
X119968667Y-46359023D01*
X119983548Y-46359612D01*
X119992557Y-46360271D01*
X119994246Y-46360515D01*
X120022154Y-46368725D01*
X120046328Y-46381854D01*
X120066375Y-46399514D01*
X120081903Y-46421318D01*
X120092520Y-46446878D01*
X120095837Y-46460798D01*
X120098101Y-46489165D01*
X120094351Y-46516258D01*
X120084772Y-46541457D01*
X120069551Y-46564145D01*
X120062440Y-46571865D01*
X120045901Y-46586171D01*
X120028273Y-46596487D01*
X120007829Y-46603621D01*
X119984921Y-46608085D01*
X119977901Y-46608643D01*
X119965143Y-46609169D01*
X119947260Y-46609654D01*
X119924863Y-46610090D01*
X119898566Y-46610467D01*
X119868980Y-46610776D01*
X119836718Y-46611010D01*
X119802392Y-46611158D01*
X119769268Y-46611212D01*
X119574800Y-46611275D01*
X119574800Y-46741450D01*
X120222500Y-46741450D01*
X120222500Y-46611275D01*
X120155262Y-46611275D01*
X120174237Y-46590567D01*
X120196201Y-46562351D01*
X120212421Y-46531790D01*
X120223009Y-46498575D01*
X120228081Y-46462396D01*
X120228585Y-46443285D01*
X120228010Y-46426764D01*
X120226685Y-46410249D01*
X120224842Y-46396240D01*
X120223721Y-46390634D01*
X120220117Y-46378782D01*
X120214574Y-46363980D01*
X120208113Y-46348898D01*
X120206090Y-46344596D01*
X120190783Y-46319002D01*
X120170628Y-46294565D01*
X120147119Y-46272791D01*
X120121749Y-46255183D01*
X120112285Y-46250073D01*
X120103346Y-46245641D01*
X120095231Y-46241777D01*
X120087456Y-46238442D01*
X120079535Y-46235597D01*
X120070984Y-46233203D01*
X120061319Y-46231222D01*
X120050055Y-46229613D01*
X120036708Y-46228339D01*
X120020792Y-46227361D01*
X120001823Y-46226639D01*
X119979316Y-46226134D01*
X119952788Y-46225808D01*
X119921753Y-46225622D01*
X119885726Y-46225536D01*
X119844224Y-46225513D01*
X119806575Y-46225512D01*
X119576387Y-46225512D01*
X119575529Y-46291393D01*
X119574671Y-46357275D01*
X119775914Y-46357275D01*
X119775914Y-46357275D01*
G37*
X119775914Y-46357275D02*
X119818585Y-46357327D01*
X119857510Y-46357483D01*
X119892335Y-46357735D01*
X119922706Y-46358080D01*
X119948268Y-46358511D01*
X119968667Y-46359023D01*
X119983548Y-46359612D01*
X119992557Y-46360271D01*
X119994246Y-46360515D01*
X120022154Y-46368725D01*
X120046328Y-46381854D01*
X120066375Y-46399514D01*
X120081903Y-46421318D01*
X120092520Y-46446878D01*
X120095837Y-46460798D01*
X120098101Y-46489165D01*
X120094351Y-46516258D01*
X120084772Y-46541457D01*
X120069551Y-46564145D01*
X120062440Y-46571865D01*
X120045901Y-46586171D01*
X120028273Y-46596487D01*
X120007829Y-46603621D01*
X119984921Y-46608085D01*
X119977901Y-46608643D01*
X119965143Y-46609169D01*
X119947260Y-46609654D01*
X119924863Y-46610090D01*
X119898566Y-46610467D01*
X119868980Y-46610776D01*
X119836718Y-46611010D01*
X119802392Y-46611158D01*
X119769268Y-46611212D01*
X119574800Y-46611275D01*
X119574800Y-46741450D01*
X120222500Y-46741450D01*
X120222500Y-46611275D01*
X120155262Y-46611275D01*
X120174237Y-46590567D01*
X120196201Y-46562351D01*
X120212421Y-46531790D01*
X120223009Y-46498575D01*
X120228081Y-46462396D01*
X120228585Y-46443285D01*
X120228010Y-46426764D01*
X120226685Y-46410249D01*
X120224842Y-46396240D01*
X120223721Y-46390634D01*
X120220117Y-46378782D01*
X120214574Y-46363980D01*
X120208113Y-46348898D01*
X120206090Y-46344596D01*
X120190783Y-46319002D01*
X120170628Y-46294565D01*
X120147119Y-46272791D01*
X120121749Y-46255183D01*
X120112285Y-46250073D01*
X120103346Y-46245641D01*
X120095231Y-46241777D01*
X120087456Y-46238442D01*
X120079535Y-46235597D01*
X120070984Y-46233203D01*
X120061319Y-46231222D01*
X120050055Y-46229613D01*
X120036708Y-46228339D01*
X120020792Y-46227361D01*
X120001823Y-46226639D01*
X119979316Y-46226134D01*
X119952788Y-46225808D01*
X119921753Y-46225622D01*
X119885726Y-46225536D01*
X119844224Y-46225513D01*
X119806575Y-46225512D01*
X119576387Y-46225512D01*
X119575529Y-46291393D01*
X119574671Y-46357275D01*
X119775914Y-46357275D01*
G36*
X119570718Y-47615177D02*
G01*
X119571490Y-47631747D01*
X119572906Y-47645317D01*
X119575128Y-47657557D01*
X119577444Y-47666962D01*
X119590568Y-47704450D01*
X119609350Y-47741134D01*
X119633103Y-47775876D01*
X119661143Y-47807533D01*
X119662852Y-47809218D01*
X119681699Y-47827649D01*
X119768057Y-47730791D01*
X119747679Y-47709189D01*
X119727857Y-47684979D01*
X119713922Y-47660201D01*
X119705431Y-47633772D01*
X119701942Y-47604606D01*
X119701800Y-47596692D01*
X119704054Y-47563349D01*
X119710893Y-47534215D01*
X119722424Y-47508991D01*
X119738758Y-47487381D01*
X119744026Y-47482107D01*
X119763564Y-47466307D01*
X119785435Y-47453992D01*
X119810468Y-47444886D01*
X119839491Y-47438711D01*
X119873332Y-47435189D01*
X119885950Y-47434552D01*
X119928593Y-47434879D01*
X119966458Y-47439381D01*
X119999554Y-47448062D01*
X120027890Y-47460925D01*
X120051475Y-47477972D01*
X120067647Y-47495565D01*
X120080371Y-47515980D01*
X120089490Y-47539425D01*
X120095467Y-47567154D01*
X120096369Y-47573657D01*
X120097606Y-47606222D01*
X120092773Y-47637068D01*
X120081828Y-47666325D01*
X120064727Y-47694125D01*
X120050793Y-47710926D01*
X120031442Y-47732044D01*
X120071946Y-47777290D01*
X120084741Y-47791588D01*
X120096157Y-47804350D01*
X120105488Y-47814788D01*
X120112025Y-47822109D01*
X120115064Y-47825525D01*
X120115107Y-47825573D01*
X120118695Y-47825211D01*
X120125385Y-47820493D01*
X120134456Y-47812136D01*
X120145186Y-47800856D01*
X120156855Y-47787367D01*
X120168742Y-47772386D01*
X120168958Y-47772101D01*
X120189269Y-47742197D01*
X120205262Y-47711251D01*
X120217831Y-47678075D01*
X120221265Y-47666909D01*
X120223726Y-47656883D01*
X120225407Y-47646462D01*
X120226504Y-47634112D01*
X120227208Y-47618297D01*
X120227659Y-47600287D01*
X120227874Y-47575138D01*
X120227325Y-47555302D01*
X120225964Y-47539780D01*
X120224126Y-47529208D01*
X120211713Y-47486812D01*
X120194594Y-47448622D01*
X120172806Y-47414690D01*
X120146388Y-47385070D01*
X120115379Y-47359813D01*
X120086792Y-47342521D01*
X120048004Y-47325435D01*
X120005375Y-47312741D01*
X119959786Y-47304589D01*
X119912120Y-47301126D01*
X119863260Y-47302503D01*
X119854406Y-47303276D01*
X119816429Y-47308228D01*
X119782560Y-47315592D01*
X119750842Y-47325900D01*
X119719316Y-47339687D01*
X119717675Y-47340494D01*
X119702234Y-47348338D01*
X119690205Y-47355176D01*
X119679908Y-47362236D01*
X119669662Y-47370741D01*
X119657787Y-47381918D01*
X119649046Y-47390551D01*
X119635561Y-47404233D01*
X119625562Y-47415209D01*
X119617866Y-47425077D01*
X119611291Y-47435436D01*
X119604653Y-47447884D01*
X119600713Y-47455859D01*
X119588878Y-47482159D01*
X119580361Y-47506348D01*
X119574735Y-47530374D01*
X119571571Y-47556186D01*
X119570444Y-47585733D01*
X119570430Y-47593937D01*
X119570718Y-47615177D01*
X119570718Y-47615177D01*
G37*
X119570718Y-47615177D02*
X119571490Y-47631747D01*
X119572906Y-47645317D01*
X119575128Y-47657557D01*
X119577444Y-47666962D01*
X119590568Y-47704450D01*
X119609350Y-47741134D01*
X119633103Y-47775876D01*
X119661143Y-47807533D01*
X119662852Y-47809218D01*
X119681699Y-47827649D01*
X119768057Y-47730791D01*
X119747679Y-47709189D01*
X119727857Y-47684979D01*
X119713922Y-47660201D01*
X119705431Y-47633772D01*
X119701942Y-47604606D01*
X119701800Y-47596692D01*
X119704054Y-47563349D01*
X119710893Y-47534215D01*
X119722424Y-47508991D01*
X119738758Y-47487381D01*
X119744026Y-47482107D01*
X119763564Y-47466307D01*
X119785435Y-47453992D01*
X119810468Y-47444886D01*
X119839491Y-47438711D01*
X119873332Y-47435189D01*
X119885950Y-47434552D01*
X119928593Y-47434879D01*
X119966458Y-47439381D01*
X119999554Y-47448062D01*
X120027890Y-47460925D01*
X120051475Y-47477972D01*
X120067647Y-47495565D01*
X120080371Y-47515980D01*
X120089490Y-47539425D01*
X120095467Y-47567154D01*
X120096369Y-47573657D01*
X120097606Y-47606222D01*
X120092773Y-47637068D01*
X120081828Y-47666325D01*
X120064727Y-47694125D01*
X120050793Y-47710926D01*
X120031442Y-47732044D01*
X120071946Y-47777290D01*
X120084741Y-47791588D01*
X120096157Y-47804350D01*
X120105488Y-47814788D01*
X120112025Y-47822109D01*
X120115064Y-47825525D01*
X120115107Y-47825573D01*
X120118695Y-47825211D01*
X120125385Y-47820493D01*
X120134456Y-47812136D01*
X120145186Y-47800856D01*
X120156855Y-47787367D01*
X120168742Y-47772386D01*
X120168958Y-47772101D01*
X120189269Y-47742197D01*
X120205262Y-47711251D01*
X120217831Y-47678075D01*
X120221265Y-47666909D01*
X120223726Y-47656883D01*
X120225407Y-47646462D01*
X120226504Y-47634112D01*
X120227208Y-47618297D01*
X120227659Y-47600287D01*
X120227874Y-47575138D01*
X120227325Y-47555302D01*
X120225964Y-47539780D01*
X120224126Y-47529208D01*
X120211713Y-47486812D01*
X120194594Y-47448622D01*
X120172806Y-47414690D01*
X120146388Y-47385070D01*
X120115379Y-47359813D01*
X120086792Y-47342521D01*
X120048004Y-47325435D01*
X120005375Y-47312741D01*
X119959786Y-47304589D01*
X119912120Y-47301126D01*
X119863260Y-47302503D01*
X119854406Y-47303276D01*
X119816429Y-47308228D01*
X119782560Y-47315592D01*
X119750842Y-47325900D01*
X119719316Y-47339687D01*
X119717675Y-47340494D01*
X119702234Y-47348338D01*
X119690205Y-47355176D01*
X119679908Y-47362236D01*
X119669662Y-47370741D01*
X119657787Y-47381918D01*
X119649046Y-47390551D01*
X119635561Y-47404233D01*
X119625562Y-47415209D01*
X119617866Y-47425077D01*
X119611291Y-47435436D01*
X119604653Y-47447884D01*
X119600713Y-47455859D01*
X119588878Y-47482159D01*
X119580361Y-47506348D01*
X119574735Y-47530374D01*
X119571571Y-47556186D01*
X119570444Y-47585733D01*
X119570430Y-47593937D01*
X119570718Y-47615177D01*
G36*
X119569712Y-48150246D02*
G01*
X119576152Y-48188691D01*
X119581701Y-48208300D01*
X119597283Y-48246607D01*
X119617793Y-48281024D01*
X119642939Y-48311279D01*
X119672432Y-48337100D01*
X119705981Y-48358216D01*
X119743297Y-48374357D01*
X119766910Y-48381423D01*
X119777247Y-48383939D01*
X119786572Y-48385854D01*
X119795990Y-48387249D01*
X119806604Y-48388206D01*
X119819519Y-48388805D01*
X119835838Y-48389129D01*
X119856664Y-48389257D01*
X119873657Y-48389275D01*
X119949450Y-48389275D01*
X119949450Y-47989225D01*
X119957521Y-47989225D01*
X119964507Y-47989858D01*
X119975473Y-47991531D01*
X119988203Y-47993899D01*
X119989855Y-47994236D01*
X120020078Y-48003297D01*
X120046024Y-48016977D01*
X120067503Y-48035036D01*
X120084323Y-48057232D01*
X120096296Y-48083324D01*
X120103231Y-48113074D01*
X120105025Y-48140037D01*
X120102271Y-48171444D01*
X120094379Y-48202428D01*
X120081904Y-48231491D01*
X120065398Y-48257131D01*
X120058979Y-48264788D01*
X120051764Y-48273099D01*
X120046630Y-48279557D01*
X120044700Y-48282740D01*
X120046689Y-48286094D01*
X120052132Y-48293204D01*
X120060237Y-48303159D01*
X120070215Y-48315050D01*
X120081274Y-48327964D01*
X120092624Y-48340991D01*
X120103475Y-48353219D01*
X120113036Y-48363737D01*
X120120518Y-48371635D01*
X120125129Y-48376001D01*
X120126104Y-48376575D01*
X120130230Y-48374233D01*
X120137235Y-48367927D01*
X120146137Y-48358734D01*
X120155955Y-48347732D01*
X120165707Y-48335997D01*
X120174412Y-48324606D01*
X120177632Y-48320019D01*
X120198840Y-48283822D01*
X120214841Y-48245077D01*
X120218170Y-48234641D01*
X120221345Y-48223493D01*
X120223660Y-48213341D01*
X120225279Y-48202748D01*
X120226364Y-48190281D01*
X120227078Y-48174505D01*
X120227583Y-48153985D01*
X120227637Y-48151150D01*
X120227885Y-48126725D01*
X120227566Y-48107457D01*
X120226621Y-48092170D01*
X120224994Y-48079692D01*
X120223824Y-48073764D01*
X120211941Y-48032547D01*
X120195591Y-47995754D01*
X120174747Y-47963371D01*
X120149384Y-47935378D01*
X120119476Y-47911760D01*
X120084998Y-47892499D01*
X120045923Y-47877577D01*
X120002226Y-47866978D01*
X119953881Y-47860684D01*
X119901825Y-47858677D01*
X119853973Y-47860201D01*
X119841500Y-47861536D01*
X119841500Y-47988493D01*
X119841500Y-48259695D01*
X119824831Y-48257597D01*
X119803564Y-48253791D01*
X119782512Y-48248043D01*
X119764425Y-48241134D01*
X119760975Y-48239463D01*
X119747829Y-48230968D01*
X119733637Y-48218979D01*
X119720524Y-48205505D01*
X119710616Y-48192556D01*
X119709592Y-48190875D01*
X119699972Y-48168724D01*
X119694671Y-48143358D01*
X119693821Y-48116336D01*
X119697555Y-48089218D01*
X119700125Y-48079472D01*
X119710313Y-48056354D01*
X119725841Y-48035979D01*
X119746145Y-48018753D01*
X119770661Y-48005082D01*
X119798824Y-47995372D01*
X119823356Y-47990760D01*
X119841500Y-47988493D01*
X119841500Y-47861536D01*
X119811007Y-47864803D01*
X119772148Y-47872693D01*
X119736617Y-47884078D01*
X119703635Y-47899166D01*
X119672423Y-47918165D01*
X119668163Y-47921140D01*
X119640163Y-47944790D01*
X119616464Y-47972607D01*
X119597274Y-48003908D01*
X119582797Y-48038007D01*
X119573240Y-48074219D01*
X119568810Y-48111861D01*
X119569712Y-48150246D01*
X119569712Y-48150246D01*
G37*
X119569712Y-48150246D02*
X119576152Y-48188691D01*
X119581701Y-48208300D01*
X119597283Y-48246607D01*
X119617793Y-48281024D01*
X119642939Y-48311279D01*
X119672432Y-48337100D01*
X119705981Y-48358216D01*
X119743297Y-48374357D01*
X119766910Y-48381423D01*
X119777247Y-48383939D01*
X119786572Y-48385854D01*
X119795990Y-48387249D01*
X119806604Y-48388206D01*
X119819519Y-48388805D01*
X119835838Y-48389129D01*
X119856664Y-48389257D01*
X119873657Y-48389275D01*
X119949450Y-48389275D01*
X119949450Y-47989225D01*
X119957521Y-47989225D01*
X119964507Y-47989858D01*
X119975473Y-47991531D01*
X119988203Y-47993899D01*
X119989855Y-47994236D01*
X120020078Y-48003297D01*
X120046024Y-48016977D01*
X120067503Y-48035036D01*
X120084323Y-48057232D01*
X120096296Y-48083324D01*
X120103231Y-48113074D01*
X120105025Y-48140037D01*
X120102271Y-48171444D01*
X120094379Y-48202428D01*
X120081904Y-48231491D01*
X120065398Y-48257131D01*
X120058979Y-48264788D01*
X120051764Y-48273099D01*
X120046630Y-48279557D01*
X120044700Y-48282740D01*
X120046689Y-48286094D01*
X120052132Y-48293204D01*
X120060237Y-48303159D01*
X120070215Y-48315050D01*
X120081274Y-48327964D01*
X120092624Y-48340991D01*
X120103475Y-48353219D01*
X120113036Y-48363737D01*
X120120518Y-48371635D01*
X120125129Y-48376001D01*
X120126104Y-48376575D01*
X120130230Y-48374233D01*
X120137235Y-48367927D01*
X120146137Y-48358734D01*
X120155955Y-48347732D01*
X120165707Y-48335997D01*
X120174412Y-48324606D01*
X120177632Y-48320019D01*
X120198840Y-48283822D01*
X120214841Y-48245077D01*
X120218170Y-48234641D01*
X120221345Y-48223493D01*
X120223660Y-48213341D01*
X120225279Y-48202748D01*
X120226364Y-48190281D01*
X120227078Y-48174505D01*
X120227583Y-48153985D01*
X120227637Y-48151150D01*
X120227885Y-48126725D01*
X120227566Y-48107457D01*
X120226621Y-48092170D01*
X120224994Y-48079692D01*
X120223824Y-48073764D01*
X120211941Y-48032547D01*
X120195591Y-47995754D01*
X120174747Y-47963371D01*
X120149384Y-47935378D01*
X120119476Y-47911760D01*
X120084998Y-47892499D01*
X120045923Y-47877577D01*
X120002226Y-47866978D01*
X119953881Y-47860684D01*
X119901825Y-47858677D01*
X119853973Y-47860201D01*
X119841500Y-47861536D01*
X119841500Y-47988493D01*
X119841500Y-48259695D01*
X119824831Y-48257597D01*
X119803564Y-48253791D01*
X119782512Y-48248043D01*
X119764425Y-48241134D01*
X119760975Y-48239463D01*
X119747829Y-48230968D01*
X119733637Y-48218979D01*
X119720524Y-48205505D01*
X119710616Y-48192556D01*
X119709592Y-48190875D01*
X119699972Y-48168724D01*
X119694671Y-48143358D01*
X119693821Y-48116336D01*
X119697555Y-48089218D01*
X119700125Y-48079472D01*
X119710313Y-48056354D01*
X119725841Y-48035979D01*
X119746145Y-48018753D01*
X119770661Y-48005082D01*
X119798824Y-47995372D01*
X119823356Y-47990760D01*
X119841500Y-47988493D01*
X119841500Y-47861536D01*
X119811007Y-47864803D01*
X119772148Y-47872693D01*
X119736617Y-47884078D01*
X119703635Y-47899166D01*
X119672423Y-47918165D01*
X119668163Y-47921140D01*
X119640163Y-47944790D01*
X119616464Y-47972607D01*
X119597274Y-48003908D01*
X119582797Y-48038007D01*
X119573240Y-48074219D01*
X119568810Y-48111861D01*
X119569712Y-48150246D01*
G36*
X119569371Y-44408773D02*
G01*
X119575011Y-44445442D01*
X119586360Y-44479866D01*
X119603049Y-44511507D01*
X119624708Y-44539825D01*
X119650967Y-44564279D01*
X119681458Y-44584332D01*
X119693862Y-44590585D01*
X119701904Y-44594283D01*
X119709401Y-44597505D01*
X119716832Y-44600285D01*
X119724677Y-44602655D01*
X119733416Y-44604648D01*
X119743528Y-44606297D01*
X119755492Y-44607634D01*
X119769789Y-44608691D01*
X119786896Y-44609502D01*
X119807295Y-44610100D01*
X119831464Y-44610516D01*
X119859883Y-44610784D01*
X119893031Y-44610936D01*
X119931388Y-44611005D01*
X119975433Y-44611024D01*
X119993766Y-44611025D01*
X120222500Y-44611025D01*
X120222500Y-44480850D01*
X120029618Y-44480751D01*
X119994419Y-44480683D01*
X119960508Y-44480522D01*
X119928524Y-44480275D01*
X119899105Y-44479954D01*
X119872889Y-44479567D01*
X119850514Y-44479123D01*
X119832618Y-44478632D01*
X119819839Y-44478104D01*
X119813098Y-44477586D01*
X119784389Y-44471039D01*
X119759024Y-44459458D01*
X119737472Y-44443160D01*
X119720201Y-44422465D01*
X119712655Y-44409239D01*
X119708597Y-44400507D01*
X119705931Y-44392921D01*
X119704370Y-44384748D01*
X119703621Y-44374253D01*
X119703396Y-44359703D01*
X119703387Y-44353850D01*
X119703528Y-44337378D01*
X119704131Y-44325518D01*
X119705464Y-44316535D01*
X119707796Y-44308693D01*
X119711396Y-44300257D01*
X119711834Y-44299318D01*
X119724907Y-44277667D01*
X119741935Y-44259021D01*
X119761434Y-44244996D01*
X119761906Y-44244737D01*
X119768370Y-44241329D01*
X119774672Y-44238386D01*
X119781313Y-44235874D01*
X119788790Y-44233759D01*
X119797602Y-44232007D01*
X119808249Y-44230583D01*
X119821229Y-44229454D01*
X119837041Y-44228584D01*
X119856185Y-44227940D01*
X119879159Y-44227487D01*
X119906462Y-44227191D01*
X119938593Y-44227019D01*
X119976050Y-44226935D01*
X120019334Y-44226905D01*
X120021681Y-44226905D01*
X120222500Y-44226850D01*
X120222500Y-44093469D01*
X119899443Y-44094278D01*
X119576387Y-44095087D01*
X119575529Y-44160968D01*
X119574671Y-44226850D01*
X119644668Y-44226850D01*
X119631954Y-44238335D01*
X119612009Y-44260348D01*
X119595335Y-44286875D01*
X119582360Y-44316753D01*
X119573510Y-44348816D01*
X119569213Y-44381903D01*
X119569371Y-44408773D01*
X119569371Y-44408773D01*
G37*
X119569371Y-44408773D02*
X119575011Y-44445442D01*
X119586360Y-44479866D01*
X119603049Y-44511507D01*
X119624708Y-44539825D01*
X119650967Y-44564279D01*
X119681458Y-44584332D01*
X119693862Y-44590585D01*
X119701904Y-44594283D01*
X119709401Y-44597505D01*
X119716832Y-44600285D01*
X119724677Y-44602655D01*
X119733416Y-44604648D01*
X119743528Y-44606297D01*
X119755492Y-44607634D01*
X119769789Y-44608691D01*
X119786896Y-44609502D01*
X119807295Y-44610100D01*
X119831464Y-44610516D01*
X119859883Y-44610784D01*
X119893031Y-44610936D01*
X119931388Y-44611005D01*
X119975433Y-44611024D01*
X119993766Y-44611025D01*
X120222500Y-44611025D01*
X120222500Y-44480850D01*
X120029618Y-44480751D01*
X119994419Y-44480683D01*
X119960508Y-44480522D01*
X119928524Y-44480275D01*
X119899105Y-44479954D01*
X119872889Y-44479567D01*
X119850514Y-44479123D01*
X119832618Y-44478632D01*
X119819839Y-44478104D01*
X119813098Y-44477586D01*
X119784389Y-44471039D01*
X119759024Y-44459458D01*
X119737472Y-44443160D01*
X119720201Y-44422465D01*
X119712655Y-44409239D01*
X119708597Y-44400507D01*
X119705931Y-44392921D01*
X119704370Y-44384748D01*
X119703621Y-44374253D01*
X119703396Y-44359703D01*
X119703387Y-44353850D01*
X119703528Y-44337378D01*
X119704131Y-44325518D01*
X119705464Y-44316535D01*
X119707796Y-44308693D01*
X119711396Y-44300257D01*
X119711834Y-44299318D01*
X119724907Y-44277667D01*
X119741935Y-44259021D01*
X119761434Y-44244996D01*
X119761906Y-44244737D01*
X119768370Y-44241329D01*
X119774672Y-44238386D01*
X119781313Y-44235874D01*
X119788790Y-44233759D01*
X119797602Y-44232007D01*
X119808249Y-44230583D01*
X119821229Y-44229454D01*
X119837041Y-44228584D01*
X119856185Y-44227940D01*
X119879159Y-44227487D01*
X119906462Y-44227191D01*
X119938593Y-44227019D01*
X119976050Y-44226935D01*
X120019334Y-44226905D01*
X120021681Y-44226905D01*
X120222500Y-44226850D01*
X120222500Y-44093469D01*
X119899443Y-44094278D01*
X119576387Y-44095087D01*
X119575529Y-44160968D01*
X119574671Y-44226850D01*
X119644668Y-44226850D01*
X119631954Y-44238335D01*
X119612009Y-44260348D01*
X119595335Y-44286875D01*
X119582360Y-44316753D01*
X119573510Y-44348816D01*
X119569213Y-44381903D01*
X119569371Y-44408773D01*
G36*
X119570548Y-47205822D02*
G01*
X119577740Y-47241676D01*
X119591105Y-47276043D01*
X119610639Y-47308915D01*
X119617965Y-47318823D01*
X119620561Y-47317291D01*
X119627121Y-47312278D01*
X119636823Y-47304479D01*
X119648848Y-47294588D01*
X119662374Y-47283301D01*
X119676582Y-47271313D01*
X119690652Y-47259318D01*
X119703762Y-47248011D01*
X119715092Y-47238088D01*
X119723821Y-47230242D01*
X119729130Y-47225170D01*
X119730375Y-47223616D01*
X119728795Y-47219733D01*
X119724729Y-47212406D01*
X119720952Y-47206237D01*
X119711048Y-47188274D01*
X119705052Y-47170869D01*
X119702421Y-47151811D01*
X119702510Y-47130852D01*
X119706557Y-47101969D01*
X119715608Y-47076985D01*
X119729611Y-47055968D01*
X119748512Y-47038981D01*
X119772258Y-47026093D01*
X119792857Y-47019247D01*
X119797469Y-47018268D01*
X119803539Y-47017428D01*
X119811541Y-47016718D01*
X119821947Y-47016128D01*
X119835231Y-47015647D01*
X119851866Y-47015266D01*
X119872326Y-47014974D01*
X119897084Y-47014762D01*
X119926613Y-47014619D01*
X119961387Y-47014536D01*
X120001879Y-47014502D01*
X120016792Y-47014500D01*
X120222500Y-47014500D01*
X120222500Y-46881119D01*
X119899443Y-46881928D01*
X119576387Y-46882737D01*
X119575529Y-46948618D01*
X119574671Y-47014500D01*
X119642007Y-47014500D01*
X119624015Y-47034343D01*
X119602293Y-47062291D01*
X119586245Y-47092217D01*
X119575592Y-47124808D01*
X119570053Y-47160754D01*
X119569530Y-47168487D01*
X119570548Y-47205822D01*
X119570548Y-47205822D01*
G37*
X119570548Y-47205822D02*
X119577740Y-47241676D01*
X119591105Y-47276043D01*
X119610639Y-47308915D01*
X119617965Y-47318823D01*
X119620561Y-47317291D01*
X119627121Y-47312278D01*
X119636823Y-47304479D01*
X119648848Y-47294588D01*
X119662374Y-47283301D01*
X119676582Y-47271313D01*
X119690652Y-47259318D01*
X119703762Y-47248011D01*
X119715092Y-47238088D01*
X119723821Y-47230242D01*
X119729130Y-47225170D01*
X119730375Y-47223616D01*
X119728795Y-47219733D01*
X119724729Y-47212406D01*
X119720952Y-47206237D01*
X119711048Y-47188274D01*
X119705052Y-47170869D01*
X119702421Y-47151811D01*
X119702510Y-47130852D01*
X119706557Y-47101969D01*
X119715608Y-47076985D01*
X119729611Y-47055968D01*
X119748512Y-47038981D01*
X119772258Y-47026093D01*
X119792857Y-47019247D01*
X119797469Y-47018268D01*
X119803539Y-47017428D01*
X119811541Y-47016718D01*
X119821947Y-47016128D01*
X119835231Y-47015647D01*
X119851866Y-47015266D01*
X119872326Y-47014974D01*
X119897084Y-47014762D01*
X119926613Y-47014619D01*
X119961387Y-47014536D01*
X120001879Y-47014502D01*
X120016792Y-47014500D01*
X120222500Y-47014500D01*
X120222500Y-46881119D01*
X119899443Y-46881928D01*
X119576387Y-46882737D01*
X119575529Y-46948618D01*
X119574671Y-47014500D01*
X119642007Y-47014500D01*
X119624015Y-47034343D01*
X119602293Y-47062291D01*
X119586245Y-47092217D01*
X119575592Y-47124808D01*
X119570053Y-47160754D01*
X119569530Y-47168487D01*
X119570548Y-47205822D01*
G36*
X114752516Y-45502018D02*
G01*
X114752661Y-45528238D01*
X114752912Y-45550358D01*
X114753285Y-45568751D01*
X114753799Y-45583794D01*
X114754469Y-45595861D01*
X114755312Y-45605327D01*
X114756346Y-45612567D01*
X114757587Y-45617955D01*
X114759053Y-45621867D01*
X114760759Y-45624677D01*
X114762724Y-45626761D01*
X114764963Y-45628493D01*
X114767494Y-45630248D01*
X114767850Y-45630500D01*
X114771454Y-45631932D01*
X114779353Y-45634078D01*
X114791739Y-45636976D01*
X114808804Y-45640665D01*
X114830741Y-45645183D01*
X114857744Y-45650568D01*
X114890004Y-45656859D01*
X114927715Y-45664093D01*
X114971069Y-45672310D01*
X115020259Y-45681548D01*
X115075478Y-45691845D01*
X115085200Y-45693651D01*
X115140429Y-45703937D01*
X115189650Y-45713160D01*
X115233107Y-45721371D01*
X115271045Y-45728618D01*
X115303708Y-45734949D01*
X115331340Y-45740413D01*
X115354186Y-45745059D01*
X115372490Y-45748936D01*
X115386496Y-45752093D01*
X115396449Y-45754577D01*
X115402592Y-45756439D01*
X115404743Y-45757389D01*
X115413113Y-45764705D01*
X115419791Y-45774044D01*
X115420159Y-45774789D01*
X115422230Y-45779549D01*
X115426493Y-45789681D01*
X115432741Y-45804681D01*
X115440764Y-45824040D01*
X115450354Y-45847255D01*
X115461303Y-45873819D01*
X115473400Y-45903227D01*
X115486438Y-45934972D01*
X115500207Y-45968548D01*
X115509397Y-45990985D01*
X115526650Y-46033213D01*
X115541571Y-46069939D01*
X115554297Y-46101515D01*
X115564962Y-46128292D01*
X115573701Y-46150619D01*
X115580648Y-46168849D01*
X115585938Y-46183331D01*
X115589706Y-46194416D01*
X115592086Y-46202456D01*
X115593213Y-46207800D01*
X115593349Y-46209582D01*
X115592733Y-46216988D01*
X115590431Y-46224452D01*
X115585764Y-46233480D01*
X115578052Y-46245580D01*
X115575259Y-46249717D01*
X115570755Y-46256314D01*
X115562950Y-46267716D01*
X115552141Y-46283493D01*
X115538620Y-46303215D01*
X115522683Y-46326454D01*
X115504624Y-46352779D01*
X115484739Y-46381762D01*
X115463322Y-46412971D01*
X115440666Y-46445979D01*
X115417069Y-46480354D01*
X115396938Y-46509675D01*
X115373170Y-46544331D01*
X115350397Y-46577614D01*
X115328882Y-46609133D01*
X115308888Y-46638502D01*
X115290676Y-46665333D01*
X115274510Y-46689237D01*
X115260652Y-46709826D01*
X115249364Y-46726713D01*
X115240909Y-46739509D01*
X115235548Y-46747827D01*
X115233569Y-46751208D01*
X115231985Y-46760486D01*
X115232691Y-46768671D01*
X115234649Y-46771918D01*
X115239741Y-46778163D01*
X115248106Y-46787549D01*
X115259884Y-46800219D01*
X115275212Y-46816317D01*
X115294231Y-46835987D01*
X115317078Y-46859373D01*
X115343893Y-46886617D01*
X115374814Y-46917863D01*
X115409981Y-46953256D01*
X115449532Y-46992937D01*
X115453044Y-46996457D01*
X115484104Y-47027530D01*
X115514028Y-47057383D01*
X115542495Y-47085699D01*
X115569186Y-47112164D01*
X115593778Y-47136462D01*
X115615952Y-47158279D01*
X115635387Y-47177299D01*
X115651762Y-47193206D01*
X115664757Y-47205687D01*
X115674050Y-47214424D01*
X115679321Y-47219104D01*
X115680254Y-47219781D01*
X115692707Y-47223123D01*
X115699304Y-47222648D01*
X115703451Y-47220559D01*
X115712491Y-47215066D01*
X115726096Y-47206387D01*
X115743944Y-47194738D01*
X115765707Y-47180337D01*
X115791063Y-47163400D01*
X115819684Y-47144144D01*
X115851247Y-47122786D01*
X115885426Y-47099544D01*
X115921896Y-47074633D01*
X115952125Y-47053910D01*
X115987659Y-47029514D01*
X116021929Y-47005992D01*
X116054543Y-46983613D01*
X116085109Y-46962646D01*
X116113234Y-46943359D01*
X116138525Y-46926021D01*
X116160592Y-46910902D01*
X116179040Y-46898271D01*
X116193479Y-46888395D01*
X116203516Y-46881544D01*
X116208759Y-46877987D01*
X116209050Y-46877793D01*
X116213584Y-46874762D01*
X116217758Y-46872217D01*
X116221988Y-46870294D01*
X116226690Y-46869125D01*
X116232278Y-46868845D01*
X116239170Y-46869588D01*
X116247780Y-46871490D01*
X116258525Y-46874683D01*
X116271819Y-46879302D01*
X116288078Y-46885482D01*
X116307719Y-46893356D01*
X116331156Y-46903060D01*
X116358805Y-46914726D01*
X116391082Y-46928490D01*
X116428402Y-46944486D01*
X116467572Y-46961298D01*
X116512541Y-46980662D01*
X116552973Y-46998205D01*
X116588697Y-47013852D01*
X116619542Y-47027524D01*
X116645335Y-47039144D01*
X116665907Y-47048636D01*
X116681084Y-47055922D01*
X116690696Y-47060925D01*
X116694218Y-47063193D01*
X116701711Y-47071898D01*
X116707116Y-47081897D01*
X116707758Y-47083850D01*
X116708796Y-47088609D01*
X116710900Y-47099158D01*
X116713982Y-47115040D01*
X116717956Y-47135801D01*
X116722738Y-47160986D01*
X116728241Y-47190138D01*
X116734379Y-47222803D01*
X116741066Y-47258524D01*
X116748217Y-47296847D01*
X116755745Y-47337317D01*
X116763564Y-47379477D01*
X116765061Y-47387562D01*
X116775087Y-47441574D01*
X116784058Y-47489557D01*
X116792020Y-47531738D01*
X116799016Y-47568343D01*
X116805092Y-47599597D01*
X116810292Y-47625726D01*
X116814663Y-47646957D01*
X116818249Y-47663514D01*
X116821095Y-47675623D01*
X116823246Y-47683511D01*
X116824747Y-47687404D01*
X116824875Y-47687600D01*
X116826692Y-47690171D01*
X116828445Y-47692446D01*
X116830513Y-47694445D01*
X116833272Y-47696184D01*
X116837100Y-47697683D01*
X116842375Y-47698958D01*
X116849472Y-47700028D01*
X116858770Y-47700911D01*
X116870646Y-47701626D01*
X116885477Y-47702189D01*
X116903640Y-47702619D01*
X116925512Y-47702935D01*
X116951471Y-47703154D01*
X116981893Y-47703294D01*
X117017157Y-47703373D01*
X117057639Y-47703410D01*
X117103717Y-47703422D01*
X117155767Y-47703428D01*
X117155774Y-47703428D01*
X117465660Y-47703474D01*
X117476204Y-47696331D01*
X117483758Y-47689681D01*
X117488835Y-47682467D01*
X117489315Y-47681250D01*
X117490258Y-47677030D01*
X117492273Y-47667016D01*
X117495274Y-47651657D01*
X117499175Y-47631403D01*
X117503892Y-47606702D01*
X117509340Y-47578005D01*
X117515432Y-47545761D01*
X117522084Y-47510419D01*
X117529211Y-47472428D01*
X117536727Y-47432239D01*
X117544546Y-47390299D01*
X117545892Y-47383073D01*
X117554477Y-47337133D01*
X117562636Y-47293868D01*
X117570296Y-47253644D01*
X117577384Y-47216829D01*
X117583827Y-47183788D01*
X117589554Y-47154889D01*
X117594491Y-47130499D01*
X117598566Y-47110985D01*
X117601707Y-47096712D01*
X117603842Y-47088049D01*
X117604732Y-47085461D01*
X117611196Y-47077969D01*
X117616662Y-47073524D01*
X117621503Y-47071132D01*
X117631612Y-47066704D01*
X117646441Y-47060456D01*
X117665440Y-47052606D01*
X117688060Y-47043371D01*
X117713752Y-47032968D01*
X117741966Y-47021614D01*
X117772155Y-47009526D01*
X117803768Y-46996922D01*
X117836257Y-46984019D01*
X117869071Y-46971033D01*
X117901663Y-46958183D01*
X117933483Y-46945685D01*
X117963982Y-46933756D01*
X117992611Y-46922614D01*
X118018820Y-46912476D01*
X118042061Y-46903559D01*
X118061784Y-46896080D01*
X118077440Y-46890256D01*
X118088480Y-46886305D01*
X118094356Y-46884443D01*
X118095052Y-46884325D01*
X118104736Y-46885312D01*
X118111716Y-46887121D01*
X118115372Y-46889298D01*
X118123874Y-46894817D01*
X118136836Y-46903415D01*
X118153873Y-46914832D01*
X118174600Y-46928809D01*
X118198633Y-46945083D01*
X118225586Y-46963395D01*
X118255075Y-46983483D01*
X118286714Y-47005088D01*
X118320119Y-47027948D01*
X118354016Y-47051193D01*
X118388864Y-47075103D01*
X118422378Y-47098077D01*
X118454168Y-47119849D01*
X118483842Y-47140150D01*
X118511008Y-47158714D01*
X118535274Y-47175274D01*
X118556248Y-47189560D01*
X118573539Y-47201308D01*
X118586755Y-47210249D01*
X118595505Y-47216115D01*
X118599332Y-47218603D01*
X118602923Y-47220802D01*
X118606178Y-47222679D01*
X118609376Y-47223997D01*
X118612796Y-47224514D01*
X118616719Y-47223993D01*
X118621422Y-47222191D01*
X118627187Y-47218872D01*
X118634292Y-47213793D01*
X118643017Y-47206717D01*
X118653641Y-47197402D01*
X118666444Y-47185611D01*
X118681705Y-47171102D01*
X118699704Y-47153637D01*
X118720720Y-47132975D01*
X118745032Y-47108878D01*
X118772921Y-47081105D01*
X118804665Y-47049417D01*
X118840544Y-47013573D01*
X118853337Y-47000795D01*
X118890395Y-46963774D01*
X118923208Y-46930960D01*
X118952029Y-46902073D01*
X118977109Y-46876835D01*
X118998700Y-46854969D01*
X119017054Y-46836195D01*
X119032422Y-46820235D01*
X119045057Y-46806811D01*
X119055210Y-46795645D01*
X119063133Y-46786458D01*
X119069077Y-46778972D01*
X119073295Y-46772909D01*
X119076038Y-46767990D01*
X119077557Y-46763937D01*
X119078106Y-46760473D01*
X119077935Y-46757317D01*
X119077296Y-46754193D01*
X119077105Y-46753433D01*
X119075071Y-46749804D01*
X119069690Y-46741330D01*
X119061218Y-46728391D01*
X119049914Y-46711369D01*
X119036034Y-46690645D01*
X119019835Y-46666602D01*
X119001574Y-46639621D01*
X118981509Y-46610083D01*
X118959897Y-46578370D01*
X118936995Y-46544864D01*
X118913059Y-46509946D01*
X118911783Y-46508087D01*
X118883621Y-46467048D01*
X118858851Y-46430900D01*
X118837257Y-46399312D01*
X118818620Y-46371950D01*
X118802725Y-46348481D01*
X118789354Y-46328574D01*
X118778291Y-46311894D01*
X118769317Y-46298110D01*
X118762217Y-46286889D01*
X118756773Y-46277898D01*
X118752768Y-46270805D01*
X118749985Y-46265276D01*
X118748207Y-46260979D01*
X118747218Y-46257581D01*
X118746839Y-46255198D01*
X118746585Y-46251270D01*
X118746810Y-46247250D01*
X118747782Y-46242555D01*
X118749770Y-46236599D01*
X118753041Y-46228798D01*
X118757865Y-46218566D01*
X118764508Y-46205318D01*
X118773241Y-46188471D01*
X118784330Y-46167438D01*
X118798046Y-46141635D01*
X118804489Y-46129544D01*
X118817513Y-46104945D01*
X118829544Y-46081904D01*
X118840258Y-46061063D01*
X118849332Y-46043064D01*
X118856444Y-46028550D01*
X118861271Y-46018163D01*
X118863490Y-46012546D01*
X118863600Y-46011929D01*
X118861527Y-46004938D01*
X118856534Y-45997482D01*
X118856456Y-45997396D01*
X118852752Y-45995317D01*
X118843533Y-45990987D01*
X118829165Y-45984555D01*
X118810011Y-45976174D01*
X118786434Y-45965993D01*
X118758799Y-45954165D01*
X118727470Y-45940839D01*
X118692809Y-45926166D01*
X118655183Y-45910299D01*
X118614953Y-45893386D01*
X118572485Y-45875581D01*
X118528141Y-45857032D01*
X118482287Y-45837891D01*
X118435285Y-45818310D01*
X118387500Y-45798439D01*
X118339296Y-45778428D01*
X118291037Y-45758429D01*
X118243085Y-45738593D01*
X118195807Y-45719071D01*
X118149564Y-45700013D01*
X118104722Y-45681570D01*
X118061643Y-45663894D01*
X118020693Y-45647135D01*
X117982234Y-45631444D01*
X117946632Y-45616972D01*
X117914249Y-45603871D01*
X117885449Y-45592290D01*
X117860597Y-45582380D01*
X117840057Y-45574294D01*
X117824191Y-45568180D01*
X117813365Y-45564192D01*
X117807942Y-45562479D01*
X117807530Y-45562422D01*
X117798463Y-45563537D01*
X117790170Y-45567717D01*
X117781804Y-45575719D01*
X117772519Y-45588300D01*
X117764729Y-45600721D01*
X117754740Y-45616629D01*
X117743001Y-45634256D01*
X117731639Y-45650431D01*
X117728731Y-45654381D01*
X117718357Y-45668337D01*
X117707370Y-45683222D01*
X117697642Y-45696495D01*
X117694788Y-45700419D01*
X117657059Y-45747191D01*
X117614258Y-45790726D01*
X117567036Y-45830540D01*
X117516043Y-45866149D01*
X117461930Y-45897070D01*
X117405348Y-45922817D01*
X117385768Y-45930270D01*
X117325276Y-45948828D01*
X117263058Y-45961481D01*
X117199724Y-45968226D01*
X117135888Y-45969061D01*
X117072160Y-45963984D01*
X117009153Y-45952993D01*
X116947478Y-45936086D01*
X116934787Y-45931795D01*
X116913588Y-45923637D01*
X116889271Y-45913063D01*
X116863677Y-45900975D01*
X116838648Y-45888271D01*
X116816025Y-45875854D01*
X116798331Y-45865071D01*
X116743738Y-45825729D01*
X116694276Y-45782661D01*
X116649881Y-45735798D01*
X116610493Y-45685071D01*
X116576050Y-45630410D01*
X116556747Y-45593687D01*
X116531309Y-45534696D01*
X116511944Y-45474794D01*
X116498505Y-45414334D01*
X116490841Y-45353668D01*
X116488804Y-45293146D01*
X116492244Y-45233121D01*
X116501012Y-45173945D01*
X116514959Y-45115968D01*
X116533936Y-45059544D01*
X116557792Y-45005023D01*
X116586380Y-44952758D01*
X116619550Y-44903099D01*
X116657153Y-44856400D01*
X116699039Y-44813011D01*
X116745059Y-44773285D01*
X116795064Y-44737572D01*
X116848906Y-44706225D01*
X116906433Y-44679596D01*
X116951573Y-44663041D01*
X117012915Y-44646247D01*
X117075431Y-44635522D01*
X117138603Y-44630813D01*
X117201911Y-44632069D01*
X117264836Y-44639238D01*
X117326859Y-44652268D01*
X117387461Y-44671107D01*
X117446123Y-44695704D01*
X117485650Y-44716262D01*
X117526779Y-44741245D01*
X117565119Y-44768365D01*
X117601286Y-44798238D01*
X117635896Y-44831484D01*
X117669565Y-44868721D01*
X117702909Y-44910567D01*
X117736545Y-44957641D01*
X117757259Y-44988863D01*
X117766219Y-45002513D01*
X117774451Y-45014702D01*
X117781088Y-45024168D01*
X117785260Y-45029647D01*
X117785476Y-45029891D01*
X117787099Y-45031801D01*
X117788591Y-45033543D01*
X117790210Y-45035021D01*
X117792214Y-45036139D01*
X117794859Y-45036800D01*
X117798403Y-45036908D01*
X117803104Y-45036366D01*
X117809220Y-45035077D01*
X117817008Y-45032945D01*
X117826725Y-45029872D01*
X117838628Y-45025764D01*
X117852976Y-45020522D01*
X117870027Y-45014050D01*
X117890036Y-45006252D01*
X117913262Y-44997031D01*
X117939963Y-44986290D01*
X117970396Y-44973934D01*
X118004818Y-44959864D01*
X118043487Y-44943985D01*
X118086661Y-44926200D01*
X118134597Y-44906412D01*
X118187552Y-44884525D01*
X118245784Y-44860442D01*
X118309550Y-44834067D01*
X118330328Y-44825473D01*
X118400485Y-44796442D01*
X118464924Y-44769740D01*
X118523804Y-44745300D01*
X118577286Y-44723053D01*
X118625532Y-44702933D01*
X118668702Y-44684870D01*
X118706956Y-44668798D01*
X118740456Y-44654646D01*
X118769361Y-44642349D01*
X118793834Y-44631837D01*
X118814035Y-44623043D01*
X118830123Y-44615898D01*
X118842262Y-44610335D01*
X118850610Y-44606286D01*
X118855328Y-44603682D01*
X118856456Y-44602818D01*
X118861436Y-44595402D01*
X118863597Y-44588574D01*
X118863600Y-44588397D01*
X118862144Y-44584255D01*
X118857992Y-44575169D01*
X118851468Y-44561782D01*
X118842897Y-44544738D01*
X118832603Y-44524678D01*
X118820909Y-44502246D01*
X118808140Y-44478084D01*
X118804862Y-44471931D01*
X118789103Y-44442335D01*
X118776158Y-44417746D01*
X118765819Y-44397585D01*
X118757884Y-44381273D01*
X118752145Y-44368231D01*
X118748398Y-44357879D01*
X118746438Y-44349637D01*
X118746059Y-44342927D01*
X118747056Y-44337169D01*
X118749225Y-44331783D01*
X118752359Y-44326191D01*
X118752914Y-44325275D01*
X118755696Y-44321032D01*
X118761801Y-44311952D01*
X118770956Y-44298434D01*
X118782892Y-44280875D01*
X118797335Y-44259673D01*
X118814014Y-44235228D01*
X118832659Y-44207936D01*
X118852996Y-44178196D01*
X118874755Y-44146406D01*
X118897664Y-44112963D01*
X118917537Y-44083975D01*
X118941074Y-44049604D01*
X118963578Y-44016644D01*
X118984790Y-43985482D01*
X119004449Y-43956506D01*
X119022295Y-43930101D01*
X119038067Y-43906655D01*
X119051504Y-43886556D01*
X119062347Y-43870189D01*
X119070335Y-43857942D01*
X119075208Y-43850202D01*
X119076710Y-43847437D01*
X119077336Y-43839552D01*
X119076968Y-43831562D01*
X119076122Y-43829283D01*
X119073806Y-43825699D01*
X119069779Y-43820560D01*
X119063804Y-43813620D01*
X119055641Y-43804631D01*
X119045051Y-43793344D01*
X119031795Y-43779512D01*
X119015634Y-43762887D01*
X118996330Y-43743221D01*
X118973643Y-43720266D01*
X118947335Y-43693775D01*
X118917166Y-43663499D01*
X118882898Y-43629191D01*
X118854661Y-43600963D01*
X118817525Y-43563858D01*
X118784607Y-43530991D01*
X118755627Y-43502114D01*
X118730309Y-43476978D01*
X118708375Y-43455337D01*
X118689546Y-43436941D01*
X118673545Y-43421544D01*
X118660094Y-43408898D01*
X118648915Y-43398754D01*
X118639731Y-43390865D01*
X118632262Y-43384982D01*
X118626233Y-43380859D01*
X118621364Y-43378248D01*
X118617378Y-43376899D01*
X118613997Y-43376567D01*
X118610943Y-43377002D01*
X118607939Y-43377957D01*
X118605629Y-43378836D01*
X118601921Y-43381035D01*
X118593402Y-43386553D01*
X118580494Y-43395107D01*
X118563615Y-43406412D01*
X118543185Y-43420187D01*
X118519623Y-43436146D01*
X118493349Y-43454007D01*
X118464782Y-43473486D01*
X118434342Y-43494299D01*
X118402448Y-43516162D01*
X118398462Y-43518899D01*
X118353509Y-43549768D01*
X118313497Y-43577248D01*
X118278126Y-43601534D01*
X118247097Y-43622823D01*
X118220111Y-43641310D01*
X118196867Y-43657191D01*
X118177066Y-43670663D01*
X118160408Y-43681922D01*
X118146594Y-43691162D01*
X118135324Y-43698582D01*
X118126297Y-43704375D01*
X118119216Y-43708739D01*
X118113779Y-43711869D01*
X118109688Y-43713961D01*
X118106642Y-43715212D01*
X118104343Y-43715817D01*
X118102489Y-43715972D01*
X118100782Y-43715873D01*
X118098923Y-43715717D01*
X118097589Y-43715677D01*
X118093515Y-43715101D01*
X118086692Y-43713291D01*
X118076807Y-43710130D01*
X118063544Y-43705498D01*
X118046589Y-43699276D01*
X118025628Y-43691346D01*
X118000345Y-43681588D01*
X117970427Y-43669883D01*
X117935559Y-43656114D01*
X117895427Y-43640160D01*
X117852889Y-43623172D01*
X117815949Y-43608345D01*
X117780653Y-43594080D01*
X117747463Y-43580570D01*
X117716843Y-43568008D01*
X117689255Y-43556587D01*
X117665163Y-43546500D01*
X117645029Y-43537940D01*
X117629317Y-43531100D01*
X117618490Y-43526172D01*
X117613010Y-43523350D01*
X117612594Y-43523053D01*
X117605418Y-43514917D01*
X117600441Y-43505648D01*
X117600301Y-43505227D01*
X117599256Y-43500654D01*
X117597150Y-43490295D01*
X117594070Y-43474610D01*
X117590103Y-43454059D01*
X117585336Y-43429100D01*
X117579856Y-43400193D01*
X117573750Y-43367797D01*
X117567106Y-43332373D01*
X117560010Y-43294380D01*
X117552550Y-43254277D01*
X117544813Y-43212523D01*
X117544503Y-43210850D01*
X117536739Y-43169029D01*
X117529216Y-43128835D01*
X117522027Y-43090729D01*
X117515258Y-43055170D01*
X117509001Y-43022619D01*
X117503345Y-42993537D01*
X117498379Y-42968383D01*
X117494193Y-42947617D01*
X117490876Y-42931701D01*
X117488518Y-42921093D01*
X117487208Y-42916255D01*
X117487181Y-42916193D01*
X117485803Y-42913013D01*
X117484483Y-42910195D01*
X117482851Y-42907718D01*
X117480536Y-42905558D01*
X117477167Y-42903696D01*
X117472374Y-42902108D01*
X117465785Y-42900773D01*
X117457031Y-42899668D01*
X117445740Y-42898774D01*
X117431541Y-42898066D01*
X117414064Y-42897524D01*
X117392939Y-42897126D01*
X117367793Y-42896850D01*
X117338257Y-42896674D01*
X117303960Y-42896576D01*
X117264531Y-42896535D01*
X117219599Y-42896529D01*
X117168794Y-42896535D01*
X117153170Y-42896536D01*
X117102152Y-42896541D01*
X117057098Y-42896556D01*
X117017623Y-42896588D01*
X116983342Y-42896646D01*
X116953869Y-42896737D01*
X116928820Y-42896869D01*
X116907807Y-42897049D01*
X116890447Y-42897286D01*
X116876354Y-42897586D01*
X116865141Y-42897958D01*
X116856425Y-42898410D01*
X116849819Y-42898949D01*
X116844938Y-42899582D01*
X116841396Y-42900318D01*
X116838809Y-42901163D01*
X116836790Y-42902127D01*
X116835504Y-42902879D01*
X116827733Y-42908969D01*
X116822360Y-42915558D01*
X116821961Y-42916361D01*
X116820939Y-42920452D01*
X116818850Y-42930347D01*
X116815779Y-42945602D01*
X116811811Y-42965776D01*
X116807031Y-42990428D01*
X116801522Y-43019114D01*
X116795371Y-43051394D01*
X116788661Y-43086826D01*
X116781478Y-43124967D01*
X116773906Y-43165376D01*
X116766029Y-43207611D01*
X116763492Y-43221258D01*
X116753670Y-43274014D01*
X116744905Y-43320825D01*
X116737135Y-43361996D01*
X116730300Y-43397831D01*
X116724338Y-43428637D01*
X116719188Y-43454718D01*
X116714789Y-43476379D01*
X116711079Y-43493925D01*
X116707997Y-43507663D01*
X116705481Y-43517896D01*
X116703471Y-43524930D01*
X116701905Y-43529071D01*
X116701509Y-43529801D01*
X116694097Y-43538256D01*
X116684043Y-43545643D01*
X116681461Y-43547006D01*
X116676359Y-43549304D01*
X116665922Y-43553881D01*
X116650654Y-43560521D01*
X116631058Y-43569005D01*
X116607638Y-43579117D01*
X116580898Y-43590640D01*
X116551341Y-43603355D01*
X116519472Y-43617046D01*
X116485792Y-43631496D01*
X116460159Y-43642481D01*
X116418625Y-43660273D01*
X116382507Y-43675714D01*
X116351379Y-43688940D01*
X116324816Y-43700088D01*
X116302391Y-43709292D01*
X116283678Y-43716690D01*
X116268250Y-43722417D01*
X116255682Y-43726609D01*
X116245547Y-43729402D01*
X116237419Y-43730932D01*
X116230872Y-43731336D01*
X116225480Y-43730748D01*
X116220816Y-43729306D01*
X116216455Y-43727145D01*
X116211970Y-43724401D01*
X116209127Y-43722585D01*
X116204482Y-43719502D01*
X116194995Y-43713091D01*
X116181059Y-43703621D01*
X116163066Y-43691359D01*
X116141409Y-43676574D01*
X116116480Y-43659534D01*
X116088672Y-43640508D01*
X116058377Y-43619763D01*
X116025986Y-43597568D01*
X115991893Y-43574190D01*
X115956491Y-43549899D01*
X115952125Y-43546903D01*
X115916757Y-43522667D01*
X115882752Y-43499443D01*
X115850490Y-43477486D01*
X115820352Y-43457052D01*
X115792717Y-43438397D01*
X115767967Y-43421775D01*
X115746482Y-43407442D01*
X115728641Y-43395653D01*
X115714827Y-43386664D01*
X115705419Y-43380730D01*
X115700798Y-43378107D01*
X115700532Y-43378013D01*
X115690047Y-43377865D01*
X115681482Y-43380336D01*
X115677381Y-43383381D01*
X115669264Y-43390557D01*
X115657504Y-43401488D01*
X115642477Y-43415795D01*
X115624558Y-43433104D01*
X115604120Y-43453038D01*
X115581539Y-43475220D01*
X115557189Y-43499274D01*
X115531445Y-43524824D01*
X115504681Y-43551492D01*
X115477273Y-43578903D01*
X115449593Y-43606680D01*
X115422018Y-43634446D01*
X115394922Y-43661826D01*
X115368679Y-43688443D01*
X115343665Y-43713920D01*
X115320252Y-43737880D01*
X115298817Y-43759949D01*
X115279734Y-43779748D01*
X115263378Y-43796902D01*
X115250122Y-43811034D01*
X115240342Y-43821767D01*
X115234412Y-43828726D01*
X115232691Y-43831328D01*
X115232081Y-43841191D01*
X115233617Y-43849062D01*
X115235833Y-43852827D01*
X115241402Y-43861454D01*
X115250074Y-43874575D01*
X115261600Y-43891823D01*
X115275733Y-43912829D01*
X115292222Y-43937226D01*
X115310820Y-43964646D01*
X115331276Y-43994721D01*
X115353343Y-44027083D01*
X115376771Y-44061365D01*
X115401312Y-44097198D01*
X115414003Y-44115698D01*
X115443389Y-44158534D01*
X115469375Y-44196461D01*
X115492171Y-44229798D01*
X115511982Y-44258861D01*
X115529018Y-44283969D01*
X115543486Y-44305439D01*
X115555595Y-44323589D01*
X115565551Y-44338736D01*
X115573564Y-44351199D01*
X115579840Y-44361293D01*
X115584589Y-44369338D01*
X115588017Y-44375650D01*
X115590334Y-44380548D01*
X115591745Y-44384348D01*
X115592461Y-44387369D01*
X115592606Y-44388502D01*
X115592717Y-44391676D01*
X115592371Y-44395503D01*
X115591408Y-44400405D01*
X115589670Y-44406804D01*
X115586997Y-44415120D01*
X115583230Y-44425777D01*
X115578211Y-44439194D01*
X115571781Y-44455796D01*
X115563780Y-44476002D01*
X115554049Y-44500234D01*
X115542431Y-44528916D01*
X115528765Y-44562467D01*
X115512892Y-44601310D01*
X115506449Y-44617058D01*
X115492055Y-44652134D01*
X115478257Y-44685575D01*
X115465257Y-44716904D01*
X115453257Y-44745642D01*
X115442458Y-44771311D01*
X115433064Y-44793431D01*
X115425275Y-44811525D01*
X115419295Y-44825114D01*
X115415325Y-44833719D01*
X115413655Y-44836789D01*
X115407385Y-44841531D01*
X115398186Y-44846249D01*
X115395317Y-44847390D01*
X115390336Y-44848658D01*
X115379568Y-44850983D01*
X115363471Y-44854274D01*
X115342504Y-44858445D01*
X115317125Y-44863406D01*
X115287793Y-44869069D01*
X115254966Y-44875346D01*
X115219103Y-44882148D01*
X115180662Y-44889386D01*
X115140103Y-44896973D01*
X115097883Y-44904820D01*
X115090112Y-44906258D01*
X115047602Y-44914131D01*
X115006639Y-44921732D01*
X114967683Y-44928973D01*
X114931197Y-44935768D01*
X114897643Y-44942032D01*
X114867482Y-44947677D01*
X114841176Y-44952617D01*
X114819187Y-44956766D01*
X114801976Y-44960036D01*
X114790006Y-44962343D01*
X114783737Y-44963599D01*
X114783261Y-44963704D01*
X114772210Y-44967638D01*
X114762948Y-44973288D01*
X114761036Y-44975055D01*
X114753562Y-44983010D01*
X114752790Y-45296286D01*
X114752658Y-45348633D01*
X114752548Y-45395004D01*
X114752477Y-45435776D01*
X114752460Y-45471322D01*
X114752516Y-45502018D01*
X114752516Y-45502018D01*
G37*
X114752516Y-45502018D02*
X114752661Y-45528238D01*
X114752912Y-45550358D01*
X114753285Y-45568751D01*
X114753799Y-45583794D01*
X114754469Y-45595861D01*
X114755312Y-45605327D01*
X114756346Y-45612567D01*
X114757587Y-45617955D01*
X114759053Y-45621867D01*
X114760759Y-45624677D01*
X114762724Y-45626761D01*
X114764963Y-45628493D01*
X114767494Y-45630248D01*
X114767850Y-45630500D01*
X114771454Y-45631932D01*
X114779353Y-45634078D01*
X114791739Y-45636976D01*
X114808804Y-45640665D01*
X114830741Y-45645183D01*
X114857744Y-45650568D01*
X114890004Y-45656859D01*
X114927715Y-45664093D01*
X114971069Y-45672310D01*
X115020259Y-45681548D01*
X115075478Y-45691845D01*
X115085200Y-45693651D01*
X115140429Y-45703937D01*
X115189650Y-45713160D01*
X115233107Y-45721371D01*
X115271045Y-45728618D01*
X115303708Y-45734949D01*
X115331340Y-45740413D01*
X115354186Y-45745059D01*
X115372490Y-45748936D01*
X115386496Y-45752093D01*
X115396449Y-45754577D01*
X115402592Y-45756439D01*
X115404743Y-45757389D01*
X115413113Y-45764705D01*
X115419791Y-45774044D01*
X115420159Y-45774789D01*
X115422230Y-45779549D01*
X115426493Y-45789681D01*
X115432741Y-45804681D01*
X115440764Y-45824040D01*
X115450354Y-45847255D01*
X115461303Y-45873819D01*
X115473400Y-45903227D01*
X115486438Y-45934972D01*
X115500207Y-45968548D01*
X115509397Y-45990985D01*
X115526650Y-46033213D01*
X115541571Y-46069939D01*
X115554297Y-46101515D01*
X115564962Y-46128292D01*
X115573701Y-46150619D01*
X115580648Y-46168849D01*
X115585938Y-46183331D01*
X115589706Y-46194416D01*
X115592086Y-46202456D01*
X115593213Y-46207800D01*
X115593349Y-46209582D01*
X115592733Y-46216988D01*
X115590431Y-46224452D01*
X115585764Y-46233480D01*
X115578052Y-46245580D01*
X115575259Y-46249717D01*
X115570755Y-46256314D01*
X115562950Y-46267716D01*
X115552141Y-46283493D01*
X115538620Y-46303215D01*
X115522683Y-46326454D01*
X115504624Y-46352779D01*
X115484739Y-46381762D01*
X115463322Y-46412971D01*
X115440666Y-46445979D01*
X115417069Y-46480354D01*
X115396938Y-46509675D01*
X115373170Y-46544331D01*
X115350397Y-46577614D01*
X115328882Y-46609133D01*
X115308888Y-46638502D01*
X115290676Y-46665333D01*
X115274510Y-46689237D01*
X115260652Y-46709826D01*
X115249364Y-46726713D01*
X115240909Y-46739509D01*
X115235548Y-46747827D01*
X115233569Y-46751208D01*
X115231985Y-46760486D01*
X115232691Y-46768671D01*
X115234649Y-46771918D01*
X115239741Y-46778163D01*
X115248106Y-46787549D01*
X115259884Y-46800219D01*
X115275212Y-46816317D01*
X115294231Y-46835987D01*
X115317078Y-46859373D01*
X115343893Y-46886617D01*
X115374814Y-46917863D01*
X115409981Y-46953256D01*
X115449532Y-46992937D01*
X115453044Y-46996457D01*
X115484104Y-47027530D01*
X115514028Y-47057383D01*
X115542495Y-47085699D01*
X115569186Y-47112164D01*
X115593778Y-47136462D01*
X115615952Y-47158279D01*
X115635387Y-47177299D01*
X115651762Y-47193206D01*
X115664757Y-47205687D01*
X115674050Y-47214424D01*
X115679321Y-47219104D01*
X115680254Y-47219781D01*
X115692707Y-47223123D01*
X115699304Y-47222648D01*
X115703451Y-47220559D01*
X115712491Y-47215066D01*
X115726096Y-47206387D01*
X115743944Y-47194738D01*
X115765707Y-47180337D01*
X115791063Y-47163400D01*
X115819684Y-47144144D01*
X115851247Y-47122786D01*
X115885426Y-47099544D01*
X115921896Y-47074633D01*
X115952125Y-47053910D01*
X115987659Y-47029514D01*
X116021929Y-47005992D01*
X116054543Y-46983613D01*
X116085109Y-46962646D01*
X116113234Y-46943359D01*
X116138525Y-46926021D01*
X116160592Y-46910902D01*
X116179040Y-46898271D01*
X116193479Y-46888395D01*
X116203516Y-46881544D01*
X116208759Y-46877987D01*
X116209050Y-46877793D01*
X116213584Y-46874762D01*
X116217758Y-46872217D01*
X116221988Y-46870294D01*
X116226690Y-46869125D01*
X116232278Y-46868845D01*
X116239170Y-46869588D01*
X116247780Y-46871490D01*
X116258525Y-46874683D01*
X116271819Y-46879302D01*
X116288078Y-46885482D01*
X116307719Y-46893356D01*
X116331156Y-46903060D01*
X116358805Y-46914726D01*
X116391082Y-46928490D01*
X116428402Y-46944486D01*
X116467572Y-46961298D01*
X116512541Y-46980662D01*
X116552973Y-46998205D01*
X116588697Y-47013852D01*
X116619542Y-47027524D01*
X116645335Y-47039144D01*
X116665907Y-47048636D01*
X116681084Y-47055922D01*
X116690696Y-47060925D01*
X116694218Y-47063193D01*
X116701711Y-47071898D01*
X116707116Y-47081897D01*
X116707758Y-47083850D01*
X116708796Y-47088609D01*
X116710900Y-47099158D01*
X116713982Y-47115040D01*
X116717956Y-47135801D01*
X116722738Y-47160986D01*
X116728241Y-47190138D01*
X116734379Y-47222803D01*
X116741066Y-47258524D01*
X116748217Y-47296847D01*
X116755745Y-47337317D01*
X116763564Y-47379477D01*
X116765061Y-47387562D01*
X116775087Y-47441574D01*
X116784058Y-47489557D01*
X116792020Y-47531738D01*
X116799016Y-47568343D01*
X116805092Y-47599597D01*
X116810292Y-47625726D01*
X116814663Y-47646957D01*
X116818249Y-47663514D01*
X116821095Y-47675623D01*
X116823246Y-47683511D01*
X116824747Y-47687404D01*
X116824875Y-47687600D01*
X116826692Y-47690171D01*
X116828445Y-47692446D01*
X116830513Y-47694445D01*
X116833272Y-47696184D01*
X116837100Y-47697683D01*
X116842375Y-47698958D01*
X116849472Y-47700028D01*
X116858770Y-47700911D01*
X116870646Y-47701626D01*
X116885477Y-47702189D01*
X116903640Y-47702619D01*
X116925512Y-47702935D01*
X116951471Y-47703154D01*
X116981893Y-47703294D01*
X117017157Y-47703373D01*
X117057639Y-47703410D01*
X117103717Y-47703422D01*
X117155767Y-47703428D01*
X117155774Y-47703428D01*
X117465660Y-47703474D01*
X117476204Y-47696331D01*
X117483758Y-47689681D01*
X117488835Y-47682467D01*
X117489315Y-47681250D01*
X117490258Y-47677030D01*
X117492273Y-47667016D01*
X117495274Y-47651657D01*
X117499175Y-47631403D01*
X117503892Y-47606702D01*
X117509340Y-47578005D01*
X117515432Y-47545761D01*
X117522084Y-47510419D01*
X117529211Y-47472428D01*
X117536727Y-47432239D01*
X117544546Y-47390299D01*
X117545892Y-47383073D01*
X117554477Y-47337133D01*
X117562636Y-47293868D01*
X117570296Y-47253644D01*
X117577384Y-47216829D01*
X117583827Y-47183788D01*
X117589554Y-47154889D01*
X117594491Y-47130499D01*
X117598566Y-47110985D01*
X117601707Y-47096712D01*
X117603842Y-47088049D01*
X117604732Y-47085461D01*
X117611196Y-47077969D01*
X117616662Y-47073524D01*
X117621503Y-47071132D01*
X117631612Y-47066704D01*
X117646441Y-47060456D01*
X117665440Y-47052606D01*
X117688060Y-47043371D01*
X117713752Y-47032968D01*
X117741966Y-47021614D01*
X117772155Y-47009526D01*
X117803768Y-46996922D01*
X117836257Y-46984019D01*
X117869071Y-46971033D01*
X117901663Y-46958183D01*
X117933483Y-46945685D01*
X117963982Y-46933756D01*
X117992611Y-46922614D01*
X118018820Y-46912476D01*
X118042061Y-46903559D01*
X118061784Y-46896080D01*
X118077440Y-46890256D01*
X118088480Y-46886305D01*
X118094356Y-46884443D01*
X118095052Y-46884325D01*
X118104736Y-46885312D01*
X118111716Y-46887121D01*
X118115372Y-46889298D01*
X118123874Y-46894817D01*
X118136836Y-46903415D01*
X118153873Y-46914832D01*
X118174600Y-46928809D01*
X118198633Y-46945083D01*
X118225586Y-46963395D01*
X118255075Y-46983483D01*
X118286714Y-47005088D01*
X118320119Y-47027948D01*
X118354016Y-47051193D01*
X118388864Y-47075103D01*
X118422378Y-47098077D01*
X118454168Y-47119849D01*
X118483842Y-47140150D01*
X118511008Y-47158714D01*
X118535274Y-47175274D01*
X118556248Y-47189560D01*
X118573539Y-47201308D01*
X118586755Y-47210249D01*
X118595505Y-47216115D01*
X118599332Y-47218603D01*
X118602923Y-47220802D01*
X118606178Y-47222679D01*
X118609376Y-47223997D01*
X118612796Y-47224514D01*
X118616719Y-47223993D01*
X118621422Y-47222191D01*
X118627187Y-47218872D01*
X118634292Y-47213793D01*
X118643017Y-47206717D01*
X118653641Y-47197402D01*
X118666444Y-47185611D01*
X118681705Y-47171102D01*
X118699704Y-47153637D01*
X118720720Y-47132975D01*
X118745032Y-47108878D01*
X118772921Y-47081105D01*
X118804665Y-47049417D01*
X118840544Y-47013573D01*
X118853337Y-47000795D01*
X118890395Y-46963774D01*
X118923208Y-46930960D01*
X118952029Y-46902073D01*
X118977109Y-46876835D01*
X118998700Y-46854969D01*
X119017054Y-46836195D01*
X119032422Y-46820235D01*
X119045057Y-46806811D01*
X119055210Y-46795645D01*
X119063133Y-46786458D01*
X119069077Y-46778972D01*
X119073295Y-46772909D01*
X119076038Y-46767990D01*
X119077557Y-46763937D01*
X119078106Y-46760473D01*
X119077935Y-46757317D01*
X119077296Y-46754193D01*
X119077105Y-46753433D01*
X119075071Y-46749804D01*
X119069690Y-46741330D01*
X119061218Y-46728391D01*
X119049914Y-46711369D01*
X119036034Y-46690645D01*
X119019835Y-46666602D01*
X119001574Y-46639621D01*
X118981509Y-46610083D01*
X118959897Y-46578370D01*
X118936995Y-46544864D01*
X118913059Y-46509946D01*
X118911783Y-46508087D01*
X118883621Y-46467048D01*
X118858851Y-46430900D01*
X118837257Y-46399312D01*
X118818620Y-46371950D01*
X118802725Y-46348481D01*
X118789354Y-46328574D01*
X118778291Y-46311894D01*
X118769317Y-46298110D01*
X118762217Y-46286889D01*
X118756773Y-46277898D01*
X118752768Y-46270805D01*
X118749985Y-46265276D01*
X118748207Y-46260979D01*
X118747218Y-46257581D01*
X118746839Y-46255198D01*
X118746585Y-46251270D01*
X118746810Y-46247250D01*
X118747782Y-46242555D01*
X118749770Y-46236599D01*
X118753041Y-46228798D01*
X118757865Y-46218566D01*
X118764508Y-46205318D01*
X118773241Y-46188471D01*
X118784330Y-46167438D01*
X118798046Y-46141635D01*
X118804489Y-46129544D01*
X118817513Y-46104945D01*
X118829544Y-46081904D01*
X118840258Y-46061063D01*
X118849332Y-46043064D01*
X118856444Y-46028550D01*
X118861271Y-46018163D01*
X118863490Y-46012546D01*
X118863600Y-46011929D01*
X118861527Y-46004938D01*
X118856534Y-45997482D01*
X118856456Y-45997396D01*
X118852752Y-45995317D01*
X118843533Y-45990987D01*
X118829165Y-45984555D01*
X118810011Y-45976174D01*
X118786434Y-45965993D01*
X118758799Y-45954165D01*
X118727470Y-45940839D01*
X118692809Y-45926166D01*
X118655183Y-45910299D01*
X118614953Y-45893386D01*
X118572485Y-45875581D01*
X118528141Y-45857032D01*
X118482287Y-45837891D01*
X118435285Y-45818310D01*
X118387500Y-45798439D01*
X118339296Y-45778428D01*
X118291037Y-45758429D01*
X118243085Y-45738593D01*
X118195807Y-45719071D01*
X118149564Y-45700013D01*
X118104722Y-45681570D01*
X118061643Y-45663894D01*
X118020693Y-45647135D01*
X117982234Y-45631444D01*
X117946632Y-45616972D01*
X117914249Y-45603871D01*
X117885449Y-45592290D01*
X117860597Y-45582380D01*
X117840057Y-45574294D01*
X117824191Y-45568180D01*
X117813365Y-45564192D01*
X117807942Y-45562479D01*
X117807530Y-45562422D01*
X117798463Y-45563537D01*
X117790170Y-45567717D01*
X117781804Y-45575719D01*
X117772519Y-45588300D01*
X117764729Y-45600721D01*
X117754740Y-45616629D01*
X117743001Y-45634256D01*
X117731639Y-45650431D01*
X117728731Y-45654381D01*
X117718357Y-45668337D01*
X117707370Y-45683222D01*
X117697642Y-45696495D01*
X117694788Y-45700419D01*
X117657059Y-45747191D01*
X117614258Y-45790726D01*
X117567036Y-45830540D01*
X117516043Y-45866149D01*
X117461930Y-45897070D01*
X117405348Y-45922817D01*
X117385768Y-45930270D01*
X117325276Y-45948828D01*
X117263058Y-45961481D01*
X117199724Y-45968226D01*
X117135888Y-45969061D01*
X117072160Y-45963984D01*
X117009153Y-45952993D01*
X116947478Y-45936086D01*
X116934787Y-45931795D01*
X116913588Y-45923637D01*
X116889271Y-45913063D01*
X116863677Y-45900975D01*
X116838648Y-45888271D01*
X116816025Y-45875854D01*
X116798331Y-45865071D01*
X116743738Y-45825729D01*
X116694276Y-45782661D01*
X116649881Y-45735798D01*
X116610493Y-45685071D01*
X116576050Y-45630410D01*
X116556747Y-45593687D01*
X116531309Y-45534696D01*
X116511944Y-45474794D01*
X116498505Y-45414334D01*
X116490841Y-45353668D01*
X116488804Y-45293146D01*
X116492244Y-45233121D01*
X116501012Y-45173945D01*
X116514959Y-45115968D01*
X116533936Y-45059544D01*
X116557792Y-45005023D01*
X116586380Y-44952758D01*
X116619550Y-44903099D01*
X116657153Y-44856400D01*
X116699039Y-44813011D01*
X116745059Y-44773285D01*
X116795064Y-44737572D01*
X116848906Y-44706225D01*
X116906433Y-44679596D01*
X116951573Y-44663041D01*
X117012915Y-44646247D01*
X117075431Y-44635522D01*
X117138603Y-44630813D01*
X117201911Y-44632069D01*
X117264836Y-44639238D01*
X117326859Y-44652268D01*
X117387461Y-44671107D01*
X117446123Y-44695704D01*
X117485650Y-44716262D01*
X117526779Y-44741245D01*
X117565119Y-44768365D01*
X117601286Y-44798238D01*
X117635896Y-44831484D01*
X117669565Y-44868721D01*
X117702909Y-44910567D01*
X117736545Y-44957641D01*
X117757259Y-44988863D01*
X117766219Y-45002513D01*
X117774451Y-45014702D01*
X117781088Y-45024168D01*
X117785260Y-45029647D01*
X117785476Y-45029891D01*
X117787099Y-45031801D01*
X117788591Y-45033543D01*
X117790210Y-45035021D01*
X117792214Y-45036139D01*
X117794859Y-45036800D01*
X117798403Y-45036908D01*
X117803104Y-45036366D01*
X117809220Y-45035077D01*
X117817008Y-45032945D01*
X117826725Y-45029872D01*
X117838628Y-45025764D01*
X117852976Y-45020522D01*
X117870027Y-45014050D01*
X117890036Y-45006252D01*
X117913262Y-44997031D01*
X117939963Y-44986290D01*
X117970396Y-44973934D01*
X118004818Y-44959864D01*
X118043487Y-44943985D01*
X118086661Y-44926200D01*
X118134597Y-44906412D01*
X118187552Y-44884525D01*
X118245784Y-44860442D01*
X118309550Y-44834067D01*
X118330328Y-44825473D01*
X118400485Y-44796442D01*
X118464924Y-44769740D01*
X118523804Y-44745300D01*
X118577286Y-44723053D01*
X118625532Y-44702933D01*
X118668702Y-44684870D01*
X118706956Y-44668798D01*
X118740456Y-44654646D01*
X118769361Y-44642349D01*
X118793834Y-44631837D01*
X118814035Y-44623043D01*
X118830123Y-44615898D01*
X118842262Y-44610335D01*
X118850610Y-44606286D01*
X118855328Y-44603682D01*
X118856456Y-44602818D01*
X118861436Y-44595402D01*
X118863597Y-44588574D01*
X118863600Y-44588397D01*
X118862144Y-44584255D01*
X118857992Y-44575169D01*
X118851468Y-44561782D01*
X118842897Y-44544738D01*
X118832603Y-44524678D01*
X118820909Y-44502246D01*
X118808140Y-44478084D01*
X118804862Y-44471931D01*
X118789103Y-44442335D01*
X118776158Y-44417746D01*
X118765819Y-44397585D01*
X118757884Y-44381273D01*
X118752145Y-44368231D01*
X118748398Y-44357879D01*
X118746438Y-44349637D01*
X118746059Y-44342927D01*
X118747056Y-44337169D01*
X118749225Y-44331783D01*
X118752359Y-44326191D01*
X118752914Y-44325275D01*
X118755696Y-44321032D01*
X118761801Y-44311952D01*
X118770956Y-44298434D01*
X118782892Y-44280875D01*
X118797335Y-44259673D01*
X118814014Y-44235228D01*
X118832659Y-44207936D01*
X118852996Y-44178196D01*
X118874755Y-44146406D01*
X118897664Y-44112963D01*
X118917537Y-44083975D01*
X118941074Y-44049604D01*
X118963578Y-44016644D01*
X118984790Y-43985482D01*
X119004449Y-43956506D01*
X119022295Y-43930101D01*
X119038067Y-43906655D01*
X119051504Y-43886556D01*
X119062347Y-43870189D01*
X119070335Y-43857942D01*
X119075208Y-43850202D01*
X119076710Y-43847437D01*
X119077336Y-43839552D01*
X119076968Y-43831562D01*
X119076122Y-43829283D01*
X119073806Y-43825699D01*
X119069779Y-43820560D01*
X119063804Y-43813620D01*
X119055641Y-43804631D01*
X119045051Y-43793344D01*
X119031795Y-43779512D01*
X119015634Y-43762887D01*
X118996330Y-43743221D01*
X118973643Y-43720266D01*
X118947335Y-43693775D01*
X118917166Y-43663499D01*
X118882898Y-43629191D01*
X118854661Y-43600963D01*
X118817525Y-43563858D01*
X118784607Y-43530991D01*
X118755627Y-43502114D01*
X118730309Y-43476978D01*
X118708375Y-43455337D01*
X118689546Y-43436941D01*
X118673545Y-43421544D01*
X118660094Y-43408898D01*
X118648915Y-43398754D01*
X118639731Y-43390865D01*
X118632262Y-43384982D01*
X118626233Y-43380859D01*
X118621364Y-43378248D01*
X118617378Y-43376899D01*
X118613997Y-43376567D01*
X118610943Y-43377002D01*
X118607939Y-43377957D01*
X118605629Y-43378836D01*
X118601921Y-43381035D01*
X118593402Y-43386553D01*
X118580494Y-43395107D01*
X118563615Y-43406412D01*
X118543185Y-43420187D01*
X118519623Y-43436146D01*
X118493349Y-43454007D01*
X118464782Y-43473486D01*
X118434342Y-43494299D01*
X118402448Y-43516162D01*
X118398462Y-43518899D01*
X118353509Y-43549768D01*
X118313497Y-43577248D01*
X118278126Y-43601534D01*
X118247097Y-43622823D01*
X118220111Y-43641310D01*
X118196867Y-43657191D01*
X118177066Y-43670663D01*
X118160408Y-43681922D01*
X118146594Y-43691162D01*
X118135324Y-43698582D01*
X118126297Y-43704375D01*
X118119216Y-43708739D01*
X118113779Y-43711869D01*
X118109688Y-43713961D01*
X118106642Y-43715212D01*
X118104343Y-43715817D01*
X118102489Y-43715972D01*
X118100782Y-43715873D01*
X118098923Y-43715717D01*
X118097589Y-43715677D01*
X118093515Y-43715101D01*
X118086692Y-43713291D01*
X118076807Y-43710130D01*
X118063544Y-43705498D01*
X118046589Y-43699276D01*
X118025628Y-43691346D01*
X118000345Y-43681588D01*
X117970427Y-43669883D01*
X117935559Y-43656114D01*
X117895427Y-43640160D01*
X117852889Y-43623172D01*
X117815949Y-43608345D01*
X117780653Y-43594080D01*
X117747463Y-43580570D01*
X117716843Y-43568008D01*
X117689255Y-43556587D01*
X117665163Y-43546500D01*
X117645029Y-43537940D01*
X117629317Y-43531100D01*
X117618490Y-43526172D01*
X117613010Y-43523350D01*
X117612594Y-43523053D01*
X117605418Y-43514917D01*
X117600441Y-43505648D01*
X117600301Y-43505227D01*
X117599256Y-43500654D01*
X117597150Y-43490295D01*
X117594070Y-43474610D01*
X117590103Y-43454059D01*
X117585336Y-43429100D01*
X117579856Y-43400193D01*
X117573750Y-43367797D01*
X117567106Y-43332373D01*
X117560010Y-43294380D01*
X117552550Y-43254277D01*
X117544813Y-43212523D01*
X117544503Y-43210850D01*
X117536739Y-43169029D01*
X117529216Y-43128835D01*
X117522027Y-43090729D01*
X117515258Y-43055170D01*
X117509001Y-43022619D01*
X117503345Y-42993537D01*
X117498379Y-42968383D01*
X117494193Y-42947617D01*
X117490876Y-42931701D01*
X117488518Y-42921093D01*
X117487208Y-42916255D01*
X117487181Y-42916193D01*
X117485803Y-42913013D01*
X117484483Y-42910195D01*
X117482851Y-42907718D01*
X117480536Y-42905558D01*
X117477167Y-42903696D01*
X117472374Y-42902108D01*
X117465785Y-42900773D01*
X117457031Y-42899668D01*
X117445740Y-42898774D01*
X117431541Y-42898066D01*
X117414064Y-42897524D01*
X117392939Y-42897126D01*
X117367793Y-42896850D01*
X117338257Y-42896674D01*
X117303960Y-42896576D01*
X117264531Y-42896535D01*
X117219599Y-42896529D01*
X117168794Y-42896535D01*
X117153170Y-42896536D01*
X117102152Y-42896541D01*
X117057098Y-42896556D01*
X117017623Y-42896588D01*
X116983342Y-42896646D01*
X116953869Y-42896737D01*
X116928820Y-42896869D01*
X116907807Y-42897049D01*
X116890447Y-42897286D01*
X116876354Y-42897586D01*
X116865141Y-42897958D01*
X116856425Y-42898410D01*
X116849819Y-42898949D01*
X116844938Y-42899582D01*
X116841396Y-42900318D01*
X116838809Y-42901163D01*
X116836790Y-42902127D01*
X116835504Y-42902879D01*
X116827733Y-42908969D01*
X116822360Y-42915558D01*
X116821961Y-42916361D01*
X116820939Y-42920452D01*
X116818850Y-42930347D01*
X116815779Y-42945602D01*
X116811811Y-42965776D01*
X116807031Y-42990428D01*
X116801522Y-43019114D01*
X116795371Y-43051394D01*
X116788661Y-43086826D01*
X116781478Y-43124967D01*
X116773906Y-43165376D01*
X116766029Y-43207611D01*
X116763492Y-43221258D01*
X116753670Y-43274014D01*
X116744905Y-43320825D01*
X116737135Y-43361996D01*
X116730300Y-43397831D01*
X116724338Y-43428637D01*
X116719188Y-43454718D01*
X116714789Y-43476379D01*
X116711079Y-43493925D01*
X116707997Y-43507663D01*
X116705481Y-43517896D01*
X116703471Y-43524930D01*
X116701905Y-43529071D01*
X116701509Y-43529801D01*
X116694097Y-43538256D01*
X116684043Y-43545643D01*
X116681461Y-43547006D01*
X116676359Y-43549304D01*
X116665922Y-43553881D01*
X116650654Y-43560521D01*
X116631058Y-43569005D01*
X116607638Y-43579117D01*
X116580898Y-43590640D01*
X116551341Y-43603355D01*
X116519472Y-43617046D01*
X116485792Y-43631496D01*
X116460159Y-43642481D01*
X116418625Y-43660273D01*
X116382507Y-43675714D01*
X116351379Y-43688940D01*
X116324816Y-43700088D01*
X116302391Y-43709292D01*
X116283678Y-43716690D01*
X116268250Y-43722417D01*
X116255682Y-43726609D01*
X116245547Y-43729402D01*
X116237419Y-43730932D01*
X116230872Y-43731336D01*
X116225480Y-43730748D01*
X116220816Y-43729306D01*
X116216455Y-43727145D01*
X116211970Y-43724401D01*
X116209127Y-43722585D01*
X116204482Y-43719502D01*
X116194995Y-43713091D01*
X116181059Y-43703621D01*
X116163066Y-43691359D01*
X116141409Y-43676574D01*
X116116480Y-43659534D01*
X116088672Y-43640508D01*
X116058377Y-43619763D01*
X116025986Y-43597568D01*
X115991893Y-43574190D01*
X115956491Y-43549899D01*
X115952125Y-43546903D01*
X115916757Y-43522667D01*
X115882752Y-43499443D01*
X115850490Y-43477486D01*
X115820352Y-43457052D01*
X115792717Y-43438397D01*
X115767967Y-43421775D01*
X115746482Y-43407442D01*
X115728641Y-43395653D01*
X115714827Y-43386664D01*
X115705419Y-43380730D01*
X115700798Y-43378107D01*
X115700532Y-43378013D01*
X115690047Y-43377865D01*
X115681482Y-43380336D01*
X115677381Y-43383381D01*
X115669264Y-43390557D01*
X115657504Y-43401488D01*
X115642477Y-43415795D01*
X115624558Y-43433104D01*
X115604120Y-43453038D01*
X115581539Y-43475220D01*
X115557189Y-43499274D01*
X115531445Y-43524824D01*
X115504681Y-43551492D01*
X115477273Y-43578903D01*
X115449593Y-43606680D01*
X115422018Y-43634446D01*
X115394922Y-43661826D01*
X115368679Y-43688443D01*
X115343665Y-43713920D01*
X115320252Y-43737880D01*
X115298817Y-43759949D01*
X115279734Y-43779748D01*
X115263378Y-43796902D01*
X115250122Y-43811034D01*
X115240342Y-43821767D01*
X115234412Y-43828726D01*
X115232691Y-43831328D01*
X115232081Y-43841191D01*
X115233617Y-43849062D01*
X115235833Y-43852827D01*
X115241402Y-43861454D01*
X115250074Y-43874575D01*
X115261600Y-43891823D01*
X115275733Y-43912829D01*
X115292222Y-43937226D01*
X115310820Y-43964646D01*
X115331276Y-43994721D01*
X115353343Y-44027083D01*
X115376771Y-44061365D01*
X115401312Y-44097198D01*
X115414003Y-44115698D01*
X115443389Y-44158534D01*
X115469375Y-44196461D01*
X115492171Y-44229798D01*
X115511982Y-44258861D01*
X115529018Y-44283969D01*
X115543486Y-44305439D01*
X115555595Y-44323589D01*
X115565551Y-44338736D01*
X115573564Y-44351199D01*
X115579840Y-44361293D01*
X115584589Y-44369338D01*
X115588017Y-44375650D01*
X115590334Y-44380548D01*
X115591745Y-44384348D01*
X115592461Y-44387369D01*
X115592606Y-44388502D01*
X115592717Y-44391676D01*
X115592371Y-44395503D01*
X115591408Y-44400405D01*
X115589670Y-44406804D01*
X115586997Y-44415120D01*
X115583230Y-44425777D01*
X115578211Y-44439194D01*
X115571781Y-44455796D01*
X115563780Y-44476002D01*
X115554049Y-44500234D01*
X115542431Y-44528916D01*
X115528765Y-44562467D01*
X115512892Y-44601310D01*
X115506449Y-44617058D01*
X115492055Y-44652134D01*
X115478257Y-44685575D01*
X115465257Y-44716904D01*
X115453257Y-44745642D01*
X115442458Y-44771311D01*
X115433064Y-44793431D01*
X115425275Y-44811525D01*
X115419295Y-44825114D01*
X115415325Y-44833719D01*
X115413655Y-44836789D01*
X115407385Y-44841531D01*
X115398186Y-44846249D01*
X115395317Y-44847390D01*
X115390336Y-44848658D01*
X115379568Y-44850983D01*
X115363471Y-44854274D01*
X115342504Y-44858445D01*
X115317125Y-44863406D01*
X115287793Y-44869069D01*
X115254966Y-44875346D01*
X115219103Y-44882148D01*
X115180662Y-44889386D01*
X115140103Y-44896973D01*
X115097883Y-44904820D01*
X115090112Y-44906258D01*
X115047602Y-44914131D01*
X115006639Y-44921732D01*
X114967683Y-44928973D01*
X114931197Y-44935768D01*
X114897643Y-44942032D01*
X114867482Y-44947677D01*
X114841176Y-44952617D01*
X114819187Y-44956766D01*
X114801976Y-44960036D01*
X114790006Y-44962343D01*
X114783737Y-44963599D01*
X114783261Y-44963704D01*
X114772210Y-44967638D01*
X114762948Y-44973288D01*
X114761036Y-44975055D01*
X114753562Y-44983010D01*
X114752790Y-45296286D01*
X114752658Y-45348633D01*
X114752548Y-45395004D01*
X114752477Y-45435776D01*
X114752460Y-45471322D01*
X114752516Y-45502018D01*
M02*
