G04 #@! TF.GenerationSoftware,KiCad,Pcbnew,5.1.2*
G04 #@! TF.CreationDate,2019-05-07T22:25:54+02:00*
G04 #@! TF.ProjectId,SX1257_pmod,53583132-3537-45f7-906d-6f642e6b6963,rev?*
G04 #@! TF.SameCoordinates,Original*
G04 #@! TF.FileFunction,Copper,L4,Bot*
G04 #@! TF.FilePolarity,Positive*
%FSLAX46Y46*%
G04 Gerber Fmt 4.6, Leading zero omitted, Abs format (unit mm)*
G04 Created by KiCad (PCBNEW 5.1.2) date 2019-05-07 22:25:54*
%MOMM*%
%LPD*%
G04 APERTURE LIST*
%ADD10R,1.524000X4.800000*%
%ADD11O,1.700000X1.700000*%
%ADD12R,1.700000X1.700000*%
%ADD13C,0.100000*%
%ADD14C,2.500000*%
%ADD15C,0.500000*%
%ADD16C,0.800000*%
%ADD17C,0.342900*%
%ADD18C,0.203200*%
%ADD19C,0.202000*%
G04 APERTURE END LIST*
D10*
X133096000Y-65613000D03*
X128016000Y-65613000D03*
X115824000Y-65613000D03*
X120904000Y-65613000D03*
D11*
X130810000Y-26670000D03*
X130810000Y-29210000D03*
X128270000Y-26670000D03*
X128270000Y-29210000D03*
X125730000Y-26670000D03*
X125730000Y-29210000D03*
X123190000Y-26670000D03*
X123190000Y-29210000D03*
X120650000Y-26670000D03*
X120650000Y-29210000D03*
X118110000Y-26670000D03*
D12*
X118110000Y-29210000D03*
D13*
G36*
X125484504Y-50186204D02*
G01*
X125508773Y-50189804D01*
X125532571Y-50195765D01*
X125555671Y-50204030D01*
X125577849Y-50214520D01*
X125598893Y-50227133D01*
X125618598Y-50241747D01*
X125636777Y-50258223D01*
X125653253Y-50276402D01*
X125667867Y-50296107D01*
X125680480Y-50317151D01*
X125690970Y-50339329D01*
X125699235Y-50362429D01*
X125705196Y-50386227D01*
X125708796Y-50410496D01*
X125710000Y-50435000D01*
X125710000Y-52435000D01*
X125708796Y-52459504D01*
X125705196Y-52483773D01*
X125699235Y-52507571D01*
X125690970Y-52530671D01*
X125680480Y-52552849D01*
X125667867Y-52573893D01*
X125653253Y-52593598D01*
X125636777Y-52611777D01*
X125618598Y-52628253D01*
X125598893Y-52642867D01*
X125577849Y-52655480D01*
X125555671Y-52665970D01*
X125532571Y-52674235D01*
X125508773Y-52680196D01*
X125484504Y-52683796D01*
X125460000Y-52685000D01*
X123460000Y-52685000D01*
X123435496Y-52683796D01*
X123411227Y-52680196D01*
X123387429Y-52674235D01*
X123364329Y-52665970D01*
X123342151Y-52655480D01*
X123321107Y-52642867D01*
X123301402Y-52628253D01*
X123283223Y-52611777D01*
X123266747Y-52593598D01*
X123252133Y-52573893D01*
X123239520Y-52552849D01*
X123229030Y-52530671D01*
X123220765Y-52507571D01*
X123214804Y-52483773D01*
X123211204Y-52459504D01*
X123210000Y-52435000D01*
X123210000Y-50435000D01*
X123211204Y-50410496D01*
X123214804Y-50386227D01*
X123220765Y-50362429D01*
X123229030Y-50339329D01*
X123239520Y-50317151D01*
X123252133Y-50296107D01*
X123266747Y-50276402D01*
X123283223Y-50258223D01*
X123301402Y-50241747D01*
X123321107Y-50227133D01*
X123342151Y-50214520D01*
X123364329Y-50204030D01*
X123387429Y-50195765D01*
X123411227Y-50189804D01*
X123435496Y-50186204D01*
X123460000Y-50185000D01*
X125460000Y-50185000D01*
X125484504Y-50186204D01*
X125484504Y-50186204D01*
G37*
D14*
X124460000Y-51435000D03*
D15*
X123460000Y-50435000D03*
X124460000Y-50435000D03*
X125460000Y-50435000D03*
X123460000Y-51435000D03*
X124460000Y-51435000D03*
X125460000Y-51435000D03*
X123460000Y-52435000D03*
X124460000Y-52435000D03*
X125460000Y-52435000D03*
D16*
X130344547Y-39749810D03*
X115697000Y-47371000D03*
X123444000Y-58293000D03*
X115697000Y-57277000D03*
X133159500Y-67437000D03*
X133159500Y-66167000D03*
X133159500Y-63627000D03*
X133159500Y-64897000D03*
X128079500Y-67437000D03*
X128079500Y-66167000D03*
X128079500Y-64897000D03*
X128079500Y-63627000D03*
X115824000Y-66167000D03*
X115824000Y-63627000D03*
X115824000Y-67437000D03*
X115824000Y-64897000D03*
X119634000Y-46736000D03*
X119634000Y-45212000D03*
X120904000Y-66167000D03*
X120904000Y-63627000D03*
X120904000Y-67437000D03*
X120904000Y-64897000D03*
X129540000Y-30734000D03*
X131064000Y-30734000D03*
X115697000Y-43180000D03*
X119400000Y-40999996D03*
X118700000Y-41650000D03*
X118900000Y-55800000D03*
X129335233Y-49889663D03*
X132300000Y-54400000D03*
X132300000Y-55800000D03*
X132300000Y-57300000D03*
X132300000Y-48800000D03*
X132800000Y-47300000D03*
X132800000Y-51700000D03*
X133350000Y-39116000D03*
X119061456Y-39040990D03*
X121300000Y-44000000D03*
X122100000Y-44000000D03*
X118000000Y-34600000D03*
X118800000Y-34600000D03*
X118800000Y-35400000D03*
X118000000Y-35400000D03*
X128900000Y-35500000D03*
X129700000Y-35500000D03*
X128900000Y-34700000D03*
X129700000Y-34700000D03*
X118900000Y-54250000D03*
X128200000Y-54400000D03*
X128200000Y-55400000D03*
X127200000Y-55400000D03*
X127200000Y-54400000D03*
X120130015Y-50508334D03*
X125784321Y-38389560D03*
X125150000Y-39149998D03*
X120125090Y-49450000D03*
X119380000Y-48514000D03*
X117475000Y-38988996D03*
X124000000Y-42000000D03*
X124491948Y-38388429D03*
X126000000Y-45300000D03*
X122639299Y-43114988D03*
X126029700Y-43900000D03*
X123700000Y-44700000D03*
D17*
X132986500Y-65994000D02*
X133159500Y-66167000D01*
X115633500Y-66167000D02*
X116095500Y-66167000D01*
X120713500Y-66167000D02*
X121175500Y-66167000D01*
D18*
X125881282Y-38486521D02*
X125784321Y-38389560D01*
X125881282Y-39438065D02*
X125881282Y-38486521D01*
X120130015Y-50369985D02*
X125279189Y-45220811D01*
X120130015Y-50508334D02*
X120130015Y-50369985D01*
X125279189Y-45220811D02*
X125279189Y-40040158D01*
X125279189Y-40040158D02*
X125881282Y-39438065D01*
X125150000Y-39149998D02*
X124675001Y-39624997D01*
X120525089Y-49050001D02*
X120125090Y-49450000D01*
X124675001Y-39624997D02*
X124675001Y-44900089D01*
X124675001Y-44900089D02*
X120525089Y-49050001D01*
X119380000Y-48514000D02*
X117475000Y-46609000D01*
X117475000Y-46609000D02*
X117475000Y-38988996D01*
X124000000Y-42000000D02*
X124000000Y-38880377D01*
X124000000Y-38880377D02*
X124091949Y-38788428D01*
X124091949Y-38788428D02*
X124491948Y-38388429D01*
X132400000Y-38900000D02*
X126000000Y-45300000D01*
X130810000Y-29210000D02*
X132400000Y-30800000D01*
X132400000Y-30800000D02*
X132400000Y-38900000D01*
X122340001Y-42815690D02*
X122639299Y-43114988D01*
X123190000Y-29210000D02*
X122340001Y-30059999D01*
X122340001Y-30059999D02*
X122340001Y-42815690D01*
D19*
X128270000Y-29210000D02*
X127420001Y-30059999D01*
X127420001Y-30059999D02*
X127420001Y-42509699D01*
X127420001Y-42509699D02*
X126429699Y-43500001D01*
X126429699Y-43500001D02*
X126029700Y-43900000D01*
X123300001Y-31639999D02*
X123300001Y-44300001D01*
X123300001Y-44300001D02*
X123700000Y-44700000D01*
X125730000Y-29210000D02*
X123300001Y-31639999D01*
M02*
