M48
; DRILL file {KiCad 5.1.2} date Tue 07 May 2019 10:25:57 PM CEST
; FORMAT={-:-/ absolute / inch / decimal}
; #@! TF.CreationDate,2019-05-07T22:25:57+02:00
; #@! TF.GenerationSoftware,Kicad,Pcbnew,5.1.2
; #@! TF.FileFunction,Plated,1,4,PTH
FMAT,2
INCH
T1C0.0079
T2C0.0157
T3C0.0394
%
G90
G05
T1
X4.8606Y-1.9856
X4.8606Y-2.025
X4.8606Y-2.0644
X4.9Y-1.9856
X4.9Y-2.025
X4.9Y-2.0644
X4.9394Y-1.9856
X4.9394Y-2.025
X4.9394Y-2.0644
T2
X4.555Y-1.7
X4.555Y-1.865
X4.555Y-2.255
X4.56Y-2.505
X4.56Y-2.555
X4.56Y-2.605
X4.56Y-2.655
X4.625Y-1.535
X4.6457Y-1.3622
X4.6457Y-1.3937
X4.6732Y-1.6398
X4.6772Y-1.3622
X4.6772Y-1.3937
X4.6811Y-2.1358
X4.6811Y-2.1969
X4.6875Y-1.537
X4.7Y-1.91
X4.7008Y-1.6142
X4.71Y-1.78
X4.71Y-1.84
X4.7293Y-1.9469
X4.7295Y-1.9885
X4.76Y-2.505
X4.76Y-2.555
X4.76Y-2.605
X4.76Y-2.655
X4.7756Y-1.7323
X4.8071Y-1.7323
X4.8283Y-1.6974
X4.86Y-2.295
X4.8701Y-1.7598
X4.8819Y-1.6535
X4.9013Y-1.5114
X4.9272Y-1.5413
X4.9521Y-1.5114
X4.9606Y-1.7835
X4.9618Y-1.7283
X5.0079Y-2.1417
X5.0079Y-2.1811
X5.0425Y-2.505
X5.0425Y-2.555
X5.0425Y-2.605
X5.0425Y-2.655
X5.0472Y-2.1417
X5.0472Y-2.1811
X5.0748Y-1.3661
X5.0748Y-1.3976
X5.0919Y-1.9642
X5.1Y-1.21
X5.1063Y-1.3661
X5.1063Y-1.3976
X5.1317Y-1.565
X5.16Y-1.21
X5.2087Y-1.9213
X5.2087Y-2.1417
X5.2087Y-2.1969
X5.2087Y-2.2559
X5.2283Y-1.8622
X5.2283Y-2.0354
X5.2425Y-2.505
X5.2425Y-2.555
X5.2425Y-2.605
X5.2425Y-2.655
X5.25Y-1.54
T3
X4.65Y-1.05
X4.65Y-1.15
X4.75Y-1.05
X4.75Y-1.15
X4.85Y-1.05
X4.85Y-1.15
X4.95Y-1.05
X4.95Y-1.15
X5.05Y-1.05
X5.05Y-1.15
X5.15Y-1.05
X5.15Y-1.15
T0
M30
