G04 #@! TF.GenerationSoftware,KiCad,Pcbnew,5.1.5-52549c5~84~ubuntu18.04.1*
G04 #@! TF.CreationDate,2020-01-04T20:43:16+00:00*
G04 #@! TF.ProjectId,SX1257_pmod,53583132-3537-45f7-906d-6f642e6b6963,rev?*
G04 #@! TF.SameCoordinates,Original*
G04 #@! TF.FileFunction,Paste,Top*
G04 #@! TF.FilePolarity,Positive*
%FSLAX46Y46*%
G04 Gerber Fmt 4.6, Leading zero omitted, Abs format (unit mm)*
G04 Created by KiCad (PCBNEW 5.1.5-52549c5~84~ubuntu18.04.1) date 2020-01-04 20:43:16*
%MOMM*%
%LPD*%
G04 APERTURE LIST*
%ADD10R,1.700000X0.800000*%
%ADD11C,0.100000*%
%ADD12R,0.580000X0.730000*%
%ADD13R,1.524000X4.800000*%
%ADD14R,0.450000X1.500000*%
G04 APERTURE END LIST*
D10*
X133200000Y-39130000D03*
X133200000Y-40400000D03*
X133200000Y-41670000D03*
X130600000Y-41670000D03*
X130600000Y-40400000D03*
X130600000Y-39130000D03*
D11*
G36*
X121786958Y-36840710D02*
G01*
X121801276Y-36842834D01*
X121815317Y-36846351D01*
X121828946Y-36851228D01*
X121842031Y-36857417D01*
X121854447Y-36864858D01*
X121866073Y-36873481D01*
X121876798Y-36883202D01*
X121886519Y-36893927D01*
X121895142Y-36905553D01*
X121902583Y-36917969D01*
X121908772Y-36931054D01*
X121913649Y-36944683D01*
X121917166Y-36958724D01*
X121919290Y-36973042D01*
X121920000Y-36987500D01*
X121920000Y-37282500D01*
X121919290Y-37296958D01*
X121917166Y-37311276D01*
X121913649Y-37325317D01*
X121908772Y-37338946D01*
X121902583Y-37352031D01*
X121895142Y-37364447D01*
X121886519Y-37376073D01*
X121876798Y-37386798D01*
X121866073Y-37396519D01*
X121854447Y-37405142D01*
X121842031Y-37412583D01*
X121828946Y-37418772D01*
X121815317Y-37423649D01*
X121801276Y-37427166D01*
X121786958Y-37429290D01*
X121772500Y-37430000D01*
X121427500Y-37430000D01*
X121413042Y-37429290D01*
X121398724Y-37427166D01*
X121384683Y-37423649D01*
X121371054Y-37418772D01*
X121357969Y-37412583D01*
X121345553Y-37405142D01*
X121333927Y-37396519D01*
X121323202Y-37386798D01*
X121313481Y-37376073D01*
X121304858Y-37364447D01*
X121297417Y-37352031D01*
X121291228Y-37338946D01*
X121286351Y-37325317D01*
X121282834Y-37311276D01*
X121280710Y-37296958D01*
X121280000Y-37282500D01*
X121280000Y-36987500D01*
X121280710Y-36973042D01*
X121282834Y-36958724D01*
X121286351Y-36944683D01*
X121291228Y-36931054D01*
X121297417Y-36917969D01*
X121304858Y-36905553D01*
X121313481Y-36893927D01*
X121323202Y-36883202D01*
X121333927Y-36873481D01*
X121345553Y-36864858D01*
X121357969Y-36857417D01*
X121371054Y-36851228D01*
X121384683Y-36846351D01*
X121398724Y-36842834D01*
X121413042Y-36840710D01*
X121427500Y-36840000D01*
X121772500Y-36840000D01*
X121786958Y-36840710D01*
G37*
G36*
X121786958Y-35870710D02*
G01*
X121801276Y-35872834D01*
X121815317Y-35876351D01*
X121828946Y-35881228D01*
X121842031Y-35887417D01*
X121854447Y-35894858D01*
X121866073Y-35903481D01*
X121876798Y-35913202D01*
X121886519Y-35923927D01*
X121895142Y-35935553D01*
X121902583Y-35947969D01*
X121908772Y-35961054D01*
X121913649Y-35974683D01*
X121917166Y-35988724D01*
X121919290Y-36003042D01*
X121920000Y-36017500D01*
X121920000Y-36312500D01*
X121919290Y-36326958D01*
X121917166Y-36341276D01*
X121913649Y-36355317D01*
X121908772Y-36368946D01*
X121902583Y-36382031D01*
X121895142Y-36394447D01*
X121886519Y-36406073D01*
X121876798Y-36416798D01*
X121866073Y-36426519D01*
X121854447Y-36435142D01*
X121842031Y-36442583D01*
X121828946Y-36448772D01*
X121815317Y-36453649D01*
X121801276Y-36457166D01*
X121786958Y-36459290D01*
X121772500Y-36460000D01*
X121427500Y-36460000D01*
X121413042Y-36459290D01*
X121398724Y-36457166D01*
X121384683Y-36453649D01*
X121371054Y-36448772D01*
X121357969Y-36442583D01*
X121345553Y-36435142D01*
X121333927Y-36426519D01*
X121323202Y-36416798D01*
X121313481Y-36406073D01*
X121304858Y-36394447D01*
X121297417Y-36382031D01*
X121291228Y-36368946D01*
X121286351Y-36355317D01*
X121282834Y-36341276D01*
X121280710Y-36326958D01*
X121280000Y-36312500D01*
X121280000Y-36017500D01*
X121280710Y-36003042D01*
X121282834Y-35988724D01*
X121286351Y-35974683D01*
X121291228Y-35961054D01*
X121297417Y-35947969D01*
X121304858Y-35935553D01*
X121313481Y-35923927D01*
X121323202Y-35913202D01*
X121333927Y-35903481D01*
X121345553Y-35894858D01*
X121357969Y-35887417D01*
X121371054Y-35881228D01*
X121384683Y-35876351D01*
X121398724Y-35872834D01*
X121413042Y-35870710D01*
X121427500Y-35870000D01*
X121772500Y-35870000D01*
X121786958Y-35870710D01*
G37*
G36*
X120136958Y-51640710D02*
G01*
X120151276Y-51642834D01*
X120165317Y-51646351D01*
X120178946Y-51651228D01*
X120192031Y-51657417D01*
X120204447Y-51664858D01*
X120216073Y-51673481D01*
X120226798Y-51683202D01*
X120236519Y-51693927D01*
X120245142Y-51705553D01*
X120252583Y-51717969D01*
X120258772Y-51731054D01*
X120263649Y-51744683D01*
X120267166Y-51758724D01*
X120269290Y-51773042D01*
X120270000Y-51787500D01*
X120270000Y-52132500D01*
X120269290Y-52146958D01*
X120267166Y-52161276D01*
X120263649Y-52175317D01*
X120258772Y-52188946D01*
X120252583Y-52202031D01*
X120245142Y-52214447D01*
X120236519Y-52226073D01*
X120226798Y-52236798D01*
X120216073Y-52246519D01*
X120204447Y-52255142D01*
X120192031Y-52262583D01*
X120178946Y-52268772D01*
X120165317Y-52273649D01*
X120151276Y-52277166D01*
X120136958Y-52279290D01*
X120122500Y-52280000D01*
X119827500Y-52280000D01*
X119813042Y-52279290D01*
X119798724Y-52277166D01*
X119784683Y-52273649D01*
X119771054Y-52268772D01*
X119757969Y-52262583D01*
X119745553Y-52255142D01*
X119733927Y-52246519D01*
X119723202Y-52236798D01*
X119713481Y-52226073D01*
X119704858Y-52214447D01*
X119697417Y-52202031D01*
X119691228Y-52188946D01*
X119686351Y-52175317D01*
X119682834Y-52161276D01*
X119680710Y-52146958D01*
X119680000Y-52132500D01*
X119680000Y-51787500D01*
X119680710Y-51773042D01*
X119682834Y-51758724D01*
X119686351Y-51744683D01*
X119691228Y-51731054D01*
X119697417Y-51717969D01*
X119704858Y-51705553D01*
X119713481Y-51693927D01*
X119723202Y-51683202D01*
X119733927Y-51673481D01*
X119745553Y-51664858D01*
X119757969Y-51657417D01*
X119771054Y-51651228D01*
X119784683Y-51646351D01*
X119798724Y-51642834D01*
X119813042Y-51640710D01*
X119827500Y-51640000D01*
X120122500Y-51640000D01*
X120136958Y-51640710D01*
G37*
G36*
X119166958Y-51640710D02*
G01*
X119181276Y-51642834D01*
X119195317Y-51646351D01*
X119208946Y-51651228D01*
X119222031Y-51657417D01*
X119234447Y-51664858D01*
X119246073Y-51673481D01*
X119256798Y-51683202D01*
X119266519Y-51693927D01*
X119275142Y-51705553D01*
X119282583Y-51717969D01*
X119288772Y-51731054D01*
X119293649Y-51744683D01*
X119297166Y-51758724D01*
X119299290Y-51773042D01*
X119300000Y-51787500D01*
X119300000Y-52132500D01*
X119299290Y-52146958D01*
X119297166Y-52161276D01*
X119293649Y-52175317D01*
X119288772Y-52188946D01*
X119282583Y-52202031D01*
X119275142Y-52214447D01*
X119266519Y-52226073D01*
X119256798Y-52236798D01*
X119246073Y-52246519D01*
X119234447Y-52255142D01*
X119222031Y-52262583D01*
X119208946Y-52268772D01*
X119195317Y-52273649D01*
X119181276Y-52277166D01*
X119166958Y-52279290D01*
X119152500Y-52280000D01*
X118857500Y-52280000D01*
X118843042Y-52279290D01*
X118828724Y-52277166D01*
X118814683Y-52273649D01*
X118801054Y-52268772D01*
X118787969Y-52262583D01*
X118775553Y-52255142D01*
X118763927Y-52246519D01*
X118753202Y-52236798D01*
X118743481Y-52226073D01*
X118734858Y-52214447D01*
X118727417Y-52202031D01*
X118721228Y-52188946D01*
X118716351Y-52175317D01*
X118712834Y-52161276D01*
X118710710Y-52146958D01*
X118710000Y-52132500D01*
X118710000Y-51787500D01*
X118710710Y-51773042D01*
X118712834Y-51758724D01*
X118716351Y-51744683D01*
X118721228Y-51731054D01*
X118727417Y-51717969D01*
X118734858Y-51705553D01*
X118743481Y-51693927D01*
X118753202Y-51683202D01*
X118763927Y-51673481D01*
X118775553Y-51664858D01*
X118787969Y-51657417D01*
X118801054Y-51651228D01*
X118814683Y-51646351D01*
X118828724Y-51642834D01*
X118843042Y-51640710D01*
X118857500Y-51640000D01*
X119152500Y-51640000D01*
X119166958Y-51640710D01*
G37*
G36*
X120136958Y-50520710D02*
G01*
X120151276Y-50522834D01*
X120165317Y-50526351D01*
X120178946Y-50531228D01*
X120192031Y-50537417D01*
X120204447Y-50544858D01*
X120216073Y-50553481D01*
X120226798Y-50563202D01*
X120236519Y-50573927D01*
X120245142Y-50585553D01*
X120252583Y-50597969D01*
X120258772Y-50611054D01*
X120263649Y-50624683D01*
X120267166Y-50638724D01*
X120269290Y-50653042D01*
X120270000Y-50667500D01*
X120270000Y-51012500D01*
X120269290Y-51026958D01*
X120267166Y-51041276D01*
X120263649Y-51055317D01*
X120258772Y-51068946D01*
X120252583Y-51082031D01*
X120245142Y-51094447D01*
X120236519Y-51106073D01*
X120226798Y-51116798D01*
X120216073Y-51126519D01*
X120204447Y-51135142D01*
X120192031Y-51142583D01*
X120178946Y-51148772D01*
X120165317Y-51153649D01*
X120151276Y-51157166D01*
X120136958Y-51159290D01*
X120122500Y-51160000D01*
X119827500Y-51160000D01*
X119813042Y-51159290D01*
X119798724Y-51157166D01*
X119784683Y-51153649D01*
X119771054Y-51148772D01*
X119757969Y-51142583D01*
X119745553Y-51135142D01*
X119733927Y-51126519D01*
X119723202Y-51116798D01*
X119713481Y-51106073D01*
X119704858Y-51094447D01*
X119697417Y-51082031D01*
X119691228Y-51068946D01*
X119686351Y-51055317D01*
X119682834Y-51041276D01*
X119680710Y-51026958D01*
X119680000Y-51012500D01*
X119680000Y-50667500D01*
X119680710Y-50653042D01*
X119682834Y-50638724D01*
X119686351Y-50624683D01*
X119691228Y-50611054D01*
X119697417Y-50597969D01*
X119704858Y-50585553D01*
X119713481Y-50573927D01*
X119723202Y-50563202D01*
X119733927Y-50553481D01*
X119745553Y-50544858D01*
X119757969Y-50537417D01*
X119771054Y-50531228D01*
X119784683Y-50526351D01*
X119798724Y-50522834D01*
X119813042Y-50520710D01*
X119827500Y-50520000D01*
X120122500Y-50520000D01*
X120136958Y-50520710D01*
G37*
G36*
X119166958Y-50520710D02*
G01*
X119181276Y-50522834D01*
X119195317Y-50526351D01*
X119208946Y-50531228D01*
X119222031Y-50537417D01*
X119234447Y-50544858D01*
X119246073Y-50553481D01*
X119256798Y-50563202D01*
X119266519Y-50573927D01*
X119275142Y-50585553D01*
X119282583Y-50597969D01*
X119288772Y-50611054D01*
X119293649Y-50624683D01*
X119297166Y-50638724D01*
X119299290Y-50653042D01*
X119300000Y-50667500D01*
X119300000Y-51012500D01*
X119299290Y-51026958D01*
X119297166Y-51041276D01*
X119293649Y-51055317D01*
X119288772Y-51068946D01*
X119282583Y-51082031D01*
X119275142Y-51094447D01*
X119266519Y-51106073D01*
X119256798Y-51116798D01*
X119246073Y-51126519D01*
X119234447Y-51135142D01*
X119222031Y-51142583D01*
X119208946Y-51148772D01*
X119195317Y-51153649D01*
X119181276Y-51157166D01*
X119166958Y-51159290D01*
X119152500Y-51160000D01*
X118857500Y-51160000D01*
X118843042Y-51159290D01*
X118828724Y-51157166D01*
X118814683Y-51153649D01*
X118801054Y-51148772D01*
X118787969Y-51142583D01*
X118775553Y-51135142D01*
X118763927Y-51126519D01*
X118753202Y-51116798D01*
X118743481Y-51106073D01*
X118734858Y-51094447D01*
X118727417Y-51082031D01*
X118721228Y-51068946D01*
X118716351Y-51055317D01*
X118712834Y-51041276D01*
X118710710Y-51026958D01*
X118710000Y-51012500D01*
X118710000Y-50667500D01*
X118710710Y-50653042D01*
X118712834Y-50638724D01*
X118716351Y-50624683D01*
X118721228Y-50611054D01*
X118727417Y-50597969D01*
X118734858Y-50585553D01*
X118743481Y-50573927D01*
X118753202Y-50563202D01*
X118763927Y-50553481D01*
X118775553Y-50544858D01*
X118787969Y-50537417D01*
X118801054Y-50531228D01*
X118814683Y-50526351D01*
X118828724Y-50522834D01*
X118843042Y-50520710D01*
X118857500Y-50520000D01*
X119152500Y-50520000D01*
X119166958Y-50520710D01*
G37*
G36*
X131356958Y-32865710D02*
G01*
X131371276Y-32867834D01*
X131385317Y-32871351D01*
X131398946Y-32876228D01*
X131412031Y-32882417D01*
X131424447Y-32889858D01*
X131436073Y-32898481D01*
X131446798Y-32908202D01*
X131456519Y-32918927D01*
X131465142Y-32930553D01*
X131472583Y-32942969D01*
X131478772Y-32956054D01*
X131483649Y-32969683D01*
X131487166Y-32983724D01*
X131489290Y-32998042D01*
X131490000Y-33012500D01*
X131490000Y-33307500D01*
X131489290Y-33321958D01*
X131487166Y-33336276D01*
X131483649Y-33350317D01*
X131478772Y-33363946D01*
X131472583Y-33377031D01*
X131465142Y-33389447D01*
X131456519Y-33401073D01*
X131446798Y-33411798D01*
X131436073Y-33421519D01*
X131424447Y-33430142D01*
X131412031Y-33437583D01*
X131398946Y-33443772D01*
X131385317Y-33448649D01*
X131371276Y-33452166D01*
X131356958Y-33454290D01*
X131342500Y-33455000D01*
X130997500Y-33455000D01*
X130983042Y-33454290D01*
X130968724Y-33452166D01*
X130954683Y-33448649D01*
X130941054Y-33443772D01*
X130927969Y-33437583D01*
X130915553Y-33430142D01*
X130903927Y-33421519D01*
X130893202Y-33411798D01*
X130883481Y-33401073D01*
X130874858Y-33389447D01*
X130867417Y-33377031D01*
X130861228Y-33363946D01*
X130856351Y-33350317D01*
X130852834Y-33336276D01*
X130850710Y-33321958D01*
X130850000Y-33307500D01*
X130850000Y-33012500D01*
X130850710Y-32998042D01*
X130852834Y-32983724D01*
X130856351Y-32969683D01*
X130861228Y-32956054D01*
X130867417Y-32942969D01*
X130874858Y-32930553D01*
X130883481Y-32918927D01*
X130893202Y-32908202D01*
X130903927Y-32898481D01*
X130915553Y-32889858D01*
X130927969Y-32882417D01*
X130941054Y-32876228D01*
X130954683Y-32871351D01*
X130968724Y-32867834D01*
X130983042Y-32865710D01*
X130997500Y-32865000D01*
X131342500Y-32865000D01*
X131356958Y-32865710D01*
G37*
G36*
X131356958Y-31895710D02*
G01*
X131371276Y-31897834D01*
X131385317Y-31901351D01*
X131398946Y-31906228D01*
X131412031Y-31912417D01*
X131424447Y-31919858D01*
X131436073Y-31928481D01*
X131446798Y-31938202D01*
X131456519Y-31948927D01*
X131465142Y-31960553D01*
X131472583Y-31972969D01*
X131478772Y-31986054D01*
X131483649Y-31999683D01*
X131487166Y-32013724D01*
X131489290Y-32028042D01*
X131490000Y-32042500D01*
X131490000Y-32337500D01*
X131489290Y-32351958D01*
X131487166Y-32366276D01*
X131483649Y-32380317D01*
X131478772Y-32393946D01*
X131472583Y-32407031D01*
X131465142Y-32419447D01*
X131456519Y-32431073D01*
X131446798Y-32441798D01*
X131436073Y-32451519D01*
X131424447Y-32460142D01*
X131412031Y-32467583D01*
X131398946Y-32473772D01*
X131385317Y-32478649D01*
X131371276Y-32482166D01*
X131356958Y-32484290D01*
X131342500Y-32485000D01*
X130997500Y-32485000D01*
X130983042Y-32484290D01*
X130968724Y-32482166D01*
X130954683Y-32478649D01*
X130941054Y-32473772D01*
X130927969Y-32467583D01*
X130915553Y-32460142D01*
X130903927Y-32451519D01*
X130893202Y-32441798D01*
X130883481Y-32431073D01*
X130874858Y-32419447D01*
X130867417Y-32407031D01*
X130861228Y-32393946D01*
X130856351Y-32380317D01*
X130852834Y-32366276D01*
X130850710Y-32351958D01*
X130850000Y-32337500D01*
X130850000Y-32042500D01*
X130850710Y-32028042D01*
X130852834Y-32013724D01*
X130856351Y-31999683D01*
X130861228Y-31986054D01*
X130867417Y-31972969D01*
X130874858Y-31960553D01*
X130883481Y-31948927D01*
X130893202Y-31938202D01*
X130903927Y-31928481D01*
X130915553Y-31919858D01*
X130927969Y-31912417D01*
X130941054Y-31906228D01*
X130954683Y-31901351D01*
X130968724Y-31897834D01*
X130983042Y-31895710D01*
X130997500Y-31895000D01*
X131342500Y-31895000D01*
X131356958Y-31895710D01*
G37*
G36*
X132761958Y-32865710D02*
G01*
X132776276Y-32867834D01*
X132790317Y-32871351D01*
X132803946Y-32876228D01*
X132817031Y-32882417D01*
X132829447Y-32889858D01*
X132841073Y-32898481D01*
X132851798Y-32908202D01*
X132861519Y-32918927D01*
X132870142Y-32930553D01*
X132877583Y-32942969D01*
X132883772Y-32956054D01*
X132888649Y-32969683D01*
X132892166Y-32983724D01*
X132894290Y-32998042D01*
X132895000Y-33012500D01*
X132895000Y-33307500D01*
X132894290Y-33321958D01*
X132892166Y-33336276D01*
X132888649Y-33350317D01*
X132883772Y-33363946D01*
X132877583Y-33377031D01*
X132870142Y-33389447D01*
X132861519Y-33401073D01*
X132851798Y-33411798D01*
X132841073Y-33421519D01*
X132829447Y-33430142D01*
X132817031Y-33437583D01*
X132803946Y-33443772D01*
X132790317Y-33448649D01*
X132776276Y-33452166D01*
X132761958Y-33454290D01*
X132747500Y-33455000D01*
X132402500Y-33455000D01*
X132388042Y-33454290D01*
X132373724Y-33452166D01*
X132359683Y-33448649D01*
X132346054Y-33443772D01*
X132332969Y-33437583D01*
X132320553Y-33430142D01*
X132308927Y-33421519D01*
X132298202Y-33411798D01*
X132288481Y-33401073D01*
X132279858Y-33389447D01*
X132272417Y-33377031D01*
X132266228Y-33363946D01*
X132261351Y-33350317D01*
X132257834Y-33336276D01*
X132255710Y-33321958D01*
X132255000Y-33307500D01*
X132255000Y-33012500D01*
X132255710Y-32998042D01*
X132257834Y-32983724D01*
X132261351Y-32969683D01*
X132266228Y-32956054D01*
X132272417Y-32942969D01*
X132279858Y-32930553D01*
X132288481Y-32918927D01*
X132298202Y-32908202D01*
X132308927Y-32898481D01*
X132320553Y-32889858D01*
X132332969Y-32882417D01*
X132346054Y-32876228D01*
X132359683Y-32871351D01*
X132373724Y-32867834D01*
X132388042Y-32865710D01*
X132402500Y-32865000D01*
X132747500Y-32865000D01*
X132761958Y-32865710D01*
G37*
G36*
X132761958Y-31895710D02*
G01*
X132776276Y-31897834D01*
X132790317Y-31901351D01*
X132803946Y-31906228D01*
X132817031Y-31912417D01*
X132829447Y-31919858D01*
X132841073Y-31928481D01*
X132851798Y-31938202D01*
X132861519Y-31948927D01*
X132870142Y-31960553D01*
X132877583Y-31972969D01*
X132883772Y-31986054D01*
X132888649Y-31999683D01*
X132892166Y-32013724D01*
X132894290Y-32028042D01*
X132895000Y-32042500D01*
X132895000Y-32337500D01*
X132894290Y-32351958D01*
X132892166Y-32366276D01*
X132888649Y-32380317D01*
X132883772Y-32393946D01*
X132877583Y-32407031D01*
X132870142Y-32419447D01*
X132861519Y-32431073D01*
X132851798Y-32441798D01*
X132841073Y-32451519D01*
X132829447Y-32460142D01*
X132817031Y-32467583D01*
X132803946Y-32473772D01*
X132790317Y-32478649D01*
X132776276Y-32482166D01*
X132761958Y-32484290D01*
X132747500Y-32485000D01*
X132402500Y-32485000D01*
X132388042Y-32484290D01*
X132373724Y-32482166D01*
X132359683Y-32478649D01*
X132346054Y-32473772D01*
X132332969Y-32467583D01*
X132320553Y-32460142D01*
X132308927Y-32451519D01*
X132298202Y-32441798D01*
X132288481Y-32431073D01*
X132279858Y-32419447D01*
X132272417Y-32407031D01*
X132266228Y-32393946D01*
X132261351Y-32380317D01*
X132257834Y-32366276D01*
X132255710Y-32351958D01*
X132255000Y-32337500D01*
X132255000Y-32042500D01*
X132255710Y-32028042D01*
X132257834Y-32013724D01*
X132261351Y-31999683D01*
X132266228Y-31986054D01*
X132272417Y-31972969D01*
X132279858Y-31960553D01*
X132288481Y-31948927D01*
X132298202Y-31938202D01*
X132308927Y-31928481D01*
X132320553Y-31919858D01*
X132332969Y-31912417D01*
X132346054Y-31906228D01*
X132359683Y-31901351D01*
X132373724Y-31897834D01*
X132388042Y-31895710D01*
X132402500Y-31895000D01*
X132747500Y-31895000D01*
X132761958Y-31895710D01*
G37*
G36*
X131761958Y-44965710D02*
G01*
X131776276Y-44967834D01*
X131790317Y-44971351D01*
X131803946Y-44976228D01*
X131817031Y-44982417D01*
X131829447Y-44989858D01*
X131841073Y-44998481D01*
X131851798Y-45008202D01*
X131861519Y-45018927D01*
X131870142Y-45030553D01*
X131877583Y-45042969D01*
X131883772Y-45056054D01*
X131888649Y-45069683D01*
X131892166Y-45083724D01*
X131894290Y-45098042D01*
X131895000Y-45112500D01*
X131895000Y-45407500D01*
X131894290Y-45421958D01*
X131892166Y-45436276D01*
X131888649Y-45450317D01*
X131883772Y-45463946D01*
X131877583Y-45477031D01*
X131870142Y-45489447D01*
X131861519Y-45501073D01*
X131851798Y-45511798D01*
X131841073Y-45521519D01*
X131829447Y-45530142D01*
X131817031Y-45537583D01*
X131803946Y-45543772D01*
X131790317Y-45548649D01*
X131776276Y-45552166D01*
X131761958Y-45554290D01*
X131747500Y-45555000D01*
X131402500Y-45555000D01*
X131388042Y-45554290D01*
X131373724Y-45552166D01*
X131359683Y-45548649D01*
X131346054Y-45543772D01*
X131332969Y-45537583D01*
X131320553Y-45530142D01*
X131308927Y-45521519D01*
X131298202Y-45511798D01*
X131288481Y-45501073D01*
X131279858Y-45489447D01*
X131272417Y-45477031D01*
X131266228Y-45463946D01*
X131261351Y-45450317D01*
X131257834Y-45436276D01*
X131255710Y-45421958D01*
X131255000Y-45407500D01*
X131255000Y-45112500D01*
X131255710Y-45098042D01*
X131257834Y-45083724D01*
X131261351Y-45069683D01*
X131266228Y-45056054D01*
X131272417Y-45042969D01*
X131279858Y-45030553D01*
X131288481Y-45018927D01*
X131298202Y-45008202D01*
X131308927Y-44998481D01*
X131320553Y-44989858D01*
X131332969Y-44982417D01*
X131346054Y-44976228D01*
X131359683Y-44971351D01*
X131373724Y-44967834D01*
X131388042Y-44965710D01*
X131402500Y-44965000D01*
X131747500Y-44965000D01*
X131761958Y-44965710D01*
G37*
G36*
X131761958Y-43995710D02*
G01*
X131776276Y-43997834D01*
X131790317Y-44001351D01*
X131803946Y-44006228D01*
X131817031Y-44012417D01*
X131829447Y-44019858D01*
X131841073Y-44028481D01*
X131851798Y-44038202D01*
X131861519Y-44048927D01*
X131870142Y-44060553D01*
X131877583Y-44072969D01*
X131883772Y-44086054D01*
X131888649Y-44099683D01*
X131892166Y-44113724D01*
X131894290Y-44128042D01*
X131895000Y-44142500D01*
X131895000Y-44437500D01*
X131894290Y-44451958D01*
X131892166Y-44466276D01*
X131888649Y-44480317D01*
X131883772Y-44493946D01*
X131877583Y-44507031D01*
X131870142Y-44519447D01*
X131861519Y-44531073D01*
X131851798Y-44541798D01*
X131841073Y-44551519D01*
X131829447Y-44560142D01*
X131817031Y-44567583D01*
X131803946Y-44573772D01*
X131790317Y-44578649D01*
X131776276Y-44582166D01*
X131761958Y-44584290D01*
X131747500Y-44585000D01*
X131402500Y-44585000D01*
X131388042Y-44584290D01*
X131373724Y-44582166D01*
X131359683Y-44578649D01*
X131346054Y-44573772D01*
X131332969Y-44567583D01*
X131320553Y-44560142D01*
X131308927Y-44551519D01*
X131298202Y-44541798D01*
X131288481Y-44531073D01*
X131279858Y-44519447D01*
X131272417Y-44507031D01*
X131266228Y-44493946D01*
X131261351Y-44480317D01*
X131257834Y-44466276D01*
X131255710Y-44451958D01*
X131255000Y-44437500D01*
X131255000Y-44142500D01*
X131255710Y-44128042D01*
X131257834Y-44113724D01*
X131261351Y-44099683D01*
X131266228Y-44086054D01*
X131272417Y-44072969D01*
X131279858Y-44060553D01*
X131288481Y-44048927D01*
X131298202Y-44038202D01*
X131308927Y-44028481D01*
X131320553Y-44019858D01*
X131332969Y-44012417D01*
X131346054Y-44006228D01*
X131359683Y-44001351D01*
X131373724Y-43997834D01*
X131388042Y-43995710D01*
X131402500Y-43995000D01*
X131747500Y-43995000D01*
X131761958Y-43995710D01*
G37*
G36*
X124146958Y-46800710D02*
G01*
X124161276Y-46802834D01*
X124175317Y-46806351D01*
X124188946Y-46811228D01*
X124202031Y-46817417D01*
X124214447Y-46824858D01*
X124226073Y-46833481D01*
X124236798Y-46843202D01*
X124246519Y-46853927D01*
X124255142Y-46865553D01*
X124262583Y-46877969D01*
X124268772Y-46891054D01*
X124273649Y-46904683D01*
X124277166Y-46918724D01*
X124279290Y-46933042D01*
X124280000Y-46947500D01*
X124280000Y-47292500D01*
X124279290Y-47306958D01*
X124277166Y-47321276D01*
X124273649Y-47335317D01*
X124268772Y-47348946D01*
X124262583Y-47362031D01*
X124255142Y-47374447D01*
X124246519Y-47386073D01*
X124236798Y-47396798D01*
X124226073Y-47406519D01*
X124214447Y-47415142D01*
X124202031Y-47422583D01*
X124188946Y-47428772D01*
X124175317Y-47433649D01*
X124161276Y-47437166D01*
X124146958Y-47439290D01*
X124132500Y-47440000D01*
X123837500Y-47440000D01*
X123823042Y-47439290D01*
X123808724Y-47437166D01*
X123794683Y-47433649D01*
X123781054Y-47428772D01*
X123767969Y-47422583D01*
X123755553Y-47415142D01*
X123743927Y-47406519D01*
X123733202Y-47396798D01*
X123723481Y-47386073D01*
X123714858Y-47374447D01*
X123707417Y-47362031D01*
X123701228Y-47348946D01*
X123696351Y-47335317D01*
X123692834Y-47321276D01*
X123690710Y-47306958D01*
X123690000Y-47292500D01*
X123690000Y-46947500D01*
X123690710Y-46933042D01*
X123692834Y-46918724D01*
X123696351Y-46904683D01*
X123701228Y-46891054D01*
X123707417Y-46877969D01*
X123714858Y-46865553D01*
X123723481Y-46853927D01*
X123733202Y-46843202D01*
X123743927Y-46833481D01*
X123755553Y-46824858D01*
X123767969Y-46817417D01*
X123781054Y-46811228D01*
X123794683Y-46806351D01*
X123808724Y-46802834D01*
X123823042Y-46800710D01*
X123837500Y-46800000D01*
X124132500Y-46800000D01*
X124146958Y-46800710D01*
G37*
G36*
X125116958Y-46800710D02*
G01*
X125131276Y-46802834D01*
X125145317Y-46806351D01*
X125158946Y-46811228D01*
X125172031Y-46817417D01*
X125184447Y-46824858D01*
X125196073Y-46833481D01*
X125206798Y-46843202D01*
X125216519Y-46853927D01*
X125225142Y-46865553D01*
X125232583Y-46877969D01*
X125238772Y-46891054D01*
X125243649Y-46904683D01*
X125247166Y-46918724D01*
X125249290Y-46933042D01*
X125250000Y-46947500D01*
X125250000Y-47292500D01*
X125249290Y-47306958D01*
X125247166Y-47321276D01*
X125243649Y-47335317D01*
X125238772Y-47348946D01*
X125232583Y-47362031D01*
X125225142Y-47374447D01*
X125216519Y-47386073D01*
X125206798Y-47396798D01*
X125196073Y-47406519D01*
X125184447Y-47415142D01*
X125172031Y-47422583D01*
X125158946Y-47428772D01*
X125145317Y-47433649D01*
X125131276Y-47437166D01*
X125116958Y-47439290D01*
X125102500Y-47440000D01*
X124807500Y-47440000D01*
X124793042Y-47439290D01*
X124778724Y-47437166D01*
X124764683Y-47433649D01*
X124751054Y-47428772D01*
X124737969Y-47422583D01*
X124725553Y-47415142D01*
X124713927Y-47406519D01*
X124703202Y-47396798D01*
X124693481Y-47386073D01*
X124684858Y-47374447D01*
X124677417Y-47362031D01*
X124671228Y-47348946D01*
X124666351Y-47335317D01*
X124662834Y-47321276D01*
X124660710Y-47306958D01*
X124660000Y-47292500D01*
X124660000Y-46947500D01*
X124660710Y-46933042D01*
X124662834Y-46918724D01*
X124666351Y-46904683D01*
X124671228Y-46891054D01*
X124677417Y-46877969D01*
X124684858Y-46865553D01*
X124693481Y-46853927D01*
X124703202Y-46843202D01*
X124713927Y-46833481D01*
X124725553Y-46824858D01*
X124737969Y-46817417D01*
X124751054Y-46811228D01*
X124764683Y-46806351D01*
X124778724Y-46802834D01*
X124793042Y-46800710D01*
X124807500Y-46800000D01*
X125102500Y-46800000D01*
X125116958Y-46800710D01*
G37*
G36*
X117460191Y-51976053D02*
G01*
X117481426Y-51979203D01*
X117502250Y-51984419D01*
X117522462Y-51991651D01*
X117541868Y-52000830D01*
X117560281Y-52011866D01*
X117577524Y-52024654D01*
X117593430Y-52039070D01*
X117607846Y-52054976D01*
X117620634Y-52072219D01*
X117631670Y-52090632D01*
X117640849Y-52110038D01*
X117648081Y-52130250D01*
X117653297Y-52151074D01*
X117656447Y-52172309D01*
X117657500Y-52193750D01*
X117657500Y-52706250D01*
X117656447Y-52727691D01*
X117653297Y-52748926D01*
X117648081Y-52769750D01*
X117640849Y-52789962D01*
X117631670Y-52809368D01*
X117620634Y-52827781D01*
X117607846Y-52845024D01*
X117593430Y-52860930D01*
X117577524Y-52875346D01*
X117560281Y-52888134D01*
X117541868Y-52899170D01*
X117522462Y-52908349D01*
X117502250Y-52915581D01*
X117481426Y-52920797D01*
X117460191Y-52923947D01*
X117438750Y-52925000D01*
X117001250Y-52925000D01*
X116979809Y-52923947D01*
X116958574Y-52920797D01*
X116937750Y-52915581D01*
X116917538Y-52908349D01*
X116898132Y-52899170D01*
X116879719Y-52888134D01*
X116862476Y-52875346D01*
X116846570Y-52860930D01*
X116832154Y-52845024D01*
X116819366Y-52827781D01*
X116808330Y-52809368D01*
X116799151Y-52789962D01*
X116791919Y-52769750D01*
X116786703Y-52748926D01*
X116783553Y-52727691D01*
X116782500Y-52706250D01*
X116782500Y-52193750D01*
X116783553Y-52172309D01*
X116786703Y-52151074D01*
X116791919Y-52130250D01*
X116799151Y-52110038D01*
X116808330Y-52090632D01*
X116819366Y-52072219D01*
X116832154Y-52054976D01*
X116846570Y-52039070D01*
X116862476Y-52024654D01*
X116879719Y-52011866D01*
X116898132Y-52000830D01*
X116917538Y-51991651D01*
X116937750Y-51984419D01*
X116958574Y-51979203D01*
X116979809Y-51976053D01*
X117001250Y-51975000D01*
X117438750Y-51975000D01*
X117460191Y-51976053D01*
G37*
G36*
X115885191Y-51976053D02*
G01*
X115906426Y-51979203D01*
X115927250Y-51984419D01*
X115947462Y-51991651D01*
X115966868Y-52000830D01*
X115985281Y-52011866D01*
X116002524Y-52024654D01*
X116018430Y-52039070D01*
X116032846Y-52054976D01*
X116045634Y-52072219D01*
X116056670Y-52090632D01*
X116065849Y-52110038D01*
X116073081Y-52130250D01*
X116078297Y-52151074D01*
X116081447Y-52172309D01*
X116082500Y-52193750D01*
X116082500Y-52706250D01*
X116081447Y-52727691D01*
X116078297Y-52748926D01*
X116073081Y-52769750D01*
X116065849Y-52789962D01*
X116056670Y-52809368D01*
X116045634Y-52827781D01*
X116032846Y-52845024D01*
X116018430Y-52860930D01*
X116002524Y-52875346D01*
X115985281Y-52888134D01*
X115966868Y-52899170D01*
X115947462Y-52908349D01*
X115927250Y-52915581D01*
X115906426Y-52920797D01*
X115885191Y-52923947D01*
X115863750Y-52925000D01*
X115426250Y-52925000D01*
X115404809Y-52923947D01*
X115383574Y-52920797D01*
X115362750Y-52915581D01*
X115342538Y-52908349D01*
X115323132Y-52899170D01*
X115304719Y-52888134D01*
X115287476Y-52875346D01*
X115271570Y-52860930D01*
X115257154Y-52845024D01*
X115244366Y-52827781D01*
X115233330Y-52809368D01*
X115224151Y-52789962D01*
X115216919Y-52769750D01*
X115211703Y-52748926D01*
X115208553Y-52727691D01*
X115207500Y-52706250D01*
X115207500Y-52193750D01*
X115208553Y-52172309D01*
X115211703Y-52151074D01*
X115216919Y-52130250D01*
X115224151Y-52110038D01*
X115233330Y-52090632D01*
X115244366Y-52072219D01*
X115257154Y-52054976D01*
X115271570Y-52039070D01*
X115287476Y-52024654D01*
X115304719Y-52011866D01*
X115323132Y-52000830D01*
X115342538Y-51991651D01*
X115362750Y-51984419D01*
X115383574Y-51979203D01*
X115404809Y-51976053D01*
X115426250Y-51975000D01*
X115863750Y-51975000D01*
X115885191Y-51976053D01*
G37*
G36*
X115882691Y-49796053D02*
G01*
X115903926Y-49799203D01*
X115924750Y-49804419D01*
X115944962Y-49811651D01*
X115964368Y-49820830D01*
X115982781Y-49831866D01*
X116000024Y-49844654D01*
X116015930Y-49859070D01*
X116030346Y-49874976D01*
X116043134Y-49892219D01*
X116054170Y-49910632D01*
X116063349Y-49930038D01*
X116070581Y-49950250D01*
X116075797Y-49971074D01*
X116078947Y-49992309D01*
X116080000Y-50013750D01*
X116080000Y-50526250D01*
X116078947Y-50547691D01*
X116075797Y-50568926D01*
X116070581Y-50589750D01*
X116063349Y-50609962D01*
X116054170Y-50629368D01*
X116043134Y-50647781D01*
X116030346Y-50665024D01*
X116015930Y-50680930D01*
X116000024Y-50695346D01*
X115982781Y-50708134D01*
X115964368Y-50719170D01*
X115944962Y-50728349D01*
X115924750Y-50735581D01*
X115903926Y-50740797D01*
X115882691Y-50743947D01*
X115861250Y-50745000D01*
X115423750Y-50745000D01*
X115402309Y-50743947D01*
X115381074Y-50740797D01*
X115360250Y-50735581D01*
X115340038Y-50728349D01*
X115320632Y-50719170D01*
X115302219Y-50708134D01*
X115284976Y-50695346D01*
X115269070Y-50680930D01*
X115254654Y-50665024D01*
X115241866Y-50647781D01*
X115230830Y-50629368D01*
X115221651Y-50609962D01*
X115214419Y-50589750D01*
X115209203Y-50568926D01*
X115206053Y-50547691D01*
X115205000Y-50526250D01*
X115205000Y-50013750D01*
X115206053Y-49992309D01*
X115209203Y-49971074D01*
X115214419Y-49950250D01*
X115221651Y-49930038D01*
X115230830Y-49910632D01*
X115241866Y-49892219D01*
X115254654Y-49874976D01*
X115269070Y-49859070D01*
X115284976Y-49844654D01*
X115302219Y-49831866D01*
X115320632Y-49820830D01*
X115340038Y-49811651D01*
X115360250Y-49804419D01*
X115381074Y-49799203D01*
X115402309Y-49796053D01*
X115423750Y-49795000D01*
X115861250Y-49795000D01*
X115882691Y-49796053D01*
G37*
G36*
X117457691Y-49796053D02*
G01*
X117478926Y-49799203D01*
X117499750Y-49804419D01*
X117519962Y-49811651D01*
X117539368Y-49820830D01*
X117557781Y-49831866D01*
X117575024Y-49844654D01*
X117590930Y-49859070D01*
X117605346Y-49874976D01*
X117618134Y-49892219D01*
X117629170Y-49910632D01*
X117638349Y-49930038D01*
X117645581Y-49950250D01*
X117650797Y-49971074D01*
X117653947Y-49992309D01*
X117655000Y-50013750D01*
X117655000Y-50526250D01*
X117653947Y-50547691D01*
X117650797Y-50568926D01*
X117645581Y-50589750D01*
X117638349Y-50609962D01*
X117629170Y-50629368D01*
X117618134Y-50647781D01*
X117605346Y-50665024D01*
X117590930Y-50680930D01*
X117575024Y-50695346D01*
X117557781Y-50708134D01*
X117539368Y-50719170D01*
X117519962Y-50728349D01*
X117499750Y-50735581D01*
X117478926Y-50740797D01*
X117457691Y-50743947D01*
X117436250Y-50745000D01*
X116998750Y-50745000D01*
X116977309Y-50743947D01*
X116956074Y-50740797D01*
X116935250Y-50735581D01*
X116915038Y-50728349D01*
X116895632Y-50719170D01*
X116877219Y-50708134D01*
X116859976Y-50695346D01*
X116844070Y-50680930D01*
X116829654Y-50665024D01*
X116816866Y-50647781D01*
X116805830Y-50629368D01*
X116796651Y-50609962D01*
X116789419Y-50589750D01*
X116784203Y-50568926D01*
X116781053Y-50547691D01*
X116780000Y-50526250D01*
X116780000Y-50013750D01*
X116781053Y-49992309D01*
X116784203Y-49971074D01*
X116789419Y-49950250D01*
X116796651Y-49930038D01*
X116805830Y-49910632D01*
X116816866Y-49892219D01*
X116829654Y-49874976D01*
X116844070Y-49859070D01*
X116859976Y-49844654D01*
X116877219Y-49831866D01*
X116895632Y-49820830D01*
X116915038Y-49811651D01*
X116935250Y-49804419D01*
X116956074Y-49799203D01*
X116977309Y-49796053D01*
X116998750Y-49795000D01*
X117436250Y-49795000D01*
X117457691Y-49796053D01*
G37*
G36*
X117476958Y-36405710D02*
G01*
X117491276Y-36407834D01*
X117505317Y-36411351D01*
X117518946Y-36416228D01*
X117532031Y-36422417D01*
X117544447Y-36429858D01*
X117556073Y-36438481D01*
X117566798Y-36448202D01*
X117576519Y-36458927D01*
X117585142Y-36470553D01*
X117592583Y-36482969D01*
X117598772Y-36496054D01*
X117603649Y-36509683D01*
X117607166Y-36523724D01*
X117609290Y-36538042D01*
X117610000Y-36552500D01*
X117610000Y-36897500D01*
X117609290Y-36911958D01*
X117607166Y-36926276D01*
X117603649Y-36940317D01*
X117598772Y-36953946D01*
X117592583Y-36967031D01*
X117585142Y-36979447D01*
X117576519Y-36991073D01*
X117566798Y-37001798D01*
X117556073Y-37011519D01*
X117544447Y-37020142D01*
X117532031Y-37027583D01*
X117518946Y-37033772D01*
X117505317Y-37038649D01*
X117491276Y-37042166D01*
X117476958Y-37044290D01*
X117462500Y-37045000D01*
X117167500Y-37045000D01*
X117153042Y-37044290D01*
X117138724Y-37042166D01*
X117124683Y-37038649D01*
X117111054Y-37033772D01*
X117097969Y-37027583D01*
X117085553Y-37020142D01*
X117073927Y-37011519D01*
X117063202Y-37001798D01*
X117053481Y-36991073D01*
X117044858Y-36979447D01*
X117037417Y-36967031D01*
X117031228Y-36953946D01*
X117026351Y-36940317D01*
X117022834Y-36926276D01*
X117020710Y-36911958D01*
X117020000Y-36897500D01*
X117020000Y-36552500D01*
X117020710Y-36538042D01*
X117022834Y-36523724D01*
X117026351Y-36509683D01*
X117031228Y-36496054D01*
X117037417Y-36482969D01*
X117044858Y-36470553D01*
X117053481Y-36458927D01*
X117063202Y-36448202D01*
X117073927Y-36438481D01*
X117085553Y-36429858D01*
X117097969Y-36422417D01*
X117111054Y-36416228D01*
X117124683Y-36411351D01*
X117138724Y-36407834D01*
X117153042Y-36405710D01*
X117167500Y-36405000D01*
X117462500Y-36405000D01*
X117476958Y-36405710D01*
G37*
G36*
X118446958Y-36405710D02*
G01*
X118461276Y-36407834D01*
X118475317Y-36411351D01*
X118488946Y-36416228D01*
X118502031Y-36422417D01*
X118514447Y-36429858D01*
X118526073Y-36438481D01*
X118536798Y-36448202D01*
X118546519Y-36458927D01*
X118555142Y-36470553D01*
X118562583Y-36482969D01*
X118568772Y-36496054D01*
X118573649Y-36509683D01*
X118577166Y-36523724D01*
X118579290Y-36538042D01*
X118580000Y-36552500D01*
X118580000Y-36897500D01*
X118579290Y-36911958D01*
X118577166Y-36926276D01*
X118573649Y-36940317D01*
X118568772Y-36953946D01*
X118562583Y-36967031D01*
X118555142Y-36979447D01*
X118546519Y-36991073D01*
X118536798Y-37001798D01*
X118526073Y-37011519D01*
X118514447Y-37020142D01*
X118502031Y-37027583D01*
X118488946Y-37033772D01*
X118475317Y-37038649D01*
X118461276Y-37042166D01*
X118446958Y-37044290D01*
X118432500Y-37045000D01*
X118137500Y-37045000D01*
X118123042Y-37044290D01*
X118108724Y-37042166D01*
X118094683Y-37038649D01*
X118081054Y-37033772D01*
X118067969Y-37027583D01*
X118055553Y-37020142D01*
X118043927Y-37011519D01*
X118033202Y-37001798D01*
X118023481Y-36991073D01*
X118014858Y-36979447D01*
X118007417Y-36967031D01*
X118001228Y-36953946D01*
X117996351Y-36940317D01*
X117992834Y-36926276D01*
X117990710Y-36911958D01*
X117990000Y-36897500D01*
X117990000Y-36552500D01*
X117990710Y-36538042D01*
X117992834Y-36523724D01*
X117996351Y-36509683D01*
X118001228Y-36496054D01*
X118007417Y-36482969D01*
X118014858Y-36470553D01*
X118023481Y-36458927D01*
X118033202Y-36448202D01*
X118043927Y-36438481D01*
X118055553Y-36429858D01*
X118067969Y-36422417D01*
X118081054Y-36416228D01*
X118094683Y-36411351D01*
X118108724Y-36407834D01*
X118123042Y-36405710D01*
X118137500Y-36405000D01*
X118432500Y-36405000D01*
X118446958Y-36405710D01*
G37*
G36*
X132701958Y-53955710D02*
G01*
X132716276Y-53957834D01*
X132730317Y-53961351D01*
X132743946Y-53966228D01*
X132757031Y-53972417D01*
X132769447Y-53979858D01*
X132781073Y-53988481D01*
X132791798Y-53998202D01*
X132801519Y-54008927D01*
X132810142Y-54020553D01*
X132817583Y-54032969D01*
X132823772Y-54046054D01*
X132828649Y-54059683D01*
X132832166Y-54073724D01*
X132834290Y-54088042D01*
X132835000Y-54102500D01*
X132835000Y-54447500D01*
X132834290Y-54461958D01*
X132832166Y-54476276D01*
X132828649Y-54490317D01*
X132823772Y-54503946D01*
X132817583Y-54517031D01*
X132810142Y-54529447D01*
X132801519Y-54541073D01*
X132791798Y-54551798D01*
X132781073Y-54561519D01*
X132769447Y-54570142D01*
X132757031Y-54577583D01*
X132743946Y-54583772D01*
X132730317Y-54588649D01*
X132716276Y-54592166D01*
X132701958Y-54594290D01*
X132687500Y-54595000D01*
X132392500Y-54595000D01*
X132378042Y-54594290D01*
X132363724Y-54592166D01*
X132349683Y-54588649D01*
X132336054Y-54583772D01*
X132322969Y-54577583D01*
X132310553Y-54570142D01*
X132298927Y-54561519D01*
X132288202Y-54551798D01*
X132278481Y-54541073D01*
X132269858Y-54529447D01*
X132262417Y-54517031D01*
X132256228Y-54503946D01*
X132251351Y-54490317D01*
X132247834Y-54476276D01*
X132245710Y-54461958D01*
X132245000Y-54447500D01*
X132245000Y-54102500D01*
X132245710Y-54088042D01*
X132247834Y-54073724D01*
X132251351Y-54059683D01*
X132256228Y-54046054D01*
X132262417Y-54032969D01*
X132269858Y-54020553D01*
X132278481Y-54008927D01*
X132288202Y-53998202D01*
X132298927Y-53988481D01*
X132310553Y-53979858D01*
X132322969Y-53972417D01*
X132336054Y-53966228D01*
X132349683Y-53961351D01*
X132363724Y-53957834D01*
X132378042Y-53955710D01*
X132392500Y-53955000D01*
X132687500Y-53955000D01*
X132701958Y-53955710D01*
G37*
G36*
X131731958Y-53955710D02*
G01*
X131746276Y-53957834D01*
X131760317Y-53961351D01*
X131773946Y-53966228D01*
X131787031Y-53972417D01*
X131799447Y-53979858D01*
X131811073Y-53988481D01*
X131821798Y-53998202D01*
X131831519Y-54008927D01*
X131840142Y-54020553D01*
X131847583Y-54032969D01*
X131853772Y-54046054D01*
X131858649Y-54059683D01*
X131862166Y-54073724D01*
X131864290Y-54088042D01*
X131865000Y-54102500D01*
X131865000Y-54447500D01*
X131864290Y-54461958D01*
X131862166Y-54476276D01*
X131858649Y-54490317D01*
X131853772Y-54503946D01*
X131847583Y-54517031D01*
X131840142Y-54529447D01*
X131831519Y-54541073D01*
X131821798Y-54551798D01*
X131811073Y-54561519D01*
X131799447Y-54570142D01*
X131787031Y-54577583D01*
X131773946Y-54583772D01*
X131760317Y-54588649D01*
X131746276Y-54592166D01*
X131731958Y-54594290D01*
X131717500Y-54595000D01*
X131422500Y-54595000D01*
X131408042Y-54594290D01*
X131393724Y-54592166D01*
X131379683Y-54588649D01*
X131366054Y-54583772D01*
X131352969Y-54577583D01*
X131340553Y-54570142D01*
X131328927Y-54561519D01*
X131318202Y-54551798D01*
X131308481Y-54541073D01*
X131299858Y-54529447D01*
X131292417Y-54517031D01*
X131286228Y-54503946D01*
X131281351Y-54490317D01*
X131277834Y-54476276D01*
X131275710Y-54461958D01*
X131275000Y-54447500D01*
X131275000Y-54102500D01*
X131275710Y-54088042D01*
X131277834Y-54073724D01*
X131281351Y-54059683D01*
X131286228Y-54046054D01*
X131292417Y-54032969D01*
X131299858Y-54020553D01*
X131308481Y-54008927D01*
X131318202Y-53998202D01*
X131328927Y-53988481D01*
X131340553Y-53979858D01*
X131352969Y-53972417D01*
X131366054Y-53966228D01*
X131379683Y-53961351D01*
X131393724Y-53957834D01*
X131408042Y-53955710D01*
X131422500Y-53955000D01*
X131717500Y-53955000D01*
X131731958Y-53955710D01*
G37*
G36*
X117541958Y-59105710D02*
G01*
X117556276Y-59107834D01*
X117570317Y-59111351D01*
X117583946Y-59116228D01*
X117597031Y-59122417D01*
X117609447Y-59129858D01*
X117621073Y-59138481D01*
X117631798Y-59148202D01*
X117641519Y-59158927D01*
X117650142Y-59170553D01*
X117657583Y-59182969D01*
X117663772Y-59196054D01*
X117668649Y-59209683D01*
X117672166Y-59223724D01*
X117674290Y-59238042D01*
X117675000Y-59252500D01*
X117675000Y-59597500D01*
X117674290Y-59611958D01*
X117672166Y-59626276D01*
X117668649Y-59640317D01*
X117663772Y-59653946D01*
X117657583Y-59667031D01*
X117650142Y-59679447D01*
X117641519Y-59691073D01*
X117631798Y-59701798D01*
X117621073Y-59711519D01*
X117609447Y-59720142D01*
X117597031Y-59727583D01*
X117583946Y-59733772D01*
X117570317Y-59738649D01*
X117556276Y-59742166D01*
X117541958Y-59744290D01*
X117527500Y-59745000D01*
X117232500Y-59745000D01*
X117218042Y-59744290D01*
X117203724Y-59742166D01*
X117189683Y-59738649D01*
X117176054Y-59733772D01*
X117162969Y-59727583D01*
X117150553Y-59720142D01*
X117138927Y-59711519D01*
X117128202Y-59701798D01*
X117118481Y-59691073D01*
X117109858Y-59679447D01*
X117102417Y-59667031D01*
X117096228Y-59653946D01*
X117091351Y-59640317D01*
X117087834Y-59626276D01*
X117085710Y-59611958D01*
X117085000Y-59597500D01*
X117085000Y-59252500D01*
X117085710Y-59238042D01*
X117087834Y-59223724D01*
X117091351Y-59209683D01*
X117096228Y-59196054D01*
X117102417Y-59182969D01*
X117109858Y-59170553D01*
X117118481Y-59158927D01*
X117128202Y-59148202D01*
X117138927Y-59138481D01*
X117150553Y-59129858D01*
X117162969Y-59122417D01*
X117176054Y-59116228D01*
X117189683Y-59111351D01*
X117203724Y-59107834D01*
X117218042Y-59105710D01*
X117232500Y-59105000D01*
X117527500Y-59105000D01*
X117541958Y-59105710D01*
G37*
G36*
X118511958Y-59105710D02*
G01*
X118526276Y-59107834D01*
X118540317Y-59111351D01*
X118553946Y-59116228D01*
X118567031Y-59122417D01*
X118579447Y-59129858D01*
X118591073Y-59138481D01*
X118601798Y-59148202D01*
X118611519Y-59158927D01*
X118620142Y-59170553D01*
X118627583Y-59182969D01*
X118633772Y-59196054D01*
X118638649Y-59209683D01*
X118642166Y-59223724D01*
X118644290Y-59238042D01*
X118645000Y-59252500D01*
X118645000Y-59597500D01*
X118644290Y-59611958D01*
X118642166Y-59626276D01*
X118638649Y-59640317D01*
X118633772Y-59653946D01*
X118627583Y-59667031D01*
X118620142Y-59679447D01*
X118611519Y-59691073D01*
X118601798Y-59701798D01*
X118591073Y-59711519D01*
X118579447Y-59720142D01*
X118567031Y-59727583D01*
X118553946Y-59733772D01*
X118540317Y-59738649D01*
X118526276Y-59742166D01*
X118511958Y-59744290D01*
X118497500Y-59745000D01*
X118202500Y-59745000D01*
X118188042Y-59744290D01*
X118173724Y-59742166D01*
X118159683Y-59738649D01*
X118146054Y-59733772D01*
X118132969Y-59727583D01*
X118120553Y-59720142D01*
X118108927Y-59711519D01*
X118098202Y-59701798D01*
X118088481Y-59691073D01*
X118079858Y-59679447D01*
X118072417Y-59667031D01*
X118066228Y-59653946D01*
X118061351Y-59640317D01*
X118057834Y-59626276D01*
X118055710Y-59611958D01*
X118055000Y-59597500D01*
X118055000Y-59252500D01*
X118055710Y-59238042D01*
X118057834Y-59223724D01*
X118061351Y-59209683D01*
X118066228Y-59196054D01*
X118072417Y-59182969D01*
X118079858Y-59170553D01*
X118088481Y-59158927D01*
X118098202Y-59148202D01*
X118108927Y-59138481D01*
X118120553Y-59129858D01*
X118132969Y-59122417D01*
X118146054Y-59116228D01*
X118159683Y-59111351D01*
X118173724Y-59107834D01*
X118188042Y-59105710D01*
X118202500Y-59105000D01*
X118497500Y-59105000D01*
X118511958Y-59105710D01*
G37*
G36*
X130711958Y-57660710D02*
G01*
X130726276Y-57662834D01*
X130740317Y-57666351D01*
X130753946Y-57671228D01*
X130767031Y-57677417D01*
X130779447Y-57684858D01*
X130791073Y-57693481D01*
X130801798Y-57703202D01*
X130811519Y-57713927D01*
X130820142Y-57725553D01*
X130827583Y-57737969D01*
X130833772Y-57751054D01*
X130838649Y-57764683D01*
X130842166Y-57778724D01*
X130844290Y-57793042D01*
X130845000Y-57807500D01*
X130845000Y-58152500D01*
X130844290Y-58166958D01*
X130842166Y-58181276D01*
X130838649Y-58195317D01*
X130833772Y-58208946D01*
X130827583Y-58222031D01*
X130820142Y-58234447D01*
X130811519Y-58246073D01*
X130801798Y-58256798D01*
X130791073Y-58266519D01*
X130779447Y-58275142D01*
X130767031Y-58282583D01*
X130753946Y-58288772D01*
X130740317Y-58293649D01*
X130726276Y-58297166D01*
X130711958Y-58299290D01*
X130697500Y-58300000D01*
X130402500Y-58300000D01*
X130388042Y-58299290D01*
X130373724Y-58297166D01*
X130359683Y-58293649D01*
X130346054Y-58288772D01*
X130332969Y-58282583D01*
X130320553Y-58275142D01*
X130308927Y-58266519D01*
X130298202Y-58256798D01*
X130288481Y-58246073D01*
X130279858Y-58234447D01*
X130272417Y-58222031D01*
X130266228Y-58208946D01*
X130261351Y-58195317D01*
X130257834Y-58181276D01*
X130255710Y-58166958D01*
X130255000Y-58152500D01*
X130255000Y-57807500D01*
X130255710Y-57793042D01*
X130257834Y-57778724D01*
X130261351Y-57764683D01*
X130266228Y-57751054D01*
X130272417Y-57737969D01*
X130279858Y-57725553D01*
X130288481Y-57713927D01*
X130298202Y-57703202D01*
X130308927Y-57693481D01*
X130320553Y-57684858D01*
X130332969Y-57677417D01*
X130346054Y-57671228D01*
X130359683Y-57666351D01*
X130373724Y-57662834D01*
X130388042Y-57660710D01*
X130402500Y-57660000D01*
X130697500Y-57660000D01*
X130711958Y-57660710D01*
G37*
G36*
X129741958Y-57660710D02*
G01*
X129756276Y-57662834D01*
X129770317Y-57666351D01*
X129783946Y-57671228D01*
X129797031Y-57677417D01*
X129809447Y-57684858D01*
X129821073Y-57693481D01*
X129831798Y-57703202D01*
X129841519Y-57713927D01*
X129850142Y-57725553D01*
X129857583Y-57737969D01*
X129863772Y-57751054D01*
X129868649Y-57764683D01*
X129872166Y-57778724D01*
X129874290Y-57793042D01*
X129875000Y-57807500D01*
X129875000Y-58152500D01*
X129874290Y-58166958D01*
X129872166Y-58181276D01*
X129868649Y-58195317D01*
X129863772Y-58208946D01*
X129857583Y-58222031D01*
X129850142Y-58234447D01*
X129841519Y-58246073D01*
X129831798Y-58256798D01*
X129821073Y-58266519D01*
X129809447Y-58275142D01*
X129797031Y-58282583D01*
X129783946Y-58288772D01*
X129770317Y-58293649D01*
X129756276Y-58297166D01*
X129741958Y-58299290D01*
X129727500Y-58300000D01*
X129432500Y-58300000D01*
X129418042Y-58299290D01*
X129403724Y-58297166D01*
X129389683Y-58293649D01*
X129376054Y-58288772D01*
X129362969Y-58282583D01*
X129350553Y-58275142D01*
X129338927Y-58266519D01*
X129328202Y-58256798D01*
X129318481Y-58246073D01*
X129309858Y-58234447D01*
X129302417Y-58222031D01*
X129296228Y-58208946D01*
X129291351Y-58195317D01*
X129287834Y-58181276D01*
X129285710Y-58166958D01*
X129285000Y-58152500D01*
X129285000Y-57807500D01*
X129285710Y-57793042D01*
X129287834Y-57778724D01*
X129291351Y-57764683D01*
X129296228Y-57751054D01*
X129302417Y-57737969D01*
X129309858Y-57725553D01*
X129318481Y-57713927D01*
X129328202Y-57703202D01*
X129338927Y-57693481D01*
X129350553Y-57684858D01*
X129362969Y-57677417D01*
X129376054Y-57671228D01*
X129389683Y-57666351D01*
X129403724Y-57662834D01*
X129418042Y-57660710D01*
X129432500Y-57660000D01*
X129727500Y-57660000D01*
X129741958Y-57660710D01*
G37*
G36*
X122331958Y-55555710D02*
G01*
X122346276Y-55557834D01*
X122360317Y-55561351D01*
X122373946Y-55566228D01*
X122387031Y-55572417D01*
X122399447Y-55579858D01*
X122411073Y-55588481D01*
X122421798Y-55598202D01*
X122431519Y-55608927D01*
X122440142Y-55620553D01*
X122447583Y-55632969D01*
X122453772Y-55646054D01*
X122458649Y-55659683D01*
X122462166Y-55673724D01*
X122464290Y-55688042D01*
X122465000Y-55702500D01*
X122465000Y-56047500D01*
X122464290Y-56061958D01*
X122462166Y-56076276D01*
X122458649Y-56090317D01*
X122453772Y-56103946D01*
X122447583Y-56117031D01*
X122440142Y-56129447D01*
X122431519Y-56141073D01*
X122421798Y-56151798D01*
X122411073Y-56161519D01*
X122399447Y-56170142D01*
X122387031Y-56177583D01*
X122373946Y-56183772D01*
X122360317Y-56188649D01*
X122346276Y-56192166D01*
X122331958Y-56194290D01*
X122317500Y-56195000D01*
X122022500Y-56195000D01*
X122008042Y-56194290D01*
X121993724Y-56192166D01*
X121979683Y-56188649D01*
X121966054Y-56183772D01*
X121952969Y-56177583D01*
X121940553Y-56170142D01*
X121928927Y-56161519D01*
X121918202Y-56151798D01*
X121908481Y-56141073D01*
X121899858Y-56129447D01*
X121892417Y-56117031D01*
X121886228Y-56103946D01*
X121881351Y-56090317D01*
X121877834Y-56076276D01*
X121875710Y-56061958D01*
X121875000Y-56047500D01*
X121875000Y-55702500D01*
X121875710Y-55688042D01*
X121877834Y-55673724D01*
X121881351Y-55659683D01*
X121886228Y-55646054D01*
X121892417Y-55632969D01*
X121899858Y-55620553D01*
X121908481Y-55608927D01*
X121918202Y-55598202D01*
X121928927Y-55588481D01*
X121940553Y-55579858D01*
X121952969Y-55572417D01*
X121966054Y-55566228D01*
X121979683Y-55561351D01*
X121993724Y-55557834D01*
X122008042Y-55555710D01*
X122022500Y-55555000D01*
X122317500Y-55555000D01*
X122331958Y-55555710D01*
G37*
G36*
X123301958Y-55555710D02*
G01*
X123316276Y-55557834D01*
X123330317Y-55561351D01*
X123343946Y-55566228D01*
X123357031Y-55572417D01*
X123369447Y-55579858D01*
X123381073Y-55588481D01*
X123391798Y-55598202D01*
X123401519Y-55608927D01*
X123410142Y-55620553D01*
X123417583Y-55632969D01*
X123423772Y-55646054D01*
X123428649Y-55659683D01*
X123432166Y-55673724D01*
X123434290Y-55688042D01*
X123435000Y-55702500D01*
X123435000Y-56047500D01*
X123434290Y-56061958D01*
X123432166Y-56076276D01*
X123428649Y-56090317D01*
X123423772Y-56103946D01*
X123417583Y-56117031D01*
X123410142Y-56129447D01*
X123401519Y-56141073D01*
X123391798Y-56151798D01*
X123381073Y-56161519D01*
X123369447Y-56170142D01*
X123357031Y-56177583D01*
X123343946Y-56183772D01*
X123330317Y-56188649D01*
X123316276Y-56192166D01*
X123301958Y-56194290D01*
X123287500Y-56195000D01*
X122992500Y-56195000D01*
X122978042Y-56194290D01*
X122963724Y-56192166D01*
X122949683Y-56188649D01*
X122936054Y-56183772D01*
X122922969Y-56177583D01*
X122910553Y-56170142D01*
X122898927Y-56161519D01*
X122888202Y-56151798D01*
X122878481Y-56141073D01*
X122869858Y-56129447D01*
X122862417Y-56117031D01*
X122856228Y-56103946D01*
X122851351Y-56090317D01*
X122847834Y-56076276D01*
X122845710Y-56061958D01*
X122845000Y-56047500D01*
X122845000Y-55702500D01*
X122845710Y-55688042D01*
X122847834Y-55673724D01*
X122851351Y-55659683D01*
X122856228Y-55646054D01*
X122862417Y-55632969D01*
X122869858Y-55620553D01*
X122878481Y-55608927D01*
X122888202Y-55598202D01*
X122898927Y-55588481D01*
X122910553Y-55579858D01*
X122922969Y-55572417D01*
X122936054Y-55566228D01*
X122949683Y-55561351D01*
X122963724Y-55557834D01*
X122978042Y-55555710D01*
X122992500Y-55555000D01*
X123287500Y-55555000D01*
X123301958Y-55555710D01*
G37*
G36*
X122344958Y-31822710D02*
G01*
X122359276Y-31824834D01*
X122373317Y-31828351D01*
X122386946Y-31833228D01*
X122400031Y-31839417D01*
X122412447Y-31846858D01*
X122424073Y-31855481D01*
X122434798Y-31865202D01*
X122444519Y-31875927D01*
X122453142Y-31887553D01*
X122460583Y-31899969D01*
X122466772Y-31913054D01*
X122471649Y-31926683D01*
X122475166Y-31940724D01*
X122477290Y-31955042D01*
X122478000Y-31969500D01*
X122478000Y-32264500D01*
X122477290Y-32278958D01*
X122475166Y-32293276D01*
X122471649Y-32307317D01*
X122466772Y-32320946D01*
X122460583Y-32334031D01*
X122453142Y-32346447D01*
X122444519Y-32358073D01*
X122434798Y-32368798D01*
X122424073Y-32378519D01*
X122412447Y-32387142D01*
X122400031Y-32394583D01*
X122386946Y-32400772D01*
X122373317Y-32405649D01*
X122359276Y-32409166D01*
X122344958Y-32411290D01*
X122330500Y-32412000D01*
X121985500Y-32412000D01*
X121971042Y-32411290D01*
X121956724Y-32409166D01*
X121942683Y-32405649D01*
X121929054Y-32400772D01*
X121915969Y-32394583D01*
X121903553Y-32387142D01*
X121891927Y-32378519D01*
X121881202Y-32368798D01*
X121871481Y-32358073D01*
X121862858Y-32346447D01*
X121855417Y-32334031D01*
X121849228Y-32320946D01*
X121844351Y-32307317D01*
X121840834Y-32293276D01*
X121838710Y-32278958D01*
X121838000Y-32264500D01*
X121838000Y-31969500D01*
X121838710Y-31955042D01*
X121840834Y-31940724D01*
X121844351Y-31926683D01*
X121849228Y-31913054D01*
X121855417Y-31899969D01*
X121862858Y-31887553D01*
X121871481Y-31875927D01*
X121881202Y-31865202D01*
X121891927Y-31855481D01*
X121903553Y-31846858D01*
X121915969Y-31839417D01*
X121929054Y-31833228D01*
X121942683Y-31828351D01*
X121956724Y-31824834D01*
X121971042Y-31822710D01*
X121985500Y-31822000D01*
X122330500Y-31822000D01*
X122344958Y-31822710D01*
G37*
G36*
X122344958Y-32792710D02*
G01*
X122359276Y-32794834D01*
X122373317Y-32798351D01*
X122386946Y-32803228D01*
X122400031Y-32809417D01*
X122412447Y-32816858D01*
X122424073Y-32825481D01*
X122434798Y-32835202D01*
X122444519Y-32845927D01*
X122453142Y-32857553D01*
X122460583Y-32869969D01*
X122466772Y-32883054D01*
X122471649Y-32896683D01*
X122475166Y-32910724D01*
X122477290Y-32925042D01*
X122478000Y-32939500D01*
X122478000Y-33234500D01*
X122477290Y-33248958D01*
X122475166Y-33263276D01*
X122471649Y-33277317D01*
X122466772Y-33290946D01*
X122460583Y-33304031D01*
X122453142Y-33316447D01*
X122444519Y-33328073D01*
X122434798Y-33338798D01*
X122424073Y-33348519D01*
X122412447Y-33357142D01*
X122400031Y-33364583D01*
X122386946Y-33370772D01*
X122373317Y-33375649D01*
X122359276Y-33379166D01*
X122344958Y-33381290D01*
X122330500Y-33382000D01*
X121985500Y-33382000D01*
X121971042Y-33381290D01*
X121956724Y-33379166D01*
X121942683Y-33375649D01*
X121929054Y-33370772D01*
X121915969Y-33364583D01*
X121903553Y-33357142D01*
X121891927Y-33348519D01*
X121881202Y-33338798D01*
X121871481Y-33328073D01*
X121862858Y-33316447D01*
X121855417Y-33304031D01*
X121849228Y-33290946D01*
X121844351Y-33277317D01*
X121840834Y-33263276D01*
X121838710Y-33248958D01*
X121838000Y-33234500D01*
X121838000Y-32939500D01*
X121838710Y-32925042D01*
X121840834Y-32910724D01*
X121844351Y-32896683D01*
X121849228Y-32883054D01*
X121855417Y-32869969D01*
X121862858Y-32857553D01*
X121871481Y-32845927D01*
X121881202Y-32835202D01*
X121891927Y-32825481D01*
X121903553Y-32816858D01*
X121915969Y-32809417D01*
X121929054Y-32803228D01*
X121942683Y-32798351D01*
X121956724Y-32794834D01*
X121971042Y-32792710D01*
X121985500Y-32792000D01*
X122330500Y-32792000D01*
X122344958Y-32792710D01*
G37*
G36*
X129081958Y-55005710D02*
G01*
X129096276Y-55007834D01*
X129110317Y-55011351D01*
X129123946Y-55016228D01*
X129137031Y-55022417D01*
X129149447Y-55029858D01*
X129161073Y-55038481D01*
X129171798Y-55048202D01*
X129181519Y-55058927D01*
X129190142Y-55070553D01*
X129197583Y-55082969D01*
X129203772Y-55096054D01*
X129208649Y-55109683D01*
X129212166Y-55123724D01*
X129214290Y-55138042D01*
X129215000Y-55152500D01*
X129215000Y-55497500D01*
X129214290Y-55511958D01*
X129212166Y-55526276D01*
X129208649Y-55540317D01*
X129203772Y-55553946D01*
X129197583Y-55567031D01*
X129190142Y-55579447D01*
X129181519Y-55591073D01*
X129171798Y-55601798D01*
X129161073Y-55611519D01*
X129149447Y-55620142D01*
X129137031Y-55627583D01*
X129123946Y-55633772D01*
X129110317Y-55638649D01*
X129096276Y-55642166D01*
X129081958Y-55644290D01*
X129067500Y-55645000D01*
X128772500Y-55645000D01*
X128758042Y-55644290D01*
X128743724Y-55642166D01*
X128729683Y-55638649D01*
X128716054Y-55633772D01*
X128702969Y-55627583D01*
X128690553Y-55620142D01*
X128678927Y-55611519D01*
X128668202Y-55601798D01*
X128658481Y-55591073D01*
X128649858Y-55579447D01*
X128642417Y-55567031D01*
X128636228Y-55553946D01*
X128631351Y-55540317D01*
X128627834Y-55526276D01*
X128625710Y-55511958D01*
X128625000Y-55497500D01*
X128625000Y-55152500D01*
X128625710Y-55138042D01*
X128627834Y-55123724D01*
X128631351Y-55109683D01*
X128636228Y-55096054D01*
X128642417Y-55082969D01*
X128649858Y-55070553D01*
X128658481Y-55058927D01*
X128668202Y-55048202D01*
X128678927Y-55038481D01*
X128690553Y-55029858D01*
X128702969Y-55022417D01*
X128716054Y-55016228D01*
X128729683Y-55011351D01*
X128743724Y-55007834D01*
X128758042Y-55005710D01*
X128772500Y-55005000D01*
X129067500Y-55005000D01*
X129081958Y-55005710D01*
G37*
G36*
X130051958Y-55005710D02*
G01*
X130066276Y-55007834D01*
X130080317Y-55011351D01*
X130093946Y-55016228D01*
X130107031Y-55022417D01*
X130119447Y-55029858D01*
X130131073Y-55038481D01*
X130141798Y-55048202D01*
X130151519Y-55058927D01*
X130160142Y-55070553D01*
X130167583Y-55082969D01*
X130173772Y-55096054D01*
X130178649Y-55109683D01*
X130182166Y-55123724D01*
X130184290Y-55138042D01*
X130185000Y-55152500D01*
X130185000Y-55497500D01*
X130184290Y-55511958D01*
X130182166Y-55526276D01*
X130178649Y-55540317D01*
X130173772Y-55553946D01*
X130167583Y-55567031D01*
X130160142Y-55579447D01*
X130151519Y-55591073D01*
X130141798Y-55601798D01*
X130131073Y-55611519D01*
X130119447Y-55620142D01*
X130107031Y-55627583D01*
X130093946Y-55633772D01*
X130080317Y-55638649D01*
X130066276Y-55642166D01*
X130051958Y-55644290D01*
X130037500Y-55645000D01*
X129742500Y-55645000D01*
X129728042Y-55644290D01*
X129713724Y-55642166D01*
X129699683Y-55638649D01*
X129686054Y-55633772D01*
X129672969Y-55627583D01*
X129660553Y-55620142D01*
X129648927Y-55611519D01*
X129638202Y-55601798D01*
X129628481Y-55591073D01*
X129619858Y-55579447D01*
X129612417Y-55567031D01*
X129606228Y-55553946D01*
X129601351Y-55540317D01*
X129597834Y-55526276D01*
X129595710Y-55511958D01*
X129595000Y-55497500D01*
X129595000Y-55152500D01*
X129595710Y-55138042D01*
X129597834Y-55123724D01*
X129601351Y-55109683D01*
X129606228Y-55096054D01*
X129612417Y-55082969D01*
X129619858Y-55070553D01*
X129628481Y-55058927D01*
X129638202Y-55048202D01*
X129648927Y-55038481D01*
X129660553Y-55029858D01*
X129672969Y-55022417D01*
X129686054Y-55016228D01*
X129699683Y-55011351D01*
X129713724Y-55007834D01*
X129728042Y-55005710D01*
X129742500Y-55005000D01*
X130037500Y-55005000D01*
X130051958Y-55005710D01*
G37*
G36*
X132701958Y-52880710D02*
G01*
X132716276Y-52882834D01*
X132730317Y-52886351D01*
X132743946Y-52891228D01*
X132757031Y-52897417D01*
X132769447Y-52904858D01*
X132781073Y-52913481D01*
X132791798Y-52923202D01*
X132801519Y-52933927D01*
X132810142Y-52945553D01*
X132817583Y-52957969D01*
X132823772Y-52971054D01*
X132828649Y-52984683D01*
X132832166Y-52998724D01*
X132834290Y-53013042D01*
X132835000Y-53027500D01*
X132835000Y-53372500D01*
X132834290Y-53386958D01*
X132832166Y-53401276D01*
X132828649Y-53415317D01*
X132823772Y-53428946D01*
X132817583Y-53442031D01*
X132810142Y-53454447D01*
X132801519Y-53466073D01*
X132791798Y-53476798D01*
X132781073Y-53486519D01*
X132769447Y-53495142D01*
X132757031Y-53502583D01*
X132743946Y-53508772D01*
X132730317Y-53513649D01*
X132716276Y-53517166D01*
X132701958Y-53519290D01*
X132687500Y-53520000D01*
X132392500Y-53520000D01*
X132378042Y-53519290D01*
X132363724Y-53517166D01*
X132349683Y-53513649D01*
X132336054Y-53508772D01*
X132322969Y-53502583D01*
X132310553Y-53495142D01*
X132298927Y-53486519D01*
X132288202Y-53476798D01*
X132278481Y-53466073D01*
X132269858Y-53454447D01*
X132262417Y-53442031D01*
X132256228Y-53428946D01*
X132251351Y-53415317D01*
X132247834Y-53401276D01*
X132245710Y-53386958D01*
X132245000Y-53372500D01*
X132245000Y-53027500D01*
X132245710Y-53013042D01*
X132247834Y-52998724D01*
X132251351Y-52984683D01*
X132256228Y-52971054D01*
X132262417Y-52957969D01*
X132269858Y-52945553D01*
X132278481Y-52933927D01*
X132288202Y-52923202D01*
X132298927Y-52913481D01*
X132310553Y-52904858D01*
X132322969Y-52897417D01*
X132336054Y-52891228D01*
X132349683Y-52886351D01*
X132363724Y-52882834D01*
X132378042Y-52880710D01*
X132392500Y-52880000D01*
X132687500Y-52880000D01*
X132701958Y-52880710D01*
G37*
G36*
X131731958Y-52880710D02*
G01*
X131746276Y-52882834D01*
X131760317Y-52886351D01*
X131773946Y-52891228D01*
X131787031Y-52897417D01*
X131799447Y-52904858D01*
X131811073Y-52913481D01*
X131821798Y-52923202D01*
X131831519Y-52933927D01*
X131840142Y-52945553D01*
X131847583Y-52957969D01*
X131853772Y-52971054D01*
X131858649Y-52984683D01*
X131862166Y-52998724D01*
X131864290Y-53013042D01*
X131865000Y-53027500D01*
X131865000Y-53372500D01*
X131864290Y-53386958D01*
X131862166Y-53401276D01*
X131858649Y-53415317D01*
X131853772Y-53428946D01*
X131847583Y-53442031D01*
X131840142Y-53454447D01*
X131831519Y-53466073D01*
X131821798Y-53476798D01*
X131811073Y-53486519D01*
X131799447Y-53495142D01*
X131787031Y-53502583D01*
X131773946Y-53508772D01*
X131760317Y-53513649D01*
X131746276Y-53517166D01*
X131731958Y-53519290D01*
X131717500Y-53520000D01*
X131422500Y-53520000D01*
X131408042Y-53519290D01*
X131393724Y-53517166D01*
X131379683Y-53513649D01*
X131366054Y-53508772D01*
X131352969Y-53502583D01*
X131340553Y-53495142D01*
X131328927Y-53486519D01*
X131318202Y-53476798D01*
X131308481Y-53466073D01*
X131299858Y-53454447D01*
X131292417Y-53442031D01*
X131286228Y-53428946D01*
X131281351Y-53415317D01*
X131277834Y-53401276D01*
X131275710Y-53386958D01*
X131275000Y-53372500D01*
X131275000Y-53027500D01*
X131275710Y-53013042D01*
X131277834Y-52998724D01*
X131281351Y-52984683D01*
X131286228Y-52971054D01*
X131292417Y-52957969D01*
X131299858Y-52945553D01*
X131308481Y-52933927D01*
X131318202Y-52923202D01*
X131328927Y-52913481D01*
X131340553Y-52904858D01*
X131352969Y-52897417D01*
X131366054Y-52891228D01*
X131379683Y-52886351D01*
X131393724Y-52882834D01*
X131408042Y-52880710D01*
X131422500Y-52880000D01*
X131717500Y-52880000D01*
X131731958Y-52880710D01*
G37*
G36*
X132701958Y-46130710D02*
G01*
X132716276Y-46132834D01*
X132730317Y-46136351D01*
X132743946Y-46141228D01*
X132757031Y-46147417D01*
X132769447Y-46154858D01*
X132781073Y-46163481D01*
X132791798Y-46173202D01*
X132801519Y-46183927D01*
X132810142Y-46195553D01*
X132817583Y-46207969D01*
X132823772Y-46221054D01*
X132828649Y-46234683D01*
X132832166Y-46248724D01*
X132834290Y-46263042D01*
X132835000Y-46277500D01*
X132835000Y-46622500D01*
X132834290Y-46636958D01*
X132832166Y-46651276D01*
X132828649Y-46665317D01*
X132823772Y-46678946D01*
X132817583Y-46692031D01*
X132810142Y-46704447D01*
X132801519Y-46716073D01*
X132791798Y-46726798D01*
X132781073Y-46736519D01*
X132769447Y-46745142D01*
X132757031Y-46752583D01*
X132743946Y-46758772D01*
X132730317Y-46763649D01*
X132716276Y-46767166D01*
X132701958Y-46769290D01*
X132687500Y-46770000D01*
X132392500Y-46770000D01*
X132378042Y-46769290D01*
X132363724Y-46767166D01*
X132349683Y-46763649D01*
X132336054Y-46758772D01*
X132322969Y-46752583D01*
X132310553Y-46745142D01*
X132298927Y-46736519D01*
X132288202Y-46726798D01*
X132278481Y-46716073D01*
X132269858Y-46704447D01*
X132262417Y-46692031D01*
X132256228Y-46678946D01*
X132251351Y-46665317D01*
X132247834Y-46651276D01*
X132245710Y-46636958D01*
X132245000Y-46622500D01*
X132245000Y-46277500D01*
X132245710Y-46263042D01*
X132247834Y-46248724D01*
X132251351Y-46234683D01*
X132256228Y-46221054D01*
X132262417Y-46207969D01*
X132269858Y-46195553D01*
X132278481Y-46183927D01*
X132288202Y-46173202D01*
X132298927Y-46163481D01*
X132310553Y-46154858D01*
X132322969Y-46147417D01*
X132336054Y-46141228D01*
X132349683Y-46136351D01*
X132363724Y-46132834D01*
X132378042Y-46130710D01*
X132392500Y-46130000D01*
X132687500Y-46130000D01*
X132701958Y-46130710D01*
G37*
G36*
X131731958Y-46130710D02*
G01*
X131746276Y-46132834D01*
X131760317Y-46136351D01*
X131773946Y-46141228D01*
X131787031Y-46147417D01*
X131799447Y-46154858D01*
X131811073Y-46163481D01*
X131821798Y-46173202D01*
X131831519Y-46183927D01*
X131840142Y-46195553D01*
X131847583Y-46207969D01*
X131853772Y-46221054D01*
X131858649Y-46234683D01*
X131862166Y-46248724D01*
X131864290Y-46263042D01*
X131865000Y-46277500D01*
X131865000Y-46622500D01*
X131864290Y-46636958D01*
X131862166Y-46651276D01*
X131858649Y-46665317D01*
X131853772Y-46678946D01*
X131847583Y-46692031D01*
X131840142Y-46704447D01*
X131831519Y-46716073D01*
X131821798Y-46726798D01*
X131811073Y-46736519D01*
X131799447Y-46745142D01*
X131787031Y-46752583D01*
X131773946Y-46758772D01*
X131760317Y-46763649D01*
X131746276Y-46767166D01*
X131731958Y-46769290D01*
X131717500Y-46770000D01*
X131422500Y-46770000D01*
X131408042Y-46769290D01*
X131393724Y-46767166D01*
X131379683Y-46763649D01*
X131366054Y-46758772D01*
X131352969Y-46752583D01*
X131340553Y-46745142D01*
X131328927Y-46736519D01*
X131318202Y-46726798D01*
X131308481Y-46716073D01*
X131299858Y-46704447D01*
X131292417Y-46692031D01*
X131286228Y-46678946D01*
X131281351Y-46665317D01*
X131277834Y-46651276D01*
X131275710Y-46636958D01*
X131275000Y-46622500D01*
X131275000Y-46277500D01*
X131275710Y-46263042D01*
X131277834Y-46248724D01*
X131281351Y-46234683D01*
X131286228Y-46221054D01*
X131292417Y-46207969D01*
X131299858Y-46195553D01*
X131308481Y-46183927D01*
X131318202Y-46173202D01*
X131328927Y-46163481D01*
X131340553Y-46154858D01*
X131352969Y-46147417D01*
X131366054Y-46141228D01*
X131379683Y-46136351D01*
X131393724Y-46132834D01*
X131408042Y-46130710D01*
X131422500Y-46130000D01*
X131717500Y-46130000D01*
X131731958Y-46130710D01*
G37*
G36*
X132701958Y-49755710D02*
G01*
X132716276Y-49757834D01*
X132730317Y-49761351D01*
X132743946Y-49766228D01*
X132757031Y-49772417D01*
X132769447Y-49779858D01*
X132781073Y-49788481D01*
X132791798Y-49798202D01*
X132801519Y-49808927D01*
X132810142Y-49820553D01*
X132817583Y-49832969D01*
X132823772Y-49846054D01*
X132828649Y-49859683D01*
X132832166Y-49873724D01*
X132834290Y-49888042D01*
X132835000Y-49902500D01*
X132835000Y-50247500D01*
X132834290Y-50261958D01*
X132832166Y-50276276D01*
X132828649Y-50290317D01*
X132823772Y-50303946D01*
X132817583Y-50317031D01*
X132810142Y-50329447D01*
X132801519Y-50341073D01*
X132791798Y-50351798D01*
X132781073Y-50361519D01*
X132769447Y-50370142D01*
X132757031Y-50377583D01*
X132743946Y-50383772D01*
X132730317Y-50388649D01*
X132716276Y-50392166D01*
X132701958Y-50394290D01*
X132687500Y-50395000D01*
X132392500Y-50395000D01*
X132378042Y-50394290D01*
X132363724Y-50392166D01*
X132349683Y-50388649D01*
X132336054Y-50383772D01*
X132322969Y-50377583D01*
X132310553Y-50370142D01*
X132298927Y-50361519D01*
X132288202Y-50351798D01*
X132278481Y-50341073D01*
X132269858Y-50329447D01*
X132262417Y-50317031D01*
X132256228Y-50303946D01*
X132251351Y-50290317D01*
X132247834Y-50276276D01*
X132245710Y-50261958D01*
X132245000Y-50247500D01*
X132245000Y-49902500D01*
X132245710Y-49888042D01*
X132247834Y-49873724D01*
X132251351Y-49859683D01*
X132256228Y-49846054D01*
X132262417Y-49832969D01*
X132269858Y-49820553D01*
X132278481Y-49808927D01*
X132288202Y-49798202D01*
X132298927Y-49788481D01*
X132310553Y-49779858D01*
X132322969Y-49772417D01*
X132336054Y-49766228D01*
X132349683Y-49761351D01*
X132363724Y-49757834D01*
X132378042Y-49755710D01*
X132392500Y-49755000D01*
X132687500Y-49755000D01*
X132701958Y-49755710D01*
G37*
G36*
X131731958Y-49755710D02*
G01*
X131746276Y-49757834D01*
X131760317Y-49761351D01*
X131773946Y-49766228D01*
X131787031Y-49772417D01*
X131799447Y-49779858D01*
X131811073Y-49788481D01*
X131821798Y-49798202D01*
X131831519Y-49808927D01*
X131840142Y-49820553D01*
X131847583Y-49832969D01*
X131853772Y-49846054D01*
X131858649Y-49859683D01*
X131862166Y-49873724D01*
X131864290Y-49888042D01*
X131865000Y-49902500D01*
X131865000Y-50247500D01*
X131864290Y-50261958D01*
X131862166Y-50276276D01*
X131858649Y-50290317D01*
X131853772Y-50303946D01*
X131847583Y-50317031D01*
X131840142Y-50329447D01*
X131831519Y-50341073D01*
X131821798Y-50351798D01*
X131811073Y-50361519D01*
X131799447Y-50370142D01*
X131787031Y-50377583D01*
X131773946Y-50383772D01*
X131760317Y-50388649D01*
X131746276Y-50392166D01*
X131731958Y-50394290D01*
X131717500Y-50395000D01*
X131422500Y-50395000D01*
X131408042Y-50394290D01*
X131393724Y-50392166D01*
X131379683Y-50388649D01*
X131366054Y-50383772D01*
X131352969Y-50377583D01*
X131340553Y-50370142D01*
X131328927Y-50361519D01*
X131318202Y-50351798D01*
X131308481Y-50341073D01*
X131299858Y-50329447D01*
X131292417Y-50317031D01*
X131286228Y-50303946D01*
X131281351Y-50290317D01*
X131277834Y-50276276D01*
X131275710Y-50261958D01*
X131275000Y-50247500D01*
X131275000Y-49902500D01*
X131275710Y-49888042D01*
X131277834Y-49873724D01*
X131281351Y-49859683D01*
X131286228Y-49846054D01*
X131292417Y-49832969D01*
X131299858Y-49820553D01*
X131308481Y-49808927D01*
X131318202Y-49798202D01*
X131328927Y-49788481D01*
X131340553Y-49779858D01*
X131352969Y-49772417D01*
X131366054Y-49766228D01*
X131379683Y-49761351D01*
X131393724Y-49757834D01*
X131408042Y-49755710D01*
X131422500Y-49755000D01*
X131717500Y-49755000D01*
X131731958Y-49755710D01*
G37*
G36*
X132701958Y-50805710D02*
G01*
X132716276Y-50807834D01*
X132730317Y-50811351D01*
X132743946Y-50816228D01*
X132757031Y-50822417D01*
X132769447Y-50829858D01*
X132781073Y-50838481D01*
X132791798Y-50848202D01*
X132801519Y-50858927D01*
X132810142Y-50870553D01*
X132817583Y-50882969D01*
X132823772Y-50896054D01*
X132828649Y-50909683D01*
X132832166Y-50923724D01*
X132834290Y-50938042D01*
X132835000Y-50952500D01*
X132835000Y-51297500D01*
X132834290Y-51311958D01*
X132832166Y-51326276D01*
X132828649Y-51340317D01*
X132823772Y-51353946D01*
X132817583Y-51367031D01*
X132810142Y-51379447D01*
X132801519Y-51391073D01*
X132791798Y-51401798D01*
X132781073Y-51411519D01*
X132769447Y-51420142D01*
X132757031Y-51427583D01*
X132743946Y-51433772D01*
X132730317Y-51438649D01*
X132716276Y-51442166D01*
X132701958Y-51444290D01*
X132687500Y-51445000D01*
X132392500Y-51445000D01*
X132378042Y-51444290D01*
X132363724Y-51442166D01*
X132349683Y-51438649D01*
X132336054Y-51433772D01*
X132322969Y-51427583D01*
X132310553Y-51420142D01*
X132298927Y-51411519D01*
X132288202Y-51401798D01*
X132278481Y-51391073D01*
X132269858Y-51379447D01*
X132262417Y-51367031D01*
X132256228Y-51353946D01*
X132251351Y-51340317D01*
X132247834Y-51326276D01*
X132245710Y-51311958D01*
X132245000Y-51297500D01*
X132245000Y-50952500D01*
X132245710Y-50938042D01*
X132247834Y-50923724D01*
X132251351Y-50909683D01*
X132256228Y-50896054D01*
X132262417Y-50882969D01*
X132269858Y-50870553D01*
X132278481Y-50858927D01*
X132288202Y-50848202D01*
X132298927Y-50838481D01*
X132310553Y-50829858D01*
X132322969Y-50822417D01*
X132336054Y-50816228D01*
X132349683Y-50811351D01*
X132363724Y-50807834D01*
X132378042Y-50805710D01*
X132392500Y-50805000D01*
X132687500Y-50805000D01*
X132701958Y-50805710D01*
G37*
G36*
X131731958Y-50805710D02*
G01*
X131746276Y-50807834D01*
X131760317Y-50811351D01*
X131773946Y-50816228D01*
X131787031Y-50822417D01*
X131799447Y-50829858D01*
X131811073Y-50838481D01*
X131821798Y-50848202D01*
X131831519Y-50858927D01*
X131840142Y-50870553D01*
X131847583Y-50882969D01*
X131853772Y-50896054D01*
X131858649Y-50909683D01*
X131862166Y-50923724D01*
X131864290Y-50938042D01*
X131865000Y-50952500D01*
X131865000Y-51297500D01*
X131864290Y-51311958D01*
X131862166Y-51326276D01*
X131858649Y-51340317D01*
X131853772Y-51353946D01*
X131847583Y-51367031D01*
X131840142Y-51379447D01*
X131831519Y-51391073D01*
X131821798Y-51401798D01*
X131811073Y-51411519D01*
X131799447Y-51420142D01*
X131787031Y-51427583D01*
X131773946Y-51433772D01*
X131760317Y-51438649D01*
X131746276Y-51442166D01*
X131731958Y-51444290D01*
X131717500Y-51445000D01*
X131422500Y-51445000D01*
X131408042Y-51444290D01*
X131393724Y-51442166D01*
X131379683Y-51438649D01*
X131366054Y-51433772D01*
X131352969Y-51427583D01*
X131340553Y-51420142D01*
X131328927Y-51411519D01*
X131318202Y-51401798D01*
X131308481Y-51391073D01*
X131299858Y-51379447D01*
X131292417Y-51367031D01*
X131286228Y-51353946D01*
X131281351Y-51340317D01*
X131277834Y-51326276D01*
X131275710Y-51311958D01*
X131275000Y-51297500D01*
X131275000Y-50952500D01*
X131275710Y-50938042D01*
X131277834Y-50923724D01*
X131281351Y-50909683D01*
X131286228Y-50896054D01*
X131292417Y-50882969D01*
X131299858Y-50870553D01*
X131308481Y-50858927D01*
X131318202Y-50848202D01*
X131328927Y-50838481D01*
X131340553Y-50829858D01*
X131352969Y-50822417D01*
X131366054Y-50816228D01*
X131379683Y-50811351D01*
X131393724Y-50807834D01*
X131408042Y-50805710D01*
X131422500Y-50805000D01*
X131717500Y-50805000D01*
X131731958Y-50805710D01*
G37*
G36*
X121951958Y-54090710D02*
G01*
X121966276Y-54092834D01*
X121980317Y-54096351D01*
X121993946Y-54101228D01*
X122007031Y-54107417D01*
X122019447Y-54114858D01*
X122031073Y-54123481D01*
X122041798Y-54133202D01*
X122051519Y-54143927D01*
X122060142Y-54155553D01*
X122067583Y-54167969D01*
X122073772Y-54181054D01*
X122078649Y-54194683D01*
X122082166Y-54208724D01*
X122084290Y-54223042D01*
X122085000Y-54237500D01*
X122085000Y-54582500D01*
X122084290Y-54596958D01*
X122082166Y-54611276D01*
X122078649Y-54625317D01*
X122073772Y-54638946D01*
X122067583Y-54652031D01*
X122060142Y-54664447D01*
X122051519Y-54676073D01*
X122041798Y-54686798D01*
X122031073Y-54696519D01*
X122019447Y-54705142D01*
X122007031Y-54712583D01*
X121993946Y-54718772D01*
X121980317Y-54723649D01*
X121966276Y-54727166D01*
X121951958Y-54729290D01*
X121937500Y-54730000D01*
X121642500Y-54730000D01*
X121628042Y-54729290D01*
X121613724Y-54727166D01*
X121599683Y-54723649D01*
X121586054Y-54718772D01*
X121572969Y-54712583D01*
X121560553Y-54705142D01*
X121548927Y-54696519D01*
X121538202Y-54686798D01*
X121528481Y-54676073D01*
X121519858Y-54664447D01*
X121512417Y-54652031D01*
X121506228Y-54638946D01*
X121501351Y-54625317D01*
X121497834Y-54611276D01*
X121495710Y-54596958D01*
X121495000Y-54582500D01*
X121495000Y-54237500D01*
X121495710Y-54223042D01*
X121497834Y-54208724D01*
X121501351Y-54194683D01*
X121506228Y-54181054D01*
X121512417Y-54167969D01*
X121519858Y-54155553D01*
X121528481Y-54143927D01*
X121538202Y-54133202D01*
X121548927Y-54123481D01*
X121560553Y-54114858D01*
X121572969Y-54107417D01*
X121586054Y-54101228D01*
X121599683Y-54096351D01*
X121613724Y-54092834D01*
X121628042Y-54090710D01*
X121642500Y-54090000D01*
X121937500Y-54090000D01*
X121951958Y-54090710D01*
G37*
G36*
X122921958Y-54090710D02*
G01*
X122936276Y-54092834D01*
X122950317Y-54096351D01*
X122963946Y-54101228D01*
X122977031Y-54107417D01*
X122989447Y-54114858D01*
X123001073Y-54123481D01*
X123011798Y-54133202D01*
X123021519Y-54143927D01*
X123030142Y-54155553D01*
X123037583Y-54167969D01*
X123043772Y-54181054D01*
X123048649Y-54194683D01*
X123052166Y-54208724D01*
X123054290Y-54223042D01*
X123055000Y-54237500D01*
X123055000Y-54582500D01*
X123054290Y-54596958D01*
X123052166Y-54611276D01*
X123048649Y-54625317D01*
X123043772Y-54638946D01*
X123037583Y-54652031D01*
X123030142Y-54664447D01*
X123021519Y-54676073D01*
X123011798Y-54686798D01*
X123001073Y-54696519D01*
X122989447Y-54705142D01*
X122977031Y-54712583D01*
X122963946Y-54718772D01*
X122950317Y-54723649D01*
X122936276Y-54727166D01*
X122921958Y-54729290D01*
X122907500Y-54730000D01*
X122612500Y-54730000D01*
X122598042Y-54729290D01*
X122583724Y-54727166D01*
X122569683Y-54723649D01*
X122556054Y-54718772D01*
X122542969Y-54712583D01*
X122530553Y-54705142D01*
X122518927Y-54696519D01*
X122508202Y-54686798D01*
X122498481Y-54676073D01*
X122489858Y-54664447D01*
X122482417Y-54652031D01*
X122476228Y-54638946D01*
X122471351Y-54625317D01*
X122467834Y-54611276D01*
X122465710Y-54596958D01*
X122465000Y-54582500D01*
X122465000Y-54237500D01*
X122465710Y-54223042D01*
X122467834Y-54208724D01*
X122471351Y-54194683D01*
X122476228Y-54181054D01*
X122482417Y-54167969D01*
X122489858Y-54155553D01*
X122498481Y-54143927D01*
X122508202Y-54133202D01*
X122518927Y-54123481D01*
X122530553Y-54114858D01*
X122542969Y-54107417D01*
X122556054Y-54101228D01*
X122569683Y-54096351D01*
X122583724Y-54092834D01*
X122598042Y-54090710D01*
X122612500Y-54090000D01*
X122907500Y-54090000D01*
X122921958Y-54090710D01*
G37*
G36*
X132701958Y-51830710D02*
G01*
X132716276Y-51832834D01*
X132730317Y-51836351D01*
X132743946Y-51841228D01*
X132757031Y-51847417D01*
X132769447Y-51854858D01*
X132781073Y-51863481D01*
X132791798Y-51873202D01*
X132801519Y-51883927D01*
X132810142Y-51895553D01*
X132817583Y-51907969D01*
X132823772Y-51921054D01*
X132828649Y-51934683D01*
X132832166Y-51948724D01*
X132834290Y-51963042D01*
X132835000Y-51977500D01*
X132835000Y-52322500D01*
X132834290Y-52336958D01*
X132832166Y-52351276D01*
X132828649Y-52365317D01*
X132823772Y-52378946D01*
X132817583Y-52392031D01*
X132810142Y-52404447D01*
X132801519Y-52416073D01*
X132791798Y-52426798D01*
X132781073Y-52436519D01*
X132769447Y-52445142D01*
X132757031Y-52452583D01*
X132743946Y-52458772D01*
X132730317Y-52463649D01*
X132716276Y-52467166D01*
X132701958Y-52469290D01*
X132687500Y-52470000D01*
X132392500Y-52470000D01*
X132378042Y-52469290D01*
X132363724Y-52467166D01*
X132349683Y-52463649D01*
X132336054Y-52458772D01*
X132322969Y-52452583D01*
X132310553Y-52445142D01*
X132298927Y-52436519D01*
X132288202Y-52426798D01*
X132278481Y-52416073D01*
X132269858Y-52404447D01*
X132262417Y-52392031D01*
X132256228Y-52378946D01*
X132251351Y-52365317D01*
X132247834Y-52351276D01*
X132245710Y-52336958D01*
X132245000Y-52322500D01*
X132245000Y-51977500D01*
X132245710Y-51963042D01*
X132247834Y-51948724D01*
X132251351Y-51934683D01*
X132256228Y-51921054D01*
X132262417Y-51907969D01*
X132269858Y-51895553D01*
X132278481Y-51883927D01*
X132288202Y-51873202D01*
X132298927Y-51863481D01*
X132310553Y-51854858D01*
X132322969Y-51847417D01*
X132336054Y-51841228D01*
X132349683Y-51836351D01*
X132363724Y-51832834D01*
X132378042Y-51830710D01*
X132392500Y-51830000D01*
X132687500Y-51830000D01*
X132701958Y-51830710D01*
G37*
G36*
X131731958Y-51830710D02*
G01*
X131746276Y-51832834D01*
X131760317Y-51836351D01*
X131773946Y-51841228D01*
X131787031Y-51847417D01*
X131799447Y-51854858D01*
X131811073Y-51863481D01*
X131821798Y-51873202D01*
X131831519Y-51883927D01*
X131840142Y-51895553D01*
X131847583Y-51907969D01*
X131853772Y-51921054D01*
X131858649Y-51934683D01*
X131862166Y-51948724D01*
X131864290Y-51963042D01*
X131865000Y-51977500D01*
X131865000Y-52322500D01*
X131864290Y-52336958D01*
X131862166Y-52351276D01*
X131858649Y-52365317D01*
X131853772Y-52378946D01*
X131847583Y-52392031D01*
X131840142Y-52404447D01*
X131831519Y-52416073D01*
X131821798Y-52426798D01*
X131811073Y-52436519D01*
X131799447Y-52445142D01*
X131787031Y-52452583D01*
X131773946Y-52458772D01*
X131760317Y-52463649D01*
X131746276Y-52467166D01*
X131731958Y-52469290D01*
X131717500Y-52470000D01*
X131422500Y-52470000D01*
X131408042Y-52469290D01*
X131393724Y-52467166D01*
X131379683Y-52463649D01*
X131366054Y-52458772D01*
X131352969Y-52452583D01*
X131340553Y-52445142D01*
X131328927Y-52436519D01*
X131318202Y-52426798D01*
X131308481Y-52416073D01*
X131299858Y-52404447D01*
X131292417Y-52392031D01*
X131286228Y-52378946D01*
X131281351Y-52365317D01*
X131277834Y-52351276D01*
X131275710Y-52336958D01*
X131275000Y-52322500D01*
X131275000Y-51977500D01*
X131275710Y-51963042D01*
X131277834Y-51948724D01*
X131281351Y-51934683D01*
X131286228Y-51921054D01*
X131292417Y-51907969D01*
X131299858Y-51895553D01*
X131308481Y-51883927D01*
X131318202Y-51873202D01*
X131328927Y-51863481D01*
X131340553Y-51854858D01*
X131352969Y-51847417D01*
X131366054Y-51841228D01*
X131379683Y-51836351D01*
X131393724Y-51832834D01*
X131408042Y-51830710D01*
X131422500Y-51830000D01*
X131717500Y-51830000D01*
X131731958Y-51830710D01*
G37*
G36*
X130736958Y-60140710D02*
G01*
X130751276Y-60142834D01*
X130765317Y-60146351D01*
X130778946Y-60151228D01*
X130792031Y-60157417D01*
X130804447Y-60164858D01*
X130816073Y-60173481D01*
X130826798Y-60183202D01*
X130836519Y-60193927D01*
X130845142Y-60205553D01*
X130852583Y-60217969D01*
X130858772Y-60231054D01*
X130863649Y-60244683D01*
X130867166Y-60258724D01*
X130869290Y-60273042D01*
X130870000Y-60287500D01*
X130870000Y-60582500D01*
X130869290Y-60596958D01*
X130867166Y-60611276D01*
X130863649Y-60625317D01*
X130858772Y-60638946D01*
X130852583Y-60652031D01*
X130845142Y-60664447D01*
X130836519Y-60676073D01*
X130826798Y-60686798D01*
X130816073Y-60696519D01*
X130804447Y-60705142D01*
X130792031Y-60712583D01*
X130778946Y-60718772D01*
X130765317Y-60723649D01*
X130751276Y-60727166D01*
X130736958Y-60729290D01*
X130722500Y-60730000D01*
X130377500Y-60730000D01*
X130363042Y-60729290D01*
X130348724Y-60727166D01*
X130334683Y-60723649D01*
X130321054Y-60718772D01*
X130307969Y-60712583D01*
X130295553Y-60705142D01*
X130283927Y-60696519D01*
X130273202Y-60686798D01*
X130263481Y-60676073D01*
X130254858Y-60664447D01*
X130247417Y-60652031D01*
X130241228Y-60638946D01*
X130236351Y-60625317D01*
X130232834Y-60611276D01*
X130230710Y-60596958D01*
X130230000Y-60582500D01*
X130230000Y-60287500D01*
X130230710Y-60273042D01*
X130232834Y-60258724D01*
X130236351Y-60244683D01*
X130241228Y-60231054D01*
X130247417Y-60217969D01*
X130254858Y-60205553D01*
X130263481Y-60193927D01*
X130273202Y-60183202D01*
X130283927Y-60173481D01*
X130295553Y-60164858D01*
X130307969Y-60157417D01*
X130321054Y-60151228D01*
X130334683Y-60146351D01*
X130348724Y-60142834D01*
X130363042Y-60140710D01*
X130377500Y-60140000D01*
X130722500Y-60140000D01*
X130736958Y-60140710D01*
G37*
G36*
X130736958Y-61110710D02*
G01*
X130751276Y-61112834D01*
X130765317Y-61116351D01*
X130778946Y-61121228D01*
X130792031Y-61127417D01*
X130804447Y-61134858D01*
X130816073Y-61143481D01*
X130826798Y-61153202D01*
X130836519Y-61163927D01*
X130845142Y-61175553D01*
X130852583Y-61187969D01*
X130858772Y-61201054D01*
X130863649Y-61214683D01*
X130867166Y-61228724D01*
X130869290Y-61243042D01*
X130870000Y-61257500D01*
X130870000Y-61552500D01*
X130869290Y-61566958D01*
X130867166Y-61581276D01*
X130863649Y-61595317D01*
X130858772Y-61608946D01*
X130852583Y-61622031D01*
X130845142Y-61634447D01*
X130836519Y-61646073D01*
X130826798Y-61656798D01*
X130816073Y-61666519D01*
X130804447Y-61675142D01*
X130792031Y-61682583D01*
X130778946Y-61688772D01*
X130765317Y-61693649D01*
X130751276Y-61697166D01*
X130736958Y-61699290D01*
X130722500Y-61700000D01*
X130377500Y-61700000D01*
X130363042Y-61699290D01*
X130348724Y-61697166D01*
X130334683Y-61693649D01*
X130321054Y-61688772D01*
X130307969Y-61682583D01*
X130295553Y-61675142D01*
X130283927Y-61666519D01*
X130273202Y-61656798D01*
X130263481Y-61646073D01*
X130254858Y-61634447D01*
X130247417Y-61622031D01*
X130241228Y-61608946D01*
X130236351Y-61595317D01*
X130232834Y-61581276D01*
X130230710Y-61566958D01*
X130230000Y-61552500D01*
X130230000Y-61257500D01*
X130230710Y-61243042D01*
X130232834Y-61228724D01*
X130236351Y-61214683D01*
X130241228Y-61201054D01*
X130247417Y-61187969D01*
X130254858Y-61175553D01*
X130263481Y-61163927D01*
X130273202Y-61153202D01*
X130283927Y-61143481D01*
X130295553Y-61134858D01*
X130307969Y-61127417D01*
X130321054Y-61121228D01*
X130334683Y-61116351D01*
X130348724Y-61112834D01*
X130363042Y-61110710D01*
X130377500Y-61110000D01*
X130722500Y-61110000D01*
X130736958Y-61110710D01*
G37*
G36*
X117541958Y-60155710D02*
G01*
X117556276Y-60157834D01*
X117570317Y-60161351D01*
X117583946Y-60166228D01*
X117597031Y-60172417D01*
X117609447Y-60179858D01*
X117621073Y-60188481D01*
X117631798Y-60198202D01*
X117641519Y-60208927D01*
X117650142Y-60220553D01*
X117657583Y-60232969D01*
X117663772Y-60246054D01*
X117668649Y-60259683D01*
X117672166Y-60273724D01*
X117674290Y-60288042D01*
X117675000Y-60302500D01*
X117675000Y-60647500D01*
X117674290Y-60661958D01*
X117672166Y-60676276D01*
X117668649Y-60690317D01*
X117663772Y-60703946D01*
X117657583Y-60717031D01*
X117650142Y-60729447D01*
X117641519Y-60741073D01*
X117631798Y-60751798D01*
X117621073Y-60761519D01*
X117609447Y-60770142D01*
X117597031Y-60777583D01*
X117583946Y-60783772D01*
X117570317Y-60788649D01*
X117556276Y-60792166D01*
X117541958Y-60794290D01*
X117527500Y-60795000D01*
X117232500Y-60795000D01*
X117218042Y-60794290D01*
X117203724Y-60792166D01*
X117189683Y-60788649D01*
X117176054Y-60783772D01*
X117162969Y-60777583D01*
X117150553Y-60770142D01*
X117138927Y-60761519D01*
X117128202Y-60751798D01*
X117118481Y-60741073D01*
X117109858Y-60729447D01*
X117102417Y-60717031D01*
X117096228Y-60703946D01*
X117091351Y-60690317D01*
X117087834Y-60676276D01*
X117085710Y-60661958D01*
X117085000Y-60647500D01*
X117085000Y-60302500D01*
X117085710Y-60288042D01*
X117087834Y-60273724D01*
X117091351Y-60259683D01*
X117096228Y-60246054D01*
X117102417Y-60232969D01*
X117109858Y-60220553D01*
X117118481Y-60208927D01*
X117128202Y-60198202D01*
X117138927Y-60188481D01*
X117150553Y-60179858D01*
X117162969Y-60172417D01*
X117176054Y-60166228D01*
X117189683Y-60161351D01*
X117203724Y-60157834D01*
X117218042Y-60155710D01*
X117232500Y-60155000D01*
X117527500Y-60155000D01*
X117541958Y-60155710D01*
G37*
G36*
X118511958Y-60155710D02*
G01*
X118526276Y-60157834D01*
X118540317Y-60161351D01*
X118553946Y-60166228D01*
X118567031Y-60172417D01*
X118579447Y-60179858D01*
X118591073Y-60188481D01*
X118601798Y-60198202D01*
X118611519Y-60208927D01*
X118620142Y-60220553D01*
X118627583Y-60232969D01*
X118633772Y-60246054D01*
X118638649Y-60259683D01*
X118642166Y-60273724D01*
X118644290Y-60288042D01*
X118645000Y-60302500D01*
X118645000Y-60647500D01*
X118644290Y-60661958D01*
X118642166Y-60676276D01*
X118638649Y-60690317D01*
X118633772Y-60703946D01*
X118627583Y-60717031D01*
X118620142Y-60729447D01*
X118611519Y-60741073D01*
X118601798Y-60751798D01*
X118591073Y-60761519D01*
X118579447Y-60770142D01*
X118567031Y-60777583D01*
X118553946Y-60783772D01*
X118540317Y-60788649D01*
X118526276Y-60792166D01*
X118511958Y-60794290D01*
X118497500Y-60795000D01*
X118202500Y-60795000D01*
X118188042Y-60794290D01*
X118173724Y-60792166D01*
X118159683Y-60788649D01*
X118146054Y-60783772D01*
X118132969Y-60777583D01*
X118120553Y-60770142D01*
X118108927Y-60761519D01*
X118098202Y-60751798D01*
X118088481Y-60741073D01*
X118079858Y-60729447D01*
X118072417Y-60717031D01*
X118066228Y-60703946D01*
X118061351Y-60690317D01*
X118057834Y-60676276D01*
X118055710Y-60661958D01*
X118055000Y-60647500D01*
X118055000Y-60302500D01*
X118055710Y-60288042D01*
X118057834Y-60273724D01*
X118061351Y-60259683D01*
X118066228Y-60246054D01*
X118072417Y-60232969D01*
X118079858Y-60220553D01*
X118088481Y-60208927D01*
X118098202Y-60198202D01*
X118108927Y-60188481D01*
X118120553Y-60179858D01*
X118132969Y-60172417D01*
X118146054Y-60166228D01*
X118159683Y-60161351D01*
X118173724Y-60157834D01*
X118188042Y-60155710D01*
X118202500Y-60155000D01*
X118497500Y-60155000D01*
X118511958Y-60155710D01*
G37*
G36*
X131686958Y-58860710D02*
G01*
X131701276Y-58862834D01*
X131715317Y-58866351D01*
X131728946Y-58871228D01*
X131742031Y-58877417D01*
X131754447Y-58884858D01*
X131766073Y-58893481D01*
X131776798Y-58903202D01*
X131786519Y-58913927D01*
X131795142Y-58925553D01*
X131802583Y-58937969D01*
X131808772Y-58951054D01*
X131813649Y-58964683D01*
X131817166Y-58978724D01*
X131819290Y-58993042D01*
X131820000Y-59007500D01*
X131820000Y-59352500D01*
X131819290Y-59366958D01*
X131817166Y-59381276D01*
X131813649Y-59395317D01*
X131808772Y-59408946D01*
X131802583Y-59422031D01*
X131795142Y-59434447D01*
X131786519Y-59446073D01*
X131776798Y-59456798D01*
X131766073Y-59466519D01*
X131754447Y-59475142D01*
X131742031Y-59482583D01*
X131728946Y-59488772D01*
X131715317Y-59493649D01*
X131701276Y-59497166D01*
X131686958Y-59499290D01*
X131672500Y-59500000D01*
X131377500Y-59500000D01*
X131363042Y-59499290D01*
X131348724Y-59497166D01*
X131334683Y-59493649D01*
X131321054Y-59488772D01*
X131307969Y-59482583D01*
X131295553Y-59475142D01*
X131283927Y-59466519D01*
X131273202Y-59456798D01*
X131263481Y-59446073D01*
X131254858Y-59434447D01*
X131247417Y-59422031D01*
X131241228Y-59408946D01*
X131236351Y-59395317D01*
X131232834Y-59381276D01*
X131230710Y-59366958D01*
X131230000Y-59352500D01*
X131230000Y-59007500D01*
X131230710Y-58993042D01*
X131232834Y-58978724D01*
X131236351Y-58964683D01*
X131241228Y-58951054D01*
X131247417Y-58937969D01*
X131254858Y-58925553D01*
X131263481Y-58913927D01*
X131273202Y-58903202D01*
X131283927Y-58893481D01*
X131295553Y-58884858D01*
X131307969Y-58877417D01*
X131321054Y-58871228D01*
X131334683Y-58866351D01*
X131348724Y-58862834D01*
X131363042Y-58860710D01*
X131377500Y-58860000D01*
X131672500Y-58860000D01*
X131686958Y-58860710D01*
G37*
G36*
X130716958Y-58860710D02*
G01*
X130731276Y-58862834D01*
X130745317Y-58866351D01*
X130758946Y-58871228D01*
X130772031Y-58877417D01*
X130784447Y-58884858D01*
X130796073Y-58893481D01*
X130806798Y-58903202D01*
X130816519Y-58913927D01*
X130825142Y-58925553D01*
X130832583Y-58937969D01*
X130838772Y-58951054D01*
X130843649Y-58964683D01*
X130847166Y-58978724D01*
X130849290Y-58993042D01*
X130850000Y-59007500D01*
X130850000Y-59352500D01*
X130849290Y-59366958D01*
X130847166Y-59381276D01*
X130843649Y-59395317D01*
X130838772Y-59408946D01*
X130832583Y-59422031D01*
X130825142Y-59434447D01*
X130816519Y-59446073D01*
X130806798Y-59456798D01*
X130796073Y-59466519D01*
X130784447Y-59475142D01*
X130772031Y-59482583D01*
X130758946Y-59488772D01*
X130745317Y-59493649D01*
X130731276Y-59497166D01*
X130716958Y-59499290D01*
X130702500Y-59500000D01*
X130407500Y-59500000D01*
X130393042Y-59499290D01*
X130378724Y-59497166D01*
X130364683Y-59493649D01*
X130351054Y-59488772D01*
X130337969Y-59482583D01*
X130325553Y-59475142D01*
X130313927Y-59466519D01*
X130303202Y-59456798D01*
X130293481Y-59446073D01*
X130284858Y-59434447D01*
X130277417Y-59422031D01*
X130271228Y-59408946D01*
X130266351Y-59395317D01*
X130262834Y-59381276D01*
X130260710Y-59366958D01*
X130260000Y-59352500D01*
X130260000Y-59007500D01*
X130260710Y-58993042D01*
X130262834Y-58978724D01*
X130266351Y-58964683D01*
X130271228Y-58951054D01*
X130277417Y-58937969D01*
X130284858Y-58925553D01*
X130293481Y-58913927D01*
X130303202Y-58903202D01*
X130313927Y-58893481D01*
X130325553Y-58884858D01*
X130337969Y-58877417D01*
X130351054Y-58871228D01*
X130364683Y-58866351D01*
X130378724Y-58862834D01*
X130393042Y-58860710D01*
X130407500Y-58860000D01*
X130702500Y-58860000D01*
X130716958Y-58860710D01*
G37*
G36*
X118561958Y-56995710D02*
G01*
X118576276Y-56997834D01*
X118590317Y-57001351D01*
X118603946Y-57006228D01*
X118617031Y-57012417D01*
X118629447Y-57019858D01*
X118641073Y-57028481D01*
X118651798Y-57038202D01*
X118661519Y-57048927D01*
X118670142Y-57060553D01*
X118677583Y-57072969D01*
X118683772Y-57086054D01*
X118688649Y-57099683D01*
X118692166Y-57113724D01*
X118694290Y-57128042D01*
X118695000Y-57142500D01*
X118695000Y-57437500D01*
X118694290Y-57451958D01*
X118692166Y-57466276D01*
X118688649Y-57480317D01*
X118683772Y-57493946D01*
X118677583Y-57507031D01*
X118670142Y-57519447D01*
X118661519Y-57531073D01*
X118651798Y-57541798D01*
X118641073Y-57551519D01*
X118629447Y-57560142D01*
X118617031Y-57567583D01*
X118603946Y-57573772D01*
X118590317Y-57578649D01*
X118576276Y-57582166D01*
X118561958Y-57584290D01*
X118547500Y-57585000D01*
X118202500Y-57585000D01*
X118188042Y-57584290D01*
X118173724Y-57582166D01*
X118159683Y-57578649D01*
X118146054Y-57573772D01*
X118132969Y-57567583D01*
X118120553Y-57560142D01*
X118108927Y-57551519D01*
X118098202Y-57541798D01*
X118088481Y-57531073D01*
X118079858Y-57519447D01*
X118072417Y-57507031D01*
X118066228Y-57493946D01*
X118061351Y-57480317D01*
X118057834Y-57466276D01*
X118055710Y-57451958D01*
X118055000Y-57437500D01*
X118055000Y-57142500D01*
X118055710Y-57128042D01*
X118057834Y-57113724D01*
X118061351Y-57099683D01*
X118066228Y-57086054D01*
X118072417Y-57072969D01*
X118079858Y-57060553D01*
X118088481Y-57048927D01*
X118098202Y-57038202D01*
X118108927Y-57028481D01*
X118120553Y-57019858D01*
X118132969Y-57012417D01*
X118146054Y-57006228D01*
X118159683Y-57001351D01*
X118173724Y-56997834D01*
X118188042Y-56995710D01*
X118202500Y-56995000D01*
X118547500Y-56995000D01*
X118561958Y-56995710D01*
G37*
G36*
X118561958Y-57965710D02*
G01*
X118576276Y-57967834D01*
X118590317Y-57971351D01*
X118603946Y-57976228D01*
X118617031Y-57982417D01*
X118629447Y-57989858D01*
X118641073Y-57998481D01*
X118651798Y-58008202D01*
X118661519Y-58018927D01*
X118670142Y-58030553D01*
X118677583Y-58042969D01*
X118683772Y-58056054D01*
X118688649Y-58069683D01*
X118692166Y-58083724D01*
X118694290Y-58098042D01*
X118695000Y-58112500D01*
X118695000Y-58407500D01*
X118694290Y-58421958D01*
X118692166Y-58436276D01*
X118688649Y-58450317D01*
X118683772Y-58463946D01*
X118677583Y-58477031D01*
X118670142Y-58489447D01*
X118661519Y-58501073D01*
X118651798Y-58511798D01*
X118641073Y-58521519D01*
X118629447Y-58530142D01*
X118617031Y-58537583D01*
X118603946Y-58543772D01*
X118590317Y-58548649D01*
X118576276Y-58552166D01*
X118561958Y-58554290D01*
X118547500Y-58555000D01*
X118202500Y-58555000D01*
X118188042Y-58554290D01*
X118173724Y-58552166D01*
X118159683Y-58548649D01*
X118146054Y-58543772D01*
X118132969Y-58537583D01*
X118120553Y-58530142D01*
X118108927Y-58521519D01*
X118098202Y-58511798D01*
X118088481Y-58501073D01*
X118079858Y-58489447D01*
X118072417Y-58477031D01*
X118066228Y-58463946D01*
X118061351Y-58450317D01*
X118057834Y-58436276D01*
X118055710Y-58421958D01*
X118055000Y-58407500D01*
X118055000Y-58112500D01*
X118055710Y-58098042D01*
X118057834Y-58083724D01*
X118061351Y-58069683D01*
X118066228Y-58056054D01*
X118072417Y-58042969D01*
X118079858Y-58030553D01*
X118088481Y-58018927D01*
X118098202Y-58008202D01*
X118108927Y-57998481D01*
X118120553Y-57989858D01*
X118132969Y-57982417D01*
X118146054Y-57976228D01*
X118159683Y-57971351D01*
X118173724Y-57967834D01*
X118188042Y-57965710D01*
X118202500Y-57965000D01*
X118547500Y-57965000D01*
X118561958Y-57965710D01*
G37*
G36*
X125796958Y-57660710D02*
G01*
X125811276Y-57662834D01*
X125825317Y-57666351D01*
X125838946Y-57671228D01*
X125852031Y-57677417D01*
X125864447Y-57684858D01*
X125876073Y-57693481D01*
X125886798Y-57703202D01*
X125896519Y-57713927D01*
X125905142Y-57725553D01*
X125912583Y-57737969D01*
X125918772Y-57751054D01*
X125923649Y-57764683D01*
X125927166Y-57778724D01*
X125929290Y-57793042D01*
X125930000Y-57807500D01*
X125930000Y-58152500D01*
X125929290Y-58166958D01*
X125927166Y-58181276D01*
X125923649Y-58195317D01*
X125918772Y-58208946D01*
X125912583Y-58222031D01*
X125905142Y-58234447D01*
X125896519Y-58246073D01*
X125886798Y-58256798D01*
X125876073Y-58266519D01*
X125864447Y-58275142D01*
X125852031Y-58282583D01*
X125838946Y-58288772D01*
X125825317Y-58293649D01*
X125811276Y-58297166D01*
X125796958Y-58299290D01*
X125782500Y-58300000D01*
X125487500Y-58300000D01*
X125473042Y-58299290D01*
X125458724Y-58297166D01*
X125444683Y-58293649D01*
X125431054Y-58288772D01*
X125417969Y-58282583D01*
X125405553Y-58275142D01*
X125393927Y-58266519D01*
X125383202Y-58256798D01*
X125373481Y-58246073D01*
X125364858Y-58234447D01*
X125357417Y-58222031D01*
X125351228Y-58208946D01*
X125346351Y-58195317D01*
X125342834Y-58181276D01*
X125340710Y-58166958D01*
X125340000Y-58152500D01*
X125340000Y-57807500D01*
X125340710Y-57793042D01*
X125342834Y-57778724D01*
X125346351Y-57764683D01*
X125351228Y-57751054D01*
X125357417Y-57737969D01*
X125364858Y-57725553D01*
X125373481Y-57713927D01*
X125383202Y-57703202D01*
X125393927Y-57693481D01*
X125405553Y-57684858D01*
X125417969Y-57677417D01*
X125431054Y-57671228D01*
X125444683Y-57666351D01*
X125458724Y-57662834D01*
X125473042Y-57660710D01*
X125487500Y-57660000D01*
X125782500Y-57660000D01*
X125796958Y-57660710D01*
G37*
G36*
X124826958Y-57660710D02*
G01*
X124841276Y-57662834D01*
X124855317Y-57666351D01*
X124868946Y-57671228D01*
X124882031Y-57677417D01*
X124894447Y-57684858D01*
X124906073Y-57693481D01*
X124916798Y-57703202D01*
X124926519Y-57713927D01*
X124935142Y-57725553D01*
X124942583Y-57737969D01*
X124948772Y-57751054D01*
X124953649Y-57764683D01*
X124957166Y-57778724D01*
X124959290Y-57793042D01*
X124960000Y-57807500D01*
X124960000Y-58152500D01*
X124959290Y-58166958D01*
X124957166Y-58181276D01*
X124953649Y-58195317D01*
X124948772Y-58208946D01*
X124942583Y-58222031D01*
X124935142Y-58234447D01*
X124926519Y-58246073D01*
X124916798Y-58256798D01*
X124906073Y-58266519D01*
X124894447Y-58275142D01*
X124882031Y-58282583D01*
X124868946Y-58288772D01*
X124855317Y-58293649D01*
X124841276Y-58297166D01*
X124826958Y-58299290D01*
X124812500Y-58300000D01*
X124517500Y-58300000D01*
X124503042Y-58299290D01*
X124488724Y-58297166D01*
X124474683Y-58293649D01*
X124461054Y-58288772D01*
X124447969Y-58282583D01*
X124435553Y-58275142D01*
X124423927Y-58266519D01*
X124413202Y-58256798D01*
X124403481Y-58246073D01*
X124394858Y-58234447D01*
X124387417Y-58222031D01*
X124381228Y-58208946D01*
X124376351Y-58195317D01*
X124372834Y-58181276D01*
X124370710Y-58166958D01*
X124370000Y-58152500D01*
X124370000Y-57807500D01*
X124370710Y-57793042D01*
X124372834Y-57778724D01*
X124376351Y-57764683D01*
X124381228Y-57751054D01*
X124387417Y-57737969D01*
X124394858Y-57725553D01*
X124403481Y-57713927D01*
X124413202Y-57703202D01*
X124423927Y-57693481D01*
X124435553Y-57684858D01*
X124447969Y-57677417D01*
X124461054Y-57671228D01*
X124474683Y-57666351D01*
X124488724Y-57662834D01*
X124503042Y-57660710D01*
X124517500Y-57660000D01*
X124812500Y-57660000D01*
X124826958Y-57660710D01*
G37*
G36*
X127066958Y-57660710D02*
G01*
X127081276Y-57662834D01*
X127095317Y-57666351D01*
X127108946Y-57671228D01*
X127122031Y-57677417D01*
X127134447Y-57684858D01*
X127146073Y-57693481D01*
X127156798Y-57703202D01*
X127166519Y-57713927D01*
X127175142Y-57725553D01*
X127182583Y-57737969D01*
X127188772Y-57751054D01*
X127193649Y-57764683D01*
X127197166Y-57778724D01*
X127199290Y-57793042D01*
X127200000Y-57807500D01*
X127200000Y-58152500D01*
X127199290Y-58166958D01*
X127197166Y-58181276D01*
X127193649Y-58195317D01*
X127188772Y-58208946D01*
X127182583Y-58222031D01*
X127175142Y-58234447D01*
X127166519Y-58246073D01*
X127156798Y-58256798D01*
X127146073Y-58266519D01*
X127134447Y-58275142D01*
X127122031Y-58282583D01*
X127108946Y-58288772D01*
X127095317Y-58293649D01*
X127081276Y-58297166D01*
X127066958Y-58299290D01*
X127052500Y-58300000D01*
X126757500Y-58300000D01*
X126743042Y-58299290D01*
X126728724Y-58297166D01*
X126714683Y-58293649D01*
X126701054Y-58288772D01*
X126687969Y-58282583D01*
X126675553Y-58275142D01*
X126663927Y-58266519D01*
X126653202Y-58256798D01*
X126643481Y-58246073D01*
X126634858Y-58234447D01*
X126627417Y-58222031D01*
X126621228Y-58208946D01*
X126616351Y-58195317D01*
X126612834Y-58181276D01*
X126610710Y-58166958D01*
X126610000Y-58152500D01*
X126610000Y-57807500D01*
X126610710Y-57793042D01*
X126612834Y-57778724D01*
X126616351Y-57764683D01*
X126621228Y-57751054D01*
X126627417Y-57737969D01*
X126634858Y-57725553D01*
X126643481Y-57713927D01*
X126653202Y-57703202D01*
X126663927Y-57693481D01*
X126675553Y-57684858D01*
X126687969Y-57677417D01*
X126701054Y-57671228D01*
X126714683Y-57666351D01*
X126728724Y-57662834D01*
X126743042Y-57660710D01*
X126757500Y-57660000D01*
X127052500Y-57660000D01*
X127066958Y-57660710D01*
G37*
G36*
X128036958Y-57660710D02*
G01*
X128051276Y-57662834D01*
X128065317Y-57666351D01*
X128078946Y-57671228D01*
X128092031Y-57677417D01*
X128104447Y-57684858D01*
X128116073Y-57693481D01*
X128126798Y-57703202D01*
X128136519Y-57713927D01*
X128145142Y-57725553D01*
X128152583Y-57737969D01*
X128158772Y-57751054D01*
X128163649Y-57764683D01*
X128167166Y-57778724D01*
X128169290Y-57793042D01*
X128170000Y-57807500D01*
X128170000Y-58152500D01*
X128169290Y-58166958D01*
X128167166Y-58181276D01*
X128163649Y-58195317D01*
X128158772Y-58208946D01*
X128152583Y-58222031D01*
X128145142Y-58234447D01*
X128136519Y-58246073D01*
X128126798Y-58256798D01*
X128116073Y-58266519D01*
X128104447Y-58275142D01*
X128092031Y-58282583D01*
X128078946Y-58288772D01*
X128065317Y-58293649D01*
X128051276Y-58297166D01*
X128036958Y-58299290D01*
X128022500Y-58300000D01*
X127727500Y-58300000D01*
X127713042Y-58299290D01*
X127698724Y-58297166D01*
X127684683Y-58293649D01*
X127671054Y-58288772D01*
X127657969Y-58282583D01*
X127645553Y-58275142D01*
X127633927Y-58266519D01*
X127623202Y-58256798D01*
X127613481Y-58246073D01*
X127604858Y-58234447D01*
X127597417Y-58222031D01*
X127591228Y-58208946D01*
X127586351Y-58195317D01*
X127582834Y-58181276D01*
X127580710Y-58166958D01*
X127580000Y-58152500D01*
X127580000Y-57807500D01*
X127580710Y-57793042D01*
X127582834Y-57778724D01*
X127586351Y-57764683D01*
X127591228Y-57751054D01*
X127597417Y-57737969D01*
X127604858Y-57725553D01*
X127613481Y-57713927D01*
X127623202Y-57703202D01*
X127633927Y-57693481D01*
X127645553Y-57684858D01*
X127657969Y-57677417D01*
X127671054Y-57671228D01*
X127684683Y-57666351D01*
X127698724Y-57662834D01*
X127713042Y-57660710D01*
X127727500Y-57660000D01*
X128022500Y-57660000D01*
X128036958Y-57660710D01*
G37*
G36*
X124666958Y-56515710D02*
G01*
X124681276Y-56517834D01*
X124695317Y-56521351D01*
X124708946Y-56526228D01*
X124722031Y-56532417D01*
X124734447Y-56539858D01*
X124746073Y-56548481D01*
X124756798Y-56558202D01*
X124766519Y-56568927D01*
X124775142Y-56580553D01*
X124782583Y-56592969D01*
X124788772Y-56606054D01*
X124793649Y-56619683D01*
X124797166Y-56633724D01*
X124799290Y-56648042D01*
X124800000Y-56662500D01*
X124800000Y-56957500D01*
X124799290Y-56971958D01*
X124797166Y-56986276D01*
X124793649Y-57000317D01*
X124788772Y-57013946D01*
X124782583Y-57027031D01*
X124775142Y-57039447D01*
X124766519Y-57051073D01*
X124756798Y-57061798D01*
X124746073Y-57071519D01*
X124734447Y-57080142D01*
X124722031Y-57087583D01*
X124708946Y-57093772D01*
X124695317Y-57098649D01*
X124681276Y-57102166D01*
X124666958Y-57104290D01*
X124652500Y-57105000D01*
X124307500Y-57105000D01*
X124293042Y-57104290D01*
X124278724Y-57102166D01*
X124264683Y-57098649D01*
X124251054Y-57093772D01*
X124237969Y-57087583D01*
X124225553Y-57080142D01*
X124213927Y-57071519D01*
X124203202Y-57061798D01*
X124193481Y-57051073D01*
X124184858Y-57039447D01*
X124177417Y-57027031D01*
X124171228Y-57013946D01*
X124166351Y-57000317D01*
X124162834Y-56986276D01*
X124160710Y-56971958D01*
X124160000Y-56957500D01*
X124160000Y-56662500D01*
X124160710Y-56648042D01*
X124162834Y-56633724D01*
X124166351Y-56619683D01*
X124171228Y-56606054D01*
X124177417Y-56592969D01*
X124184858Y-56580553D01*
X124193481Y-56568927D01*
X124203202Y-56558202D01*
X124213927Y-56548481D01*
X124225553Y-56539858D01*
X124237969Y-56532417D01*
X124251054Y-56526228D01*
X124264683Y-56521351D01*
X124278724Y-56517834D01*
X124293042Y-56515710D01*
X124307500Y-56515000D01*
X124652500Y-56515000D01*
X124666958Y-56515710D01*
G37*
G36*
X124666958Y-55545710D02*
G01*
X124681276Y-55547834D01*
X124695317Y-55551351D01*
X124708946Y-55556228D01*
X124722031Y-55562417D01*
X124734447Y-55569858D01*
X124746073Y-55578481D01*
X124756798Y-55588202D01*
X124766519Y-55598927D01*
X124775142Y-55610553D01*
X124782583Y-55622969D01*
X124788772Y-55636054D01*
X124793649Y-55649683D01*
X124797166Y-55663724D01*
X124799290Y-55678042D01*
X124800000Y-55692500D01*
X124800000Y-55987500D01*
X124799290Y-56001958D01*
X124797166Y-56016276D01*
X124793649Y-56030317D01*
X124788772Y-56043946D01*
X124782583Y-56057031D01*
X124775142Y-56069447D01*
X124766519Y-56081073D01*
X124756798Y-56091798D01*
X124746073Y-56101519D01*
X124734447Y-56110142D01*
X124722031Y-56117583D01*
X124708946Y-56123772D01*
X124695317Y-56128649D01*
X124681276Y-56132166D01*
X124666958Y-56134290D01*
X124652500Y-56135000D01*
X124307500Y-56135000D01*
X124293042Y-56134290D01*
X124278724Y-56132166D01*
X124264683Y-56128649D01*
X124251054Y-56123772D01*
X124237969Y-56117583D01*
X124225553Y-56110142D01*
X124213927Y-56101519D01*
X124203202Y-56091798D01*
X124193481Y-56081073D01*
X124184858Y-56069447D01*
X124177417Y-56057031D01*
X124171228Y-56043946D01*
X124166351Y-56030317D01*
X124162834Y-56016276D01*
X124160710Y-56001958D01*
X124160000Y-55987500D01*
X124160000Y-55692500D01*
X124160710Y-55678042D01*
X124162834Y-55663724D01*
X124166351Y-55649683D01*
X124171228Y-55636054D01*
X124177417Y-55622969D01*
X124184858Y-55610553D01*
X124193481Y-55598927D01*
X124203202Y-55588202D01*
X124213927Y-55578481D01*
X124225553Y-55569858D01*
X124237969Y-55562417D01*
X124251054Y-55556228D01*
X124264683Y-55551351D01*
X124278724Y-55547834D01*
X124293042Y-55545710D01*
X124307500Y-55545000D01*
X124652500Y-55545000D01*
X124666958Y-55545710D01*
G37*
D12*
X132430000Y-48750000D03*
X132430000Y-47750000D03*
X131680000Y-48750000D03*
X131680000Y-47750000D03*
D13*
X133096000Y-65613000D03*
X128016000Y-65613000D03*
X130556000Y-65613000D03*
X118364000Y-65613000D03*
X115824000Y-65613000D03*
X120904000Y-65613000D03*
D11*
G36*
X120927691Y-32951053D02*
G01*
X120948926Y-32954203D01*
X120969750Y-32959419D01*
X120989962Y-32966651D01*
X121009368Y-32975830D01*
X121027781Y-32986866D01*
X121045024Y-32999654D01*
X121060930Y-33014070D01*
X121075346Y-33029976D01*
X121088134Y-33047219D01*
X121099170Y-33065632D01*
X121108349Y-33085038D01*
X121115581Y-33105250D01*
X121120797Y-33126074D01*
X121123947Y-33147309D01*
X121125000Y-33168750D01*
X121125000Y-33606250D01*
X121123947Y-33627691D01*
X121120797Y-33648926D01*
X121115581Y-33669750D01*
X121108349Y-33689962D01*
X121099170Y-33709368D01*
X121088134Y-33727781D01*
X121075346Y-33745024D01*
X121060930Y-33760930D01*
X121045024Y-33775346D01*
X121027781Y-33788134D01*
X121009368Y-33799170D01*
X120989962Y-33808349D01*
X120969750Y-33815581D01*
X120948926Y-33820797D01*
X120927691Y-33823947D01*
X120906250Y-33825000D01*
X120393750Y-33825000D01*
X120372309Y-33823947D01*
X120351074Y-33820797D01*
X120330250Y-33815581D01*
X120310038Y-33808349D01*
X120290632Y-33799170D01*
X120272219Y-33788134D01*
X120254976Y-33775346D01*
X120239070Y-33760930D01*
X120224654Y-33745024D01*
X120211866Y-33727781D01*
X120200830Y-33709368D01*
X120191651Y-33689962D01*
X120184419Y-33669750D01*
X120179203Y-33648926D01*
X120176053Y-33627691D01*
X120175000Y-33606250D01*
X120175000Y-33168750D01*
X120176053Y-33147309D01*
X120179203Y-33126074D01*
X120184419Y-33105250D01*
X120191651Y-33085038D01*
X120200830Y-33065632D01*
X120211866Y-33047219D01*
X120224654Y-33029976D01*
X120239070Y-33014070D01*
X120254976Y-32999654D01*
X120272219Y-32986866D01*
X120290632Y-32975830D01*
X120310038Y-32966651D01*
X120330250Y-32959419D01*
X120351074Y-32954203D01*
X120372309Y-32951053D01*
X120393750Y-32950000D01*
X120906250Y-32950000D01*
X120927691Y-32951053D01*
G37*
G36*
X120927691Y-31376053D02*
G01*
X120948926Y-31379203D01*
X120969750Y-31384419D01*
X120989962Y-31391651D01*
X121009368Y-31400830D01*
X121027781Y-31411866D01*
X121045024Y-31424654D01*
X121060930Y-31439070D01*
X121075346Y-31454976D01*
X121088134Y-31472219D01*
X121099170Y-31490632D01*
X121108349Y-31510038D01*
X121115581Y-31530250D01*
X121120797Y-31551074D01*
X121123947Y-31572309D01*
X121125000Y-31593750D01*
X121125000Y-32031250D01*
X121123947Y-32052691D01*
X121120797Y-32073926D01*
X121115581Y-32094750D01*
X121108349Y-32114962D01*
X121099170Y-32134368D01*
X121088134Y-32152781D01*
X121075346Y-32170024D01*
X121060930Y-32185930D01*
X121045024Y-32200346D01*
X121027781Y-32213134D01*
X121009368Y-32224170D01*
X120989962Y-32233349D01*
X120969750Y-32240581D01*
X120948926Y-32245797D01*
X120927691Y-32248947D01*
X120906250Y-32250000D01*
X120393750Y-32250000D01*
X120372309Y-32248947D01*
X120351074Y-32245797D01*
X120330250Y-32240581D01*
X120310038Y-32233349D01*
X120290632Y-32224170D01*
X120272219Y-32213134D01*
X120254976Y-32200346D01*
X120239070Y-32185930D01*
X120224654Y-32170024D01*
X120211866Y-32152781D01*
X120200830Y-32134368D01*
X120191651Y-32114962D01*
X120184419Y-32094750D01*
X120179203Y-32073926D01*
X120176053Y-32052691D01*
X120175000Y-32031250D01*
X120175000Y-31593750D01*
X120176053Y-31572309D01*
X120179203Y-31551074D01*
X120184419Y-31530250D01*
X120191651Y-31510038D01*
X120200830Y-31490632D01*
X120211866Y-31472219D01*
X120224654Y-31454976D01*
X120239070Y-31439070D01*
X120254976Y-31424654D01*
X120272219Y-31411866D01*
X120290632Y-31400830D01*
X120310038Y-31391651D01*
X120330250Y-31384419D01*
X120351074Y-31379203D01*
X120372309Y-31376053D01*
X120393750Y-31375000D01*
X120906250Y-31375000D01*
X120927691Y-31376053D01*
G37*
G36*
X119252691Y-32951053D02*
G01*
X119273926Y-32954203D01*
X119294750Y-32959419D01*
X119314962Y-32966651D01*
X119334368Y-32975830D01*
X119352781Y-32986866D01*
X119370024Y-32999654D01*
X119385930Y-33014070D01*
X119400346Y-33029976D01*
X119413134Y-33047219D01*
X119424170Y-33065632D01*
X119433349Y-33085038D01*
X119440581Y-33105250D01*
X119445797Y-33126074D01*
X119448947Y-33147309D01*
X119450000Y-33168750D01*
X119450000Y-33606250D01*
X119448947Y-33627691D01*
X119445797Y-33648926D01*
X119440581Y-33669750D01*
X119433349Y-33689962D01*
X119424170Y-33709368D01*
X119413134Y-33727781D01*
X119400346Y-33745024D01*
X119385930Y-33760930D01*
X119370024Y-33775346D01*
X119352781Y-33788134D01*
X119334368Y-33799170D01*
X119314962Y-33808349D01*
X119294750Y-33815581D01*
X119273926Y-33820797D01*
X119252691Y-33823947D01*
X119231250Y-33825000D01*
X118718750Y-33825000D01*
X118697309Y-33823947D01*
X118676074Y-33820797D01*
X118655250Y-33815581D01*
X118635038Y-33808349D01*
X118615632Y-33799170D01*
X118597219Y-33788134D01*
X118579976Y-33775346D01*
X118564070Y-33760930D01*
X118549654Y-33745024D01*
X118536866Y-33727781D01*
X118525830Y-33709368D01*
X118516651Y-33689962D01*
X118509419Y-33669750D01*
X118504203Y-33648926D01*
X118501053Y-33627691D01*
X118500000Y-33606250D01*
X118500000Y-33168750D01*
X118501053Y-33147309D01*
X118504203Y-33126074D01*
X118509419Y-33105250D01*
X118516651Y-33085038D01*
X118525830Y-33065632D01*
X118536866Y-33047219D01*
X118549654Y-33029976D01*
X118564070Y-33014070D01*
X118579976Y-32999654D01*
X118597219Y-32986866D01*
X118615632Y-32975830D01*
X118635038Y-32966651D01*
X118655250Y-32959419D01*
X118676074Y-32954203D01*
X118697309Y-32951053D01*
X118718750Y-32950000D01*
X119231250Y-32950000D01*
X119252691Y-32951053D01*
G37*
G36*
X119252691Y-31376053D02*
G01*
X119273926Y-31379203D01*
X119294750Y-31384419D01*
X119314962Y-31391651D01*
X119334368Y-31400830D01*
X119352781Y-31411866D01*
X119370024Y-31424654D01*
X119385930Y-31439070D01*
X119400346Y-31454976D01*
X119413134Y-31472219D01*
X119424170Y-31490632D01*
X119433349Y-31510038D01*
X119440581Y-31530250D01*
X119445797Y-31551074D01*
X119448947Y-31572309D01*
X119450000Y-31593750D01*
X119450000Y-32031250D01*
X119448947Y-32052691D01*
X119445797Y-32073926D01*
X119440581Y-32094750D01*
X119433349Y-32114962D01*
X119424170Y-32134368D01*
X119413134Y-32152781D01*
X119400346Y-32170024D01*
X119385930Y-32185930D01*
X119370024Y-32200346D01*
X119352781Y-32213134D01*
X119334368Y-32224170D01*
X119314962Y-32233349D01*
X119294750Y-32240581D01*
X119273926Y-32245797D01*
X119252691Y-32248947D01*
X119231250Y-32250000D01*
X118718750Y-32250000D01*
X118697309Y-32248947D01*
X118676074Y-32245797D01*
X118655250Y-32240581D01*
X118635038Y-32233349D01*
X118615632Y-32224170D01*
X118597219Y-32213134D01*
X118579976Y-32200346D01*
X118564070Y-32185930D01*
X118549654Y-32170024D01*
X118536866Y-32152781D01*
X118525830Y-32134368D01*
X118516651Y-32114962D01*
X118509419Y-32094750D01*
X118504203Y-32073926D01*
X118501053Y-32052691D01*
X118500000Y-32031250D01*
X118500000Y-31593750D01*
X118501053Y-31572309D01*
X118504203Y-31551074D01*
X118509419Y-31530250D01*
X118516651Y-31510038D01*
X118525830Y-31490632D01*
X118536866Y-31472219D01*
X118549654Y-31454976D01*
X118564070Y-31439070D01*
X118579976Y-31424654D01*
X118597219Y-31411866D01*
X118615632Y-31400830D01*
X118635038Y-31391651D01*
X118655250Y-31384419D01*
X118676074Y-31379203D01*
X118697309Y-31376053D01*
X118718750Y-31375000D01*
X119231250Y-31375000D01*
X119252691Y-31376053D01*
G37*
G36*
X128708626Y-53385301D02*
G01*
X128714693Y-53386201D01*
X128720643Y-53387691D01*
X128726418Y-53389758D01*
X128731962Y-53392380D01*
X128737223Y-53395533D01*
X128742150Y-53399187D01*
X128746694Y-53403306D01*
X128750813Y-53407850D01*
X128754467Y-53412777D01*
X128757620Y-53418038D01*
X128760242Y-53423582D01*
X128762309Y-53429357D01*
X128763799Y-53435307D01*
X128764699Y-53441374D01*
X128765000Y-53447500D01*
X128765000Y-54197500D01*
X128764699Y-54203626D01*
X128763799Y-54209693D01*
X128762309Y-54215643D01*
X128760242Y-54221418D01*
X128757620Y-54226962D01*
X128754467Y-54232223D01*
X128750813Y-54237150D01*
X128746694Y-54241694D01*
X128742150Y-54245813D01*
X128737223Y-54249467D01*
X128731962Y-54252620D01*
X128726418Y-54255242D01*
X128720643Y-54257309D01*
X128714693Y-54258799D01*
X128708626Y-54259699D01*
X128702500Y-54260000D01*
X128577500Y-54260000D01*
X128571374Y-54259699D01*
X128565307Y-54258799D01*
X128559357Y-54257309D01*
X128553582Y-54255242D01*
X128548038Y-54252620D01*
X128542777Y-54249467D01*
X128537850Y-54245813D01*
X128533306Y-54241694D01*
X128529187Y-54237150D01*
X128525533Y-54232223D01*
X128522380Y-54226962D01*
X128519758Y-54221418D01*
X128517691Y-54215643D01*
X128516201Y-54209693D01*
X128515301Y-54203626D01*
X128515000Y-54197500D01*
X128515000Y-53447500D01*
X128515301Y-53441374D01*
X128516201Y-53435307D01*
X128517691Y-53429357D01*
X128519758Y-53423582D01*
X128522380Y-53418038D01*
X128525533Y-53412777D01*
X128529187Y-53407850D01*
X128533306Y-53403306D01*
X128537850Y-53399187D01*
X128542777Y-53395533D01*
X128548038Y-53392380D01*
X128553582Y-53389758D01*
X128559357Y-53387691D01*
X128565307Y-53386201D01*
X128571374Y-53385301D01*
X128577500Y-53385000D01*
X128702500Y-53385000D01*
X128708626Y-53385301D01*
G37*
G36*
X128208626Y-53385301D02*
G01*
X128214693Y-53386201D01*
X128220643Y-53387691D01*
X128226418Y-53389758D01*
X128231962Y-53392380D01*
X128237223Y-53395533D01*
X128242150Y-53399187D01*
X128246694Y-53403306D01*
X128250813Y-53407850D01*
X128254467Y-53412777D01*
X128257620Y-53418038D01*
X128260242Y-53423582D01*
X128262309Y-53429357D01*
X128263799Y-53435307D01*
X128264699Y-53441374D01*
X128265000Y-53447500D01*
X128265000Y-54197500D01*
X128264699Y-54203626D01*
X128263799Y-54209693D01*
X128262309Y-54215643D01*
X128260242Y-54221418D01*
X128257620Y-54226962D01*
X128254467Y-54232223D01*
X128250813Y-54237150D01*
X128246694Y-54241694D01*
X128242150Y-54245813D01*
X128237223Y-54249467D01*
X128231962Y-54252620D01*
X128226418Y-54255242D01*
X128220643Y-54257309D01*
X128214693Y-54258799D01*
X128208626Y-54259699D01*
X128202500Y-54260000D01*
X128077500Y-54260000D01*
X128071374Y-54259699D01*
X128065307Y-54258799D01*
X128059357Y-54257309D01*
X128053582Y-54255242D01*
X128048038Y-54252620D01*
X128042777Y-54249467D01*
X128037850Y-54245813D01*
X128033306Y-54241694D01*
X128029187Y-54237150D01*
X128025533Y-54232223D01*
X128022380Y-54226962D01*
X128019758Y-54221418D01*
X128017691Y-54215643D01*
X128016201Y-54209693D01*
X128015301Y-54203626D01*
X128015000Y-54197500D01*
X128015000Y-53447500D01*
X128015301Y-53441374D01*
X128016201Y-53435307D01*
X128017691Y-53429357D01*
X128019758Y-53423582D01*
X128022380Y-53418038D01*
X128025533Y-53412777D01*
X128029187Y-53407850D01*
X128033306Y-53403306D01*
X128037850Y-53399187D01*
X128042777Y-53395533D01*
X128048038Y-53392380D01*
X128053582Y-53389758D01*
X128059357Y-53387691D01*
X128065307Y-53386201D01*
X128071374Y-53385301D01*
X128077500Y-53385000D01*
X128202500Y-53385000D01*
X128208626Y-53385301D01*
G37*
G36*
X127708626Y-53385301D02*
G01*
X127714693Y-53386201D01*
X127720643Y-53387691D01*
X127726418Y-53389758D01*
X127731962Y-53392380D01*
X127737223Y-53395533D01*
X127742150Y-53399187D01*
X127746694Y-53403306D01*
X127750813Y-53407850D01*
X127754467Y-53412777D01*
X127757620Y-53418038D01*
X127760242Y-53423582D01*
X127762309Y-53429357D01*
X127763799Y-53435307D01*
X127764699Y-53441374D01*
X127765000Y-53447500D01*
X127765000Y-54197500D01*
X127764699Y-54203626D01*
X127763799Y-54209693D01*
X127762309Y-54215643D01*
X127760242Y-54221418D01*
X127757620Y-54226962D01*
X127754467Y-54232223D01*
X127750813Y-54237150D01*
X127746694Y-54241694D01*
X127742150Y-54245813D01*
X127737223Y-54249467D01*
X127731962Y-54252620D01*
X127726418Y-54255242D01*
X127720643Y-54257309D01*
X127714693Y-54258799D01*
X127708626Y-54259699D01*
X127702500Y-54260000D01*
X127577500Y-54260000D01*
X127571374Y-54259699D01*
X127565307Y-54258799D01*
X127559357Y-54257309D01*
X127553582Y-54255242D01*
X127548038Y-54252620D01*
X127542777Y-54249467D01*
X127537850Y-54245813D01*
X127533306Y-54241694D01*
X127529187Y-54237150D01*
X127525533Y-54232223D01*
X127522380Y-54226962D01*
X127519758Y-54221418D01*
X127517691Y-54215643D01*
X127516201Y-54209693D01*
X127515301Y-54203626D01*
X127515000Y-54197500D01*
X127515000Y-53447500D01*
X127515301Y-53441374D01*
X127516201Y-53435307D01*
X127517691Y-53429357D01*
X127519758Y-53423582D01*
X127522380Y-53418038D01*
X127525533Y-53412777D01*
X127529187Y-53407850D01*
X127533306Y-53403306D01*
X127537850Y-53399187D01*
X127542777Y-53395533D01*
X127548038Y-53392380D01*
X127553582Y-53389758D01*
X127559357Y-53387691D01*
X127565307Y-53386201D01*
X127571374Y-53385301D01*
X127577500Y-53385000D01*
X127702500Y-53385000D01*
X127708626Y-53385301D01*
G37*
G36*
X127208626Y-53385301D02*
G01*
X127214693Y-53386201D01*
X127220643Y-53387691D01*
X127226418Y-53389758D01*
X127231962Y-53392380D01*
X127237223Y-53395533D01*
X127242150Y-53399187D01*
X127246694Y-53403306D01*
X127250813Y-53407850D01*
X127254467Y-53412777D01*
X127257620Y-53418038D01*
X127260242Y-53423582D01*
X127262309Y-53429357D01*
X127263799Y-53435307D01*
X127264699Y-53441374D01*
X127265000Y-53447500D01*
X127265000Y-54197500D01*
X127264699Y-54203626D01*
X127263799Y-54209693D01*
X127262309Y-54215643D01*
X127260242Y-54221418D01*
X127257620Y-54226962D01*
X127254467Y-54232223D01*
X127250813Y-54237150D01*
X127246694Y-54241694D01*
X127242150Y-54245813D01*
X127237223Y-54249467D01*
X127231962Y-54252620D01*
X127226418Y-54255242D01*
X127220643Y-54257309D01*
X127214693Y-54258799D01*
X127208626Y-54259699D01*
X127202500Y-54260000D01*
X127077500Y-54260000D01*
X127071374Y-54259699D01*
X127065307Y-54258799D01*
X127059357Y-54257309D01*
X127053582Y-54255242D01*
X127048038Y-54252620D01*
X127042777Y-54249467D01*
X127037850Y-54245813D01*
X127033306Y-54241694D01*
X127029187Y-54237150D01*
X127025533Y-54232223D01*
X127022380Y-54226962D01*
X127019758Y-54221418D01*
X127017691Y-54215643D01*
X127016201Y-54209693D01*
X127015301Y-54203626D01*
X127015000Y-54197500D01*
X127015000Y-53447500D01*
X127015301Y-53441374D01*
X127016201Y-53435307D01*
X127017691Y-53429357D01*
X127019758Y-53423582D01*
X127022380Y-53418038D01*
X127025533Y-53412777D01*
X127029187Y-53407850D01*
X127033306Y-53403306D01*
X127037850Y-53399187D01*
X127042777Y-53395533D01*
X127048038Y-53392380D01*
X127053582Y-53389758D01*
X127059357Y-53387691D01*
X127065307Y-53386201D01*
X127071374Y-53385301D01*
X127077500Y-53385000D01*
X127202500Y-53385000D01*
X127208626Y-53385301D01*
G37*
G36*
X126708626Y-53385301D02*
G01*
X126714693Y-53386201D01*
X126720643Y-53387691D01*
X126726418Y-53389758D01*
X126731962Y-53392380D01*
X126737223Y-53395533D01*
X126742150Y-53399187D01*
X126746694Y-53403306D01*
X126750813Y-53407850D01*
X126754467Y-53412777D01*
X126757620Y-53418038D01*
X126760242Y-53423582D01*
X126762309Y-53429357D01*
X126763799Y-53435307D01*
X126764699Y-53441374D01*
X126765000Y-53447500D01*
X126765000Y-54197500D01*
X126764699Y-54203626D01*
X126763799Y-54209693D01*
X126762309Y-54215643D01*
X126760242Y-54221418D01*
X126757620Y-54226962D01*
X126754467Y-54232223D01*
X126750813Y-54237150D01*
X126746694Y-54241694D01*
X126742150Y-54245813D01*
X126737223Y-54249467D01*
X126731962Y-54252620D01*
X126726418Y-54255242D01*
X126720643Y-54257309D01*
X126714693Y-54258799D01*
X126708626Y-54259699D01*
X126702500Y-54260000D01*
X126577500Y-54260000D01*
X126571374Y-54259699D01*
X126565307Y-54258799D01*
X126559357Y-54257309D01*
X126553582Y-54255242D01*
X126548038Y-54252620D01*
X126542777Y-54249467D01*
X126537850Y-54245813D01*
X126533306Y-54241694D01*
X126529187Y-54237150D01*
X126525533Y-54232223D01*
X126522380Y-54226962D01*
X126519758Y-54221418D01*
X126517691Y-54215643D01*
X126516201Y-54209693D01*
X126515301Y-54203626D01*
X126515000Y-54197500D01*
X126515000Y-53447500D01*
X126515301Y-53441374D01*
X126516201Y-53435307D01*
X126517691Y-53429357D01*
X126519758Y-53423582D01*
X126522380Y-53418038D01*
X126525533Y-53412777D01*
X126529187Y-53407850D01*
X126533306Y-53403306D01*
X126537850Y-53399187D01*
X126542777Y-53395533D01*
X126548038Y-53392380D01*
X126553582Y-53389758D01*
X126559357Y-53387691D01*
X126565307Y-53386201D01*
X126571374Y-53385301D01*
X126577500Y-53385000D01*
X126702500Y-53385000D01*
X126708626Y-53385301D01*
G37*
G36*
X126208626Y-53385301D02*
G01*
X126214693Y-53386201D01*
X126220643Y-53387691D01*
X126226418Y-53389758D01*
X126231962Y-53392380D01*
X126237223Y-53395533D01*
X126242150Y-53399187D01*
X126246694Y-53403306D01*
X126250813Y-53407850D01*
X126254467Y-53412777D01*
X126257620Y-53418038D01*
X126260242Y-53423582D01*
X126262309Y-53429357D01*
X126263799Y-53435307D01*
X126264699Y-53441374D01*
X126265000Y-53447500D01*
X126265000Y-54197500D01*
X126264699Y-54203626D01*
X126263799Y-54209693D01*
X126262309Y-54215643D01*
X126260242Y-54221418D01*
X126257620Y-54226962D01*
X126254467Y-54232223D01*
X126250813Y-54237150D01*
X126246694Y-54241694D01*
X126242150Y-54245813D01*
X126237223Y-54249467D01*
X126231962Y-54252620D01*
X126226418Y-54255242D01*
X126220643Y-54257309D01*
X126214693Y-54258799D01*
X126208626Y-54259699D01*
X126202500Y-54260000D01*
X126077500Y-54260000D01*
X126071374Y-54259699D01*
X126065307Y-54258799D01*
X126059357Y-54257309D01*
X126053582Y-54255242D01*
X126048038Y-54252620D01*
X126042777Y-54249467D01*
X126037850Y-54245813D01*
X126033306Y-54241694D01*
X126029187Y-54237150D01*
X126025533Y-54232223D01*
X126022380Y-54226962D01*
X126019758Y-54221418D01*
X126017691Y-54215643D01*
X126016201Y-54209693D01*
X126015301Y-54203626D01*
X126015000Y-54197500D01*
X126015000Y-53447500D01*
X126015301Y-53441374D01*
X126016201Y-53435307D01*
X126017691Y-53429357D01*
X126019758Y-53423582D01*
X126022380Y-53418038D01*
X126025533Y-53412777D01*
X126029187Y-53407850D01*
X126033306Y-53403306D01*
X126037850Y-53399187D01*
X126042777Y-53395533D01*
X126048038Y-53392380D01*
X126053582Y-53389758D01*
X126059357Y-53387691D01*
X126065307Y-53386201D01*
X126071374Y-53385301D01*
X126077500Y-53385000D01*
X126202500Y-53385000D01*
X126208626Y-53385301D01*
G37*
G36*
X125708626Y-53385301D02*
G01*
X125714693Y-53386201D01*
X125720643Y-53387691D01*
X125726418Y-53389758D01*
X125731962Y-53392380D01*
X125737223Y-53395533D01*
X125742150Y-53399187D01*
X125746694Y-53403306D01*
X125750813Y-53407850D01*
X125754467Y-53412777D01*
X125757620Y-53418038D01*
X125760242Y-53423582D01*
X125762309Y-53429357D01*
X125763799Y-53435307D01*
X125764699Y-53441374D01*
X125765000Y-53447500D01*
X125765000Y-54197500D01*
X125764699Y-54203626D01*
X125763799Y-54209693D01*
X125762309Y-54215643D01*
X125760242Y-54221418D01*
X125757620Y-54226962D01*
X125754467Y-54232223D01*
X125750813Y-54237150D01*
X125746694Y-54241694D01*
X125742150Y-54245813D01*
X125737223Y-54249467D01*
X125731962Y-54252620D01*
X125726418Y-54255242D01*
X125720643Y-54257309D01*
X125714693Y-54258799D01*
X125708626Y-54259699D01*
X125702500Y-54260000D01*
X125577500Y-54260000D01*
X125571374Y-54259699D01*
X125565307Y-54258799D01*
X125559357Y-54257309D01*
X125553582Y-54255242D01*
X125548038Y-54252620D01*
X125542777Y-54249467D01*
X125537850Y-54245813D01*
X125533306Y-54241694D01*
X125529187Y-54237150D01*
X125525533Y-54232223D01*
X125522380Y-54226962D01*
X125519758Y-54221418D01*
X125517691Y-54215643D01*
X125516201Y-54209693D01*
X125515301Y-54203626D01*
X125515000Y-54197500D01*
X125515000Y-53447500D01*
X125515301Y-53441374D01*
X125516201Y-53435307D01*
X125517691Y-53429357D01*
X125519758Y-53423582D01*
X125522380Y-53418038D01*
X125525533Y-53412777D01*
X125529187Y-53407850D01*
X125533306Y-53403306D01*
X125537850Y-53399187D01*
X125542777Y-53395533D01*
X125548038Y-53392380D01*
X125553582Y-53389758D01*
X125559357Y-53387691D01*
X125565307Y-53386201D01*
X125571374Y-53385301D01*
X125577500Y-53385000D01*
X125702500Y-53385000D01*
X125708626Y-53385301D01*
G37*
G36*
X125208626Y-53385301D02*
G01*
X125214693Y-53386201D01*
X125220643Y-53387691D01*
X125226418Y-53389758D01*
X125231962Y-53392380D01*
X125237223Y-53395533D01*
X125242150Y-53399187D01*
X125246694Y-53403306D01*
X125250813Y-53407850D01*
X125254467Y-53412777D01*
X125257620Y-53418038D01*
X125260242Y-53423582D01*
X125262309Y-53429357D01*
X125263799Y-53435307D01*
X125264699Y-53441374D01*
X125265000Y-53447500D01*
X125265000Y-54197500D01*
X125264699Y-54203626D01*
X125263799Y-54209693D01*
X125262309Y-54215643D01*
X125260242Y-54221418D01*
X125257620Y-54226962D01*
X125254467Y-54232223D01*
X125250813Y-54237150D01*
X125246694Y-54241694D01*
X125242150Y-54245813D01*
X125237223Y-54249467D01*
X125231962Y-54252620D01*
X125226418Y-54255242D01*
X125220643Y-54257309D01*
X125214693Y-54258799D01*
X125208626Y-54259699D01*
X125202500Y-54260000D01*
X125077500Y-54260000D01*
X125071374Y-54259699D01*
X125065307Y-54258799D01*
X125059357Y-54257309D01*
X125053582Y-54255242D01*
X125048038Y-54252620D01*
X125042777Y-54249467D01*
X125037850Y-54245813D01*
X125033306Y-54241694D01*
X125029187Y-54237150D01*
X125025533Y-54232223D01*
X125022380Y-54226962D01*
X125019758Y-54221418D01*
X125017691Y-54215643D01*
X125016201Y-54209693D01*
X125015301Y-54203626D01*
X125015000Y-54197500D01*
X125015000Y-53447500D01*
X125015301Y-53441374D01*
X125016201Y-53435307D01*
X125017691Y-53429357D01*
X125019758Y-53423582D01*
X125022380Y-53418038D01*
X125025533Y-53412777D01*
X125029187Y-53407850D01*
X125033306Y-53403306D01*
X125037850Y-53399187D01*
X125042777Y-53395533D01*
X125048038Y-53392380D01*
X125053582Y-53389758D01*
X125059357Y-53387691D01*
X125065307Y-53386201D01*
X125071374Y-53385301D01*
X125077500Y-53385000D01*
X125202500Y-53385000D01*
X125208626Y-53385301D01*
G37*
G36*
X124833626Y-53010301D02*
G01*
X124839693Y-53011201D01*
X124845643Y-53012691D01*
X124851418Y-53014758D01*
X124856962Y-53017380D01*
X124862223Y-53020533D01*
X124867150Y-53024187D01*
X124871694Y-53028306D01*
X124875813Y-53032850D01*
X124879467Y-53037777D01*
X124882620Y-53043038D01*
X124885242Y-53048582D01*
X124887309Y-53054357D01*
X124888799Y-53060307D01*
X124889699Y-53066374D01*
X124890000Y-53072500D01*
X124890000Y-53197500D01*
X124889699Y-53203626D01*
X124888799Y-53209693D01*
X124887309Y-53215643D01*
X124885242Y-53221418D01*
X124882620Y-53226962D01*
X124879467Y-53232223D01*
X124875813Y-53237150D01*
X124871694Y-53241694D01*
X124867150Y-53245813D01*
X124862223Y-53249467D01*
X124856962Y-53252620D01*
X124851418Y-53255242D01*
X124845643Y-53257309D01*
X124839693Y-53258799D01*
X124833626Y-53259699D01*
X124827500Y-53260000D01*
X124077500Y-53260000D01*
X124071374Y-53259699D01*
X124065307Y-53258799D01*
X124059357Y-53257309D01*
X124053582Y-53255242D01*
X124048038Y-53252620D01*
X124042777Y-53249467D01*
X124037850Y-53245813D01*
X124033306Y-53241694D01*
X124029187Y-53237150D01*
X124025533Y-53232223D01*
X124022380Y-53226962D01*
X124019758Y-53221418D01*
X124017691Y-53215643D01*
X124016201Y-53209693D01*
X124015301Y-53203626D01*
X124015000Y-53197500D01*
X124015000Y-53072500D01*
X124015301Y-53066374D01*
X124016201Y-53060307D01*
X124017691Y-53054357D01*
X124019758Y-53048582D01*
X124022380Y-53043038D01*
X124025533Y-53037777D01*
X124029187Y-53032850D01*
X124033306Y-53028306D01*
X124037850Y-53024187D01*
X124042777Y-53020533D01*
X124048038Y-53017380D01*
X124053582Y-53014758D01*
X124059357Y-53012691D01*
X124065307Y-53011201D01*
X124071374Y-53010301D01*
X124077500Y-53010000D01*
X124827500Y-53010000D01*
X124833626Y-53010301D01*
G37*
G36*
X124833626Y-52510301D02*
G01*
X124839693Y-52511201D01*
X124845643Y-52512691D01*
X124851418Y-52514758D01*
X124856962Y-52517380D01*
X124862223Y-52520533D01*
X124867150Y-52524187D01*
X124871694Y-52528306D01*
X124875813Y-52532850D01*
X124879467Y-52537777D01*
X124882620Y-52543038D01*
X124885242Y-52548582D01*
X124887309Y-52554357D01*
X124888799Y-52560307D01*
X124889699Y-52566374D01*
X124890000Y-52572500D01*
X124890000Y-52697500D01*
X124889699Y-52703626D01*
X124888799Y-52709693D01*
X124887309Y-52715643D01*
X124885242Y-52721418D01*
X124882620Y-52726962D01*
X124879467Y-52732223D01*
X124875813Y-52737150D01*
X124871694Y-52741694D01*
X124867150Y-52745813D01*
X124862223Y-52749467D01*
X124856962Y-52752620D01*
X124851418Y-52755242D01*
X124845643Y-52757309D01*
X124839693Y-52758799D01*
X124833626Y-52759699D01*
X124827500Y-52760000D01*
X124077500Y-52760000D01*
X124071374Y-52759699D01*
X124065307Y-52758799D01*
X124059357Y-52757309D01*
X124053582Y-52755242D01*
X124048038Y-52752620D01*
X124042777Y-52749467D01*
X124037850Y-52745813D01*
X124033306Y-52741694D01*
X124029187Y-52737150D01*
X124025533Y-52732223D01*
X124022380Y-52726962D01*
X124019758Y-52721418D01*
X124017691Y-52715643D01*
X124016201Y-52709693D01*
X124015301Y-52703626D01*
X124015000Y-52697500D01*
X124015000Y-52572500D01*
X124015301Y-52566374D01*
X124016201Y-52560307D01*
X124017691Y-52554357D01*
X124019758Y-52548582D01*
X124022380Y-52543038D01*
X124025533Y-52537777D01*
X124029187Y-52532850D01*
X124033306Y-52528306D01*
X124037850Y-52524187D01*
X124042777Y-52520533D01*
X124048038Y-52517380D01*
X124053582Y-52514758D01*
X124059357Y-52512691D01*
X124065307Y-52511201D01*
X124071374Y-52510301D01*
X124077500Y-52510000D01*
X124827500Y-52510000D01*
X124833626Y-52510301D01*
G37*
G36*
X124833626Y-52010301D02*
G01*
X124839693Y-52011201D01*
X124845643Y-52012691D01*
X124851418Y-52014758D01*
X124856962Y-52017380D01*
X124862223Y-52020533D01*
X124867150Y-52024187D01*
X124871694Y-52028306D01*
X124875813Y-52032850D01*
X124879467Y-52037777D01*
X124882620Y-52043038D01*
X124885242Y-52048582D01*
X124887309Y-52054357D01*
X124888799Y-52060307D01*
X124889699Y-52066374D01*
X124890000Y-52072500D01*
X124890000Y-52197500D01*
X124889699Y-52203626D01*
X124888799Y-52209693D01*
X124887309Y-52215643D01*
X124885242Y-52221418D01*
X124882620Y-52226962D01*
X124879467Y-52232223D01*
X124875813Y-52237150D01*
X124871694Y-52241694D01*
X124867150Y-52245813D01*
X124862223Y-52249467D01*
X124856962Y-52252620D01*
X124851418Y-52255242D01*
X124845643Y-52257309D01*
X124839693Y-52258799D01*
X124833626Y-52259699D01*
X124827500Y-52260000D01*
X124077500Y-52260000D01*
X124071374Y-52259699D01*
X124065307Y-52258799D01*
X124059357Y-52257309D01*
X124053582Y-52255242D01*
X124048038Y-52252620D01*
X124042777Y-52249467D01*
X124037850Y-52245813D01*
X124033306Y-52241694D01*
X124029187Y-52237150D01*
X124025533Y-52232223D01*
X124022380Y-52226962D01*
X124019758Y-52221418D01*
X124017691Y-52215643D01*
X124016201Y-52209693D01*
X124015301Y-52203626D01*
X124015000Y-52197500D01*
X124015000Y-52072500D01*
X124015301Y-52066374D01*
X124016201Y-52060307D01*
X124017691Y-52054357D01*
X124019758Y-52048582D01*
X124022380Y-52043038D01*
X124025533Y-52037777D01*
X124029187Y-52032850D01*
X124033306Y-52028306D01*
X124037850Y-52024187D01*
X124042777Y-52020533D01*
X124048038Y-52017380D01*
X124053582Y-52014758D01*
X124059357Y-52012691D01*
X124065307Y-52011201D01*
X124071374Y-52010301D01*
X124077500Y-52010000D01*
X124827500Y-52010000D01*
X124833626Y-52010301D01*
G37*
G36*
X124833626Y-51510301D02*
G01*
X124839693Y-51511201D01*
X124845643Y-51512691D01*
X124851418Y-51514758D01*
X124856962Y-51517380D01*
X124862223Y-51520533D01*
X124867150Y-51524187D01*
X124871694Y-51528306D01*
X124875813Y-51532850D01*
X124879467Y-51537777D01*
X124882620Y-51543038D01*
X124885242Y-51548582D01*
X124887309Y-51554357D01*
X124888799Y-51560307D01*
X124889699Y-51566374D01*
X124890000Y-51572500D01*
X124890000Y-51697500D01*
X124889699Y-51703626D01*
X124888799Y-51709693D01*
X124887309Y-51715643D01*
X124885242Y-51721418D01*
X124882620Y-51726962D01*
X124879467Y-51732223D01*
X124875813Y-51737150D01*
X124871694Y-51741694D01*
X124867150Y-51745813D01*
X124862223Y-51749467D01*
X124856962Y-51752620D01*
X124851418Y-51755242D01*
X124845643Y-51757309D01*
X124839693Y-51758799D01*
X124833626Y-51759699D01*
X124827500Y-51760000D01*
X124077500Y-51760000D01*
X124071374Y-51759699D01*
X124065307Y-51758799D01*
X124059357Y-51757309D01*
X124053582Y-51755242D01*
X124048038Y-51752620D01*
X124042777Y-51749467D01*
X124037850Y-51745813D01*
X124033306Y-51741694D01*
X124029187Y-51737150D01*
X124025533Y-51732223D01*
X124022380Y-51726962D01*
X124019758Y-51721418D01*
X124017691Y-51715643D01*
X124016201Y-51709693D01*
X124015301Y-51703626D01*
X124015000Y-51697500D01*
X124015000Y-51572500D01*
X124015301Y-51566374D01*
X124016201Y-51560307D01*
X124017691Y-51554357D01*
X124019758Y-51548582D01*
X124022380Y-51543038D01*
X124025533Y-51537777D01*
X124029187Y-51532850D01*
X124033306Y-51528306D01*
X124037850Y-51524187D01*
X124042777Y-51520533D01*
X124048038Y-51517380D01*
X124053582Y-51514758D01*
X124059357Y-51512691D01*
X124065307Y-51511201D01*
X124071374Y-51510301D01*
X124077500Y-51510000D01*
X124827500Y-51510000D01*
X124833626Y-51510301D01*
G37*
G36*
X124833626Y-51010301D02*
G01*
X124839693Y-51011201D01*
X124845643Y-51012691D01*
X124851418Y-51014758D01*
X124856962Y-51017380D01*
X124862223Y-51020533D01*
X124867150Y-51024187D01*
X124871694Y-51028306D01*
X124875813Y-51032850D01*
X124879467Y-51037777D01*
X124882620Y-51043038D01*
X124885242Y-51048582D01*
X124887309Y-51054357D01*
X124888799Y-51060307D01*
X124889699Y-51066374D01*
X124890000Y-51072500D01*
X124890000Y-51197500D01*
X124889699Y-51203626D01*
X124888799Y-51209693D01*
X124887309Y-51215643D01*
X124885242Y-51221418D01*
X124882620Y-51226962D01*
X124879467Y-51232223D01*
X124875813Y-51237150D01*
X124871694Y-51241694D01*
X124867150Y-51245813D01*
X124862223Y-51249467D01*
X124856962Y-51252620D01*
X124851418Y-51255242D01*
X124845643Y-51257309D01*
X124839693Y-51258799D01*
X124833626Y-51259699D01*
X124827500Y-51260000D01*
X124077500Y-51260000D01*
X124071374Y-51259699D01*
X124065307Y-51258799D01*
X124059357Y-51257309D01*
X124053582Y-51255242D01*
X124048038Y-51252620D01*
X124042777Y-51249467D01*
X124037850Y-51245813D01*
X124033306Y-51241694D01*
X124029187Y-51237150D01*
X124025533Y-51232223D01*
X124022380Y-51226962D01*
X124019758Y-51221418D01*
X124017691Y-51215643D01*
X124016201Y-51209693D01*
X124015301Y-51203626D01*
X124015000Y-51197500D01*
X124015000Y-51072500D01*
X124015301Y-51066374D01*
X124016201Y-51060307D01*
X124017691Y-51054357D01*
X124019758Y-51048582D01*
X124022380Y-51043038D01*
X124025533Y-51037777D01*
X124029187Y-51032850D01*
X124033306Y-51028306D01*
X124037850Y-51024187D01*
X124042777Y-51020533D01*
X124048038Y-51017380D01*
X124053582Y-51014758D01*
X124059357Y-51012691D01*
X124065307Y-51011201D01*
X124071374Y-51010301D01*
X124077500Y-51010000D01*
X124827500Y-51010000D01*
X124833626Y-51010301D01*
G37*
G36*
X124833626Y-50510301D02*
G01*
X124839693Y-50511201D01*
X124845643Y-50512691D01*
X124851418Y-50514758D01*
X124856962Y-50517380D01*
X124862223Y-50520533D01*
X124867150Y-50524187D01*
X124871694Y-50528306D01*
X124875813Y-50532850D01*
X124879467Y-50537777D01*
X124882620Y-50543038D01*
X124885242Y-50548582D01*
X124887309Y-50554357D01*
X124888799Y-50560307D01*
X124889699Y-50566374D01*
X124890000Y-50572500D01*
X124890000Y-50697500D01*
X124889699Y-50703626D01*
X124888799Y-50709693D01*
X124887309Y-50715643D01*
X124885242Y-50721418D01*
X124882620Y-50726962D01*
X124879467Y-50732223D01*
X124875813Y-50737150D01*
X124871694Y-50741694D01*
X124867150Y-50745813D01*
X124862223Y-50749467D01*
X124856962Y-50752620D01*
X124851418Y-50755242D01*
X124845643Y-50757309D01*
X124839693Y-50758799D01*
X124833626Y-50759699D01*
X124827500Y-50760000D01*
X124077500Y-50760000D01*
X124071374Y-50759699D01*
X124065307Y-50758799D01*
X124059357Y-50757309D01*
X124053582Y-50755242D01*
X124048038Y-50752620D01*
X124042777Y-50749467D01*
X124037850Y-50745813D01*
X124033306Y-50741694D01*
X124029187Y-50737150D01*
X124025533Y-50732223D01*
X124022380Y-50726962D01*
X124019758Y-50721418D01*
X124017691Y-50715643D01*
X124016201Y-50709693D01*
X124015301Y-50703626D01*
X124015000Y-50697500D01*
X124015000Y-50572500D01*
X124015301Y-50566374D01*
X124016201Y-50560307D01*
X124017691Y-50554357D01*
X124019758Y-50548582D01*
X124022380Y-50543038D01*
X124025533Y-50537777D01*
X124029187Y-50532850D01*
X124033306Y-50528306D01*
X124037850Y-50524187D01*
X124042777Y-50520533D01*
X124048038Y-50517380D01*
X124053582Y-50514758D01*
X124059357Y-50512691D01*
X124065307Y-50511201D01*
X124071374Y-50510301D01*
X124077500Y-50510000D01*
X124827500Y-50510000D01*
X124833626Y-50510301D01*
G37*
G36*
X124833626Y-50010301D02*
G01*
X124839693Y-50011201D01*
X124845643Y-50012691D01*
X124851418Y-50014758D01*
X124856962Y-50017380D01*
X124862223Y-50020533D01*
X124867150Y-50024187D01*
X124871694Y-50028306D01*
X124875813Y-50032850D01*
X124879467Y-50037777D01*
X124882620Y-50043038D01*
X124885242Y-50048582D01*
X124887309Y-50054357D01*
X124888799Y-50060307D01*
X124889699Y-50066374D01*
X124890000Y-50072500D01*
X124890000Y-50197500D01*
X124889699Y-50203626D01*
X124888799Y-50209693D01*
X124887309Y-50215643D01*
X124885242Y-50221418D01*
X124882620Y-50226962D01*
X124879467Y-50232223D01*
X124875813Y-50237150D01*
X124871694Y-50241694D01*
X124867150Y-50245813D01*
X124862223Y-50249467D01*
X124856962Y-50252620D01*
X124851418Y-50255242D01*
X124845643Y-50257309D01*
X124839693Y-50258799D01*
X124833626Y-50259699D01*
X124827500Y-50260000D01*
X124077500Y-50260000D01*
X124071374Y-50259699D01*
X124065307Y-50258799D01*
X124059357Y-50257309D01*
X124053582Y-50255242D01*
X124048038Y-50252620D01*
X124042777Y-50249467D01*
X124037850Y-50245813D01*
X124033306Y-50241694D01*
X124029187Y-50237150D01*
X124025533Y-50232223D01*
X124022380Y-50226962D01*
X124019758Y-50221418D01*
X124017691Y-50215643D01*
X124016201Y-50209693D01*
X124015301Y-50203626D01*
X124015000Y-50197500D01*
X124015000Y-50072500D01*
X124015301Y-50066374D01*
X124016201Y-50060307D01*
X124017691Y-50054357D01*
X124019758Y-50048582D01*
X124022380Y-50043038D01*
X124025533Y-50037777D01*
X124029187Y-50032850D01*
X124033306Y-50028306D01*
X124037850Y-50024187D01*
X124042777Y-50020533D01*
X124048038Y-50017380D01*
X124053582Y-50014758D01*
X124059357Y-50012691D01*
X124065307Y-50011201D01*
X124071374Y-50010301D01*
X124077500Y-50010000D01*
X124827500Y-50010000D01*
X124833626Y-50010301D01*
G37*
G36*
X124833626Y-49510301D02*
G01*
X124839693Y-49511201D01*
X124845643Y-49512691D01*
X124851418Y-49514758D01*
X124856962Y-49517380D01*
X124862223Y-49520533D01*
X124867150Y-49524187D01*
X124871694Y-49528306D01*
X124875813Y-49532850D01*
X124879467Y-49537777D01*
X124882620Y-49543038D01*
X124885242Y-49548582D01*
X124887309Y-49554357D01*
X124888799Y-49560307D01*
X124889699Y-49566374D01*
X124890000Y-49572500D01*
X124890000Y-49697500D01*
X124889699Y-49703626D01*
X124888799Y-49709693D01*
X124887309Y-49715643D01*
X124885242Y-49721418D01*
X124882620Y-49726962D01*
X124879467Y-49732223D01*
X124875813Y-49737150D01*
X124871694Y-49741694D01*
X124867150Y-49745813D01*
X124862223Y-49749467D01*
X124856962Y-49752620D01*
X124851418Y-49755242D01*
X124845643Y-49757309D01*
X124839693Y-49758799D01*
X124833626Y-49759699D01*
X124827500Y-49760000D01*
X124077500Y-49760000D01*
X124071374Y-49759699D01*
X124065307Y-49758799D01*
X124059357Y-49757309D01*
X124053582Y-49755242D01*
X124048038Y-49752620D01*
X124042777Y-49749467D01*
X124037850Y-49745813D01*
X124033306Y-49741694D01*
X124029187Y-49737150D01*
X124025533Y-49732223D01*
X124022380Y-49726962D01*
X124019758Y-49721418D01*
X124017691Y-49715643D01*
X124016201Y-49709693D01*
X124015301Y-49703626D01*
X124015000Y-49697500D01*
X124015000Y-49572500D01*
X124015301Y-49566374D01*
X124016201Y-49560307D01*
X124017691Y-49554357D01*
X124019758Y-49548582D01*
X124022380Y-49543038D01*
X124025533Y-49537777D01*
X124029187Y-49532850D01*
X124033306Y-49528306D01*
X124037850Y-49524187D01*
X124042777Y-49520533D01*
X124048038Y-49517380D01*
X124053582Y-49514758D01*
X124059357Y-49512691D01*
X124065307Y-49511201D01*
X124071374Y-49510301D01*
X124077500Y-49510000D01*
X124827500Y-49510000D01*
X124833626Y-49510301D01*
G37*
G36*
X125208626Y-48510301D02*
G01*
X125214693Y-48511201D01*
X125220643Y-48512691D01*
X125226418Y-48514758D01*
X125231962Y-48517380D01*
X125237223Y-48520533D01*
X125242150Y-48524187D01*
X125246694Y-48528306D01*
X125250813Y-48532850D01*
X125254467Y-48537777D01*
X125257620Y-48543038D01*
X125260242Y-48548582D01*
X125262309Y-48554357D01*
X125263799Y-48560307D01*
X125264699Y-48566374D01*
X125265000Y-48572500D01*
X125265000Y-49322500D01*
X125264699Y-49328626D01*
X125263799Y-49334693D01*
X125262309Y-49340643D01*
X125260242Y-49346418D01*
X125257620Y-49351962D01*
X125254467Y-49357223D01*
X125250813Y-49362150D01*
X125246694Y-49366694D01*
X125242150Y-49370813D01*
X125237223Y-49374467D01*
X125231962Y-49377620D01*
X125226418Y-49380242D01*
X125220643Y-49382309D01*
X125214693Y-49383799D01*
X125208626Y-49384699D01*
X125202500Y-49385000D01*
X125077500Y-49385000D01*
X125071374Y-49384699D01*
X125065307Y-49383799D01*
X125059357Y-49382309D01*
X125053582Y-49380242D01*
X125048038Y-49377620D01*
X125042777Y-49374467D01*
X125037850Y-49370813D01*
X125033306Y-49366694D01*
X125029187Y-49362150D01*
X125025533Y-49357223D01*
X125022380Y-49351962D01*
X125019758Y-49346418D01*
X125017691Y-49340643D01*
X125016201Y-49334693D01*
X125015301Y-49328626D01*
X125015000Y-49322500D01*
X125015000Y-48572500D01*
X125015301Y-48566374D01*
X125016201Y-48560307D01*
X125017691Y-48554357D01*
X125019758Y-48548582D01*
X125022380Y-48543038D01*
X125025533Y-48537777D01*
X125029187Y-48532850D01*
X125033306Y-48528306D01*
X125037850Y-48524187D01*
X125042777Y-48520533D01*
X125048038Y-48517380D01*
X125053582Y-48514758D01*
X125059357Y-48512691D01*
X125065307Y-48511201D01*
X125071374Y-48510301D01*
X125077500Y-48510000D01*
X125202500Y-48510000D01*
X125208626Y-48510301D01*
G37*
G36*
X125708626Y-48510301D02*
G01*
X125714693Y-48511201D01*
X125720643Y-48512691D01*
X125726418Y-48514758D01*
X125731962Y-48517380D01*
X125737223Y-48520533D01*
X125742150Y-48524187D01*
X125746694Y-48528306D01*
X125750813Y-48532850D01*
X125754467Y-48537777D01*
X125757620Y-48543038D01*
X125760242Y-48548582D01*
X125762309Y-48554357D01*
X125763799Y-48560307D01*
X125764699Y-48566374D01*
X125765000Y-48572500D01*
X125765000Y-49322500D01*
X125764699Y-49328626D01*
X125763799Y-49334693D01*
X125762309Y-49340643D01*
X125760242Y-49346418D01*
X125757620Y-49351962D01*
X125754467Y-49357223D01*
X125750813Y-49362150D01*
X125746694Y-49366694D01*
X125742150Y-49370813D01*
X125737223Y-49374467D01*
X125731962Y-49377620D01*
X125726418Y-49380242D01*
X125720643Y-49382309D01*
X125714693Y-49383799D01*
X125708626Y-49384699D01*
X125702500Y-49385000D01*
X125577500Y-49385000D01*
X125571374Y-49384699D01*
X125565307Y-49383799D01*
X125559357Y-49382309D01*
X125553582Y-49380242D01*
X125548038Y-49377620D01*
X125542777Y-49374467D01*
X125537850Y-49370813D01*
X125533306Y-49366694D01*
X125529187Y-49362150D01*
X125525533Y-49357223D01*
X125522380Y-49351962D01*
X125519758Y-49346418D01*
X125517691Y-49340643D01*
X125516201Y-49334693D01*
X125515301Y-49328626D01*
X125515000Y-49322500D01*
X125515000Y-48572500D01*
X125515301Y-48566374D01*
X125516201Y-48560307D01*
X125517691Y-48554357D01*
X125519758Y-48548582D01*
X125522380Y-48543038D01*
X125525533Y-48537777D01*
X125529187Y-48532850D01*
X125533306Y-48528306D01*
X125537850Y-48524187D01*
X125542777Y-48520533D01*
X125548038Y-48517380D01*
X125553582Y-48514758D01*
X125559357Y-48512691D01*
X125565307Y-48511201D01*
X125571374Y-48510301D01*
X125577500Y-48510000D01*
X125702500Y-48510000D01*
X125708626Y-48510301D01*
G37*
G36*
X126208626Y-48510301D02*
G01*
X126214693Y-48511201D01*
X126220643Y-48512691D01*
X126226418Y-48514758D01*
X126231962Y-48517380D01*
X126237223Y-48520533D01*
X126242150Y-48524187D01*
X126246694Y-48528306D01*
X126250813Y-48532850D01*
X126254467Y-48537777D01*
X126257620Y-48543038D01*
X126260242Y-48548582D01*
X126262309Y-48554357D01*
X126263799Y-48560307D01*
X126264699Y-48566374D01*
X126265000Y-48572500D01*
X126265000Y-49322500D01*
X126264699Y-49328626D01*
X126263799Y-49334693D01*
X126262309Y-49340643D01*
X126260242Y-49346418D01*
X126257620Y-49351962D01*
X126254467Y-49357223D01*
X126250813Y-49362150D01*
X126246694Y-49366694D01*
X126242150Y-49370813D01*
X126237223Y-49374467D01*
X126231962Y-49377620D01*
X126226418Y-49380242D01*
X126220643Y-49382309D01*
X126214693Y-49383799D01*
X126208626Y-49384699D01*
X126202500Y-49385000D01*
X126077500Y-49385000D01*
X126071374Y-49384699D01*
X126065307Y-49383799D01*
X126059357Y-49382309D01*
X126053582Y-49380242D01*
X126048038Y-49377620D01*
X126042777Y-49374467D01*
X126037850Y-49370813D01*
X126033306Y-49366694D01*
X126029187Y-49362150D01*
X126025533Y-49357223D01*
X126022380Y-49351962D01*
X126019758Y-49346418D01*
X126017691Y-49340643D01*
X126016201Y-49334693D01*
X126015301Y-49328626D01*
X126015000Y-49322500D01*
X126015000Y-48572500D01*
X126015301Y-48566374D01*
X126016201Y-48560307D01*
X126017691Y-48554357D01*
X126019758Y-48548582D01*
X126022380Y-48543038D01*
X126025533Y-48537777D01*
X126029187Y-48532850D01*
X126033306Y-48528306D01*
X126037850Y-48524187D01*
X126042777Y-48520533D01*
X126048038Y-48517380D01*
X126053582Y-48514758D01*
X126059357Y-48512691D01*
X126065307Y-48511201D01*
X126071374Y-48510301D01*
X126077500Y-48510000D01*
X126202500Y-48510000D01*
X126208626Y-48510301D01*
G37*
G36*
X126708626Y-48510301D02*
G01*
X126714693Y-48511201D01*
X126720643Y-48512691D01*
X126726418Y-48514758D01*
X126731962Y-48517380D01*
X126737223Y-48520533D01*
X126742150Y-48524187D01*
X126746694Y-48528306D01*
X126750813Y-48532850D01*
X126754467Y-48537777D01*
X126757620Y-48543038D01*
X126760242Y-48548582D01*
X126762309Y-48554357D01*
X126763799Y-48560307D01*
X126764699Y-48566374D01*
X126765000Y-48572500D01*
X126765000Y-49322500D01*
X126764699Y-49328626D01*
X126763799Y-49334693D01*
X126762309Y-49340643D01*
X126760242Y-49346418D01*
X126757620Y-49351962D01*
X126754467Y-49357223D01*
X126750813Y-49362150D01*
X126746694Y-49366694D01*
X126742150Y-49370813D01*
X126737223Y-49374467D01*
X126731962Y-49377620D01*
X126726418Y-49380242D01*
X126720643Y-49382309D01*
X126714693Y-49383799D01*
X126708626Y-49384699D01*
X126702500Y-49385000D01*
X126577500Y-49385000D01*
X126571374Y-49384699D01*
X126565307Y-49383799D01*
X126559357Y-49382309D01*
X126553582Y-49380242D01*
X126548038Y-49377620D01*
X126542777Y-49374467D01*
X126537850Y-49370813D01*
X126533306Y-49366694D01*
X126529187Y-49362150D01*
X126525533Y-49357223D01*
X126522380Y-49351962D01*
X126519758Y-49346418D01*
X126517691Y-49340643D01*
X126516201Y-49334693D01*
X126515301Y-49328626D01*
X126515000Y-49322500D01*
X126515000Y-48572500D01*
X126515301Y-48566374D01*
X126516201Y-48560307D01*
X126517691Y-48554357D01*
X126519758Y-48548582D01*
X126522380Y-48543038D01*
X126525533Y-48537777D01*
X126529187Y-48532850D01*
X126533306Y-48528306D01*
X126537850Y-48524187D01*
X126542777Y-48520533D01*
X126548038Y-48517380D01*
X126553582Y-48514758D01*
X126559357Y-48512691D01*
X126565307Y-48511201D01*
X126571374Y-48510301D01*
X126577500Y-48510000D01*
X126702500Y-48510000D01*
X126708626Y-48510301D01*
G37*
G36*
X127208626Y-48510301D02*
G01*
X127214693Y-48511201D01*
X127220643Y-48512691D01*
X127226418Y-48514758D01*
X127231962Y-48517380D01*
X127237223Y-48520533D01*
X127242150Y-48524187D01*
X127246694Y-48528306D01*
X127250813Y-48532850D01*
X127254467Y-48537777D01*
X127257620Y-48543038D01*
X127260242Y-48548582D01*
X127262309Y-48554357D01*
X127263799Y-48560307D01*
X127264699Y-48566374D01*
X127265000Y-48572500D01*
X127265000Y-49322500D01*
X127264699Y-49328626D01*
X127263799Y-49334693D01*
X127262309Y-49340643D01*
X127260242Y-49346418D01*
X127257620Y-49351962D01*
X127254467Y-49357223D01*
X127250813Y-49362150D01*
X127246694Y-49366694D01*
X127242150Y-49370813D01*
X127237223Y-49374467D01*
X127231962Y-49377620D01*
X127226418Y-49380242D01*
X127220643Y-49382309D01*
X127214693Y-49383799D01*
X127208626Y-49384699D01*
X127202500Y-49385000D01*
X127077500Y-49385000D01*
X127071374Y-49384699D01*
X127065307Y-49383799D01*
X127059357Y-49382309D01*
X127053582Y-49380242D01*
X127048038Y-49377620D01*
X127042777Y-49374467D01*
X127037850Y-49370813D01*
X127033306Y-49366694D01*
X127029187Y-49362150D01*
X127025533Y-49357223D01*
X127022380Y-49351962D01*
X127019758Y-49346418D01*
X127017691Y-49340643D01*
X127016201Y-49334693D01*
X127015301Y-49328626D01*
X127015000Y-49322500D01*
X127015000Y-48572500D01*
X127015301Y-48566374D01*
X127016201Y-48560307D01*
X127017691Y-48554357D01*
X127019758Y-48548582D01*
X127022380Y-48543038D01*
X127025533Y-48537777D01*
X127029187Y-48532850D01*
X127033306Y-48528306D01*
X127037850Y-48524187D01*
X127042777Y-48520533D01*
X127048038Y-48517380D01*
X127053582Y-48514758D01*
X127059357Y-48512691D01*
X127065307Y-48511201D01*
X127071374Y-48510301D01*
X127077500Y-48510000D01*
X127202500Y-48510000D01*
X127208626Y-48510301D01*
G37*
G36*
X127708626Y-48510301D02*
G01*
X127714693Y-48511201D01*
X127720643Y-48512691D01*
X127726418Y-48514758D01*
X127731962Y-48517380D01*
X127737223Y-48520533D01*
X127742150Y-48524187D01*
X127746694Y-48528306D01*
X127750813Y-48532850D01*
X127754467Y-48537777D01*
X127757620Y-48543038D01*
X127760242Y-48548582D01*
X127762309Y-48554357D01*
X127763799Y-48560307D01*
X127764699Y-48566374D01*
X127765000Y-48572500D01*
X127765000Y-49322500D01*
X127764699Y-49328626D01*
X127763799Y-49334693D01*
X127762309Y-49340643D01*
X127760242Y-49346418D01*
X127757620Y-49351962D01*
X127754467Y-49357223D01*
X127750813Y-49362150D01*
X127746694Y-49366694D01*
X127742150Y-49370813D01*
X127737223Y-49374467D01*
X127731962Y-49377620D01*
X127726418Y-49380242D01*
X127720643Y-49382309D01*
X127714693Y-49383799D01*
X127708626Y-49384699D01*
X127702500Y-49385000D01*
X127577500Y-49385000D01*
X127571374Y-49384699D01*
X127565307Y-49383799D01*
X127559357Y-49382309D01*
X127553582Y-49380242D01*
X127548038Y-49377620D01*
X127542777Y-49374467D01*
X127537850Y-49370813D01*
X127533306Y-49366694D01*
X127529187Y-49362150D01*
X127525533Y-49357223D01*
X127522380Y-49351962D01*
X127519758Y-49346418D01*
X127517691Y-49340643D01*
X127516201Y-49334693D01*
X127515301Y-49328626D01*
X127515000Y-49322500D01*
X127515000Y-48572500D01*
X127515301Y-48566374D01*
X127516201Y-48560307D01*
X127517691Y-48554357D01*
X127519758Y-48548582D01*
X127522380Y-48543038D01*
X127525533Y-48537777D01*
X127529187Y-48532850D01*
X127533306Y-48528306D01*
X127537850Y-48524187D01*
X127542777Y-48520533D01*
X127548038Y-48517380D01*
X127553582Y-48514758D01*
X127559357Y-48512691D01*
X127565307Y-48511201D01*
X127571374Y-48510301D01*
X127577500Y-48510000D01*
X127702500Y-48510000D01*
X127708626Y-48510301D01*
G37*
G36*
X128208626Y-48510301D02*
G01*
X128214693Y-48511201D01*
X128220643Y-48512691D01*
X128226418Y-48514758D01*
X128231962Y-48517380D01*
X128237223Y-48520533D01*
X128242150Y-48524187D01*
X128246694Y-48528306D01*
X128250813Y-48532850D01*
X128254467Y-48537777D01*
X128257620Y-48543038D01*
X128260242Y-48548582D01*
X128262309Y-48554357D01*
X128263799Y-48560307D01*
X128264699Y-48566374D01*
X128265000Y-48572500D01*
X128265000Y-49322500D01*
X128264699Y-49328626D01*
X128263799Y-49334693D01*
X128262309Y-49340643D01*
X128260242Y-49346418D01*
X128257620Y-49351962D01*
X128254467Y-49357223D01*
X128250813Y-49362150D01*
X128246694Y-49366694D01*
X128242150Y-49370813D01*
X128237223Y-49374467D01*
X128231962Y-49377620D01*
X128226418Y-49380242D01*
X128220643Y-49382309D01*
X128214693Y-49383799D01*
X128208626Y-49384699D01*
X128202500Y-49385000D01*
X128077500Y-49385000D01*
X128071374Y-49384699D01*
X128065307Y-49383799D01*
X128059357Y-49382309D01*
X128053582Y-49380242D01*
X128048038Y-49377620D01*
X128042777Y-49374467D01*
X128037850Y-49370813D01*
X128033306Y-49366694D01*
X128029187Y-49362150D01*
X128025533Y-49357223D01*
X128022380Y-49351962D01*
X128019758Y-49346418D01*
X128017691Y-49340643D01*
X128016201Y-49334693D01*
X128015301Y-49328626D01*
X128015000Y-49322500D01*
X128015000Y-48572500D01*
X128015301Y-48566374D01*
X128016201Y-48560307D01*
X128017691Y-48554357D01*
X128019758Y-48548582D01*
X128022380Y-48543038D01*
X128025533Y-48537777D01*
X128029187Y-48532850D01*
X128033306Y-48528306D01*
X128037850Y-48524187D01*
X128042777Y-48520533D01*
X128048038Y-48517380D01*
X128053582Y-48514758D01*
X128059357Y-48512691D01*
X128065307Y-48511201D01*
X128071374Y-48510301D01*
X128077500Y-48510000D01*
X128202500Y-48510000D01*
X128208626Y-48510301D01*
G37*
G36*
X128708626Y-48510301D02*
G01*
X128714693Y-48511201D01*
X128720643Y-48512691D01*
X128726418Y-48514758D01*
X128731962Y-48517380D01*
X128737223Y-48520533D01*
X128742150Y-48524187D01*
X128746694Y-48528306D01*
X128750813Y-48532850D01*
X128754467Y-48537777D01*
X128757620Y-48543038D01*
X128760242Y-48548582D01*
X128762309Y-48554357D01*
X128763799Y-48560307D01*
X128764699Y-48566374D01*
X128765000Y-48572500D01*
X128765000Y-49322500D01*
X128764699Y-49328626D01*
X128763799Y-49334693D01*
X128762309Y-49340643D01*
X128760242Y-49346418D01*
X128757620Y-49351962D01*
X128754467Y-49357223D01*
X128750813Y-49362150D01*
X128746694Y-49366694D01*
X128742150Y-49370813D01*
X128737223Y-49374467D01*
X128731962Y-49377620D01*
X128726418Y-49380242D01*
X128720643Y-49382309D01*
X128714693Y-49383799D01*
X128708626Y-49384699D01*
X128702500Y-49385000D01*
X128577500Y-49385000D01*
X128571374Y-49384699D01*
X128565307Y-49383799D01*
X128559357Y-49382309D01*
X128553582Y-49380242D01*
X128548038Y-49377620D01*
X128542777Y-49374467D01*
X128537850Y-49370813D01*
X128533306Y-49366694D01*
X128529187Y-49362150D01*
X128525533Y-49357223D01*
X128522380Y-49351962D01*
X128519758Y-49346418D01*
X128517691Y-49340643D01*
X128516201Y-49334693D01*
X128515301Y-49328626D01*
X128515000Y-49322500D01*
X128515000Y-48572500D01*
X128515301Y-48566374D01*
X128516201Y-48560307D01*
X128517691Y-48554357D01*
X128519758Y-48548582D01*
X128522380Y-48543038D01*
X128525533Y-48537777D01*
X128529187Y-48532850D01*
X128533306Y-48528306D01*
X128537850Y-48524187D01*
X128542777Y-48520533D01*
X128548038Y-48517380D01*
X128553582Y-48514758D01*
X128559357Y-48512691D01*
X128565307Y-48511201D01*
X128571374Y-48510301D01*
X128577500Y-48510000D01*
X128702500Y-48510000D01*
X128708626Y-48510301D01*
G37*
G36*
X129708626Y-49510301D02*
G01*
X129714693Y-49511201D01*
X129720643Y-49512691D01*
X129726418Y-49514758D01*
X129731962Y-49517380D01*
X129737223Y-49520533D01*
X129742150Y-49524187D01*
X129746694Y-49528306D01*
X129750813Y-49532850D01*
X129754467Y-49537777D01*
X129757620Y-49543038D01*
X129760242Y-49548582D01*
X129762309Y-49554357D01*
X129763799Y-49560307D01*
X129764699Y-49566374D01*
X129765000Y-49572500D01*
X129765000Y-49697500D01*
X129764699Y-49703626D01*
X129763799Y-49709693D01*
X129762309Y-49715643D01*
X129760242Y-49721418D01*
X129757620Y-49726962D01*
X129754467Y-49732223D01*
X129750813Y-49737150D01*
X129746694Y-49741694D01*
X129742150Y-49745813D01*
X129737223Y-49749467D01*
X129731962Y-49752620D01*
X129726418Y-49755242D01*
X129720643Y-49757309D01*
X129714693Y-49758799D01*
X129708626Y-49759699D01*
X129702500Y-49760000D01*
X128952500Y-49760000D01*
X128946374Y-49759699D01*
X128940307Y-49758799D01*
X128934357Y-49757309D01*
X128928582Y-49755242D01*
X128923038Y-49752620D01*
X128917777Y-49749467D01*
X128912850Y-49745813D01*
X128908306Y-49741694D01*
X128904187Y-49737150D01*
X128900533Y-49732223D01*
X128897380Y-49726962D01*
X128894758Y-49721418D01*
X128892691Y-49715643D01*
X128891201Y-49709693D01*
X128890301Y-49703626D01*
X128890000Y-49697500D01*
X128890000Y-49572500D01*
X128890301Y-49566374D01*
X128891201Y-49560307D01*
X128892691Y-49554357D01*
X128894758Y-49548582D01*
X128897380Y-49543038D01*
X128900533Y-49537777D01*
X128904187Y-49532850D01*
X128908306Y-49528306D01*
X128912850Y-49524187D01*
X128917777Y-49520533D01*
X128923038Y-49517380D01*
X128928582Y-49514758D01*
X128934357Y-49512691D01*
X128940307Y-49511201D01*
X128946374Y-49510301D01*
X128952500Y-49510000D01*
X129702500Y-49510000D01*
X129708626Y-49510301D01*
G37*
G36*
X129708626Y-50010301D02*
G01*
X129714693Y-50011201D01*
X129720643Y-50012691D01*
X129726418Y-50014758D01*
X129731962Y-50017380D01*
X129737223Y-50020533D01*
X129742150Y-50024187D01*
X129746694Y-50028306D01*
X129750813Y-50032850D01*
X129754467Y-50037777D01*
X129757620Y-50043038D01*
X129760242Y-50048582D01*
X129762309Y-50054357D01*
X129763799Y-50060307D01*
X129764699Y-50066374D01*
X129765000Y-50072500D01*
X129765000Y-50197500D01*
X129764699Y-50203626D01*
X129763799Y-50209693D01*
X129762309Y-50215643D01*
X129760242Y-50221418D01*
X129757620Y-50226962D01*
X129754467Y-50232223D01*
X129750813Y-50237150D01*
X129746694Y-50241694D01*
X129742150Y-50245813D01*
X129737223Y-50249467D01*
X129731962Y-50252620D01*
X129726418Y-50255242D01*
X129720643Y-50257309D01*
X129714693Y-50258799D01*
X129708626Y-50259699D01*
X129702500Y-50260000D01*
X128952500Y-50260000D01*
X128946374Y-50259699D01*
X128940307Y-50258799D01*
X128934357Y-50257309D01*
X128928582Y-50255242D01*
X128923038Y-50252620D01*
X128917777Y-50249467D01*
X128912850Y-50245813D01*
X128908306Y-50241694D01*
X128904187Y-50237150D01*
X128900533Y-50232223D01*
X128897380Y-50226962D01*
X128894758Y-50221418D01*
X128892691Y-50215643D01*
X128891201Y-50209693D01*
X128890301Y-50203626D01*
X128890000Y-50197500D01*
X128890000Y-50072500D01*
X128890301Y-50066374D01*
X128891201Y-50060307D01*
X128892691Y-50054357D01*
X128894758Y-50048582D01*
X128897380Y-50043038D01*
X128900533Y-50037777D01*
X128904187Y-50032850D01*
X128908306Y-50028306D01*
X128912850Y-50024187D01*
X128917777Y-50020533D01*
X128923038Y-50017380D01*
X128928582Y-50014758D01*
X128934357Y-50012691D01*
X128940307Y-50011201D01*
X128946374Y-50010301D01*
X128952500Y-50010000D01*
X129702500Y-50010000D01*
X129708626Y-50010301D01*
G37*
G36*
X129708626Y-50510301D02*
G01*
X129714693Y-50511201D01*
X129720643Y-50512691D01*
X129726418Y-50514758D01*
X129731962Y-50517380D01*
X129737223Y-50520533D01*
X129742150Y-50524187D01*
X129746694Y-50528306D01*
X129750813Y-50532850D01*
X129754467Y-50537777D01*
X129757620Y-50543038D01*
X129760242Y-50548582D01*
X129762309Y-50554357D01*
X129763799Y-50560307D01*
X129764699Y-50566374D01*
X129765000Y-50572500D01*
X129765000Y-50697500D01*
X129764699Y-50703626D01*
X129763799Y-50709693D01*
X129762309Y-50715643D01*
X129760242Y-50721418D01*
X129757620Y-50726962D01*
X129754467Y-50732223D01*
X129750813Y-50737150D01*
X129746694Y-50741694D01*
X129742150Y-50745813D01*
X129737223Y-50749467D01*
X129731962Y-50752620D01*
X129726418Y-50755242D01*
X129720643Y-50757309D01*
X129714693Y-50758799D01*
X129708626Y-50759699D01*
X129702500Y-50760000D01*
X128952500Y-50760000D01*
X128946374Y-50759699D01*
X128940307Y-50758799D01*
X128934357Y-50757309D01*
X128928582Y-50755242D01*
X128923038Y-50752620D01*
X128917777Y-50749467D01*
X128912850Y-50745813D01*
X128908306Y-50741694D01*
X128904187Y-50737150D01*
X128900533Y-50732223D01*
X128897380Y-50726962D01*
X128894758Y-50721418D01*
X128892691Y-50715643D01*
X128891201Y-50709693D01*
X128890301Y-50703626D01*
X128890000Y-50697500D01*
X128890000Y-50572500D01*
X128890301Y-50566374D01*
X128891201Y-50560307D01*
X128892691Y-50554357D01*
X128894758Y-50548582D01*
X128897380Y-50543038D01*
X128900533Y-50537777D01*
X128904187Y-50532850D01*
X128908306Y-50528306D01*
X128912850Y-50524187D01*
X128917777Y-50520533D01*
X128923038Y-50517380D01*
X128928582Y-50514758D01*
X128934357Y-50512691D01*
X128940307Y-50511201D01*
X128946374Y-50510301D01*
X128952500Y-50510000D01*
X129702500Y-50510000D01*
X129708626Y-50510301D01*
G37*
G36*
X129708626Y-51010301D02*
G01*
X129714693Y-51011201D01*
X129720643Y-51012691D01*
X129726418Y-51014758D01*
X129731962Y-51017380D01*
X129737223Y-51020533D01*
X129742150Y-51024187D01*
X129746694Y-51028306D01*
X129750813Y-51032850D01*
X129754467Y-51037777D01*
X129757620Y-51043038D01*
X129760242Y-51048582D01*
X129762309Y-51054357D01*
X129763799Y-51060307D01*
X129764699Y-51066374D01*
X129765000Y-51072500D01*
X129765000Y-51197500D01*
X129764699Y-51203626D01*
X129763799Y-51209693D01*
X129762309Y-51215643D01*
X129760242Y-51221418D01*
X129757620Y-51226962D01*
X129754467Y-51232223D01*
X129750813Y-51237150D01*
X129746694Y-51241694D01*
X129742150Y-51245813D01*
X129737223Y-51249467D01*
X129731962Y-51252620D01*
X129726418Y-51255242D01*
X129720643Y-51257309D01*
X129714693Y-51258799D01*
X129708626Y-51259699D01*
X129702500Y-51260000D01*
X128952500Y-51260000D01*
X128946374Y-51259699D01*
X128940307Y-51258799D01*
X128934357Y-51257309D01*
X128928582Y-51255242D01*
X128923038Y-51252620D01*
X128917777Y-51249467D01*
X128912850Y-51245813D01*
X128908306Y-51241694D01*
X128904187Y-51237150D01*
X128900533Y-51232223D01*
X128897380Y-51226962D01*
X128894758Y-51221418D01*
X128892691Y-51215643D01*
X128891201Y-51209693D01*
X128890301Y-51203626D01*
X128890000Y-51197500D01*
X128890000Y-51072500D01*
X128890301Y-51066374D01*
X128891201Y-51060307D01*
X128892691Y-51054357D01*
X128894758Y-51048582D01*
X128897380Y-51043038D01*
X128900533Y-51037777D01*
X128904187Y-51032850D01*
X128908306Y-51028306D01*
X128912850Y-51024187D01*
X128917777Y-51020533D01*
X128923038Y-51017380D01*
X128928582Y-51014758D01*
X128934357Y-51012691D01*
X128940307Y-51011201D01*
X128946374Y-51010301D01*
X128952500Y-51010000D01*
X129702500Y-51010000D01*
X129708626Y-51010301D01*
G37*
G36*
X129708626Y-51510301D02*
G01*
X129714693Y-51511201D01*
X129720643Y-51512691D01*
X129726418Y-51514758D01*
X129731962Y-51517380D01*
X129737223Y-51520533D01*
X129742150Y-51524187D01*
X129746694Y-51528306D01*
X129750813Y-51532850D01*
X129754467Y-51537777D01*
X129757620Y-51543038D01*
X129760242Y-51548582D01*
X129762309Y-51554357D01*
X129763799Y-51560307D01*
X129764699Y-51566374D01*
X129765000Y-51572500D01*
X129765000Y-51697500D01*
X129764699Y-51703626D01*
X129763799Y-51709693D01*
X129762309Y-51715643D01*
X129760242Y-51721418D01*
X129757620Y-51726962D01*
X129754467Y-51732223D01*
X129750813Y-51737150D01*
X129746694Y-51741694D01*
X129742150Y-51745813D01*
X129737223Y-51749467D01*
X129731962Y-51752620D01*
X129726418Y-51755242D01*
X129720643Y-51757309D01*
X129714693Y-51758799D01*
X129708626Y-51759699D01*
X129702500Y-51760000D01*
X128952500Y-51760000D01*
X128946374Y-51759699D01*
X128940307Y-51758799D01*
X128934357Y-51757309D01*
X128928582Y-51755242D01*
X128923038Y-51752620D01*
X128917777Y-51749467D01*
X128912850Y-51745813D01*
X128908306Y-51741694D01*
X128904187Y-51737150D01*
X128900533Y-51732223D01*
X128897380Y-51726962D01*
X128894758Y-51721418D01*
X128892691Y-51715643D01*
X128891201Y-51709693D01*
X128890301Y-51703626D01*
X128890000Y-51697500D01*
X128890000Y-51572500D01*
X128890301Y-51566374D01*
X128891201Y-51560307D01*
X128892691Y-51554357D01*
X128894758Y-51548582D01*
X128897380Y-51543038D01*
X128900533Y-51537777D01*
X128904187Y-51532850D01*
X128908306Y-51528306D01*
X128912850Y-51524187D01*
X128917777Y-51520533D01*
X128923038Y-51517380D01*
X128928582Y-51514758D01*
X128934357Y-51512691D01*
X128940307Y-51511201D01*
X128946374Y-51510301D01*
X128952500Y-51510000D01*
X129702500Y-51510000D01*
X129708626Y-51510301D01*
G37*
G36*
X129708626Y-52010301D02*
G01*
X129714693Y-52011201D01*
X129720643Y-52012691D01*
X129726418Y-52014758D01*
X129731962Y-52017380D01*
X129737223Y-52020533D01*
X129742150Y-52024187D01*
X129746694Y-52028306D01*
X129750813Y-52032850D01*
X129754467Y-52037777D01*
X129757620Y-52043038D01*
X129760242Y-52048582D01*
X129762309Y-52054357D01*
X129763799Y-52060307D01*
X129764699Y-52066374D01*
X129765000Y-52072500D01*
X129765000Y-52197500D01*
X129764699Y-52203626D01*
X129763799Y-52209693D01*
X129762309Y-52215643D01*
X129760242Y-52221418D01*
X129757620Y-52226962D01*
X129754467Y-52232223D01*
X129750813Y-52237150D01*
X129746694Y-52241694D01*
X129742150Y-52245813D01*
X129737223Y-52249467D01*
X129731962Y-52252620D01*
X129726418Y-52255242D01*
X129720643Y-52257309D01*
X129714693Y-52258799D01*
X129708626Y-52259699D01*
X129702500Y-52260000D01*
X128952500Y-52260000D01*
X128946374Y-52259699D01*
X128940307Y-52258799D01*
X128934357Y-52257309D01*
X128928582Y-52255242D01*
X128923038Y-52252620D01*
X128917777Y-52249467D01*
X128912850Y-52245813D01*
X128908306Y-52241694D01*
X128904187Y-52237150D01*
X128900533Y-52232223D01*
X128897380Y-52226962D01*
X128894758Y-52221418D01*
X128892691Y-52215643D01*
X128891201Y-52209693D01*
X128890301Y-52203626D01*
X128890000Y-52197500D01*
X128890000Y-52072500D01*
X128890301Y-52066374D01*
X128891201Y-52060307D01*
X128892691Y-52054357D01*
X128894758Y-52048582D01*
X128897380Y-52043038D01*
X128900533Y-52037777D01*
X128904187Y-52032850D01*
X128908306Y-52028306D01*
X128912850Y-52024187D01*
X128917777Y-52020533D01*
X128923038Y-52017380D01*
X128928582Y-52014758D01*
X128934357Y-52012691D01*
X128940307Y-52011201D01*
X128946374Y-52010301D01*
X128952500Y-52010000D01*
X129702500Y-52010000D01*
X129708626Y-52010301D01*
G37*
G36*
X129708626Y-52510301D02*
G01*
X129714693Y-52511201D01*
X129720643Y-52512691D01*
X129726418Y-52514758D01*
X129731962Y-52517380D01*
X129737223Y-52520533D01*
X129742150Y-52524187D01*
X129746694Y-52528306D01*
X129750813Y-52532850D01*
X129754467Y-52537777D01*
X129757620Y-52543038D01*
X129760242Y-52548582D01*
X129762309Y-52554357D01*
X129763799Y-52560307D01*
X129764699Y-52566374D01*
X129765000Y-52572500D01*
X129765000Y-52697500D01*
X129764699Y-52703626D01*
X129763799Y-52709693D01*
X129762309Y-52715643D01*
X129760242Y-52721418D01*
X129757620Y-52726962D01*
X129754467Y-52732223D01*
X129750813Y-52737150D01*
X129746694Y-52741694D01*
X129742150Y-52745813D01*
X129737223Y-52749467D01*
X129731962Y-52752620D01*
X129726418Y-52755242D01*
X129720643Y-52757309D01*
X129714693Y-52758799D01*
X129708626Y-52759699D01*
X129702500Y-52760000D01*
X128952500Y-52760000D01*
X128946374Y-52759699D01*
X128940307Y-52758799D01*
X128934357Y-52757309D01*
X128928582Y-52755242D01*
X128923038Y-52752620D01*
X128917777Y-52749467D01*
X128912850Y-52745813D01*
X128908306Y-52741694D01*
X128904187Y-52737150D01*
X128900533Y-52732223D01*
X128897380Y-52726962D01*
X128894758Y-52721418D01*
X128892691Y-52715643D01*
X128891201Y-52709693D01*
X128890301Y-52703626D01*
X128890000Y-52697500D01*
X128890000Y-52572500D01*
X128890301Y-52566374D01*
X128891201Y-52560307D01*
X128892691Y-52554357D01*
X128894758Y-52548582D01*
X128897380Y-52543038D01*
X128900533Y-52537777D01*
X128904187Y-52532850D01*
X128908306Y-52528306D01*
X128912850Y-52524187D01*
X128917777Y-52520533D01*
X128923038Y-52517380D01*
X128928582Y-52514758D01*
X128934357Y-52512691D01*
X128940307Y-52511201D01*
X128946374Y-52510301D01*
X128952500Y-52510000D01*
X129702500Y-52510000D01*
X129708626Y-52510301D01*
G37*
G36*
X129708626Y-53010301D02*
G01*
X129714693Y-53011201D01*
X129720643Y-53012691D01*
X129726418Y-53014758D01*
X129731962Y-53017380D01*
X129737223Y-53020533D01*
X129742150Y-53024187D01*
X129746694Y-53028306D01*
X129750813Y-53032850D01*
X129754467Y-53037777D01*
X129757620Y-53043038D01*
X129760242Y-53048582D01*
X129762309Y-53054357D01*
X129763799Y-53060307D01*
X129764699Y-53066374D01*
X129765000Y-53072500D01*
X129765000Y-53197500D01*
X129764699Y-53203626D01*
X129763799Y-53209693D01*
X129762309Y-53215643D01*
X129760242Y-53221418D01*
X129757620Y-53226962D01*
X129754467Y-53232223D01*
X129750813Y-53237150D01*
X129746694Y-53241694D01*
X129742150Y-53245813D01*
X129737223Y-53249467D01*
X129731962Y-53252620D01*
X129726418Y-53255242D01*
X129720643Y-53257309D01*
X129714693Y-53258799D01*
X129708626Y-53259699D01*
X129702500Y-53260000D01*
X128952500Y-53260000D01*
X128946374Y-53259699D01*
X128940307Y-53258799D01*
X128934357Y-53257309D01*
X128928582Y-53255242D01*
X128923038Y-53252620D01*
X128917777Y-53249467D01*
X128912850Y-53245813D01*
X128908306Y-53241694D01*
X128904187Y-53237150D01*
X128900533Y-53232223D01*
X128897380Y-53226962D01*
X128894758Y-53221418D01*
X128892691Y-53215643D01*
X128891201Y-53209693D01*
X128890301Y-53203626D01*
X128890000Y-53197500D01*
X128890000Y-53072500D01*
X128890301Y-53066374D01*
X128891201Y-53060307D01*
X128892691Y-53054357D01*
X128894758Y-53048582D01*
X128897380Y-53043038D01*
X128900533Y-53037777D01*
X128904187Y-53032850D01*
X128908306Y-53028306D01*
X128912850Y-53024187D01*
X128917777Y-53020533D01*
X128923038Y-53017380D01*
X128928582Y-53014758D01*
X128934357Y-53012691D01*
X128940307Y-53011201D01*
X128946374Y-53010301D01*
X128952500Y-53010000D01*
X129702500Y-53010000D01*
X129708626Y-53010301D01*
G37*
G36*
X125393288Y-49888288D02*
G01*
X125836712Y-49888288D01*
X125836712Y-50155445D01*
X125660445Y-50331712D01*
X125393288Y-50331712D01*
X125393288Y-49888288D01*
G37*
G36*
X125393288Y-52438288D02*
G01*
X125660445Y-52438288D01*
X125836712Y-52614555D01*
X125836712Y-52881712D01*
X125393288Y-52881712D01*
X125393288Y-52438288D01*
G37*
G36*
X127943288Y-50155445D02*
G01*
X127943288Y-49888288D01*
X128386712Y-49888288D01*
X128386712Y-50331712D01*
X128119555Y-50331712D01*
X127943288Y-50155445D01*
G37*
G36*
X127943288Y-52614555D02*
G01*
X128119555Y-52438288D01*
X128386712Y-52438288D01*
X128386712Y-52881712D01*
X127943288Y-52881712D01*
X127943288Y-52614555D01*
G37*
G36*
X125986887Y-50199044D02*
G01*
X125986887Y-49888288D01*
X126793113Y-49888288D01*
X126793113Y-50199044D01*
X126660445Y-50331712D01*
X126119555Y-50331712D01*
X125986887Y-50199044D01*
G37*
G36*
X126986887Y-50199044D02*
G01*
X126986887Y-49888288D01*
X127793113Y-49888288D01*
X127793113Y-50199044D01*
X127660445Y-50331712D01*
X127119555Y-50331712D01*
X126986887Y-50199044D01*
G37*
G36*
X125986887Y-52570956D02*
G01*
X126119555Y-52438288D01*
X126660445Y-52438288D01*
X126793113Y-52570956D01*
X126793113Y-52881712D01*
X125986887Y-52881712D01*
X125986887Y-52570956D01*
G37*
G36*
X126986887Y-52570956D02*
G01*
X127119555Y-52438288D01*
X127660445Y-52438288D01*
X127793113Y-52570956D01*
X127793113Y-52881712D01*
X126986887Y-52881712D01*
X126986887Y-52570956D01*
G37*
G36*
X125393288Y-50481887D02*
G01*
X125704044Y-50481887D01*
X125836712Y-50614555D01*
X125836712Y-51155445D01*
X125704044Y-51288113D01*
X125393288Y-51288113D01*
X125393288Y-50481887D01*
G37*
G36*
X125393288Y-51481887D02*
G01*
X125704044Y-51481887D01*
X125836712Y-51614555D01*
X125836712Y-52155445D01*
X125704044Y-52288113D01*
X125393288Y-52288113D01*
X125393288Y-51481887D01*
G37*
G36*
X127943288Y-51155445D02*
G01*
X127943288Y-50614555D01*
X128075956Y-50481887D01*
X128386712Y-50481887D01*
X128386712Y-51288113D01*
X128075956Y-51288113D01*
X127943288Y-51155445D01*
G37*
G36*
X127943288Y-52155445D02*
G01*
X127943288Y-51614555D01*
X128075956Y-51481887D01*
X128386712Y-51481887D01*
X128386712Y-52288113D01*
X128075956Y-52288113D01*
X127943288Y-52155445D01*
G37*
G36*
X126611313Y-50482858D02*
G01*
X126630879Y-50485760D01*
X126650066Y-50490566D01*
X126668689Y-50497230D01*
X126686570Y-50505686D01*
X126703536Y-50515855D01*
X126719423Y-50527638D01*
X126734079Y-50540921D01*
X126747362Y-50555577D01*
X126759145Y-50571464D01*
X126769314Y-50588430D01*
X126777770Y-50606311D01*
X126784434Y-50624934D01*
X126789240Y-50644121D01*
X126792142Y-50663687D01*
X126793113Y-50683443D01*
X126793113Y-51086557D01*
X126792142Y-51106313D01*
X126789240Y-51125879D01*
X126784434Y-51145066D01*
X126777770Y-51163689D01*
X126769314Y-51181570D01*
X126759145Y-51198536D01*
X126747362Y-51214423D01*
X126734079Y-51229079D01*
X126719423Y-51242362D01*
X126703536Y-51254145D01*
X126686570Y-51264314D01*
X126668689Y-51272770D01*
X126650066Y-51279434D01*
X126630879Y-51284240D01*
X126611313Y-51287142D01*
X126591557Y-51288113D01*
X126188443Y-51288113D01*
X126168687Y-51287142D01*
X126149121Y-51284240D01*
X126129934Y-51279434D01*
X126111311Y-51272770D01*
X126093430Y-51264314D01*
X126076464Y-51254145D01*
X126060577Y-51242362D01*
X126045921Y-51229079D01*
X126032638Y-51214423D01*
X126020855Y-51198536D01*
X126010686Y-51181570D01*
X126002230Y-51163689D01*
X125995566Y-51145066D01*
X125990760Y-51125879D01*
X125987858Y-51106313D01*
X125986887Y-51086557D01*
X125986887Y-50683443D01*
X125987858Y-50663687D01*
X125990760Y-50644121D01*
X125995566Y-50624934D01*
X126002230Y-50606311D01*
X126010686Y-50588430D01*
X126020855Y-50571464D01*
X126032638Y-50555577D01*
X126045921Y-50540921D01*
X126060577Y-50527638D01*
X126076464Y-50515855D01*
X126093430Y-50505686D01*
X126111311Y-50497230D01*
X126129934Y-50490566D01*
X126149121Y-50485760D01*
X126168687Y-50482858D01*
X126188443Y-50481887D01*
X126591557Y-50481887D01*
X126611313Y-50482858D01*
G37*
G36*
X126611313Y-51482858D02*
G01*
X126630879Y-51485760D01*
X126650066Y-51490566D01*
X126668689Y-51497230D01*
X126686570Y-51505686D01*
X126703536Y-51515855D01*
X126719423Y-51527638D01*
X126734079Y-51540921D01*
X126747362Y-51555577D01*
X126759145Y-51571464D01*
X126769314Y-51588430D01*
X126777770Y-51606311D01*
X126784434Y-51624934D01*
X126789240Y-51644121D01*
X126792142Y-51663687D01*
X126793113Y-51683443D01*
X126793113Y-52086557D01*
X126792142Y-52106313D01*
X126789240Y-52125879D01*
X126784434Y-52145066D01*
X126777770Y-52163689D01*
X126769314Y-52181570D01*
X126759145Y-52198536D01*
X126747362Y-52214423D01*
X126734079Y-52229079D01*
X126719423Y-52242362D01*
X126703536Y-52254145D01*
X126686570Y-52264314D01*
X126668689Y-52272770D01*
X126650066Y-52279434D01*
X126630879Y-52284240D01*
X126611313Y-52287142D01*
X126591557Y-52288113D01*
X126188443Y-52288113D01*
X126168687Y-52287142D01*
X126149121Y-52284240D01*
X126129934Y-52279434D01*
X126111311Y-52272770D01*
X126093430Y-52264314D01*
X126076464Y-52254145D01*
X126060577Y-52242362D01*
X126045921Y-52229079D01*
X126032638Y-52214423D01*
X126020855Y-52198536D01*
X126010686Y-52181570D01*
X126002230Y-52163689D01*
X125995566Y-52145066D01*
X125990760Y-52125879D01*
X125987858Y-52106313D01*
X125986887Y-52086557D01*
X125986887Y-51683443D01*
X125987858Y-51663687D01*
X125990760Y-51644121D01*
X125995566Y-51624934D01*
X126002230Y-51606311D01*
X126010686Y-51588430D01*
X126020855Y-51571464D01*
X126032638Y-51555577D01*
X126045921Y-51540921D01*
X126060577Y-51527638D01*
X126076464Y-51515855D01*
X126093430Y-51505686D01*
X126111311Y-51497230D01*
X126129934Y-51490566D01*
X126149121Y-51485760D01*
X126168687Y-51482858D01*
X126188443Y-51481887D01*
X126591557Y-51481887D01*
X126611313Y-51482858D01*
G37*
G36*
X127611313Y-50482858D02*
G01*
X127630879Y-50485760D01*
X127650066Y-50490566D01*
X127668689Y-50497230D01*
X127686570Y-50505686D01*
X127703536Y-50515855D01*
X127719423Y-50527638D01*
X127734079Y-50540921D01*
X127747362Y-50555577D01*
X127759145Y-50571464D01*
X127769314Y-50588430D01*
X127777770Y-50606311D01*
X127784434Y-50624934D01*
X127789240Y-50644121D01*
X127792142Y-50663687D01*
X127793113Y-50683443D01*
X127793113Y-51086557D01*
X127792142Y-51106313D01*
X127789240Y-51125879D01*
X127784434Y-51145066D01*
X127777770Y-51163689D01*
X127769314Y-51181570D01*
X127759145Y-51198536D01*
X127747362Y-51214423D01*
X127734079Y-51229079D01*
X127719423Y-51242362D01*
X127703536Y-51254145D01*
X127686570Y-51264314D01*
X127668689Y-51272770D01*
X127650066Y-51279434D01*
X127630879Y-51284240D01*
X127611313Y-51287142D01*
X127591557Y-51288113D01*
X127188443Y-51288113D01*
X127168687Y-51287142D01*
X127149121Y-51284240D01*
X127129934Y-51279434D01*
X127111311Y-51272770D01*
X127093430Y-51264314D01*
X127076464Y-51254145D01*
X127060577Y-51242362D01*
X127045921Y-51229079D01*
X127032638Y-51214423D01*
X127020855Y-51198536D01*
X127010686Y-51181570D01*
X127002230Y-51163689D01*
X126995566Y-51145066D01*
X126990760Y-51125879D01*
X126987858Y-51106313D01*
X126986887Y-51086557D01*
X126986887Y-50683443D01*
X126987858Y-50663687D01*
X126990760Y-50644121D01*
X126995566Y-50624934D01*
X127002230Y-50606311D01*
X127010686Y-50588430D01*
X127020855Y-50571464D01*
X127032638Y-50555577D01*
X127045921Y-50540921D01*
X127060577Y-50527638D01*
X127076464Y-50515855D01*
X127093430Y-50505686D01*
X127111311Y-50497230D01*
X127129934Y-50490566D01*
X127149121Y-50485760D01*
X127168687Y-50482858D01*
X127188443Y-50481887D01*
X127591557Y-50481887D01*
X127611313Y-50482858D01*
G37*
G36*
X127611313Y-51482858D02*
G01*
X127630879Y-51485760D01*
X127650066Y-51490566D01*
X127668689Y-51497230D01*
X127686570Y-51505686D01*
X127703536Y-51515855D01*
X127719423Y-51527638D01*
X127734079Y-51540921D01*
X127747362Y-51555577D01*
X127759145Y-51571464D01*
X127769314Y-51588430D01*
X127777770Y-51606311D01*
X127784434Y-51624934D01*
X127789240Y-51644121D01*
X127792142Y-51663687D01*
X127793113Y-51683443D01*
X127793113Y-52086557D01*
X127792142Y-52106313D01*
X127789240Y-52125879D01*
X127784434Y-52145066D01*
X127777770Y-52163689D01*
X127769314Y-52181570D01*
X127759145Y-52198536D01*
X127747362Y-52214423D01*
X127734079Y-52229079D01*
X127719423Y-52242362D01*
X127703536Y-52254145D01*
X127686570Y-52264314D01*
X127668689Y-52272770D01*
X127650066Y-52279434D01*
X127630879Y-52284240D01*
X127611313Y-52287142D01*
X127591557Y-52288113D01*
X127188443Y-52288113D01*
X127168687Y-52287142D01*
X127149121Y-52284240D01*
X127129934Y-52279434D01*
X127111311Y-52272770D01*
X127093430Y-52264314D01*
X127076464Y-52254145D01*
X127060577Y-52242362D01*
X127045921Y-52229079D01*
X127032638Y-52214423D01*
X127020855Y-52198536D01*
X127010686Y-52181570D01*
X127002230Y-52163689D01*
X126995566Y-52145066D01*
X126990760Y-52125879D01*
X126987858Y-52106313D01*
X126986887Y-52086557D01*
X126986887Y-51683443D01*
X126987858Y-51663687D01*
X126990760Y-51644121D01*
X126995566Y-51624934D01*
X127002230Y-51606311D01*
X127010686Y-51588430D01*
X127020855Y-51571464D01*
X127032638Y-51555577D01*
X127045921Y-51540921D01*
X127060577Y-51527638D01*
X127076464Y-51515855D01*
X127093430Y-51505686D01*
X127111311Y-51497230D01*
X127129934Y-51490566D01*
X127149121Y-51485760D01*
X127168687Y-51482858D01*
X127188443Y-51481887D01*
X127591557Y-51481887D01*
X127611313Y-51482858D01*
G37*
D14*
X116655000Y-44800000D03*
X117305000Y-44800000D03*
X117955000Y-44800000D03*
X118605000Y-44800000D03*
X119255000Y-44800000D03*
X119905000Y-44800000D03*
X120555000Y-44800000D03*
X121205000Y-44800000D03*
X121205000Y-38900000D03*
X120555000Y-38900000D03*
X119905000Y-38900000D03*
X119255000Y-38900000D03*
X118605000Y-38900000D03*
X117955000Y-38900000D03*
X117305000Y-38900000D03*
X116655000Y-38900000D03*
M02*
