G04 #@! TF.GenerationSoftware,KiCad,Pcbnew,5.1.5-52549c5~84~ubuntu18.04.1*
G04 #@! TF.CreationDate,2020-01-04T20:43:16+00:00*
G04 #@! TF.ProjectId,SX1257_pmod,53583132-3537-45f7-906d-6f642e6b6963,rev?*
G04 #@! TF.SameCoordinates,Original*
G04 #@! TF.FileFunction,Soldermask,Bot*
G04 #@! TF.FilePolarity,Negative*
%FSLAX46Y46*%
G04 Gerber Fmt 4.6, Leading zero omitted, Abs format (unit mm)*
G04 Created by KiCad (PCBNEW 5.1.5-52549c5~84~ubuntu18.04.1) date 2020-01-04 20:43:16*
%MOMM*%
%LPD*%
G04 APERTURE LIST*
%ADD10C,0.100000*%
G04 APERTURE END LIST*
D10*
G36*
X128829000Y-68064000D02*
G01*
X127203000Y-68064000D01*
X127203000Y-63162000D01*
X128829000Y-63162000D01*
X128829000Y-68064000D01*
G37*
G36*
X121717000Y-68064000D02*
G01*
X120091000Y-68064000D01*
X120091000Y-63162000D01*
X121717000Y-63162000D01*
X121717000Y-68064000D01*
G37*
G36*
X116637000Y-68064000D02*
G01*
X115011000Y-68064000D01*
X115011000Y-63162000D01*
X116637000Y-63162000D01*
X116637000Y-68064000D01*
G37*
G36*
X133909000Y-68064000D02*
G01*
X132283000Y-68064000D01*
X132283000Y-63162000D01*
X133909000Y-63162000D01*
X133909000Y-68064000D01*
G37*
G36*
X119011000Y-30111000D02*
G01*
X117209000Y-30111000D01*
X117209000Y-28309000D01*
X119011000Y-28309000D01*
X119011000Y-30111000D01*
G37*
G36*
X128383512Y-28313927D02*
G01*
X128532812Y-28343624D01*
X128696784Y-28411544D01*
X128844354Y-28510147D01*
X128969853Y-28635646D01*
X129068456Y-28783216D01*
X129136376Y-28947188D01*
X129171000Y-29121259D01*
X129171000Y-29298741D01*
X129136376Y-29472812D01*
X129068456Y-29636784D01*
X128969853Y-29784354D01*
X128844354Y-29909853D01*
X128696784Y-30008456D01*
X128532812Y-30076376D01*
X128383512Y-30106073D01*
X128358742Y-30111000D01*
X128181258Y-30111000D01*
X128156488Y-30106073D01*
X128007188Y-30076376D01*
X127843216Y-30008456D01*
X127695646Y-29909853D01*
X127570147Y-29784354D01*
X127471544Y-29636784D01*
X127403624Y-29472812D01*
X127369000Y-29298741D01*
X127369000Y-29121259D01*
X127403624Y-28947188D01*
X127471544Y-28783216D01*
X127570147Y-28635646D01*
X127695646Y-28510147D01*
X127843216Y-28411544D01*
X128007188Y-28343624D01*
X128156488Y-28313927D01*
X128181258Y-28309000D01*
X128358742Y-28309000D01*
X128383512Y-28313927D01*
G37*
G36*
X120763512Y-28313927D02*
G01*
X120912812Y-28343624D01*
X121076784Y-28411544D01*
X121224354Y-28510147D01*
X121349853Y-28635646D01*
X121448456Y-28783216D01*
X121516376Y-28947188D01*
X121551000Y-29121259D01*
X121551000Y-29298741D01*
X121516376Y-29472812D01*
X121448456Y-29636784D01*
X121349853Y-29784354D01*
X121224354Y-29909853D01*
X121076784Y-30008456D01*
X120912812Y-30076376D01*
X120763512Y-30106073D01*
X120738742Y-30111000D01*
X120561258Y-30111000D01*
X120536488Y-30106073D01*
X120387188Y-30076376D01*
X120223216Y-30008456D01*
X120075646Y-29909853D01*
X119950147Y-29784354D01*
X119851544Y-29636784D01*
X119783624Y-29472812D01*
X119749000Y-29298741D01*
X119749000Y-29121259D01*
X119783624Y-28947188D01*
X119851544Y-28783216D01*
X119950147Y-28635646D01*
X120075646Y-28510147D01*
X120223216Y-28411544D01*
X120387188Y-28343624D01*
X120536488Y-28313927D01*
X120561258Y-28309000D01*
X120738742Y-28309000D01*
X120763512Y-28313927D01*
G37*
G36*
X123303512Y-28313927D02*
G01*
X123452812Y-28343624D01*
X123616784Y-28411544D01*
X123764354Y-28510147D01*
X123889853Y-28635646D01*
X123988456Y-28783216D01*
X124056376Y-28947188D01*
X124091000Y-29121259D01*
X124091000Y-29298741D01*
X124056376Y-29472812D01*
X123988456Y-29636784D01*
X123889853Y-29784354D01*
X123764354Y-29909853D01*
X123616784Y-30008456D01*
X123452812Y-30076376D01*
X123303512Y-30106073D01*
X123278742Y-30111000D01*
X123101258Y-30111000D01*
X123076488Y-30106073D01*
X122927188Y-30076376D01*
X122763216Y-30008456D01*
X122615646Y-29909853D01*
X122490147Y-29784354D01*
X122391544Y-29636784D01*
X122323624Y-29472812D01*
X122289000Y-29298741D01*
X122289000Y-29121259D01*
X122323624Y-28947188D01*
X122391544Y-28783216D01*
X122490147Y-28635646D01*
X122615646Y-28510147D01*
X122763216Y-28411544D01*
X122927188Y-28343624D01*
X123076488Y-28313927D01*
X123101258Y-28309000D01*
X123278742Y-28309000D01*
X123303512Y-28313927D01*
G37*
G36*
X125843512Y-28313927D02*
G01*
X125992812Y-28343624D01*
X126156784Y-28411544D01*
X126304354Y-28510147D01*
X126429853Y-28635646D01*
X126528456Y-28783216D01*
X126596376Y-28947188D01*
X126631000Y-29121259D01*
X126631000Y-29298741D01*
X126596376Y-29472812D01*
X126528456Y-29636784D01*
X126429853Y-29784354D01*
X126304354Y-29909853D01*
X126156784Y-30008456D01*
X125992812Y-30076376D01*
X125843512Y-30106073D01*
X125818742Y-30111000D01*
X125641258Y-30111000D01*
X125616488Y-30106073D01*
X125467188Y-30076376D01*
X125303216Y-30008456D01*
X125155646Y-29909853D01*
X125030147Y-29784354D01*
X124931544Y-29636784D01*
X124863624Y-29472812D01*
X124829000Y-29298741D01*
X124829000Y-29121259D01*
X124863624Y-28947188D01*
X124931544Y-28783216D01*
X125030147Y-28635646D01*
X125155646Y-28510147D01*
X125303216Y-28411544D01*
X125467188Y-28343624D01*
X125616488Y-28313927D01*
X125641258Y-28309000D01*
X125818742Y-28309000D01*
X125843512Y-28313927D01*
G37*
G36*
X130923512Y-28313927D02*
G01*
X131072812Y-28343624D01*
X131236784Y-28411544D01*
X131384354Y-28510147D01*
X131509853Y-28635646D01*
X131608456Y-28783216D01*
X131676376Y-28947188D01*
X131711000Y-29121259D01*
X131711000Y-29298741D01*
X131676376Y-29472812D01*
X131608456Y-29636784D01*
X131509853Y-29784354D01*
X131384354Y-29909853D01*
X131236784Y-30008456D01*
X131072812Y-30076376D01*
X130923512Y-30106073D01*
X130898742Y-30111000D01*
X130721258Y-30111000D01*
X130696488Y-30106073D01*
X130547188Y-30076376D01*
X130383216Y-30008456D01*
X130235646Y-29909853D01*
X130110147Y-29784354D01*
X130011544Y-29636784D01*
X129943624Y-29472812D01*
X129909000Y-29298741D01*
X129909000Y-29121259D01*
X129943624Y-28947188D01*
X130011544Y-28783216D01*
X130110147Y-28635646D01*
X130235646Y-28510147D01*
X130383216Y-28411544D01*
X130547188Y-28343624D01*
X130696488Y-28313927D01*
X130721258Y-28309000D01*
X130898742Y-28309000D01*
X130923512Y-28313927D01*
G37*
G36*
X118223512Y-25773927D02*
G01*
X118372812Y-25803624D01*
X118536784Y-25871544D01*
X118684354Y-25970147D01*
X118809853Y-26095646D01*
X118908456Y-26243216D01*
X118976376Y-26407188D01*
X119011000Y-26581259D01*
X119011000Y-26758741D01*
X118976376Y-26932812D01*
X118908456Y-27096784D01*
X118809853Y-27244354D01*
X118684354Y-27369853D01*
X118536784Y-27468456D01*
X118372812Y-27536376D01*
X118223512Y-27566073D01*
X118198742Y-27571000D01*
X118021258Y-27571000D01*
X117996488Y-27566073D01*
X117847188Y-27536376D01*
X117683216Y-27468456D01*
X117535646Y-27369853D01*
X117410147Y-27244354D01*
X117311544Y-27096784D01*
X117243624Y-26932812D01*
X117209000Y-26758741D01*
X117209000Y-26581259D01*
X117243624Y-26407188D01*
X117311544Y-26243216D01*
X117410147Y-26095646D01*
X117535646Y-25970147D01*
X117683216Y-25871544D01*
X117847188Y-25803624D01*
X117996488Y-25773927D01*
X118021258Y-25769000D01*
X118198742Y-25769000D01*
X118223512Y-25773927D01*
G37*
G36*
X120763512Y-25773927D02*
G01*
X120912812Y-25803624D01*
X121076784Y-25871544D01*
X121224354Y-25970147D01*
X121349853Y-26095646D01*
X121448456Y-26243216D01*
X121516376Y-26407188D01*
X121551000Y-26581259D01*
X121551000Y-26758741D01*
X121516376Y-26932812D01*
X121448456Y-27096784D01*
X121349853Y-27244354D01*
X121224354Y-27369853D01*
X121076784Y-27468456D01*
X120912812Y-27536376D01*
X120763512Y-27566073D01*
X120738742Y-27571000D01*
X120561258Y-27571000D01*
X120536488Y-27566073D01*
X120387188Y-27536376D01*
X120223216Y-27468456D01*
X120075646Y-27369853D01*
X119950147Y-27244354D01*
X119851544Y-27096784D01*
X119783624Y-26932812D01*
X119749000Y-26758741D01*
X119749000Y-26581259D01*
X119783624Y-26407188D01*
X119851544Y-26243216D01*
X119950147Y-26095646D01*
X120075646Y-25970147D01*
X120223216Y-25871544D01*
X120387188Y-25803624D01*
X120536488Y-25773927D01*
X120561258Y-25769000D01*
X120738742Y-25769000D01*
X120763512Y-25773927D01*
G37*
G36*
X123303512Y-25773927D02*
G01*
X123452812Y-25803624D01*
X123616784Y-25871544D01*
X123764354Y-25970147D01*
X123889853Y-26095646D01*
X123988456Y-26243216D01*
X124056376Y-26407188D01*
X124091000Y-26581259D01*
X124091000Y-26758741D01*
X124056376Y-26932812D01*
X123988456Y-27096784D01*
X123889853Y-27244354D01*
X123764354Y-27369853D01*
X123616784Y-27468456D01*
X123452812Y-27536376D01*
X123303512Y-27566073D01*
X123278742Y-27571000D01*
X123101258Y-27571000D01*
X123076488Y-27566073D01*
X122927188Y-27536376D01*
X122763216Y-27468456D01*
X122615646Y-27369853D01*
X122490147Y-27244354D01*
X122391544Y-27096784D01*
X122323624Y-26932812D01*
X122289000Y-26758741D01*
X122289000Y-26581259D01*
X122323624Y-26407188D01*
X122391544Y-26243216D01*
X122490147Y-26095646D01*
X122615646Y-25970147D01*
X122763216Y-25871544D01*
X122927188Y-25803624D01*
X123076488Y-25773927D01*
X123101258Y-25769000D01*
X123278742Y-25769000D01*
X123303512Y-25773927D01*
G37*
G36*
X125843512Y-25773927D02*
G01*
X125992812Y-25803624D01*
X126156784Y-25871544D01*
X126304354Y-25970147D01*
X126429853Y-26095646D01*
X126528456Y-26243216D01*
X126596376Y-26407188D01*
X126631000Y-26581259D01*
X126631000Y-26758741D01*
X126596376Y-26932812D01*
X126528456Y-27096784D01*
X126429853Y-27244354D01*
X126304354Y-27369853D01*
X126156784Y-27468456D01*
X125992812Y-27536376D01*
X125843512Y-27566073D01*
X125818742Y-27571000D01*
X125641258Y-27571000D01*
X125616488Y-27566073D01*
X125467188Y-27536376D01*
X125303216Y-27468456D01*
X125155646Y-27369853D01*
X125030147Y-27244354D01*
X124931544Y-27096784D01*
X124863624Y-26932812D01*
X124829000Y-26758741D01*
X124829000Y-26581259D01*
X124863624Y-26407188D01*
X124931544Y-26243216D01*
X125030147Y-26095646D01*
X125155646Y-25970147D01*
X125303216Y-25871544D01*
X125467188Y-25803624D01*
X125616488Y-25773927D01*
X125641258Y-25769000D01*
X125818742Y-25769000D01*
X125843512Y-25773927D01*
G37*
G36*
X130923512Y-25773927D02*
G01*
X131072812Y-25803624D01*
X131236784Y-25871544D01*
X131384354Y-25970147D01*
X131509853Y-26095646D01*
X131608456Y-26243216D01*
X131676376Y-26407188D01*
X131711000Y-26581259D01*
X131711000Y-26758741D01*
X131676376Y-26932812D01*
X131608456Y-27096784D01*
X131509853Y-27244354D01*
X131384354Y-27369853D01*
X131236784Y-27468456D01*
X131072812Y-27536376D01*
X130923512Y-27566073D01*
X130898742Y-27571000D01*
X130721258Y-27571000D01*
X130696488Y-27566073D01*
X130547188Y-27536376D01*
X130383216Y-27468456D01*
X130235646Y-27369853D01*
X130110147Y-27244354D01*
X130011544Y-27096784D01*
X129943624Y-26932812D01*
X129909000Y-26758741D01*
X129909000Y-26581259D01*
X129943624Y-26407188D01*
X130011544Y-26243216D01*
X130110147Y-26095646D01*
X130235646Y-25970147D01*
X130383216Y-25871544D01*
X130547188Y-25803624D01*
X130696488Y-25773927D01*
X130721258Y-25769000D01*
X130898742Y-25769000D01*
X130923512Y-25773927D01*
G37*
G36*
X128383512Y-25773927D02*
G01*
X128532812Y-25803624D01*
X128696784Y-25871544D01*
X128844354Y-25970147D01*
X128969853Y-26095646D01*
X129068456Y-26243216D01*
X129136376Y-26407188D01*
X129171000Y-26581259D01*
X129171000Y-26758741D01*
X129136376Y-26932812D01*
X129068456Y-27096784D01*
X128969853Y-27244354D01*
X128844354Y-27369853D01*
X128696784Y-27468456D01*
X128532812Y-27536376D01*
X128383512Y-27566073D01*
X128358742Y-27571000D01*
X128181258Y-27571000D01*
X128156488Y-27566073D01*
X128007188Y-27536376D01*
X127843216Y-27468456D01*
X127695646Y-27369853D01*
X127570147Y-27244354D01*
X127471544Y-27096784D01*
X127403624Y-26932812D01*
X127369000Y-26758741D01*
X127369000Y-26581259D01*
X127403624Y-26407188D01*
X127471544Y-26243216D01*
X127570147Y-26095646D01*
X127695646Y-25970147D01*
X127843216Y-25871544D01*
X128007188Y-25803624D01*
X128156488Y-25773927D01*
X128181258Y-25769000D01*
X128358742Y-25769000D01*
X128383512Y-25773927D01*
G37*
M02*
