M48
; DRILL file {KiCad 5.1.5-52549c5~84~ubuntu18.04.1} date Sat 04 Jan 2020 20:43:12 GMT
; FORMAT={-:-/ absolute / inch / decimal}
; #@! TF.CreationDate,2020-01-04T20:43:12+00:00
; #@! TF.GenerationSoftware,Kicad,Pcbnew,5.1.5-52549c5~84~ubuntu18.04.1
; #@! TF.FileFunction,Plated,1,4,PTH
FMAT,2
INCH
T1C0.0079
T2C0.0157
T3C0.0394
%
G90
G05
T1
X4.9563Y-1.9837
X4.9563Y-2.023
X4.9563Y-2.0624
X4.9957Y-1.9837
X4.9957Y-2.023
X4.9957Y-2.0624
X5.035Y-1.9837
X5.035Y-2.023
X5.035Y-2.0624
T2
X4.5522Y-1.9242
X4.56Y-2.505
X4.56Y-2.555
X4.56Y-2.605
X4.56Y-2.655
X4.5719Y-1.4459
X4.5807Y-2.3396
X4.5807Y-2.3789
X4.6189Y-1.7
X4.6476Y-1.8317
X4.6661Y-1.6969
X4.6811Y-1.3661
X4.6949Y-1.4459
X4.7244Y-1.3661
X4.7335Y-1.8996
X4.7406Y-1.8327
X4.7453Y-2.1421
X4.7461Y-1.6984
X4.76Y-2.505
X4.76Y-2.555
X4.76Y-2.605
X4.76Y-2.655
X4.7677Y-1.3661
X4.7866Y-1.7
X4.811Y-1.3661
X4.815Y-1.5827
X4.8657Y-2.2827
X4.8858Y-1.812
X4.8937Y-1.8878
X4.9437Y-2.2358
X5.0425Y-2.505
X5.0425Y-2.555
X5.0425Y-2.605
X5.0425Y-2.655
X5.0492Y-1.2549
X5.076Y-2.2193
X5.0906Y-1.3258
X5.1035Y-2.1358
X5.137Y-1.9409
X5.1407Y-1.8209
X5.1417Y-1.6978
X5.1478Y-2.0723
X5.1642Y-1.3809
X5.1919Y-1.2234
X5.2205Y-1.3789
X5.2244Y-2.3307
X5.2425Y-2.505
X5.2425Y-2.555
X5.2425Y-2.605
X5.2425Y-2.655
X5.2441Y-1.4695
X5.2561Y-1.9715
X5.2571Y-2.0138
X5.2571Y-2.0531
X5.2571Y-2.0925
X5.2571Y-2.1368
X5.26Y-1.8297
X5.261Y-1.8799
T3
X4.65Y-1.05
X4.65Y-1.15
X4.75Y-1.05
X4.75Y-1.15
X4.85Y-1.05
X4.85Y-1.15
X4.95Y-1.05
X4.95Y-1.15
X5.05Y-1.05
X5.05Y-1.15
X5.15Y-1.05
X5.15Y-1.15
T0
M30
