G04 #@! TF.GenerationSoftware,KiCad,Pcbnew,5.1.5-52549c5~84~ubuntu18.04.1*
G04 #@! TF.CreationDate,2020-01-04T20:43:16+00:00*
G04 #@! TF.ProjectId,SX1257_pmod,53583132-3537-45f7-906d-6f642e6b6963,rev?*
G04 #@! TF.SameCoordinates,Original*
G04 #@! TF.FileFunction,Legend,Top*
G04 #@! TF.FilePolarity,Positive*
%FSLAX46Y46*%
G04 Gerber Fmt 4.6, Leading zero omitted, Abs format (unit mm)*
G04 Created by KiCad (PCBNEW 5.1.5-52549c5~84~ubuntu18.04.1) date 2020-01-04 20:43:16*
%MOMM*%
%LPD*%
G04 APERTURE LIST*
%ADD10C,0.254000*%
%ADD11C,0.300000*%
%ADD12C,0.120000*%
%ADD13C,0.150000*%
G04 APERTURE END LIST*
D10*
X125222000Y-67310000D02*
X125730000Y-66548000D01*
X125222000Y-67310000D02*
X125222000Y-64262000D01*
X124968000Y-66548000D02*
X125222000Y-67310000D01*
X124714000Y-66548000D02*
X125222000Y-67310000D01*
X125730000Y-66548000D02*
X124714000Y-66548000D01*
X125222000Y-67310000D02*
X125476000Y-66548000D01*
X125476000Y-66548000D02*
X124968000Y-66548000D01*
X123952000Y-65024000D02*
X123698000Y-64262000D01*
X123444000Y-65024000D02*
X123952000Y-65024000D01*
X123698000Y-64262000D02*
X123444000Y-65024000D01*
X124206000Y-65024000D02*
X123698000Y-64262000D01*
X123190000Y-65024000D02*
X124206000Y-65024000D01*
X123698000Y-64262000D02*
X123190000Y-65024000D01*
X123698000Y-64262000D02*
X123698000Y-67310000D01*
D11*
X121670000Y-62654571D02*
X121170000Y-61940285D01*
X120812857Y-62654571D02*
X120812857Y-61154571D01*
X121384285Y-61154571D01*
X121527142Y-61226000D01*
X121598571Y-61297428D01*
X121670000Y-61440285D01*
X121670000Y-61654571D01*
X121598571Y-61797428D01*
X121527142Y-61868857D01*
X121384285Y-61940285D01*
X120812857Y-61940285D01*
X122170000Y-61154571D02*
X123170000Y-62654571D01*
X123170000Y-61154571D02*
X122170000Y-62654571D01*
X125857142Y-61154571D02*
X126714285Y-61154571D01*
X126285714Y-62654571D02*
X126285714Y-61154571D01*
X127071428Y-61154571D02*
X128071428Y-62654571D01*
X128071428Y-61154571D02*
X127071428Y-62654571D01*
X118245714Y-77621428D02*
X118317142Y-77550000D01*
X118460000Y-77478571D01*
X118817142Y-77478571D01*
X118960000Y-77550000D01*
X119031428Y-77621428D01*
X119102857Y-77764285D01*
X119102857Y-77907142D01*
X119031428Y-78121428D01*
X118174285Y-78978571D01*
X119102857Y-78978571D01*
X120031428Y-77478571D02*
X120174285Y-77478571D01*
X120317142Y-77550000D01*
X120388571Y-77621428D01*
X120460000Y-77764285D01*
X120531428Y-78050000D01*
X120531428Y-78407142D01*
X120460000Y-78692857D01*
X120388571Y-78835714D01*
X120317142Y-78907142D01*
X120174285Y-78978571D01*
X120031428Y-78978571D01*
X119888571Y-78907142D01*
X119817142Y-78835714D01*
X119745714Y-78692857D01*
X119674285Y-78407142D01*
X119674285Y-78050000D01*
X119745714Y-77764285D01*
X119817142Y-77621428D01*
X119888571Y-77550000D01*
X120031428Y-77478571D01*
X121174285Y-78835714D02*
X121245714Y-78907142D01*
X121174285Y-78978571D01*
X121102857Y-78907142D01*
X121174285Y-78835714D01*
X121174285Y-78978571D01*
X121745714Y-77478571D02*
X122674285Y-77478571D01*
X122174285Y-78050000D01*
X122388571Y-78050000D01*
X122531428Y-78121428D01*
X122602857Y-78192857D01*
X122674285Y-78335714D01*
X122674285Y-78692857D01*
X122602857Y-78835714D01*
X122531428Y-78907142D01*
X122388571Y-78978571D01*
X121960000Y-78978571D01*
X121817142Y-78907142D01*
X121745714Y-78835714D01*
X123245714Y-77621428D02*
X123317142Y-77550000D01*
X123460000Y-77478571D01*
X123817142Y-77478571D01*
X123960000Y-77550000D01*
X124031428Y-77621428D01*
X124102857Y-77764285D01*
X124102857Y-77907142D01*
X124031428Y-78121428D01*
X123174285Y-78978571D01*
X124102857Y-78978571D01*
X125031428Y-77478571D02*
X125174285Y-77478571D01*
X125317142Y-77550000D01*
X125388571Y-77621428D01*
X125460000Y-77764285D01*
X125531428Y-78050000D01*
X125531428Y-78407142D01*
X125460000Y-78692857D01*
X125388571Y-78835714D01*
X125317142Y-78907142D01*
X125174285Y-78978571D01*
X125031428Y-78978571D01*
X124888571Y-78907142D01*
X124817142Y-78835714D01*
X124745714Y-78692857D01*
X124674285Y-78407142D01*
X124674285Y-78050000D01*
X124745714Y-77764285D01*
X124817142Y-77621428D01*
X124888571Y-77550000D01*
X125031428Y-77478571D01*
X127317142Y-78978571D02*
X127317142Y-77978571D01*
X127317142Y-78121428D02*
X127388571Y-78050000D01*
X127531428Y-77978571D01*
X127745714Y-77978571D01*
X127888571Y-78050000D01*
X127960000Y-78192857D01*
X127960000Y-78978571D01*
X127960000Y-78192857D02*
X128031428Y-78050000D01*
X128174285Y-77978571D01*
X128388571Y-77978571D01*
X128531428Y-78050000D01*
X128602857Y-78192857D01*
X128602857Y-78978571D01*
X129317142Y-78978571D02*
X129317142Y-77978571D01*
X129317142Y-78121428D02*
X129388571Y-78050000D01*
X129531428Y-77978571D01*
X129745714Y-77978571D01*
X129888571Y-78050000D01*
X129960000Y-78192857D01*
X129960000Y-78978571D01*
X129960000Y-78192857D02*
X130031428Y-78050000D01*
X130174285Y-77978571D01*
X130388571Y-77978571D01*
X130531428Y-78050000D01*
X130602857Y-78192857D01*
X130602857Y-78978571D01*
X114300000Y-76200000D02*
X134620000Y-76200000D01*
X114300000Y-22860000D02*
X114300000Y-76786421D01*
X134620000Y-22860000D02*
X134620000Y-76786421D01*
X134620000Y-76200000D02*
X133493496Y-76786421D01*
X134620000Y-76200000D02*
X133493496Y-75613579D01*
X114300000Y-76200000D02*
X115426504Y-76786421D01*
X114300000Y-76200000D02*
X115426504Y-75613579D01*
X119567142Y-81796571D02*
X119710000Y-81796571D01*
X119852857Y-81868000D01*
X119924285Y-81939428D01*
X119995714Y-82082285D01*
X120067142Y-82368000D01*
X120067142Y-82725142D01*
X119995714Y-83010857D01*
X119924285Y-83153714D01*
X119852857Y-83225142D01*
X119710000Y-83296571D01*
X119567142Y-83296571D01*
X119424285Y-83225142D01*
X119352857Y-83153714D01*
X119281428Y-83010857D01*
X119210000Y-82725142D01*
X119210000Y-82368000D01*
X119281428Y-82082285D01*
X119352857Y-81939428D01*
X119424285Y-81868000D01*
X119567142Y-81796571D01*
X120710000Y-83153714D02*
X120781428Y-83225142D01*
X120710000Y-83296571D01*
X120638571Y-83225142D01*
X120710000Y-83153714D01*
X120710000Y-83296571D01*
X121638571Y-82439428D02*
X121495714Y-82368000D01*
X121424285Y-82296571D01*
X121352857Y-82153714D01*
X121352857Y-82082285D01*
X121424285Y-81939428D01*
X121495714Y-81868000D01*
X121638571Y-81796571D01*
X121924285Y-81796571D01*
X122067142Y-81868000D01*
X122138571Y-81939428D01*
X122210000Y-82082285D01*
X122210000Y-82153714D01*
X122138571Y-82296571D01*
X122067142Y-82368000D01*
X121924285Y-82439428D01*
X121638571Y-82439428D01*
X121495714Y-82510857D01*
X121424285Y-82582285D01*
X121352857Y-82725142D01*
X121352857Y-83010857D01*
X121424285Y-83153714D01*
X121495714Y-83225142D01*
X121638571Y-83296571D01*
X121924285Y-83296571D01*
X122067142Y-83225142D01*
X122138571Y-83153714D01*
X122210000Y-83010857D01*
X122210000Y-82725142D01*
X122138571Y-82582285D01*
X122067142Y-82510857D01*
X121924285Y-82439428D01*
X123138571Y-81796571D02*
X123281428Y-81796571D01*
X123424285Y-81868000D01*
X123495714Y-81939428D01*
X123567142Y-82082285D01*
X123638571Y-82368000D01*
X123638571Y-82725142D01*
X123567142Y-83010857D01*
X123495714Y-83153714D01*
X123424285Y-83225142D01*
X123281428Y-83296571D01*
X123138571Y-83296571D01*
X122995714Y-83225142D01*
X122924285Y-83153714D01*
X122852857Y-83010857D01*
X122781428Y-82725142D01*
X122781428Y-82368000D01*
X122852857Y-82082285D01*
X122924285Y-81939428D01*
X122995714Y-81868000D01*
X123138571Y-81796571D01*
X124567142Y-81796571D02*
X124710000Y-81796571D01*
X124852857Y-81868000D01*
X124924285Y-81939428D01*
X124995714Y-82082285D01*
X125067142Y-82368000D01*
X125067142Y-82725142D01*
X124995714Y-83010857D01*
X124924285Y-83153714D01*
X124852857Y-83225142D01*
X124710000Y-83296571D01*
X124567142Y-83296571D01*
X124424285Y-83225142D01*
X124352857Y-83153714D01*
X124281428Y-83010857D01*
X124210000Y-82725142D01*
X124210000Y-82368000D01*
X124281428Y-82082285D01*
X124352857Y-81939428D01*
X124424285Y-81868000D01*
X124567142Y-81796571D01*
X125995714Y-81796571D02*
X126138571Y-81796571D01*
X126281428Y-81868000D01*
X126352857Y-81939428D01*
X126424285Y-82082285D01*
X126495714Y-82368000D01*
X126495714Y-82725142D01*
X126424285Y-83010857D01*
X126352857Y-83153714D01*
X126281428Y-83225142D01*
X126138571Y-83296571D01*
X125995714Y-83296571D01*
X125852857Y-83225142D01*
X125781428Y-83153714D01*
X125710000Y-83010857D01*
X125638571Y-82725142D01*
X125638571Y-82368000D01*
X125710000Y-82082285D01*
X125781428Y-81939428D01*
X125852857Y-81868000D01*
X125995714Y-81796571D01*
X128281428Y-83296571D02*
X128281428Y-82296571D01*
X128281428Y-81796571D02*
X128210000Y-81868000D01*
X128281428Y-81939428D01*
X128352857Y-81868000D01*
X128281428Y-81796571D01*
X128281428Y-81939428D01*
X128995714Y-82296571D02*
X128995714Y-83296571D01*
X128995714Y-82439428D02*
X129067142Y-82368000D01*
X129210000Y-82296571D01*
X129424285Y-82296571D01*
X129567142Y-82368000D01*
X129638571Y-82510857D01*
X129638571Y-83296571D01*
X114300000Y-80518000D02*
X134620000Y-80518000D01*
X114300000Y-22860000D02*
X114300000Y-81104421D01*
X134620000Y-22860000D02*
X134620000Y-81104421D01*
X134620000Y-80518000D02*
X133493496Y-81104421D01*
X134620000Y-80518000D02*
X133493496Y-79931579D01*
X114300000Y-80518000D02*
X115426504Y-81104421D01*
X114300000Y-80518000D02*
X115426504Y-79931579D01*
X105155428Y-40220000D02*
X104155428Y-40220000D01*
X105726857Y-39862857D02*
X104655428Y-39505714D01*
X104655428Y-40434285D01*
X105655428Y-41720000D02*
X105655428Y-41005714D01*
X104941142Y-40934285D01*
X105012571Y-41005714D01*
X105084000Y-41148571D01*
X105084000Y-41505714D01*
X105012571Y-41648571D01*
X104941142Y-41720000D01*
X104798285Y-41791428D01*
X104441142Y-41791428D01*
X104298285Y-41720000D01*
X104226857Y-41648571D01*
X104155428Y-41505714D01*
X104155428Y-41148571D01*
X104226857Y-41005714D01*
X104298285Y-40934285D01*
X104298285Y-42434285D02*
X104226857Y-42505714D01*
X104155428Y-42434285D01*
X104226857Y-42362857D01*
X104298285Y-42434285D01*
X104155428Y-42434285D01*
X105655428Y-43005714D02*
X105655428Y-44005714D01*
X104155428Y-43362857D01*
X105512571Y-44505714D02*
X105584000Y-44577142D01*
X105655428Y-44720000D01*
X105655428Y-45077142D01*
X105584000Y-45220000D01*
X105512571Y-45291428D01*
X105369714Y-45362857D01*
X105226857Y-45362857D01*
X105012571Y-45291428D01*
X104155428Y-44434285D01*
X104155428Y-45362857D01*
X105655428Y-46291428D02*
X105655428Y-46434285D01*
X105584000Y-46577142D01*
X105512571Y-46648571D01*
X105369714Y-46720000D01*
X105084000Y-46791428D01*
X104726857Y-46791428D01*
X104441142Y-46720000D01*
X104298285Y-46648571D01*
X104226857Y-46577142D01*
X104155428Y-46434285D01*
X104155428Y-46291428D01*
X104226857Y-46148571D01*
X104298285Y-46077142D01*
X104441142Y-46005714D01*
X104726857Y-45934285D01*
X105084000Y-45934285D01*
X105369714Y-46005714D01*
X105512571Y-46077142D01*
X105584000Y-46148571D01*
X105655428Y-46291428D01*
X104155428Y-48577142D02*
X105155428Y-48577142D01*
X105012571Y-48577142D02*
X105084000Y-48648571D01*
X105155428Y-48791428D01*
X105155428Y-49005714D01*
X105084000Y-49148571D01*
X104941142Y-49220000D01*
X104155428Y-49220000D01*
X104941142Y-49220000D02*
X105084000Y-49291428D01*
X105155428Y-49434285D01*
X105155428Y-49648571D01*
X105084000Y-49791428D01*
X104941142Y-49862857D01*
X104155428Y-49862857D01*
X104155428Y-50577142D02*
X105155428Y-50577142D01*
X105012571Y-50577142D02*
X105084000Y-50648571D01*
X105155428Y-50791428D01*
X105155428Y-51005714D01*
X105084000Y-51148571D01*
X104941142Y-51220000D01*
X104155428Y-51220000D01*
X104941142Y-51220000D02*
X105084000Y-51291428D01*
X105155428Y-51434285D01*
X105155428Y-51648571D01*
X105084000Y-51791428D01*
X104941142Y-51862857D01*
X104155428Y-51862857D01*
X106934000Y-22860000D02*
X106934000Y-68580000D01*
X114300000Y-22860000D02*
X106347579Y-22860000D01*
X114300000Y-68580000D02*
X106347579Y-68580000D01*
X106934000Y-68580000D02*
X106347579Y-67453496D01*
X106934000Y-68580000D02*
X107520421Y-67453496D01*
X106934000Y-22860000D02*
X106347579Y-23986504D01*
X106934000Y-22860000D02*
X107520421Y-23986504D01*
X99075428Y-41327142D02*
X99075428Y-40470000D01*
X99075428Y-40898571D02*
X100575428Y-40898571D01*
X100361142Y-40755714D01*
X100218285Y-40612857D01*
X100146857Y-40470000D01*
X99218285Y-41970000D02*
X99146857Y-42041428D01*
X99075428Y-41970000D01*
X99146857Y-41898571D01*
X99218285Y-41970000D01*
X99075428Y-41970000D01*
X99932571Y-42898571D02*
X100004000Y-42755714D01*
X100075428Y-42684285D01*
X100218285Y-42612857D01*
X100289714Y-42612857D01*
X100432571Y-42684285D01*
X100504000Y-42755714D01*
X100575428Y-42898571D01*
X100575428Y-43184285D01*
X100504000Y-43327142D01*
X100432571Y-43398571D01*
X100289714Y-43470000D01*
X100218285Y-43470000D01*
X100075428Y-43398571D01*
X100004000Y-43327142D01*
X99932571Y-43184285D01*
X99932571Y-42898571D01*
X99861142Y-42755714D01*
X99789714Y-42684285D01*
X99646857Y-42612857D01*
X99361142Y-42612857D01*
X99218285Y-42684285D01*
X99146857Y-42755714D01*
X99075428Y-42898571D01*
X99075428Y-43184285D01*
X99146857Y-43327142D01*
X99218285Y-43398571D01*
X99361142Y-43470000D01*
X99646857Y-43470000D01*
X99789714Y-43398571D01*
X99861142Y-43327142D01*
X99932571Y-43184285D01*
X100575428Y-44398571D02*
X100575428Y-44541428D01*
X100504000Y-44684285D01*
X100432571Y-44755714D01*
X100289714Y-44827142D01*
X100004000Y-44898571D01*
X99646857Y-44898571D01*
X99361142Y-44827142D01*
X99218285Y-44755714D01*
X99146857Y-44684285D01*
X99075428Y-44541428D01*
X99075428Y-44398571D01*
X99146857Y-44255714D01*
X99218285Y-44184285D01*
X99361142Y-44112857D01*
X99646857Y-44041428D01*
X100004000Y-44041428D01*
X100289714Y-44112857D01*
X100432571Y-44184285D01*
X100504000Y-44255714D01*
X100575428Y-44398571D01*
X100575428Y-45827142D02*
X100575428Y-45970000D01*
X100504000Y-46112857D01*
X100432571Y-46184285D01*
X100289714Y-46255714D01*
X100004000Y-46327142D01*
X99646857Y-46327142D01*
X99361142Y-46255714D01*
X99218285Y-46184285D01*
X99146857Y-46112857D01*
X99075428Y-45970000D01*
X99075428Y-45827142D01*
X99146857Y-45684285D01*
X99218285Y-45612857D01*
X99361142Y-45541428D01*
X99646857Y-45470000D01*
X100004000Y-45470000D01*
X100289714Y-45541428D01*
X100432571Y-45612857D01*
X100504000Y-45684285D01*
X100575428Y-45827142D01*
X100575428Y-47255714D02*
X100575428Y-47398571D01*
X100504000Y-47541428D01*
X100432571Y-47612857D01*
X100289714Y-47684285D01*
X100004000Y-47755714D01*
X99646857Y-47755714D01*
X99361142Y-47684285D01*
X99218285Y-47612857D01*
X99146857Y-47541428D01*
X99075428Y-47398571D01*
X99075428Y-47255714D01*
X99146857Y-47112857D01*
X99218285Y-47041428D01*
X99361142Y-46970000D01*
X99646857Y-46898571D01*
X100004000Y-46898571D01*
X100289714Y-46970000D01*
X100432571Y-47041428D01*
X100504000Y-47112857D01*
X100575428Y-47255714D01*
X99075428Y-49541428D02*
X100075428Y-49541428D01*
X100575428Y-49541428D02*
X100504000Y-49470000D01*
X100432571Y-49541428D01*
X100504000Y-49612857D01*
X100575428Y-49541428D01*
X100432571Y-49541428D01*
X100075428Y-50255714D02*
X99075428Y-50255714D01*
X99932571Y-50255714D02*
X100004000Y-50327142D01*
X100075428Y-50470000D01*
X100075428Y-50684285D01*
X100004000Y-50827142D01*
X99861142Y-50898571D01*
X99075428Y-50898571D01*
X101854000Y-22860000D02*
X101854000Y-68580000D01*
X114300000Y-22860000D02*
X101267579Y-22860000D01*
X114300000Y-68580000D02*
X101267579Y-68580000D01*
X101854000Y-68580000D02*
X101267579Y-67453496D01*
X101854000Y-68580000D02*
X102440421Y-67453496D01*
X101854000Y-22860000D02*
X101267579Y-23986504D01*
X101854000Y-22860000D02*
X102440421Y-23986504D01*
D12*
X133560000Y-37840000D02*
X133560000Y-38670000D01*
X130240000Y-37840000D02*
X133560000Y-37840000D01*
X130240000Y-38670000D02*
X130240000Y-37840000D01*
X129690000Y-38670000D02*
X130240000Y-38670000D01*
X130240000Y-42960000D02*
X130240000Y-42130000D01*
X133560000Y-42960000D02*
X130240000Y-42960000D01*
X133560000Y-42130000D02*
X133560000Y-42960000D01*
X114947500Y-53185000D02*
X117232500Y-53185000D01*
X114947500Y-51715000D02*
X114947500Y-53185000D01*
X117232500Y-51715000D02*
X114947500Y-51715000D01*
X117230000Y-49535000D02*
X114945000Y-49535000D01*
X114945000Y-49535000D02*
X114945000Y-51005000D01*
X114945000Y-51005000D02*
X117230000Y-51005000D01*
X131055000Y-49450000D02*
X133055000Y-49450000D01*
X133055000Y-49450000D02*
X133055000Y-47050000D01*
X117200000Y-32470000D02*
G75*
G03X117200000Y-32470000I-700000J0D01*
G01*
X117200000Y-34925000D02*
G75*
G03X117200000Y-34925000I-700000J0D01*
G01*
X120140000Y-32762779D02*
X120140000Y-32437221D01*
X121160000Y-32762779D02*
X121160000Y-32437221D01*
X116840000Y-30480000D02*
X116840000Y-29210000D01*
X118110000Y-30480000D02*
X116840000Y-30480000D01*
X131190000Y-28167071D02*
X131190000Y-27712929D01*
X130430000Y-28167071D02*
X130430000Y-27712929D01*
X131190000Y-25627071D02*
X131190000Y-25230000D01*
X130430000Y-25627071D02*
X130430000Y-25230000D01*
X131190000Y-16570000D02*
X131190000Y-22570000D01*
X130430000Y-16570000D02*
X131190000Y-16570000D01*
X130430000Y-22570000D02*
X130430000Y-16570000D01*
X129540000Y-25230000D02*
X129540000Y-22570000D01*
X128650000Y-28167071D02*
X128650000Y-27712929D01*
X127890000Y-28167071D02*
X127890000Y-27712929D01*
X128650000Y-25627071D02*
X128650000Y-25230000D01*
X127890000Y-25627071D02*
X127890000Y-25230000D01*
X128650000Y-16570000D02*
X128650000Y-22570000D01*
X127890000Y-16570000D02*
X128650000Y-16570000D01*
X127890000Y-22570000D02*
X127890000Y-16570000D01*
X127000000Y-25230000D02*
X127000000Y-22570000D01*
X126110000Y-28167071D02*
X126110000Y-27712929D01*
X125350000Y-28167071D02*
X125350000Y-27712929D01*
X126110000Y-25627071D02*
X126110000Y-25230000D01*
X125350000Y-25627071D02*
X125350000Y-25230000D01*
X126110000Y-16570000D02*
X126110000Y-22570000D01*
X125350000Y-16570000D02*
X126110000Y-16570000D01*
X125350000Y-22570000D02*
X125350000Y-16570000D01*
X124460000Y-25230000D02*
X124460000Y-22570000D01*
X123570000Y-28167071D02*
X123570000Y-27712929D01*
X122810000Y-28167071D02*
X122810000Y-27712929D01*
X123570000Y-25627071D02*
X123570000Y-25230000D01*
X122810000Y-25627071D02*
X122810000Y-25230000D01*
X123570000Y-16570000D02*
X123570000Y-22570000D01*
X122810000Y-16570000D02*
X123570000Y-16570000D01*
X122810000Y-22570000D02*
X122810000Y-16570000D01*
X121920000Y-25230000D02*
X121920000Y-22570000D01*
X121030000Y-28167071D02*
X121030000Y-27712929D01*
X120270000Y-28167071D02*
X120270000Y-27712929D01*
X121030000Y-25627071D02*
X121030000Y-25230000D01*
X120270000Y-25627071D02*
X120270000Y-25230000D01*
X121030000Y-16570000D02*
X121030000Y-22570000D01*
X120270000Y-16570000D02*
X121030000Y-16570000D01*
X120270000Y-22570000D02*
X120270000Y-16570000D01*
X119380000Y-25230000D02*
X119380000Y-22570000D01*
X118490000Y-28100000D02*
X118490000Y-27712929D01*
X117730000Y-28100000D02*
X117730000Y-27712929D01*
X118490000Y-25627071D02*
X118490000Y-25230000D01*
X117730000Y-25627071D02*
X117730000Y-25230000D01*
X118390000Y-22570000D02*
X118390000Y-16570000D01*
X118270000Y-22570000D02*
X118270000Y-16570000D01*
X118150000Y-22570000D02*
X118150000Y-16570000D01*
X118030000Y-22570000D02*
X118030000Y-16570000D01*
X117910000Y-22570000D02*
X117910000Y-16570000D01*
X117790000Y-22570000D02*
X117790000Y-16570000D01*
X118490000Y-16570000D02*
X118490000Y-22570000D01*
X117730000Y-16570000D02*
X118490000Y-16570000D01*
X117730000Y-22570000D02*
X117730000Y-16570000D01*
X116780000Y-22570000D02*
X116780000Y-25230000D01*
X132140000Y-22570000D02*
X116780000Y-22570000D01*
X132140000Y-25230000D02*
X132140000Y-22570000D01*
X116780000Y-25230000D02*
X132140000Y-25230000D01*
X118465000Y-32762779D02*
X118465000Y-32437221D01*
X119485000Y-32762779D02*
X119485000Y-32437221D01*
X129025000Y-53995000D02*
X129500000Y-53995000D01*
X124280000Y-48775000D02*
X124280000Y-49250000D01*
X124755000Y-48775000D02*
X124280000Y-48775000D01*
X129500000Y-48775000D02*
X129500000Y-49250000D01*
X129025000Y-48775000D02*
X129500000Y-48775000D01*
X124280000Y-53995000D02*
X124280000Y-53520000D01*
X124755000Y-53995000D02*
X124280000Y-53995000D01*
D13*
X121655000Y-44050000D02*
X121655000Y-39650000D01*
X116130000Y-45625000D02*
X116130000Y-39650000D01*
D12*
X130550000Y-46980000D02*
G75*
G03X130550000Y-46980000I-700000J0D01*
G01*
X119970000Y-47400000D02*
G75*
G03X119970000Y-47400000I-700000J0D01*
G01*
X121880000Y-49090000D02*
G75*
G03X121880000Y-49090000I-700000J0D01*
G01*
X117370000Y-46990000D02*
G75*
G03X117370000Y-46990000I-700000J0D01*
G01*
X116450000Y-54670000D02*
G75*
G03X116450000Y-54670000I-700000J0D01*
G01*
X116450000Y-57070000D02*
G75*
G03X116450000Y-57070000I-700000J0D01*
G01*
X123100000Y-47010000D02*
G75*
G03X123100000Y-47010000I-700000J0D01*
G01*
D13*
X131280723Y-36479895D02*
X131280723Y-37137876D01*
X131319428Y-37215285D01*
X131358133Y-37253990D01*
X131435542Y-37292695D01*
X131590361Y-37292695D01*
X131667771Y-37253990D01*
X131706476Y-37215285D01*
X131745180Y-37137876D01*
X131745180Y-36479895D01*
X132054819Y-36479895D02*
X132557980Y-36479895D01*
X132287047Y-36789533D01*
X132403161Y-36789533D01*
X132480571Y-36828238D01*
X132519276Y-36866942D01*
X132557980Y-36944352D01*
X132557980Y-37137876D01*
X132519276Y-37215285D01*
X132480571Y-37253990D01*
X132403161Y-37292695D01*
X132170933Y-37292695D01*
X132093523Y-37253990D01*
X132054819Y-37215285D01*
X123137695Y-36785466D02*
X122750647Y-37056400D01*
X123137695Y-37249923D02*
X122324895Y-37249923D01*
X122324895Y-36940285D01*
X122363600Y-36862876D01*
X122402304Y-36824171D01*
X122479714Y-36785466D01*
X122595828Y-36785466D01*
X122673238Y-36824171D01*
X122711942Y-36862876D01*
X122750647Y-36940285D01*
X122750647Y-37249923D01*
X123137695Y-36398419D02*
X123137695Y-36243600D01*
X123098990Y-36166190D01*
X123060285Y-36127485D01*
X122944171Y-36050076D01*
X122789352Y-36011371D01*
X122479714Y-36011371D01*
X122402304Y-36050076D01*
X122363600Y-36088780D01*
X122324895Y-36166190D01*
X122324895Y-36321009D01*
X122363600Y-36398419D01*
X122402304Y-36437123D01*
X122479714Y-36475828D01*
X122673238Y-36475828D01*
X122750647Y-36437123D01*
X122789352Y-36398419D01*
X122828057Y-36321009D01*
X122828057Y-36166190D01*
X122789352Y-36088780D01*
X122750647Y-36050076D01*
X122673238Y-36011371D01*
X121214533Y-52317695D02*
X120943600Y-51930647D01*
X120750076Y-52317695D02*
X120750076Y-51504895D01*
X121059714Y-51504895D01*
X121137123Y-51543600D01*
X121175828Y-51582304D01*
X121214533Y-51659714D01*
X121214533Y-51775828D01*
X121175828Y-51853238D01*
X121137123Y-51891942D01*
X121059714Y-51930647D01*
X120750076Y-51930647D01*
X121678990Y-51853238D02*
X121601580Y-51814533D01*
X121562876Y-51775828D01*
X121524171Y-51698419D01*
X121524171Y-51659714D01*
X121562876Y-51582304D01*
X121601580Y-51543600D01*
X121678990Y-51504895D01*
X121833809Y-51504895D01*
X121911219Y-51543600D01*
X121949923Y-51582304D01*
X121988628Y-51659714D01*
X121988628Y-51698419D01*
X121949923Y-51775828D01*
X121911219Y-51814533D01*
X121833809Y-51853238D01*
X121678990Y-51853238D01*
X121601580Y-51891942D01*
X121562876Y-51930647D01*
X121524171Y-52008057D01*
X121524171Y-52162876D01*
X121562876Y-52240285D01*
X121601580Y-52278990D01*
X121678990Y-52317695D01*
X121833809Y-52317695D01*
X121911219Y-52278990D01*
X121949923Y-52240285D01*
X121988628Y-52162876D01*
X121988628Y-52008057D01*
X121949923Y-51930647D01*
X121911219Y-51891942D01*
X121833809Y-51853238D01*
X121214533Y-51192695D02*
X120943600Y-50805647D01*
X120750076Y-51192695D02*
X120750076Y-50379895D01*
X121059714Y-50379895D01*
X121137123Y-50418600D01*
X121175828Y-50457304D01*
X121214533Y-50534714D01*
X121214533Y-50650828D01*
X121175828Y-50728238D01*
X121137123Y-50766942D01*
X121059714Y-50805647D01*
X120750076Y-50805647D01*
X121485466Y-50379895D02*
X122027333Y-50379895D01*
X121678990Y-51192695D01*
X130317695Y-32810466D02*
X129930647Y-33081400D01*
X130317695Y-33274923D02*
X129504895Y-33274923D01*
X129504895Y-32965285D01*
X129543600Y-32887876D01*
X129582304Y-32849171D01*
X129659714Y-32810466D01*
X129775828Y-32810466D01*
X129853238Y-32849171D01*
X129891942Y-32887876D01*
X129930647Y-32965285D01*
X129930647Y-33274923D01*
X129582304Y-32500828D02*
X129543600Y-32462123D01*
X129504895Y-32384714D01*
X129504895Y-32191190D01*
X129543600Y-32113780D01*
X129582304Y-32075076D01*
X129659714Y-32036371D01*
X129737123Y-32036371D01*
X129853238Y-32075076D01*
X130317695Y-32539533D01*
X130317695Y-32036371D01*
X134112695Y-32810466D02*
X133725647Y-33081400D01*
X134112695Y-33274923D02*
X133299895Y-33274923D01*
X133299895Y-32965285D01*
X133338600Y-32887876D01*
X133377304Y-32849171D01*
X133454714Y-32810466D01*
X133570828Y-32810466D01*
X133648238Y-32849171D01*
X133686942Y-32887876D01*
X133725647Y-32965285D01*
X133725647Y-33274923D01*
X134112695Y-32036371D02*
X134112695Y-32500828D01*
X134112695Y-32268600D02*
X133299895Y-32268600D01*
X133416009Y-32346009D01*
X133493419Y-32423419D01*
X133532123Y-32500828D01*
X133167695Y-44160466D02*
X132780647Y-44431400D01*
X133167695Y-44624923D02*
X132354895Y-44624923D01*
X132354895Y-44315285D01*
X132393600Y-44237876D01*
X132432304Y-44199171D01*
X132509714Y-44160466D01*
X132625828Y-44160466D01*
X132703238Y-44199171D01*
X132741942Y-44237876D01*
X132780647Y-44315285D01*
X132780647Y-44624923D01*
X132354895Y-43889533D02*
X132354895Y-43386371D01*
X132664533Y-43657304D01*
X132664533Y-43541190D01*
X132703238Y-43463780D01*
X132741942Y-43425076D01*
X132819352Y-43386371D01*
X133012876Y-43386371D01*
X133090285Y-43425076D01*
X133128990Y-43463780D01*
X133167695Y-43541190D01*
X133167695Y-43773419D01*
X133128990Y-43850828D01*
X133090285Y-43889533D01*
X123952485Y-46390285D02*
X123913780Y-46428990D01*
X123797666Y-46467695D01*
X123720257Y-46467695D01*
X123604142Y-46428990D01*
X123526733Y-46351580D01*
X123488028Y-46274171D01*
X123449323Y-46119352D01*
X123449323Y-46003238D01*
X123488028Y-45848419D01*
X123526733Y-45771009D01*
X123604142Y-45693600D01*
X123720257Y-45654895D01*
X123797666Y-45654895D01*
X123913780Y-45693600D01*
X123952485Y-45732304D01*
X124726580Y-46467695D02*
X124262123Y-46467695D01*
X124494352Y-46467695D02*
X124494352Y-45654895D01*
X124416942Y-45771009D01*
X124339533Y-45848419D01*
X124262123Y-45887123D01*
X125423266Y-45925828D02*
X125423266Y-46467695D01*
X125229742Y-45616190D02*
X125036219Y-46196761D01*
X125539380Y-46196761D01*
X118075076Y-53442695D02*
X118075076Y-52629895D01*
X118268600Y-52629895D01*
X118384714Y-52668600D01*
X118462123Y-52746009D01*
X118500828Y-52823419D01*
X118539533Y-52978238D01*
X118539533Y-53094352D01*
X118500828Y-53249171D01*
X118462123Y-53326580D01*
X118384714Y-53403990D01*
X118268600Y-53442695D01*
X118075076Y-53442695D01*
X118849171Y-52707304D02*
X118887876Y-52668600D01*
X118965285Y-52629895D01*
X119158809Y-52629895D01*
X119236219Y-52668600D01*
X119274923Y-52707304D01*
X119313628Y-52784714D01*
X119313628Y-52862123D01*
X119274923Y-52978238D01*
X118810466Y-53442695D01*
X119313628Y-53442695D01*
X115825076Y-49242695D02*
X115825076Y-48429895D01*
X116018600Y-48429895D01*
X116134714Y-48468600D01*
X116212123Y-48546009D01*
X116250828Y-48623419D01*
X116289533Y-48778238D01*
X116289533Y-48894352D01*
X116250828Y-49049171D01*
X116212123Y-49126580D01*
X116134714Y-49203990D01*
X116018600Y-49242695D01*
X115825076Y-49242695D01*
X117063628Y-49242695D02*
X116599171Y-49242695D01*
X116831400Y-49242695D02*
X116831400Y-48429895D01*
X116753990Y-48546009D01*
X116676580Y-48623419D01*
X116599171Y-48662123D01*
X119439533Y-37015285D02*
X119400828Y-37053990D01*
X119284714Y-37092695D01*
X119207304Y-37092695D01*
X119091190Y-37053990D01*
X119013780Y-36976580D01*
X118975076Y-36899171D01*
X118936371Y-36744352D01*
X118936371Y-36628238D01*
X118975076Y-36473419D01*
X119013780Y-36396009D01*
X119091190Y-36318600D01*
X119207304Y-36279895D01*
X119284714Y-36279895D01*
X119400828Y-36318600D01*
X119439533Y-36357304D01*
X120136219Y-36279895D02*
X119981400Y-36279895D01*
X119903990Y-36318600D01*
X119865285Y-36357304D01*
X119787876Y-36473419D01*
X119749171Y-36628238D01*
X119749171Y-36937876D01*
X119787876Y-37015285D01*
X119826580Y-37053990D01*
X119903990Y-37092695D01*
X120058809Y-37092695D01*
X120136219Y-37053990D01*
X120174923Y-37015285D01*
X120213628Y-36937876D01*
X120213628Y-36744352D01*
X120174923Y-36666942D01*
X120136219Y-36628238D01*
X120058809Y-36589533D01*
X119903990Y-36589533D01*
X119826580Y-36628238D01*
X119787876Y-36666942D01*
X119749171Y-36744352D01*
X132860480Y-54640285D02*
X132821776Y-54678990D01*
X132705661Y-54717695D01*
X132628252Y-54717695D01*
X132512138Y-54678990D01*
X132434728Y-54601580D01*
X132396023Y-54524171D01*
X132357319Y-54369352D01*
X132357319Y-54253238D01*
X132396023Y-54098419D01*
X132434728Y-54021009D01*
X132512138Y-53943600D01*
X132628252Y-53904895D01*
X132705661Y-53904895D01*
X132821776Y-53943600D01*
X132860480Y-53982304D01*
X133170119Y-53982304D02*
X133208823Y-53943600D01*
X133286233Y-53904895D01*
X133479757Y-53904895D01*
X133557166Y-53943600D01*
X133595871Y-53982304D01*
X133634576Y-54059714D01*
X133634576Y-54137123D01*
X133595871Y-54253238D01*
X133131414Y-54717695D01*
X133634576Y-54717695D01*
X134408671Y-54717695D02*
X133944214Y-54717695D01*
X134176442Y-54717695D02*
X134176442Y-53904895D01*
X134099033Y-54021009D01*
X134021623Y-54098419D01*
X133944214Y-54137123D01*
X115489533Y-59792695D02*
X115102485Y-59792695D01*
X115102485Y-58979895D01*
X115683057Y-58979895D02*
X116186219Y-58979895D01*
X115915285Y-59289533D01*
X116031400Y-59289533D01*
X116108809Y-59328238D01*
X116147514Y-59366942D01*
X116186219Y-59444352D01*
X116186219Y-59637876D01*
X116147514Y-59715285D01*
X116108809Y-59753990D01*
X116031400Y-59792695D01*
X115799171Y-59792695D01*
X115721761Y-59753990D01*
X115683057Y-59715285D01*
X131639533Y-58367695D02*
X131252485Y-58367695D01*
X131252485Y-57554895D01*
X131871761Y-57632304D02*
X131910466Y-57593600D01*
X131987876Y-57554895D01*
X132181400Y-57554895D01*
X132258809Y-57593600D01*
X132297514Y-57632304D01*
X132336219Y-57709714D01*
X132336219Y-57787123D01*
X132297514Y-57903238D01*
X131833057Y-58367695D01*
X132336219Y-58367695D01*
X122519533Y-57412695D02*
X122132485Y-57412695D01*
X122132485Y-56599895D01*
X123216219Y-57412695D02*
X122751761Y-57412695D01*
X122983990Y-57412695D02*
X122983990Y-56599895D01*
X122906580Y-56716009D01*
X122829171Y-56793419D01*
X122751761Y-56832123D01*
X123890285Y-33097514D02*
X123928990Y-33136219D01*
X123967695Y-33252333D01*
X123967695Y-33329742D01*
X123928990Y-33445857D01*
X123851580Y-33523266D01*
X123774171Y-33561971D01*
X123619352Y-33600676D01*
X123503238Y-33600676D01*
X123348419Y-33561971D01*
X123271009Y-33523266D01*
X123193600Y-33445857D01*
X123154895Y-33329742D01*
X123154895Y-33252333D01*
X123193600Y-33136219D01*
X123232304Y-33097514D01*
X123232304Y-32787876D02*
X123193600Y-32749171D01*
X123154895Y-32671761D01*
X123154895Y-32478238D01*
X123193600Y-32400828D01*
X123232304Y-32362123D01*
X123309714Y-32323419D01*
X123387123Y-32323419D01*
X123503238Y-32362123D01*
X123967695Y-32826580D01*
X123967695Y-32323419D01*
X123154895Y-31820257D02*
X123154895Y-31742847D01*
X123193600Y-31665438D01*
X123232304Y-31626733D01*
X123309714Y-31588028D01*
X123464533Y-31549323D01*
X123658057Y-31549323D01*
X123812876Y-31588028D01*
X123890285Y-31626733D01*
X123928990Y-31665438D01*
X123967695Y-31742847D01*
X123967695Y-31820257D01*
X123928990Y-31897666D01*
X123890285Y-31936371D01*
X123812876Y-31975076D01*
X123658057Y-32013780D01*
X123464533Y-32013780D01*
X123309714Y-31975076D01*
X123232304Y-31936371D01*
X123193600Y-31897666D01*
X123154895Y-31820257D01*
X128877485Y-56690285D02*
X128838780Y-56728990D01*
X128722666Y-56767695D01*
X128645257Y-56767695D01*
X128529142Y-56728990D01*
X128451733Y-56651580D01*
X128413028Y-56574171D01*
X128374323Y-56419352D01*
X128374323Y-56303238D01*
X128413028Y-56148419D01*
X128451733Y-56071009D01*
X128529142Y-55993600D01*
X128645257Y-55954895D01*
X128722666Y-55954895D01*
X128838780Y-55993600D01*
X128877485Y-56032304D01*
X129651580Y-56767695D02*
X129187123Y-56767695D01*
X129419352Y-56767695D02*
X129419352Y-55954895D01*
X129341942Y-56071009D01*
X129264533Y-56148419D01*
X129187123Y-56187123D01*
X130348266Y-55954895D02*
X130193447Y-55954895D01*
X130116038Y-55993600D01*
X130077333Y-56032304D01*
X129999923Y-56148419D01*
X129961219Y-56303238D01*
X129961219Y-56612876D01*
X129999923Y-56690285D01*
X130038628Y-56728990D01*
X130116038Y-56767695D01*
X130270857Y-56767695D01*
X130348266Y-56728990D01*
X130386971Y-56690285D01*
X130425676Y-56612876D01*
X130425676Y-56419352D01*
X130386971Y-56341942D01*
X130348266Y-56303238D01*
X130270857Y-56264533D01*
X130116038Y-56264533D01*
X130038628Y-56303238D01*
X129999923Y-56341942D01*
X129961219Y-56419352D01*
X132860480Y-53565285D02*
X132821776Y-53603990D01*
X132705661Y-53642695D01*
X132628252Y-53642695D01*
X132512138Y-53603990D01*
X132434728Y-53526580D01*
X132396023Y-53449171D01*
X132357319Y-53294352D01*
X132357319Y-53178238D01*
X132396023Y-53023419D01*
X132434728Y-52946009D01*
X132512138Y-52868600D01*
X132628252Y-52829895D01*
X132705661Y-52829895D01*
X132821776Y-52868600D01*
X132860480Y-52907304D01*
X133634576Y-53642695D02*
X133170119Y-53642695D01*
X133402347Y-53642695D02*
X133402347Y-52829895D01*
X133324938Y-52946009D01*
X133247528Y-53023419D01*
X133170119Y-53062123D01*
X134369966Y-52829895D02*
X133982919Y-52829895D01*
X133944214Y-53216942D01*
X133982919Y-53178238D01*
X134060328Y-53139533D01*
X134253852Y-53139533D01*
X134331261Y-53178238D01*
X134369966Y-53216942D01*
X134408671Y-53294352D01*
X134408671Y-53487876D01*
X134369966Y-53565285D01*
X134331261Y-53603990D01*
X134253852Y-53642695D01*
X134060328Y-53642695D01*
X133982919Y-53603990D01*
X133944214Y-53565285D01*
X132777485Y-45715285D02*
X132738780Y-45753990D01*
X132622666Y-45792695D01*
X132545257Y-45792695D01*
X132429142Y-45753990D01*
X132351733Y-45676580D01*
X132313028Y-45599171D01*
X132274323Y-45444352D01*
X132274323Y-45328238D01*
X132313028Y-45173419D01*
X132351733Y-45096009D01*
X132429142Y-45018600D01*
X132545257Y-44979895D01*
X132622666Y-44979895D01*
X132738780Y-45018600D01*
X132777485Y-45057304D01*
X133551580Y-45792695D02*
X133087123Y-45792695D01*
X133319352Y-45792695D02*
X133319352Y-44979895D01*
X133241942Y-45096009D01*
X133164533Y-45173419D01*
X133087123Y-45212123D01*
X133938628Y-45792695D02*
X134093447Y-45792695D01*
X134170857Y-45753990D01*
X134209561Y-45715285D01*
X134286971Y-45599171D01*
X134325676Y-45444352D01*
X134325676Y-45134714D01*
X134286971Y-45057304D01*
X134248266Y-45018600D01*
X134170857Y-44979895D01*
X134016038Y-44979895D01*
X133938628Y-45018600D01*
X133899923Y-45057304D01*
X133861219Y-45134714D01*
X133861219Y-45328238D01*
X133899923Y-45405647D01*
X133938628Y-45444352D01*
X134016038Y-45483057D01*
X134170857Y-45483057D01*
X134248266Y-45444352D01*
X134286971Y-45405647D01*
X134325676Y-45328238D01*
X132860480Y-50440285D02*
X132821776Y-50478990D01*
X132705661Y-50517695D01*
X132628252Y-50517695D01*
X132512138Y-50478990D01*
X132434728Y-50401580D01*
X132396023Y-50324171D01*
X132357319Y-50169352D01*
X132357319Y-50053238D01*
X132396023Y-49898419D01*
X132434728Y-49821009D01*
X132512138Y-49743600D01*
X132628252Y-49704895D01*
X132705661Y-49704895D01*
X132821776Y-49743600D01*
X132860480Y-49782304D01*
X133634576Y-50517695D02*
X133170119Y-50517695D01*
X133402347Y-50517695D02*
X133402347Y-49704895D01*
X133324938Y-49821009D01*
X133247528Y-49898419D01*
X133170119Y-49937123D01*
X134099033Y-50053238D02*
X134021623Y-50014533D01*
X133982919Y-49975828D01*
X133944214Y-49898419D01*
X133944214Y-49859714D01*
X133982919Y-49782304D01*
X134021623Y-49743600D01*
X134099033Y-49704895D01*
X134253852Y-49704895D01*
X134331261Y-49743600D01*
X134369966Y-49782304D01*
X134408671Y-49859714D01*
X134408671Y-49898419D01*
X134369966Y-49975828D01*
X134331261Y-50014533D01*
X134253852Y-50053238D01*
X134099033Y-50053238D01*
X134021623Y-50091942D01*
X133982919Y-50130647D01*
X133944214Y-50208057D01*
X133944214Y-50362876D01*
X133982919Y-50440285D01*
X134021623Y-50478990D01*
X134099033Y-50517695D01*
X134253852Y-50517695D01*
X134331261Y-50478990D01*
X134369966Y-50440285D01*
X134408671Y-50362876D01*
X134408671Y-50208057D01*
X134369966Y-50130647D01*
X134331261Y-50091942D01*
X134253852Y-50053238D01*
X132860480Y-51490285D02*
X132821776Y-51528990D01*
X132705661Y-51567695D01*
X132628252Y-51567695D01*
X132512138Y-51528990D01*
X132434728Y-51451580D01*
X132396023Y-51374171D01*
X132357319Y-51219352D01*
X132357319Y-51103238D01*
X132396023Y-50948419D01*
X132434728Y-50871009D01*
X132512138Y-50793600D01*
X132628252Y-50754895D01*
X132705661Y-50754895D01*
X132821776Y-50793600D01*
X132860480Y-50832304D01*
X133634576Y-51567695D02*
X133170119Y-51567695D01*
X133402347Y-51567695D02*
X133402347Y-50754895D01*
X133324938Y-50871009D01*
X133247528Y-50948419D01*
X133170119Y-50987123D01*
X134408671Y-51567695D02*
X133944214Y-51567695D01*
X134176442Y-51567695D02*
X134176442Y-50754895D01*
X134099033Y-50871009D01*
X134021623Y-50948419D01*
X133944214Y-50987123D01*
X121552485Y-53615285D02*
X121513780Y-53653990D01*
X121397666Y-53692695D01*
X121320257Y-53692695D01*
X121204142Y-53653990D01*
X121126733Y-53576580D01*
X121088028Y-53499171D01*
X121049323Y-53344352D01*
X121049323Y-53228238D01*
X121088028Y-53073419D01*
X121126733Y-52996009D01*
X121204142Y-52918600D01*
X121320257Y-52879895D01*
X121397666Y-52879895D01*
X121513780Y-52918600D01*
X121552485Y-52957304D01*
X122326580Y-53692695D02*
X121862123Y-53692695D01*
X122094352Y-53692695D02*
X122094352Y-52879895D01*
X122016942Y-52996009D01*
X121939533Y-53073419D01*
X121862123Y-53112123D01*
X122829742Y-52879895D02*
X122907152Y-52879895D01*
X122984561Y-52918600D01*
X123023266Y-52957304D01*
X123061971Y-53034714D01*
X123100676Y-53189533D01*
X123100676Y-53383057D01*
X123061971Y-53537876D01*
X123023266Y-53615285D01*
X122984561Y-53653990D01*
X122907152Y-53692695D01*
X122829742Y-53692695D01*
X122752333Y-53653990D01*
X122713628Y-53615285D01*
X122674923Y-53537876D01*
X122636219Y-53383057D01*
X122636219Y-53189533D01*
X122674923Y-53034714D01*
X122713628Y-52957304D01*
X122752333Y-52918600D01*
X122829742Y-52879895D01*
X132860480Y-52515285D02*
X132821776Y-52553990D01*
X132705661Y-52592695D01*
X132628252Y-52592695D01*
X132512138Y-52553990D01*
X132434728Y-52476580D01*
X132396023Y-52399171D01*
X132357319Y-52244352D01*
X132357319Y-52128238D01*
X132396023Y-51973419D01*
X132434728Y-51896009D01*
X132512138Y-51818600D01*
X132628252Y-51779895D01*
X132705661Y-51779895D01*
X132821776Y-51818600D01*
X132860480Y-51857304D01*
X133247528Y-52592695D02*
X133402347Y-52592695D01*
X133479757Y-52553990D01*
X133518461Y-52515285D01*
X133595871Y-52399171D01*
X133634576Y-52244352D01*
X133634576Y-51934714D01*
X133595871Y-51857304D01*
X133557166Y-51818600D01*
X133479757Y-51779895D01*
X133324938Y-51779895D01*
X133247528Y-51818600D01*
X133208823Y-51857304D01*
X133170119Y-51934714D01*
X133170119Y-52128238D01*
X133208823Y-52205647D01*
X133247528Y-52244352D01*
X133324938Y-52283057D01*
X133479757Y-52283057D01*
X133557166Y-52244352D01*
X133595871Y-52205647D01*
X133634576Y-52128238D01*
X132065285Y-61055466D02*
X132103990Y-61094171D01*
X132142695Y-61210285D01*
X132142695Y-61287695D01*
X132103990Y-61403809D01*
X132026580Y-61481219D01*
X131949171Y-61519923D01*
X131794352Y-61558628D01*
X131678238Y-61558628D01*
X131523419Y-61519923D01*
X131446009Y-61481219D01*
X131368600Y-61403809D01*
X131329895Y-61287695D01*
X131329895Y-61210285D01*
X131368600Y-61094171D01*
X131407304Y-61055466D01*
X131678238Y-60591009D02*
X131639533Y-60668419D01*
X131600828Y-60707123D01*
X131523419Y-60745828D01*
X131484714Y-60745828D01*
X131407304Y-60707123D01*
X131368600Y-60668419D01*
X131329895Y-60591009D01*
X131329895Y-60436190D01*
X131368600Y-60358780D01*
X131407304Y-60320076D01*
X131484714Y-60281371D01*
X131523419Y-60281371D01*
X131600828Y-60320076D01*
X131639533Y-60358780D01*
X131678238Y-60436190D01*
X131678238Y-60591009D01*
X131716942Y-60668419D01*
X131755647Y-60707123D01*
X131833057Y-60745828D01*
X131987876Y-60745828D01*
X132065285Y-60707123D01*
X132103990Y-60668419D01*
X132142695Y-60591009D01*
X132142695Y-60436190D01*
X132103990Y-60358780D01*
X132065285Y-60320076D01*
X131987876Y-60281371D01*
X131833057Y-60281371D01*
X131755647Y-60320076D01*
X131716942Y-60358780D01*
X131678238Y-60436190D01*
X115564533Y-61015285D02*
X115525828Y-61053990D01*
X115409714Y-61092695D01*
X115332304Y-61092695D01*
X115216190Y-61053990D01*
X115138780Y-60976580D01*
X115100076Y-60899171D01*
X115061371Y-60744352D01*
X115061371Y-60628238D01*
X115100076Y-60473419D01*
X115138780Y-60396009D01*
X115216190Y-60318600D01*
X115332304Y-60279895D01*
X115409714Y-60279895D01*
X115525828Y-60318600D01*
X115564533Y-60357304D01*
X115835466Y-60279895D02*
X116377333Y-60279895D01*
X116028990Y-61092695D01*
X132764533Y-59465285D02*
X132725828Y-59503990D01*
X132609714Y-59542695D01*
X132532304Y-59542695D01*
X132416190Y-59503990D01*
X132338780Y-59426580D01*
X132300076Y-59349171D01*
X132261371Y-59194352D01*
X132261371Y-59078238D01*
X132300076Y-58923419D01*
X132338780Y-58846009D01*
X132416190Y-58768600D01*
X132532304Y-58729895D01*
X132609714Y-58729895D01*
X132725828Y-58768600D01*
X132764533Y-58807304D01*
X133499923Y-58729895D02*
X133112876Y-58729895D01*
X133074171Y-59116942D01*
X133112876Y-59078238D01*
X133190285Y-59039533D01*
X133383809Y-59039533D01*
X133461219Y-59078238D01*
X133499923Y-59116942D01*
X133538628Y-59194352D01*
X133538628Y-59387876D01*
X133499923Y-59465285D01*
X133461219Y-59503990D01*
X133383809Y-59542695D01*
X133190285Y-59542695D01*
X133112876Y-59503990D01*
X133074171Y-59465285D01*
X119965285Y-57910466D02*
X120003990Y-57949171D01*
X120042695Y-58065285D01*
X120042695Y-58142695D01*
X120003990Y-58258809D01*
X119926580Y-58336219D01*
X119849171Y-58374923D01*
X119694352Y-58413628D01*
X119578238Y-58413628D01*
X119423419Y-58374923D01*
X119346009Y-58336219D01*
X119268600Y-58258809D01*
X119229895Y-58142695D01*
X119229895Y-58065285D01*
X119268600Y-57949171D01*
X119307304Y-57910466D01*
X119500828Y-57213780D02*
X120042695Y-57213780D01*
X119191190Y-57407304D02*
X119771761Y-57600828D01*
X119771761Y-57097666D01*
X125014533Y-59440285D02*
X124975828Y-59478990D01*
X124859714Y-59517695D01*
X124782304Y-59517695D01*
X124666190Y-59478990D01*
X124588780Y-59401580D01*
X124550076Y-59324171D01*
X124511371Y-59169352D01*
X124511371Y-59053238D01*
X124550076Y-58898419D01*
X124588780Y-58821009D01*
X124666190Y-58743600D01*
X124782304Y-58704895D01*
X124859714Y-58704895D01*
X124975828Y-58743600D01*
X125014533Y-58782304D01*
X125285466Y-58704895D02*
X125788628Y-58704895D01*
X125517695Y-59014533D01*
X125633809Y-59014533D01*
X125711219Y-59053238D01*
X125749923Y-59091942D01*
X125788628Y-59169352D01*
X125788628Y-59362876D01*
X125749923Y-59440285D01*
X125711219Y-59478990D01*
X125633809Y-59517695D01*
X125401580Y-59517695D01*
X125324171Y-59478990D01*
X125285466Y-59440285D01*
X127254533Y-59440285D02*
X127215828Y-59478990D01*
X127099714Y-59517695D01*
X127022304Y-59517695D01*
X126906190Y-59478990D01*
X126828780Y-59401580D01*
X126790076Y-59324171D01*
X126751371Y-59169352D01*
X126751371Y-59053238D01*
X126790076Y-58898419D01*
X126828780Y-58821009D01*
X126906190Y-58743600D01*
X127022304Y-58704895D01*
X127099714Y-58704895D01*
X127215828Y-58743600D01*
X127254533Y-58782304D01*
X127564171Y-58782304D02*
X127602876Y-58743600D01*
X127680285Y-58704895D01*
X127873809Y-58704895D01*
X127951219Y-58743600D01*
X127989923Y-58782304D01*
X128028628Y-58859714D01*
X128028628Y-58937123D01*
X127989923Y-59053238D01*
X127525466Y-59517695D01*
X128028628Y-59517695D01*
X125940285Y-56460466D02*
X125978990Y-56499171D01*
X126017695Y-56615285D01*
X126017695Y-56692695D01*
X125978990Y-56808809D01*
X125901580Y-56886219D01*
X125824171Y-56924923D01*
X125669352Y-56963628D01*
X125553238Y-56963628D01*
X125398419Y-56924923D01*
X125321009Y-56886219D01*
X125243600Y-56808809D01*
X125204895Y-56692695D01*
X125204895Y-56615285D01*
X125243600Y-56499171D01*
X125282304Y-56460466D01*
X126017695Y-55686371D02*
X126017695Y-56150828D01*
X126017695Y-55918600D02*
X125204895Y-55918600D01*
X125321009Y-55996009D01*
X125398419Y-56073419D01*
X125437123Y-56150828D01*
X133780647Y-48637047D02*
X134167695Y-48637047D01*
X133354895Y-48907980D02*
X133780647Y-48637047D01*
X133354895Y-48366114D01*
X134167695Y-47669428D02*
X134167695Y-48133885D01*
X134167695Y-47901657D02*
X133354895Y-47901657D01*
X133471009Y-47979066D01*
X133548419Y-48056476D01*
X133587123Y-48133885D01*
X115229895Y-31800676D02*
X115229895Y-31336219D01*
X116042695Y-31568447D02*
X115229895Y-31568447D01*
X116042695Y-31065285D02*
X115229895Y-31065285D01*
X115229895Y-30755647D01*
X115268600Y-30678238D01*
X115307304Y-30639533D01*
X115384714Y-30600828D01*
X115500828Y-30600828D01*
X115578238Y-30639533D01*
X115616942Y-30678238D01*
X115655647Y-30755647D01*
X115655647Y-31065285D01*
X116042695Y-30213780D02*
X116042695Y-30058961D01*
X116003990Y-29981552D01*
X115965285Y-29942847D01*
X115849171Y-29865438D01*
X115694352Y-29826733D01*
X115384714Y-29826733D01*
X115307304Y-29865438D01*
X115268600Y-29904142D01*
X115229895Y-29981552D01*
X115229895Y-30136371D01*
X115268600Y-30213780D01*
X115307304Y-30252485D01*
X115384714Y-30291190D01*
X115578238Y-30291190D01*
X115655647Y-30252485D01*
X115694352Y-30213780D01*
X115733057Y-30136371D01*
X115733057Y-29981552D01*
X115694352Y-29904142D01*
X115655647Y-29865438D01*
X115578238Y-29826733D01*
X115204895Y-37625676D02*
X115204895Y-37161219D01*
X116017695Y-37393447D02*
X115204895Y-37393447D01*
X116017695Y-36890285D02*
X115204895Y-36890285D01*
X115204895Y-36580647D01*
X115243600Y-36503238D01*
X115282304Y-36464533D01*
X115359714Y-36425828D01*
X115475828Y-36425828D01*
X115553238Y-36464533D01*
X115591942Y-36503238D01*
X115630647Y-36580647D01*
X115630647Y-36890285D01*
X115553238Y-35961371D02*
X115514533Y-36038780D01*
X115475828Y-36077485D01*
X115398419Y-36116190D01*
X115359714Y-36116190D01*
X115282304Y-36077485D01*
X115243600Y-36038780D01*
X115204895Y-35961371D01*
X115204895Y-35806552D01*
X115243600Y-35729142D01*
X115282304Y-35690438D01*
X115359714Y-35651733D01*
X115398419Y-35651733D01*
X115475828Y-35690438D01*
X115514533Y-35729142D01*
X115553238Y-35806552D01*
X115553238Y-35961371D01*
X115591942Y-36038780D01*
X115630647Y-36077485D01*
X115708057Y-36116190D01*
X115862876Y-36116190D01*
X115940285Y-36077485D01*
X115978990Y-36038780D01*
X116017695Y-35961371D01*
X116017695Y-35806552D01*
X115978990Y-35729142D01*
X115940285Y-35690438D01*
X115862876Y-35651733D01*
X115708057Y-35651733D01*
X115630647Y-35690438D01*
X115591942Y-35729142D01*
X115553238Y-35806552D01*
X120940285Y-35647514D02*
X120978990Y-35686219D01*
X121017695Y-35802333D01*
X121017695Y-35879742D01*
X120978990Y-35995857D01*
X120901580Y-36073266D01*
X120824171Y-36111971D01*
X120669352Y-36150676D01*
X120553238Y-36150676D01*
X120398419Y-36111971D01*
X120321009Y-36073266D01*
X120243600Y-35995857D01*
X120204895Y-35879742D01*
X120204895Y-35802333D01*
X120243600Y-35686219D01*
X120282304Y-35647514D01*
X121017695Y-34873419D02*
X121017695Y-35337876D01*
X121017695Y-35105647D02*
X120204895Y-35105647D01*
X120321009Y-35183057D01*
X120398419Y-35260466D01*
X120437123Y-35337876D01*
X120204895Y-34602485D02*
X120204895Y-34060619D01*
X121017695Y-34408961D01*
X118941942Y-35727333D02*
X118941942Y-35998266D01*
X119367695Y-35998266D02*
X118554895Y-35998266D01*
X118554895Y-35611219D01*
X118941942Y-35030647D02*
X118980647Y-34914533D01*
X119019352Y-34875828D01*
X119096761Y-34837123D01*
X119212876Y-34837123D01*
X119290285Y-34875828D01*
X119328990Y-34914533D01*
X119367695Y-34991942D01*
X119367695Y-35301580D01*
X118554895Y-35301580D01*
X118554895Y-35030647D01*
X118593600Y-34953238D01*
X118632304Y-34914533D01*
X118709714Y-34875828D01*
X118787123Y-34875828D01*
X118864533Y-34914533D01*
X118903238Y-34953238D01*
X118941942Y-35030647D01*
X118941942Y-35301580D01*
X119367695Y-34063028D02*
X119367695Y-34527485D01*
X119367695Y-34295257D02*
X118554895Y-34295257D01*
X118671009Y-34372666D01*
X118748419Y-34450076D01*
X118787123Y-34527485D01*
X126255723Y-47029895D02*
X126255723Y-47687876D01*
X126294428Y-47765285D01*
X126333133Y-47803990D01*
X126410542Y-47842695D01*
X126565361Y-47842695D01*
X126642771Y-47803990D01*
X126681476Y-47765285D01*
X126720180Y-47687876D01*
X126720180Y-47029895D01*
X127532980Y-47842695D02*
X127068523Y-47842695D01*
X127300752Y-47842695D02*
X127300752Y-47029895D01*
X127223342Y-47146009D01*
X127145933Y-47223419D01*
X127068523Y-47262123D01*
X115004895Y-42469276D02*
X115662876Y-42469276D01*
X115740285Y-42430571D01*
X115778990Y-42391866D01*
X115817695Y-42314457D01*
X115817695Y-42159638D01*
X115778990Y-42082228D01*
X115740285Y-42043523D01*
X115662876Y-42004819D01*
X115004895Y-42004819D01*
X115082304Y-41656476D02*
X115043600Y-41617771D01*
X115004895Y-41540361D01*
X115004895Y-41346838D01*
X115043600Y-41269428D01*
X115082304Y-41230723D01*
X115159714Y-41192019D01*
X115237123Y-41192019D01*
X115353238Y-41230723D01*
X115817695Y-41695180D01*
X115817695Y-41192019D01*
X129179895Y-46250676D02*
X129179895Y-45786219D01*
X129992695Y-46018447D02*
X129179895Y-46018447D01*
X129992695Y-45515285D02*
X129179895Y-45515285D01*
X129179895Y-45205647D01*
X129218600Y-45128238D01*
X129257304Y-45089533D01*
X129334714Y-45050828D01*
X129450828Y-45050828D01*
X129528238Y-45089533D01*
X129566942Y-45128238D01*
X129605647Y-45205647D01*
X129605647Y-45515285D01*
X129179895Y-44779895D02*
X129179895Y-44238028D01*
X129992695Y-44586371D01*
X117924323Y-48554895D02*
X118388780Y-48554895D01*
X118156552Y-49367695D02*
X118156552Y-48554895D01*
X118659714Y-49367695D02*
X118659714Y-48554895D01*
X118969352Y-48554895D01*
X119046761Y-48593600D01*
X119085466Y-48632304D01*
X119124171Y-48709714D01*
X119124171Y-48825828D01*
X119085466Y-48903238D01*
X119046761Y-48941942D01*
X118969352Y-48980647D01*
X118659714Y-48980647D01*
X119433809Y-48632304D02*
X119472514Y-48593600D01*
X119549923Y-48554895D01*
X119743447Y-48554895D01*
X119820857Y-48593600D01*
X119859561Y-48632304D01*
X119898266Y-48709714D01*
X119898266Y-48787123D01*
X119859561Y-48903238D01*
X119395104Y-49367695D01*
X119898266Y-49367695D01*
X122204895Y-50125676D02*
X122204895Y-49661219D01*
X123017695Y-49893447D02*
X122204895Y-49893447D01*
X123017695Y-49390285D02*
X122204895Y-49390285D01*
X122204895Y-49080647D01*
X122243600Y-49003238D01*
X122282304Y-48964533D01*
X122359714Y-48925828D01*
X122475828Y-48925828D01*
X122553238Y-48964533D01*
X122591942Y-49003238D01*
X122630647Y-49080647D01*
X122630647Y-49390285D01*
X122204895Y-48654895D02*
X122204895Y-48151733D01*
X122514533Y-48422666D01*
X122514533Y-48306552D01*
X122553238Y-48229142D01*
X122591942Y-48190438D01*
X122669352Y-48151733D01*
X122862876Y-48151733D01*
X122940285Y-48190438D01*
X122978990Y-48229142D01*
X123017695Y-48306552D01*
X123017695Y-48538780D01*
X122978990Y-48616190D01*
X122940285Y-48654895D01*
X115054895Y-48225676D02*
X115054895Y-47761219D01*
X115867695Y-47993447D02*
X115054895Y-47993447D01*
X115867695Y-47490285D02*
X115054895Y-47490285D01*
X115054895Y-47180647D01*
X115093600Y-47103238D01*
X115132304Y-47064533D01*
X115209714Y-47025828D01*
X115325828Y-47025828D01*
X115403238Y-47064533D01*
X115441942Y-47103238D01*
X115480647Y-47180647D01*
X115480647Y-47490285D01*
X115325828Y-46329142D02*
X115867695Y-46329142D01*
X115016190Y-46522666D02*
X115596761Y-46716190D01*
X115596761Y-46213028D01*
X116574323Y-54104895D02*
X117038780Y-54104895D01*
X116806552Y-54917695D02*
X116806552Y-54104895D01*
X117309714Y-54917695D02*
X117309714Y-54104895D01*
X117619352Y-54104895D01*
X117696761Y-54143600D01*
X117735466Y-54182304D01*
X117774171Y-54259714D01*
X117774171Y-54375828D01*
X117735466Y-54453238D01*
X117696761Y-54491942D01*
X117619352Y-54530647D01*
X117309714Y-54530647D01*
X118509561Y-54104895D02*
X118122514Y-54104895D01*
X118083809Y-54491942D01*
X118122514Y-54453238D01*
X118199923Y-54414533D01*
X118393447Y-54414533D01*
X118470857Y-54453238D01*
X118509561Y-54491942D01*
X118548266Y-54569352D01*
X118548266Y-54762876D01*
X118509561Y-54840285D01*
X118470857Y-54878990D01*
X118393447Y-54917695D01*
X118199923Y-54917695D01*
X118122514Y-54878990D01*
X118083809Y-54840285D01*
X116399323Y-55804895D02*
X116863780Y-55804895D01*
X116631552Y-56617695D02*
X116631552Y-55804895D01*
X117134714Y-56617695D02*
X117134714Y-55804895D01*
X117444352Y-55804895D01*
X117521761Y-55843600D01*
X117560466Y-55882304D01*
X117599171Y-55959714D01*
X117599171Y-56075828D01*
X117560466Y-56153238D01*
X117521761Y-56191942D01*
X117444352Y-56230647D01*
X117134714Y-56230647D01*
X118295857Y-55804895D02*
X118141038Y-55804895D01*
X118063628Y-55843600D01*
X118024923Y-55882304D01*
X117947514Y-55998419D01*
X117908809Y-56153238D01*
X117908809Y-56462876D01*
X117947514Y-56540285D01*
X117986219Y-56578990D01*
X118063628Y-56617695D01*
X118218447Y-56617695D01*
X118295857Y-56578990D01*
X118334561Y-56540285D01*
X118373266Y-56462876D01*
X118373266Y-56269352D01*
X118334561Y-56191942D01*
X118295857Y-56153238D01*
X118218447Y-56114533D01*
X118063628Y-56114533D01*
X117986219Y-56153238D01*
X117947514Y-56191942D01*
X117908809Y-56269352D01*
X121979895Y-46175676D02*
X121979895Y-45711219D01*
X122792695Y-45943447D02*
X121979895Y-45943447D01*
X122792695Y-45440285D02*
X121979895Y-45440285D01*
X121979895Y-45130647D01*
X122018600Y-45053238D01*
X122057304Y-45014533D01*
X122134714Y-44975828D01*
X122250828Y-44975828D01*
X122328238Y-45014533D01*
X122366942Y-45053238D01*
X122405647Y-45130647D01*
X122405647Y-45440285D01*
X122792695Y-44201733D02*
X122792695Y-44666190D01*
X122792695Y-44433961D02*
X121979895Y-44433961D01*
X122096009Y-44511371D01*
X122173419Y-44588780D01*
X122212123Y-44666190D01*
M02*
