G04 #@! TF.GenerationSoftware,KiCad,Pcbnew,5.1.5-52549c5~84~ubuntu18.04.1*
G04 #@! TF.CreationDate,2020-01-04T20:43:16+00:00*
G04 #@! TF.ProjectId,SX1257_pmod,53583132-3537-45f7-906d-6f642e6b6963,rev?*
G04 #@! TF.SameCoordinates,Original*
G04 #@! TF.FileFunction,Soldermask,Top*
G04 #@! TF.FilePolarity,Negative*
%FSLAX46Y46*%
G04 Gerber Fmt 4.6, Leading zero omitted, Abs format (unit mm)*
G04 Created by KiCad (PCBNEW 5.1.5-52549c5~84~ubuntu18.04.1) date 2020-01-04 20:43:16*
%MOMM*%
%LPD*%
G04 APERTURE LIST*
%ADD10C,0.100000*%
G04 APERTURE END LIST*
D10*
G36*
X128829000Y-68064000D02*
G01*
X127203000Y-68064000D01*
X127203000Y-63162000D01*
X128829000Y-63162000D01*
X128829000Y-68064000D01*
G37*
G36*
X131369000Y-68064000D02*
G01*
X129743000Y-68064000D01*
X129743000Y-63162000D01*
X131369000Y-63162000D01*
X131369000Y-68064000D01*
G37*
G36*
X133909000Y-68064000D02*
G01*
X132283000Y-68064000D01*
X132283000Y-63162000D01*
X133909000Y-63162000D01*
X133909000Y-68064000D01*
G37*
G36*
X116637000Y-68064000D02*
G01*
X115011000Y-68064000D01*
X115011000Y-63162000D01*
X116637000Y-63162000D01*
X116637000Y-68064000D01*
G37*
G36*
X121717000Y-68064000D02*
G01*
X120091000Y-68064000D01*
X120091000Y-63162000D01*
X121717000Y-63162000D01*
X121717000Y-68064000D01*
G37*
G36*
X119177000Y-68064000D02*
G01*
X117551000Y-68064000D01*
X117551000Y-63162000D01*
X119177000Y-63162000D01*
X119177000Y-68064000D01*
G37*
G36*
X130831938Y-61061716D02*
G01*
X130852557Y-61067971D01*
X130871553Y-61078124D01*
X130888208Y-61091792D01*
X130901876Y-61108447D01*
X130912029Y-61127443D01*
X130918284Y-61148062D01*
X130921000Y-61175640D01*
X130921000Y-61634360D01*
X130918284Y-61661938D01*
X130912029Y-61682557D01*
X130901876Y-61701553D01*
X130888208Y-61718208D01*
X130871553Y-61731876D01*
X130852557Y-61742029D01*
X130831938Y-61748284D01*
X130804360Y-61751000D01*
X130295640Y-61751000D01*
X130268062Y-61748284D01*
X130247443Y-61742029D01*
X130228447Y-61731876D01*
X130211792Y-61718208D01*
X130198124Y-61701553D01*
X130187971Y-61682557D01*
X130181716Y-61661938D01*
X130179000Y-61634360D01*
X130179000Y-61175640D01*
X130181716Y-61148062D01*
X130187971Y-61127443D01*
X130198124Y-61108447D01*
X130211792Y-61091792D01*
X130228447Y-61078124D01*
X130247443Y-61067971D01*
X130268062Y-61061716D01*
X130295640Y-61059000D01*
X130804360Y-61059000D01*
X130831938Y-61061716D01*
G37*
G36*
X118606938Y-60106716D02*
G01*
X118627557Y-60112971D01*
X118646553Y-60123124D01*
X118663208Y-60136792D01*
X118676876Y-60153447D01*
X118687029Y-60172443D01*
X118693284Y-60193062D01*
X118696000Y-60220640D01*
X118696000Y-60729360D01*
X118693284Y-60756938D01*
X118687029Y-60777557D01*
X118676876Y-60796553D01*
X118663208Y-60813208D01*
X118646553Y-60826876D01*
X118627557Y-60837029D01*
X118606938Y-60843284D01*
X118579360Y-60846000D01*
X118120640Y-60846000D01*
X118093062Y-60843284D01*
X118072443Y-60837029D01*
X118053447Y-60826876D01*
X118036792Y-60813208D01*
X118023124Y-60796553D01*
X118012971Y-60777557D01*
X118006716Y-60756938D01*
X118004000Y-60729360D01*
X118004000Y-60220640D01*
X118006716Y-60193062D01*
X118012971Y-60172443D01*
X118023124Y-60153447D01*
X118036792Y-60136792D01*
X118053447Y-60123124D01*
X118072443Y-60112971D01*
X118093062Y-60106716D01*
X118120640Y-60104000D01*
X118579360Y-60104000D01*
X118606938Y-60106716D01*
G37*
G36*
X117636938Y-60106716D02*
G01*
X117657557Y-60112971D01*
X117676553Y-60123124D01*
X117693208Y-60136792D01*
X117706876Y-60153447D01*
X117717029Y-60172443D01*
X117723284Y-60193062D01*
X117726000Y-60220640D01*
X117726000Y-60729360D01*
X117723284Y-60756938D01*
X117717029Y-60777557D01*
X117706876Y-60796553D01*
X117693208Y-60813208D01*
X117676553Y-60826876D01*
X117657557Y-60837029D01*
X117636938Y-60843284D01*
X117609360Y-60846000D01*
X117150640Y-60846000D01*
X117123062Y-60843284D01*
X117102443Y-60837029D01*
X117083447Y-60826876D01*
X117066792Y-60813208D01*
X117053124Y-60796553D01*
X117042971Y-60777557D01*
X117036716Y-60756938D01*
X117034000Y-60729360D01*
X117034000Y-60220640D01*
X117036716Y-60193062D01*
X117042971Y-60172443D01*
X117053124Y-60153447D01*
X117066792Y-60136792D01*
X117083447Y-60123124D01*
X117102443Y-60112971D01*
X117123062Y-60106716D01*
X117150640Y-60104000D01*
X117609360Y-60104000D01*
X117636938Y-60106716D01*
G37*
G36*
X130831938Y-60091716D02*
G01*
X130852557Y-60097971D01*
X130871553Y-60108124D01*
X130888208Y-60121792D01*
X130901876Y-60138447D01*
X130912029Y-60157443D01*
X130918284Y-60178062D01*
X130921000Y-60205640D01*
X130921000Y-60664360D01*
X130918284Y-60691938D01*
X130912029Y-60712557D01*
X130901876Y-60731553D01*
X130888208Y-60748208D01*
X130871553Y-60761876D01*
X130852557Y-60772029D01*
X130831938Y-60778284D01*
X130804360Y-60781000D01*
X130295640Y-60781000D01*
X130268062Y-60778284D01*
X130247443Y-60772029D01*
X130228447Y-60761876D01*
X130211792Y-60748208D01*
X130198124Y-60731553D01*
X130187971Y-60712557D01*
X130181716Y-60691938D01*
X130179000Y-60664360D01*
X130179000Y-60205640D01*
X130181716Y-60178062D01*
X130187971Y-60157443D01*
X130198124Y-60138447D01*
X130211792Y-60121792D01*
X130228447Y-60108124D01*
X130247443Y-60097971D01*
X130268062Y-60091716D01*
X130295640Y-60089000D01*
X130804360Y-60089000D01*
X130831938Y-60091716D01*
G37*
G36*
X117636938Y-59056716D02*
G01*
X117657557Y-59062971D01*
X117676553Y-59073124D01*
X117693208Y-59086792D01*
X117706876Y-59103447D01*
X117717029Y-59122443D01*
X117723284Y-59143062D01*
X117726000Y-59170640D01*
X117726000Y-59679360D01*
X117723284Y-59706938D01*
X117717029Y-59727557D01*
X117706876Y-59746553D01*
X117693208Y-59763208D01*
X117676553Y-59776876D01*
X117657557Y-59787029D01*
X117636938Y-59793284D01*
X117609360Y-59796000D01*
X117150640Y-59796000D01*
X117123062Y-59793284D01*
X117102443Y-59787029D01*
X117083447Y-59776876D01*
X117066792Y-59763208D01*
X117053124Y-59746553D01*
X117042971Y-59727557D01*
X117036716Y-59706938D01*
X117034000Y-59679360D01*
X117034000Y-59170640D01*
X117036716Y-59143062D01*
X117042971Y-59122443D01*
X117053124Y-59103447D01*
X117066792Y-59086792D01*
X117083447Y-59073124D01*
X117102443Y-59062971D01*
X117123062Y-59056716D01*
X117150640Y-59054000D01*
X117609360Y-59054000D01*
X117636938Y-59056716D01*
G37*
G36*
X118606938Y-59056716D02*
G01*
X118627557Y-59062971D01*
X118646553Y-59073124D01*
X118663208Y-59086792D01*
X118676876Y-59103447D01*
X118687029Y-59122443D01*
X118693284Y-59143062D01*
X118696000Y-59170640D01*
X118696000Y-59679360D01*
X118693284Y-59706938D01*
X118687029Y-59727557D01*
X118676876Y-59746553D01*
X118663208Y-59763208D01*
X118646553Y-59776876D01*
X118627557Y-59787029D01*
X118606938Y-59793284D01*
X118579360Y-59796000D01*
X118120640Y-59796000D01*
X118093062Y-59793284D01*
X118072443Y-59787029D01*
X118053447Y-59776876D01*
X118036792Y-59763208D01*
X118023124Y-59746553D01*
X118012971Y-59727557D01*
X118006716Y-59706938D01*
X118004000Y-59679360D01*
X118004000Y-59170640D01*
X118006716Y-59143062D01*
X118012971Y-59122443D01*
X118023124Y-59103447D01*
X118036792Y-59086792D01*
X118053447Y-59073124D01*
X118072443Y-59062971D01*
X118093062Y-59056716D01*
X118120640Y-59054000D01*
X118579360Y-59054000D01*
X118606938Y-59056716D01*
G37*
G36*
X131781938Y-58811716D02*
G01*
X131802557Y-58817971D01*
X131821553Y-58828124D01*
X131838208Y-58841792D01*
X131851876Y-58858447D01*
X131862029Y-58877443D01*
X131868284Y-58898062D01*
X131871000Y-58925640D01*
X131871000Y-59434360D01*
X131868284Y-59461938D01*
X131862029Y-59482557D01*
X131851876Y-59501553D01*
X131838208Y-59518208D01*
X131821553Y-59531876D01*
X131802557Y-59542029D01*
X131781938Y-59548284D01*
X131754360Y-59551000D01*
X131295640Y-59551000D01*
X131268062Y-59548284D01*
X131247443Y-59542029D01*
X131228447Y-59531876D01*
X131211792Y-59518208D01*
X131198124Y-59501553D01*
X131187971Y-59482557D01*
X131181716Y-59461938D01*
X131179000Y-59434360D01*
X131179000Y-58925640D01*
X131181716Y-58898062D01*
X131187971Y-58877443D01*
X131198124Y-58858447D01*
X131211792Y-58841792D01*
X131228447Y-58828124D01*
X131247443Y-58817971D01*
X131268062Y-58811716D01*
X131295640Y-58809000D01*
X131754360Y-58809000D01*
X131781938Y-58811716D01*
G37*
G36*
X130811938Y-58811716D02*
G01*
X130832557Y-58817971D01*
X130851553Y-58828124D01*
X130868208Y-58841792D01*
X130881876Y-58858447D01*
X130892029Y-58877443D01*
X130898284Y-58898062D01*
X130901000Y-58925640D01*
X130901000Y-59434360D01*
X130898284Y-59461938D01*
X130892029Y-59482557D01*
X130881876Y-59501553D01*
X130868208Y-59518208D01*
X130851553Y-59531876D01*
X130832557Y-59542029D01*
X130811938Y-59548284D01*
X130784360Y-59551000D01*
X130325640Y-59551000D01*
X130298062Y-59548284D01*
X130277443Y-59542029D01*
X130258447Y-59531876D01*
X130241792Y-59518208D01*
X130228124Y-59501553D01*
X130217971Y-59482557D01*
X130211716Y-59461938D01*
X130209000Y-59434360D01*
X130209000Y-58925640D01*
X130211716Y-58898062D01*
X130217971Y-58877443D01*
X130228124Y-58858447D01*
X130241792Y-58841792D01*
X130258447Y-58828124D01*
X130277443Y-58817971D01*
X130298062Y-58811716D01*
X130325640Y-58809000D01*
X130784360Y-58809000D01*
X130811938Y-58811716D01*
G37*
G36*
X118656938Y-57916716D02*
G01*
X118677557Y-57922971D01*
X118696553Y-57933124D01*
X118713208Y-57946792D01*
X118726876Y-57963447D01*
X118737029Y-57982443D01*
X118743284Y-58003062D01*
X118746000Y-58030640D01*
X118746000Y-58489360D01*
X118743284Y-58516938D01*
X118737029Y-58537557D01*
X118726876Y-58556553D01*
X118713208Y-58573208D01*
X118696553Y-58586876D01*
X118677557Y-58597029D01*
X118656938Y-58603284D01*
X118629360Y-58606000D01*
X118120640Y-58606000D01*
X118093062Y-58603284D01*
X118072443Y-58597029D01*
X118053447Y-58586876D01*
X118036792Y-58573208D01*
X118023124Y-58556553D01*
X118012971Y-58537557D01*
X118006716Y-58516938D01*
X118004000Y-58489360D01*
X118004000Y-58030640D01*
X118006716Y-58003062D01*
X118012971Y-57982443D01*
X118023124Y-57963447D01*
X118036792Y-57946792D01*
X118053447Y-57933124D01*
X118072443Y-57922971D01*
X118093062Y-57916716D01*
X118120640Y-57914000D01*
X118629360Y-57914000D01*
X118656938Y-57916716D01*
G37*
G36*
X128131938Y-57611716D02*
G01*
X128152557Y-57617971D01*
X128171553Y-57628124D01*
X128188208Y-57641792D01*
X128201876Y-57658447D01*
X128212029Y-57677443D01*
X128218284Y-57698062D01*
X128221000Y-57725640D01*
X128221000Y-58234360D01*
X128218284Y-58261938D01*
X128212029Y-58282557D01*
X128201876Y-58301553D01*
X128188208Y-58318208D01*
X128171553Y-58331876D01*
X128152557Y-58342029D01*
X128131938Y-58348284D01*
X128104360Y-58351000D01*
X127645640Y-58351000D01*
X127618062Y-58348284D01*
X127597443Y-58342029D01*
X127578447Y-58331876D01*
X127561792Y-58318208D01*
X127548124Y-58301553D01*
X127537971Y-58282557D01*
X127531716Y-58261938D01*
X127529000Y-58234360D01*
X127529000Y-57725640D01*
X127531716Y-57698062D01*
X127537971Y-57677443D01*
X127548124Y-57658447D01*
X127561792Y-57641792D01*
X127578447Y-57628124D01*
X127597443Y-57617971D01*
X127618062Y-57611716D01*
X127645640Y-57609000D01*
X128104360Y-57609000D01*
X128131938Y-57611716D01*
G37*
G36*
X130806938Y-57611716D02*
G01*
X130827557Y-57617971D01*
X130846553Y-57628124D01*
X130863208Y-57641792D01*
X130876876Y-57658447D01*
X130887029Y-57677443D01*
X130893284Y-57698062D01*
X130896000Y-57725640D01*
X130896000Y-58234360D01*
X130893284Y-58261938D01*
X130887029Y-58282557D01*
X130876876Y-58301553D01*
X130863208Y-58318208D01*
X130846553Y-58331876D01*
X130827557Y-58342029D01*
X130806938Y-58348284D01*
X130779360Y-58351000D01*
X130320640Y-58351000D01*
X130293062Y-58348284D01*
X130272443Y-58342029D01*
X130253447Y-58331876D01*
X130236792Y-58318208D01*
X130223124Y-58301553D01*
X130212971Y-58282557D01*
X130206716Y-58261938D01*
X130204000Y-58234360D01*
X130204000Y-57725640D01*
X130206716Y-57698062D01*
X130212971Y-57677443D01*
X130223124Y-57658447D01*
X130236792Y-57641792D01*
X130253447Y-57628124D01*
X130272443Y-57617971D01*
X130293062Y-57611716D01*
X130320640Y-57609000D01*
X130779360Y-57609000D01*
X130806938Y-57611716D01*
G37*
G36*
X129836938Y-57611716D02*
G01*
X129857557Y-57617971D01*
X129876553Y-57628124D01*
X129893208Y-57641792D01*
X129906876Y-57658447D01*
X129917029Y-57677443D01*
X129923284Y-57698062D01*
X129926000Y-57725640D01*
X129926000Y-58234360D01*
X129923284Y-58261938D01*
X129917029Y-58282557D01*
X129906876Y-58301553D01*
X129893208Y-58318208D01*
X129876553Y-58331876D01*
X129857557Y-58342029D01*
X129836938Y-58348284D01*
X129809360Y-58351000D01*
X129350640Y-58351000D01*
X129323062Y-58348284D01*
X129302443Y-58342029D01*
X129283447Y-58331876D01*
X129266792Y-58318208D01*
X129253124Y-58301553D01*
X129242971Y-58282557D01*
X129236716Y-58261938D01*
X129234000Y-58234360D01*
X129234000Y-57725640D01*
X129236716Y-57698062D01*
X129242971Y-57677443D01*
X129253124Y-57658447D01*
X129266792Y-57641792D01*
X129283447Y-57628124D01*
X129302443Y-57617971D01*
X129323062Y-57611716D01*
X129350640Y-57609000D01*
X129809360Y-57609000D01*
X129836938Y-57611716D01*
G37*
G36*
X125891938Y-57611716D02*
G01*
X125912557Y-57617971D01*
X125931553Y-57628124D01*
X125948208Y-57641792D01*
X125961876Y-57658447D01*
X125972029Y-57677443D01*
X125978284Y-57698062D01*
X125981000Y-57725640D01*
X125981000Y-58234360D01*
X125978284Y-58261938D01*
X125972029Y-58282557D01*
X125961876Y-58301553D01*
X125948208Y-58318208D01*
X125931553Y-58331876D01*
X125912557Y-58342029D01*
X125891938Y-58348284D01*
X125864360Y-58351000D01*
X125405640Y-58351000D01*
X125378062Y-58348284D01*
X125357443Y-58342029D01*
X125338447Y-58331876D01*
X125321792Y-58318208D01*
X125308124Y-58301553D01*
X125297971Y-58282557D01*
X125291716Y-58261938D01*
X125289000Y-58234360D01*
X125289000Y-57725640D01*
X125291716Y-57698062D01*
X125297971Y-57677443D01*
X125308124Y-57658447D01*
X125321792Y-57641792D01*
X125338447Y-57628124D01*
X125357443Y-57617971D01*
X125378062Y-57611716D01*
X125405640Y-57609000D01*
X125864360Y-57609000D01*
X125891938Y-57611716D01*
G37*
G36*
X124921938Y-57611716D02*
G01*
X124942557Y-57617971D01*
X124961553Y-57628124D01*
X124978208Y-57641792D01*
X124991876Y-57658447D01*
X125002029Y-57677443D01*
X125008284Y-57698062D01*
X125011000Y-57725640D01*
X125011000Y-58234360D01*
X125008284Y-58261938D01*
X125002029Y-58282557D01*
X124991876Y-58301553D01*
X124978208Y-58318208D01*
X124961553Y-58331876D01*
X124942557Y-58342029D01*
X124921938Y-58348284D01*
X124894360Y-58351000D01*
X124435640Y-58351000D01*
X124408062Y-58348284D01*
X124387443Y-58342029D01*
X124368447Y-58331876D01*
X124351792Y-58318208D01*
X124338124Y-58301553D01*
X124327971Y-58282557D01*
X124321716Y-58261938D01*
X124319000Y-58234360D01*
X124319000Y-57725640D01*
X124321716Y-57698062D01*
X124327971Y-57677443D01*
X124338124Y-57658447D01*
X124351792Y-57641792D01*
X124368447Y-57628124D01*
X124387443Y-57617971D01*
X124408062Y-57611716D01*
X124435640Y-57609000D01*
X124894360Y-57609000D01*
X124921938Y-57611716D01*
G37*
G36*
X127161938Y-57611716D02*
G01*
X127182557Y-57617971D01*
X127201553Y-57628124D01*
X127218208Y-57641792D01*
X127231876Y-57658447D01*
X127242029Y-57677443D01*
X127248284Y-57698062D01*
X127251000Y-57725640D01*
X127251000Y-58234360D01*
X127248284Y-58261938D01*
X127242029Y-58282557D01*
X127231876Y-58301553D01*
X127218208Y-58318208D01*
X127201553Y-58331876D01*
X127182557Y-58342029D01*
X127161938Y-58348284D01*
X127134360Y-58351000D01*
X126675640Y-58351000D01*
X126648062Y-58348284D01*
X126627443Y-58342029D01*
X126608447Y-58331876D01*
X126591792Y-58318208D01*
X126578124Y-58301553D01*
X126567971Y-58282557D01*
X126561716Y-58261938D01*
X126559000Y-58234360D01*
X126559000Y-57725640D01*
X126561716Y-57698062D01*
X126567971Y-57677443D01*
X126578124Y-57658447D01*
X126591792Y-57641792D01*
X126608447Y-57628124D01*
X126627443Y-57617971D01*
X126648062Y-57611716D01*
X126675640Y-57609000D01*
X127134360Y-57609000D01*
X127161938Y-57611716D01*
G37*
G36*
X118656938Y-56946716D02*
G01*
X118677557Y-56952971D01*
X118696553Y-56963124D01*
X118713208Y-56976792D01*
X118726876Y-56993447D01*
X118737029Y-57012443D01*
X118743284Y-57033062D01*
X118746000Y-57060640D01*
X118746000Y-57519360D01*
X118743284Y-57546938D01*
X118737029Y-57567557D01*
X118726876Y-57586553D01*
X118713208Y-57603208D01*
X118696553Y-57616876D01*
X118677557Y-57627029D01*
X118656938Y-57633284D01*
X118629360Y-57636000D01*
X118120640Y-57636000D01*
X118093062Y-57633284D01*
X118072443Y-57627029D01*
X118053447Y-57616876D01*
X118036792Y-57603208D01*
X118023124Y-57586553D01*
X118012971Y-57567557D01*
X118006716Y-57546938D01*
X118004000Y-57519360D01*
X118004000Y-57060640D01*
X118006716Y-57033062D01*
X118012971Y-57012443D01*
X118023124Y-56993447D01*
X118036792Y-56976792D01*
X118053447Y-56963124D01*
X118072443Y-56952971D01*
X118093062Y-56946716D01*
X118120640Y-56944000D01*
X118629360Y-56944000D01*
X118656938Y-56946716D01*
G37*
G36*
X115910721Y-56540174D02*
G01*
X116010995Y-56581709D01*
X116010996Y-56581710D01*
X116101242Y-56642010D01*
X116177990Y-56718758D01*
X116177991Y-56718760D01*
X116238291Y-56809005D01*
X116279826Y-56909279D01*
X116301000Y-57015730D01*
X116301000Y-57124270D01*
X116279826Y-57230721D01*
X116238291Y-57330995D01*
X116238290Y-57330996D01*
X116177990Y-57421242D01*
X116101242Y-57497990D01*
X116069259Y-57519360D01*
X116010995Y-57558291D01*
X115910721Y-57599826D01*
X115804270Y-57621000D01*
X115695730Y-57621000D01*
X115589279Y-57599826D01*
X115489005Y-57558291D01*
X115430741Y-57519360D01*
X115398758Y-57497990D01*
X115322010Y-57421242D01*
X115261710Y-57330996D01*
X115261709Y-57330995D01*
X115220174Y-57230721D01*
X115199000Y-57124270D01*
X115199000Y-57015730D01*
X115220174Y-56909279D01*
X115261709Y-56809005D01*
X115322009Y-56718760D01*
X115322010Y-56718758D01*
X115398758Y-56642010D01*
X115489004Y-56581710D01*
X115489005Y-56581709D01*
X115589279Y-56540174D01*
X115695730Y-56519000D01*
X115804270Y-56519000D01*
X115910721Y-56540174D01*
G37*
G36*
X124761938Y-56466716D02*
G01*
X124782557Y-56472971D01*
X124801553Y-56483124D01*
X124818208Y-56496792D01*
X124831876Y-56513447D01*
X124842029Y-56532443D01*
X124848284Y-56553062D01*
X124851000Y-56580640D01*
X124851000Y-57039360D01*
X124848284Y-57066938D01*
X124842029Y-57087557D01*
X124831876Y-57106553D01*
X124818208Y-57123208D01*
X124801553Y-57136876D01*
X124782557Y-57147029D01*
X124761938Y-57153284D01*
X124734360Y-57156000D01*
X124225640Y-57156000D01*
X124198062Y-57153284D01*
X124177443Y-57147029D01*
X124158447Y-57136876D01*
X124141792Y-57123208D01*
X124128124Y-57106553D01*
X124117971Y-57087557D01*
X124111716Y-57066938D01*
X124109000Y-57039360D01*
X124109000Y-56580640D01*
X124111716Y-56553062D01*
X124117971Y-56532443D01*
X124128124Y-56513447D01*
X124141792Y-56496792D01*
X124158447Y-56483124D01*
X124177443Y-56472971D01*
X124198062Y-56466716D01*
X124225640Y-56464000D01*
X124734360Y-56464000D01*
X124761938Y-56466716D01*
G37*
G36*
X122426938Y-55506716D02*
G01*
X122447557Y-55512971D01*
X122466553Y-55523124D01*
X122483208Y-55536792D01*
X122496876Y-55553447D01*
X122507029Y-55572443D01*
X122513284Y-55593062D01*
X122516000Y-55620640D01*
X122516000Y-56129360D01*
X122513284Y-56156938D01*
X122507029Y-56177557D01*
X122496876Y-56196553D01*
X122483208Y-56213208D01*
X122466553Y-56226876D01*
X122447557Y-56237029D01*
X122426938Y-56243284D01*
X122399360Y-56246000D01*
X121940640Y-56246000D01*
X121913062Y-56243284D01*
X121892443Y-56237029D01*
X121873447Y-56226876D01*
X121856792Y-56213208D01*
X121843124Y-56196553D01*
X121832971Y-56177557D01*
X121826716Y-56156938D01*
X121824000Y-56129360D01*
X121824000Y-55620640D01*
X121826716Y-55593062D01*
X121832971Y-55572443D01*
X121843124Y-55553447D01*
X121856792Y-55536792D01*
X121873447Y-55523124D01*
X121892443Y-55512971D01*
X121913062Y-55506716D01*
X121940640Y-55504000D01*
X122399360Y-55504000D01*
X122426938Y-55506716D01*
G37*
G36*
X123396938Y-55506716D02*
G01*
X123417557Y-55512971D01*
X123436553Y-55523124D01*
X123453208Y-55536792D01*
X123466876Y-55553447D01*
X123477029Y-55572443D01*
X123483284Y-55593062D01*
X123486000Y-55620640D01*
X123486000Y-56129360D01*
X123483284Y-56156938D01*
X123477029Y-56177557D01*
X123466876Y-56196553D01*
X123453208Y-56213208D01*
X123436553Y-56226876D01*
X123417557Y-56237029D01*
X123396938Y-56243284D01*
X123369360Y-56246000D01*
X122910640Y-56246000D01*
X122883062Y-56243284D01*
X122862443Y-56237029D01*
X122843447Y-56226876D01*
X122826792Y-56213208D01*
X122813124Y-56196553D01*
X122802971Y-56177557D01*
X122796716Y-56156938D01*
X122794000Y-56129360D01*
X122794000Y-55620640D01*
X122796716Y-55593062D01*
X122802971Y-55572443D01*
X122813124Y-55553447D01*
X122826792Y-55536792D01*
X122843447Y-55523124D01*
X122862443Y-55512971D01*
X122883062Y-55506716D01*
X122910640Y-55504000D01*
X123369360Y-55504000D01*
X123396938Y-55506716D01*
G37*
G36*
X124761938Y-55496716D02*
G01*
X124782557Y-55502971D01*
X124801553Y-55513124D01*
X124818208Y-55526792D01*
X124831876Y-55543447D01*
X124842029Y-55562443D01*
X124848284Y-55583062D01*
X124851000Y-55610640D01*
X124851000Y-56069360D01*
X124848284Y-56096938D01*
X124842029Y-56117557D01*
X124831876Y-56136553D01*
X124818208Y-56153208D01*
X124801553Y-56166876D01*
X124782557Y-56177029D01*
X124761938Y-56183284D01*
X124734360Y-56186000D01*
X124225640Y-56186000D01*
X124198062Y-56183284D01*
X124177443Y-56177029D01*
X124158447Y-56166876D01*
X124141792Y-56153208D01*
X124128124Y-56136553D01*
X124117971Y-56117557D01*
X124111716Y-56096938D01*
X124109000Y-56069360D01*
X124109000Y-55610640D01*
X124111716Y-55583062D01*
X124117971Y-55562443D01*
X124128124Y-55543447D01*
X124141792Y-55526792D01*
X124158447Y-55513124D01*
X124177443Y-55502971D01*
X124198062Y-55496716D01*
X124225640Y-55494000D01*
X124734360Y-55494000D01*
X124761938Y-55496716D01*
G37*
G36*
X130146938Y-54956716D02*
G01*
X130167557Y-54962971D01*
X130186553Y-54973124D01*
X130203208Y-54986792D01*
X130216876Y-55003447D01*
X130227029Y-55022443D01*
X130233284Y-55043062D01*
X130236000Y-55070640D01*
X130236000Y-55579360D01*
X130233284Y-55606938D01*
X130227029Y-55627557D01*
X130216876Y-55646553D01*
X130203208Y-55663208D01*
X130186553Y-55676876D01*
X130167557Y-55687029D01*
X130146938Y-55693284D01*
X130119360Y-55696000D01*
X129660640Y-55696000D01*
X129633062Y-55693284D01*
X129612443Y-55687029D01*
X129593447Y-55676876D01*
X129576792Y-55663208D01*
X129563124Y-55646553D01*
X129552971Y-55627557D01*
X129546716Y-55606938D01*
X129544000Y-55579360D01*
X129544000Y-55070640D01*
X129546716Y-55043062D01*
X129552971Y-55022443D01*
X129563124Y-55003447D01*
X129576792Y-54986792D01*
X129593447Y-54973124D01*
X129612443Y-54962971D01*
X129633062Y-54956716D01*
X129660640Y-54954000D01*
X130119360Y-54954000D01*
X130146938Y-54956716D01*
G37*
G36*
X129176938Y-54956716D02*
G01*
X129197557Y-54962971D01*
X129216553Y-54973124D01*
X129233208Y-54986792D01*
X129246876Y-55003447D01*
X129257029Y-55022443D01*
X129263284Y-55043062D01*
X129266000Y-55070640D01*
X129266000Y-55579360D01*
X129263284Y-55606938D01*
X129257029Y-55627557D01*
X129246876Y-55646553D01*
X129233208Y-55663208D01*
X129216553Y-55676876D01*
X129197557Y-55687029D01*
X129176938Y-55693284D01*
X129149360Y-55696000D01*
X128690640Y-55696000D01*
X128663062Y-55693284D01*
X128642443Y-55687029D01*
X128623447Y-55676876D01*
X128606792Y-55663208D01*
X128593124Y-55646553D01*
X128582971Y-55627557D01*
X128576716Y-55606938D01*
X128574000Y-55579360D01*
X128574000Y-55070640D01*
X128576716Y-55043062D01*
X128582971Y-55022443D01*
X128593124Y-55003447D01*
X128606792Y-54986792D01*
X128623447Y-54973124D01*
X128642443Y-54962971D01*
X128663062Y-54956716D01*
X128690640Y-54954000D01*
X129149360Y-54954000D01*
X129176938Y-54956716D01*
G37*
G36*
X115910721Y-54140174D02*
G01*
X116010995Y-54181709D01*
X116010996Y-54181710D01*
X116101242Y-54242010D01*
X116177990Y-54318758D01*
X116177991Y-54318760D01*
X116238291Y-54409005D01*
X116279826Y-54509279D01*
X116301000Y-54615730D01*
X116301000Y-54724270D01*
X116279826Y-54830721D01*
X116238291Y-54930995D01*
X116238290Y-54930996D01*
X116177990Y-55021242D01*
X116101242Y-55097990D01*
X116057825Y-55127000D01*
X116010995Y-55158291D01*
X115910721Y-55199826D01*
X115804270Y-55221000D01*
X115695730Y-55221000D01*
X115589279Y-55199826D01*
X115489005Y-55158291D01*
X115442175Y-55127000D01*
X115398758Y-55097990D01*
X115322010Y-55021242D01*
X115261710Y-54930996D01*
X115261709Y-54930995D01*
X115220174Y-54830721D01*
X115199000Y-54724270D01*
X115199000Y-54615730D01*
X115220174Y-54509279D01*
X115261709Y-54409005D01*
X115322009Y-54318760D01*
X115322010Y-54318758D01*
X115398758Y-54242010D01*
X115489004Y-54181710D01*
X115489005Y-54181709D01*
X115589279Y-54140174D01*
X115695730Y-54119000D01*
X115804270Y-54119000D01*
X115910721Y-54140174D01*
G37*
G36*
X123016938Y-54041716D02*
G01*
X123037557Y-54047971D01*
X123056553Y-54058124D01*
X123073208Y-54071792D01*
X123086876Y-54088447D01*
X123097029Y-54107443D01*
X123103284Y-54128062D01*
X123106000Y-54155640D01*
X123106000Y-54664360D01*
X123103284Y-54691938D01*
X123097029Y-54712557D01*
X123086876Y-54731553D01*
X123073208Y-54748208D01*
X123056553Y-54761876D01*
X123037557Y-54772029D01*
X123016938Y-54778284D01*
X122989360Y-54781000D01*
X122530640Y-54781000D01*
X122503062Y-54778284D01*
X122482443Y-54772029D01*
X122463447Y-54761876D01*
X122446792Y-54748208D01*
X122433124Y-54731553D01*
X122422971Y-54712557D01*
X122416716Y-54691938D01*
X122414000Y-54664360D01*
X122414000Y-54155640D01*
X122416716Y-54128062D01*
X122422971Y-54107443D01*
X122433124Y-54088447D01*
X122446792Y-54071792D01*
X122463447Y-54058124D01*
X122482443Y-54047971D01*
X122503062Y-54041716D01*
X122530640Y-54039000D01*
X122989360Y-54039000D01*
X123016938Y-54041716D01*
G37*
G36*
X122046938Y-54041716D02*
G01*
X122067557Y-54047971D01*
X122086553Y-54058124D01*
X122103208Y-54071792D01*
X122116876Y-54088447D01*
X122127029Y-54107443D01*
X122133284Y-54128062D01*
X122136000Y-54155640D01*
X122136000Y-54664360D01*
X122133284Y-54691938D01*
X122127029Y-54712557D01*
X122116876Y-54731553D01*
X122103208Y-54748208D01*
X122086553Y-54761876D01*
X122067557Y-54772029D01*
X122046938Y-54778284D01*
X122019360Y-54781000D01*
X121560640Y-54781000D01*
X121533062Y-54778284D01*
X121512443Y-54772029D01*
X121493447Y-54761876D01*
X121476792Y-54748208D01*
X121463124Y-54731553D01*
X121452971Y-54712557D01*
X121446716Y-54691938D01*
X121444000Y-54664360D01*
X121444000Y-54155640D01*
X121446716Y-54128062D01*
X121452971Y-54107443D01*
X121463124Y-54088447D01*
X121476792Y-54071792D01*
X121493447Y-54058124D01*
X121512443Y-54047971D01*
X121533062Y-54041716D01*
X121560640Y-54039000D01*
X122019360Y-54039000D01*
X122046938Y-54041716D01*
G37*
G36*
X131826938Y-53906716D02*
G01*
X131847557Y-53912971D01*
X131866553Y-53923124D01*
X131883208Y-53936792D01*
X131896876Y-53953447D01*
X131907029Y-53972443D01*
X131913284Y-53993062D01*
X131916000Y-54020640D01*
X131916000Y-54529360D01*
X131913284Y-54556938D01*
X131907029Y-54577557D01*
X131896876Y-54596553D01*
X131883208Y-54613208D01*
X131866553Y-54626876D01*
X131847557Y-54637029D01*
X131826938Y-54643284D01*
X131799360Y-54646000D01*
X131340640Y-54646000D01*
X131313062Y-54643284D01*
X131292443Y-54637029D01*
X131273447Y-54626876D01*
X131256792Y-54613208D01*
X131243124Y-54596553D01*
X131232971Y-54577557D01*
X131226716Y-54556938D01*
X131224000Y-54529360D01*
X131224000Y-54020640D01*
X131226716Y-53993062D01*
X131232971Y-53972443D01*
X131243124Y-53953447D01*
X131256792Y-53936792D01*
X131273447Y-53923124D01*
X131292443Y-53912971D01*
X131313062Y-53906716D01*
X131340640Y-53904000D01*
X131799360Y-53904000D01*
X131826938Y-53906716D01*
G37*
G36*
X132796938Y-53906716D02*
G01*
X132817557Y-53912971D01*
X132836553Y-53923124D01*
X132853208Y-53936792D01*
X132866876Y-53953447D01*
X132877029Y-53972443D01*
X132883284Y-53993062D01*
X132886000Y-54020640D01*
X132886000Y-54529360D01*
X132883284Y-54556938D01*
X132877029Y-54577557D01*
X132866876Y-54596553D01*
X132853208Y-54613208D01*
X132836553Y-54626876D01*
X132817557Y-54637029D01*
X132796938Y-54643284D01*
X132769360Y-54646000D01*
X132310640Y-54646000D01*
X132283062Y-54643284D01*
X132262443Y-54637029D01*
X132243447Y-54626876D01*
X132226792Y-54613208D01*
X132213124Y-54596553D01*
X132202971Y-54577557D01*
X132196716Y-54556938D01*
X132194000Y-54529360D01*
X132194000Y-54020640D01*
X132196716Y-53993062D01*
X132202971Y-53972443D01*
X132213124Y-53953447D01*
X132226792Y-53936792D01*
X132243447Y-53923124D01*
X132262443Y-53912971D01*
X132283062Y-53906716D01*
X132310640Y-53904000D01*
X132769360Y-53904000D01*
X132796938Y-53906716D01*
G37*
G36*
X125295355Y-48460083D02*
G01*
X125300029Y-48461501D01*
X125304330Y-48463800D01*
X125310702Y-48469029D01*
X125331076Y-48482643D01*
X125353715Y-48492020D01*
X125377749Y-48496800D01*
X125402253Y-48496800D01*
X125426286Y-48492019D01*
X125448925Y-48482642D01*
X125469298Y-48469029D01*
X125475670Y-48463800D01*
X125479971Y-48461501D01*
X125484645Y-48460083D01*
X125495641Y-48459000D01*
X125784359Y-48459000D01*
X125795355Y-48460083D01*
X125800029Y-48461501D01*
X125804330Y-48463800D01*
X125810702Y-48469029D01*
X125831076Y-48482643D01*
X125853715Y-48492020D01*
X125877749Y-48496800D01*
X125902253Y-48496800D01*
X125926286Y-48492019D01*
X125948925Y-48482642D01*
X125969298Y-48469029D01*
X125975670Y-48463800D01*
X125979971Y-48461501D01*
X125984645Y-48460083D01*
X125995641Y-48459000D01*
X126284359Y-48459000D01*
X126295355Y-48460083D01*
X126300029Y-48461501D01*
X126304330Y-48463800D01*
X126310702Y-48469029D01*
X126331076Y-48482643D01*
X126353715Y-48492020D01*
X126377749Y-48496800D01*
X126402253Y-48496800D01*
X126426286Y-48492019D01*
X126448925Y-48482642D01*
X126469298Y-48469029D01*
X126475670Y-48463800D01*
X126479971Y-48461501D01*
X126484645Y-48460083D01*
X126495641Y-48459000D01*
X126784359Y-48459000D01*
X126795355Y-48460083D01*
X126800029Y-48461501D01*
X126804330Y-48463800D01*
X126810702Y-48469029D01*
X126831076Y-48482643D01*
X126853715Y-48492020D01*
X126877749Y-48496800D01*
X126902253Y-48496800D01*
X126926286Y-48492019D01*
X126948925Y-48482642D01*
X126969298Y-48469029D01*
X126975670Y-48463800D01*
X126979971Y-48461501D01*
X126984645Y-48460083D01*
X126995641Y-48459000D01*
X127284359Y-48459000D01*
X127295355Y-48460083D01*
X127300029Y-48461501D01*
X127304330Y-48463800D01*
X127310702Y-48469029D01*
X127331076Y-48482643D01*
X127353715Y-48492020D01*
X127377749Y-48496800D01*
X127402253Y-48496800D01*
X127426286Y-48492019D01*
X127448925Y-48482642D01*
X127469298Y-48469029D01*
X127475670Y-48463800D01*
X127479971Y-48461501D01*
X127484645Y-48460083D01*
X127495641Y-48459000D01*
X127784359Y-48459000D01*
X127795355Y-48460083D01*
X127800029Y-48461501D01*
X127804330Y-48463800D01*
X127810702Y-48469029D01*
X127831076Y-48482643D01*
X127853715Y-48492020D01*
X127877749Y-48496800D01*
X127902253Y-48496800D01*
X127926286Y-48492019D01*
X127948925Y-48482642D01*
X127969298Y-48469029D01*
X127975670Y-48463800D01*
X127979971Y-48461501D01*
X127984645Y-48460083D01*
X127995641Y-48459000D01*
X128284359Y-48459000D01*
X128295355Y-48460083D01*
X128300029Y-48461501D01*
X128304330Y-48463800D01*
X128310702Y-48469029D01*
X128331076Y-48482643D01*
X128353715Y-48492020D01*
X128377749Y-48496800D01*
X128402253Y-48496800D01*
X128426286Y-48492019D01*
X128448925Y-48482642D01*
X128469298Y-48469029D01*
X128475670Y-48463800D01*
X128479971Y-48461501D01*
X128484645Y-48460083D01*
X128495641Y-48459000D01*
X128784359Y-48459000D01*
X128795355Y-48460083D01*
X128800029Y-48461501D01*
X128804331Y-48463800D01*
X128808104Y-48466896D01*
X128811200Y-48470669D01*
X128813499Y-48474971D01*
X128814917Y-48479645D01*
X128816000Y-48490641D01*
X128816000Y-49334001D01*
X128818402Y-49358387D01*
X128825515Y-49381836D01*
X128837066Y-49403447D01*
X128852611Y-49422389D01*
X128871553Y-49437934D01*
X128893164Y-49449485D01*
X128916613Y-49456598D01*
X128940999Y-49459000D01*
X129784359Y-49459000D01*
X129795355Y-49460083D01*
X129800029Y-49461501D01*
X129804331Y-49463800D01*
X129808104Y-49466896D01*
X129811200Y-49470669D01*
X129813499Y-49474971D01*
X129814917Y-49479645D01*
X129816000Y-49490641D01*
X129816000Y-49779359D01*
X129814917Y-49790355D01*
X129813499Y-49795029D01*
X129811200Y-49799330D01*
X129805971Y-49805702D01*
X129792357Y-49826076D01*
X129782980Y-49848715D01*
X129778200Y-49872749D01*
X129778200Y-49897253D01*
X129782981Y-49921286D01*
X129792358Y-49943925D01*
X129805971Y-49964298D01*
X129811200Y-49970670D01*
X129813499Y-49974971D01*
X129814917Y-49979645D01*
X129816000Y-49990641D01*
X129816000Y-50279359D01*
X129814917Y-50290355D01*
X129813499Y-50295029D01*
X129811200Y-50299330D01*
X129805971Y-50305702D01*
X129792357Y-50326076D01*
X129782980Y-50348715D01*
X129778200Y-50372749D01*
X129778200Y-50397253D01*
X129782981Y-50421286D01*
X129792358Y-50443925D01*
X129805971Y-50464298D01*
X129811200Y-50470670D01*
X129813499Y-50474971D01*
X129814917Y-50479645D01*
X129816000Y-50490641D01*
X129816000Y-50779359D01*
X129814917Y-50790355D01*
X129813499Y-50795029D01*
X129811200Y-50799330D01*
X129805971Y-50805702D01*
X129792357Y-50826076D01*
X129782980Y-50848715D01*
X129778200Y-50872749D01*
X129778200Y-50897253D01*
X129782981Y-50921286D01*
X129792358Y-50943925D01*
X129805971Y-50964298D01*
X129811200Y-50970670D01*
X129813499Y-50974971D01*
X129814917Y-50979645D01*
X129816000Y-50990641D01*
X129816000Y-51279359D01*
X129814917Y-51290355D01*
X129813499Y-51295029D01*
X129811200Y-51299330D01*
X129805971Y-51305702D01*
X129792357Y-51326076D01*
X129782980Y-51348715D01*
X129778200Y-51372749D01*
X129778200Y-51397253D01*
X129782981Y-51421286D01*
X129792358Y-51443925D01*
X129805971Y-51464298D01*
X129811200Y-51470670D01*
X129813499Y-51474971D01*
X129814917Y-51479645D01*
X129816000Y-51490641D01*
X129816000Y-51779359D01*
X129814917Y-51790355D01*
X129813499Y-51795029D01*
X129811200Y-51799330D01*
X129805971Y-51805702D01*
X129792357Y-51826076D01*
X129782980Y-51848715D01*
X129778200Y-51872749D01*
X129778200Y-51897253D01*
X129782981Y-51921286D01*
X129792358Y-51943925D01*
X129805971Y-51964298D01*
X129811200Y-51970670D01*
X129813499Y-51974971D01*
X129814917Y-51979645D01*
X129816000Y-51990641D01*
X129816000Y-52279359D01*
X129814917Y-52290355D01*
X129813499Y-52295029D01*
X129811200Y-52299330D01*
X129805971Y-52305702D01*
X129792357Y-52326076D01*
X129782980Y-52348715D01*
X129778200Y-52372749D01*
X129778200Y-52397253D01*
X129782981Y-52421286D01*
X129792358Y-52443925D01*
X129805971Y-52464298D01*
X129811200Y-52470670D01*
X129813499Y-52474971D01*
X129814917Y-52479645D01*
X129816000Y-52490641D01*
X129816000Y-52779359D01*
X129814917Y-52790355D01*
X129813499Y-52795029D01*
X129811200Y-52799330D01*
X129805971Y-52805702D01*
X129792357Y-52826076D01*
X129782980Y-52848715D01*
X129778200Y-52872749D01*
X129778200Y-52897253D01*
X129782981Y-52921286D01*
X129792358Y-52943925D01*
X129805971Y-52964298D01*
X129811200Y-52970670D01*
X129813499Y-52974971D01*
X129814917Y-52979645D01*
X129816000Y-52990641D01*
X129816000Y-53279359D01*
X129814917Y-53290355D01*
X129813499Y-53295029D01*
X129811200Y-53299331D01*
X129808104Y-53303104D01*
X129804331Y-53306200D01*
X129800029Y-53308499D01*
X129795355Y-53309917D01*
X129784359Y-53311000D01*
X128940999Y-53311000D01*
X128916613Y-53313402D01*
X128893164Y-53320515D01*
X128871553Y-53332066D01*
X128852611Y-53347611D01*
X128837066Y-53366553D01*
X128825515Y-53388164D01*
X128818402Y-53411613D01*
X128816000Y-53435999D01*
X128816000Y-54279359D01*
X128814917Y-54290355D01*
X128813499Y-54295029D01*
X128811200Y-54299331D01*
X128808104Y-54303104D01*
X128804331Y-54306200D01*
X128800029Y-54308499D01*
X128795355Y-54309917D01*
X128784359Y-54311000D01*
X128495641Y-54311000D01*
X128484645Y-54309917D01*
X128479971Y-54308499D01*
X128475670Y-54306200D01*
X128469298Y-54300971D01*
X128448924Y-54287357D01*
X128426285Y-54277980D01*
X128402251Y-54273200D01*
X128377747Y-54273200D01*
X128353714Y-54277981D01*
X128331075Y-54287358D01*
X128310702Y-54300971D01*
X128304330Y-54306200D01*
X128300029Y-54308499D01*
X128295355Y-54309917D01*
X128284359Y-54311000D01*
X127995641Y-54311000D01*
X127984645Y-54309917D01*
X127979971Y-54308499D01*
X127975670Y-54306200D01*
X127969298Y-54300971D01*
X127948924Y-54287357D01*
X127926285Y-54277980D01*
X127902251Y-54273200D01*
X127877747Y-54273200D01*
X127853714Y-54277981D01*
X127831075Y-54287358D01*
X127810702Y-54300971D01*
X127804330Y-54306200D01*
X127800029Y-54308499D01*
X127795355Y-54309917D01*
X127784359Y-54311000D01*
X127495641Y-54311000D01*
X127484645Y-54309917D01*
X127479971Y-54308499D01*
X127475670Y-54306200D01*
X127469298Y-54300971D01*
X127448924Y-54287357D01*
X127426285Y-54277980D01*
X127402251Y-54273200D01*
X127377747Y-54273200D01*
X127353714Y-54277981D01*
X127331075Y-54287358D01*
X127310702Y-54300971D01*
X127304330Y-54306200D01*
X127300029Y-54308499D01*
X127295355Y-54309917D01*
X127284359Y-54311000D01*
X126995641Y-54311000D01*
X126984645Y-54309917D01*
X126979971Y-54308499D01*
X126975670Y-54306200D01*
X126969298Y-54300971D01*
X126948924Y-54287357D01*
X126926285Y-54277980D01*
X126902251Y-54273200D01*
X126877747Y-54273200D01*
X126853714Y-54277981D01*
X126831075Y-54287358D01*
X126810702Y-54300971D01*
X126804330Y-54306200D01*
X126800029Y-54308499D01*
X126795355Y-54309917D01*
X126784359Y-54311000D01*
X126495641Y-54311000D01*
X126484645Y-54309917D01*
X126479971Y-54308499D01*
X126475670Y-54306200D01*
X126469298Y-54300971D01*
X126448924Y-54287357D01*
X126426285Y-54277980D01*
X126402251Y-54273200D01*
X126377747Y-54273200D01*
X126353714Y-54277981D01*
X126331075Y-54287358D01*
X126310702Y-54300971D01*
X126304330Y-54306200D01*
X126300029Y-54308499D01*
X126295355Y-54309917D01*
X126284359Y-54311000D01*
X125995641Y-54311000D01*
X125984645Y-54309917D01*
X125979971Y-54308499D01*
X125975670Y-54306200D01*
X125969298Y-54300971D01*
X125948924Y-54287357D01*
X125926285Y-54277980D01*
X125902251Y-54273200D01*
X125877747Y-54273200D01*
X125853714Y-54277981D01*
X125831075Y-54287358D01*
X125810702Y-54300971D01*
X125804330Y-54306200D01*
X125800029Y-54308499D01*
X125795355Y-54309917D01*
X125784359Y-54311000D01*
X125495641Y-54311000D01*
X125484645Y-54309917D01*
X125479971Y-54308499D01*
X125475670Y-54306200D01*
X125469298Y-54300971D01*
X125448924Y-54287357D01*
X125426285Y-54277980D01*
X125402251Y-54273200D01*
X125377747Y-54273200D01*
X125353714Y-54277981D01*
X125331075Y-54287358D01*
X125310702Y-54300971D01*
X125304330Y-54306200D01*
X125300029Y-54308499D01*
X125295355Y-54309917D01*
X125284359Y-54311000D01*
X124995641Y-54311000D01*
X124984645Y-54309917D01*
X124979971Y-54308499D01*
X124975669Y-54306200D01*
X124971896Y-54303104D01*
X124968800Y-54299331D01*
X124966501Y-54295029D01*
X124965083Y-54290355D01*
X124964000Y-54279359D01*
X124964000Y-53435999D01*
X124961598Y-53411613D01*
X124954485Y-53388164D01*
X124942934Y-53366553D01*
X124927389Y-53347611D01*
X124908447Y-53332066D01*
X124886836Y-53320515D01*
X124863387Y-53313402D01*
X124839001Y-53311000D01*
X123995641Y-53311000D01*
X123984645Y-53309917D01*
X123979971Y-53308499D01*
X123975669Y-53306200D01*
X123971896Y-53303104D01*
X123968800Y-53299331D01*
X123966501Y-53295029D01*
X123965083Y-53290355D01*
X123964000Y-53279359D01*
X123964000Y-52990641D01*
X123965083Y-52979645D01*
X123966501Y-52974971D01*
X123968800Y-52970670D01*
X123974029Y-52964298D01*
X123987643Y-52943924D01*
X123997020Y-52921285D01*
X124001800Y-52897251D01*
X124001800Y-52872747D01*
X123997019Y-52848714D01*
X123987642Y-52826075D01*
X123974029Y-52805702D01*
X123968800Y-52799330D01*
X123966501Y-52795029D01*
X123965083Y-52790355D01*
X123964000Y-52779359D01*
X123964000Y-52490641D01*
X123965083Y-52479645D01*
X123966501Y-52474971D01*
X123968800Y-52470670D01*
X123974029Y-52464298D01*
X123987643Y-52443924D01*
X123997020Y-52421285D01*
X124001800Y-52397251D01*
X124001800Y-52372747D01*
X123997019Y-52348714D01*
X123987642Y-52326075D01*
X123974029Y-52305702D01*
X123968800Y-52299330D01*
X123966501Y-52295029D01*
X123965083Y-52290355D01*
X123964000Y-52279359D01*
X123964000Y-51990641D01*
X123965083Y-51979645D01*
X123966501Y-51974971D01*
X123968800Y-51970670D01*
X123974029Y-51964298D01*
X123987643Y-51943924D01*
X123997020Y-51921285D01*
X124001800Y-51897251D01*
X124001800Y-51872747D01*
X123997019Y-51848714D01*
X123987642Y-51826075D01*
X123974029Y-51805702D01*
X123968800Y-51799330D01*
X123966501Y-51795029D01*
X123965083Y-51790355D01*
X123964000Y-51779359D01*
X123964000Y-51490641D01*
X123965083Y-51479645D01*
X123966501Y-51474971D01*
X123968800Y-51470670D01*
X123974029Y-51464298D01*
X123987643Y-51443924D01*
X123997020Y-51421285D01*
X124001800Y-51397251D01*
X124001800Y-51372747D01*
X123997019Y-51348714D01*
X123987642Y-51326075D01*
X123974029Y-51305702D01*
X123968800Y-51299330D01*
X123966501Y-51295029D01*
X123965083Y-51290355D01*
X123964000Y-51279359D01*
X123964000Y-50990641D01*
X123965083Y-50979645D01*
X123966501Y-50974971D01*
X123968800Y-50970670D01*
X123974029Y-50964298D01*
X123987643Y-50943924D01*
X123997020Y-50921285D01*
X124001800Y-50897251D01*
X124001800Y-50872747D01*
X123997019Y-50848714D01*
X123987642Y-50826075D01*
X123974029Y-50805702D01*
X123968800Y-50799330D01*
X123966501Y-50795029D01*
X123965083Y-50790355D01*
X123964000Y-50779359D01*
X123964000Y-50490641D01*
X123965083Y-50479645D01*
X123966501Y-50474971D01*
X123968800Y-50470670D01*
X123974029Y-50464298D01*
X123987643Y-50443924D01*
X123997020Y-50421285D01*
X124001800Y-50397251D01*
X124001800Y-50372747D01*
X123997019Y-50348714D01*
X123987642Y-50326075D01*
X123974029Y-50305702D01*
X123968800Y-50299330D01*
X123966501Y-50295029D01*
X123965083Y-50290355D01*
X123964000Y-50279359D01*
X123964000Y-49990641D01*
X123965083Y-49979645D01*
X123966501Y-49974971D01*
X123968800Y-49970670D01*
X123974029Y-49964298D01*
X123987643Y-49943924D01*
X123997020Y-49921285D01*
X124001800Y-49897251D01*
X124001800Y-49872749D01*
X124903200Y-49872749D01*
X124903200Y-49897253D01*
X124907981Y-49921286D01*
X124917358Y-49943925D01*
X124930971Y-49964298D01*
X124936200Y-49970670D01*
X124938499Y-49974971D01*
X124939917Y-49979645D01*
X124941000Y-49990641D01*
X124941000Y-50279359D01*
X124939917Y-50290355D01*
X124938499Y-50295029D01*
X124936200Y-50299330D01*
X124930971Y-50305702D01*
X124917357Y-50326076D01*
X124907980Y-50348715D01*
X124903200Y-50372749D01*
X124903200Y-50397253D01*
X124907981Y-50421286D01*
X124917358Y-50443925D01*
X124930971Y-50464298D01*
X124936200Y-50470670D01*
X124938499Y-50474971D01*
X124939917Y-50479645D01*
X124941000Y-50490641D01*
X124941000Y-50779359D01*
X124939917Y-50790355D01*
X124938499Y-50795029D01*
X124936200Y-50799330D01*
X124930971Y-50805702D01*
X124917357Y-50826076D01*
X124907980Y-50848715D01*
X124903200Y-50872749D01*
X124903200Y-50897253D01*
X124907981Y-50921286D01*
X124917358Y-50943925D01*
X124930971Y-50964298D01*
X124936200Y-50970670D01*
X124938499Y-50974971D01*
X124939917Y-50979645D01*
X124941000Y-50990641D01*
X124941000Y-51279359D01*
X124939917Y-51290355D01*
X124938499Y-51295029D01*
X124936200Y-51299330D01*
X124930971Y-51305702D01*
X124917357Y-51326076D01*
X124907980Y-51348715D01*
X124903200Y-51372749D01*
X124903200Y-51397253D01*
X124907981Y-51421286D01*
X124917358Y-51443925D01*
X124930971Y-51464298D01*
X124936200Y-51470670D01*
X124938499Y-51474971D01*
X124939917Y-51479645D01*
X124941000Y-51490641D01*
X124941000Y-51779359D01*
X124939917Y-51790355D01*
X124938499Y-51795029D01*
X124936200Y-51799330D01*
X124930971Y-51805702D01*
X124917357Y-51826076D01*
X124907980Y-51848715D01*
X124903200Y-51872749D01*
X124903200Y-51897253D01*
X124907981Y-51921286D01*
X124917358Y-51943925D01*
X124930971Y-51964298D01*
X124936200Y-51970670D01*
X124938499Y-51974971D01*
X124939917Y-51979645D01*
X124941000Y-51990641D01*
X124941000Y-52279359D01*
X124939917Y-52290355D01*
X124938499Y-52295029D01*
X124936200Y-52299330D01*
X124930971Y-52305702D01*
X124917357Y-52326076D01*
X124907980Y-52348715D01*
X124903200Y-52372749D01*
X124903200Y-52397253D01*
X124907981Y-52421286D01*
X124917358Y-52443925D01*
X124930971Y-52464298D01*
X124936200Y-52470670D01*
X124938499Y-52474971D01*
X124939917Y-52479645D01*
X124941000Y-52490641D01*
X124941000Y-52779359D01*
X124939917Y-52790355D01*
X124938499Y-52795029D01*
X124936200Y-52799330D01*
X124930971Y-52805702D01*
X124917357Y-52826076D01*
X124907980Y-52848715D01*
X124903200Y-52872749D01*
X124903200Y-52897253D01*
X124907981Y-52921286D01*
X124917358Y-52943925D01*
X124930971Y-52964298D01*
X124936200Y-52970670D01*
X124938499Y-52974971D01*
X124939917Y-52979645D01*
X124941000Y-52990641D01*
X124941000Y-53209001D01*
X124943402Y-53233387D01*
X124950515Y-53256836D01*
X124962066Y-53278447D01*
X124977611Y-53297389D01*
X124996553Y-53312934D01*
X125018164Y-53324485D01*
X125041613Y-53331598D01*
X125065999Y-53334000D01*
X125284359Y-53334000D01*
X125295355Y-53335083D01*
X125300029Y-53336501D01*
X125304330Y-53338800D01*
X125310702Y-53344029D01*
X125331076Y-53357643D01*
X125353715Y-53367020D01*
X125377749Y-53371800D01*
X125402253Y-53371800D01*
X125426286Y-53367019D01*
X125448925Y-53357642D01*
X125469298Y-53344029D01*
X125475670Y-53338800D01*
X125479971Y-53336501D01*
X125484645Y-53335083D01*
X125495641Y-53334000D01*
X125784359Y-53334000D01*
X125795355Y-53335083D01*
X125800029Y-53336501D01*
X125804330Y-53338800D01*
X125810702Y-53344029D01*
X125831076Y-53357643D01*
X125853715Y-53367020D01*
X125877749Y-53371800D01*
X125902253Y-53371800D01*
X125926286Y-53367019D01*
X125948925Y-53357642D01*
X125969298Y-53344029D01*
X125975670Y-53338800D01*
X125979971Y-53336501D01*
X125984645Y-53335083D01*
X125995641Y-53334000D01*
X126284359Y-53334000D01*
X126295355Y-53335083D01*
X126300029Y-53336501D01*
X126304330Y-53338800D01*
X126310702Y-53344029D01*
X126331076Y-53357643D01*
X126353715Y-53367020D01*
X126377749Y-53371800D01*
X126402253Y-53371800D01*
X126426286Y-53367019D01*
X126448925Y-53357642D01*
X126469298Y-53344029D01*
X126475670Y-53338800D01*
X126479971Y-53336501D01*
X126484645Y-53335083D01*
X126495641Y-53334000D01*
X126784359Y-53334000D01*
X126795355Y-53335083D01*
X126800029Y-53336501D01*
X126804330Y-53338800D01*
X126810702Y-53344029D01*
X126831076Y-53357643D01*
X126853715Y-53367020D01*
X126877749Y-53371800D01*
X126902253Y-53371800D01*
X126926286Y-53367019D01*
X126948925Y-53357642D01*
X126969298Y-53344029D01*
X126975670Y-53338800D01*
X126979971Y-53336501D01*
X126984645Y-53335083D01*
X126995641Y-53334000D01*
X127284359Y-53334000D01*
X127295355Y-53335083D01*
X127300029Y-53336501D01*
X127304330Y-53338800D01*
X127310702Y-53344029D01*
X127331076Y-53357643D01*
X127353715Y-53367020D01*
X127377749Y-53371800D01*
X127402253Y-53371800D01*
X127426286Y-53367019D01*
X127448925Y-53357642D01*
X127469298Y-53344029D01*
X127475670Y-53338800D01*
X127479971Y-53336501D01*
X127484645Y-53335083D01*
X127495641Y-53334000D01*
X127784359Y-53334000D01*
X127795355Y-53335083D01*
X127800029Y-53336501D01*
X127804330Y-53338800D01*
X127810702Y-53344029D01*
X127831076Y-53357643D01*
X127853715Y-53367020D01*
X127877749Y-53371800D01*
X127902253Y-53371800D01*
X127926286Y-53367019D01*
X127948925Y-53357642D01*
X127969298Y-53344029D01*
X127975670Y-53338800D01*
X127979971Y-53336501D01*
X127984645Y-53335083D01*
X127995641Y-53334000D01*
X128284359Y-53334000D01*
X128295355Y-53335083D01*
X128300029Y-53336501D01*
X128304330Y-53338800D01*
X128310702Y-53344029D01*
X128331076Y-53357643D01*
X128353715Y-53367020D01*
X128377749Y-53371800D01*
X128402253Y-53371800D01*
X128426286Y-53367019D01*
X128448925Y-53357642D01*
X128469298Y-53344029D01*
X128475670Y-53338800D01*
X128479971Y-53336501D01*
X128484645Y-53335083D01*
X128495641Y-53334000D01*
X128714001Y-53334000D01*
X128738387Y-53331598D01*
X128761836Y-53324485D01*
X128783447Y-53312934D01*
X128802389Y-53297389D01*
X128817934Y-53278447D01*
X128829485Y-53256836D01*
X128836598Y-53233387D01*
X128839000Y-53209001D01*
X128839000Y-52990641D01*
X128840083Y-52979645D01*
X128841501Y-52974971D01*
X128843800Y-52970670D01*
X128849029Y-52964298D01*
X128862643Y-52943924D01*
X128872020Y-52921285D01*
X128876800Y-52897251D01*
X128876800Y-52872747D01*
X128872019Y-52848714D01*
X128862642Y-52826075D01*
X128849029Y-52805702D01*
X128843800Y-52799330D01*
X128841501Y-52795029D01*
X128840083Y-52790355D01*
X128839000Y-52779359D01*
X128839000Y-52490641D01*
X128840083Y-52479645D01*
X128841501Y-52474971D01*
X128843800Y-52470670D01*
X128849029Y-52464298D01*
X128862643Y-52443924D01*
X128872020Y-52421285D01*
X128876800Y-52397251D01*
X128876800Y-52372747D01*
X128872019Y-52348714D01*
X128862642Y-52326075D01*
X128849029Y-52305702D01*
X128843800Y-52299330D01*
X128841501Y-52295029D01*
X128840083Y-52290355D01*
X128839000Y-52279359D01*
X128839000Y-51990641D01*
X128840083Y-51979645D01*
X128841501Y-51974971D01*
X128843800Y-51970670D01*
X128849029Y-51964298D01*
X128862643Y-51943924D01*
X128872020Y-51921285D01*
X128876800Y-51897251D01*
X128876800Y-51872747D01*
X128872019Y-51848714D01*
X128862642Y-51826075D01*
X128849029Y-51805702D01*
X128843800Y-51799330D01*
X128841501Y-51795029D01*
X128840083Y-51790355D01*
X128839000Y-51779359D01*
X128839000Y-51490641D01*
X128840083Y-51479645D01*
X128841501Y-51474971D01*
X128843800Y-51470670D01*
X128849029Y-51464298D01*
X128862643Y-51443924D01*
X128872020Y-51421285D01*
X128876800Y-51397251D01*
X128876800Y-51372747D01*
X128872019Y-51348714D01*
X128862642Y-51326075D01*
X128849029Y-51305702D01*
X128843800Y-51299330D01*
X128841501Y-51295029D01*
X128840083Y-51290355D01*
X128839000Y-51279359D01*
X128839000Y-50990641D01*
X128840083Y-50979645D01*
X128841501Y-50974971D01*
X128843800Y-50970670D01*
X128849029Y-50964298D01*
X128862643Y-50943924D01*
X128872020Y-50921285D01*
X128876800Y-50897251D01*
X128876800Y-50872747D01*
X128872019Y-50848714D01*
X128862642Y-50826075D01*
X128849029Y-50805702D01*
X128843800Y-50799330D01*
X128841501Y-50795029D01*
X128840083Y-50790355D01*
X128839000Y-50779359D01*
X128839000Y-50490641D01*
X128840083Y-50479645D01*
X128841501Y-50474971D01*
X128843800Y-50470670D01*
X128849029Y-50464298D01*
X128862643Y-50443924D01*
X128872020Y-50421285D01*
X128876800Y-50397251D01*
X128876800Y-50372747D01*
X128872019Y-50348714D01*
X128862642Y-50326075D01*
X128849029Y-50305702D01*
X128843800Y-50299330D01*
X128841501Y-50295029D01*
X128840083Y-50290355D01*
X128839000Y-50279359D01*
X128839000Y-49990641D01*
X128840083Y-49979645D01*
X128841501Y-49974971D01*
X128843800Y-49970670D01*
X128849029Y-49964298D01*
X128862643Y-49943924D01*
X128872020Y-49921285D01*
X128876800Y-49897251D01*
X128876800Y-49872747D01*
X128872019Y-49848714D01*
X128862642Y-49826075D01*
X128849029Y-49805702D01*
X128843800Y-49799330D01*
X128841501Y-49795029D01*
X128840083Y-49790355D01*
X128839000Y-49779359D01*
X128839000Y-49560999D01*
X128836598Y-49536613D01*
X128829485Y-49513164D01*
X128817934Y-49491553D01*
X128802389Y-49472611D01*
X128783447Y-49457066D01*
X128761836Y-49445515D01*
X128738387Y-49438402D01*
X128714001Y-49436000D01*
X128495641Y-49436000D01*
X128484645Y-49434917D01*
X128479971Y-49433499D01*
X128475670Y-49431200D01*
X128469298Y-49425971D01*
X128448924Y-49412357D01*
X128426285Y-49402980D01*
X128402251Y-49398200D01*
X128377747Y-49398200D01*
X128353714Y-49402981D01*
X128331075Y-49412358D01*
X128310702Y-49425971D01*
X128304330Y-49431200D01*
X128300029Y-49433499D01*
X128295355Y-49434917D01*
X128284359Y-49436000D01*
X127995641Y-49436000D01*
X127984645Y-49434917D01*
X127979971Y-49433499D01*
X127975670Y-49431200D01*
X127969298Y-49425971D01*
X127948924Y-49412357D01*
X127926285Y-49402980D01*
X127902251Y-49398200D01*
X127877747Y-49398200D01*
X127853714Y-49402981D01*
X127831075Y-49412358D01*
X127810702Y-49425971D01*
X127804330Y-49431200D01*
X127800029Y-49433499D01*
X127795355Y-49434917D01*
X127784359Y-49436000D01*
X127495641Y-49436000D01*
X127484645Y-49434917D01*
X127479971Y-49433499D01*
X127475670Y-49431200D01*
X127469298Y-49425971D01*
X127448924Y-49412357D01*
X127426285Y-49402980D01*
X127402251Y-49398200D01*
X127377747Y-49398200D01*
X127353714Y-49402981D01*
X127331075Y-49412358D01*
X127310702Y-49425971D01*
X127304330Y-49431200D01*
X127300029Y-49433499D01*
X127295355Y-49434917D01*
X127284359Y-49436000D01*
X126995641Y-49436000D01*
X126984645Y-49434917D01*
X126979971Y-49433499D01*
X126975670Y-49431200D01*
X126969298Y-49425971D01*
X126948924Y-49412357D01*
X126926285Y-49402980D01*
X126902251Y-49398200D01*
X126877747Y-49398200D01*
X126853714Y-49402981D01*
X126831075Y-49412358D01*
X126810702Y-49425971D01*
X126804330Y-49431200D01*
X126800029Y-49433499D01*
X126795355Y-49434917D01*
X126784359Y-49436000D01*
X126495641Y-49436000D01*
X126484645Y-49434917D01*
X126479971Y-49433499D01*
X126475670Y-49431200D01*
X126469298Y-49425971D01*
X126448924Y-49412357D01*
X126426285Y-49402980D01*
X126402251Y-49398200D01*
X126377747Y-49398200D01*
X126353714Y-49402981D01*
X126331075Y-49412358D01*
X126310702Y-49425971D01*
X126304330Y-49431200D01*
X126300029Y-49433499D01*
X126295355Y-49434917D01*
X126284359Y-49436000D01*
X125995641Y-49436000D01*
X125984645Y-49434917D01*
X125979971Y-49433499D01*
X125975670Y-49431200D01*
X125969298Y-49425971D01*
X125948924Y-49412357D01*
X125926285Y-49402980D01*
X125902251Y-49398200D01*
X125877747Y-49398200D01*
X125853714Y-49402981D01*
X125831075Y-49412358D01*
X125810702Y-49425971D01*
X125804330Y-49431200D01*
X125800029Y-49433499D01*
X125795355Y-49434917D01*
X125784359Y-49436000D01*
X125495641Y-49436000D01*
X125484645Y-49434917D01*
X125479971Y-49433499D01*
X125475670Y-49431200D01*
X125469298Y-49425971D01*
X125448924Y-49412357D01*
X125426285Y-49402980D01*
X125402251Y-49398200D01*
X125377747Y-49398200D01*
X125353714Y-49402981D01*
X125331075Y-49412358D01*
X125310702Y-49425971D01*
X125304330Y-49431200D01*
X125300029Y-49433499D01*
X125295355Y-49434917D01*
X125284359Y-49436000D01*
X125065999Y-49436000D01*
X125041613Y-49438402D01*
X125018164Y-49445515D01*
X124996553Y-49457066D01*
X124977611Y-49472611D01*
X124962066Y-49491553D01*
X124950515Y-49513164D01*
X124943402Y-49536613D01*
X124941000Y-49560999D01*
X124941000Y-49779359D01*
X124939917Y-49790355D01*
X124938499Y-49795029D01*
X124936200Y-49799330D01*
X124930971Y-49805702D01*
X124917357Y-49826076D01*
X124907980Y-49848715D01*
X124903200Y-49872749D01*
X124001800Y-49872749D01*
X124001800Y-49872747D01*
X123997019Y-49848714D01*
X123987642Y-49826075D01*
X123974029Y-49805702D01*
X123968800Y-49799330D01*
X123966501Y-49795029D01*
X123965083Y-49790355D01*
X123964000Y-49779359D01*
X123964000Y-49490641D01*
X123965083Y-49479645D01*
X123966501Y-49474971D01*
X123968800Y-49470669D01*
X123971896Y-49466896D01*
X123975669Y-49463800D01*
X123979971Y-49461501D01*
X123984645Y-49460083D01*
X123995641Y-49459000D01*
X124839001Y-49459000D01*
X124863387Y-49456598D01*
X124886836Y-49449485D01*
X124908447Y-49437934D01*
X124927389Y-49422389D01*
X124942934Y-49403447D01*
X124954485Y-49381836D01*
X124961598Y-49358387D01*
X124964000Y-49334001D01*
X124964000Y-48490641D01*
X124965083Y-48479645D01*
X124966501Y-48474971D01*
X124968800Y-48470669D01*
X124971896Y-48466896D01*
X124975669Y-48463800D01*
X124979971Y-48461501D01*
X124984645Y-48460083D01*
X124995641Y-48459000D01*
X125284359Y-48459000D01*
X125295355Y-48460083D01*
G37*
G36*
X128367417Y-49787540D02*
G01*
X128396081Y-49796235D01*
X128422495Y-49810354D01*
X128445646Y-49829354D01*
X128464646Y-49852505D01*
X128478765Y-49878919D01*
X128487460Y-49907583D01*
X128491000Y-49943527D01*
X128491000Y-52826473D01*
X128487460Y-52862417D01*
X128478765Y-52891081D01*
X128464646Y-52917495D01*
X128445646Y-52940646D01*
X128422495Y-52959646D01*
X128396081Y-52973765D01*
X128367417Y-52982460D01*
X128331473Y-52986000D01*
X125448527Y-52986000D01*
X125412583Y-52982460D01*
X125383919Y-52973765D01*
X125357505Y-52959646D01*
X125334354Y-52940646D01*
X125315354Y-52917495D01*
X125301235Y-52891081D01*
X125292540Y-52862417D01*
X125289000Y-52826473D01*
X125289000Y-49943527D01*
X125292540Y-49907583D01*
X125301235Y-49878919D01*
X125315354Y-49852505D01*
X125334354Y-49829354D01*
X125357505Y-49810354D01*
X125383919Y-49796235D01*
X125412583Y-49787540D01*
X125448527Y-49784000D01*
X128331473Y-49784000D01*
X128367417Y-49787540D01*
G37*
G36*
X132796938Y-52831716D02*
G01*
X132817557Y-52837971D01*
X132836553Y-52848124D01*
X132853208Y-52861792D01*
X132866876Y-52878447D01*
X132877029Y-52897443D01*
X132883284Y-52918062D01*
X132886000Y-52945640D01*
X132886000Y-53454360D01*
X132883284Y-53481938D01*
X132877029Y-53502557D01*
X132866876Y-53521553D01*
X132853208Y-53538208D01*
X132836553Y-53551876D01*
X132817557Y-53562029D01*
X132796938Y-53568284D01*
X132769360Y-53571000D01*
X132310640Y-53571000D01*
X132283062Y-53568284D01*
X132262443Y-53562029D01*
X132243447Y-53551876D01*
X132226792Y-53538208D01*
X132213124Y-53521553D01*
X132202971Y-53502557D01*
X132196716Y-53481938D01*
X132194000Y-53454360D01*
X132194000Y-52945640D01*
X132196716Y-52918062D01*
X132202971Y-52897443D01*
X132213124Y-52878447D01*
X132226792Y-52861792D01*
X132243447Y-52848124D01*
X132262443Y-52837971D01*
X132283062Y-52831716D01*
X132310640Y-52829000D01*
X132769360Y-52829000D01*
X132796938Y-52831716D01*
G37*
G36*
X131826938Y-52831716D02*
G01*
X131847557Y-52837971D01*
X131866553Y-52848124D01*
X131883208Y-52861792D01*
X131896876Y-52878447D01*
X131907029Y-52897443D01*
X131913284Y-52918062D01*
X131916000Y-52945640D01*
X131916000Y-53454360D01*
X131913284Y-53481938D01*
X131907029Y-53502557D01*
X131896876Y-53521553D01*
X131883208Y-53538208D01*
X131866553Y-53551876D01*
X131847557Y-53562029D01*
X131826938Y-53568284D01*
X131799360Y-53571000D01*
X131340640Y-53571000D01*
X131313062Y-53568284D01*
X131292443Y-53562029D01*
X131273447Y-53551876D01*
X131256792Y-53538208D01*
X131243124Y-53521553D01*
X131232971Y-53502557D01*
X131226716Y-53481938D01*
X131224000Y-53454360D01*
X131224000Y-52945640D01*
X131226716Y-52918062D01*
X131232971Y-52897443D01*
X131243124Y-52878447D01*
X131256792Y-52861792D01*
X131273447Y-52848124D01*
X131292443Y-52837971D01*
X131313062Y-52831716D01*
X131340640Y-52829000D01*
X131799360Y-52829000D01*
X131826938Y-52831716D01*
G37*
G36*
X115987091Y-51928085D02*
G01*
X116021069Y-51938393D01*
X116052390Y-51955134D01*
X116079839Y-51977661D01*
X116102366Y-52005110D01*
X116119107Y-52036431D01*
X116129415Y-52070409D01*
X116133500Y-52111890D01*
X116133500Y-52788110D01*
X116129415Y-52829591D01*
X116119107Y-52863569D01*
X116102366Y-52894890D01*
X116079839Y-52922339D01*
X116052390Y-52944866D01*
X116021069Y-52961607D01*
X115987091Y-52971915D01*
X115945610Y-52976000D01*
X115344390Y-52976000D01*
X115302909Y-52971915D01*
X115268931Y-52961607D01*
X115237610Y-52944866D01*
X115210161Y-52922339D01*
X115187634Y-52894890D01*
X115170893Y-52863569D01*
X115160585Y-52829591D01*
X115156500Y-52788110D01*
X115156500Y-52111890D01*
X115160585Y-52070409D01*
X115170893Y-52036431D01*
X115187634Y-52005110D01*
X115210161Y-51977661D01*
X115237610Y-51955134D01*
X115268931Y-51938393D01*
X115302909Y-51928085D01*
X115344390Y-51924000D01*
X115945610Y-51924000D01*
X115987091Y-51928085D01*
G37*
G36*
X117562091Y-51928085D02*
G01*
X117596069Y-51938393D01*
X117627390Y-51955134D01*
X117654839Y-51977661D01*
X117677366Y-52005110D01*
X117694107Y-52036431D01*
X117704415Y-52070409D01*
X117708500Y-52111890D01*
X117708500Y-52788110D01*
X117704415Y-52829591D01*
X117694107Y-52863569D01*
X117677366Y-52894890D01*
X117654839Y-52922339D01*
X117627390Y-52944866D01*
X117596069Y-52961607D01*
X117562091Y-52971915D01*
X117520610Y-52976000D01*
X116919390Y-52976000D01*
X116877909Y-52971915D01*
X116843931Y-52961607D01*
X116812610Y-52944866D01*
X116785161Y-52922339D01*
X116762634Y-52894890D01*
X116745893Y-52863569D01*
X116735585Y-52829591D01*
X116731500Y-52788110D01*
X116731500Y-52111890D01*
X116735585Y-52070409D01*
X116745893Y-52036431D01*
X116762634Y-52005110D01*
X116785161Y-51977661D01*
X116812610Y-51955134D01*
X116843931Y-51938393D01*
X116877909Y-51928085D01*
X116919390Y-51924000D01*
X117520610Y-51924000D01*
X117562091Y-51928085D01*
G37*
G36*
X131826938Y-51781716D02*
G01*
X131847557Y-51787971D01*
X131866553Y-51798124D01*
X131883208Y-51811792D01*
X131896876Y-51828447D01*
X131907029Y-51847443D01*
X131913284Y-51868062D01*
X131916000Y-51895640D01*
X131916000Y-52404360D01*
X131913284Y-52431938D01*
X131907029Y-52452557D01*
X131896876Y-52471553D01*
X131883208Y-52488208D01*
X131866553Y-52501876D01*
X131847557Y-52512029D01*
X131826938Y-52518284D01*
X131799360Y-52521000D01*
X131340640Y-52521000D01*
X131313062Y-52518284D01*
X131292443Y-52512029D01*
X131273447Y-52501876D01*
X131256792Y-52488208D01*
X131243124Y-52471553D01*
X131232971Y-52452557D01*
X131226716Y-52431938D01*
X131224000Y-52404360D01*
X131224000Y-51895640D01*
X131226716Y-51868062D01*
X131232971Y-51847443D01*
X131243124Y-51828447D01*
X131256792Y-51811792D01*
X131273447Y-51798124D01*
X131292443Y-51787971D01*
X131313062Y-51781716D01*
X131340640Y-51779000D01*
X131799360Y-51779000D01*
X131826938Y-51781716D01*
G37*
G36*
X132796938Y-51781716D02*
G01*
X132817557Y-51787971D01*
X132836553Y-51798124D01*
X132853208Y-51811792D01*
X132866876Y-51828447D01*
X132877029Y-51847443D01*
X132883284Y-51868062D01*
X132886000Y-51895640D01*
X132886000Y-52404360D01*
X132883284Y-52431938D01*
X132877029Y-52452557D01*
X132866876Y-52471553D01*
X132853208Y-52488208D01*
X132836553Y-52501876D01*
X132817557Y-52512029D01*
X132796938Y-52518284D01*
X132769360Y-52521000D01*
X132310640Y-52521000D01*
X132283062Y-52518284D01*
X132262443Y-52512029D01*
X132243447Y-52501876D01*
X132226792Y-52488208D01*
X132213124Y-52471553D01*
X132202971Y-52452557D01*
X132196716Y-52431938D01*
X132194000Y-52404360D01*
X132194000Y-51895640D01*
X132196716Y-51868062D01*
X132202971Y-51847443D01*
X132213124Y-51828447D01*
X132226792Y-51811792D01*
X132243447Y-51798124D01*
X132262443Y-51787971D01*
X132283062Y-51781716D01*
X132310640Y-51779000D01*
X132769360Y-51779000D01*
X132796938Y-51781716D01*
G37*
G36*
X119261938Y-51591716D02*
G01*
X119282557Y-51597971D01*
X119301553Y-51608124D01*
X119318208Y-51621792D01*
X119331876Y-51638447D01*
X119342029Y-51657443D01*
X119348284Y-51678062D01*
X119351000Y-51705640D01*
X119351000Y-52214360D01*
X119348284Y-52241938D01*
X119342029Y-52262557D01*
X119331876Y-52281553D01*
X119318208Y-52298208D01*
X119301553Y-52311876D01*
X119282557Y-52322029D01*
X119261938Y-52328284D01*
X119234360Y-52331000D01*
X118775640Y-52331000D01*
X118748062Y-52328284D01*
X118727443Y-52322029D01*
X118708447Y-52311876D01*
X118691792Y-52298208D01*
X118678124Y-52281553D01*
X118667971Y-52262557D01*
X118661716Y-52241938D01*
X118659000Y-52214360D01*
X118659000Y-51705640D01*
X118661716Y-51678062D01*
X118667971Y-51657443D01*
X118678124Y-51638447D01*
X118691792Y-51621792D01*
X118708447Y-51608124D01*
X118727443Y-51597971D01*
X118748062Y-51591716D01*
X118775640Y-51589000D01*
X119234360Y-51589000D01*
X119261938Y-51591716D01*
G37*
G36*
X120231938Y-51591716D02*
G01*
X120252557Y-51597971D01*
X120271553Y-51608124D01*
X120288208Y-51621792D01*
X120301876Y-51638447D01*
X120312029Y-51657443D01*
X120318284Y-51678062D01*
X120321000Y-51705640D01*
X120321000Y-52214360D01*
X120318284Y-52241938D01*
X120312029Y-52262557D01*
X120301876Y-52281553D01*
X120288208Y-52298208D01*
X120271553Y-52311876D01*
X120252557Y-52322029D01*
X120231938Y-52328284D01*
X120204360Y-52331000D01*
X119745640Y-52331000D01*
X119718062Y-52328284D01*
X119697443Y-52322029D01*
X119678447Y-52311876D01*
X119661792Y-52298208D01*
X119648124Y-52281553D01*
X119637971Y-52262557D01*
X119631716Y-52241938D01*
X119629000Y-52214360D01*
X119629000Y-51705640D01*
X119631716Y-51678062D01*
X119637971Y-51657443D01*
X119648124Y-51638447D01*
X119661792Y-51621792D01*
X119678447Y-51608124D01*
X119697443Y-51597971D01*
X119718062Y-51591716D01*
X119745640Y-51589000D01*
X120204360Y-51589000D01*
X120231938Y-51591716D01*
G37*
G36*
X131826938Y-50756716D02*
G01*
X131847557Y-50762971D01*
X131866553Y-50773124D01*
X131883208Y-50786792D01*
X131896876Y-50803447D01*
X131907029Y-50822443D01*
X131913284Y-50843062D01*
X131916000Y-50870640D01*
X131916000Y-51379360D01*
X131913284Y-51406938D01*
X131907029Y-51427557D01*
X131896876Y-51446553D01*
X131883208Y-51463208D01*
X131866553Y-51476876D01*
X131847557Y-51487029D01*
X131826938Y-51493284D01*
X131799360Y-51496000D01*
X131340640Y-51496000D01*
X131313062Y-51493284D01*
X131292443Y-51487029D01*
X131273447Y-51476876D01*
X131256792Y-51463208D01*
X131243124Y-51446553D01*
X131232971Y-51427557D01*
X131226716Y-51406938D01*
X131224000Y-51379360D01*
X131224000Y-50870640D01*
X131226716Y-50843062D01*
X131232971Y-50822443D01*
X131243124Y-50803447D01*
X131256792Y-50786792D01*
X131273447Y-50773124D01*
X131292443Y-50762971D01*
X131313062Y-50756716D01*
X131340640Y-50754000D01*
X131799360Y-50754000D01*
X131826938Y-50756716D01*
G37*
G36*
X132796938Y-50756716D02*
G01*
X132817557Y-50762971D01*
X132836553Y-50773124D01*
X132853208Y-50786792D01*
X132866876Y-50803447D01*
X132877029Y-50822443D01*
X132883284Y-50843062D01*
X132886000Y-50870640D01*
X132886000Y-51379360D01*
X132883284Y-51406938D01*
X132877029Y-51427557D01*
X132866876Y-51446553D01*
X132853208Y-51463208D01*
X132836553Y-51476876D01*
X132817557Y-51487029D01*
X132796938Y-51493284D01*
X132769360Y-51496000D01*
X132310640Y-51496000D01*
X132283062Y-51493284D01*
X132262443Y-51487029D01*
X132243447Y-51476876D01*
X132226792Y-51463208D01*
X132213124Y-51446553D01*
X132202971Y-51427557D01*
X132196716Y-51406938D01*
X132194000Y-51379360D01*
X132194000Y-50870640D01*
X132196716Y-50843062D01*
X132202971Y-50822443D01*
X132213124Y-50803447D01*
X132226792Y-50786792D01*
X132243447Y-50773124D01*
X132262443Y-50762971D01*
X132283062Y-50756716D01*
X132310640Y-50754000D01*
X132769360Y-50754000D01*
X132796938Y-50756716D01*
G37*
G36*
X120231938Y-50471716D02*
G01*
X120252557Y-50477971D01*
X120271553Y-50488124D01*
X120288208Y-50501792D01*
X120301876Y-50518447D01*
X120312029Y-50537443D01*
X120318284Y-50558062D01*
X120321000Y-50585640D01*
X120321000Y-51094360D01*
X120318284Y-51121938D01*
X120312029Y-51142557D01*
X120301876Y-51161553D01*
X120288208Y-51178208D01*
X120271553Y-51191876D01*
X120252557Y-51202029D01*
X120231938Y-51208284D01*
X120204360Y-51211000D01*
X119745640Y-51211000D01*
X119718062Y-51208284D01*
X119697443Y-51202029D01*
X119678447Y-51191876D01*
X119661792Y-51178208D01*
X119648124Y-51161553D01*
X119637971Y-51142557D01*
X119631716Y-51121938D01*
X119629000Y-51094360D01*
X119629000Y-50585640D01*
X119631716Y-50558062D01*
X119637971Y-50537443D01*
X119648124Y-50518447D01*
X119661792Y-50501792D01*
X119678447Y-50488124D01*
X119697443Y-50477971D01*
X119718062Y-50471716D01*
X119745640Y-50469000D01*
X120204360Y-50469000D01*
X120231938Y-50471716D01*
G37*
G36*
X119261938Y-50471716D02*
G01*
X119282557Y-50477971D01*
X119301553Y-50488124D01*
X119318208Y-50501792D01*
X119331876Y-50518447D01*
X119342029Y-50537443D01*
X119348284Y-50558062D01*
X119351000Y-50585640D01*
X119351000Y-51094360D01*
X119348284Y-51121938D01*
X119342029Y-51142557D01*
X119331876Y-51161553D01*
X119318208Y-51178208D01*
X119301553Y-51191876D01*
X119282557Y-51202029D01*
X119261938Y-51208284D01*
X119234360Y-51211000D01*
X118775640Y-51211000D01*
X118748062Y-51208284D01*
X118727443Y-51202029D01*
X118708447Y-51191876D01*
X118691792Y-51178208D01*
X118678124Y-51161553D01*
X118667971Y-51142557D01*
X118661716Y-51121938D01*
X118659000Y-51094360D01*
X118659000Y-50585640D01*
X118661716Y-50558062D01*
X118667971Y-50537443D01*
X118678124Y-50518447D01*
X118691792Y-50501792D01*
X118708447Y-50488124D01*
X118727443Y-50477971D01*
X118748062Y-50471716D01*
X118775640Y-50469000D01*
X119234360Y-50469000D01*
X119261938Y-50471716D01*
G37*
G36*
X115984591Y-49748085D02*
G01*
X116018569Y-49758393D01*
X116049890Y-49775134D01*
X116077339Y-49797661D01*
X116099866Y-49825110D01*
X116116607Y-49856431D01*
X116126915Y-49890409D01*
X116131000Y-49931890D01*
X116131000Y-50608110D01*
X116126915Y-50649591D01*
X116116607Y-50683569D01*
X116099866Y-50714890D01*
X116077339Y-50742339D01*
X116049890Y-50764866D01*
X116018569Y-50781607D01*
X115984591Y-50791915D01*
X115943110Y-50796000D01*
X115341890Y-50796000D01*
X115300409Y-50791915D01*
X115266431Y-50781607D01*
X115235110Y-50764866D01*
X115207661Y-50742339D01*
X115185134Y-50714890D01*
X115168393Y-50683569D01*
X115158085Y-50649591D01*
X115154000Y-50608110D01*
X115154000Y-49931890D01*
X115158085Y-49890409D01*
X115168393Y-49856431D01*
X115185134Y-49825110D01*
X115207661Y-49797661D01*
X115235110Y-49775134D01*
X115266431Y-49758393D01*
X115300409Y-49748085D01*
X115341890Y-49744000D01*
X115943110Y-49744000D01*
X115984591Y-49748085D01*
G37*
G36*
X117559591Y-49748085D02*
G01*
X117593569Y-49758393D01*
X117624890Y-49775134D01*
X117652339Y-49797661D01*
X117674866Y-49825110D01*
X117691607Y-49856431D01*
X117701915Y-49890409D01*
X117706000Y-49931890D01*
X117706000Y-50608110D01*
X117701915Y-50649591D01*
X117691607Y-50683569D01*
X117674866Y-50714890D01*
X117652339Y-50742339D01*
X117624890Y-50764866D01*
X117593569Y-50781607D01*
X117559591Y-50791915D01*
X117518110Y-50796000D01*
X116916890Y-50796000D01*
X116875409Y-50791915D01*
X116841431Y-50781607D01*
X116810110Y-50764866D01*
X116782661Y-50742339D01*
X116760134Y-50714890D01*
X116743393Y-50683569D01*
X116733085Y-50649591D01*
X116729000Y-50608110D01*
X116729000Y-49931890D01*
X116733085Y-49890409D01*
X116743393Y-49856431D01*
X116760134Y-49825110D01*
X116782661Y-49797661D01*
X116810110Y-49775134D01*
X116841431Y-49758393D01*
X116875409Y-49748085D01*
X116916890Y-49744000D01*
X117518110Y-49744000D01*
X117559591Y-49748085D01*
G37*
G36*
X131826938Y-49706716D02*
G01*
X131847557Y-49712971D01*
X131866553Y-49723124D01*
X131883208Y-49736792D01*
X131896876Y-49753447D01*
X131907029Y-49772443D01*
X131913284Y-49793062D01*
X131916000Y-49820640D01*
X131916000Y-50329360D01*
X131913284Y-50356938D01*
X131907029Y-50377557D01*
X131896876Y-50396553D01*
X131883208Y-50413208D01*
X131866553Y-50426876D01*
X131847557Y-50437029D01*
X131826938Y-50443284D01*
X131799360Y-50446000D01*
X131340640Y-50446000D01*
X131313062Y-50443284D01*
X131292443Y-50437029D01*
X131273447Y-50426876D01*
X131256792Y-50413208D01*
X131243124Y-50396553D01*
X131232971Y-50377557D01*
X131226716Y-50356938D01*
X131224000Y-50329360D01*
X131224000Y-49820640D01*
X131226716Y-49793062D01*
X131232971Y-49772443D01*
X131243124Y-49753447D01*
X131256792Y-49736792D01*
X131273447Y-49723124D01*
X131292443Y-49712971D01*
X131313062Y-49706716D01*
X131340640Y-49704000D01*
X131799360Y-49704000D01*
X131826938Y-49706716D01*
G37*
G36*
X132796938Y-49706716D02*
G01*
X132817557Y-49712971D01*
X132836553Y-49723124D01*
X132853208Y-49736792D01*
X132866876Y-49753447D01*
X132877029Y-49772443D01*
X132883284Y-49793062D01*
X132886000Y-49820640D01*
X132886000Y-50329360D01*
X132883284Y-50356938D01*
X132877029Y-50377557D01*
X132866876Y-50396553D01*
X132853208Y-50413208D01*
X132836553Y-50426876D01*
X132817557Y-50437029D01*
X132796938Y-50443284D01*
X132769360Y-50446000D01*
X132310640Y-50446000D01*
X132283062Y-50443284D01*
X132262443Y-50437029D01*
X132243447Y-50426876D01*
X132226792Y-50413208D01*
X132213124Y-50396553D01*
X132202971Y-50377557D01*
X132196716Y-50356938D01*
X132194000Y-50329360D01*
X132194000Y-49820640D01*
X132196716Y-49793062D01*
X132202971Y-49772443D01*
X132213124Y-49753447D01*
X132226792Y-49736792D01*
X132243447Y-49723124D01*
X132262443Y-49712971D01*
X132283062Y-49706716D01*
X132310640Y-49704000D01*
X132769360Y-49704000D01*
X132796938Y-49706716D01*
G37*
G36*
X121340721Y-48560174D02*
G01*
X121440995Y-48601709D01*
X121440996Y-48601710D01*
X121531242Y-48662010D01*
X121607990Y-48738758D01*
X121607991Y-48738760D01*
X121668291Y-48829005D01*
X121709826Y-48929279D01*
X121731000Y-49035730D01*
X121731000Y-49144270D01*
X121709826Y-49250721D01*
X121668291Y-49350995D01*
X121647684Y-49381836D01*
X121607990Y-49441242D01*
X121531242Y-49517990D01*
X121487825Y-49547000D01*
X121440995Y-49578291D01*
X121340721Y-49619826D01*
X121234270Y-49641000D01*
X121125730Y-49641000D01*
X121019279Y-49619826D01*
X120919005Y-49578291D01*
X120872175Y-49547000D01*
X120828758Y-49517990D01*
X120752010Y-49441242D01*
X120712316Y-49381836D01*
X120691709Y-49350995D01*
X120650174Y-49250721D01*
X120629000Y-49144270D01*
X120629000Y-49035730D01*
X120650174Y-48929279D01*
X120691709Y-48829005D01*
X120752009Y-48738760D01*
X120752010Y-48738758D01*
X120828758Y-48662010D01*
X120919004Y-48601710D01*
X120919005Y-48601709D01*
X121019279Y-48560174D01*
X121125730Y-48539000D01*
X121234270Y-48539000D01*
X121340721Y-48560174D01*
G37*
G36*
X132771000Y-49166000D02*
G01*
X131339000Y-49166000D01*
X131339000Y-47334000D01*
X132771000Y-47334000D01*
X132771000Y-49166000D01*
G37*
G36*
X119430721Y-46870174D02*
G01*
X119530995Y-46911709D01*
X119551979Y-46925730D01*
X119621242Y-46972010D01*
X119697990Y-47048758D01*
X119728345Y-47094188D01*
X119758291Y-47139005D01*
X119799826Y-47239279D01*
X119821000Y-47345730D01*
X119821000Y-47454270D01*
X119799826Y-47560721D01*
X119758291Y-47660995D01*
X119758290Y-47660996D01*
X119697990Y-47751242D01*
X119621242Y-47827990D01*
X119575812Y-47858345D01*
X119530995Y-47888291D01*
X119430721Y-47929826D01*
X119324270Y-47951000D01*
X119215730Y-47951000D01*
X119109279Y-47929826D01*
X119009005Y-47888291D01*
X118964188Y-47858345D01*
X118918758Y-47827990D01*
X118842010Y-47751242D01*
X118781710Y-47660996D01*
X118781709Y-47660995D01*
X118740174Y-47560721D01*
X118719000Y-47454270D01*
X118719000Y-47345730D01*
X118740174Y-47239279D01*
X118781709Y-47139005D01*
X118811655Y-47094188D01*
X118842010Y-47048758D01*
X118918758Y-46972010D01*
X118988021Y-46925730D01*
X119009005Y-46911709D01*
X119109279Y-46870174D01*
X119215730Y-46849000D01*
X119324270Y-46849000D01*
X119430721Y-46870174D01*
G37*
G36*
X122560721Y-46480174D02*
G01*
X122660995Y-46521709D01*
X122660996Y-46521710D01*
X122751242Y-46582010D01*
X122827990Y-46658758D01*
X122827991Y-46658760D01*
X122888291Y-46749005D01*
X122929826Y-46849279D01*
X122951000Y-46955730D01*
X122951000Y-47064270D01*
X122929826Y-47170721D01*
X122888291Y-47270995D01*
X122888290Y-47270996D01*
X122827990Y-47361242D01*
X122751242Y-47437990D01*
X122726877Y-47454270D01*
X122660995Y-47498291D01*
X122560721Y-47539826D01*
X122454270Y-47561000D01*
X122345730Y-47561000D01*
X122239279Y-47539826D01*
X122139005Y-47498291D01*
X122073123Y-47454270D01*
X122048758Y-47437990D01*
X121972010Y-47361242D01*
X121911710Y-47270996D01*
X121911709Y-47270995D01*
X121870174Y-47170721D01*
X121849000Y-47064270D01*
X121849000Y-46955730D01*
X121870174Y-46849279D01*
X121911709Y-46749005D01*
X121972009Y-46658760D01*
X121972010Y-46658758D01*
X122048758Y-46582010D01*
X122139004Y-46521710D01*
X122139005Y-46521709D01*
X122239279Y-46480174D01*
X122345730Y-46459000D01*
X122454270Y-46459000D01*
X122560721Y-46480174D01*
G37*
G36*
X116830721Y-46460174D02*
G01*
X116930995Y-46501709D01*
X116975812Y-46531655D01*
X117021242Y-46562010D01*
X117097990Y-46638758D01*
X117097991Y-46638760D01*
X117158291Y-46729005D01*
X117199826Y-46829279D01*
X117221000Y-46935730D01*
X117221000Y-47044270D01*
X117199826Y-47150721D01*
X117158291Y-47250995D01*
X117158290Y-47250996D01*
X117097990Y-47341242D01*
X117021242Y-47417990D01*
X116991308Y-47437991D01*
X116930995Y-47478291D01*
X116830721Y-47519826D01*
X116724270Y-47541000D01*
X116615730Y-47541000D01*
X116509279Y-47519826D01*
X116409005Y-47478291D01*
X116348692Y-47437991D01*
X116318758Y-47417990D01*
X116242010Y-47341242D01*
X116181710Y-47250996D01*
X116181709Y-47250995D01*
X116140174Y-47150721D01*
X116119000Y-47044270D01*
X116119000Y-46935730D01*
X116140174Y-46829279D01*
X116181709Y-46729005D01*
X116242009Y-46638760D01*
X116242010Y-46638758D01*
X116318758Y-46562010D01*
X116364188Y-46531655D01*
X116409005Y-46501709D01*
X116509279Y-46460174D01*
X116615730Y-46439000D01*
X116724270Y-46439000D01*
X116830721Y-46460174D01*
G37*
G36*
X130010721Y-46450174D02*
G01*
X130110995Y-46491709D01*
X130110996Y-46491710D01*
X130201242Y-46552010D01*
X130277990Y-46628758D01*
X130308345Y-46674188D01*
X130338291Y-46719005D01*
X130379826Y-46819279D01*
X130401000Y-46925730D01*
X130401000Y-47034270D01*
X130379826Y-47140721D01*
X130338291Y-47240995D01*
X130318245Y-47270996D01*
X130277990Y-47331242D01*
X130201242Y-47407990D01*
X130186274Y-47417991D01*
X130110995Y-47468291D01*
X130010721Y-47509826D01*
X129904270Y-47531000D01*
X129795730Y-47531000D01*
X129689279Y-47509826D01*
X129589005Y-47468291D01*
X129513726Y-47417991D01*
X129498758Y-47407990D01*
X129422010Y-47331242D01*
X129381755Y-47270996D01*
X129361709Y-47240995D01*
X129320174Y-47140721D01*
X129299000Y-47034270D01*
X129299000Y-46925730D01*
X129320174Y-46819279D01*
X129361709Y-46719005D01*
X129391655Y-46674188D01*
X129422010Y-46628758D01*
X129498758Y-46552010D01*
X129589004Y-46491710D01*
X129589005Y-46491709D01*
X129689279Y-46450174D01*
X129795730Y-46429000D01*
X129904270Y-46429000D01*
X130010721Y-46450174D01*
G37*
G36*
X124241938Y-46751716D02*
G01*
X124262557Y-46757971D01*
X124281553Y-46768124D01*
X124298208Y-46781792D01*
X124311876Y-46798447D01*
X124322029Y-46817443D01*
X124328284Y-46838062D01*
X124331000Y-46865640D01*
X124331000Y-47374360D01*
X124328284Y-47401938D01*
X124322029Y-47422557D01*
X124311876Y-47441553D01*
X124298208Y-47458208D01*
X124281553Y-47471876D01*
X124262557Y-47482029D01*
X124241938Y-47488284D01*
X124214360Y-47491000D01*
X123755640Y-47491000D01*
X123728062Y-47488284D01*
X123707443Y-47482029D01*
X123688447Y-47471876D01*
X123671792Y-47458208D01*
X123658124Y-47441553D01*
X123647971Y-47422557D01*
X123641716Y-47401938D01*
X123639000Y-47374360D01*
X123639000Y-46865640D01*
X123641716Y-46838062D01*
X123647971Y-46817443D01*
X123658124Y-46798447D01*
X123671792Y-46781792D01*
X123688447Y-46768124D01*
X123707443Y-46757971D01*
X123728062Y-46751716D01*
X123755640Y-46749000D01*
X124214360Y-46749000D01*
X124241938Y-46751716D01*
G37*
G36*
X125211938Y-46751716D02*
G01*
X125232557Y-46757971D01*
X125251553Y-46768124D01*
X125268208Y-46781792D01*
X125281876Y-46798447D01*
X125292029Y-46817443D01*
X125298284Y-46838062D01*
X125301000Y-46865640D01*
X125301000Y-47374360D01*
X125298284Y-47401938D01*
X125292029Y-47422557D01*
X125281876Y-47441553D01*
X125268208Y-47458208D01*
X125251553Y-47471876D01*
X125232557Y-47482029D01*
X125211938Y-47488284D01*
X125184360Y-47491000D01*
X124725640Y-47491000D01*
X124698062Y-47488284D01*
X124677443Y-47482029D01*
X124658447Y-47471876D01*
X124641792Y-47458208D01*
X124628124Y-47441553D01*
X124617971Y-47422557D01*
X124611716Y-47401938D01*
X124609000Y-47374360D01*
X124609000Y-46865640D01*
X124611716Y-46838062D01*
X124617971Y-46817443D01*
X124628124Y-46798447D01*
X124641792Y-46781792D01*
X124658447Y-46768124D01*
X124677443Y-46757971D01*
X124698062Y-46751716D01*
X124725640Y-46749000D01*
X125184360Y-46749000D01*
X125211938Y-46751716D01*
G37*
G36*
X132796938Y-46081716D02*
G01*
X132817557Y-46087971D01*
X132836553Y-46098124D01*
X132853208Y-46111792D01*
X132866876Y-46128447D01*
X132877029Y-46147443D01*
X132883284Y-46168062D01*
X132886000Y-46195640D01*
X132886000Y-46704360D01*
X132883284Y-46731938D01*
X132877029Y-46752557D01*
X132866876Y-46771553D01*
X132853208Y-46788208D01*
X132836553Y-46801876D01*
X132817557Y-46812029D01*
X132796938Y-46818284D01*
X132769360Y-46821000D01*
X132310640Y-46821000D01*
X132283062Y-46818284D01*
X132262443Y-46812029D01*
X132243447Y-46801876D01*
X132226792Y-46788208D01*
X132213124Y-46771553D01*
X132202971Y-46752557D01*
X132196716Y-46731938D01*
X132194000Y-46704360D01*
X132194000Y-46195640D01*
X132196716Y-46168062D01*
X132202971Y-46147443D01*
X132213124Y-46128447D01*
X132226792Y-46111792D01*
X132243447Y-46098124D01*
X132262443Y-46087971D01*
X132283062Y-46081716D01*
X132310640Y-46079000D01*
X132769360Y-46079000D01*
X132796938Y-46081716D01*
G37*
G36*
X131826938Y-46081716D02*
G01*
X131847557Y-46087971D01*
X131866553Y-46098124D01*
X131883208Y-46111792D01*
X131896876Y-46128447D01*
X131907029Y-46147443D01*
X131913284Y-46168062D01*
X131916000Y-46195640D01*
X131916000Y-46704360D01*
X131913284Y-46731938D01*
X131907029Y-46752557D01*
X131896876Y-46771553D01*
X131883208Y-46788208D01*
X131866553Y-46801876D01*
X131847557Y-46812029D01*
X131826938Y-46818284D01*
X131799360Y-46821000D01*
X131340640Y-46821000D01*
X131313062Y-46818284D01*
X131292443Y-46812029D01*
X131273447Y-46801876D01*
X131256792Y-46788208D01*
X131243124Y-46771553D01*
X131232971Y-46752557D01*
X131226716Y-46731938D01*
X131224000Y-46704360D01*
X131224000Y-46195640D01*
X131226716Y-46168062D01*
X131232971Y-46147443D01*
X131243124Y-46128447D01*
X131256792Y-46111792D01*
X131273447Y-46098124D01*
X131292443Y-46087971D01*
X131313062Y-46081716D01*
X131340640Y-46079000D01*
X131799360Y-46079000D01*
X131826938Y-46081716D01*
G37*
G36*
X131856938Y-44916716D02*
G01*
X131877557Y-44922971D01*
X131896553Y-44933124D01*
X131913208Y-44946792D01*
X131926876Y-44963447D01*
X131937029Y-44982443D01*
X131943284Y-45003062D01*
X131946000Y-45030640D01*
X131946000Y-45489360D01*
X131943284Y-45516938D01*
X131937029Y-45537557D01*
X131926876Y-45556553D01*
X131913208Y-45573208D01*
X131896553Y-45586876D01*
X131877557Y-45597029D01*
X131856938Y-45603284D01*
X131829360Y-45606000D01*
X131320640Y-45606000D01*
X131293062Y-45603284D01*
X131272443Y-45597029D01*
X131253447Y-45586876D01*
X131236792Y-45573208D01*
X131223124Y-45556553D01*
X131212971Y-45537557D01*
X131206716Y-45516938D01*
X131204000Y-45489360D01*
X131204000Y-45030640D01*
X131206716Y-45003062D01*
X131212971Y-44982443D01*
X131223124Y-44963447D01*
X131236792Y-44946792D01*
X131253447Y-44933124D01*
X131272443Y-44922971D01*
X131293062Y-44916716D01*
X131320640Y-44914000D01*
X131829360Y-44914000D01*
X131856938Y-44916716D01*
G37*
G36*
X121481000Y-45601000D02*
G01*
X116379000Y-45601000D01*
X116379000Y-43999000D01*
X121481000Y-43999000D01*
X121481000Y-45601000D01*
G37*
G36*
X131856938Y-43946716D02*
G01*
X131877557Y-43952971D01*
X131896553Y-43963124D01*
X131913208Y-43976792D01*
X131926876Y-43993447D01*
X131937029Y-44012443D01*
X131943284Y-44033062D01*
X131946000Y-44060640D01*
X131946000Y-44519360D01*
X131943284Y-44546938D01*
X131937029Y-44567557D01*
X131926876Y-44586553D01*
X131913208Y-44603208D01*
X131896553Y-44616876D01*
X131877557Y-44627029D01*
X131856938Y-44633284D01*
X131829360Y-44636000D01*
X131320640Y-44636000D01*
X131293062Y-44633284D01*
X131272443Y-44627029D01*
X131253447Y-44616876D01*
X131236792Y-44603208D01*
X131223124Y-44586553D01*
X131212971Y-44567557D01*
X131206716Y-44546938D01*
X131204000Y-44519360D01*
X131204000Y-44060640D01*
X131206716Y-44033062D01*
X131212971Y-44012443D01*
X131223124Y-43993447D01*
X131236792Y-43976792D01*
X131253447Y-43963124D01*
X131272443Y-43952971D01*
X131293062Y-43946716D01*
X131320640Y-43944000D01*
X131829360Y-43944000D01*
X131856938Y-43946716D01*
G37*
G36*
X134101000Y-42121000D02*
G01*
X132299000Y-42121000D01*
X132299000Y-41219000D01*
X134101000Y-41219000D01*
X134101000Y-42121000D01*
G37*
G36*
X131501000Y-42121000D02*
G01*
X129699000Y-42121000D01*
X129699000Y-41219000D01*
X131501000Y-41219000D01*
X131501000Y-42121000D01*
G37*
G36*
X134101000Y-40851000D02*
G01*
X132299000Y-40851000D01*
X132299000Y-39949000D01*
X134101000Y-39949000D01*
X134101000Y-40851000D01*
G37*
G36*
X131501000Y-40851000D02*
G01*
X129699000Y-40851000D01*
X129699000Y-39949000D01*
X131501000Y-39949000D01*
X131501000Y-40851000D01*
G37*
G36*
X121481000Y-39701000D02*
G01*
X116379000Y-39701000D01*
X116379000Y-38099000D01*
X121481000Y-38099000D01*
X121481000Y-39701000D01*
G37*
G36*
X134101000Y-39581000D02*
G01*
X132299000Y-39581000D01*
X132299000Y-38679000D01*
X134101000Y-38679000D01*
X134101000Y-39581000D01*
G37*
G36*
X131501000Y-39581000D02*
G01*
X129699000Y-39581000D01*
X129699000Y-38679000D01*
X131501000Y-38679000D01*
X131501000Y-39581000D01*
G37*
G36*
X121881938Y-36791716D02*
G01*
X121902557Y-36797971D01*
X121921553Y-36808124D01*
X121938208Y-36821792D01*
X121951876Y-36838447D01*
X121962029Y-36857443D01*
X121968284Y-36878062D01*
X121971000Y-36905640D01*
X121971000Y-37364360D01*
X121968284Y-37391938D01*
X121962029Y-37412557D01*
X121951876Y-37431553D01*
X121938208Y-37448208D01*
X121921553Y-37461876D01*
X121902557Y-37472029D01*
X121881938Y-37478284D01*
X121854360Y-37481000D01*
X121345640Y-37481000D01*
X121318062Y-37478284D01*
X121297443Y-37472029D01*
X121278447Y-37461876D01*
X121261792Y-37448208D01*
X121248124Y-37431553D01*
X121237971Y-37412557D01*
X121231716Y-37391938D01*
X121229000Y-37364360D01*
X121229000Y-36905640D01*
X121231716Y-36878062D01*
X121237971Y-36857443D01*
X121248124Y-36838447D01*
X121261792Y-36821792D01*
X121278447Y-36808124D01*
X121297443Y-36797971D01*
X121318062Y-36791716D01*
X121345640Y-36789000D01*
X121854360Y-36789000D01*
X121881938Y-36791716D01*
G37*
G36*
X117571938Y-36356716D02*
G01*
X117592557Y-36362971D01*
X117611553Y-36373124D01*
X117628208Y-36386792D01*
X117641876Y-36403447D01*
X117652029Y-36422443D01*
X117658284Y-36443062D01*
X117661000Y-36470640D01*
X117661000Y-36979360D01*
X117658284Y-37006938D01*
X117652029Y-37027557D01*
X117641876Y-37046553D01*
X117628208Y-37063208D01*
X117611553Y-37076876D01*
X117592557Y-37087029D01*
X117571938Y-37093284D01*
X117544360Y-37096000D01*
X117085640Y-37096000D01*
X117058062Y-37093284D01*
X117037443Y-37087029D01*
X117018447Y-37076876D01*
X117001792Y-37063208D01*
X116988124Y-37046553D01*
X116977971Y-37027557D01*
X116971716Y-37006938D01*
X116969000Y-36979360D01*
X116969000Y-36470640D01*
X116971716Y-36443062D01*
X116977971Y-36422443D01*
X116988124Y-36403447D01*
X117001792Y-36386792D01*
X117018447Y-36373124D01*
X117037443Y-36362971D01*
X117058062Y-36356716D01*
X117085640Y-36354000D01*
X117544360Y-36354000D01*
X117571938Y-36356716D01*
G37*
G36*
X118541938Y-36356716D02*
G01*
X118562557Y-36362971D01*
X118581553Y-36373124D01*
X118598208Y-36386792D01*
X118611876Y-36403447D01*
X118622029Y-36422443D01*
X118628284Y-36443062D01*
X118631000Y-36470640D01*
X118631000Y-36979360D01*
X118628284Y-37006938D01*
X118622029Y-37027557D01*
X118611876Y-37046553D01*
X118598208Y-37063208D01*
X118581553Y-37076876D01*
X118562557Y-37087029D01*
X118541938Y-37093284D01*
X118514360Y-37096000D01*
X118055640Y-37096000D01*
X118028062Y-37093284D01*
X118007443Y-37087029D01*
X117988447Y-37076876D01*
X117971792Y-37063208D01*
X117958124Y-37046553D01*
X117947971Y-37027557D01*
X117941716Y-37006938D01*
X117939000Y-36979360D01*
X117939000Y-36470640D01*
X117941716Y-36443062D01*
X117947971Y-36422443D01*
X117958124Y-36403447D01*
X117971792Y-36386792D01*
X117988447Y-36373124D01*
X118007443Y-36362971D01*
X118028062Y-36356716D01*
X118055640Y-36354000D01*
X118514360Y-36354000D01*
X118541938Y-36356716D01*
G37*
G36*
X121881938Y-35821716D02*
G01*
X121902557Y-35827971D01*
X121921553Y-35838124D01*
X121938208Y-35851792D01*
X121951876Y-35868447D01*
X121962029Y-35887443D01*
X121968284Y-35908062D01*
X121971000Y-35935640D01*
X121971000Y-36394360D01*
X121968284Y-36421938D01*
X121962029Y-36442557D01*
X121951876Y-36461553D01*
X121938208Y-36478208D01*
X121921553Y-36491876D01*
X121902557Y-36502029D01*
X121881938Y-36508284D01*
X121854360Y-36511000D01*
X121345640Y-36511000D01*
X121318062Y-36508284D01*
X121297443Y-36502029D01*
X121278447Y-36491876D01*
X121261792Y-36478208D01*
X121248124Y-36461553D01*
X121237971Y-36442557D01*
X121231716Y-36421938D01*
X121229000Y-36394360D01*
X121229000Y-35935640D01*
X121231716Y-35908062D01*
X121237971Y-35887443D01*
X121248124Y-35868447D01*
X121261792Y-35851792D01*
X121278447Y-35838124D01*
X121297443Y-35827971D01*
X121318062Y-35821716D01*
X121345640Y-35819000D01*
X121854360Y-35819000D01*
X121881938Y-35821716D01*
G37*
G36*
X116660721Y-34395174D02*
G01*
X116760995Y-34436709D01*
X116760996Y-34436710D01*
X116851242Y-34497010D01*
X116927990Y-34573758D01*
X116927991Y-34573760D01*
X116988291Y-34664005D01*
X117029826Y-34764279D01*
X117051000Y-34870730D01*
X117051000Y-34979270D01*
X117029826Y-35085721D01*
X116988291Y-35185995D01*
X116988290Y-35185996D01*
X116927990Y-35276242D01*
X116851242Y-35352990D01*
X116805812Y-35383345D01*
X116760995Y-35413291D01*
X116660721Y-35454826D01*
X116554270Y-35476000D01*
X116445730Y-35476000D01*
X116339279Y-35454826D01*
X116239005Y-35413291D01*
X116194188Y-35383345D01*
X116148758Y-35352990D01*
X116072010Y-35276242D01*
X116011710Y-35185996D01*
X116011709Y-35185995D01*
X115970174Y-35085721D01*
X115949000Y-34979270D01*
X115949000Y-34870730D01*
X115970174Y-34764279D01*
X116011709Y-34664005D01*
X116072009Y-34573760D01*
X116072010Y-34573758D01*
X116148758Y-34497010D01*
X116239004Y-34436710D01*
X116239005Y-34436709D01*
X116339279Y-34395174D01*
X116445730Y-34374000D01*
X116554270Y-34374000D01*
X116660721Y-34395174D01*
G37*
G36*
X121029591Y-32903085D02*
G01*
X121063569Y-32913393D01*
X121094890Y-32930134D01*
X121122339Y-32952661D01*
X121144866Y-32980110D01*
X121161607Y-33011431D01*
X121171915Y-33045409D01*
X121176000Y-33086890D01*
X121176000Y-33688110D01*
X121171915Y-33729591D01*
X121161607Y-33763569D01*
X121144866Y-33794890D01*
X121122339Y-33822339D01*
X121094890Y-33844866D01*
X121063569Y-33861607D01*
X121029591Y-33871915D01*
X120988110Y-33876000D01*
X120311890Y-33876000D01*
X120270409Y-33871915D01*
X120236431Y-33861607D01*
X120205110Y-33844866D01*
X120177661Y-33822339D01*
X120155134Y-33794890D01*
X120138393Y-33763569D01*
X120128085Y-33729591D01*
X120124000Y-33688110D01*
X120124000Y-33086890D01*
X120128085Y-33045409D01*
X120138393Y-33011431D01*
X120155134Y-32980110D01*
X120177661Y-32952661D01*
X120205110Y-32930134D01*
X120236431Y-32913393D01*
X120270409Y-32903085D01*
X120311890Y-32899000D01*
X120988110Y-32899000D01*
X121029591Y-32903085D01*
G37*
G36*
X119354591Y-32903085D02*
G01*
X119388569Y-32913393D01*
X119419890Y-32930134D01*
X119447339Y-32952661D01*
X119469866Y-32980110D01*
X119486607Y-33011431D01*
X119496915Y-33045409D01*
X119501000Y-33086890D01*
X119501000Y-33688110D01*
X119496915Y-33729591D01*
X119486607Y-33763569D01*
X119469866Y-33794890D01*
X119447339Y-33822339D01*
X119419890Y-33844866D01*
X119388569Y-33861607D01*
X119354591Y-33871915D01*
X119313110Y-33876000D01*
X118636890Y-33876000D01*
X118595409Y-33871915D01*
X118561431Y-33861607D01*
X118530110Y-33844866D01*
X118502661Y-33822339D01*
X118480134Y-33794890D01*
X118463393Y-33763569D01*
X118453085Y-33729591D01*
X118449000Y-33688110D01*
X118449000Y-33086890D01*
X118453085Y-33045409D01*
X118463393Y-33011431D01*
X118480134Y-32980110D01*
X118502661Y-32952661D01*
X118530110Y-32930134D01*
X118561431Y-32913393D01*
X118595409Y-32903085D01*
X118636890Y-32899000D01*
X119313110Y-32899000D01*
X119354591Y-32903085D01*
G37*
G36*
X131451938Y-32816716D02*
G01*
X131472557Y-32822971D01*
X131491553Y-32833124D01*
X131508208Y-32846792D01*
X131521876Y-32863447D01*
X131532029Y-32882443D01*
X131538284Y-32903062D01*
X131541000Y-32930640D01*
X131541000Y-33389360D01*
X131538284Y-33416938D01*
X131532029Y-33437557D01*
X131521876Y-33456553D01*
X131508208Y-33473208D01*
X131491553Y-33486876D01*
X131472557Y-33497029D01*
X131451938Y-33503284D01*
X131424360Y-33506000D01*
X130915640Y-33506000D01*
X130888062Y-33503284D01*
X130867443Y-33497029D01*
X130848447Y-33486876D01*
X130831792Y-33473208D01*
X130818124Y-33456553D01*
X130807971Y-33437557D01*
X130801716Y-33416938D01*
X130799000Y-33389360D01*
X130799000Y-32930640D01*
X130801716Y-32903062D01*
X130807971Y-32882443D01*
X130818124Y-32863447D01*
X130831792Y-32846792D01*
X130848447Y-32833124D01*
X130867443Y-32822971D01*
X130888062Y-32816716D01*
X130915640Y-32814000D01*
X131424360Y-32814000D01*
X131451938Y-32816716D01*
G37*
G36*
X132856938Y-32816716D02*
G01*
X132877557Y-32822971D01*
X132896553Y-32833124D01*
X132913208Y-32846792D01*
X132926876Y-32863447D01*
X132937029Y-32882443D01*
X132943284Y-32903062D01*
X132946000Y-32930640D01*
X132946000Y-33389360D01*
X132943284Y-33416938D01*
X132937029Y-33437557D01*
X132926876Y-33456553D01*
X132913208Y-33473208D01*
X132896553Y-33486876D01*
X132877557Y-33497029D01*
X132856938Y-33503284D01*
X132829360Y-33506000D01*
X132320640Y-33506000D01*
X132293062Y-33503284D01*
X132272443Y-33497029D01*
X132253447Y-33486876D01*
X132236792Y-33473208D01*
X132223124Y-33456553D01*
X132212971Y-33437557D01*
X132206716Y-33416938D01*
X132204000Y-33389360D01*
X132204000Y-32930640D01*
X132206716Y-32903062D01*
X132212971Y-32882443D01*
X132223124Y-32863447D01*
X132236792Y-32846792D01*
X132253447Y-32833124D01*
X132272443Y-32822971D01*
X132293062Y-32816716D01*
X132320640Y-32814000D01*
X132829360Y-32814000D01*
X132856938Y-32816716D01*
G37*
G36*
X122439938Y-32743716D02*
G01*
X122460557Y-32749971D01*
X122479553Y-32760124D01*
X122496208Y-32773792D01*
X122509876Y-32790447D01*
X122520029Y-32809443D01*
X122526284Y-32830062D01*
X122529000Y-32857640D01*
X122529000Y-33316360D01*
X122526284Y-33343938D01*
X122520029Y-33364557D01*
X122509876Y-33383553D01*
X122496208Y-33400208D01*
X122479553Y-33413876D01*
X122460557Y-33424029D01*
X122439938Y-33430284D01*
X122412360Y-33433000D01*
X121903640Y-33433000D01*
X121876062Y-33430284D01*
X121855443Y-33424029D01*
X121836447Y-33413876D01*
X121819792Y-33400208D01*
X121806124Y-33383553D01*
X121795971Y-33364557D01*
X121789716Y-33343938D01*
X121787000Y-33316360D01*
X121787000Y-32857640D01*
X121789716Y-32830062D01*
X121795971Y-32809443D01*
X121806124Y-32790447D01*
X121819792Y-32773792D01*
X121836447Y-32760124D01*
X121855443Y-32749971D01*
X121876062Y-32743716D01*
X121903640Y-32741000D01*
X122412360Y-32741000D01*
X122439938Y-32743716D01*
G37*
G36*
X116660721Y-31940174D02*
G01*
X116760995Y-31981709D01*
X116805812Y-32011655D01*
X116851242Y-32042010D01*
X116927990Y-32118758D01*
X116927991Y-32118760D01*
X116988291Y-32209005D01*
X117029826Y-32309279D01*
X117051000Y-32415730D01*
X117051000Y-32524270D01*
X117029826Y-32630721D01*
X116988291Y-32730995D01*
X116962124Y-32770156D01*
X116927990Y-32821242D01*
X116851242Y-32897990D01*
X116827281Y-32914000D01*
X116760995Y-32958291D01*
X116660721Y-32999826D01*
X116554270Y-33021000D01*
X116445730Y-33021000D01*
X116339279Y-32999826D01*
X116239005Y-32958291D01*
X116172719Y-32914000D01*
X116148758Y-32897990D01*
X116072010Y-32821242D01*
X116037876Y-32770156D01*
X116011709Y-32730995D01*
X115970174Y-32630721D01*
X115949000Y-32524270D01*
X115949000Y-32415730D01*
X115970174Y-32309279D01*
X116011709Y-32209005D01*
X116072009Y-32118760D01*
X116072010Y-32118758D01*
X116148758Y-32042010D01*
X116194188Y-32011655D01*
X116239005Y-31981709D01*
X116339279Y-31940174D01*
X116445730Y-31919000D01*
X116554270Y-31919000D01*
X116660721Y-31940174D01*
G37*
G36*
X131451938Y-31846716D02*
G01*
X131472557Y-31852971D01*
X131491553Y-31863124D01*
X131508208Y-31876792D01*
X131521876Y-31893447D01*
X131532029Y-31912443D01*
X131538284Y-31933062D01*
X131541000Y-31960640D01*
X131541000Y-32419360D01*
X131538284Y-32446938D01*
X131532029Y-32467557D01*
X131521876Y-32486553D01*
X131508208Y-32503208D01*
X131491553Y-32516876D01*
X131472557Y-32527029D01*
X131451938Y-32533284D01*
X131424360Y-32536000D01*
X130915640Y-32536000D01*
X130888062Y-32533284D01*
X130867443Y-32527029D01*
X130848447Y-32516876D01*
X130831792Y-32503208D01*
X130818124Y-32486553D01*
X130807971Y-32467557D01*
X130801716Y-32446938D01*
X130799000Y-32419360D01*
X130799000Y-31960640D01*
X130801716Y-31933062D01*
X130807971Y-31912443D01*
X130818124Y-31893447D01*
X130831792Y-31876792D01*
X130848447Y-31863124D01*
X130867443Y-31852971D01*
X130888062Y-31846716D01*
X130915640Y-31844000D01*
X131424360Y-31844000D01*
X131451938Y-31846716D01*
G37*
G36*
X132856938Y-31846716D02*
G01*
X132877557Y-31852971D01*
X132896553Y-31863124D01*
X132913208Y-31876792D01*
X132926876Y-31893447D01*
X132937029Y-31912443D01*
X132943284Y-31933062D01*
X132946000Y-31960640D01*
X132946000Y-32419360D01*
X132943284Y-32446938D01*
X132937029Y-32467557D01*
X132926876Y-32486553D01*
X132913208Y-32503208D01*
X132896553Y-32516876D01*
X132877557Y-32527029D01*
X132856938Y-32533284D01*
X132829360Y-32536000D01*
X132320640Y-32536000D01*
X132293062Y-32533284D01*
X132272443Y-32527029D01*
X132253447Y-32516876D01*
X132236792Y-32503208D01*
X132223124Y-32486553D01*
X132212971Y-32467557D01*
X132206716Y-32446938D01*
X132204000Y-32419360D01*
X132204000Y-31960640D01*
X132206716Y-31933062D01*
X132212971Y-31912443D01*
X132223124Y-31893447D01*
X132236792Y-31876792D01*
X132253447Y-31863124D01*
X132272443Y-31852971D01*
X132293062Y-31846716D01*
X132320640Y-31844000D01*
X132829360Y-31844000D01*
X132856938Y-31846716D01*
G37*
G36*
X122439938Y-31773716D02*
G01*
X122460557Y-31779971D01*
X122479553Y-31790124D01*
X122496208Y-31803792D01*
X122509876Y-31820447D01*
X122520029Y-31839443D01*
X122526284Y-31860062D01*
X122529000Y-31887640D01*
X122529000Y-32346360D01*
X122526284Y-32373938D01*
X122520029Y-32394557D01*
X122509876Y-32413553D01*
X122496208Y-32430208D01*
X122479553Y-32443876D01*
X122460557Y-32454029D01*
X122439938Y-32460284D01*
X122412360Y-32463000D01*
X121903640Y-32463000D01*
X121876062Y-32460284D01*
X121855443Y-32454029D01*
X121836447Y-32443876D01*
X121819792Y-32430208D01*
X121806124Y-32413553D01*
X121795971Y-32394557D01*
X121789716Y-32373938D01*
X121787000Y-32346360D01*
X121787000Y-31887640D01*
X121789716Y-31860062D01*
X121795971Y-31839443D01*
X121806124Y-31820447D01*
X121819792Y-31803792D01*
X121836447Y-31790124D01*
X121855443Y-31779971D01*
X121876062Y-31773716D01*
X121903640Y-31771000D01*
X122412360Y-31771000D01*
X122439938Y-31773716D01*
G37*
G36*
X121029591Y-31328085D02*
G01*
X121063569Y-31338393D01*
X121094890Y-31355134D01*
X121122339Y-31377661D01*
X121144866Y-31405110D01*
X121161607Y-31436431D01*
X121171915Y-31470409D01*
X121176000Y-31511890D01*
X121176000Y-32113110D01*
X121171915Y-32154591D01*
X121161607Y-32188569D01*
X121144866Y-32219890D01*
X121122339Y-32247339D01*
X121094890Y-32269866D01*
X121063569Y-32286607D01*
X121029591Y-32296915D01*
X120988110Y-32301000D01*
X120311890Y-32301000D01*
X120270409Y-32296915D01*
X120236431Y-32286607D01*
X120205110Y-32269866D01*
X120177661Y-32247339D01*
X120155134Y-32219890D01*
X120138393Y-32188569D01*
X120128085Y-32154591D01*
X120124000Y-32113110D01*
X120124000Y-31511890D01*
X120128085Y-31470409D01*
X120138393Y-31436431D01*
X120155134Y-31405110D01*
X120177661Y-31377661D01*
X120205110Y-31355134D01*
X120236431Y-31338393D01*
X120270409Y-31328085D01*
X120311890Y-31324000D01*
X120988110Y-31324000D01*
X121029591Y-31328085D01*
G37*
G36*
X119354591Y-31328085D02*
G01*
X119388569Y-31338393D01*
X119419890Y-31355134D01*
X119447339Y-31377661D01*
X119469866Y-31405110D01*
X119486607Y-31436431D01*
X119496915Y-31470409D01*
X119501000Y-31511890D01*
X119501000Y-32113110D01*
X119496915Y-32154591D01*
X119486607Y-32188569D01*
X119469866Y-32219890D01*
X119447339Y-32247339D01*
X119419890Y-32269866D01*
X119388569Y-32286607D01*
X119354591Y-32296915D01*
X119313110Y-32301000D01*
X118636890Y-32301000D01*
X118595409Y-32296915D01*
X118561431Y-32286607D01*
X118530110Y-32269866D01*
X118502661Y-32247339D01*
X118480134Y-32219890D01*
X118463393Y-32188569D01*
X118453085Y-32154591D01*
X118449000Y-32113110D01*
X118449000Y-31511890D01*
X118453085Y-31470409D01*
X118463393Y-31436431D01*
X118480134Y-31405110D01*
X118502661Y-31377661D01*
X118530110Y-31355134D01*
X118561431Y-31338393D01*
X118595409Y-31328085D01*
X118636890Y-31324000D01*
X119313110Y-31324000D01*
X119354591Y-31328085D01*
G37*
G36*
X123303512Y-28313927D02*
G01*
X123452812Y-28343624D01*
X123616784Y-28411544D01*
X123764354Y-28510147D01*
X123889853Y-28635646D01*
X123988456Y-28783216D01*
X124056376Y-28947188D01*
X124091000Y-29121259D01*
X124091000Y-29298741D01*
X124056376Y-29472812D01*
X123988456Y-29636784D01*
X123889853Y-29784354D01*
X123764354Y-29909853D01*
X123616784Y-30008456D01*
X123452812Y-30076376D01*
X123303512Y-30106073D01*
X123278742Y-30111000D01*
X123101258Y-30111000D01*
X123076488Y-30106073D01*
X122927188Y-30076376D01*
X122763216Y-30008456D01*
X122615646Y-29909853D01*
X122490147Y-29784354D01*
X122391544Y-29636784D01*
X122323624Y-29472812D01*
X122289000Y-29298741D01*
X122289000Y-29121259D01*
X122323624Y-28947188D01*
X122391544Y-28783216D01*
X122490147Y-28635646D01*
X122615646Y-28510147D01*
X122763216Y-28411544D01*
X122927188Y-28343624D01*
X123076488Y-28313927D01*
X123101258Y-28309000D01*
X123278742Y-28309000D01*
X123303512Y-28313927D01*
G37*
G36*
X119011000Y-30111000D02*
G01*
X117209000Y-30111000D01*
X117209000Y-28309000D01*
X119011000Y-28309000D01*
X119011000Y-30111000D01*
G37*
G36*
X120763512Y-28313927D02*
G01*
X120912812Y-28343624D01*
X121076784Y-28411544D01*
X121224354Y-28510147D01*
X121349853Y-28635646D01*
X121448456Y-28783216D01*
X121516376Y-28947188D01*
X121551000Y-29121259D01*
X121551000Y-29298741D01*
X121516376Y-29472812D01*
X121448456Y-29636784D01*
X121349853Y-29784354D01*
X121224354Y-29909853D01*
X121076784Y-30008456D01*
X120912812Y-30076376D01*
X120763512Y-30106073D01*
X120738742Y-30111000D01*
X120561258Y-30111000D01*
X120536488Y-30106073D01*
X120387188Y-30076376D01*
X120223216Y-30008456D01*
X120075646Y-29909853D01*
X119950147Y-29784354D01*
X119851544Y-29636784D01*
X119783624Y-29472812D01*
X119749000Y-29298741D01*
X119749000Y-29121259D01*
X119783624Y-28947188D01*
X119851544Y-28783216D01*
X119950147Y-28635646D01*
X120075646Y-28510147D01*
X120223216Y-28411544D01*
X120387188Y-28343624D01*
X120536488Y-28313927D01*
X120561258Y-28309000D01*
X120738742Y-28309000D01*
X120763512Y-28313927D01*
G37*
G36*
X130923512Y-28313927D02*
G01*
X131072812Y-28343624D01*
X131236784Y-28411544D01*
X131384354Y-28510147D01*
X131509853Y-28635646D01*
X131608456Y-28783216D01*
X131676376Y-28947188D01*
X131711000Y-29121259D01*
X131711000Y-29298741D01*
X131676376Y-29472812D01*
X131608456Y-29636784D01*
X131509853Y-29784354D01*
X131384354Y-29909853D01*
X131236784Y-30008456D01*
X131072812Y-30076376D01*
X130923512Y-30106073D01*
X130898742Y-30111000D01*
X130721258Y-30111000D01*
X130696488Y-30106073D01*
X130547188Y-30076376D01*
X130383216Y-30008456D01*
X130235646Y-29909853D01*
X130110147Y-29784354D01*
X130011544Y-29636784D01*
X129943624Y-29472812D01*
X129909000Y-29298741D01*
X129909000Y-29121259D01*
X129943624Y-28947188D01*
X130011544Y-28783216D01*
X130110147Y-28635646D01*
X130235646Y-28510147D01*
X130383216Y-28411544D01*
X130547188Y-28343624D01*
X130696488Y-28313927D01*
X130721258Y-28309000D01*
X130898742Y-28309000D01*
X130923512Y-28313927D01*
G37*
G36*
X125843512Y-28313927D02*
G01*
X125992812Y-28343624D01*
X126156784Y-28411544D01*
X126304354Y-28510147D01*
X126429853Y-28635646D01*
X126528456Y-28783216D01*
X126596376Y-28947188D01*
X126631000Y-29121259D01*
X126631000Y-29298741D01*
X126596376Y-29472812D01*
X126528456Y-29636784D01*
X126429853Y-29784354D01*
X126304354Y-29909853D01*
X126156784Y-30008456D01*
X125992812Y-30076376D01*
X125843512Y-30106073D01*
X125818742Y-30111000D01*
X125641258Y-30111000D01*
X125616488Y-30106073D01*
X125467188Y-30076376D01*
X125303216Y-30008456D01*
X125155646Y-29909853D01*
X125030147Y-29784354D01*
X124931544Y-29636784D01*
X124863624Y-29472812D01*
X124829000Y-29298741D01*
X124829000Y-29121259D01*
X124863624Y-28947188D01*
X124931544Y-28783216D01*
X125030147Y-28635646D01*
X125155646Y-28510147D01*
X125303216Y-28411544D01*
X125467188Y-28343624D01*
X125616488Y-28313927D01*
X125641258Y-28309000D01*
X125818742Y-28309000D01*
X125843512Y-28313927D01*
G37*
G36*
X128383512Y-28313927D02*
G01*
X128532812Y-28343624D01*
X128696784Y-28411544D01*
X128844354Y-28510147D01*
X128969853Y-28635646D01*
X129068456Y-28783216D01*
X129136376Y-28947188D01*
X129171000Y-29121259D01*
X129171000Y-29298741D01*
X129136376Y-29472812D01*
X129068456Y-29636784D01*
X128969853Y-29784354D01*
X128844354Y-29909853D01*
X128696784Y-30008456D01*
X128532812Y-30076376D01*
X128383512Y-30106073D01*
X128358742Y-30111000D01*
X128181258Y-30111000D01*
X128156488Y-30106073D01*
X128007188Y-30076376D01*
X127843216Y-30008456D01*
X127695646Y-29909853D01*
X127570147Y-29784354D01*
X127471544Y-29636784D01*
X127403624Y-29472812D01*
X127369000Y-29298741D01*
X127369000Y-29121259D01*
X127403624Y-28947188D01*
X127471544Y-28783216D01*
X127570147Y-28635646D01*
X127695646Y-28510147D01*
X127843216Y-28411544D01*
X128007188Y-28343624D01*
X128156488Y-28313927D01*
X128181258Y-28309000D01*
X128358742Y-28309000D01*
X128383512Y-28313927D01*
G37*
G36*
X130923512Y-25773927D02*
G01*
X131072812Y-25803624D01*
X131236784Y-25871544D01*
X131384354Y-25970147D01*
X131509853Y-26095646D01*
X131608456Y-26243216D01*
X131676376Y-26407188D01*
X131711000Y-26581259D01*
X131711000Y-26758741D01*
X131676376Y-26932812D01*
X131608456Y-27096784D01*
X131509853Y-27244354D01*
X131384354Y-27369853D01*
X131236784Y-27468456D01*
X131072812Y-27536376D01*
X130923512Y-27566073D01*
X130898742Y-27571000D01*
X130721258Y-27571000D01*
X130696488Y-27566073D01*
X130547188Y-27536376D01*
X130383216Y-27468456D01*
X130235646Y-27369853D01*
X130110147Y-27244354D01*
X130011544Y-27096784D01*
X129943624Y-26932812D01*
X129909000Y-26758741D01*
X129909000Y-26581259D01*
X129943624Y-26407188D01*
X130011544Y-26243216D01*
X130110147Y-26095646D01*
X130235646Y-25970147D01*
X130383216Y-25871544D01*
X130547188Y-25803624D01*
X130696488Y-25773927D01*
X130721258Y-25769000D01*
X130898742Y-25769000D01*
X130923512Y-25773927D01*
G37*
G36*
X118223512Y-25773927D02*
G01*
X118372812Y-25803624D01*
X118536784Y-25871544D01*
X118684354Y-25970147D01*
X118809853Y-26095646D01*
X118908456Y-26243216D01*
X118976376Y-26407188D01*
X119011000Y-26581259D01*
X119011000Y-26758741D01*
X118976376Y-26932812D01*
X118908456Y-27096784D01*
X118809853Y-27244354D01*
X118684354Y-27369853D01*
X118536784Y-27468456D01*
X118372812Y-27536376D01*
X118223512Y-27566073D01*
X118198742Y-27571000D01*
X118021258Y-27571000D01*
X117996488Y-27566073D01*
X117847188Y-27536376D01*
X117683216Y-27468456D01*
X117535646Y-27369853D01*
X117410147Y-27244354D01*
X117311544Y-27096784D01*
X117243624Y-26932812D01*
X117209000Y-26758741D01*
X117209000Y-26581259D01*
X117243624Y-26407188D01*
X117311544Y-26243216D01*
X117410147Y-26095646D01*
X117535646Y-25970147D01*
X117683216Y-25871544D01*
X117847188Y-25803624D01*
X117996488Y-25773927D01*
X118021258Y-25769000D01*
X118198742Y-25769000D01*
X118223512Y-25773927D01*
G37*
G36*
X128383512Y-25773927D02*
G01*
X128532812Y-25803624D01*
X128696784Y-25871544D01*
X128844354Y-25970147D01*
X128969853Y-26095646D01*
X129068456Y-26243216D01*
X129136376Y-26407188D01*
X129171000Y-26581259D01*
X129171000Y-26758741D01*
X129136376Y-26932812D01*
X129068456Y-27096784D01*
X128969853Y-27244354D01*
X128844354Y-27369853D01*
X128696784Y-27468456D01*
X128532812Y-27536376D01*
X128383512Y-27566073D01*
X128358742Y-27571000D01*
X128181258Y-27571000D01*
X128156488Y-27566073D01*
X128007188Y-27536376D01*
X127843216Y-27468456D01*
X127695646Y-27369853D01*
X127570147Y-27244354D01*
X127471544Y-27096784D01*
X127403624Y-26932812D01*
X127369000Y-26758741D01*
X127369000Y-26581259D01*
X127403624Y-26407188D01*
X127471544Y-26243216D01*
X127570147Y-26095646D01*
X127695646Y-25970147D01*
X127843216Y-25871544D01*
X128007188Y-25803624D01*
X128156488Y-25773927D01*
X128181258Y-25769000D01*
X128358742Y-25769000D01*
X128383512Y-25773927D01*
G37*
G36*
X123303512Y-25773927D02*
G01*
X123452812Y-25803624D01*
X123616784Y-25871544D01*
X123764354Y-25970147D01*
X123889853Y-26095646D01*
X123988456Y-26243216D01*
X124056376Y-26407188D01*
X124091000Y-26581259D01*
X124091000Y-26758741D01*
X124056376Y-26932812D01*
X123988456Y-27096784D01*
X123889853Y-27244354D01*
X123764354Y-27369853D01*
X123616784Y-27468456D01*
X123452812Y-27536376D01*
X123303512Y-27566073D01*
X123278742Y-27571000D01*
X123101258Y-27571000D01*
X123076488Y-27566073D01*
X122927188Y-27536376D01*
X122763216Y-27468456D01*
X122615646Y-27369853D01*
X122490147Y-27244354D01*
X122391544Y-27096784D01*
X122323624Y-26932812D01*
X122289000Y-26758741D01*
X122289000Y-26581259D01*
X122323624Y-26407188D01*
X122391544Y-26243216D01*
X122490147Y-26095646D01*
X122615646Y-25970147D01*
X122763216Y-25871544D01*
X122927188Y-25803624D01*
X123076488Y-25773927D01*
X123101258Y-25769000D01*
X123278742Y-25769000D01*
X123303512Y-25773927D01*
G37*
G36*
X120763512Y-25773927D02*
G01*
X120912812Y-25803624D01*
X121076784Y-25871544D01*
X121224354Y-25970147D01*
X121349853Y-26095646D01*
X121448456Y-26243216D01*
X121516376Y-26407188D01*
X121551000Y-26581259D01*
X121551000Y-26758741D01*
X121516376Y-26932812D01*
X121448456Y-27096784D01*
X121349853Y-27244354D01*
X121224354Y-27369853D01*
X121076784Y-27468456D01*
X120912812Y-27536376D01*
X120763512Y-27566073D01*
X120738742Y-27571000D01*
X120561258Y-27571000D01*
X120536488Y-27566073D01*
X120387188Y-27536376D01*
X120223216Y-27468456D01*
X120075646Y-27369853D01*
X119950147Y-27244354D01*
X119851544Y-27096784D01*
X119783624Y-26932812D01*
X119749000Y-26758741D01*
X119749000Y-26581259D01*
X119783624Y-26407188D01*
X119851544Y-26243216D01*
X119950147Y-26095646D01*
X120075646Y-25970147D01*
X120223216Y-25871544D01*
X120387188Y-25803624D01*
X120536488Y-25773927D01*
X120561258Y-25769000D01*
X120738742Y-25769000D01*
X120763512Y-25773927D01*
G37*
G36*
X125843512Y-25773927D02*
G01*
X125992812Y-25803624D01*
X126156784Y-25871544D01*
X126304354Y-25970147D01*
X126429853Y-26095646D01*
X126528456Y-26243216D01*
X126596376Y-26407188D01*
X126631000Y-26581259D01*
X126631000Y-26758741D01*
X126596376Y-26932812D01*
X126528456Y-27096784D01*
X126429853Y-27244354D01*
X126304354Y-27369853D01*
X126156784Y-27468456D01*
X125992812Y-27536376D01*
X125843512Y-27566073D01*
X125818742Y-27571000D01*
X125641258Y-27571000D01*
X125616488Y-27566073D01*
X125467188Y-27536376D01*
X125303216Y-27468456D01*
X125155646Y-27369853D01*
X125030147Y-27244354D01*
X124931544Y-27096784D01*
X124863624Y-26932812D01*
X124829000Y-26758741D01*
X124829000Y-26581259D01*
X124863624Y-26407188D01*
X124931544Y-26243216D01*
X125030147Y-26095646D01*
X125155646Y-25970147D01*
X125303216Y-25871544D01*
X125467188Y-25803624D01*
X125616488Y-25773927D01*
X125641258Y-25769000D01*
X125818742Y-25769000D01*
X125843512Y-25773927D01*
G37*
M02*
