G04 #@! TF.GenerationSoftware,KiCad,Pcbnew,5.0.1*
G04 #@! TF.CreationDate,2019-01-06T19:01:27+01:00*
G04 #@! TF.ProjectId,SX1257_pmod,5358313235375F706D6F642E6B696361,rev?*
G04 #@! TF.SameCoordinates,Original*
G04 #@! TF.FileFunction,Soldermask,Bot*
G04 #@! TF.FilePolarity,Negative*
%FSLAX46Y46*%
G04 Gerber Fmt 4.6, Leading zero omitted, Abs format (unit mm)*
G04 Created by KiCad (PCBNEW 5.0.1) date Sun 06 Jan 2019 07:01:27 PM CET*
%MOMM*%
%LPD*%
G01*
G04 APERTURE LIST*
%ADD10C,0.100000*%
G04 APERTURE END LIST*
D10*
G36*
X128829000Y-68064000D02*
X127203000Y-68064000D01*
X127203000Y-63162000D01*
X128829000Y-63162000D01*
X128829000Y-68064000D01*
X128829000Y-68064000D01*
G37*
G36*
X121717000Y-68064000D02*
X120091000Y-68064000D01*
X120091000Y-63162000D01*
X121717000Y-63162000D01*
X121717000Y-68064000D01*
X121717000Y-68064000D01*
G37*
G36*
X116637000Y-68064000D02*
X115011000Y-68064000D01*
X115011000Y-63162000D01*
X116637000Y-63162000D01*
X116637000Y-68064000D01*
X116637000Y-68064000D01*
G37*
G36*
X133909000Y-68064000D02*
X132283000Y-68064000D01*
X132283000Y-63162000D01*
X133909000Y-63162000D01*
X133909000Y-68064000D01*
X133909000Y-68064000D01*
G37*
G36*
X125840442Y-28315518D02*
X125906627Y-28322037D01*
X126019853Y-28356384D01*
X126076467Y-28373557D01*
X126215087Y-28447652D01*
X126232991Y-28457222D01*
X126268729Y-28486552D01*
X126370186Y-28569814D01*
X126453448Y-28671271D01*
X126482778Y-28707009D01*
X126482779Y-28707011D01*
X126566443Y-28863533D01*
X126566443Y-28863534D01*
X126617963Y-29033373D01*
X126635359Y-29210000D01*
X126617963Y-29386627D01*
X126583616Y-29499853D01*
X126566443Y-29556467D01*
X126492348Y-29695087D01*
X126482778Y-29712991D01*
X126453448Y-29748729D01*
X126370186Y-29850186D01*
X126268729Y-29933448D01*
X126232991Y-29962778D01*
X126232989Y-29962779D01*
X126076467Y-30046443D01*
X126019853Y-30063616D01*
X125906627Y-30097963D01*
X125840442Y-30104482D01*
X125774260Y-30111000D01*
X125685740Y-30111000D01*
X125619558Y-30104482D01*
X125553373Y-30097963D01*
X125440147Y-30063616D01*
X125383533Y-30046443D01*
X125227011Y-29962779D01*
X125227009Y-29962778D01*
X125191271Y-29933448D01*
X125089814Y-29850186D01*
X125006552Y-29748729D01*
X124977222Y-29712991D01*
X124967652Y-29695087D01*
X124893557Y-29556467D01*
X124876384Y-29499853D01*
X124842037Y-29386627D01*
X124824641Y-29210000D01*
X124842037Y-29033373D01*
X124893557Y-28863534D01*
X124893557Y-28863533D01*
X124977221Y-28707011D01*
X124977222Y-28707009D01*
X125006552Y-28671271D01*
X125089814Y-28569814D01*
X125191271Y-28486552D01*
X125227009Y-28457222D01*
X125244913Y-28447652D01*
X125383533Y-28373557D01*
X125440147Y-28356384D01*
X125553373Y-28322037D01*
X125619558Y-28315518D01*
X125685740Y-28309000D01*
X125774260Y-28309000D01*
X125840442Y-28315518D01*
X125840442Y-28315518D01*
G37*
G36*
X130920442Y-28315518D02*
X130986627Y-28322037D01*
X131099853Y-28356384D01*
X131156467Y-28373557D01*
X131295087Y-28447652D01*
X131312991Y-28457222D01*
X131348729Y-28486552D01*
X131450186Y-28569814D01*
X131533448Y-28671271D01*
X131562778Y-28707009D01*
X131562779Y-28707011D01*
X131646443Y-28863533D01*
X131646443Y-28863534D01*
X131697963Y-29033373D01*
X131715359Y-29210000D01*
X131697963Y-29386627D01*
X131663616Y-29499853D01*
X131646443Y-29556467D01*
X131572348Y-29695087D01*
X131562778Y-29712991D01*
X131533448Y-29748729D01*
X131450186Y-29850186D01*
X131348729Y-29933448D01*
X131312991Y-29962778D01*
X131312989Y-29962779D01*
X131156467Y-30046443D01*
X131099853Y-30063616D01*
X130986627Y-30097963D01*
X130920442Y-30104482D01*
X130854260Y-30111000D01*
X130765740Y-30111000D01*
X130699558Y-30104482D01*
X130633373Y-30097963D01*
X130520147Y-30063616D01*
X130463533Y-30046443D01*
X130307011Y-29962779D01*
X130307009Y-29962778D01*
X130271271Y-29933448D01*
X130169814Y-29850186D01*
X130086552Y-29748729D01*
X130057222Y-29712991D01*
X130047652Y-29695087D01*
X129973557Y-29556467D01*
X129956384Y-29499853D01*
X129922037Y-29386627D01*
X129904641Y-29210000D01*
X129922037Y-29033373D01*
X129973557Y-28863534D01*
X129973557Y-28863533D01*
X130057221Y-28707011D01*
X130057222Y-28707009D01*
X130086552Y-28671271D01*
X130169814Y-28569814D01*
X130271271Y-28486552D01*
X130307009Y-28457222D01*
X130324913Y-28447652D01*
X130463533Y-28373557D01*
X130520147Y-28356384D01*
X130633373Y-28322037D01*
X130699558Y-28315518D01*
X130765740Y-28309000D01*
X130854260Y-28309000D01*
X130920442Y-28315518D01*
X130920442Y-28315518D01*
G37*
G36*
X128380442Y-28315518D02*
X128446627Y-28322037D01*
X128559853Y-28356384D01*
X128616467Y-28373557D01*
X128755087Y-28447652D01*
X128772991Y-28457222D01*
X128808729Y-28486552D01*
X128910186Y-28569814D01*
X128993448Y-28671271D01*
X129022778Y-28707009D01*
X129022779Y-28707011D01*
X129106443Y-28863533D01*
X129106443Y-28863534D01*
X129157963Y-29033373D01*
X129175359Y-29210000D01*
X129157963Y-29386627D01*
X129123616Y-29499853D01*
X129106443Y-29556467D01*
X129032348Y-29695087D01*
X129022778Y-29712991D01*
X128993448Y-29748729D01*
X128910186Y-29850186D01*
X128808729Y-29933448D01*
X128772991Y-29962778D01*
X128772989Y-29962779D01*
X128616467Y-30046443D01*
X128559853Y-30063616D01*
X128446627Y-30097963D01*
X128380442Y-30104482D01*
X128314260Y-30111000D01*
X128225740Y-30111000D01*
X128159558Y-30104482D01*
X128093373Y-30097963D01*
X127980147Y-30063616D01*
X127923533Y-30046443D01*
X127767011Y-29962779D01*
X127767009Y-29962778D01*
X127731271Y-29933448D01*
X127629814Y-29850186D01*
X127546552Y-29748729D01*
X127517222Y-29712991D01*
X127507652Y-29695087D01*
X127433557Y-29556467D01*
X127416384Y-29499853D01*
X127382037Y-29386627D01*
X127364641Y-29210000D01*
X127382037Y-29033373D01*
X127433557Y-28863534D01*
X127433557Y-28863533D01*
X127517221Y-28707011D01*
X127517222Y-28707009D01*
X127546552Y-28671271D01*
X127629814Y-28569814D01*
X127731271Y-28486552D01*
X127767009Y-28457222D01*
X127784913Y-28447652D01*
X127923533Y-28373557D01*
X127980147Y-28356384D01*
X128093373Y-28322037D01*
X128159558Y-28315518D01*
X128225740Y-28309000D01*
X128314260Y-28309000D01*
X128380442Y-28315518D01*
X128380442Y-28315518D01*
G37*
G36*
X123300442Y-28315518D02*
X123366627Y-28322037D01*
X123479853Y-28356384D01*
X123536467Y-28373557D01*
X123675087Y-28447652D01*
X123692991Y-28457222D01*
X123728729Y-28486552D01*
X123830186Y-28569814D01*
X123913448Y-28671271D01*
X123942778Y-28707009D01*
X123942779Y-28707011D01*
X124026443Y-28863533D01*
X124026443Y-28863534D01*
X124077963Y-29033373D01*
X124095359Y-29210000D01*
X124077963Y-29386627D01*
X124043616Y-29499853D01*
X124026443Y-29556467D01*
X123952348Y-29695087D01*
X123942778Y-29712991D01*
X123913448Y-29748729D01*
X123830186Y-29850186D01*
X123728729Y-29933448D01*
X123692991Y-29962778D01*
X123692989Y-29962779D01*
X123536467Y-30046443D01*
X123479853Y-30063616D01*
X123366627Y-30097963D01*
X123300442Y-30104482D01*
X123234260Y-30111000D01*
X123145740Y-30111000D01*
X123079558Y-30104482D01*
X123013373Y-30097963D01*
X122900147Y-30063616D01*
X122843533Y-30046443D01*
X122687011Y-29962779D01*
X122687009Y-29962778D01*
X122651271Y-29933448D01*
X122549814Y-29850186D01*
X122466552Y-29748729D01*
X122437222Y-29712991D01*
X122427652Y-29695087D01*
X122353557Y-29556467D01*
X122336384Y-29499853D01*
X122302037Y-29386627D01*
X122284641Y-29210000D01*
X122302037Y-29033373D01*
X122353557Y-28863534D01*
X122353557Y-28863533D01*
X122437221Y-28707011D01*
X122437222Y-28707009D01*
X122466552Y-28671271D01*
X122549814Y-28569814D01*
X122651271Y-28486552D01*
X122687009Y-28457222D01*
X122704913Y-28447652D01*
X122843533Y-28373557D01*
X122900147Y-28356384D01*
X123013373Y-28322037D01*
X123079558Y-28315518D01*
X123145740Y-28309000D01*
X123234260Y-28309000D01*
X123300442Y-28315518D01*
X123300442Y-28315518D01*
G37*
G36*
X120760442Y-28315518D02*
X120826627Y-28322037D01*
X120939853Y-28356384D01*
X120996467Y-28373557D01*
X121135087Y-28447652D01*
X121152991Y-28457222D01*
X121188729Y-28486552D01*
X121290186Y-28569814D01*
X121373448Y-28671271D01*
X121402778Y-28707009D01*
X121402779Y-28707011D01*
X121486443Y-28863533D01*
X121486443Y-28863534D01*
X121537963Y-29033373D01*
X121555359Y-29210000D01*
X121537963Y-29386627D01*
X121503616Y-29499853D01*
X121486443Y-29556467D01*
X121412348Y-29695087D01*
X121402778Y-29712991D01*
X121373448Y-29748729D01*
X121290186Y-29850186D01*
X121188729Y-29933448D01*
X121152991Y-29962778D01*
X121152989Y-29962779D01*
X120996467Y-30046443D01*
X120939853Y-30063616D01*
X120826627Y-30097963D01*
X120760442Y-30104482D01*
X120694260Y-30111000D01*
X120605740Y-30111000D01*
X120539558Y-30104482D01*
X120473373Y-30097963D01*
X120360147Y-30063616D01*
X120303533Y-30046443D01*
X120147011Y-29962779D01*
X120147009Y-29962778D01*
X120111271Y-29933448D01*
X120009814Y-29850186D01*
X119926552Y-29748729D01*
X119897222Y-29712991D01*
X119887652Y-29695087D01*
X119813557Y-29556467D01*
X119796384Y-29499853D01*
X119762037Y-29386627D01*
X119744641Y-29210000D01*
X119762037Y-29033373D01*
X119813557Y-28863534D01*
X119813557Y-28863533D01*
X119897221Y-28707011D01*
X119897222Y-28707009D01*
X119926552Y-28671271D01*
X120009814Y-28569814D01*
X120111271Y-28486552D01*
X120147009Y-28457222D01*
X120164913Y-28447652D01*
X120303533Y-28373557D01*
X120360147Y-28356384D01*
X120473373Y-28322037D01*
X120539558Y-28315518D01*
X120605740Y-28309000D01*
X120694260Y-28309000D01*
X120760442Y-28315518D01*
X120760442Y-28315518D01*
G37*
G36*
X119011000Y-30111000D02*
X117209000Y-30111000D01*
X117209000Y-28309000D01*
X119011000Y-28309000D01*
X119011000Y-30111000D01*
X119011000Y-30111000D01*
G37*
G36*
X118220442Y-25775518D02*
X118286627Y-25782037D01*
X118399853Y-25816384D01*
X118456467Y-25833557D01*
X118595087Y-25907652D01*
X118612991Y-25917222D01*
X118648729Y-25946552D01*
X118750186Y-26029814D01*
X118833448Y-26131271D01*
X118862778Y-26167009D01*
X118862779Y-26167011D01*
X118946443Y-26323533D01*
X118946443Y-26323534D01*
X118997963Y-26493373D01*
X119015359Y-26670000D01*
X118997963Y-26846627D01*
X118963616Y-26959853D01*
X118946443Y-27016467D01*
X118872348Y-27155087D01*
X118862778Y-27172991D01*
X118833448Y-27208729D01*
X118750186Y-27310186D01*
X118648729Y-27393448D01*
X118612991Y-27422778D01*
X118612989Y-27422779D01*
X118456467Y-27506443D01*
X118399853Y-27523616D01*
X118286627Y-27557963D01*
X118220442Y-27564482D01*
X118154260Y-27571000D01*
X118065740Y-27571000D01*
X117999558Y-27564482D01*
X117933373Y-27557963D01*
X117820147Y-27523616D01*
X117763533Y-27506443D01*
X117607011Y-27422779D01*
X117607009Y-27422778D01*
X117571271Y-27393448D01*
X117469814Y-27310186D01*
X117386552Y-27208729D01*
X117357222Y-27172991D01*
X117347652Y-27155087D01*
X117273557Y-27016467D01*
X117256384Y-26959853D01*
X117222037Y-26846627D01*
X117204641Y-26670000D01*
X117222037Y-26493373D01*
X117273557Y-26323534D01*
X117273557Y-26323533D01*
X117357221Y-26167011D01*
X117357222Y-26167009D01*
X117386552Y-26131271D01*
X117469814Y-26029814D01*
X117571271Y-25946552D01*
X117607009Y-25917222D01*
X117624913Y-25907652D01*
X117763533Y-25833557D01*
X117820147Y-25816384D01*
X117933373Y-25782037D01*
X117999557Y-25775519D01*
X118065740Y-25769000D01*
X118154260Y-25769000D01*
X118220442Y-25775518D01*
X118220442Y-25775518D01*
G37*
G36*
X120760442Y-25775518D02*
X120826627Y-25782037D01*
X120939853Y-25816384D01*
X120996467Y-25833557D01*
X121135087Y-25907652D01*
X121152991Y-25917222D01*
X121188729Y-25946552D01*
X121290186Y-26029814D01*
X121373448Y-26131271D01*
X121402778Y-26167009D01*
X121402779Y-26167011D01*
X121486443Y-26323533D01*
X121486443Y-26323534D01*
X121537963Y-26493373D01*
X121555359Y-26670000D01*
X121537963Y-26846627D01*
X121503616Y-26959853D01*
X121486443Y-27016467D01*
X121412348Y-27155087D01*
X121402778Y-27172991D01*
X121373448Y-27208729D01*
X121290186Y-27310186D01*
X121188729Y-27393448D01*
X121152991Y-27422778D01*
X121152989Y-27422779D01*
X120996467Y-27506443D01*
X120939853Y-27523616D01*
X120826627Y-27557963D01*
X120760442Y-27564482D01*
X120694260Y-27571000D01*
X120605740Y-27571000D01*
X120539558Y-27564482D01*
X120473373Y-27557963D01*
X120360147Y-27523616D01*
X120303533Y-27506443D01*
X120147011Y-27422779D01*
X120147009Y-27422778D01*
X120111271Y-27393448D01*
X120009814Y-27310186D01*
X119926552Y-27208729D01*
X119897222Y-27172991D01*
X119887652Y-27155087D01*
X119813557Y-27016467D01*
X119796384Y-26959853D01*
X119762037Y-26846627D01*
X119744641Y-26670000D01*
X119762037Y-26493373D01*
X119813557Y-26323534D01*
X119813557Y-26323533D01*
X119897221Y-26167011D01*
X119897222Y-26167009D01*
X119926552Y-26131271D01*
X120009814Y-26029814D01*
X120111271Y-25946552D01*
X120147009Y-25917222D01*
X120164913Y-25907652D01*
X120303533Y-25833557D01*
X120360147Y-25816384D01*
X120473373Y-25782037D01*
X120539557Y-25775519D01*
X120605740Y-25769000D01*
X120694260Y-25769000D01*
X120760442Y-25775518D01*
X120760442Y-25775518D01*
G37*
G36*
X123300442Y-25775518D02*
X123366627Y-25782037D01*
X123479853Y-25816384D01*
X123536467Y-25833557D01*
X123675087Y-25907652D01*
X123692991Y-25917222D01*
X123728729Y-25946552D01*
X123830186Y-26029814D01*
X123913448Y-26131271D01*
X123942778Y-26167009D01*
X123942779Y-26167011D01*
X124026443Y-26323533D01*
X124026443Y-26323534D01*
X124077963Y-26493373D01*
X124095359Y-26670000D01*
X124077963Y-26846627D01*
X124043616Y-26959853D01*
X124026443Y-27016467D01*
X123952348Y-27155087D01*
X123942778Y-27172991D01*
X123913448Y-27208729D01*
X123830186Y-27310186D01*
X123728729Y-27393448D01*
X123692991Y-27422778D01*
X123692989Y-27422779D01*
X123536467Y-27506443D01*
X123479853Y-27523616D01*
X123366627Y-27557963D01*
X123300442Y-27564482D01*
X123234260Y-27571000D01*
X123145740Y-27571000D01*
X123079558Y-27564482D01*
X123013373Y-27557963D01*
X122900147Y-27523616D01*
X122843533Y-27506443D01*
X122687011Y-27422779D01*
X122687009Y-27422778D01*
X122651271Y-27393448D01*
X122549814Y-27310186D01*
X122466552Y-27208729D01*
X122437222Y-27172991D01*
X122427652Y-27155087D01*
X122353557Y-27016467D01*
X122336384Y-26959853D01*
X122302037Y-26846627D01*
X122284641Y-26670000D01*
X122302037Y-26493373D01*
X122353557Y-26323534D01*
X122353557Y-26323533D01*
X122437221Y-26167011D01*
X122437222Y-26167009D01*
X122466552Y-26131271D01*
X122549814Y-26029814D01*
X122651271Y-25946552D01*
X122687009Y-25917222D01*
X122704913Y-25907652D01*
X122843533Y-25833557D01*
X122900147Y-25816384D01*
X123013373Y-25782037D01*
X123079557Y-25775519D01*
X123145740Y-25769000D01*
X123234260Y-25769000D01*
X123300442Y-25775518D01*
X123300442Y-25775518D01*
G37*
G36*
X125840442Y-25775518D02*
X125906627Y-25782037D01*
X126019853Y-25816384D01*
X126076467Y-25833557D01*
X126215087Y-25907652D01*
X126232991Y-25917222D01*
X126268729Y-25946552D01*
X126370186Y-26029814D01*
X126453448Y-26131271D01*
X126482778Y-26167009D01*
X126482779Y-26167011D01*
X126566443Y-26323533D01*
X126566443Y-26323534D01*
X126617963Y-26493373D01*
X126635359Y-26670000D01*
X126617963Y-26846627D01*
X126583616Y-26959853D01*
X126566443Y-27016467D01*
X126492348Y-27155087D01*
X126482778Y-27172991D01*
X126453448Y-27208729D01*
X126370186Y-27310186D01*
X126268729Y-27393448D01*
X126232991Y-27422778D01*
X126232989Y-27422779D01*
X126076467Y-27506443D01*
X126019853Y-27523616D01*
X125906627Y-27557963D01*
X125840442Y-27564482D01*
X125774260Y-27571000D01*
X125685740Y-27571000D01*
X125619558Y-27564482D01*
X125553373Y-27557963D01*
X125440147Y-27523616D01*
X125383533Y-27506443D01*
X125227011Y-27422779D01*
X125227009Y-27422778D01*
X125191271Y-27393448D01*
X125089814Y-27310186D01*
X125006552Y-27208729D01*
X124977222Y-27172991D01*
X124967652Y-27155087D01*
X124893557Y-27016467D01*
X124876384Y-26959853D01*
X124842037Y-26846627D01*
X124824641Y-26670000D01*
X124842037Y-26493373D01*
X124893557Y-26323534D01*
X124893557Y-26323533D01*
X124977221Y-26167011D01*
X124977222Y-26167009D01*
X125006552Y-26131271D01*
X125089814Y-26029814D01*
X125191271Y-25946552D01*
X125227009Y-25917222D01*
X125244913Y-25907652D01*
X125383533Y-25833557D01*
X125440147Y-25816384D01*
X125553373Y-25782037D01*
X125619557Y-25775519D01*
X125685740Y-25769000D01*
X125774260Y-25769000D01*
X125840442Y-25775518D01*
X125840442Y-25775518D01*
G37*
G36*
X128380442Y-25775518D02*
X128446627Y-25782037D01*
X128559853Y-25816384D01*
X128616467Y-25833557D01*
X128755087Y-25907652D01*
X128772991Y-25917222D01*
X128808729Y-25946552D01*
X128910186Y-26029814D01*
X128993448Y-26131271D01*
X129022778Y-26167009D01*
X129022779Y-26167011D01*
X129106443Y-26323533D01*
X129106443Y-26323534D01*
X129157963Y-26493373D01*
X129175359Y-26670000D01*
X129157963Y-26846627D01*
X129123616Y-26959853D01*
X129106443Y-27016467D01*
X129032348Y-27155087D01*
X129022778Y-27172991D01*
X128993448Y-27208729D01*
X128910186Y-27310186D01*
X128808729Y-27393448D01*
X128772991Y-27422778D01*
X128772989Y-27422779D01*
X128616467Y-27506443D01*
X128559853Y-27523616D01*
X128446627Y-27557963D01*
X128380442Y-27564482D01*
X128314260Y-27571000D01*
X128225740Y-27571000D01*
X128159558Y-27564482D01*
X128093373Y-27557963D01*
X127980147Y-27523616D01*
X127923533Y-27506443D01*
X127767011Y-27422779D01*
X127767009Y-27422778D01*
X127731271Y-27393448D01*
X127629814Y-27310186D01*
X127546552Y-27208729D01*
X127517222Y-27172991D01*
X127507652Y-27155087D01*
X127433557Y-27016467D01*
X127416384Y-26959853D01*
X127382037Y-26846627D01*
X127364641Y-26670000D01*
X127382037Y-26493373D01*
X127433557Y-26323534D01*
X127433557Y-26323533D01*
X127517221Y-26167011D01*
X127517222Y-26167009D01*
X127546552Y-26131271D01*
X127629814Y-26029814D01*
X127731271Y-25946552D01*
X127767009Y-25917222D01*
X127784913Y-25907652D01*
X127923533Y-25833557D01*
X127980147Y-25816384D01*
X128093373Y-25782037D01*
X128159557Y-25775519D01*
X128225740Y-25769000D01*
X128314260Y-25769000D01*
X128380442Y-25775518D01*
X128380442Y-25775518D01*
G37*
G36*
X130920442Y-25775518D02*
X130986627Y-25782037D01*
X131099853Y-25816384D01*
X131156467Y-25833557D01*
X131295087Y-25907652D01*
X131312991Y-25917222D01*
X131348729Y-25946552D01*
X131450186Y-26029814D01*
X131533448Y-26131271D01*
X131562778Y-26167009D01*
X131562779Y-26167011D01*
X131646443Y-26323533D01*
X131646443Y-26323534D01*
X131697963Y-26493373D01*
X131715359Y-26670000D01*
X131697963Y-26846627D01*
X131663616Y-26959853D01*
X131646443Y-27016467D01*
X131572348Y-27155087D01*
X131562778Y-27172991D01*
X131533448Y-27208729D01*
X131450186Y-27310186D01*
X131348729Y-27393448D01*
X131312991Y-27422778D01*
X131312989Y-27422779D01*
X131156467Y-27506443D01*
X131099853Y-27523616D01*
X130986627Y-27557963D01*
X130920442Y-27564482D01*
X130854260Y-27571000D01*
X130765740Y-27571000D01*
X130699558Y-27564482D01*
X130633373Y-27557963D01*
X130520147Y-27523616D01*
X130463533Y-27506443D01*
X130307011Y-27422779D01*
X130307009Y-27422778D01*
X130271271Y-27393448D01*
X130169814Y-27310186D01*
X130086552Y-27208729D01*
X130057222Y-27172991D01*
X130047652Y-27155087D01*
X129973557Y-27016467D01*
X129956384Y-26959853D01*
X129922037Y-26846627D01*
X129904641Y-26670000D01*
X129922037Y-26493373D01*
X129973557Y-26323534D01*
X129973557Y-26323533D01*
X130057221Y-26167011D01*
X130057222Y-26167009D01*
X130086552Y-26131271D01*
X130169814Y-26029814D01*
X130271271Y-25946552D01*
X130307009Y-25917222D01*
X130324913Y-25907652D01*
X130463533Y-25833557D01*
X130520147Y-25816384D01*
X130633373Y-25782037D01*
X130699557Y-25775519D01*
X130765740Y-25769000D01*
X130854260Y-25769000D01*
X130920442Y-25775518D01*
X130920442Y-25775518D01*
G37*
M02*
