G04 #@! TF.GenerationSoftware,KiCad,Pcbnew,5.0.1*
G04 #@! TF.CreationDate,2019-01-06T19:01:27+01:00*
G04 #@! TF.ProjectId,SX1257_pmod,5358313235375F706D6F642E6B696361,rev?*
G04 #@! TF.SameCoordinates,Original*
G04 #@! TF.FileFunction,Copper,L2,Inr,Signal*
G04 #@! TF.FilePolarity,Positive*
%FSLAX46Y46*%
G04 Gerber Fmt 4.6, Leading zero omitted, Abs format (unit mm)*
G04 Created by KiCad (PCBNEW 5.0.1) date Sun 06 Jan 2019 07:01:27 PM CET*
%MOMM*%
%LPD*%
G01*
G04 APERTURE LIST*
G04 #@! TA.AperFunction,ViaPad*
%ADD10R,1.700000X1.700000*%
G04 #@! TD*
G04 #@! TA.AperFunction,ViaPad*
%ADD11O,1.700000X1.700000*%
G04 #@! TD*
G04 #@! TA.AperFunction,ViaPad*
%ADD12C,0.500000*%
G04 #@! TD*
G04 #@! TA.AperFunction,ViaPad*
%ADD13C,0.800000*%
G04 #@! TD*
G04 #@! TA.AperFunction,Conductor*
%ADD14C,0.254000*%
G04 #@! TD*
G04 APERTURE END LIST*
D10*
G04 #@! TO.N,/PMOD_3V3*
G04 #@! TO.C,J1*
X118110000Y-29210000D03*
D11*
X118110000Y-26670000D03*
G04 #@! TO.N,GND*
X120650000Y-29210000D03*
X120650000Y-26670000D03*
G04 #@! TO.N,/CLK_OUT*
X123190000Y-29210000D03*
G04 #@! TO.N,/PMOD_8*
X123190000Y-26670000D03*
G04 #@! TO.N,/CLK_IN*
X125730000Y-29210000D03*
G04 #@! TO.N,/PMOD_7*
X125730000Y-26670000D03*
G04 #@! TO.N,/I2C_SDA*
X128270000Y-29210000D03*
G04 #@! TO.N,/PMOD_6*
X128270000Y-26670000D03*
G04 #@! TO.N,/I2C_CLK*
X130810000Y-29210000D03*
G04 #@! TO.N,/PMOD_5*
X130810000Y-26670000D03*
G04 #@! TD*
D12*
G04 #@! TO.N,GND*
G04 #@! TO.C,U1*
X125460000Y-52435000D03*
X124460000Y-52435000D03*
X123460000Y-52435000D03*
X125460000Y-51435000D03*
X124460000Y-51435000D03*
X123460000Y-51435000D03*
X125460000Y-50435000D03*
X124460000Y-50435000D03*
X123460000Y-50435000D03*
G04 #@! TD*
D13*
G04 #@! TO.N,GND*
X119761000Y-41021000D03*
X130344547Y-39749810D03*
X115697000Y-47371000D03*
X115697000Y-42164000D03*
X133223000Y-28067000D03*
X133223000Y-29337000D03*
X133223000Y-30607000D03*
X133223000Y-26797000D03*
X115570000Y-27051000D03*
X115570000Y-29591000D03*
X115570000Y-28321000D03*
X115570000Y-30861000D03*
X133477000Y-50292000D03*
X130683000Y-55626000D03*
X123444000Y-58293000D03*
X132207000Y-57277000D03*
X115697000Y-57277000D03*
X133159500Y-67437000D03*
X133159500Y-66167000D03*
X133159500Y-63627000D03*
X133159500Y-64897000D03*
X128079500Y-67437000D03*
X128079500Y-66167000D03*
X128079500Y-64897000D03*
X128079500Y-63627000D03*
X115824000Y-66167000D03*
X115824000Y-63627000D03*
X115824000Y-67437000D03*
X115824000Y-64897000D03*
X119634000Y-46736000D03*
X119126000Y-55372000D03*
X119634000Y-45212000D03*
X133096000Y-48514000D03*
X133096000Y-46990000D03*
X133096000Y-45466000D03*
X124587000Y-33274000D03*
X128016000Y-34163010D03*
X131064000Y-34163000D03*
X120904000Y-66167000D03*
X120904000Y-63627000D03*
X120904000Y-67437000D03*
X120904000Y-64897000D03*
G04 #@! TO.N,/CLK_OUT*
X123698000Y-34289970D03*
X125984000Y-42672000D03*
G04 #@! TO.N,/CLK_IN*
X123444000Y-32512000D03*
X124167978Y-42797268D03*
G04 #@! TO.N,/PMOD_6*
X126106119Y-44280378D03*
G04 #@! TO.N,/PMOD_5*
X125236932Y-44781325D03*
G04 #@! TO.N,/PMOD_7*
X123845972Y-46217219D03*
G04 #@! TO.N,/PMOD_8*
X121920016Y-43180000D03*
G04 #@! TO.N,+3V3*
X133350000Y-39116000D03*
X116967000Y-33274000D03*
X118110000Y-34417000D03*
X119634000Y-34417000D03*
X121158000Y-34417000D03*
X128270000Y-53086000D03*
X121666000Y-54102000D03*
X122428000Y-47751982D03*
X129794000Y-45466000D03*
X129794000Y-46990000D03*
X124587000Y-31750000D03*
X131064000Y-30988000D03*
X128016000Y-30988000D03*
X119062500Y-39052500D03*
G04 #@! TO.N,/SPI_MOSI*
X120137848Y-50439070D03*
X125730000Y-38340190D03*
G04 #@! TO.N,/SPI_MISO*
X120342124Y-49456876D03*
X124714000Y-39116000D03*
G04 #@! TO.N,/SPI_SCK*
X119380000Y-48514000D03*
X118165744Y-38149514D03*
G04 #@! TD*
D14*
G04 #@! TO.N,GND*
G36*
X133910001Y-26837610D02*
X133910001Y-38227684D01*
X133555874Y-38081000D01*
X133144126Y-38081000D01*
X132763720Y-38238569D01*
X132472569Y-38529720D01*
X132315000Y-38910126D01*
X132315000Y-39321874D01*
X132472569Y-39702280D01*
X132763720Y-39993431D01*
X133144126Y-40151000D01*
X133555874Y-40151000D01*
X133910001Y-40004316D01*
X133910000Y-67616000D01*
X115010000Y-67616000D01*
X115010000Y-53896126D01*
X120631000Y-53896126D01*
X120631000Y-54307874D01*
X120788569Y-54688280D01*
X121079720Y-54979431D01*
X121460126Y-55137000D01*
X121871874Y-55137000D01*
X122252280Y-54979431D01*
X122543431Y-54688280D01*
X122701000Y-54307874D01*
X122701000Y-53896126D01*
X122543431Y-53515720D01*
X122252280Y-53224569D01*
X121871874Y-53067000D01*
X121460126Y-53067000D01*
X121079720Y-53224569D01*
X120788569Y-53515720D01*
X120631000Y-53896126D01*
X115010000Y-53896126D01*
X115010000Y-48308126D01*
X118345000Y-48308126D01*
X118345000Y-48719874D01*
X118502569Y-49100280D01*
X118793720Y-49391431D01*
X119174126Y-49549000D01*
X119307124Y-49549000D01*
X119307124Y-49662750D01*
X119349105Y-49764102D01*
X119260417Y-49852790D01*
X119102848Y-50233196D01*
X119102848Y-50644944D01*
X119260417Y-51025350D01*
X119551568Y-51316501D01*
X119931974Y-51474070D01*
X120343722Y-51474070D01*
X120724128Y-51316501D01*
X121015279Y-51025350D01*
X121172848Y-50644944D01*
X121172848Y-50347930D01*
X122561872Y-50347930D01*
X122596917Y-50698257D01*
X122663558Y-50859140D01*
X122760330Y-50862090D01*
X122733906Y-50888514D01*
X122780392Y-50935000D01*
X122733906Y-50981486D01*
X122760330Y-51007910D01*
X122663558Y-51010860D01*
X122561872Y-51347930D01*
X122596917Y-51698257D01*
X122663558Y-51859140D01*
X122760330Y-51862090D01*
X122733906Y-51888514D01*
X122780392Y-51935000D01*
X122733906Y-51981486D01*
X122760330Y-52007910D01*
X122663558Y-52010860D01*
X122561872Y-52347930D01*
X122596917Y-52698257D01*
X122663558Y-52859140D01*
X122853298Y-52864925D01*
X123283223Y-52435000D01*
X123267667Y-52419444D01*
X123358373Y-52328737D01*
X123372930Y-52333128D01*
X123548459Y-52315569D01*
X123566263Y-52333373D01*
X123561872Y-52347930D01*
X123579431Y-52523459D01*
X123475557Y-52627334D01*
X123460000Y-52611777D01*
X123030075Y-53041702D01*
X123035860Y-53231442D01*
X123372930Y-53333128D01*
X123723257Y-53298083D01*
X123884140Y-53231442D01*
X123887090Y-53134670D01*
X123913514Y-53161094D01*
X123960000Y-53114608D01*
X124006486Y-53161094D01*
X124032910Y-53134670D01*
X124035860Y-53231442D01*
X124372930Y-53333128D01*
X124723257Y-53298083D01*
X124884140Y-53231442D01*
X124887090Y-53134670D01*
X124913514Y-53161094D01*
X124960000Y-53114608D01*
X125006486Y-53161094D01*
X125032910Y-53134670D01*
X125035860Y-53231442D01*
X125372930Y-53333128D01*
X125723257Y-53298083D01*
X125884140Y-53231442D01*
X125889925Y-53041702D01*
X125728349Y-52880126D01*
X127235000Y-52880126D01*
X127235000Y-53291874D01*
X127392569Y-53672280D01*
X127683720Y-53963431D01*
X128064126Y-54121000D01*
X128475874Y-54121000D01*
X128856280Y-53963431D01*
X129147431Y-53672280D01*
X129305000Y-53291874D01*
X129305000Y-52880126D01*
X129147431Y-52499720D01*
X128856280Y-52208569D01*
X128475874Y-52051000D01*
X128064126Y-52051000D01*
X127683720Y-52208569D01*
X127392569Y-52499720D01*
X127235000Y-52880126D01*
X125728349Y-52880126D01*
X125460000Y-52611777D01*
X125444444Y-52627334D01*
X125353737Y-52536627D01*
X125358128Y-52522070D01*
X125340569Y-52346541D01*
X125358373Y-52328737D01*
X125372930Y-52333128D01*
X125548459Y-52315569D01*
X125652334Y-52419444D01*
X125636777Y-52435000D01*
X126066702Y-52864925D01*
X126256442Y-52859140D01*
X126358128Y-52522070D01*
X126323083Y-52171743D01*
X126256442Y-52010860D01*
X126159670Y-52007910D01*
X126186094Y-51981486D01*
X126139608Y-51935000D01*
X126186094Y-51888514D01*
X126159670Y-51862090D01*
X126256442Y-51859140D01*
X126358128Y-51522070D01*
X126323083Y-51171743D01*
X126256442Y-51010860D01*
X126159670Y-51007910D01*
X126186094Y-50981486D01*
X126139608Y-50935000D01*
X126186094Y-50888514D01*
X126159670Y-50862090D01*
X126256442Y-50859140D01*
X126358128Y-50522070D01*
X126323083Y-50171743D01*
X126256442Y-50010860D01*
X126066702Y-50005075D01*
X125636777Y-50435000D01*
X125652334Y-50450557D01*
X125561627Y-50541263D01*
X125547070Y-50536872D01*
X125371541Y-50554431D01*
X125353737Y-50536627D01*
X125358128Y-50522070D01*
X125340569Y-50346541D01*
X125444444Y-50242667D01*
X125460000Y-50258223D01*
X125889925Y-49828298D01*
X125884140Y-49638558D01*
X125547070Y-49536872D01*
X125196743Y-49571917D01*
X125035860Y-49638558D01*
X125032910Y-49735330D01*
X125006486Y-49708906D01*
X124960000Y-49755392D01*
X124913514Y-49708906D01*
X124887090Y-49735330D01*
X124884140Y-49638558D01*
X124547070Y-49536872D01*
X124196743Y-49571917D01*
X124035860Y-49638558D01*
X124032910Y-49735330D01*
X124006486Y-49708906D01*
X123960000Y-49755392D01*
X123913514Y-49708906D01*
X123887090Y-49735330D01*
X123884140Y-49638558D01*
X123547070Y-49536872D01*
X123196743Y-49571917D01*
X123035860Y-49638558D01*
X123030075Y-49828298D01*
X123460000Y-50258223D01*
X123475557Y-50242667D01*
X123566263Y-50333373D01*
X123561872Y-50347930D01*
X123579431Y-50523459D01*
X123561627Y-50541263D01*
X123547070Y-50536872D01*
X123371541Y-50554431D01*
X123267667Y-50450557D01*
X123283223Y-50435000D01*
X122853298Y-50005075D01*
X122663558Y-50010860D01*
X122561872Y-50347930D01*
X121172848Y-50347930D01*
X121172848Y-50233196D01*
X121130867Y-50131844D01*
X121219555Y-50043156D01*
X121377124Y-49662750D01*
X121377124Y-49251002D01*
X121219555Y-48870596D01*
X120928404Y-48579445D01*
X120547998Y-48421876D01*
X120415000Y-48421876D01*
X120415000Y-48308126D01*
X120257431Y-47927720D01*
X119966280Y-47636569D01*
X119747888Y-47546108D01*
X121393000Y-47546108D01*
X121393000Y-47957856D01*
X121550569Y-48338262D01*
X121841720Y-48629413D01*
X122222126Y-48786982D01*
X122633874Y-48786982D01*
X123014280Y-48629413D01*
X123305431Y-48338262D01*
X123463000Y-47957856D01*
X123463000Y-47546108D01*
X123305431Y-47165702D01*
X123014280Y-46874551D01*
X122633874Y-46716982D01*
X122222126Y-46716982D01*
X121841720Y-46874551D01*
X121550569Y-47165702D01*
X121393000Y-47546108D01*
X119747888Y-47546108D01*
X119585874Y-47479000D01*
X119174126Y-47479000D01*
X118793720Y-47636569D01*
X118502569Y-47927720D01*
X118345000Y-48308126D01*
X115010000Y-48308126D01*
X115010000Y-46011345D01*
X122810972Y-46011345D01*
X122810972Y-46423093D01*
X122968541Y-46803499D01*
X123259692Y-47094650D01*
X123640098Y-47252219D01*
X124051846Y-47252219D01*
X124432252Y-47094650D01*
X124723403Y-46803499D01*
X124880972Y-46423093D01*
X124880972Y-46011345D01*
X124752379Y-45700892D01*
X125031058Y-45816325D01*
X125442806Y-45816325D01*
X125823212Y-45658756D01*
X126114363Y-45367605D01*
X126135996Y-45315378D01*
X126311993Y-45315378D01*
X126445383Y-45260126D01*
X128759000Y-45260126D01*
X128759000Y-45671874D01*
X128916569Y-46052280D01*
X129092289Y-46228000D01*
X128916569Y-46403720D01*
X128759000Y-46784126D01*
X128759000Y-47195874D01*
X128916569Y-47576280D01*
X129207720Y-47867431D01*
X129588126Y-48025000D01*
X129999874Y-48025000D01*
X130380280Y-47867431D01*
X130671431Y-47576280D01*
X130829000Y-47195874D01*
X130829000Y-46784126D01*
X130671431Y-46403720D01*
X130495711Y-46228000D01*
X130671431Y-46052280D01*
X130829000Y-45671874D01*
X130829000Y-45260126D01*
X130671431Y-44879720D01*
X130380280Y-44588569D01*
X129999874Y-44431000D01*
X129588126Y-44431000D01*
X129207720Y-44588569D01*
X128916569Y-44879720D01*
X128759000Y-45260126D01*
X126445383Y-45260126D01*
X126692399Y-45157809D01*
X126983550Y-44866658D01*
X127141119Y-44486252D01*
X127141119Y-44074504D01*
X126983550Y-43694098D01*
X126704582Y-43415130D01*
X126861431Y-43258280D01*
X127019000Y-42877874D01*
X127019000Y-42466126D01*
X126861431Y-42085720D01*
X126570280Y-41794569D01*
X126189874Y-41637000D01*
X125778126Y-41637000D01*
X125397720Y-41794569D01*
X125106569Y-42085720D01*
X125050045Y-42222181D01*
X125045409Y-42210988D01*
X124754258Y-41919837D01*
X124373852Y-41762268D01*
X123962104Y-41762268D01*
X123581698Y-41919837D01*
X123290547Y-42210988D01*
X123132978Y-42591394D01*
X123132978Y-43003142D01*
X123290547Y-43383548D01*
X123581698Y-43674699D01*
X123962104Y-43832268D01*
X124373852Y-43832268D01*
X124754258Y-43674699D01*
X125045409Y-43383548D01*
X125101933Y-43247087D01*
X125106569Y-43258280D01*
X125385538Y-43537249D01*
X125228688Y-43694098D01*
X125207055Y-43746325D01*
X125031058Y-43746325D01*
X124650652Y-43903894D01*
X124359501Y-44195045D01*
X124201932Y-44575451D01*
X124201932Y-44987199D01*
X124330525Y-45297652D01*
X124051846Y-45182219D01*
X123640098Y-45182219D01*
X123259692Y-45339788D01*
X122968541Y-45630939D01*
X122810972Y-46011345D01*
X115010000Y-46011345D01*
X115010000Y-42974126D01*
X120885016Y-42974126D01*
X120885016Y-43385874D01*
X121042585Y-43766280D01*
X121333736Y-44057431D01*
X121714142Y-44215000D01*
X122125890Y-44215000D01*
X122506296Y-44057431D01*
X122797447Y-43766280D01*
X122955016Y-43385874D01*
X122955016Y-42974126D01*
X122797447Y-42593720D01*
X122506296Y-42302569D01*
X122125890Y-42145000D01*
X121714142Y-42145000D01*
X121333736Y-42302569D01*
X121042585Y-42593720D01*
X120885016Y-42974126D01*
X115010000Y-42974126D01*
X115010000Y-37943640D01*
X117130744Y-37943640D01*
X117130744Y-38355388D01*
X117288313Y-38735794D01*
X117579464Y-39026945D01*
X117959870Y-39184514D01*
X118027500Y-39184514D01*
X118027500Y-39258374D01*
X118185069Y-39638780D01*
X118476220Y-39929931D01*
X118856626Y-40087500D01*
X119268374Y-40087500D01*
X119648780Y-39929931D01*
X119939931Y-39638780D01*
X120097500Y-39258374D01*
X120097500Y-38910126D01*
X123679000Y-38910126D01*
X123679000Y-39321874D01*
X123836569Y-39702280D01*
X124127720Y-39993431D01*
X124508126Y-40151000D01*
X124919874Y-40151000D01*
X125300280Y-39993431D01*
X125591431Y-39702280D01*
X125726916Y-39375190D01*
X125935874Y-39375190D01*
X126316280Y-39217621D01*
X126607431Y-38926470D01*
X126765000Y-38546064D01*
X126765000Y-38134316D01*
X126607431Y-37753910D01*
X126316280Y-37462759D01*
X125935874Y-37305190D01*
X125524126Y-37305190D01*
X125143720Y-37462759D01*
X124852569Y-37753910D01*
X124717084Y-38081000D01*
X124508126Y-38081000D01*
X124127720Y-38238569D01*
X123836569Y-38529720D01*
X123679000Y-38910126D01*
X120097500Y-38910126D01*
X120097500Y-38846626D01*
X119939931Y-38466220D01*
X119648780Y-38175069D01*
X119268374Y-38017500D01*
X119200744Y-38017500D01*
X119200744Y-37943640D01*
X119043175Y-37563234D01*
X118752024Y-37272083D01*
X118371618Y-37114514D01*
X117959870Y-37114514D01*
X117579464Y-37272083D01*
X117288313Y-37563234D01*
X117130744Y-37943640D01*
X115010000Y-37943640D01*
X115010000Y-33068126D01*
X115932000Y-33068126D01*
X115932000Y-33479874D01*
X116089569Y-33860280D01*
X116380720Y-34151431D01*
X116761126Y-34309000D01*
X117075000Y-34309000D01*
X117075000Y-34622874D01*
X117232569Y-35003280D01*
X117523720Y-35294431D01*
X117904126Y-35452000D01*
X118315874Y-35452000D01*
X118696280Y-35294431D01*
X118872000Y-35118711D01*
X119047720Y-35294431D01*
X119428126Y-35452000D01*
X119839874Y-35452000D01*
X120220280Y-35294431D01*
X120396000Y-35118711D01*
X120571720Y-35294431D01*
X120952126Y-35452000D01*
X121363874Y-35452000D01*
X121744280Y-35294431D01*
X122035431Y-35003280D01*
X122193000Y-34622874D01*
X122193000Y-34211126D01*
X122035431Y-33830720D01*
X121744280Y-33539569D01*
X121363874Y-33382000D01*
X120952126Y-33382000D01*
X120571720Y-33539569D01*
X120396000Y-33715289D01*
X120220280Y-33539569D01*
X119839874Y-33382000D01*
X119428126Y-33382000D01*
X119047720Y-33539569D01*
X118872000Y-33715289D01*
X118696280Y-33539569D01*
X118315874Y-33382000D01*
X118002000Y-33382000D01*
X118002000Y-33068126D01*
X117844431Y-32687720D01*
X117553280Y-32396569D01*
X117334931Y-32306126D01*
X122409000Y-32306126D01*
X122409000Y-32717874D01*
X122566569Y-33098280D01*
X122857720Y-33389431D01*
X123053665Y-33470594D01*
X122820569Y-33703690D01*
X122663000Y-34084096D01*
X122663000Y-34495844D01*
X122820569Y-34876250D01*
X123111720Y-35167401D01*
X123492126Y-35324970D01*
X123903874Y-35324970D01*
X124284280Y-35167401D01*
X124575431Y-34876250D01*
X124733000Y-34495844D01*
X124733000Y-34084096D01*
X124575431Y-33703690D01*
X124284280Y-33412539D01*
X124088335Y-33331376D01*
X124321431Y-33098280D01*
X124451196Y-32785000D01*
X124792874Y-32785000D01*
X125173280Y-32627431D01*
X125464431Y-32336280D01*
X125622000Y-31955874D01*
X125622000Y-31544126D01*
X125464431Y-31163720D01*
X125173280Y-30872569D01*
X124792874Y-30715000D01*
X124381126Y-30715000D01*
X124000720Y-30872569D01*
X123709569Y-31163720D01*
X123579804Y-31477000D01*
X123238126Y-31477000D01*
X122857720Y-31634569D01*
X122566569Y-31925720D01*
X122409000Y-32306126D01*
X117334931Y-32306126D01*
X117172874Y-32239000D01*
X116761126Y-32239000D01*
X116380720Y-32396569D01*
X116089569Y-32687720D01*
X115932000Y-33068126D01*
X115010000Y-33068126D01*
X115010000Y-26837607D01*
X115093803Y-26670000D01*
X116595908Y-26670000D01*
X116711161Y-27249418D01*
X117039375Y-27740625D01*
X117057619Y-27752816D01*
X117012235Y-27761843D01*
X116802191Y-27902191D01*
X116661843Y-28112235D01*
X116612560Y-28360000D01*
X116612560Y-30060000D01*
X116661843Y-30307765D01*
X116802191Y-30517809D01*
X117012235Y-30658157D01*
X117260000Y-30707440D01*
X118960000Y-30707440D01*
X119207765Y-30658157D01*
X119417809Y-30517809D01*
X119558157Y-30307765D01*
X119578739Y-30204292D01*
X119883076Y-30481645D01*
X120293110Y-30651476D01*
X120523000Y-30530155D01*
X120523000Y-29337000D01*
X120503000Y-29337000D01*
X120503000Y-29083000D01*
X120523000Y-29083000D01*
X120523000Y-26797000D01*
X120503000Y-26797000D01*
X120503000Y-26543000D01*
X120523000Y-26543000D01*
X120523000Y-25349845D01*
X120777000Y-25349845D01*
X120777000Y-26543000D01*
X120797000Y-26543000D01*
X120797000Y-26797000D01*
X120777000Y-26797000D01*
X120777000Y-29083000D01*
X120797000Y-29083000D01*
X120797000Y-29337000D01*
X120777000Y-29337000D01*
X120777000Y-30530155D01*
X121006890Y-30651476D01*
X121416924Y-30481645D01*
X121845183Y-30091358D01*
X121906157Y-29961522D01*
X122119375Y-30280625D01*
X122610582Y-30608839D01*
X123043744Y-30695000D01*
X123336256Y-30695000D01*
X123769418Y-30608839D01*
X124260625Y-30280625D01*
X124460000Y-29982239D01*
X124659375Y-30280625D01*
X125150582Y-30608839D01*
X125583744Y-30695000D01*
X125876256Y-30695000D01*
X126309418Y-30608839D01*
X126800625Y-30280625D01*
X127000000Y-29982239D01*
X127199375Y-30280625D01*
X127235516Y-30304773D01*
X127138569Y-30401720D01*
X126981000Y-30782126D01*
X126981000Y-31193874D01*
X127138569Y-31574280D01*
X127429720Y-31865431D01*
X127810126Y-32023000D01*
X128221874Y-32023000D01*
X128602280Y-31865431D01*
X128893431Y-31574280D01*
X129051000Y-31193874D01*
X129051000Y-30782126D01*
X128951084Y-30540908D01*
X129340625Y-30280625D01*
X129540000Y-29982239D01*
X129739375Y-30280625D01*
X130128916Y-30540908D01*
X130029000Y-30782126D01*
X130029000Y-31193874D01*
X130186569Y-31574280D01*
X130477720Y-31865431D01*
X130858126Y-32023000D01*
X131269874Y-32023000D01*
X131650280Y-31865431D01*
X131941431Y-31574280D01*
X132099000Y-31193874D01*
X132099000Y-30782126D01*
X131941431Y-30401720D01*
X131844484Y-30304773D01*
X131880625Y-30280625D01*
X132208839Y-29789418D01*
X132324092Y-29210000D01*
X132208839Y-28630582D01*
X131880625Y-28139375D01*
X131582239Y-27940000D01*
X131880625Y-27740625D01*
X132208839Y-27249418D01*
X132324092Y-26670000D01*
X132208839Y-26090582D01*
X131880625Y-25599375D01*
X131389418Y-25271161D01*
X130956256Y-25185000D01*
X130663744Y-25185000D01*
X130230582Y-25271161D01*
X129739375Y-25599375D01*
X129540000Y-25897761D01*
X129340625Y-25599375D01*
X128849418Y-25271161D01*
X128416256Y-25185000D01*
X128123744Y-25185000D01*
X127690582Y-25271161D01*
X127199375Y-25599375D01*
X127000000Y-25897761D01*
X126800625Y-25599375D01*
X126309418Y-25271161D01*
X125876256Y-25185000D01*
X125583744Y-25185000D01*
X125150582Y-25271161D01*
X124659375Y-25599375D01*
X124460000Y-25897761D01*
X124260625Y-25599375D01*
X123769418Y-25271161D01*
X123336256Y-25185000D01*
X123043744Y-25185000D01*
X122610582Y-25271161D01*
X122119375Y-25599375D01*
X121906157Y-25918478D01*
X121845183Y-25788642D01*
X121416924Y-25398355D01*
X121006890Y-25228524D01*
X120777000Y-25349845D01*
X120523000Y-25349845D01*
X120293110Y-25228524D01*
X119883076Y-25398355D01*
X119454817Y-25788642D01*
X119393843Y-25918478D01*
X119180625Y-25599375D01*
X118689418Y-25271161D01*
X118256256Y-25185000D01*
X117963744Y-25185000D01*
X117530582Y-25271161D01*
X117039375Y-25599375D01*
X116711161Y-26090582D01*
X116595908Y-26670000D01*
X115093803Y-26670000D01*
X116643804Y-23570000D01*
X132276196Y-23570000D01*
X133910001Y-26837610D01*
X133910001Y-26837610D01*
G37*
X133910001Y-26837610D02*
X133910001Y-38227684D01*
X133555874Y-38081000D01*
X133144126Y-38081000D01*
X132763720Y-38238569D01*
X132472569Y-38529720D01*
X132315000Y-38910126D01*
X132315000Y-39321874D01*
X132472569Y-39702280D01*
X132763720Y-39993431D01*
X133144126Y-40151000D01*
X133555874Y-40151000D01*
X133910001Y-40004316D01*
X133910000Y-67616000D01*
X115010000Y-67616000D01*
X115010000Y-53896126D01*
X120631000Y-53896126D01*
X120631000Y-54307874D01*
X120788569Y-54688280D01*
X121079720Y-54979431D01*
X121460126Y-55137000D01*
X121871874Y-55137000D01*
X122252280Y-54979431D01*
X122543431Y-54688280D01*
X122701000Y-54307874D01*
X122701000Y-53896126D01*
X122543431Y-53515720D01*
X122252280Y-53224569D01*
X121871874Y-53067000D01*
X121460126Y-53067000D01*
X121079720Y-53224569D01*
X120788569Y-53515720D01*
X120631000Y-53896126D01*
X115010000Y-53896126D01*
X115010000Y-48308126D01*
X118345000Y-48308126D01*
X118345000Y-48719874D01*
X118502569Y-49100280D01*
X118793720Y-49391431D01*
X119174126Y-49549000D01*
X119307124Y-49549000D01*
X119307124Y-49662750D01*
X119349105Y-49764102D01*
X119260417Y-49852790D01*
X119102848Y-50233196D01*
X119102848Y-50644944D01*
X119260417Y-51025350D01*
X119551568Y-51316501D01*
X119931974Y-51474070D01*
X120343722Y-51474070D01*
X120724128Y-51316501D01*
X121015279Y-51025350D01*
X121172848Y-50644944D01*
X121172848Y-50347930D01*
X122561872Y-50347930D01*
X122596917Y-50698257D01*
X122663558Y-50859140D01*
X122760330Y-50862090D01*
X122733906Y-50888514D01*
X122780392Y-50935000D01*
X122733906Y-50981486D01*
X122760330Y-51007910D01*
X122663558Y-51010860D01*
X122561872Y-51347930D01*
X122596917Y-51698257D01*
X122663558Y-51859140D01*
X122760330Y-51862090D01*
X122733906Y-51888514D01*
X122780392Y-51935000D01*
X122733906Y-51981486D01*
X122760330Y-52007910D01*
X122663558Y-52010860D01*
X122561872Y-52347930D01*
X122596917Y-52698257D01*
X122663558Y-52859140D01*
X122853298Y-52864925D01*
X123283223Y-52435000D01*
X123267667Y-52419444D01*
X123358373Y-52328737D01*
X123372930Y-52333128D01*
X123548459Y-52315569D01*
X123566263Y-52333373D01*
X123561872Y-52347930D01*
X123579431Y-52523459D01*
X123475557Y-52627334D01*
X123460000Y-52611777D01*
X123030075Y-53041702D01*
X123035860Y-53231442D01*
X123372930Y-53333128D01*
X123723257Y-53298083D01*
X123884140Y-53231442D01*
X123887090Y-53134670D01*
X123913514Y-53161094D01*
X123960000Y-53114608D01*
X124006486Y-53161094D01*
X124032910Y-53134670D01*
X124035860Y-53231442D01*
X124372930Y-53333128D01*
X124723257Y-53298083D01*
X124884140Y-53231442D01*
X124887090Y-53134670D01*
X124913514Y-53161094D01*
X124960000Y-53114608D01*
X125006486Y-53161094D01*
X125032910Y-53134670D01*
X125035860Y-53231442D01*
X125372930Y-53333128D01*
X125723257Y-53298083D01*
X125884140Y-53231442D01*
X125889925Y-53041702D01*
X125728349Y-52880126D01*
X127235000Y-52880126D01*
X127235000Y-53291874D01*
X127392569Y-53672280D01*
X127683720Y-53963431D01*
X128064126Y-54121000D01*
X128475874Y-54121000D01*
X128856280Y-53963431D01*
X129147431Y-53672280D01*
X129305000Y-53291874D01*
X129305000Y-52880126D01*
X129147431Y-52499720D01*
X128856280Y-52208569D01*
X128475874Y-52051000D01*
X128064126Y-52051000D01*
X127683720Y-52208569D01*
X127392569Y-52499720D01*
X127235000Y-52880126D01*
X125728349Y-52880126D01*
X125460000Y-52611777D01*
X125444444Y-52627334D01*
X125353737Y-52536627D01*
X125358128Y-52522070D01*
X125340569Y-52346541D01*
X125358373Y-52328737D01*
X125372930Y-52333128D01*
X125548459Y-52315569D01*
X125652334Y-52419444D01*
X125636777Y-52435000D01*
X126066702Y-52864925D01*
X126256442Y-52859140D01*
X126358128Y-52522070D01*
X126323083Y-52171743D01*
X126256442Y-52010860D01*
X126159670Y-52007910D01*
X126186094Y-51981486D01*
X126139608Y-51935000D01*
X126186094Y-51888514D01*
X126159670Y-51862090D01*
X126256442Y-51859140D01*
X126358128Y-51522070D01*
X126323083Y-51171743D01*
X126256442Y-51010860D01*
X126159670Y-51007910D01*
X126186094Y-50981486D01*
X126139608Y-50935000D01*
X126186094Y-50888514D01*
X126159670Y-50862090D01*
X126256442Y-50859140D01*
X126358128Y-50522070D01*
X126323083Y-50171743D01*
X126256442Y-50010860D01*
X126066702Y-50005075D01*
X125636777Y-50435000D01*
X125652334Y-50450557D01*
X125561627Y-50541263D01*
X125547070Y-50536872D01*
X125371541Y-50554431D01*
X125353737Y-50536627D01*
X125358128Y-50522070D01*
X125340569Y-50346541D01*
X125444444Y-50242667D01*
X125460000Y-50258223D01*
X125889925Y-49828298D01*
X125884140Y-49638558D01*
X125547070Y-49536872D01*
X125196743Y-49571917D01*
X125035860Y-49638558D01*
X125032910Y-49735330D01*
X125006486Y-49708906D01*
X124960000Y-49755392D01*
X124913514Y-49708906D01*
X124887090Y-49735330D01*
X124884140Y-49638558D01*
X124547070Y-49536872D01*
X124196743Y-49571917D01*
X124035860Y-49638558D01*
X124032910Y-49735330D01*
X124006486Y-49708906D01*
X123960000Y-49755392D01*
X123913514Y-49708906D01*
X123887090Y-49735330D01*
X123884140Y-49638558D01*
X123547070Y-49536872D01*
X123196743Y-49571917D01*
X123035860Y-49638558D01*
X123030075Y-49828298D01*
X123460000Y-50258223D01*
X123475557Y-50242667D01*
X123566263Y-50333373D01*
X123561872Y-50347930D01*
X123579431Y-50523459D01*
X123561627Y-50541263D01*
X123547070Y-50536872D01*
X123371541Y-50554431D01*
X123267667Y-50450557D01*
X123283223Y-50435000D01*
X122853298Y-50005075D01*
X122663558Y-50010860D01*
X122561872Y-50347930D01*
X121172848Y-50347930D01*
X121172848Y-50233196D01*
X121130867Y-50131844D01*
X121219555Y-50043156D01*
X121377124Y-49662750D01*
X121377124Y-49251002D01*
X121219555Y-48870596D01*
X120928404Y-48579445D01*
X120547998Y-48421876D01*
X120415000Y-48421876D01*
X120415000Y-48308126D01*
X120257431Y-47927720D01*
X119966280Y-47636569D01*
X119747888Y-47546108D01*
X121393000Y-47546108D01*
X121393000Y-47957856D01*
X121550569Y-48338262D01*
X121841720Y-48629413D01*
X122222126Y-48786982D01*
X122633874Y-48786982D01*
X123014280Y-48629413D01*
X123305431Y-48338262D01*
X123463000Y-47957856D01*
X123463000Y-47546108D01*
X123305431Y-47165702D01*
X123014280Y-46874551D01*
X122633874Y-46716982D01*
X122222126Y-46716982D01*
X121841720Y-46874551D01*
X121550569Y-47165702D01*
X121393000Y-47546108D01*
X119747888Y-47546108D01*
X119585874Y-47479000D01*
X119174126Y-47479000D01*
X118793720Y-47636569D01*
X118502569Y-47927720D01*
X118345000Y-48308126D01*
X115010000Y-48308126D01*
X115010000Y-46011345D01*
X122810972Y-46011345D01*
X122810972Y-46423093D01*
X122968541Y-46803499D01*
X123259692Y-47094650D01*
X123640098Y-47252219D01*
X124051846Y-47252219D01*
X124432252Y-47094650D01*
X124723403Y-46803499D01*
X124880972Y-46423093D01*
X124880972Y-46011345D01*
X124752379Y-45700892D01*
X125031058Y-45816325D01*
X125442806Y-45816325D01*
X125823212Y-45658756D01*
X126114363Y-45367605D01*
X126135996Y-45315378D01*
X126311993Y-45315378D01*
X126445383Y-45260126D01*
X128759000Y-45260126D01*
X128759000Y-45671874D01*
X128916569Y-46052280D01*
X129092289Y-46228000D01*
X128916569Y-46403720D01*
X128759000Y-46784126D01*
X128759000Y-47195874D01*
X128916569Y-47576280D01*
X129207720Y-47867431D01*
X129588126Y-48025000D01*
X129999874Y-48025000D01*
X130380280Y-47867431D01*
X130671431Y-47576280D01*
X130829000Y-47195874D01*
X130829000Y-46784126D01*
X130671431Y-46403720D01*
X130495711Y-46228000D01*
X130671431Y-46052280D01*
X130829000Y-45671874D01*
X130829000Y-45260126D01*
X130671431Y-44879720D01*
X130380280Y-44588569D01*
X129999874Y-44431000D01*
X129588126Y-44431000D01*
X129207720Y-44588569D01*
X128916569Y-44879720D01*
X128759000Y-45260126D01*
X126445383Y-45260126D01*
X126692399Y-45157809D01*
X126983550Y-44866658D01*
X127141119Y-44486252D01*
X127141119Y-44074504D01*
X126983550Y-43694098D01*
X126704582Y-43415130D01*
X126861431Y-43258280D01*
X127019000Y-42877874D01*
X127019000Y-42466126D01*
X126861431Y-42085720D01*
X126570280Y-41794569D01*
X126189874Y-41637000D01*
X125778126Y-41637000D01*
X125397720Y-41794569D01*
X125106569Y-42085720D01*
X125050045Y-42222181D01*
X125045409Y-42210988D01*
X124754258Y-41919837D01*
X124373852Y-41762268D01*
X123962104Y-41762268D01*
X123581698Y-41919837D01*
X123290547Y-42210988D01*
X123132978Y-42591394D01*
X123132978Y-43003142D01*
X123290547Y-43383548D01*
X123581698Y-43674699D01*
X123962104Y-43832268D01*
X124373852Y-43832268D01*
X124754258Y-43674699D01*
X125045409Y-43383548D01*
X125101933Y-43247087D01*
X125106569Y-43258280D01*
X125385538Y-43537249D01*
X125228688Y-43694098D01*
X125207055Y-43746325D01*
X125031058Y-43746325D01*
X124650652Y-43903894D01*
X124359501Y-44195045D01*
X124201932Y-44575451D01*
X124201932Y-44987199D01*
X124330525Y-45297652D01*
X124051846Y-45182219D01*
X123640098Y-45182219D01*
X123259692Y-45339788D01*
X122968541Y-45630939D01*
X122810972Y-46011345D01*
X115010000Y-46011345D01*
X115010000Y-42974126D01*
X120885016Y-42974126D01*
X120885016Y-43385874D01*
X121042585Y-43766280D01*
X121333736Y-44057431D01*
X121714142Y-44215000D01*
X122125890Y-44215000D01*
X122506296Y-44057431D01*
X122797447Y-43766280D01*
X122955016Y-43385874D01*
X122955016Y-42974126D01*
X122797447Y-42593720D01*
X122506296Y-42302569D01*
X122125890Y-42145000D01*
X121714142Y-42145000D01*
X121333736Y-42302569D01*
X121042585Y-42593720D01*
X120885016Y-42974126D01*
X115010000Y-42974126D01*
X115010000Y-37943640D01*
X117130744Y-37943640D01*
X117130744Y-38355388D01*
X117288313Y-38735794D01*
X117579464Y-39026945D01*
X117959870Y-39184514D01*
X118027500Y-39184514D01*
X118027500Y-39258374D01*
X118185069Y-39638780D01*
X118476220Y-39929931D01*
X118856626Y-40087500D01*
X119268374Y-40087500D01*
X119648780Y-39929931D01*
X119939931Y-39638780D01*
X120097500Y-39258374D01*
X120097500Y-38910126D01*
X123679000Y-38910126D01*
X123679000Y-39321874D01*
X123836569Y-39702280D01*
X124127720Y-39993431D01*
X124508126Y-40151000D01*
X124919874Y-40151000D01*
X125300280Y-39993431D01*
X125591431Y-39702280D01*
X125726916Y-39375190D01*
X125935874Y-39375190D01*
X126316280Y-39217621D01*
X126607431Y-38926470D01*
X126765000Y-38546064D01*
X126765000Y-38134316D01*
X126607431Y-37753910D01*
X126316280Y-37462759D01*
X125935874Y-37305190D01*
X125524126Y-37305190D01*
X125143720Y-37462759D01*
X124852569Y-37753910D01*
X124717084Y-38081000D01*
X124508126Y-38081000D01*
X124127720Y-38238569D01*
X123836569Y-38529720D01*
X123679000Y-38910126D01*
X120097500Y-38910126D01*
X120097500Y-38846626D01*
X119939931Y-38466220D01*
X119648780Y-38175069D01*
X119268374Y-38017500D01*
X119200744Y-38017500D01*
X119200744Y-37943640D01*
X119043175Y-37563234D01*
X118752024Y-37272083D01*
X118371618Y-37114514D01*
X117959870Y-37114514D01*
X117579464Y-37272083D01*
X117288313Y-37563234D01*
X117130744Y-37943640D01*
X115010000Y-37943640D01*
X115010000Y-33068126D01*
X115932000Y-33068126D01*
X115932000Y-33479874D01*
X116089569Y-33860280D01*
X116380720Y-34151431D01*
X116761126Y-34309000D01*
X117075000Y-34309000D01*
X117075000Y-34622874D01*
X117232569Y-35003280D01*
X117523720Y-35294431D01*
X117904126Y-35452000D01*
X118315874Y-35452000D01*
X118696280Y-35294431D01*
X118872000Y-35118711D01*
X119047720Y-35294431D01*
X119428126Y-35452000D01*
X119839874Y-35452000D01*
X120220280Y-35294431D01*
X120396000Y-35118711D01*
X120571720Y-35294431D01*
X120952126Y-35452000D01*
X121363874Y-35452000D01*
X121744280Y-35294431D01*
X122035431Y-35003280D01*
X122193000Y-34622874D01*
X122193000Y-34211126D01*
X122035431Y-33830720D01*
X121744280Y-33539569D01*
X121363874Y-33382000D01*
X120952126Y-33382000D01*
X120571720Y-33539569D01*
X120396000Y-33715289D01*
X120220280Y-33539569D01*
X119839874Y-33382000D01*
X119428126Y-33382000D01*
X119047720Y-33539569D01*
X118872000Y-33715289D01*
X118696280Y-33539569D01*
X118315874Y-33382000D01*
X118002000Y-33382000D01*
X118002000Y-33068126D01*
X117844431Y-32687720D01*
X117553280Y-32396569D01*
X117334931Y-32306126D01*
X122409000Y-32306126D01*
X122409000Y-32717874D01*
X122566569Y-33098280D01*
X122857720Y-33389431D01*
X123053665Y-33470594D01*
X122820569Y-33703690D01*
X122663000Y-34084096D01*
X122663000Y-34495844D01*
X122820569Y-34876250D01*
X123111720Y-35167401D01*
X123492126Y-35324970D01*
X123903874Y-35324970D01*
X124284280Y-35167401D01*
X124575431Y-34876250D01*
X124733000Y-34495844D01*
X124733000Y-34084096D01*
X124575431Y-33703690D01*
X124284280Y-33412539D01*
X124088335Y-33331376D01*
X124321431Y-33098280D01*
X124451196Y-32785000D01*
X124792874Y-32785000D01*
X125173280Y-32627431D01*
X125464431Y-32336280D01*
X125622000Y-31955874D01*
X125622000Y-31544126D01*
X125464431Y-31163720D01*
X125173280Y-30872569D01*
X124792874Y-30715000D01*
X124381126Y-30715000D01*
X124000720Y-30872569D01*
X123709569Y-31163720D01*
X123579804Y-31477000D01*
X123238126Y-31477000D01*
X122857720Y-31634569D01*
X122566569Y-31925720D01*
X122409000Y-32306126D01*
X117334931Y-32306126D01*
X117172874Y-32239000D01*
X116761126Y-32239000D01*
X116380720Y-32396569D01*
X116089569Y-32687720D01*
X115932000Y-33068126D01*
X115010000Y-33068126D01*
X115010000Y-26837607D01*
X115093803Y-26670000D01*
X116595908Y-26670000D01*
X116711161Y-27249418D01*
X117039375Y-27740625D01*
X117057619Y-27752816D01*
X117012235Y-27761843D01*
X116802191Y-27902191D01*
X116661843Y-28112235D01*
X116612560Y-28360000D01*
X116612560Y-30060000D01*
X116661843Y-30307765D01*
X116802191Y-30517809D01*
X117012235Y-30658157D01*
X117260000Y-30707440D01*
X118960000Y-30707440D01*
X119207765Y-30658157D01*
X119417809Y-30517809D01*
X119558157Y-30307765D01*
X119578739Y-30204292D01*
X119883076Y-30481645D01*
X120293110Y-30651476D01*
X120523000Y-30530155D01*
X120523000Y-29337000D01*
X120503000Y-29337000D01*
X120503000Y-29083000D01*
X120523000Y-29083000D01*
X120523000Y-26797000D01*
X120503000Y-26797000D01*
X120503000Y-26543000D01*
X120523000Y-26543000D01*
X120523000Y-25349845D01*
X120777000Y-25349845D01*
X120777000Y-26543000D01*
X120797000Y-26543000D01*
X120797000Y-26797000D01*
X120777000Y-26797000D01*
X120777000Y-29083000D01*
X120797000Y-29083000D01*
X120797000Y-29337000D01*
X120777000Y-29337000D01*
X120777000Y-30530155D01*
X121006890Y-30651476D01*
X121416924Y-30481645D01*
X121845183Y-30091358D01*
X121906157Y-29961522D01*
X122119375Y-30280625D01*
X122610582Y-30608839D01*
X123043744Y-30695000D01*
X123336256Y-30695000D01*
X123769418Y-30608839D01*
X124260625Y-30280625D01*
X124460000Y-29982239D01*
X124659375Y-30280625D01*
X125150582Y-30608839D01*
X125583744Y-30695000D01*
X125876256Y-30695000D01*
X126309418Y-30608839D01*
X126800625Y-30280625D01*
X127000000Y-29982239D01*
X127199375Y-30280625D01*
X127235516Y-30304773D01*
X127138569Y-30401720D01*
X126981000Y-30782126D01*
X126981000Y-31193874D01*
X127138569Y-31574280D01*
X127429720Y-31865431D01*
X127810126Y-32023000D01*
X128221874Y-32023000D01*
X128602280Y-31865431D01*
X128893431Y-31574280D01*
X129051000Y-31193874D01*
X129051000Y-30782126D01*
X128951084Y-30540908D01*
X129340625Y-30280625D01*
X129540000Y-29982239D01*
X129739375Y-30280625D01*
X130128916Y-30540908D01*
X130029000Y-30782126D01*
X130029000Y-31193874D01*
X130186569Y-31574280D01*
X130477720Y-31865431D01*
X130858126Y-32023000D01*
X131269874Y-32023000D01*
X131650280Y-31865431D01*
X131941431Y-31574280D01*
X132099000Y-31193874D01*
X132099000Y-30782126D01*
X131941431Y-30401720D01*
X131844484Y-30304773D01*
X131880625Y-30280625D01*
X132208839Y-29789418D01*
X132324092Y-29210000D01*
X132208839Y-28630582D01*
X131880625Y-28139375D01*
X131582239Y-27940000D01*
X131880625Y-27740625D01*
X132208839Y-27249418D01*
X132324092Y-26670000D01*
X132208839Y-26090582D01*
X131880625Y-25599375D01*
X131389418Y-25271161D01*
X130956256Y-25185000D01*
X130663744Y-25185000D01*
X130230582Y-25271161D01*
X129739375Y-25599375D01*
X129540000Y-25897761D01*
X129340625Y-25599375D01*
X128849418Y-25271161D01*
X128416256Y-25185000D01*
X128123744Y-25185000D01*
X127690582Y-25271161D01*
X127199375Y-25599375D01*
X127000000Y-25897761D01*
X126800625Y-25599375D01*
X126309418Y-25271161D01*
X125876256Y-25185000D01*
X125583744Y-25185000D01*
X125150582Y-25271161D01*
X124659375Y-25599375D01*
X124460000Y-25897761D01*
X124260625Y-25599375D01*
X123769418Y-25271161D01*
X123336256Y-25185000D01*
X123043744Y-25185000D01*
X122610582Y-25271161D01*
X122119375Y-25599375D01*
X121906157Y-25918478D01*
X121845183Y-25788642D01*
X121416924Y-25398355D01*
X121006890Y-25228524D01*
X120777000Y-25349845D01*
X120523000Y-25349845D01*
X120293110Y-25228524D01*
X119883076Y-25398355D01*
X119454817Y-25788642D01*
X119393843Y-25918478D01*
X119180625Y-25599375D01*
X118689418Y-25271161D01*
X118256256Y-25185000D01*
X117963744Y-25185000D01*
X117530582Y-25271161D01*
X117039375Y-25599375D01*
X116711161Y-26090582D01*
X116595908Y-26670000D01*
X115093803Y-26670000D01*
X116643804Y-23570000D01*
X132276196Y-23570000D01*
X133910001Y-26837610D01*
G36*
X124566263Y-52333373D02*
X124561872Y-52347930D01*
X124579431Y-52523459D01*
X124475557Y-52627334D01*
X124460000Y-52611777D01*
X124444444Y-52627334D01*
X124353737Y-52536627D01*
X124358128Y-52522070D01*
X124340569Y-52346541D01*
X124358373Y-52328737D01*
X124372930Y-52333128D01*
X124548459Y-52315569D01*
X124566263Y-52333373D01*
X124566263Y-52333373D01*
G37*
X124566263Y-52333373D02*
X124561872Y-52347930D01*
X124579431Y-52523459D01*
X124475557Y-52627334D01*
X124460000Y-52611777D01*
X124444444Y-52627334D01*
X124353737Y-52536627D01*
X124358128Y-52522070D01*
X124340569Y-52346541D01*
X124358373Y-52328737D01*
X124372930Y-52333128D01*
X124548459Y-52315569D01*
X124566263Y-52333373D01*
G36*
X124566263Y-51333373D02*
X124561872Y-51347930D01*
X124579431Y-51523459D01*
X124561627Y-51541263D01*
X124547070Y-51536872D01*
X124371541Y-51554431D01*
X124353737Y-51536627D01*
X124358128Y-51522070D01*
X124340569Y-51346541D01*
X124358373Y-51328737D01*
X124372930Y-51333128D01*
X124548459Y-51315569D01*
X124566263Y-51333373D01*
X124566263Y-51333373D01*
G37*
X124566263Y-51333373D02*
X124561872Y-51347930D01*
X124579431Y-51523459D01*
X124561627Y-51541263D01*
X124547070Y-51536872D01*
X124371541Y-51554431D01*
X124353737Y-51536627D01*
X124358128Y-51522070D01*
X124340569Y-51346541D01*
X124358373Y-51328737D01*
X124372930Y-51333128D01*
X124548459Y-51315569D01*
X124566263Y-51333373D01*
G36*
X123566263Y-51333373D02*
X123561872Y-51347930D01*
X123579431Y-51523459D01*
X123561627Y-51541263D01*
X123547070Y-51536872D01*
X123371541Y-51554431D01*
X123267667Y-51450557D01*
X123283223Y-51435000D01*
X123267667Y-51419444D01*
X123358373Y-51328737D01*
X123372930Y-51333128D01*
X123548459Y-51315569D01*
X123566263Y-51333373D01*
X123566263Y-51333373D01*
G37*
X123566263Y-51333373D02*
X123561872Y-51347930D01*
X123579431Y-51523459D01*
X123561627Y-51541263D01*
X123547070Y-51536872D01*
X123371541Y-51554431D01*
X123267667Y-51450557D01*
X123283223Y-51435000D01*
X123267667Y-51419444D01*
X123358373Y-51328737D01*
X123372930Y-51333128D01*
X123548459Y-51315569D01*
X123566263Y-51333373D01*
G36*
X125652334Y-51419444D02*
X125636777Y-51435000D01*
X125652334Y-51450557D01*
X125561627Y-51541263D01*
X125547070Y-51536872D01*
X125371541Y-51554431D01*
X125353737Y-51536627D01*
X125358128Y-51522070D01*
X125340569Y-51346541D01*
X125358373Y-51328737D01*
X125372930Y-51333128D01*
X125548459Y-51315569D01*
X125652334Y-51419444D01*
X125652334Y-51419444D01*
G37*
X125652334Y-51419444D02*
X125636777Y-51435000D01*
X125652334Y-51450557D01*
X125561627Y-51541263D01*
X125547070Y-51536872D01*
X125371541Y-51554431D01*
X125353737Y-51536627D01*
X125358128Y-51522070D01*
X125340569Y-51346541D01*
X125358373Y-51328737D01*
X125372930Y-51333128D01*
X125548459Y-51315569D01*
X125652334Y-51419444D01*
G36*
X124566263Y-50333373D02*
X124561872Y-50347930D01*
X124579431Y-50523459D01*
X124561627Y-50541263D01*
X124547070Y-50536872D01*
X124371541Y-50554431D01*
X124353737Y-50536627D01*
X124358128Y-50522070D01*
X124340569Y-50346541D01*
X124444444Y-50242667D01*
X124460000Y-50258223D01*
X124475557Y-50242667D01*
X124566263Y-50333373D01*
X124566263Y-50333373D01*
G37*
X124566263Y-50333373D02*
X124561872Y-50347930D01*
X124579431Y-50523459D01*
X124561627Y-50541263D01*
X124547070Y-50536872D01*
X124371541Y-50554431D01*
X124353737Y-50536627D01*
X124358128Y-50522070D01*
X124340569Y-50346541D01*
X124444444Y-50242667D01*
X124460000Y-50258223D01*
X124475557Y-50242667D01*
X124566263Y-50333373D01*
G04 #@! TD*
M02*
