G04 #@! TF.GenerationSoftware,KiCad,Pcbnew,5.0.1*
G04 #@! TF.CreationDate,2019-01-06T19:01:27+01:00*
G04 #@! TF.ProjectId,SX1257_pmod,5358313235375F706D6F642E6B696361,rev?*
G04 #@! TF.SameCoordinates,Original*
G04 #@! TF.FileFunction,Copper,L4,Bot,Signal*
G04 #@! TF.FilePolarity,Positive*
%FSLAX46Y46*%
G04 Gerber Fmt 4.6, Leading zero omitted, Abs format (unit mm)*
G04 Created by KiCad (PCBNEW 5.0.1) date Sun 06 Jan 2019 07:01:27 PM CET*
%MOMM*%
%LPD*%
G01*
G04 APERTURE LIST*
G04 #@! TA.AperFunction,SMDPad,CuDef*
%ADD10R,1.524000X4.800000*%
G04 #@! TD*
G04 #@! TA.AperFunction,ComponentPad*
%ADD11R,1.700000X1.700000*%
G04 #@! TD*
G04 #@! TA.AperFunction,ComponentPad*
%ADD12O,1.700000X1.700000*%
G04 #@! TD*
G04 #@! TA.AperFunction,ViaPad*
%ADD13C,0.500000*%
G04 #@! TD*
G04 #@! TA.AperFunction,Conductor*
%ADD14C,0.100000*%
G04 #@! TD*
G04 #@! TA.AperFunction,Conductor*
%ADD15C,2.500000*%
G04 #@! TD*
G04 #@! TA.AperFunction,ViaPad*
%ADD16C,0.800000*%
G04 #@! TD*
G04 #@! TA.AperFunction,Conductor*
%ADD17C,0.342900*%
G04 #@! TD*
G04 #@! TA.AperFunction,Conductor*
%ADD18C,0.203200*%
G04 #@! TD*
G04 #@! TA.AperFunction,Conductor*
%ADD19C,0.202000*%
G04 #@! TD*
G04 APERTURE END LIST*
D10*
G04 #@! TO.P,J3,2*
G04 #@! TO.N,GND*
X133096000Y-65613000D03*
X128016000Y-65613000D03*
G04 #@! TD*
G04 #@! TO.P,J2,2*
G04 #@! TO.N,GND*
X115824000Y-65613000D03*
X120904000Y-65613000D03*
G04 #@! TD*
D11*
G04 #@! TO.P,J1,1*
G04 #@! TO.N,/PMOD_3V3*
X118110000Y-29210000D03*
D12*
G04 #@! TO.P,J1,2*
X118110000Y-26670000D03*
G04 #@! TO.P,J1,3*
G04 #@! TO.N,GND*
X120650000Y-29210000D03*
G04 #@! TO.P,J1,4*
X120650000Y-26670000D03*
G04 #@! TO.P,J1,5*
G04 #@! TO.N,/CLK_OUT*
X123190000Y-29210000D03*
G04 #@! TO.P,J1,6*
G04 #@! TO.N,/PMOD_8*
X123190000Y-26670000D03*
G04 #@! TO.P,J1,7*
G04 #@! TO.N,/CLK_IN*
X125730000Y-29210000D03*
G04 #@! TO.P,J1,8*
G04 #@! TO.N,/PMOD_7*
X125730000Y-26670000D03*
G04 #@! TO.P,J1,9*
G04 #@! TO.N,/I2C_SDA*
X128270000Y-29210000D03*
G04 #@! TO.P,J1,10*
G04 #@! TO.N,/PMOD_6*
X128270000Y-26670000D03*
G04 #@! TO.P,J1,11*
G04 #@! TO.N,/I2C_CLK*
X130810000Y-29210000D03*
G04 #@! TO.P,J1,12*
G04 #@! TO.N,/PMOD_5*
X130810000Y-26670000D03*
G04 #@! TD*
D13*
G04 #@! TO.N,GND*
G04 #@! TO.C,U1*
X125460000Y-52435000D03*
X124460000Y-52435000D03*
X123460000Y-52435000D03*
X125460000Y-51435000D03*
X124460000Y-51435000D03*
X123460000Y-51435000D03*
X125460000Y-50435000D03*
X124460000Y-50435000D03*
X123460000Y-50435000D03*
D14*
G36*
X125484504Y-50186204D02*
X125508773Y-50189804D01*
X125532571Y-50195765D01*
X125555671Y-50204030D01*
X125577849Y-50214520D01*
X125598893Y-50227133D01*
X125618598Y-50241747D01*
X125636777Y-50258223D01*
X125653253Y-50276402D01*
X125667867Y-50296107D01*
X125680480Y-50317151D01*
X125690970Y-50339329D01*
X125699235Y-50362429D01*
X125705196Y-50386227D01*
X125708796Y-50410496D01*
X125710000Y-50435000D01*
X125710000Y-52435000D01*
X125708796Y-52459504D01*
X125705196Y-52483773D01*
X125699235Y-52507571D01*
X125690970Y-52530671D01*
X125680480Y-52552849D01*
X125667867Y-52573893D01*
X125653253Y-52593598D01*
X125636777Y-52611777D01*
X125618598Y-52628253D01*
X125598893Y-52642867D01*
X125577849Y-52655480D01*
X125555671Y-52665970D01*
X125532571Y-52674235D01*
X125508773Y-52680196D01*
X125484504Y-52683796D01*
X125460000Y-52685000D01*
X123460000Y-52685000D01*
X123435496Y-52683796D01*
X123411227Y-52680196D01*
X123387429Y-52674235D01*
X123364329Y-52665970D01*
X123342151Y-52655480D01*
X123321107Y-52642867D01*
X123301402Y-52628253D01*
X123283223Y-52611777D01*
X123266747Y-52593598D01*
X123252133Y-52573893D01*
X123239520Y-52552849D01*
X123229030Y-52530671D01*
X123220765Y-52507571D01*
X123214804Y-52483773D01*
X123211204Y-52459504D01*
X123210000Y-52435000D01*
X123210000Y-50435000D01*
X123211204Y-50410496D01*
X123214804Y-50386227D01*
X123220765Y-50362429D01*
X123229030Y-50339329D01*
X123239520Y-50317151D01*
X123252133Y-50296107D01*
X123266747Y-50276402D01*
X123283223Y-50258223D01*
X123301402Y-50241747D01*
X123321107Y-50227133D01*
X123342151Y-50214520D01*
X123364329Y-50204030D01*
X123387429Y-50195765D01*
X123411227Y-50189804D01*
X123435496Y-50186204D01*
X123460000Y-50185000D01*
X125460000Y-50185000D01*
X125484504Y-50186204D01*
X125484504Y-50186204D01*
G37*
D15*
X124460000Y-51435000D03*
G04 #@! TD*
D16*
G04 #@! TO.N,GND*
X119761000Y-41021000D03*
X130344547Y-39749810D03*
X115697000Y-47371000D03*
X115697000Y-42164000D03*
X133223000Y-28067000D03*
X133223000Y-29337000D03*
X133223000Y-30607000D03*
X133223000Y-26797000D03*
X115570000Y-27051000D03*
X115570000Y-29591000D03*
X115570000Y-28321000D03*
X115570000Y-30861000D03*
X133477000Y-50292000D03*
X130683000Y-55626000D03*
X123444000Y-58293000D03*
X132207000Y-57277000D03*
X115697000Y-57277000D03*
X133159500Y-67437000D03*
X133159500Y-66167000D03*
X133159500Y-63627000D03*
X133159500Y-64897000D03*
X128079500Y-67437000D03*
X128079500Y-66167000D03*
X128079500Y-64897000D03*
X128079500Y-63627000D03*
X115824000Y-66167000D03*
X115824000Y-63627000D03*
X115824000Y-67437000D03*
X115824000Y-64897000D03*
X119634000Y-46736000D03*
X119126000Y-55372000D03*
X119634000Y-45212000D03*
X133096000Y-48514000D03*
X133096000Y-46990000D03*
X133096000Y-45466000D03*
X124587000Y-33274000D03*
X128016000Y-34163010D03*
X131064000Y-34163000D03*
X120904000Y-66167000D03*
X120904000Y-63627000D03*
X120904000Y-67437000D03*
X120904000Y-64897000D03*
G04 #@! TO.N,/CLK_OUT*
X123698000Y-34289970D03*
X125984000Y-42672000D03*
G04 #@! TO.N,/CLK_IN*
X123444000Y-32512000D03*
X124167978Y-42797268D03*
G04 #@! TO.N,/PMOD_6*
X126106119Y-44280378D03*
G04 #@! TO.N,/PMOD_5*
X125236932Y-44781325D03*
G04 #@! TO.N,/PMOD_7*
X123845972Y-46217219D03*
G04 #@! TO.N,/PMOD_8*
X121920016Y-43180000D03*
G04 #@! TO.N,+3V3*
X133350000Y-39116000D03*
X116967000Y-33274000D03*
X118110000Y-34417000D03*
X119634000Y-34417000D03*
X121158000Y-34417000D03*
X128270000Y-53086000D03*
X121666000Y-54102000D03*
X122428000Y-47751982D03*
X129794000Y-45466000D03*
X129794000Y-46990000D03*
X124587000Y-31750000D03*
X131064000Y-30988000D03*
X128016000Y-30988000D03*
X119062500Y-39052500D03*
G04 #@! TO.N,/SPI_MOSI*
X120137848Y-50439070D03*
X125730000Y-38340190D03*
G04 #@! TO.N,/SPI_MISO*
X120342124Y-49456876D03*
X124714000Y-39116000D03*
G04 #@! TO.N,/SPI_SCK*
X119380000Y-48514000D03*
X118165744Y-38149514D03*
G04 #@! TD*
D17*
G04 #@! TO.N,GND*
X132986500Y-65994000D02*
X133159500Y-66167000D01*
X115633500Y-66167000D02*
X116095500Y-66167000D01*
X120713500Y-66167000D02*
X121175500Y-66167000D01*
D18*
G04 #@! TO.N,/CLK_OUT*
X123698000Y-34289970D02*
X126942807Y-37534777D01*
X126942807Y-37534777D02*
X126942807Y-38733305D01*
X126942807Y-38733305D02*
X126637977Y-39038135D01*
X126383999Y-42272001D02*
X125984000Y-42672000D01*
X126637977Y-42018023D02*
X126383999Y-42272001D01*
X126637977Y-39038135D02*
X126637977Y-42018023D01*
G04 #@! TO.N,/CLK_IN*
X123767979Y-35375979D02*
X123767979Y-38764915D01*
X122993198Y-32962802D02*
X122993198Y-34628306D01*
X123767979Y-42397269D02*
X124167978Y-42797268D01*
X123444000Y-32512000D02*
X122993198Y-32962802D01*
X123767979Y-38764915D02*
X123755199Y-38777695D01*
X123670892Y-35306000D02*
X123698000Y-35306000D01*
X122993198Y-34628306D02*
X123670892Y-35306000D01*
X123755199Y-42384489D02*
X123767979Y-42397269D01*
X123755199Y-38777695D02*
X123755199Y-42384489D01*
X123698000Y-35306000D02*
X123767979Y-35375979D01*
D19*
G04 #@! TO.N,/PMOD_6*
X128270000Y-26670000D02*
X129540000Y-27940000D01*
X129540000Y-27940000D02*
X129540000Y-40846497D01*
X129540000Y-40846497D02*
X126506118Y-43880379D01*
X126506118Y-43880379D02*
X126106119Y-44280378D01*
D18*
G04 #@! TO.N,/PMOD_5*
X125636931Y-45181324D02*
X125236932Y-44781325D01*
X132080000Y-39370000D02*
X126268676Y-45181324D01*
X130810000Y-26670000D02*
X132080000Y-27940000D01*
X126268676Y-45181324D02*
X125636931Y-45181324D01*
X132080000Y-27940000D02*
X132080000Y-39370000D01*
D19*
G04 #@! TO.N,/PMOD_7*
X125617816Y-30988000D02*
X123925782Y-30988000D01*
X123298000Y-45669247D02*
X123445973Y-45817220D01*
X122587387Y-32326395D02*
X122587387Y-34796398D01*
X123445973Y-45817220D02*
X123845972Y-46217219D01*
X126884201Y-29721615D02*
X125617816Y-30988000D01*
X125730000Y-26670000D02*
X126884201Y-27824201D01*
X123298000Y-35507011D02*
X123298000Y-45669247D01*
X123925782Y-30988000D02*
X122587387Y-32326395D01*
X126884201Y-27824201D02*
X126884201Y-29721615D01*
X122587387Y-34796398D02*
X123298000Y-35507011D01*
D18*
G04 #@! TO.N,/PMOD_8*
X121920016Y-27939984D02*
X121920016Y-42614315D01*
X121920016Y-42614315D02*
X121920016Y-43180000D01*
X123190000Y-26670000D02*
X121920016Y-27939984D01*
G04 #@! TO.N,/SPI_MOSI*
X124968000Y-46666686D02*
X124968000Y-45555499D01*
X124532131Y-45119630D02*
X124532131Y-44443020D01*
X124968000Y-45555499D02*
X124532131Y-45119630D01*
X125279189Y-43695962D02*
X125279189Y-42333705D01*
X125279189Y-42333705D02*
X125730000Y-41882894D01*
X125730000Y-41882894D02*
X125730000Y-38905875D01*
X125730000Y-38905875D02*
X125730000Y-38340190D01*
X120137848Y-50439070D02*
X121195615Y-50439070D01*
X121195615Y-50439070D02*
X124968000Y-46666686D01*
X124532131Y-44443020D02*
X125279189Y-43695962D01*
G04 #@! TO.N,/SPI_MISO*
X124872778Y-39274778D02*
X124714000Y-39116000D01*
X124125720Y-45287970D02*
X124125720Y-44274680D01*
X120342124Y-48794754D02*
X122089695Y-47047181D01*
X120342124Y-49456876D02*
X120342124Y-48794754D01*
X122089695Y-47047181D02*
X124012753Y-47047181D01*
X124012753Y-47047181D02*
X124561589Y-46498346D01*
X124125720Y-44274680D02*
X124872778Y-43527622D01*
X124561589Y-46498346D02*
X124561589Y-45723839D01*
X124872778Y-43527622D02*
X124872778Y-39274778D01*
X124561589Y-45723839D02*
X124125720Y-45287970D01*
G04 #@! TO.N,/SPI_SCK*
X118165744Y-38715199D02*
X118165744Y-38149514D01*
X119380000Y-48514000D02*
X118165744Y-47299744D01*
X118165744Y-47299744D02*
X118165744Y-38715199D01*
G04 #@! TD*
M02*
