G04 #@! TF.GenerationSoftware,KiCad,Pcbnew,5.0.1*
G04 #@! TF.CreationDate,2019-01-06T19:01:27+01:00*
G04 #@! TF.ProjectId,SX1257_pmod,5358313235375F706D6F642E6B696361,rev?*
G04 #@! TF.SameCoordinates,Original*
G04 #@! TF.FileFunction,Copper,L3,Inr,Signal*
G04 #@! TF.FilePolarity,Positive*
%FSLAX46Y46*%
G04 Gerber Fmt 4.6, Leading zero omitted, Abs format (unit mm)*
G04 Created by KiCad (PCBNEW 5.0.1) date Sun 06 Jan 2019 07:01:27 PM CET*
%MOMM*%
%LPD*%
G01*
G04 APERTURE LIST*
G04 #@! TA.AperFunction,ViaPad*
%ADD10R,1.700000X1.700000*%
G04 #@! TD*
G04 #@! TA.AperFunction,ViaPad*
%ADD11O,1.700000X1.700000*%
G04 #@! TD*
G04 #@! TA.AperFunction,ViaPad*
%ADD12C,0.500000*%
G04 #@! TD*
G04 #@! TA.AperFunction,ViaPad*
%ADD13C,0.800000*%
G04 #@! TD*
G04 #@! TA.AperFunction,Conductor*
%ADD14C,0.254000*%
G04 #@! TD*
G04 APERTURE END LIST*
D10*
G04 #@! TO.N,/PMOD_3V3*
G04 #@! TO.C,J1*
X118110000Y-29210000D03*
D11*
X118110000Y-26670000D03*
G04 #@! TO.N,GND*
X120650000Y-29210000D03*
X120650000Y-26670000D03*
G04 #@! TO.N,/CLK_OUT*
X123190000Y-29210000D03*
G04 #@! TO.N,/PMOD_8*
X123190000Y-26670000D03*
G04 #@! TO.N,/CLK_IN*
X125730000Y-29210000D03*
G04 #@! TO.N,/PMOD_7*
X125730000Y-26670000D03*
G04 #@! TO.N,/I2C_SDA*
X128270000Y-29210000D03*
G04 #@! TO.N,/PMOD_6*
X128270000Y-26670000D03*
G04 #@! TO.N,/I2C_CLK*
X130810000Y-29210000D03*
G04 #@! TO.N,/PMOD_5*
X130810000Y-26670000D03*
G04 #@! TD*
D12*
G04 #@! TO.N,GND*
G04 #@! TO.C,U1*
X125460000Y-52435000D03*
X124460000Y-52435000D03*
X123460000Y-52435000D03*
X125460000Y-51435000D03*
X124460000Y-51435000D03*
X123460000Y-51435000D03*
X125460000Y-50435000D03*
X124460000Y-50435000D03*
X123460000Y-50435000D03*
G04 #@! TD*
D13*
G04 #@! TO.N,GND*
X119761000Y-41021000D03*
X130344547Y-39749810D03*
X115697000Y-47371000D03*
X115697000Y-42164000D03*
X133223000Y-28067000D03*
X133223000Y-29337000D03*
X133223000Y-30607000D03*
X133223000Y-26797000D03*
X115570000Y-27051000D03*
X115570000Y-29591000D03*
X115570000Y-28321000D03*
X115570000Y-30861000D03*
X133477000Y-50292000D03*
X130683000Y-55626000D03*
X123444000Y-58293000D03*
X132207000Y-57277000D03*
X115697000Y-57277000D03*
X133159500Y-67437000D03*
X133159500Y-66167000D03*
X133159500Y-63627000D03*
X133159500Y-64897000D03*
X128079500Y-67437000D03*
X128079500Y-66167000D03*
X128079500Y-64897000D03*
X128079500Y-63627000D03*
X115824000Y-66167000D03*
X115824000Y-63627000D03*
X115824000Y-67437000D03*
X115824000Y-64897000D03*
X119634000Y-46736000D03*
X119126000Y-55372000D03*
X119634000Y-45212000D03*
X133096000Y-48514000D03*
X133096000Y-46990000D03*
X133096000Y-45466000D03*
X124587000Y-33274000D03*
X128016000Y-34163010D03*
X131064000Y-34163000D03*
X120904000Y-66167000D03*
X120904000Y-63627000D03*
X120904000Y-67437000D03*
X120904000Y-64897000D03*
G04 #@! TO.N,/CLK_OUT*
X123698000Y-34289970D03*
X125984000Y-42672000D03*
G04 #@! TO.N,/CLK_IN*
X123444000Y-32512000D03*
X124167978Y-42797268D03*
G04 #@! TO.N,/PMOD_6*
X126106119Y-44280378D03*
G04 #@! TO.N,/PMOD_5*
X125236932Y-44781325D03*
G04 #@! TO.N,/PMOD_7*
X123845972Y-46217219D03*
G04 #@! TO.N,/PMOD_8*
X121920016Y-43180000D03*
G04 #@! TO.N,+3V3*
X133350000Y-39116000D03*
X116967000Y-33274000D03*
X118110000Y-34417000D03*
X119634000Y-34417000D03*
X121158000Y-34417000D03*
X128270000Y-53086000D03*
X121666000Y-54102000D03*
X122428000Y-47751982D03*
X129794000Y-45466000D03*
X129794000Y-46990000D03*
X124587000Y-31750000D03*
X131064000Y-30988000D03*
X128016000Y-30988000D03*
X119062500Y-39052500D03*
G04 #@! TO.N,/SPI_MOSI*
X120137848Y-50439070D03*
X125730000Y-38340190D03*
G04 #@! TO.N,/SPI_MISO*
X120342124Y-49456876D03*
X124714000Y-39116000D03*
G04 #@! TO.N,/SPI_SCK*
X119380000Y-48514000D03*
X118165744Y-38149514D03*
G04 #@! TD*
D14*
G04 #@! TO.N,+3V3*
G36*
X133372196Y-25762000D02*
X133017126Y-25762000D01*
X132636720Y-25919569D01*
X132345569Y-26210720D01*
X132269342Y-26394750D01*
X132208839Y-26090582D01*
X131880625Y-25599375D01*
X131389418Y-25271161D01*
X130956256Y-25185000D01*
X130663744Y-25185000D01*
X130230582Y-25271161D01*
X129739375Y-25599375D01*
X129540000Y-25897761D01*
X129340625Y-25599375D01*
X128849418Y-25271161D01*
X128416256Y-25185000D01*
X128123744Y-25185000D01*
X127690582Y-25271161D01*
X127199375Y-25599375D01*
X127000000Y-25897761D01*
X126800625Y-25599375D01*
X126309418Y-25271161D01*
X125876256Y-25185000D01*
X125583744Y-25185000D01*
X125150582Y-25271161D01*
X124659375Y-25599375D01*
X124460000Y-25897761D01*
X124260625Y-25599375D01*
X123769418Y-25271161D01*
X123336256Y-25185000D01*
X123043744Y-25185000D01*
X122610582Y-25271161D01*
X122119375Y-25599375D01*
X121920000Y-25897761D01*
X121720625Y-25599375D01*
X121229418Y-25271161D01*
X120796256Y-25185000D01*
X120503744Y-25185000D01*
X120070582Y-25271161D01*
X119579375Y-25599375D01*
X119380000Y-25897761D01*
X119180625Y-25599375D01*
X118689418Y-25271161D01*
X118256256Y-25185000D01*
X117963744Y-25185000D01*
X117530582Y-25271161D01*
X117039375Y-25599375D01*
X116711161Y-26090582D01*
X116595908Y-26670000D01*
X116711161Y-27249418D01*
X117039375Y-27740625D01*
X117057619Y-27752816D01*
X117012235Y-27761843D01*
X116802191Y-27902191D01*
X116661843Y-28112235D01*
X116612560Y-28360000D01*
X116612560Y-30060000D01*
X116661843Y-30307765D01*
X116802191Y-30517809D01*
X117012235Y-30658157D01*
X117260000Y-30707440D01*
X118960000Y-30707440D01*
X119207765Y-30658157D01*
X119417809Y-30517809D01*
X119558157Y-30307765D01*
X119567184Y-30262381D01*
X119579375Y-30280625D01*
X120070582Y-30608839D01*
X120503744Y-30695000D01*
X120796256Y-30695000D01*
X121229418Y-30608839D01*
X121720625Y-30280625D01*
X121920000Y-29982239D01*
X122119375Y-30280625D01*
X122610582Y-30608839D01*
X123043744Y-30695000D01*
X123336256Y-30695000D01*
X123769418Y-30608839D01*
X124260625Y-30280625D01*
X124460000Y-29982239D01*
X124659375Y-30280625D01*
X125150582Y-30608839D01*
X125583744Y-30695000D01*
X125876256Y-30695000D01*
X126309418Y-30608839D01*
X126800625Y-30280625D01*
X127000000Y-29982239D01*
X127199375Y-30280625D01*
X127690582Y-30608839D01*
X128123744Y-30695000D01*
X128416256Y-30695000D01*
X128849418Y-30608839D01*
X129340625Y-30280625D01*
X129540000Y-29982239D01*
X129739375Y-30280625D01*
X130230582Y-30608839D01*
X130663744Y-30695000D01*
X130956256Y-30695000D01*
X131389418Y-30608839D01*
X131880625Y-30280625D01*
X132208839Y-29789418D01*
X132235209Y-29656847D01*
X132345569Y-29923280D01*
X132394289Y-29972000D01*
X132345569Y-30020720D01*
X132188000Y-30401126D01*
X132188000Y-30812874D01*
X132345569Y-31193280D01*
X132636720Y-31484431D01*
X133017126Y-31642000D01*
X133428874Y-31642000D01*
X133809280Y-31484431D01*
X133910001Y-31383710D01*
X133910001Y-44816290D01*
X133682280Y-44588569D01*
X133301874Y-44431000D01*
X132890126Y-44431000D01*
X132509720Y-44588569D01*
X132218569Y-44879720D01*
X132061000Y-45260126D01*
X132061000Y-45671874D01*
X132218569Y-46052280D01*
X132394289Y-46228000D01*
X132218569Y-46403720D01*
X132061000Y-46784126D01*
X132061000Y-47195874D01*
X132218569Y-47576280D01*
X132394289Y-47752000D01*
X132218569Y-47927720D01*
X132061000Y-48308126D01*
X132061000Y-48719874D01*
X132218569Y-49100280D01*
X132509720Y-49391431D01*
X132795489Y-49509800D01*
X132599569Y-49705720D01*
X132442000Y-50086126D01*
X132442000Y-50497874D01*
X132599569Y-50878280D01*
X132890720Y-51169431D01*
X133271126Y-51327000D01*
X133682874Y-51327000D01*
X133910000Y-51232921D01*
X133910000Y-60960000D01*
X115010000Y-60960000D01*
X115010000Y-58053711D01*
X115110720Y-58154431D01*
X115491126Y-58312000D01*
X115902874Y-58312000D01*
X116283280Y-58154431D01*
X116350585Y-58087126D01*
X122409000Y-58087126D01*
X122409000Y-58498874D01*
X122566569Y-58879280D01*
X122857720Y-59170431D01*
X123238126Y-59328000D01*
X123649874Y-59328000D01*
X124030280Y-59170431D01*
X124321431Y-58879280D01*
X124479000Y-58498874D01*
X124479000Y-58087126D01*
X124321431Y-57706720D01*
X124030280Y-57415569D01*
X123649874Y-57258000D01*
X123238126Y-57258000D01*
X122857720Y-57415569D01*
X122566569Y-57706720D01*
X122409000Y-58087126D01*
X116350585Y-58087126D01*
X116574431Y-57863280D01*
X116732000Y-57482874D01*
X116732000Y-57071126D01*
X131172000Y-57071126D01*
X131172000Y-57482874D01*
X131329569Y-57863280D01*
X131620720Y-58154431D01*
X132001126Y-58312000D01*
X132412874Y-58312000D01*
X132793280Y-58154431D01*
X133084431Y-57863280D01*
X133242000Y-57482874D01*
X133242000Y-57071126D01*
X133084431Y-56690720D01*
X132793280Y-56399569D01*
X132412874Y-56242000D01*
X132001126Y-56242000D01*
X131620720Y-56399569D01*
X131329569Y-56690720D01*
X131172000Y-57071126D01*
X116732000Y-57071126D01*
X116574431Y-56690720D01*
X116283280Y-56399569D01*
X115902874Y-56242000D01*
X115491126Y-56242000D01*
X115110720Y-56399569D01*
X115010000Y-56500289D01*
X115010000Y-55166126D01*
X118091000Y-55166126D01*
X118091000Y-55577874D01*
X118248569Y-55958280D01*
X118539720Y-56249431D01*
X118920126Y-56407000D01*
X119331874Y-56407000D01*
X119712280Y-56249431D01*
X120003431Y-55958280D01*
X120161000Y-55577874D01*
X120161000Y-55420126D01*
X129648000Y-55420126D01*
X129648000Y-55831874D01*
X129805569Y-56212280D01*
X130096720Y-56503431D01*
X130477126Y-56661000D01*
X130888874Y-56661000D01*
X131269280Y-56503431D01*
X131560431Y-56212280D01*
X131718000Y-55831874D01*
X131718000Y-55420126D01*
X131560431Y-55039720D01*
X131269280Y-54748569D01*
X130888874Y-54591000D01*
X130477126Y-54591000D01*
X130096720Y-54748569D01*
X129805569Y-55039720D01*
X129648000Y-55420126D01*
X120161000Y-55420126D01*
X120161000Y-55166126D01*
X120003431Y-54785720D01*
X119712280Y-54494569D01*
X119331874Y-54337000D01*
X118920126Y-54337000D01*
X118539720Y-54494569D01*
X118248569Y-54785720D01*
X118091000Y-55166126D01*
X115010000Y-55166126D01*
X115010000Y-48147711D01*
X115110720Y-48248431D01*
X115491126Y-48406000D01*
X115902874Y-48406000D01*
X116139163Y-48308126D01*
X118345000Y-48308126D01*
X118345000Y-48719874D01*
X118502569Y-49100280D01*
X118793720Y-49391431D01*
X119174126Y-49549000D01*
X119307124Y-49549000D01*
X119307124Y-49662750D01*
X119349105Y-49764102D01*
X119260417Y-49852790D01*
X119102848Y-50233196D01*
X119102848Y-50644944D01*
X119260417Y-51025350D01*
X119551568Y-51316501D01*
X119931974Y-51474070D01*
X120343722Y-51474070D01*
X120724128Y-51316501D01*
X121015279Y-51025350D01*
X121172848Y-50644944D01*
X121172848Y-50258963D01*
X122575000Y-50258963D01*
X122575000Y-50611037D01*
X122709190Y-50935000D01*
X122575000Y-51258963D01*
X122575000Y-51611037D01*
X122709190Y-51935000D01*
X122575000Y-52258963D01*
X122575000Y-52611037D01*
X122709733Y-52936312D01*
X122958688Y-53185267D01*
X123283963Y-53320000D01*
X123636037Y-53320000D01*
X123960000Y-53185810D01*
X124283963Y-53320000D01*
X124636037Y-53320000D01*
X124960000Y-53185810D01*
X125283963Y-53320000D01*
X125636037Y-53320000D01*
X125961312Y-53185267D01*
X126210267Y-52936312D01*
X126345000Y-52611037D01*
X126345000Y-52258963D01*
X126210810Y-51935000D01*
X126345000Y-51611037D01*
X126345000Y-51258963D01*
X126210810Y-50935000D01*
X126345000Y-50611037D01*
X126345000Y-50258963D01*
X126210267Y-49933688D01*
X125961312Y-49684733D01*
X125636037Y-49550000D01*
X125283963Y-49550000D01*
X124960000Y-49684190D01*
X124636037Y-49550000D01*
X124283963Y-49550000D01*
X123960000Y-49684190D01*
X123636037Y-49550000D01*
X123283963Y-49550000D01*
X122958688Y-49684733D01*
X122709733Y-49933688D01*
X122575000Y-50258963D01*
X121172848Y-50258963D01*
X121172848Y-50233196D01*
X121130867Y-50131844D01*
X121219555Y-50043156D01*
X121377124Y-49662750D01*
X121377124Y-49251002D01*
X121219555Y-48870596D01*
X120928404Y-48579445D01*
X120547998Y-48421876D01*
X120415000Y-48421876D01*
X120415000Y-48308126D01*
X120257431Y-47927720D01*
X120024314Y-47694603D01*
X120220280Y-47613431D01*
X120511431Y-47322280D01*
X120669000Y-46941874D01*
X120669000Y-46530126D01*
X120511431Y-46149720D01*
X120373056Y-46011345D01*
X122810972Y-46011345D01*
X122810972Y-46423093D01*
X122968541Y-46803499D01*
X123259692Y-47094650D01*
X123640098Y-47252219D01*
X124051846Y-47252219D01*
X124432252Y-47094650D01*
X124723403Y-46803499D01*
X124880972Y-46423093D01*
X124880972Y-46011345D01*
X124752379Y-45700892D01*
X125031058Y-45816325D01*
X125442806Y-45816325D01*
X125823212Y-45658756D01*
X126114363Y-45367605D01*
X126135996Y-45315378D01*
X126311993Y-45315378D01*
X126692399Y-45157809D01*
X126983550Y-44866658D01*
X127141119Y-44486252D01*
X127141119Y-44074504D01*
X126983550Y-43694098D01*
X126704582Y-43415130D01*
X126861431Y-43258280D01*
X127019000Y-42877874D01*
X127019000Y-42466126D01*
X126861431Y-42085720D01*
X126570280Y-41794569D01*
X126189874Y-41637000D01*
X125778126Y-41637000D01*
X125397720Y-41794569D01*
X125106569Y-42085720D01*
X125050045Y-42222181D01*
X125045409Y-42210988D01*
X124754258Y-41919837D01*
X124373852Y-41762268D01*
X123962104Y-41762268D01*
X123581698Y-41919837D01*
X123290547Y-42210988D01*
X123132978Y-42591394D01*
X123132978Y-43003142D01*
X123290547Y-43383548D01*
X123581698Y-43674699D01*
X123962104Y-43832268D01*
X124373852Y-43832268D01*
X124754258Y-43674699D01*
X125045409Y-43383548D01*
X125101933Y-43247087D01*
X125106569Y-43258280D01*
X125385538Y-43537249D01*
X125228688Y-43694098D01*
X125207055Y-43746325D01*
X125031058Y-43746325D01*
X124650652Y-43903894D01*
X124359501Y-44195045D01*
X124201932Y-44575451D01*
X124201932Y-44987199D01*
X124330525Y-45297652D01*
X124051846Y-45182219D01*
X123640098Y-45182219D01*
X123259692Y-45339788D01*
X122968541Y-45630939D01*
X122810972Y-46011345D01*
X120373056Y-46011345D01*
X120335711Y-45974000D01*
X120511431Y-45798280D01*
X120669000Y-45417874D01*
X120669000Y-45006126D01*
X120511431Y-44625720D01*
X120220280Y-44334569D01*
X119839874Y-44177000D01*
X119428126Y-44177000D01*
X119047720Y-44334569D01*
X118756569Y-44625720D01*
X118599000Y-45006126D01*
X118599000Y-45417874D01*
X118756569Y-45798280D01*
X118932289Y-45974000D01*
X118756569Y-46149720D01*
X118599000Y-46530126D01*
X118599000Y-46941874D01*
X118756569Y-47322280D01*
X118989686Y-47555397D01*
X118793720Y-47636569D01*
X118502569Y-47927720D01*
X118345000Y-48308126D01*
X116139163Y-48308126D01*
X116283280Y-48248431D01*
X116574431Y-47957280D01*
X116732000Y-47576874D01*
X116732000Y-47165126D01*
X116574431Y-46784720D01*
X116283280Y-46493569D01*
X115902874Y-46336000D01*
X115491126Y-46336000D01*
X115110720Y-46493569D01*
X115010000Y-46594289D01*
X115010000Y-42940711D01*
X115110720Y-43041431D01*
X115491126Y-43199000D01*
X115902874Y-43199000D01*
X116283280Y-43041431D01*
X116350585Y-42974126D01*
X120885016Y-42974126D01*
X120885016Y-43385874D01*
X121042585Y-43766280D01*
X121333736Y-44057431D01*
X121714142Y-44215000D01*
X122125890Y-44215000D01*
X122506296Y-44057431D01*
X122797447Y-43766280D01*
X122955016Y-43385874D01*
X122955016Y-42974126D01*
X122797447Y-42593720D01*
X122506296Y-42302569D01*
X122125890Y-42145000D01*
X121714142Y-42145000D01*
X121333736Y-42302569D01*
X121042585Y-42593720D01*
X120885016Y-42974126D01*
X116350585Y-42974126D01*
X116574431Y-42750280D01*
X116732000Y-42369874D01*
X116732000Y-41958126D01*
X116574431Y-41577720D01*
X116283280Y-41286569D01*
X115902874Y-41129000D01*
X115491126Y-41129000D01*
X115110720Y-41286569D01*
X115010000Y-41387289D01*
X115010000Y-40815126D01*
X118726000Y-40815126D01*
X118726000Y-41226874D01*
X118883569Y-41607280D01*
X119174720Y-41898431D01*
X119555126Y-42056000D01*
X119966874Y-42056000D01*
X120347280Y-41898431D01*
X120638431Y-41607280D01*
X120796000Y-41226874D01*
X120796000Y-40815126D01*
X120638431Y-40434720D01*
X120347280Y-40143569D01*
X119966874Y-39986000D01*
X119555126Y-39986000D01*
X119174720Y-40143569D01*
X118883569Y-40434720D01*
X118726000Y-40815126D01*
X115010000Y-40815126D01*
X115010000Y-37943640D01*
X117130744Y-37943640D01*
X117130744Y-38355388D01*
X117288313Y-38735794D01*
X117579464Y-39026945D01*
X117959870Y-39184514D01*
X118371618Y-39184514D01*
X118752024Y-39026945D01*
X118868843Y-38910126D01*
X123679000Y-38910126D01*
X123679000Y-39321874D01*
X123836569Y-39702280D01*
X124127720Y-39993431D01*
X124508126Y-40151000D01*
X124919874Y-40151000D01*
X125300280Y-39993431D01*
X125591431Y-39702280D01*
X125657019Y-39543936D01*
X129309547Y-39543936D01*
X129309547Y-39955684D01*
X129467116Y-40336090D01*
X129758267Y-40627241D01*
X130138673Y-40784810D01*
X130550421Y-40784810D01*
X130930827Y-40627241D01*
X131221978Y-40336090D01*
X131379547Y-39955684D01*
X131379547Y-39543936D01*
X131221978Y-39163530D01*
X130930827Y-38872379D01*
X130550421Y-38714810D01*
X130138673Y-38714810D01*
X129758267Y-38872379D01*
X129467116Y-39163530D01*
X129309547Y-39543936D01*
X125657019Y-39543936D01*
X125726916Y-39375190D01*
X125935874Y-39375190D01*
X126316280Y-39217621D01*
X126607431Y-38926470D01*
X126765000Y-38546064D01*
X126765000Y-38134316D01*
X126607431Y-37753910D01*
X126316280Y-37462759D01*
X125935874Y-37305190D01*
X125524126Y-37305190D01*
X125143720Y-37462759D01*
X124852569Y-37753910D01*
X124717084Y-38081000D01*
X124508126Y-38081000D01*
X124127720Y-38238569D01*
X123836569Y-38529720D01*
X123679000Y-38910126D01*
X118868843Y-38910126D01*
X119043175Y-38735794D01*
X119200744Y-38355388D01*
X119200744Y-37943640D01*
X119043175Y-37563234D01*
X118752024Y-37272083D01*
X118371618Y-37114514D01*
X117959870Y-37114514D01*
X117579464Y-37272083D01*
X117288313Y-37563234D01*
X117130744Y-37943640D01*
X115010000Y-37943640D01*
X115010000Y-32306126D01*
X122409000Y-32306126D01*
X122409000Y-32717874D01*
X122566569Y-33098280D01*
X122857720Y-33389431D01*
X123053665Y-33470594D01*
X122820569Y-33703690D01*
X122663000Y-34084096D01*
X122663000Y-34495844D01*
X122820569Y-34876250D01*
X123111720Y-35167401D01*
X123492126Y-35324970D01*
X123903874Y-35324970D01*
X124284280Y-35167401D01*
X124575431Y-34876250D01*
X124733000Y-34495844D01*
X124733000Y-34309000D01*
X124792874Y-34309000D01*
X125173280Y-34151431D01*
X125367575Y-33957136D01*
X126981000Y-33957136D01*
X126981000Y-34368884D01*
X127138569Y-34749290D01*
X127429720Y-35040441D01*
X127810126Y-35198010D01*
X128221874Y-35198010D01*
X128602280Y-35040441D01*
X128893431Y-34749290D01*
X129051000Y-34368884D01*
X129051000Y-33957136D01*
X129050996Y-33957126D01*
X130029000Y-33957126D01*
X130029000Y-34368874D01*
X130186569Y-34749280D01*
X130477720Y-35040431D01*
X130858126Y-35198000D01*
X131269874Y-35198000D01*
X131650280Y-35040431D01*
X131941431Y-34749280D01*
X132099000Y-34368874D01*
X132099000Y-33957126D01*
X131941431Y-33576720D01*
X131650280Y-33285569D01*
X131269874Y-33128000D01*
X130858126Y-33128000D01*
X130477720Y-33285569D01*
X130186569Y-33576720D01*
X130029000Y-33957126D01*
X129050996Y-33957126D01*
X128893431Y-33576730D01*
X128602280Y-33285579D01*
X128221874Y-33128010D01*
X127810126Y-33128010D01*
X127429720Y-33285579D01*
X127138569Y-33576730D01*
X126981000Y-33957136D01*
X125367575Y-33957136D01*
X125464431Y-33860280D01*
X125622000Y-33479874D01*
X125622000Y-33068126D01*
X125464431Y-32687720D01*
X125173280Y-32396569D01*
X124792874Y-32239000D01*
X124451196Y-32239000D01*
X124321431Y-31925720D01*
X124030280Y-31634569D01*
X123649874Y-31477000D01*
X123238126Y-31477000D01*
X122857720Y-31634569D01*
X122566569Y-31925720D01*
X122409000Y-32306126D01*
X115010000Y-32306126D01*
X115010000Y-31749317D01*
X115364126Y-31896000D01*
X115775874Y-31896000D01*
X116156280Y-31738431D01*
X116447431Y-31447280D01*
X116605000Y-31066874D01*
X116605000Y-30655126D01*
X116447431Y-30274720D01*
X116398711Y-30226000D01*
X116447431Y-30177280D01*
X116605000Y-29796874D01*
X116605000Y-29385126D01*
X116447431Y-29004720D01*
X116398711Y-28956000D01*
X116447431Y-28907280D01*
X116605000Y-28526874D01*
X116605000Y-28115126D01*
X116447431Y-27734720D01*
X116398711Y-27686000D01*
X116447431Y-27637280D01*
X116605000Y-27256874D01*
X116605000Y-26845126D01*
X116447431Y-26464720D01*
X116156280Y-26173569D01*
X115775874Y-26016000D01*
X115420804Y-26016000D01*
X116643804Y-23570000D01*
X132276196Y-23570000D01*
X133372196Y-25762000D01*
X133372196Y-25762000D01*
G37*
X133372196Y-25762000D02*
X133017126Y-25762000D01*
X132636720Y-25919569D01*
X132345569Y-26210720D01*
X132269342Y-26394750D01*
X132208839Y-26090582D01*
X131880625Y-25599375D01*
X131389418Y-25271161D01*
X130956256Y-25185000D01*
X130663744Y-25185000D01*
X130230582Y-25271161D01*
X129739375Y-25599375D01*
X129540000Y-25897761D01*
X129340625Y-25599375D01*
X128849418Y-25271161D01*
X128416256Y-25185000D01*
X128123744Y-25185000D01*
X127690582Y-25271161D01*
X127199375Y-25599375D01*
X127000000Y-25897761D01*
X126800625Y-25599375D01*
X126309418Y-25271161D01*
X125876256Y-25185000D01*
X125583744Y-25185000D01*
X125150582Y-25271161D01*
X124659375Y-25599375D01*
X124460000Y-25897761D01*
X124260625Y-25599375D01*
X123769418Y-25271161D01*
X123336256Y-25185000D01*
X123043744Y-25185000D01*
X122610582Y-25271161D01*
X122119375Y-25599375D01*
X121920000Y-25897761D01*
X121720625Y-25599375D01*
X121229418Y-25271161D01*
X120796256Y-25185000D01*
X120503744Y-25185000D01*
X120070582Y-25271161D01*
X119579375Y-25599375D01*
X119380000Y-25897761D01*
X119180625Y-25599375D01*
X118689418Y-25271161D01*
X118256256Y-25185000D01*
X117963744Y-25185000D01*
X117530582Y-25271161D01*
X117039375Y-25599375D01*
X116711161Y-26090582D01*
X116595908Y-26670000D01*
X116711161Y-27249418D01*
X117039375Y-27740625D01*
X117057619Y-27752816D01*
X117012235Y-27761843D01*
X116802191Y-27902191D01*
X116661843Y-28112235D01*
X116612560Y-28360000D01*
X116612560Y-30060000D01*
X116661843Y-30307765D01*
X116802191Y-30517809D01*
X117012235Y-30658157D01*
X117260000Y-30707440D01*
X118960000Y-30707440D01*
X119207765Y-30658157D01*
X119417809Y-30517809D01*
X119558157Y-30307765D01*
X119567184Y-30262381D01*
X119579375Y-30280625D01*
X120070582Y-30608839D01*
X120503744Y-30695000D01*
X120796256Y-30695000D01*
X121229418Y-30608839D01*
X121720625Y-30280625D01*
X121920000Y-29982239D01*
X122119375Y-30280625D01*
X122610582Y-30608839D01*
X123043744Y-30695000D01*
X123336256Y-30695000D01*
X123769418Y-30608839D01*
X124260625Y-30280625D01*
X124460000Y-29982239D01*
X124659375Y-30280625D01*
X125150582Y-30608839D01*
X125583744Y-30695000D01*
X125876256Y-30695000D01*
X126309418Y-30608839D01*
X126800625Y-30280625D01*
X127000000Y-29982239D01*
X127199375Y-30280625D01*
X127690582Y-30608839D01*
X128123744Y-30695000D01*
X128416256Y-30695000D01*
X128849418Y-30608839D01*
X129340625Y-30280625D01*
X129540000Y-29982239D01*
X129739375Y-30280625D01*
X130230582Y-30608839D01*
X130663744Y-30695000D01*
X130956256Y-30695000D01*
X131389418Y-30608839D01*
X131880625Y-30280625D01*
X132208839Y-29789418D01*
X132235209Y-29656847D01*
X132345569Y-29923280D01*
X132394289Y-29972000D01*
X132345569Y-30020720D01*
X132188000Y-30401126D01*
X132188000Y-30812874D01*
X132345569Y-31193280D01*
X132636720Y-31484431D01*
X133017126Y-31642000D01*
X133428874Y-31642000D01*
X133809280Y-31484431D01*
X133910001Y-31383710D01*
X133910001Y-44816290D01*
X133682280Y-44588569D01*
X133301874Y-44431000D01*
X132890126Y-44431000D01*
X132509720Y-44588569D01*
X132218569Y-44879720D01*
X132061000Y-45260126D01*
X132061000Y-45671874D01*
X132218569Y-46052280D01*
X132394289Y-46228000D01*
X132218569Y-46403720D01*
X132061000Y-46784126D01*
X132061000Y-47195874D01*
X132218569Y-47576280D01*
X132394289Y-47752000D01*
X132218569Y-47927720D01*
X132061000Y-48308126D01*
X132061000Y-48719874D01*
X132218569Y-49100280D01*
X132509720Y-49391431D01*
X132795489Y-49509800D01*
X132599569Y-49705720D01*
X132442000Y-50086126D01*
X132442000Y-50497874D01*
X132599569Y-50878280D01*
X132890720Y-51169431D01*
X133271126Y-51327000D01*
X133682874Y-51327000D01*
X133910000Y-51232921D01*
X133910000Y-60960000D01*
X115010000Y-60960000D01*
X115010000Y-58053711D01*
X115110720Y-58154431D01*
X115491126Y-58312000D01*
X115902874Y-58312000D01*
X116283280Y-58154431D01*
X116350585Y-58087126D01*
X122409000Y-58087126D01*
X122409000Y-58498874D01*
X122566569Y-58879280D01*
X122857720Y-59170431D01*
X123238126Y-59328000D01*
X123649874Y-59328000D01*
X124030280Y-59170431D01*
X124321431Y-58879280D01*
X124479000Y-58498874D01*
X124479000Y-58087126D01*
X124321431Y-57706720D01*
X124030280Y-57415569D01*
X123649874Y-57258000D01*
X123238126Y-57258000D01*
X122857720Y-57415569D01*
X122566569Y-57706720D01*
X122409000Y-58087126D01*
X116350585Y-58087126D01*
X116574431Y-57863280D01*
X116732000Y-57482874D01*
X116732000Y-57071126D01*
X131172000Y-57071126D01*
X131172000Y-57482874D01*
X131329569Y-57863280D01*
X131620720Y-58154431D01*
X132001126Y-58312000D01*
X132412874Y-58312000D01*
X132793280Y-58154431D01*
X133084431Y-57863280D01*
X133242000Y-57482874D01*
X133242000Y-57071126D01*
X133084431Y-56690720D01*
X132793280Y-56399569D01*
X132412874Y-56242000D01*
X132001126Y-56242000D01*
X131620720Y-56399569D01*
X131329569Y-56690720D01*
X131172000Y-57071126D01*
X116732000Y-57071126D01*
X116574431Y-56690720D01*
X116283280Y-56399569D01*
X115902874Y-56242000D01*
X115491126Y-56242000D01*
X115110720Y-56399569D01*
X115010000Y-56500289D01*
X115010000Y-55166126D01*
X118091000Y-55166126D01*
X118091000Y-55577874D01*
X118248569Y-55958280D01*
X118539720Y-56249431D01*
X118920126Y-56407000D01*
X119331874Y-56407000D01*
X119712280Y-56249431D01*
X120003431Y-55958280D01*
X120161000Y-55577874D01*
X120161000Y-55420126D01*
X129648000Y-55420126D01*
X129648000Y-55831874D01*
X129805569Y-56212280D01*
X130096720Y-56503431D01*
X130477126Y-56661000D01*
X130888874Y-56661000D01*
X131269280Y-56503431D01*
X131560431Y-56212280D01*
X131718000Y-55831874D01*
X131718000Y-55420126D01*
X131560431Y-55039720D01*
X131269280Y-54748569D01*
X130888874Y-54591000D01*
X130477126Y-54591000D01*
X130096720Y-54748569D01*
X129805569Y-55039720D01*
X129648000Y-55420126D01*
X120161000Y-55420126D01*
X120161000Y-55166126D01*
X120003431Y-54785720D01*
X119712280Y-54494569D01*
X119331874Y-54337000D01*
X118920126Y-54337000D01*
X118539720Y-54494569D01*
X118248569Y-54785720D01*
X118091000Y-55166126D01*
X115010000Y-55166126D01*
X115010000Y-48147711D01*
X115110720Y-48248431D01*
X115491126Y-48406000D01*
X115902874Y-48406000D01*
X116139163Y-48308126D01*
X118345000Y-48308126D01*
X118345000Y-48719874D01*
X118502569Y-49100280D01*
X118793720Y-49391431D01*
X119174126Y-49549000D01*
X119307124Y-49549000D01*
X119307124Y-49662750D01*
X119349105Y-49764102D01*
X119260417Y-49852790D01*
X119102848Y-50233196D01*
X119102848Y-50644944D01*
X119260417Y-51025350D01*
X119551568Y-51316501D01*
X119931974Y-51474070D01*
X120343722Y-51474070D01*
X120724128Y-51316501D01*
X121015279Y-51025350D01*
X121172848Y-50644944D01*
X121172848Y-50258963D01*
X122575000Y-50258963D01*
X122575000Y-50611037D01*
X122709190Y-50935000D01*
X122575000Y-51258963D01*
X122575000Y-51611037D01*
X122709190Y-51935000D01*
X122575000Y-52258963D01*
X122575000Y-52611037D01*
X122709733Y-52936312D01*
X122958688Y-53185267D01*
X123283963Y-53320000D01*
X123636037Y-53320000D01*
X123960000Y-53185810D01*
X124283963Y-53320000D01*
X124636037Y-53320000D01*
X124960000Y-53185810D01*
X125283963Y-53320000D01*
X125636037Y-53320000D01*
X125961312Y-53185267D01*
X126210267Y-52936312D01*
X126345000Y-52611037D01*
X126345000Y-52258963D01*
X126210810Y-51935000D01*
X126345000Y-51611037D01*
X126345000Y-51258963D01*
X126210810Y-50935000D01*
X126345000Y-50611037D01*
X126345000Y-50258963D01*
X126210267Y-49933688D01*
X125961312Y-49684733D01*
X125636037Y-49550000D01*
X125283963Y-49550000D01*
X124960000Y-49684190D01*
X124636037Y-49550000D01*
X124283963Y-49550000D01*
X123960000Y-49684190D01*
X123636037Y-49550000D01*
X123283963Y-49550000D01*
X122958688Y-49684733D01*
X122709733Y-49933688D01*
X122575000Y-50258963D01*
X121172848Y-50258963D01*
X121172848Y-50233196D01*
X121130867Y-50131844D01*
X121219555Y-50043156D01*
X121377124Y-49662750D01*
X121377124Y-49251002D01*
X121219555Y-48870596D01*
X120928404Y-48579445D01*
X120547998Y-48421876D01*
X120415000Y-48421876D01*
X120415000Y-48308126D01*
X120257431Y-47927720D01*
X120024314Y-47694603D01*
X120220280Y-47613431D01*
X120511431Y-47322280D01*
X120669000Y-46941874D01*
X120669000Y-46530126D01*
X120511431Y-46149720D01*
X120373056Y-46011345D01*
X122810972Y-46011345D01*
X122810972Y-46423093D01*
X122968541Y-46803499D01*
X123259692Y-47094650D01*
X123640098Y-47252219D01*
X124051846Y-47252219D01*
X124432252Y-47094650D01*
X124723403Y-46803499D01*
X124880972Y-46423093D01*
X124880972Y-46011345D01*
X124752379Y-45700892D01*
X125031058Y-45816325D01*
X125442806Y-45816325D01*
X125823212Y-45658756D01*
X126114363Y-45367605D01*
X126135996Y-45315378D01*
X126311993Y-45315378D01*
X126692399Y-45157809D01*
X126983550Y-44866658D01*
X127141119Y-44486252D01*
X127141119Y-44074504D01*
X126983550Y-43694098D01*
X126704582Y-43415130D01*
X126861431Y-43258280D01*
X127019000Y-42877874D01*
X127019000Y-42466126D01*
X126861431Y-42085720D01*
X126570280Y-41794569D01*
X126189874Y-41637000D01*
X125778126Y-41637000D01*
X125397720Y-41794569D01*
X125106569Y-42085720D01*
X125050045Y-42222181D01*
X125045409Y-42210988D01*
X124754258Y-41919837D01*
X124373852Y-41762268D01*
X123962104Y-41762268D01*
X123581698Y-41919837D01*
X123290547Y-42210988D01*
X123132978Y-42591394D01*
X123132978Y-43003142D01*
X123290547Y-43383548D01*
X123581698Y-43674699D01*
X123962104Y-43832268D01*
X124373852Y-43832268D01*
X124754258Y-43674699D01*
X125045409Y-43383548D01*
X125101933Y-43247087D01*
X125106569Y-43258280D01*
X125385538Y-43537249D01*
X125228688Y-43694098D01*
X125207055Y-43746325D01*
X125031058Y-43746325D01*
X124650652Y-43903894D01*
X124359501Y-44195045D01*
X124201932Y-44575451D01*
X124201932Y-44987199D01*
X124330525Y-45297652D01*
X124051846Y-45182219D01*
X123640098Y-45182219D01*
X123259692Y-45339788D01*
X122968541Y-45630939D01*
X122810972Y-46011345D01*
X120373056Y-46011345D01*
X120335711Y-45974000D01*
X120511431Y-45798280D01*
X120669000Y-45417874D01*
X120669000Y-45006126D01*
X120511431Y-44625720D01*
X120220280Y-44334569D01*
X119839874Y-44177000D01*
X119428126Y-44177000D01*
X119047720Y-44334569D01*
X118756569Y-44625720D01*
X118599000Y-45006126D01*
X118599000Y-45417874D01*
X118756569Y-45798280D01*
X118932289Y-45974000D01*
X118756569Y-46149720D01*
X118599000Y-46530126D01*
X118599000Y-46941874D01*
X118756569Y-47322280D01*
X118989686Y-47555397D01*
X118793720Y-47636569D01*
X118502569Y-47927720D01*
X118345000Y-48308126D01*
X116139163Y-48308126D01*
X116283280Y-48248431D01*
X116574431Y-47957280D01*
X116732000Y-47576874D01*
X116732000Y-47165126D01*
X116574431Y-46784720D01*
X116283280Y-46493569D01*
X115902874Y-46336000D01*
X115491126Y-46336000D01*
X115110720Y-46493569D01*
X115010000Y-46594289D01*
X115010000Y-42940711D01*
X115110720Y-43041431D01*
X115491126Y-43199000D01*
X115902874Y-43199000D01*
X116283280Y-43041431D01*
X116350585Y-42974126D01*
X120885016Y-42974126D01*
X120885016Y-43385874D01*
X121042585Y-43766280D01*
X121333736Y-44057431D01*
X121714142Y-44215000D01*
X122125890Y-44215000D01*
X122506296Y-44057431D01*
X122797447Y-43766280D01*
X122955016Y-43385874D01*
X122955016Y-42974126D01*
X122797447Y-42593720D01*
X122506296Y-42302569D01*
X122125890Y-42145000D01*
X121714142Y-42145000D01*
X121333736Y-42302569D01*
X121042585Y-42593720D01*
X120885016Y-42974126D01*
X116350585Y-42974126D01*
X116574431Y-42750280D01*
X116732000Y-42369874D01*
X116732000Y-41958126D01*
X116574431Y-41577720D01*
X116283280Y-41286569D01*
X115902874Y-41129000D01*
X115491126Y-41129000D01*
X115110720Y-41286569D01*
X115010000Y-41387289D01*
X115010000Y-40815126D01*
X118726000Y-40815126D01*
X118726000Y-41226874D01*
X118883569Y-41607280D01*
X119174720Y-41898431D01*
X119555126Y-42056000D01*
X119966874Y-42056000D01*
X120347280Y-41898431D01*
X120638431Y-41607280D01*
X120796000Y-41226874D01*
X120796000Y-40815126D01*
X120638431Y-40434720D01*
X120347280Y-40143569D01*
X119966874Y-39986000D01*
X119555126Y-39986000D01*
X119174720Y-40143569D01*
X118883569Y-40434720D01*
X118726000Y-40815126D01*
X115010000Y-40815126D01*
X115010000Y-37943640D01*
X117130744Y-37943640D01*
X117130744Y-38355388D01*
X117288313Y-38735794D01*
X117579464Y-39026945D01*
X117959870Y-39184514D01*
X118371618Y-39184514D01*
X118752024Y-39026945D01*
X118868843Y-38910126D01*
X123679000Y-38910126D01*
X123679000Y-39321874D01*
X123836569Y-39702280D01*
X124127720Y-39993431D01*
X124508126Y-40151000D01*
X124919874Y-40151000D01*
X125300280Y-39993431D01*
X125591431Y-39702280D01*
X125657019Y-39543936D01*
X129309547Y-39543936D01*
X129309547Y-39955684D01*
X129467116Y-40336090D01*
X129758267Y-40627241D01*
X130138673Y-40784810D01*
X130550421Y-40784810D01*
X130930827Y-40627241D01*
X131221978Y-40336090D01*
X131379547Y-39955684D01*
X131379547Y-39543936D01*
X131221978Y-39163530D01*
X130930827Y-38872379D01*
X130550421Y-38714810D01*
X130138673Y-38714810D01*
X129758267Y-38872379D01*
X129467116Y-39163530D01*
X129309547Y-39543936D01*
X125657019Y-39543936D01*
X125726916Y-39375190D01*
X125935874Y-39375190D01*
X126316280Y-39217621D01*
X126607431Y-38926470D01*
X126765000Y-38546064D01*
X126765000Y-38134316D01*
X126607431Y-37753910D01*
X126316280Y-37462759D01*
X125935874Y-37305190D01*
X125524126Y-37305190D01*
X125143720Y-37462759D01*
X124852569Y-37753910D01*
X124717084Y-38081000D01*
X124508126Y-38081000D01*
X124127720Y-38238569D01*
X123836569Y-38529720D01*
X123679000Y-38910126D01*
X118868843Y-38910126D01*
X119043175Y-38735794D01*
X119200744Y-38355388D01*
X119200744Y-37943640D01*
X119043175Y-37563234D01*
X118752024Y-37272083D01*
X118371618Y-37114514D01*
X117959870Y-37114514D01*
X117579464Y-37272083D01*
X117288313Y-37563234D01*
X117130744Y-37943640D01*
X115010000Y-37943640D01*
X115010000Y-32306126D01*
X122409000Y-32306126D01*
X122409000Y-32717874D01*
X122566569Y-33098280D01*
X122857720Y-33389431D01*
X123053665Y-33470594D01*
X122820569Y-33703690D01*
X122663000Y-34084096D01*
X122663000Y-34495844D01*
X122820569Y-34876250D01*
X123111720Y-35167401D01*
X123492126Y-35324970D01*
X123903874Y-35324970D01*
X124284280Y-35167401D01*
X124575431Y-34876250D01*
X124733000Y-34495844D01*
X124733000Y-34309000D01*
X124792874Y-34309000D01*
X125173280Y-34151431D01*
X125367575Y-33957136D01*
X126981000Y-33957136D01*
X126981000Y-34368884D01*
X127138569Y-34749290D01*
X127429720Y-35040441D01*
X127810126Y-35198010D01*
X128221874Y-35198010D01*
X128602280Y-35040441D01*
X128893431Y-34749290D01*
X129051000Y-34368884D01*
X129051000Y-33957136D01*
X129050996Y-33957126D01*
X130029000Y-33957126D01*
X130029000Y-34368874D01*
X130186569Y-34749280D01*
X130477720Y-35040431D01*
X130858126Y-35198000D01*
X131269874Y-35198000D01*
X131650280Y-35040431D01*
X131941431Y-34749280D01*
X132099000Y-34368874D01*
X132099000Y-33957126D01*
X131941431Y-33576720D01*
X131650280Y-33285569D01*
X131269874Y-33128000D01*
X130858126Y-33128000D01*
X130477720Y-33285569D01*
X130186569Y-33576720D01*
X130029000Y-33957126D01*
X129050996Y-33957126D01*
X128893431Y-33576730D01*
X128602280Y-33285579D01*
X128221874Y-33128010D01*
X127810126Y-33128010D01*
X127429720Y-33285579D01*
X127138569Y-33576730D01*
X126981000Y-33957136D01*
X125367575Y-33957136D01*
X125464431Y-33860280D01*
X125622000Y-33479874D01*
X125622000Y-33068126D01*
X125464431Y-32687720D01*
X125173280Y-32396569D01*
X124792874Y-32239000D01*
X124451196Y-32239000D01*
X124321431Y-31925720D01*
X124030280Y-31634569D01*
X123649874Y-31477000D01*
X123238126Y-31477000D01*
X122857720Y-31634569D01*
X122566569Y-31925720D01*
X122409000Y-32306126D01*
X115010000Y-32306126D01*
X115010000Y-31749317D01*
X115364126Y-31896000D01*
X115775874Y-31896000D01*
X116156280Y-31738431D01*
X116447431Y-31447280D01*
X116605000Y-31066874D01*
X116605000Y-30655126D01*
X116447431Y-30274720D01*
X116398711Y-30226000D01*
X116447431Y-30177280D01*
X116605000Y-29796874D01*
X116605000Y-29385126D01*
X116447431Y-29004720D01*
X116398711Y-28956000D01*
X116447431Y-28907280D01*
X116605000Y-28526874D01*
X116605000Y-28115126D01*
X116447431Y-27734720D01*
X116398711Y-27686000D01*
X116447431Y-27637280D01*
X116605000Y-27256874D01*
X116605000Y-26845126D01*
X116447431Y-26464720D01*
X116156280Y-26173569D01*
X115775874Y-26016000D01*
X115420804Y-26016000D01*
X116643804Y-23570000D01*
X132276196Y-23570000D01*
X133372196Y-25762000D01*
G04 #@! TD*
M02*
