M48
;DRILL file {KiCad 5.0.1} date Sun 06 Jan 2019 07:01:29 PM CET
;FORMAT={-:-/ absolute / inch / decimal}
FMAT,2
INCH,TZ
T1C0.0079
T2C0.0157
T3C0.0394
%
G90
G05
M72
T1
X4.8606Y-1.9856
X4.8606Y-2.025
X4.8606Y-2.0644
X4.9Y-1.9856
X4.9Y-2.025
X4.9Y-2.0644
X4.9394Y-1.9856
X4.9394Y-2.025
X4.9394Y-2.0644
T2
X4.55Y-1.065
X4.55Y-1.115
X4.55Y-1.165
X4.55Y-1.215
X4.555Y-1.66
X4.555Y-1.865
X4.555Y-2.255
X4.56Y-2.505
X4.56Y-2.555
X4.56Y-2.605
X4.56Y-2.655
X4.605Y-1.31
X4.65Y-1.355
X4.6522Y-1.5019
X4.6875Y-1.5375
X4.69Y-2.18
X4.7Y-1.91
X4.71Y-1.355
X4.71Y-1.78
X4.71Y-1.84
X4.715Y-1.615
X4.7298Y-1.9858
X4.7379Y-1.9471
X4.76Y-2.505
X4.76Y-2.555
X4.76Y-2.605
X4.76Y-2.655
X4.77Y-1.355
X4.79Y-2.13
X4.8Y-1.7
X4.82Y-1.88
X4.86Y-1.28
X4.86Y-2.295
X4.87Y-1.35
X4.8758Y-1.8196
X4.8885Y-1.6849
X4.905Y-1.25
X4.905Y-1.31
X4.91Y-1.54
X4.9306Y-1.763
X4.95Y-1.5095
X4.96Y-1.68
X4.9648Y-1.7433
X5.04Y-1.22
X5.04Y-1.345
X5.0425Y-2.505
X5.0425Y-2.555
X5.0425Y-2.605
X5.0425Y-2.655
X5.05Y-2.09
X5.11Y-1.79
X5.11Y-1.85
X5.1317Y-1.565
X5.145Y-2.19
X5.16Y-1.22
X5.16Y-1.345
X5.205Y-2.255
X5.24Y-1.79
X5.24Y-1.85
X5.24Y-1.91
X5.2425Y-2.505
X5.2425Y-2.555
X5.2425Y-2.605
X5.2425Y-2.655
X5.245Y-1.055
X5.245Y-1.105
X5.245Y-1.155
X5.245Y-1.205
X5.25Y-1.54
X5.255Y-1.98
T3
X4.65Y-1.05
X4.65Y-1.15
X4.75Y-1.05
X4.75Y-1.15
X4.85Y-1.05
X4.85Y-1.15
X4.95Y-1.05
X4.95Y-1.15
X5.05Y-1.05
X5.05Y-1.15
X5.15Y-1.05
X5.15Y-1.15
T0
M30
